<?xml version="1.0" encoding="utf-8" standalone="no"?>
<!DOCTYPE svg PUBLIC "-//W3C//DTD SVG 1.1//EN"
  "http://www.w3.org/Graphics/SVG/1.1/DTD/svg11.dtd">
<!-- Created with matplotlib (https://matplotlib.org/) -->
<svg height="230.277966pt" version="1.1" viewBox="0 0 453.6 230.277966" width="453.6pt" xmlns="http://www.w3.org/2000/svg" xmlns:xlink="http://www.w3.org/1999/xlink">
 <defs>
  <style type="text/css">
*{stroke-linecap:butt;stroke-linejoin:round;}
  </style>
 </defs>
 <g id="figure_1">
  <g id="patch_1">
   <path d="M 0 230.277966 
L 453.6 230.277966 
L 453.6 -0 
L 0 -0 
z
" style="fill:#ffffff;"/>
  </g>
  <g id="axes_1">
   <g id="patch_2">
    <path clip-path="url(#p453dbe7be9)" d="M 7.2 223.077966 
L 44.420339 223.077966 
L 44.420339 185.857627 
L 7.2 185.857627 
z
" style="fill:#66c2a5;stroke:#66c2a5;stroke-linejoin:miter;"/>
   </g>
   <g id="patch_3">
    <path clip-path="url(#p453dbe7be9)" d="M 7.2 178.413559 
L 44.420339 178.413559 
L 44.420339 141.19322 
L 7.2 141.19322 
z
" style="fill:#66c2a5;stroke:#66c2a5;stroke-linejoin:miter;"/>
   </g>
   <g id="patch_4">
    <path clip-path="url(#p453dbe7be9)" d="M 7.2 133.749153 
L 44.420339 133.749153 
L 44.420339 96.528814 
L 7.2 96.528814 
z
" style="fill:#66c2a5;stroke:#66c2a5;stroke-linejoin:miter;"/>
   </g>
   <g id="patch_5">
    <path clip-path="url(#p453dbe7be9)" d="M 7.2 89.084746 
L 44.420339 89.084746 
L 44.420339 51.864407 
L 7.2 51.864407 
z
" style="fill:#66c2a5;stroke:#66c2a5;stroke-linejoin:miter;"/>
   </g>
   <g id="patch_6">
    <path clip-path="url(#p453dbe7be9)" d="M 7.2 44.420339 
L 44.420339 44.420339 
L 44.420339 7.2 
L 7.2 7.2 
z
" style="fill:#66c2a5;stroke:#66c2a5;stroke-linejoin:miter;"/>
   </g>
   <g id="patch_7">
    <path clip-path="url(#p453dbe7be9)" d="M 51.864407 223.077966 
L 89.084746 223.077966 
L 89.084746 185.857627 
L 51.864407 185.857627 
z
" style="fill:#66c2a5;stroke:#66c2a5;stroke-linejoin:miter;"/>
   </g>
   <g id="patch_8">
    <path clip-path="url(#p453dbe7be9)" d="M 51.864407 178.413559 
L 89.084746 178.413559 
L 89.084746 141.19322 
L 51.864407 141.19322 
z
" style="fill:#66c2a5;stroke:#66c2a5;stroke-linejoin:miter;"/>
   </g>
   <g id="patch_9">
    <path clip-path="url(#p453dbe7be9)" d="M 51.864407 133.749153 
L 89.084746 133.749153 
L 89.084746 96.528814 
L 51.864407 96.528814 
z
" style="fill:#66c2a5;stroke:#66c2a5;stroke-linejoin:miter;"/>
   </g>
   <g id="patch_10">
    <path clip-path="url(#p453dbe7be9)" d="M 51.864407 89.084746 
L 89.084746 89.084746 
L 89.084746 51.864407 
L 51.864407 51.864407 
z
" style="fill:#66c2a5;stroke:#66c2a5;stroke-linejoin:miter;"/>
   </g>
   <g id="patch_11">
    <path clip-path="url(#p453dbe7be9)" d="M 51.864407 44.420339 
L 89.084746 44.420339 
L 89.084746 7.2 
L 51.864407 7.2 
z
" style="fill:#66c2a5;stroke:#66c2a5;stroke-linejoin:miter;"/>
   </g>
   <g id="patch_12">
    <path clip-path="url(#p453dbe7be9)" d="M 96.528814 223.077966 
L 133.749153 223.077966 
L 133.749153 185.857627 
L 96.528814 185.857627 
z
" style="fill:#66c2a5;stroke:#66c2a5;stroke-linejoin:miter;"/>
   </g>
   <g id="patch_13">
    <path clip-path="url(#p453dbe7be9)" d="M 96.528814 178.413559 
L 133.749153 178.413559 
L 133.749153 141.19322 
L 96.528814 141.19322 
z
" style="fill:#66c2a5;stroke:#66c2a5;stroke-linejoin:miter;"/>
   </g>
   <g id="patch_14">
    <path clip-path="url(#p453dbe7be9)" d="M 96.528814 133.749153 
L 133.749153 133.749153 
L 133.749153 96.528814 
L 96.528814 96.528814 
z
" style="fill:#66c2a5;stroke:#66c2a5;stroke-linejoin:miter;"/>
   </g>
   <g id="patch_15">
    <path clip-path="url(#p453dbe7be9)" d="M 96.528814 89.084746 
L 133.749153 89.084746 
L 133.749153 51.864407 
L 96.528814 51.864407 
z
" style="fill:#66c2a5;stroke:#66c2a5;stroke-linejoin:miter;"/>
   </g>
   <g id="patch_16">
    <path clip-path="url(#p453dbe7be9)" d="M 96.528814 44.420339 
L 133.749153 44.420339 
L 133.749153 7.2 
L 96.528814 7.2 
z
" style="fill:#66c2a5;stroke:#66c2a5;stroke-linejoin:miter;"/>
   </g>
   <g id="patch_17">
    <path clip-path="url(#p453dbe7be9)" d="M 141.19322 223.077966 
L 178.413559 223.077966 
L 178.413559 185.857627 
L 141.19322 185.857627 
z
" style="fill:#66c2a5;stroke:#66c2a5;stroke-linejoin:miter;"/>
   </g>
   <g id="patch_18">
    <path clip-path="url(#p453dbe7be9)" d="M 141.19322 178.413559 
L 178.413559 178.413559 
L 178.413559 141.19322 
L 141.19322 141.19322 
z
" style="fill:#66c2a5;stroke:#66c2a5;stroke-linejoin:miter;"/>
   </g>
   <g id="patch_19">
    <path clip-path="url(#p453dbe7be9)" d="M 141.19322 133.749153 
L 178.413559 133.749153 
L 178.413559 96.528814 
L 141.19322 96.528814 
z
" style="fill:#66c2a5;stroke:#66c2a5;stroke-linejoin:miter;"/>
   </g>
   <g id="patch_20">
    <path clip-path="url(#p453dbe7be9)" d="M 141.19322 89.084746 
L 178.413559 89.084746 
L 178.413559 51.864407 
L 141.19322 51.864407 
z
" style="fill:#66c2a5;stroke:#66c2a5;stroke-linejoin:miter;"/>
   </g>
   <g id="patch_21">
    <path clip-path="url(#p453dbe7be9)" d="M 141.19322 44.420339 
L 178.413559 44.420339 
L 178.413559 7.2 
L 141.19322 7.2 
z
" style="fill:#66c2a5;stroke:#66c2a5;stroke-linejoin:miter;"/>
   </g>
   <g id="patch_22">
    <path clip-path="url(#p453dbe7be9)" d="M 185.857627 223.077966 
L 223.077966 223.077966 
L 223.077966 185.857627 
L 185.857627 185.857627 
z
" style="fill:#66c2a5;stroke:#66c2a5;stroke-linejoin:miter;"/>
   </g>
   <g id="patch_23">
    <path clip-path="url(#p453dbe7be9)" d="M 185.857627 178.413559 
L 223.077966 178.413559 
L 223.077966 141.19322 
L 185.857627 141.19322 
z
" style="fill:#66c2a5;stroke:#66c2a5;stroke-linejoin:miter;"/>
   </g>
   <g id="patch_24">
    <path clip-path="url(#p453dbe7be9)" d="M 185.857627 133.749153 
L 223.077966 133.749153 
L 223.077966 96.528814 
L 185.857627 96.528814 
z
" style="fill:#66c2a5;stroke:#66c2a5;stroke-linejoin:miter;"/>
   </g>
   <g id="patch_25">
    <path clip-path="url(#p453dbe7be9)" d="M 185.857627 89.084746 
L 223.077966 89.084746 
L 223.077966 51.864407 
L 185.857627 51.864407 
z
" style="fill:#66c2a5;stroke:#66c2a5;stroke-linejoin:miter;"/>
   </g>
   <g id="patch_26">
    <path clip-path="url(#p453dbe7be9)" d="M 185.857627 44.420339 
L 223.077966 44.420339 
L 223.077966 7.2 
L 185.857627 7.2 
z
" style="fill:#66c2a5;stroke:#66c2a5;stroke-linejoin:miter;"/>
   </g>
   <g id="patch_27">
    <path clip-path="url(#p453dbe7be9)" d="M 230.522034 223.077966 
L 267.742373 223.077966 
L 267.742373 185.857627 
L 230.522034 185.857627 
z
" style="fill:#66c2a5;stroke:#66c2a5;stroke-linejoin:miter;"/>
   </g>
   <g id="patch_28">
    <path clip-path="url(#p453dbe7be9)" d="M 230.522034 178.413559 
L 267.742373 178.413559 
L 267.742373 141.19322 
L 230.522034 141.19322 
z
" style="fill:#66c2a5;stroke:#66c2a5;stroke-linejoin:miter;"/>
   </g>
   <g id="patch_29">
    <path clip-path="url(#p453dbe7be9)" d="M 230.522034 133.749153 
L 267.742373 133.749153 
L 267.742373 96.528814 
L 230.522034 96.528814 
z
" style="fill:#66c2a5;stroke:#66c2a5;stroke-linejoin:miter;"/>
   </g>
   <g id="patch_30">
    <path clip-path="url(#p453dbe7be9)" d="M 230.522034 89.084746 
L 267.742373 89.084746 
L 267.742373 51.864407 
L 230.522034 51.864407 
z
" style="fill:#66c2a5;stroke:#66c2a5;stroke-linejoin:miter;"/>
   </g>
   <g id="patch_31">
    <path clip-path="url(#p453dbe7be9)" d="M 230.522034 44.420339 
L 267.742373 44.420339 
L 267.742373 7.2 
L 230.522034 7.2 
z
" style="fill:#66c2a5;stroke:#66c2a5;stroke-linejoin:miter;"/>
   </g>
   <g id="patch_32">
    <path clip-path="url(#p453dbe7be9)" d="M 275.186441 223.077966 
L 312.40678 223.077966 
L 312.40678 185.857627 
L 275.186441 185.857627 
z
" style="fill:#fc8d62;stroke:#fc8d62;stroke-linejoin:miter;"/>
   </g>
   <g id="patch_33">
    <path clip-path="url(#p453dbe7be9)" d="M 275.186441 178.413559 
L 312.40678 178.413559 
L 312.40678 141.19322 
L 275.186441 141.19322 
z
" style="fill:#fc8d62;stroke:#fc8d62;stroke-linejoin:miter;"/>
   </g>
   <g id="patch_34">
    <path clip-path="url(#p453dbe7be9)" d="M 275.186441 133.749153 
L 312.40678 133.749153 
L 312.40678 96.528814 
L 275.186441 96.528814 
z
" style="fill:#fc8d62;stroke:#fc8d62;stroke-linejoin:miter;"/>
   </g>
   <g id="patch_35">
    <path clip-path="url(#p453dbe7be9)" d="M 275.186441 89.084746 
L 312.40678 89.084746 
L 312.40678 51.864407 
L 275.186441 51.864407 
z
" style="fill:#fc8d62;stroke:#fc8d62;stroke-linejoin:miter;"/>
   </g>
   <g id="patch_36">
    <path clip-path="url(#p453dbe7be9)" d="M 275.186441 44.420339 
L 312.40678 44.420339 
L 312.40678 7.2 
L 275.186441 7.2 
z
" style="fill:#fc8d62;stroke:#fc8d62;stroke-linejoin:miter;"/>
   </g>
   <g id="patch_37">
    <path clip-path="url(#p453dbe7be9)" d="M 319.850847 223.077966 
L 357.071186 223.077966 
L 357.071186 185.857627 
L 319.850847 185.857627 
z
" style="fill:#fc8d62;stroke:#fc8d62;stroke-linejoin:miter;"/>
   </g>
   <g id="patch_38">
    <path clip-path="url(#p453dbe7be9)" d="M 319.850847 178.413559 
L 357.071186 178.413559 
L 357.071186 141.19322 
L 319.850847 141.19322 
z
" style="fill:#fc8d62;stroke:#fc8d62;stroke-linejoin:miter;"/>
   </g>
   <g id="patch_39">
    <path clip-path="url(#p453dbe7be9)" d="M 319.850847 133.749153 
L 357.071186 133.749153 
L 357.071186 96.528814 
L 319.850847 96.528814 
z
" style="fill:#fc8d62;stroke:#fc8d62;stroke-linejoin:miter;"/>
   </g>
   <g id="patch_40">
    <path clip-path="url(#p453dbe7be9)" d="M 319.850847 89.084746 
L 357.071186 89.084746 
L 357.071186 51.864407 
L 319.850847 51.864407 
z
" style="fill:#fc8d62;stroke:#fc8d62;stroke-linejoin:miter;"/>
   </g>
   <g id="patch_41">
    <path clip-path="url(#p453dbe7be9)" d="M 319.850847 44.420339 
L 357.071186 44.420339 
L 357.071186 7.2 
L 319.850847 7.2 
z
" style="fill:#fc8d62;stroke:#fc8d62;stroke-linejoin:miter;"/>
   </g>
   <g id="patch_42">
    <path clip-path="url(#p453dbe7be9)" d="M 364.515254 223.077966 
L 401.735593 223.077966 
L 401.735593 185.857627 
L 364.515254 185.857627 
z
" style="fill:#fc8d62;stroke:#fc8d62;stroke-linejoin:miter;"/>
   </g>
   <g id="patch_43">
    <path clip-path="url(#p453dbe7be9)" d="M 364.515254 178.413559 
L 401.735593 178.413559 
L 401.735593 141.19322 
L 364.515254 141.19322 
z
" style="fill:#fc8d62;stroke:#fc8d62;stroke-linejoin:miter;"/>
   </g>
   <g id="patch_44">
    <path clip-path="url(#p453dbe7be9)" d="M 364.515254 133.749153 
L 401.735593 133.749153 
L 401.735593 96.528814 
L 364.515254 96.528814 
z
" style="fill:#fc8d62;stroke:#fc8d62;stroke-linejoin:miter;"/>
   </g>
   <g id="patch_45">
    <path clip-path="url(#p453dbe7be9)" d="M 364.515254 89.084746 
L 401.735593 89.084746 
L 401.735593 51.864407 
L 364.515254 51.864407 
z
" style="fill:#fc8d62;stroke:#fc8d62;stroke-linejoin:miter;"/>
   </g>
   <g id="patch_46">
    <path clip-path="url(#p453dbe7be9)" d="M 364.515254 44.420339 
L 401.735593 44.420339 
L 401.735593 7.2 
L 364.515254 7.2 
z
" style="fill:#fc8d62;stroke:#fc8d62;stroke-linejoin:miter;"/>
   </g>
   <g id="patch_47">
    <path clip-path="url(#p453dbe7be9)" d="M 409.179661 223.077966 
L 446.4 223.077966 
L 446.4 185.857627 
L 409.179661 185.857627 
z
" style="fill:#fc8d62;stroke:#fc8d62;stroke-linejoin:miter;"/>
   </g>
   <g id="patch_48">
    <path clip-path="url(#p453dbe7be9)" d="M 409.179661 178.413559 
L 446.4 178.413559 
L 446.4 141.19322 
L 409.179661 141.19322 
z
" style="fill:#8da0cb;stroke:#8da0cb;stroke-linejoin:miter;"/>
   </g>
   <g id="patch_49">
    <path clip-path="url(#p453dbe7be9)" d="M 409.179661 133.749153 
L 446.4 133.749153 
L 446.4 96.528814 
L 409.179661 96.528814 
z
" style="fill:#8da0cb;stroke:#8da0cb;stroke-linejoin:miter;"/>
   </g>
   <g id="patch_50">
    <path clip-path="url(#p453dbe7be9)" d="M 409.179661 89.084746 
L 446.4 89.084746 
L 446.4 51.864407 
L 409.179661 51.864407 
z
" style="fill:#8da0cb;stroke:#8da0cb;stroke-linejoin:miter;"/>
   </g>
   <g id="patch_51">
    <path clip-path="url(#p453dbe7be9)" d="M 409.179661 44.420339 
L 446.4 44.420339 
L 446.4 7.2 
L 409.179661 7.2 
z
" style="fill:#8da0cb;stroke:#8da0cb;stroke-linejoin:miter;"/>
   </g>
  </g>
  <g id="text_1">
   <g id="patch_52">
    <path d="M 167.139328 185.791167 
L 317.816922 98.797417 
L 286.460672 44.486799 
L 135.783078 131.480549 
z
" style="fill:#e6e6e6;opacity:0.3;stroke:#808080;stroke-linejoin:miter;stroke-width:3;"/>
   </g>
   <!-- Sample -->
   <defs>
    <path d="M 53.515625 70.515625 
L 53.515625 60.890625 
Q 47.90625 63.578125 42.921875 64.890625 
Q 37.9375 66.21875 33.296875 66.21875 
Q 25.25 66.21875 20.875 63.09375 
Q 16.5 59.96875 16.5 54.203125 
Q 16.5 49.359375 19.40625 46.890625 
Q 22.3125 44.4375 30.421875 42.921875 
L 36.375 41.703125 
Q 47.40625 39.59375 52.65625 34.296875 
Q 57.90625 29 57.90625 20.125 
Q 57.90625 9.515625 50.796875 4.046875 
Q 43.703125 -1.421875 29.984375 -1.421875 
Q 24.8125 -1.421875 18.96875 -0.25 
Q 13.140625 0.921875 6.890625 3.21875 
L 6.890625 13.375 
Q 12.890625 10.015625 18.65625 8.296875 
Q 24.421875 6.59375 29.984375 6.59375 
Q 38.421875 6.59375 43.015625 9.90625 
Q 47.609375 13.234375 47.609375 19.390625 
Q 47.609375 24.75 44.3125 27.78125 
Q 41.015625 30.8125 33.5 32.328125 
L 27.484375 33.5 
Q 16.453125 35.6875 11.515625 40.375 
Q 6.59375 45.0625 6.59375 53.421875 
Q 6.59375 63.09375 13.40625 68.65625 
Q 20.21875 74.21875 32.171875 74.21875 
Q 37.3125 74.21875 42.625 73.28125 
Q 47.953125 72.359375 53.515625 70.515625 
z
" id="DejaVuSans-83"/>
    <path d="M 34.28125 27.484375 
Q 23.390625 27.484375 19.1875 25 
Q 14.984375 22.515625 14.984375 16.5 
Q 14.984375 11.71875 18.140625 8.90625 
Q 21.296875 6.109375 26.703125 6.109375 
Q 34.1875 6.109375 38.703125 11.40625 
Q 43.21875 16.703125 43.21875 25.484375 
L 43.21875 27.484375 
z
M 52.203125 31.203125 
L 52.203125 0 
L 43.21875 0 
L 43.21875 8.296875 
Q 40.140625 3.328125 35.546875 0.953125 
Q 30.953125 -1.421875 24.3125 -1.421875 
Q 15.921875 -1.421875 10.953125 3.296875 
Q 6 8.015625 6 15.921875 
Q 6 25.140625 12.171875 29.828125 
Q 18.359375 34.515625 30.609375 34.515625 
L 43.21875 34.515625 
L 43.21875 35.40625 
Q 43.21875 41.609375 39.140625 45 
Q 35.0625 48.390625 27.6875 48.390625 
Q 23 48.390625 18.546875 47.265625 
Q 14.109375 46.140625 10.015625 43.890625 
L 10.015625 52.203125 
Q 14.9375 54.109375 19.578125 55.046875 
Q 24.21875 56 28.609375 56 
Q 40.484375 56 46.34375 49.84375 
Q 52.203125 43.703125 52.203125 31.203125 
z
" id="DejaVuSans-97"/>
    <path d="M 52 44.1875 
Q 55.375 50.25 60.0625 53.125 
Q 64.75 56 71.09375 56 
Q 79.640625 56 84.28125 50.015625 
Q 88.921875 44.046875 88.921875 33.015625 
L 88.921875 0 
L 79.890625 0 
L 79.890625 32.71875 
Q 79.890625 40.578125 77.09375 44.375 
Q 74.3125 48.1875 68.609375 48.1875 
Q 61.625 48.1875 57.5625 43.546875 
Q 53.515625 38.921875 53.515625 30.90625 
L 53.515625 0 
L 44.484375 0 
L 44.484375 32.71875 
Q 44.484375 40.625 41.703125 44.40625 
Q 38.921875 48.1875 33.109375 48.1875 
Q 26.21875 48.1875 22.15625 43.53125 
Q 18.109375 38.875 18.109375 30.90625 
L 18.109375 0 
L 9.078125 0 
L 9.078125 54.6875 
L 18.109375 54.6875 
L 18.109375 46.1875 
Q 21.1875 51.21875 25.484375 53.609375 
Q 29.78125 56 35.6875 56 
Q 41.65625 56 45.828125 52.96875 
Q 50 49.953125 52 44.1875 
z
" id="DejaVuSans-109"/>
    <path d="M 18.109375 8.203125 
L 18.109375 -20.796875 
L 9.078125 -20.796875 
L 9.078125 54.6875 
L 18.109375 54.6875 
L 18.109375 46.390625 
Q 20.953125 51.265625 25.265625 53.625 
Q 29.59375 56 35.59375 56 
Q 45.5625 56 51.78125 48.09375 
Q 58.015625 40.1875 58.015625 27.296875 
Q 58.015625 14.40625 51.78125 6.484375 
Q 45.5625 -1.421875 35.59375 -1.421875 
Q 29.59375 -1.421875 25.265625 0.953125 
Q 20.953125 3.328125 18.109375 8.203125 
z
M 48.6875 27.296875 
Q 48.6875 37.203125 44.609375 42.84375 
Q 40.53125 48.484375 33.40625 48.484375 
Q 26.265625 48.484375 22.1875 42.84375 
Q 18.109375 37.203125 18.109375 27.296875 
Q 18.109375 17.390625 22.1875 11.75 
Q 26.265625 6.109375 33.40625 6.109375 
Q 40.53125 6.109375 44.609375 11.75 
Q 48.6875 17.390625 48.6875 27.296875 
z
" id="DejaVuSans-112"/>
    <path d="M 9.421875 75.984375 
L 18.40625 75.984375 
L 18.40625 0 
L 9.421875 0 
z
" id="DejaVuSans-108"/>
    <path d="M 56.203125 29.59375 
L 56.203125 25.203125 
L 14.890625 25.203125 
Q 15.484375 15.921875 20.484375 11.0625 
Q 25.484375 6.203125 34.421875 6.203125 
Q 39.59375 6.203125 44.453125 7.46875 
Q 49.3125 8.734375 54.109375 11.28125 
L 54.109375 2.78125 
Q 49.265625 0.734375 44.1875 -0.34375 
Q 39.109375 -1.421875 33.890625 -1.421875 
Q 20.796875 -1.421875 13.15625 6.1875 
Q 5.515625 13.8125 5.515625 26.8125 
Q 5.515625 40.234375 12.765625 48.109375 
Q 20.015625 56 32.328125 56 
Q 43.359375 56 49.78125 48.890625 
Q 56.203125 41.796875 56.203125 29.59375 
z
M 47.21875 32.234375 
Q 47.125 39.59375 43.09375 43.984375 
Q 39.0625 48.390625 32.421875 48.390625 
Q 24.90625 48.390625 20.390625 44.140625 
Q 15.875 39.890625 15.1875 32.171875 
z
" id="DejaVuSans-101"/>
   </defs>
   <g style="fill:#808080;opacity:0.3;" transform="translate(167.372257 162.194613)rotate(-30)scale(0.4 -0.4)">
    <use xlink:href="#DejaVuSans-83"/>
    <use x="63.476562" xlink:href="#DejaVuSans-97"/>
    <use x="124.755859" xlink:href="#DejaVuSans-109"/>
    <use x="222.167969" xlink:href="#DejaVuSans-112"/>
    <use x="285.644531" xlink:href="#DejaVuSans-108"/>
    <use x="313.427734" xlink:href="#DejaVuSans-101"/>
   </g>
  </g>
 </g>
 <defs>
  <clipPath id="p453dbe7be9">
   <rect height="215.877966" width="439.2" x="7.2" y="7.2"/>
  </clipPath>
 </defs>
</svg>
