<?xml version="1.0" encoding="utf-8" standalone="no"?>
<!DOCTYPE svg PUBLIC "-//W3C//DTD SVG 1.1//EN"
  "http://www.w3.org/Graphics/SVG/1.1/DTD/svg11.dtd">
<svg xmlns:xlink="http://www.w3.org/1999/xlink" width="453.6pt" height="230.277966pt" viewBox="0 0 453.6 230.277966" xmlns="http://www.w3.org/2000/svg" version="1.1">
 <metadata>
  <rdf:RDF xmlns:dc="http://purl.org/dc/elements/1.1/" xmlns:cc="http://creativecommons.org/ns#" xmlns:rdf="http://www.w3.org/1999/02/22-rdf-syntax-ns#">
   <cc:Work>
    <dc:type rdf:resource="http://purl.org/dc/dcmitype/StillImage"/>
    <dc:date>2022-06-05T10:30:56.413095</dc:date>
    <dc:format>image/svg+xml</dc:format>
    <dc:creator>
     <cc:Agent>
      <dc:title>Matplotlib v3.5.2, https://matplotlib.org/</dc:title>
     </cc:Agent>
    </dc:creator>
   </cc:Work>
  </rdf:RDF>
 </metadata>
 <defs>
  <style type="text/css">*{stroke-linejoin: round; stroke-linecap: butt}</style>
 </defs>
 <g id="figure_1">
  <g id="patch_1">
   <path d="M 0 230.277966 
L 453.6 230.277966 
L 453.6 -0 
L 0 -0 
z
" style="fill: #ffffff"/>
  </g>
  <g id="axes_1">
   <g id="patch_2">
    <path d="M 7.2 223.077966 
L 44.420339 223.077966 
L 44.420339 185.857627 
L 7.2 185.857627 
z
" clip-path="url(#p8f63faf061)" style="fill: #66c2a5; stroke: #66c2a5; stroke-linejoin: miter"/>
   </g>
   <g id="patch_3">
    <path d="M 7.2 178.413559 
L 44.420339 178.413559 
L 44.420339 141.19322 
L 7.2 141.19322 
z
" clip-path="url(#p8f63faf061)" style="fill: #66c2a5; stroke: #66c2a5; stroke-linejoin: miter"/>
   </g>
   <g id="patch_4">
    <path d="M 7.2 133.749153 
L 44.420339 133.749153 
L 44.420339 96.528814 
L 7.2 96.528814 
z
" clip-path="url(#p8f63faf061)" style="fill: #66c2a5; stroke: #66c2a5; stroke-linejoin: miter"/>
   </g>
   <g id="patch_5">
    <path d="M 7.2 89.084746 
L 44.420339 89.084746 
L 44.420339 51.864407 
L 7.2 51.864407 
z
" clip-path="url(#p8f63faf061)" style="fill: #66c2a5; stroke: #66c2a5; stroke-linejoin: miter"/>
   </g>
   <g id="patch_6">
    <path d="M 7.2 44.420339 
L 44.420339 44.420339 
L 44.420339 7.2 
L 7.2 7.2 
z
" clip-path="url(#p8f63faf061)" style="fill: #66c2a5; stroke: #66c2a5; stroke-linejoin: miter"/>
   </g>
   <g id="patch_7">
    <path d="M 51.864407 223.077966 
L 89.084746 223.077966 
L 89.084746 185.857627 
L 51.864407 185.857627 
z
" clip-path="url(#p8f63faf061)" style="fill: #66c2a5; stroke: #66c2a5; stroke-linejoin: miter"/>
   </g>
   <g id="patch_8">
    <path d="M 51.864407 178.413559 
L 89.084746 178.413559 
L 89.084746 141.19322 
L 51.864407 141.19322 
z
" clip-path="url(#p8f63faf061)" style="fill: #66c2a5; stroke: #66c2a5; stroke-linejoin: miter"/>
   </g>
   <g id="patch_9">
    <path d="M 51.864407 133.749153 
L 89.084746 133.749153 
L 89.084746 96.528814 
L 51.864407 96.528814 
z
" clip-path="url(#p8f63faf061)" style="fill: #66c2a5; stroke: #66c2a5; stroke-linejoin: miter"/>
   </g>
   <g id="patch_10">
    <path d="M 51.864407 89.084746 
L 89.084746 89.084746 
L 89.084746 51.864407 
L 51.864407 51.864407 
z
" clip-path="url(#p8f63faf061)" style="fill: #66c2a5; stroke: #66c2a5; stroke-linejoin: miter"/>
   </g>
   <g id="patch_11">
    <path d="M 51.864407 44.420339 
L 89.084746 44.420339 
L 89.084746 7.2 
L 51.864407 7.2 
z
" clip-path="url(#p8f63faf061)" style="fill: #66c2a5; stroke: #66c2a5; stroke-linejoin: miter"/>
   </g>
   <g id="patch_12">
    <path d="M 96.528814 223.077966 
L 133.749153 223.077966 
L 133.749153 185.857627 
L 96.528814 185.857627 
z
" clip-path="url(#p8f63faf061)" style="fill: #66c2a5; stroke: #66c2a5; stroke-linejoin: miter"/>
   </g>
   <g id="patch_13">
    <path d="M 96.528814 178.413559 
L 133.749153 178.413559 
L 133.749153 141.19322 
L 96.528814 141.19322 
z
" clip-path="url(#p8f63faf061)" style="fill: #66c2a5; stroke: #66c2a5; stroke-linejoin: miter"/>
   </g>
   <g id="patch_14">
    <path d="M 96.528814 133.749153 
L 133.749153 133.749153 
L 133.749153 96.528814 
L 96.528814 96.528814 
z
" clip-path="url(#p8f63faf061)" style="fill: #66c2a5; stroke: #66c2a5; stroke-linejoin: miter"/>
   </g>
   <g id="patch_15">
    <path d="M 96.528814 89.084746 
L 133.749153 89.084746 
L 133.749153 51.864407 
L 96.528814 51.864407 
z
" clip-path="url(#p8f63faf061)" style="fill: #66c2a5; stroke: #66c2a5; stroke-linejoin: miter"/>
   </g>
   <g id="patch_16">
    <path d="M 96.528814 44.420339 
L 133.749153 44.420339 
L 133.749153 7.2 
L 96.528814 7.2 
z
" clip-path="url(#p8f63faf061)" style="fill: #66c2a5; stroke: #66c2a5; stroke-linejoin: miter"/>
   </g>
   <g id="patch_17">
    <path d="M 141.19322 223.077966 
L 178.413559 223.077966 
L 178.413559 185.857627 
L 141.19322 185.857627 
z
" clip-path="url(#p8f63faf061)" style="fill: #66c2a5; stroke: #66c2a5; stroke-linejoin: miter"/>
   </g>
   <g id="patch_18">
    <path d="M 141.19322 178.413559 
L 178.413559 178.413559 
L 178.413559 141.19322 
L 141.19322 141.19322 
z
" clip-path="url(#p8f63faf061)" style="fill: #66c2a5; stroke: #66c2a5; stroke-linejoin: miter"/>
   </g>
   <g id="patch_19">
    <path d="M 141.19322 133.749153 
L 178.413559 133.749153 
L 178.413559 96.528814 
L 141.19322 96.528814 
z
" clip-path="url(#p8f63faf061)" style="fill: #66c2a5; stroke: #66c2a5; stroke-linejoin: miter"/>
   </g>
   <g id="patch_20">
    <path d="M 141.19322 89.084746 
L 178.413559 89.084746 
L 178.413559 51.864407 
L 141.19322 51.864407 
z
" clip-path="url(#p8f63faf061)" style="fill: #66c2a5; stroke: #66c2a5; stroke-linejoin: miter"/>
   </g>
   <g id="patch_21">
    <path d="M 141.19322 44.420339 
L 178.413559 44.420339 
L 178.413559 7.2 
L 141.19322 7.2 
z
" clip-path="url(#p8f63faf061)" style="fill: #66c2a5; stroke: #66c2a5; stroke-linejoin: miter"/>
   </g>
   <g id="patch_22">
    <path d="M 185.857627 223.077966 
L 223.077966 223.077966 
L 223.077966 185.857627 
L 185.857627 185.857627 
z
" clip-path="url(#p8f63faf061)" style="fill: #66c2a5; stroke: #66c2a5; stroke-linejoin: miter"/>
   </g>
   <g id="patch_23">
    <path d="M 185.857627 178.413559 
L 223.077966 178.413559 
L 223.077966 141.19322 
L 185.857627 141.19322 
z
" clip-path="url(#p8f63faf061)" style="fill: #66c2a5; stroke: #66c2a5; stroke-linejoin: miter"/>
   </g>
   <g id="patch_24">
    <path d="M 185.857627 133.749153 
L 223.077966 133.749153 
L 223.077966 96.528814 
L 185.857627 96.528814 
z
" clip-path="url(#p8f63faf061)" style="fill: #66c2a5; stroke: #66c2a5; stroke-linejoin: miter"/>
   </g>
   <g id="patch_25">
    <path d="M 185.857627 89.084746 
L 223.077966 89.084746 
L 223.077966 51.864407 
L 185.857627 51.864407 
z
" clip-path="url(#p8f63faf061)" style="fill: #66c2a5; stroke: #66c2a5; stroke-linejoin: miter"/>
   </g>
   <g id="patch_26">
    <path d="M 185.857627 44.420339 
L 223.077966 44.420339 
L 223.077966 7.2 
L 185.857627 7.2 
z
" clip-path="url(#p8f63faf061)" style="fill: #66c2a5; stroke: #66c2a5; stroke-linejoin: miter"/>
   </g>
   <g id="patch_27">
    <path d="M 230.522034 223.077966 
L 267.742373 223.077966 
L 267.742373 185.857627 
L 230.522034 185.857627 
z
" clip-path="url(#p8f63faf061)" style="fill: #66c2a5; stroke: #66c2a5; stroke-linejoin: miter"/>
   </g>
   <g id="patch_28">
    <path d="M 230.522034 178.413559 
L 267.742373 178.413559 
L 267.742373 141.19322 
L 230.522034 141.19322 
z
" clip-path="url(#p8f63faf061)" style="fill: #66c2a5; stroke: #66c2a5; stroke-linejoin: miter"/>
   </g>
   <g id="patch_29">
    <path d="M 230.522034 133.749153 
L 267.742373 133.749153 
L 267.742373 96.528814 
L 230.522034 96.528814 
z
" clip-path="url(#p8f63faf061)" style="fill: #66c2a5; stroke: #66c2a5; stroke-linejoin: miter"/>
   </g>
   <g id="patch_30">
    <path d="M 230.522034 89.084746 
L 267.742373 89.084746 
L 267.742373 51.864407 
L 230.522034 51.864407 
z
" clip-path="url(#p8f63faf061)" style="fill: #66c2a5; stroke: #66c2a5; stroke-linejoin: miter"/>
   </g>
   <g id="patch_31">
    <path d="M 230.522034 44.420339 
L 267.742373 44.420339 
L 267.742373 7.2 
L 230.522034 7.2 
z
" clip-path="url(#p8f63faf061)" style="fill: #66c2a5; stroke: #66c2a5; stroke-linejoin: miter"/>
   </g>
   <g id="patch_32">
    <path d="M 275.186441 223.077966 
L 312.40678 223.077966 
L 312.40678 185.857627 
L 275.186441 185.857627 
z
" clip-path="url(#p8f63faf061)" style="fill: #fc8d62; stroke: #fc8d62; stroke-linejoin: miter"/>
   </g>
   <g id="patch_33">
    <path d="M 275.186441 178.413559 
L 312.40678 178.413559 
L 312.40678 141.19322 
L 275.186441 141.19322 
z
" clip-path="url(#p8f63faf061)" style="fill: #fc8d62; stroke: #fc8d62; stroke-linejoin: miter"/>
   </g>
   <g id="patch_34">
    <path d="M 275.186441 133.749153 
L 312.40678 133.749153 
L 312.40678 96.528814 
L 275.186441 96.528814 
z
" clip-path="url(#p8f63faf061)" style="fill: #fc8d62; stroke: #fc8d62; stroke-linejoin: miter"/>
   </g>
   <g id="patch_35">
    <path d="M 275.186441 89.084746 
L 312.40678 89.084746 
L 312.40678 51.864407 
L 275.186441 51.864407 
z
" clip-path="url(#p8f63faf061)" style="fill: #fc8d62; stroke: #fc8d62; stroke-linejoin: miter"/>
   </g>
   <g id="patch_36">
    <path d="M 275.186441 44.420339 
L 312.40678 44.420339 
L 312.40678 7.2 
L 275.186441 7.2 
z
" clip-path="url(#p8f63faf061)" style="fill: #fc8d62; stroke: #fc8d62; stroke-linejoin: miter"/>
   </g>
   <g id="patch_37">
    <path d="M 319.850847 223.077966 
L 357.071186 223.077966 
L 357.071186 185.857627 
L 319.850847 185.857627 
z
" clip-path="url(#p8f63faf061)" style="fill: #fc8d62; stroke: #fc8d62; stroke-linejoin: miter"/>
   </g>
   <g id="patch_38">
    <path d="M 319.850847 178.413559 
L 357.071186 178.413559 
L 357.071186 141.19322 
L 319.850847 141.19322 
z
" clip-path="url(#p8f63faf061)" style="fill: #fc8d62; stroke: #fc8d62; stroke-linejoin: miter"/>
   </g>
   <g id="patch_39">
    <path d="M 319.850847 133.749153 
L 357.071186 133.749153 
L 357.071186 96.528814 
L 319.850847 96.528814 
z
" clip-path="url(#p8f63faf061)" style="fill: #fc8d62; stroke: #fc8d62; stroke-linejoin: miter"/>
   </g>
   <g id="patch_40">
    <path d="M 319.850847 89.084746 
L 357.071186 89.084746 
L 357.071186 51.864407 
L 319.850847 51.864407 
z
" clip-path="url(#p8f63faf061)" style="fill: #fc8d62; stroke: #fc8d62; stroke-linejoin: miter"/>
   </g>
   <g id="patch_41">
    <path d="M 319.850847 44.420339 
L 357.071186 44.420339 
L 357.071186 7.2 
L 319.850847 7.2 
z
" clip-path="url(#p8f63faf061)" style="fill: #fc8d62; stroke: #fc8d62; stroke-linejoin: miter"/>
   </g>
   <g id="patch_42">
    <path d="M 364.515254 223.077966 
L 401.735593 223.077966 
L 401.735593 185.857627 
L 364.515254 185.857627 
z
" clip-path="url(#p8f63faf061)" style="fill: #fc8d62; stroke: #fc8d62; stroke-linejoin: miter"/>
   </g>
   <g id="patch_43">
    <path d="M 364.515254 178.413559 
L 401.735593 178.413559 
L 401.735593 141.19322 
L 364.515254 141.19322 
z
" clip-path="url(#p8f63faf061)" style="fill: #fc8d62; stroke: #fc8d62; stroke-linejoin: miter"/>
   </g>
   <g id="patch_44">
    <path d="M 364.515254 133.749153 
L 401.735593 133.749153 
L 401.735593 96.528814 
L 364.515254 96.528814 
z
" clip-path="url(#p8f63faf061)" style="fill: #fc8d62; stroke: #fc8d62; stroke-linejoin: miter"/>
   </g>
   <g id="patch_45">
    <path d="M 364.515254 89.084746 
L 401.735593 89.084746 
L 401.735593 51.864407 
L 364.515254 51.864407 
z
" clip-path="url(#p8f63faf061)" style="fill: #fc8d62; stroke: #fc8d62; stroke-linejoin: miter"/>
   </g>
   <g id="patch_46">
    <path d="M 364.515254 44.420339 
L 401.735593 44.420339 
L 401.735593 7.2 
L 364.515254 7.2 
z
" clip-path="url(#p8f63faf061)" style="fill: #fc8d62; stroke: #fc8d62; stroke-linejoin: miter"/>
   </g>
   <g id="patch_47">
    <path d="M 409.179661 223.077966 
L 446.4 223.077966 
L 446.4 185.857627 
L 409.179661 185.857627 
z
" clip-path="url(#p8f63faf061)" style="fill: #fc8d62; stroke: #fc8d62; stroke-linejoin: miter"/>
   </g>
   <g id="patch_48">
    <path d="M 409.179661 178.413559 
L 446.4 178.413559 
L 446.4 141.19322 
L 409.179661 141.19322 
z
" clip-path="url(#p8f63faf061)" style="fill: #8da0cb; stroke: #8da0cb; stroke-linejoin: miter"/>
   </g>
   <g id="patch_49">
    <path d="M 409.179661 133.749153 
L 446.4 133.749153 
L 446.4 96.528814 
L 409.179661 96.528814 
z
" clip-path="url(#p8f63faf061)" style="fill: #8da0cb; stroke: #8da0cb; stroke-linejoin: miter"/>
   </g>
   <g id="patch_50">
    <path d="M 409.179661 89.084746 
L 446.4 89.084746 
L 446.4 51.864407 
L 409.179661 51.864407 
z
" clip-path="url(#p8f63faf061)" style="fill: #8da0cb; stroke: #8da0cb; stroke-linejoin: miter"/>
   </g>
   <g id="patch_51">
    <path d="M 409.179661 44.420339 
L 446.4 44.420339 
L 446.4 7.2 
L 409.179661 7.2 
z
" clip-path="url(#p8f63faf061)" style="fill: #8da0cb; stroke: #8da0cb; stroke-linejoin: miter"/>
   </g>
  </g>
  <g id="text_1">
   <g id="patch_52">
    <path d="M 167.139328 185.791167 
L 317.816922 98.797417 
L 286.460672 44.486799 
L 135.783078 131.480549 
z
" style="fill: #e6e6e6; opacity: 0.3; stroke: #808080; stroke-width: 3; stroke-linejoin: miter"/>
   </g>
   <!-- Sample -->
   <g style="fill: #808080; opacity: 0.3" transform="translate(167.372257 162.194613)rotate(-30)scale(0.4 -0.4)">
    <defs>
     <path id="DejaVuSans-53" d="M 3425 4513 
L 3425 3897 
Q 3066 4069 2747 4153 
Q 2428 4238 2131 4238 
Q 1616 4238 1336 4038 
Q 1056 3838 1056 3469 
Q 1056 3159 1242 3001 
Q 1428 2844 1947 2747 
L 2328 2669 
Q 3034 2534 3370 2195 
Q 3706 1856 3706 1288 
Q 3706 609 3251 259 
Q 2797 -91 1919 -91 
Q 1588 -91 1214 -16 
Q 841 59 441 206 
L 441 856 
Q 825 641 1194 531 
Q 1563 422 1919 422 
Q 2459 422 2753 634 
Q 3047 847 3047 1241 
Q 3047 1584 2836 1778 
Q 2625 1972 2144 2069 
L 1759 2144 
Q 1053 2284 737 2584 
Q 422 2884 422 3419 
Q 422 4038 858 4394 
Q 1294 4750 2059 4750 
Q 2388 4750 2728 4690 
Q 3069 4631 3425 4513 
z
" transform="scale(0.015625)"/>
     <path id="DejaVuSans-61" d="M 2194 1759 
Q 1497 1759 1228 1600 
Q 959 1441 959 1056 
Q 959 750 1161 570 
Q 1363 391 1709 391 
Q 2188 391 2477 730 
Q 2766 1069 2766 1631 
L 2766 1759 
L 2194 1759 
z
M 3341 1997 
L 3341 0 
L 2766 0 
L 2766 531 
Q 2569 213 2275 61 
Q 1981 -91 1556 -91 
Q 1019 -91 701 211 
Q 384 513 384 1019 
Q 384 1609 779 1909 
Q 1175 2209 1959 2209 
L 2766 2209 
L 2766 2266 
Q 2766 2663 2505 2880 
Q 2244 3097 1772 3097 
Q 1472 3097 1187 3025 
Q 903 2953 641 2809 
L 641 3341 
Q 956 3463 1253 3523 
Q 1550 3584 1831 3584 
Q 2591 3584 2966 3190 
Q 3341 2797 3341 1997 
z
" transform="scale(0.015625)"/>
     <path id="DejaVuSans-6d" d="M 3328 2828 
Q 3544 3216 3844 3400 
Q 4144 3584 4550 3584 
Q 5097 3584 5394 3201 
Q 5691 2819 5691 2113 
L 5691 0 
L 5113 0 
L 5113 2094 
Q 5113 2597 4934 2840 
Q 4756 3084 4391 3084 
Q 3944 3084 3684 2787 
Q 3425 2491 3425 1978 
L 3425 0 
L 2847 0 
L 2847 2094 
Q 2847 2600 2669 2842 
Q 2491 3084 2119 3084 
Q 1678 3084 1418 2786 
Q 1159 2488 1159 1978 
L 1159 0 
L 581 0 
L 581 3500 
L 1159 3500 
L 1159 2956 
Q 1356 3278 1631 3431 
Q 1906 3584 2284 3584 
Q 2666 3584 2933 3390 
Q 3200 3197 3328 2828 
z
" transform="scale(0.015625)"/>
     <path id="DejaVuSans-70" d="M 1159 525 
L 1159 -1331 
L 581 -1331 
L 581 3500 
L 1159 3500 
L 1159 2969 
Q 1341 3281 1617 3432 
Q 1894 3584 2278 3584 
Q 2916 3584 3314 3078 
Q 3713 2572 3713 1747 
Q 3713 922 3314 415 
Q 2916 -91 2278 -91 
Q 1894 -91 1617 61 
Q 1341 213 1159 525 
z
M 3116 1747 
Q 3116 2381 2855 2742 
Q 2594 3103 2138 3103 
Q 1681 3103 1420 2742 
Q 1159 2381 1159 1747 
Q 1159 1113 1420 752 
Q 1681 391 2138 391 
Q 2594 391 2855 752 
Q 3116 1113 3116 1747 
z
" transform="scale(0.015625)"/>
     <path id="DejaVuSans-6c" d="M 603 4863 
L 1178 4863 
L 1178 0 
L 603 0 
L 603 4863 
z
" transform="scale(0.015625)"/>
     <path id="DejaVuSans-65" d="M 3597 1894 
L 3597 1613 
L 953 1613 
Q 991 1019 1311 708 
Q 1631 397 2203 397 
Q 2534 397 2845 478 
Q 3156 559 3463 722 
L 3463 178 
Q 3153 47 2828 -22 
Q 2503 -91 2169 -91 
Q 1331 -91 842 396 
Q 353 884 353 1716 
Q 353 2575 817 3079 
Q 1281 3584 2069 3584 
Q 2775 3584 3186 3129 
Q 3597 2675 3597 1894 
z
M 3022 2063 
Q 3016 2534 2758 2815 
Q 2500 3097 2075 3097 
Q 1594 3097 1305 2825 
Q 1016 2553 972 2059 
L 3022 2063 
z
" transform="scale(0.015625)"/>
    </defs>
    <use xlink:href="#DejaVuSans-53"/>
    <use xlink:href="#DejaVuSans-61" x="63.476562"/>
    <use xlink:href="#DejaVuSans-6d" x="124.755859"/>
    <use xlink:href="#DejaVuSans-70" x="222.167969"/>
    <use xlink:href="#DejaVuSans-6c" x="285.644531"/>
    <use xlink:href="#DejaVuSans-65" x="313.427734"/>
   </g>
  </g>
 </g>
 <defs>
  <clipPath id="p8f63faf061">
   <rect x="7.2" y="7.2" width="439.2" height="215.877966"/>
  </clipPath>
 </defs>
</svg>
