<?xml version="1.0" encoding="utf-8" standalone="no"?>
<!DOCTYPE svg PUBLIC "-//W3C//DTD SVG 1.1//EN"
  "http://www.w3.org/Graphics/SVG/1.1/DTD/svg11.dtd">
<!-- Created with matplotlib (https://matplotlib.org/) -->
<svg height="345.6pt" version="1.1" viewBox="0 0 460.8 345.6" width="460.8pt" xmlns="http://www.w3.org/2000/svg" xmlns:xlink="http://www.w3.org/1999/xlink">
 <defs>
  <style type="text/css">
*{stroke-linecap:butt;stroke-linejoin:round;}
  </style>
 </defs>
 <g id="figure_1">
  <g id="patch_1">
   <path d="M 0 345.6 
L 460.8 345.6 
L 460.8 0 
L 0 0 
z
" style="fill:#dddddd;"/>
  </g>
  <g id="axes_1">
   <g id="patch_2">
    <path clip-path="url(#pfee66d3fa5)" d="M 10.8 334.8 
L 48.020339 334.8 
L 48.020339 297.579661 
L 10.8 297.579661 
z
" style="fill:#66c2a5;stroke:#66c2a5;stroke-linejoin:miter;"/>
   </g>
   <g id="patch_3">
    <path clip-path="url(#pfee66d3fa5)" d="M 10.8 290.135593 
L 48.020339 290.135593 
L 48.020339 252.915254 
L 10.8 252.915254 
z
" style="fill:#66c2a5;stroke:#66c2a5;stroke-linejoin:miter;"/>
   </g>
   <g id="patch_4">
    <path clip-path="url(#pfee66d3fa5)" d="M 10.8 245.471186 
L 48.020339 245.471186 
L 48.020339 208.250847 
L 10.8 208.250847 
z
" style="fill:#66c2a5;stroke:#66c2a5;stroke-linejoin:miter;"/>
   </g>
   <g id="patch_5">
    <path clip-path="url(#pfee66d3fa5)" d="M 10.8 200.80678 
L 48.020339 200.80678 
L 48.020339 163.586441 
L 10.8 163.586441 
z
" style="fill:#66c2a5;stroke:#66c2a5;stroke-linejoin:miter;"/>
   </g>
   <g id="patch_6">
    <path clip-path="url(#pfee66d3fa5)" d="M 10.8 156.142373 
L 48.020339 156.142373 
L 48.020339 118.922034 
L 10.8 118.922034 
z
" style="fill:#66c2a5;stroke:#66c2a5;stroke-linejoin:miter;"/>
   </g>
   <g id="patch_7">
    <path clip-path="url(#pfee66d3fa5)" d="M 55.464407 334.8 
L 92.684746 334.8 
L 92.684746 297.579661 
L 55.464407 297.579661 
z
" style="fill:#66c2a5;stroke:#66c2a5;stroke-linejoin:miter;"/>
   </g>
   <g id="patch_8">
    <path clip-path="url(#pfee66d3fa5)" d="M 55.464407 290.135593 
L 92.684746 290.135593 
L 92.684746 252.915254 
L 55.464407 252.915254 
z
" style="fill:#66c2a5;stroke:#66c2a5;stroke-linejoin:miter;"/>
   </g>
   <g id="patch_9">
    <path clip-path="url(#pfee66d3fa5)" d="M 55.464407 245.471186 
L 92.684746 245.471186 
L 92.684746 208.250847 
L 55.464407 208.250847 
z
" style="fill:#66c2a5;stroke:#66c2a5;stroke-linejoin:miter;"/>
   </g>
   <g id="patch_10">
    <path clip-path="url(#pfee66d3fa5)" d="M 55.464407 200.80678 
L 92.684746 200.80678 
L 92.684746 163.586441 
L 55.464407 163.586441 
z
" style="fill:#66c2a5;stroke:#66c2a5;stroke-linejoin:miter;"/>
   </g>
   <g id="patch_11">
    <path clip-path="url(#pfee66d3fa5)" d="M 55.464407 156.142373 
L 92.684746 156.142373 
L 92.684746 118.922034 
L 55.464407 118.922034 
z
" style="fill:#66c2a5;stroke:#66c2a5;stroke-linejoin:miter;"/>
   </g>
   <g id="patch_12">
    <path clip-path="url(#pfee66d3fa5)" d="M 100.128814 334.8 
L 137.349153 334.8 
L 137.349153 297.579661 
L 100.128814 297.579661 
z
" style="fill:#66c2a5;stroke:#66c2a5;stroke-linejoin:miter;"/>
   </g>
   <g id="patch_13">
    <path clip-path="url(#pfee66d3fa5)" d="M 100.128814 290.135593 
L 137.349153 290.135593 
L 137.349153 252.915254 
L 100.128814 252.915254 
z
" style="fill:#66c2a5;stroke:#66c2a5;stroke-linejoin:miter;"/>
   </g>
   <g id="patch_14">
    <path clip-path="url(#pfee66d3fa5)" d="M 100.128814 245.471186 
L 137.349153 245.471186 
L 137.349153 208.250847 
L 100.128814 208.250847 
z
" style="fill:#66c2a5;stroke:#66c2a5;stroke-linejoin:miter;"/>
   </g>
   <g id="patch_15">
    <path clip-path="url(#pfee66d3fa5)" d="M 100.128814 200.80678 
L 137.349153 200.80678 
L 137.349153 163.586441 
L 100.128814 163.586441 
z
" style="fill:#66c2a5;stroke:#66c2a5;stroke-linejoin:miter;"/>
   </g>
   <g id="patch_16">
    <path clip-path="url(#pfee66d3fa5)" d="M 100.128814 156.142373 
L 137.349153 156.142373 
L 137.349153 118.922034 
L 100.128814 118.922034 
z
" style="fill:#66c2a5;stroke:#66c2a5;stroke-linejoin:miter;"/>
   </g>
   <g id="patch_17">
    <path clip-path="url(#pfee66d3fa5)" d="M 144.79322 334.8 
L 182.013559 334.8 
L 182.013559 297.579661 
L 144.79322 297.579661 
z
" style="fill:#66c2a5;stroke:#66c2a5;stroke-linejoin:miter;"/>
   </g>
   <g id="patch_18">
    <path clip-path="url(#pfee66d3fa5)" d="M 144.79322 290.135593 
L 182.013559 290.135593 
L 182.013559 252.915254 
L 144.79322 252.915254 
z
" style="fill:#66c2a5;stroke:#66c2a5;stroke-linejoin:miter;"/>
   </g>
   <g id="patch_19">
    <path clip-path="url(#pfee66d3fa5)" d="M 144.79322 245.471186 
L 182.013559 245.471186 
L 182.013559 208.250847 
L 144.79322 208.250847 
z
" style="fill:#66c2a5;stroke:#66c2a5;stroke-linejoin:miter;"/>
   </g>
   <g id="patch_20">
    <path clip-path="url(#pfee66d3fa5)" d="M 144.79322 200.80678 
L 182.013559 200.80678 
L 182.013559 163.586441 
L 144.79322 163.586441 
z
" style="fill:#66c2a5;stroke:#66c2a5;stroke-linejoin:miter;"/>
   </g>
   <g id="patch_21">
    <path clip-path="url(#pfee66d3fa5)" d="M 144.79322 156.142373 
L 182.013559 156.142373 
L 182.013559 118.922034 
L 144.79322 118.922034 
z
" style="fill:#66c2a5;stroke:#66c2a5;stroke-linejoin:miter;"/>
   </g>
   <g id="patch_22">
    <path clip-path="url(#pfee66d3fa5)" d="M 189.457627 334.8 
L 226.677966 334.8 
L 226.677966 297.579661 
L 189.457627 297.579661 
z
" style="fill:#66c2a5;stroke:#66c2a5;stroke-linejoin:miter;"/>
   </g>
   <g id="patch_23">
    <path clip-path="url(#pfee66d3fa5)" d="M 189.457627 290.135593 
L 226.677966 290.135593 
L 226.677966 252.915254 
L 189.457627 252.915254 
z
" style="fill:#66c2a5;stroke:#66c2a5;stroke-linejoin:miter;"/>
   </g>
   <g id="patch_24">
    <path clip-path="url(#pfee66d3fa5)" d="M 189.457627 245.471186 
L 226.677966 245.471186 
L 226.677966 208.250847 
L 189.457627 208.250847 
z
" style="fill:#66c2a5;stroke:#66c2a5;stroke-linejoin:miter;"/>
   </g>
   <g id="patch_25">
    <path clip-path="url(#pfee66d3fa5)" d="M 189.457627 200.80678 
L 226.677966 200.80678 
L 226.677966 163.586441 
L 189.457627 163.586441 
z
" style="fill:#66c2a5;stroke:#66c2a5;stroke-linejoin:miter;"/>
   </g>
   <g id="patch_26">
    <path clip-path="url(#pfee66d3fa5)" d="M 189.457627 156.142373 
L 226.677966 156.142373 
L 226.677966 118.922034 
L 189.457627 118.922034 
z
" style="fill:#66c2a5;stroke:#66c2a5;stroke-linejoin:miter;"/>
   </g>
   <g id="patch_27">
    <path clip-path="url(#pfee66d3fa5)" d="M 234.122034 334.8 
L 271.342373 334.8 
L 271.342373 297.579661 
L 234.122034 297.579661 
z
" style="fill:#fc8d62;stroke:#fc8d62;stroke-linejoin:miter;"/>
   </g>
   <g id="patch_28">
    <path clip-path="url(#pfee66d3fa5)" d="M 234.122034 290.135593 
L 271.342373 290.135593 
L 271.342373 252.915254 
L 234.122034 252.915254 
z
" style="fill:#fc8d62;stroke:#fc8d62;stroke-linejoin:miter;"/>
   </g>
   <g id="patch_29">
    <path clip-path="url(#pfee66d3fa5)" d="M 234.122034 245.471186 
L 271.342373 245.471186 
L 271.342373 208.250847 
L 234.122034 208.250847 
z
" style="fill:#fc8d62;stroke:#fc8d62;stroke-linejoin:miter;"/>
   </g>
   <g id="patch_30">
    <path clip-path="url(#pfee66d3fa5)" d="M 234.122034 200.80678 
L 271.342373 200.80678 
L 271.342373 163.586441 
L 234.122034 163.586441 
z
" style="fill:#fc8d62;stroke:#fc8d62;stroke-linejoin:miter;"/>
   </g>
   <g id="patch_31">
    <path clip-path="url(#pfee66d3fa5)" d="M 234.122034 156.142373 
L 271.342373 156.142373 
L 271.342373 118.922034 
L 234.122034 118.922034 
z
" style="fill:#fc8d62;stroke:#fc8d62;stroke-linejoin:miter;"/>
   </g>
   <g id="patch_32">
    <path clip-path="url(#pfee66d3fa5)" d="M 278.786441 334.8 
L 316.00678 334.8 
L 316.00678 297.579661 
L 278.786441 297.579661 
z
" style="fill:#fc8d62;stroke:#fc8d62;stroke-linejoin:miter;"/>
   </g>
   <g id="patch_33">
    <path clip-path="url(#pfee66d3fa5)" d="M 278.786441 290.135593 
L 316.00678 290.135593 
L 316.00678 252.915254 
L 278.786441 252.915254 
z
" style="fill:#fc8d62;stroke:#fc8d62;stroke-linejoin:miter;"/>
   </g>
   <g id="patch_34">
    <path clip-path="url(#pfee66d3fa5)" d="M 278.786441 245.471186 
L 316.00678 245.471186 
L 316.00678 208.250847 
L 278.786441 208.250847 
z
" style="fill:#fc8d62;stroke:#fc8d62;stroke-linejoin:miter;"/>
   </g>
   <g id="patch_35">
    <path clip-path="url(#pfee66d3fa5)" d="M 278.786441 200.80678 
L 316.00678 200.80678 
L 316.00678 163.586441 
L 278.786441 163.586441 
z
" style="fill:#fc8d62;stroke:#fc8d62;stroke-linejoin:miter;"/>
   </g>
   <g id="patch_36">
    <path clip-path="url(#pfee66d3fa5)" d="M 278.786441 156.142373 
L 316.00678 156.142373 
L 316.00678 118.922034 
L 278.786441 118.922034 
z
" style="fill:#fc8d62;stroke:#fc8d62;stroke-linejoin:miter;"/>
   </g>
   <g id="patch_37">
    <path clip-path="url(#pfee66d3fa5)" d="M 323.450847 334.8 
L 360.671186 334.8 
L 360.671186 297.579661 
L 323.450847 297.579661 
z
" style="fill:#fc8d62;stroke:#fc8d62;stroke-linejoin:miter;"/>
   </g>
   <g id="patch_38">
    <path clip-path="url(#pfee66d3fa5)" d="M 323.450847 290.135593 
L 360.671186 290.135593 
L 360.671186 252.915254 
L 323.450847 252.915254 
z
" style="fill:#fc8d62;stroke:#fc8d62;stroke-linejoin:miter;"/>
   </g>
   <g id="patch_39">
    <path clip-path="url(#pfee66d3fa5)" d="M 323.450847 245.471186 
L 360.671186 245.471186 
L 360.671186 208.250847 
L 323.450847 208.250847 
z
" style="fill:#fc8d62;stroke:#fc8d62;stroke-linejoin:miter;"/>
   </g>
   <g id="patch_40">
    <path clip-path="url(#pfee66d3fa5)" d="M 323.450847 200.80678 
L 360.671186 200.80678 
L 360.671186 163.586441 
L 323.450847 163.586441 
z
" style="fill:#fc8d62;stroke:#fc8d62;stroke-linejoin:miter;"/>
   </g>
   <g id="patch_41">
    <path clip-path="url(#pfee66d3fa5)" d="M 323.450847 156.142373 
L 360.671186 156.142373 
L 360.671186 118.922034 
L 323.450847 118.922034 
z
" style="fill:#fc8d62;stroke:#fc8d62;stroke-linejoin:miter;"/>
   </g>
   <g id="patch_42">
    <path clip-path="url(#pfee66d3fa5)" d="M 368.115254 334.8 
L 405.335593 334.8 
L 405.335593 297.579661 
L 368.115254 297.579661 
z
" style="fill:#fc8d62;stroke:#fc8d62;stroke-linejoin:miter;"/>
   </g>
   <g id="patch_43">
    <path clip-path="url(#pfee66d3fa5)" d="M 368.115254 290.135593 
L 405.335593 290.135593 
L 405.335593 252.915254 
L 368.115254 252.915254 
z
" style="fill:#fc8d62;stroke:#fc8d62;stroke-linejoin:miter;"/>
   </g>
   <g id="patch_44">
    <path clip-path="url(#pfee66d3fa5)" d="M 368.115254 245.471186 
L 405.335593 245.471186 
L 405.335593 208.250847 
L 368.115254 208.250847 
z
" style="fill:#fc8d62;stroke:#fc8d62;stroke-linejoin:miter;"/>
   </g>
   <g id="patch_45">
    <path clip-path="url(#pfee66d3fa5)" d="M 368.115254 200.80678 
L 405.335593 200.80678 
L 405.335593 163.586441 
L 368.115254 163.586441 
z
" style="fill:#fc8d62;stroke:#fc8d62;stroke-linejoin:miter;"/>
   </g>
   <g id="patch_46">
    <path clip-path="url(#pfee66d3fa5)" d="M 368.115254 156.142373 
L 405.335593 156.142373 
L 405.335593 118.922034 
L 368.115254 118.922034 
z
" style="fill:#fc8d62;stroke:#fc8d62;stroke-linejoin:miter;"/>
   </g>
   <g id="patch_47">
    <path clip-path="url(#pfee66d3fa5)" d="M 412.779661 334.8 
L 450 334.8 
L 450 297.579661 
L 412.779661 297.579661 
z
" style="fill:#fc8d62;stroke:#fc8d62;stroke-linejoin:miter;"/>
   </g>
   <g id="patch_48">
    <path clip-path="url(#pfee66d3fa5)" d="M 412.779661 290.135593 
L 450 290.135593 
L 450 252.915254 
L 412.779661 252.915254 
z
" style="fill:#fc8d62;stroke:#fc8d62;stroke-linejoin:miter;"/>
   </g>
   <g id="patch_49">
    <path clip-path="url(#pfee66d3fa5)" d="M 412.779661 245.471186 
L 450 245.471186 
L 450 208.250847 
L 412.779661 208.250847 
z
" style="fill:#fc8d62;stroke:#fc8d62;stroke-linejoin:miter;"/>
   </g>
   <g id="patch_50">
    <path clip-path="url(#pfee66d3fa5)" d="M 412.779661 200.80678 
L 450 200.80678 
L 450 163.586441 
L 412.779661 163.586441 
z
" style="fill:#fc8d62;stroke:#fc8d62;stroke-linejoin:miter;"/>
   </g>
   <g id="patch_51">
    <path clip-path="url(#pfee66d3fa5)" d="M 412.779661 156.142373 
L 450 156.142373 
L 450 118.922034 
L 412.779661 118.922034 
z
" style="fill:#8da0cb;stroke:#8da0cb;stroke-linejoin:miter;"/>
   </g>
  </g>
 </g>
 <defs>
  <clipPath id="pfee66d3fa5">
   <rect height="215.877966" width="439.2" x="10.8" y="118.922034"/>
  </clipPath>
 </defs>
</svg>
