<?xml version="1.0" encoding="utf-8" standalone="no"?>
<!DOCTYPE svg PUBLIC "-//W3C//DTD SVG 1.1//EN"
  "http://www.w3.org/Graphics/SVG/1.1/DTD/svg11.dtd">
<svg xmlns:xlink="http://www.w3.org/1999/xlink" width="453.6pt" height="198.626801pt" viewBox="0 0 453.6 198.626801" xmlns="http://www.w3.org/2000/svg" version="1.1">
 <metadata>
  <rdf:RDF xmlns:dc="http://purl.org/dc/elements/1.1/" xmlns:cc="http://creativecommons.org/ns#" xmlns:rdf="http://www.w3.org/1999/02/22-rdf-syntax-ns#">
   <cc:Work>
    <dc:type rdf:resource="http://purl.org/dc/dcmitype/StillImage"/>
    <dc:date>2022-06-05T10:17:53.303741</dc:date>
    <dc:format>image/svg+xml</dc:format>
    <dc:creator>
     <cc:Agent>
      <dc:title>Matplotlib v3.5.2, https://matplotlib.org/</dc:title>
     </cc:Agent>
    </dc:creator>
   </cc:Work>
  </rdf:RDF>
 </metadata>
 <defs>
  <style type="text/css">*{stroke-linejoin: round; stroke-linecap: butt}</style>
 </defs>
 <g id="figure_1">
  <g id="patch_1">
   <path d="M 0 198.626801 
L 453.6 198.626801 
L 453.6 0 
L 0 0 
z
" style="fill: #ffffff"/>
  </g>
  <g id="axes_1">
   <g id="patch_2">
    <path d="M 7.2 191.426801 
L 38.963242 191.426801 
L 38.963242 159.663559 
L 7.2 159.663559 
z
" clip-path="url(#p8df15e26ce)" style="fill: #66c2a5; stroke: #66c2a5; stroke-linejoin: miter"/>
   </g>
   <g id="patch_3">
    <path d="M 7.2 153.310911 
L 38.963242 153.310911 
L 38.963242 121.547669 
L 7.2 121.547669 
z
" clip-path="url(#p8df15e26ce)" style="fill: #66c2a5; stroke: #66c2a5; stroke-linejoin: miter"/>
   </g>
   <g id="patch_4">
    <path d="M 7.2 115.195021 
L 38.963242 115.195021 
L 38.963242 83.43178 
L 7.2 83.43178 
z
" clip-path="url(#p8df15e26ce)" style="fill: #66c2a5; stroke: #66c2a5; stroke-linejoin: miter"/>
   </g>
   <g id="patch_5">
    <path d="M 7.2 77.079131 
L 38.963242 77.079131 
L 38.963242 45.31589 
L 7.2 45.31589 
z
" clip-path="url(#p8df15e26ce)" style="fill: #66c2a5; stroke: #66c2a5; stroke-linejoin: miter"/>
   </g>
   <g id="patch_6">
    <path d="M 7.2 38.963242 
L 38.963242 38.963242 
L 38.963242 7.2 
L 7.2 7.2 
z
" clip-path="url(#p8df15e26ce)" style="fill: #66c2a5; stroke: #66c2a5; stroke-linejoin: miter"/>
   </g>
   <g id="patch_7">
    <path d="M 45.31589 191.426801 
L 77.079131 191.426801 
L 77.079131 159.663559 
L 45.31589 159.663559 
z
" clip-path="url(#p8df15e26ce)" style="fill: #66c2a5; stroke: #66c2a5; stroke-linejoin: miter"/>
   </g>
   <g id="patch_8">
    <path d="M 45.31589 153.310911 
L 77.079131 153.310911 
L 77.079131 121.547669 
L 45.31589 121.547669 
z
" clip-path="url(#p8df15e26ce)" style="fill: #66c2a5; stroke: #66c2a5; stroke-linejoin: miter"/>
   </g>
   <g id="patch_9">
    <path d="M 45.31589 115.195021 
L 77.079131 115.195021 
L 77.079131 83.43178 
L 45.31589 83.43178 
z
" clip-path="url(#p8df15e26ce)" style="fill: #66c2a5; stroke: #66c2a5; stroke-linejoin: miter"/>
   </g>
   <g id="patch_10">
    <path d="M 45.31589 77.079131 
L 77.079131 77.079131 
L 77.079131 45.31589 
L 45.31589 45.31589 
z
" clip-path="url(#p8df15e26ce)" style="fill: #66c2a5; stroke: #66c2a5; stroke-linejoin: miter"/>
   </g>
   <g id="patch_11">
    <path d="M 45.31589 38.963242 
L 77.079131 38.963242 
L 77.079131 7.2 
L 45.31589 7.2 
z
" clip-path="url(#p8df15e26ce)" style="fill: #66c2a5; stroke: #66c2a5; stroke-linejoin: miter"/>
   </g>
   <g id="patch_12">
    <path d="M 83.43178 191.426801 
L 115.195021 191.426801 
L 115.195021 159.663559 
L 83.43178 159.663559 
z
" clip-path="url(#p8df15e26ce)" style="fill: #66c2a5; stroke: #66c2a5; stroke-linejoin: miter"/>
   </g>
   <g id="patch_13">
    <path d="M 83.43178 153.310911 
L 115.195021 153.310911 
L 115.195021 121.547669 
L 83.43178 121.547669 
z
" clip-path="url(#p8df15e26ce)" style="fill: #66c2a5; stroke: #66c2a5; stroke-linejoin: miter"/>
   </g>
   <g id="patch_14">
    <path d="M 83.43178 115.195021 
L 115.195021 115.195021 
L 115.195021 83.43178 
L 83.43178 83.43178 
z
" clip-path="url(#p8df15e26ce)" style="fill: #66c2a5; stroke: #66c2a5; stroke-linejoin: miter"/>
   </g>
   <g id="patch_15">
    <path d="M 83.43178 77.079131 
L 115.195021 77.079131 
L 115.195021 45.31589 
L 83.43178 45.31589 
z
" clip-path="url(#p8df15e26ce)" style="fill: #66c2a5; stroke: #66c2a5; stroke-linejoin: miter"/>
   </g>
   <g id="patch_16">
    <path d="M 83.43178 38.963242 
L 115.195021 38.963242 
L 115.195021 7.2 
L 83.43178 7.2 
z
" clip-path="url(#p8df15e26ce)" style="fill: #66c2a5; stroke: #66c2a5; stroke-linejoin: miter"/>
   </g>
   <g id="patch_17">
    <path d="M 121.547669 191.426801 
L 153.310911 191.426801 
L 153.310911 159.663559 
L 121.547669 159.663559 
z
" clip-path="url(#p8df15e26ce)" style="fill: #66c2a5; stroke: #66c2a5; stroke-linejoin: miter"/>
   </g>
   <g id="patch_18">
    <path d="M 121.547669 153.310911 
L 153.310911 153.310911 
L 153.310911 121.547669 
L 121.547669 121.547669 
z
" clip-path="url(#p8df15e26ce)" style="fill: #66c2a5; stroke: #66c2a5; stroke-linejoin: miter"/>
   </g>
   <g id="patch_19">
    <path d="M 121.547669 115.195021 
L 153.310911 115.195021 
L 153.310911 83.43178 
L 121.547669 83.43178 
z
" clip-path="url(#p8df15e26ce)" style="fill: #66c2a5; stroke: #66c2a5; stroke-linejoin: miter"/>
   </g>
   <g id="patch_20">
    <path d="M 121.547669 77.079131 
L 153.310911 77.079131 
L 153.310911 45.31589 
L 121.547669 45.31589 
z
" clip-path="url(#p8df15e26ce)" style="fill: #66c2a5; stroke: #66c2a5; stroke-linejoin: miter"/>
   </g>
   <g id="patch_21">
    <path d="M 121.547669 38.963242 
L 153.310911 38.963242 
L 153.310911 7.2 
L 121.547669 7.2 
z
" clip-path="url(#p8df15e26ce)" style="fill: #66c2a5; stroke: #66c2a5; stroke-linejoin: miter"/>
   </g>
   <g id="patch_22">
    <path d="M 159.663559 191.426801 
L 191.426801 191.426801 
L 191.426801 159.663559 
L 159.663559 159.663559 
z
" clip-path="url(#p8df15e26ce)" style="fill: #66c2a5; stroke: #66c2a5; stroke-linejoin: miter"/>
   </g>
   <g id="patch_23">
    <path d="M 159.663559 153.310911 
L 191.426801 153.310911 
L 191.426801 121.547669 
L 159.663559 121.547669 
z
" clip-path="url(#p8df15e26ce)" style="fill: #66c2a5; stroke: #66c2a5; stroke-linejoin: miter"/>
   </g>
   <g id="patch_24">
    <path d="M 159.663559 115.195021 
L 191.426801 115.195021 
L 191.426801 83.43178 
L 159.663559 83.43178 
z
" clip-path="url(#p8df15e26ce)" style="fill: #66c2a5; stroke: #66c2a5; stroke-linejoin: miter"/>
   </g>
   <g id="patch_25">
    <path d="M 159.663559 77.079131 
L 191.426801 77.079131 
L 191.426801 45.31589 
L 159.663559 45.31589 
z
" clip-path="url(#p8df15e26ce)" style="fill: #66c2a5; stroke: #66c2a5; stroke-linejoin: miter"/>
   </g>
   <g id="patch_26">
    <path d="M 159.663559 38.963242 
L 191.426801 38.963242 
L 191.426801 7.2 
L 159.663559 7.2 
z
" clip-path="url(#p8df15e26ce)" style="fill: #66c2a5; stroke: #66c2a5; stroke-linejoin: miter"/>
   </g>
   <g id="patch_27">
    <path d="M 197.779449 191.426801 
L 229.542691 191.426801 
L 229.542691 159.663559 
L 197.779449 159.663559 
z
" clip-path="url(#p8df15e26ce)" style="fill: #66c2a5; stroke: #66c2a5; stroke-linejoin: miter"/>
   </g>
   <g id="patch_28">
    <path d="M 197.779449 153.310911 
L 229.542691 153.310911 
L 229.542691 121.547669 
L 197.779449 121.547669 
z
" clip-path="url(#p8df15e26ce)" style="fill: #66c2a5; stroke: #66c2a5; stroke-linejoin: miter"/>
   </g>
   <g id="patch_29">
    <path d="M 197.779449 115.195021 
L 229.542691 115.195021 
L 229.542691 83.43178 
L 197.779449 83.43178 
z
" clip-path="url(#p8df15e26ce)" style="fill: #66c2a5; stroke: #66c2a5; stroke-linejoin: miter"/>
   </g>
   <g id="patch_30">
    <path d="M 197.779449 77.079131 
L 229.542691 77.079131 
L 229.542691 45.31589 
L 197.779449 45.31589 
z
" clip-path="url(#p8df15e26ce)" style="fill: #66c2a5; stroke: #66c2a5; stroke-linejoin: miter"/>
   </g>
   <g id="patch_31">
    <path d="M 197.779449 38.963242 
L 229.542691 38.963242 
L 229.542691 7.2 
L 197.779449 7.2 
z
" clip-path="url(#p8df15e26ce)" style="fill: #66c2a5; stroke: #66c2a5; stroke-linejoin: miter"/>
   </g>
   <g id="patch_32">
    <path d="M 235.895339 191.426801 
L 267.658581 191.426801 
L 267.658581 159.663559 
L 235.895339 159.663559 
z
" clip-path="url(#p8df15e26ce)" style="fill: #fc8d62; stroke: #fc8d62; stroke-linejoin: miter"/>
   </g>
   <g id="patch_33">
    <path d="M 235.895339 153.310911 
L 267.658581 153.310911 
L 267.658581 121.547669 
L 235.895339 121.547669 
z
" clip-path="url(#p8df15e26ce)" style="fill: #fc8d62; stroke: #fc8d62; stroke-linejoin: miter"/>
   </g>
   <g id="patch_34">
    <path d="M 235.895339 115.195021 
L 267.658581 115.195021 
L 267.658581 83.43178 
L 235.895339 83.43178 
z
" clip-path="url(#p8df15e26ce)" style="fill: #fc8d62; stroke: #fc8d62; stroke-linejoin: miter"/>
   </g>
   <g id="patch_35">
    <path d="M 235.895339 77.079131 
L 267.658581 77.079131 
L 267.658581 45.31589 
L 235.895339 45.31589 
z
" clip-path="url(#p8df15e26ce)" style="fill: #fc8d62; stroke: #fc8d62; stroke-linejoin: miter"/>
   </g>
   <g id="patch_36">
    <path d="M 235.895339 38.963242 
L 267.658581 38.963242 
L 267.658581 7.2 
L 235.895339 7.2 
z
" clip-path="url(#p8df15e26ce)" style="fill: #fc8d62; stroke: #fc8d62; stroke-linejoin: miter"/>
   </g>
   <g id="patch_37">
    <path d="M 274.011229 191.426801 
L 305.77447 191.426801 
L 305.77447 159.663559 
L 274.011229 159.663559 
z
" clip-path="url(#p8df15e26ce)" style="fill: #fc8d62; stroke: #fc8d62; stroke-linejoin: miter"/>
   </g>
   <g id="patch_38">
    <path d="M 274.011229 153.310911 
L 305.77447 153.310911 
L 305.77447 121.547669 
L 274.011229 121.547669 
z
" clip-path="url(#p8df15e26ce)" style="fill: #fc8d62; stroke: #fc8d62; stroke-linejoin: miter"/>
   </g>
   <g id="patch_39">
    <path d="M 274.011229 115.195021 
L 305.77447 115.195021 
L 305.77447 83.43178 
L 274.011229 83.43178 
z
" clip-path="url(#p8df15e26ce)" style="fill: #fc8d62; stroke: #fc8d62; stroke-linejoin: miter"/>
   </g>
   <g id="patch_40">
    <path d="M 274.011229 77.079131 
L 305.77447 77.079131 
L 305.77447 45.31589 
L 274.011229 45.31589 
z
" clip-path="url(#p8df15e26ce)" style="fill: #fc8d62; stroke: #fc8d62; stroke-linejoin: miter"/>
   </g>
   <g id="patch_41">
    <path d="M 274.011229 38.963242 
L 305.77447 38.963242 
L 305.77447 7.2 
L 274.011229 7.2 
z
" clip-path="url(#p8df15e26ce)" style="fill: #fc8d62; stroke: #fc8d62; stroke-linejoin: miter"/>
   </g>
   <g id="patch_42">
    <path d="M 312.127119 191.426801 
L 343.89036 191.426801 
L 343.89036 159.663559 
L 312.127119 159.663559 
z
" clip-path="url(#p8df15e26ce)" style="fill: #fc8d62; stroke: #fc8d62; stroke-linejoin: miter"/>
   </g>
   <g id="patch_43">
    <path d="M 312.127119 153.310911 
L 343.89036 153.310911 
L 343.89036 121.547669 
L 312.127119 121.547669 
z
" clip-path="url(#p8df15e26ce)" style="fill: #fc8d62; stroke: #fc8d62; stroke-linejoin: miter"/>
   </g>
   <g id="patch_44">
    <path d="M 312.127119 115.195021 
L 343.89036 115.195021 
L 343.89036 83.43178 
L 312.127119 83.43178 
z
" clip-path="url(#p8df15e26ce)" style="fill: #fc8d62; stroke: #fc8d62; stroke-linejoin: miter"/>
   </g>
   <g id="patch_45">
    <path d="M 312.127119 77.079131 
L 343.89036 77.079131 
L 343.89036 45.31589 
L 312.127119 45.31589 
z
" clip-path="url(#p8df15e26ce)" style="fill: #fc8d62; stroke: #fc8d62; stroke-linejoin: miter"/>
   </g>
   <g id="patch_46">
    <path d="M 312.127119 38.963242 
L 343.89036 38.963242 
L 343.89036 7.2 
L 312.127119 7.2 
z
" clip-path="url(#p8df15e26ce)" style="fill: #fc8d62; stroke: #fc8d62; stroke-linejoin: miter"/>
   </g>
   <g id="patch_47">
    <path d="M 350.243008 191.426801 
L 382.00625 191.426801 
L 382.00625 159.663559 
L 350.243008 159.663559 
z
" clip-path="url(#p8df15e26ce)" style="fill: #fc8d62; stroke: #fc8d62; stroke-linejoin: miter"/>
   </g>
   <g id="patch_48">
    <path d="M 350.243008 153.310911 
L 382.00625 153.310911 
L 382.00625 121.547669 
L 350.243008 121.547669 
z
" clip-path="url(#p8df15e26ce)" style="fill: #8da0cb; stroke: #8da0cb; stroke-linejoin: miter"/>
   </g>
   <g id="patch_49">
    <path d="M 350.243008 115.195021 
L 382.00625 115.195021 
L 382.00625 83.43178 
L 350.243008 83.43178 
z
" clip-path="url(#p8df15e26ce)" style="fill: #8da0cb; stroke: #8da0cb; stroke-linejoin: miter"/>
   </g>
   <g id="patch_50">
    <path d="M 350.243008 77.079131 
L 382.00625 77.079131 
L 382.00625 45.31589 
L 350.243008 45.31589 
z
" clip-path="url(#p8df15e26ce)" style="fill: #8da0cb; stroke: #8da0cb; stroke-linejoin: miter"/>
   </g>
   <g id="patch_51">
    <path d="M 350.243008 38.963242 
L 382.00625 38.963242 
L 382.00625 7.2 
L 350.243008 7.2 
z
" clip-path="url(#p8df15e26ce)" style="fill: #8da0cb; stroke: #8da0cb; stroke-linejoin: miter"/>
   </g>
   <g id="legend_1">
    <g id="patch_52">
     <path d="M 389.00625 59.234375 
L 444.4 59.234375 
Q 446.4 59.234375 446.4 57.234375 
L 446.4 14.2 
Q 446.4 12.2 444.4 12.2 
L 389.00625 12.2 
Q 387.00625 12.2 387.00625 14.2 
L 387.00625 57.234375 
Q 387.00625 59.234375 389.00625 59.234375 
z
" style="fill: #ffffff; opacity: 0.8; stroke: #cccccc; stroke-linejoin: miter"/>
    </g>
    <g id="patch_53">
     <path d="M 391.00625 23.798438 
L 411.00625 23.798438 
L 411.00625 16.798438 
L 391.00625 16.798438 
z
" style="fill: #66c2a5; stroke: #66c2a5; stroke-linejoin: miter"/>
    </g>
    <g id="text_1">
     <!-- Cat1 -->
     <g transform="translate(419.00625 23.798438)scale(0.1 -0.1)">
      <defs>
       <path id="DejaVuSans-43" d="M 4122 4306 
L 4122 3641 
Q 3803 3938 3442 4084 
Q 3081 4231 2675 4231 
Q 1875 4231 1450 3742 
Q 1025 3253 1025 2328 
Q 1025 1406 1450 917 
Q 1875 428 2675 428 
Q 3081 428 3442 575 
Q 3803 722 4122 1019 
L 4122 359 
Q 3791 134 3420 21 
Q 3050 -91 2638 -91 
Q 1578 -91 968 557 
Q 359 1206 359 2328 
Q 359 3453 968 4101 
Q 1578 4750 2638 4750 
Q 3056 4750 3426 4639 
Q 3797 4528 4122 4306 
z
" transform="scale(0.015625)"/>
       <path id="DejaVuSans-61" d="M 2194 1759 
Q 1497 1759 1228 1600 
Q 959 1441 959 1056 
Q 959 750 1161 570 
Q 1363 391 1709 391 
Q 2188 391 2477 730 
Q 2766 1069 2766 1631 
L 2766 1759 
L 2194 1759 
z
M 3341 1997 
L 3341 0 
L 2766 0 
L 2766 531 
Q 2569 213 2275 61 
Q 1981 -91 1556 -91 
Q 1019 -91 701 211 
Q 384 513 384 1019 
Q 384 1609 779 1909 
Q 1175 2209 1959 2209 
L 2766 2209 
L 2766 2266 
Q 2766 2663 2505 2880 
Q 2244 3097 1772 3097 
Q 1472 3097 1187 3025 
Q 903 2953 641 2809 
L 641 3341 
Q 956 3463 1253 3523 
Q 1550 3584 1831 3584 
Q 2591 3584 2966 3190 
Q 3341 2797 3341 1997 
z
" transform="scale(0.015625)"/>
       <path id="DejaVuSans-74" d="M 1172 4494 
L 1172 3500 
L 2356 3500 
L 2356 3053 
L 1172 3053 
L 1172 1153 
Q 1172 725 1289 603 
Q 1406 481 1766 481 
L 2356 481 
L 2356 0 
L 1766 0 
Q 1100 0 847 248 
Q 594 497 594 1153 
L 594 3053 
L 172 3053 
L 172 3500 
L 594 3500 
L 594 4494 
L 1172 4494 
z
" transform="scale(0.015625)"/>
       <path id="DejaVuSans-31" d="M 794 531 
L 1825 531 
L 1825 4091 
L 703 3866 
L 703 4441 
L 1819 4666 
L 2450 4666 
L 2450 531 
L 3481 531 
L 3481 0 
L 794 0 
L 794 531 
z
" transform="scale(0.015625)"/>
      </defs>
      <use xlink:href="#DejaVuSans-43"/>
      <use xlink:href="#DejaVuSans-61" x="69.824219"/>
      <use xlink:href="#DejaVuSans-74" x="131.103516"/>
      <use xlink:href="#DejaVuSans-31" x="170.3125"/>
     </g>
    </g>
    <g id="patch_54">
     <path d="M 391.00625 38.476563 
L 411.00625 38.476563 
L 411.00625 31.476563 
L 391.00625 31.476563 
z
" style="fill: #fc8d62; stroke: #fc8d62; stroke-linejoin: miter"/>
    </g>
    <g id="text_2">
     <!-- Cat2 -->
     <g transform="translate(419.00625 38.476563)scale(0.1 -0.1)">
      <defs>
       <path id="DejaVuSans-32" d="M 1228 531 
L 3431 531 
L 3431 0 
L 469 0 
L 469 531 
Q 828 903 1448 1529 
Q 2069 2156 2228 2338 
Q 2531 2678 2651 2914 
Q 2772 3150 2772 3378 
Q 2772 3750 2511 3984 
Q 2250 4219 1831 4219 
Q 1534 4219 1204 4116 
Q 875 4013 500 3803 
L 500 4441 
Q 881 4594 1212 4672 
Q 1544 4750 1819 4750 
Q 2544 4750 2975 4387 
Q 3406 4025 3406 3419 
Q 3406 3131 3298 2873 
Q 3191 2616 2906 2266 
Q 2828 2175 2409 1742 
Q 1991 1309 1228 531 
z
" transform="scale(0.015625)"/>
      </defs>
      <use xlink:href="#DejaVuSans-43"/>
      <use xlink:href="#DejaVuSans-61" x="69.824219"/>
      <use xlink:href="#DejaVuSans-74" x="131.103516"/>
      <use xlink:href="#DejaVuSans-32" x="170.3125"/>
     </g>
    </g>
    <g id="patch_55">
     <path d="M 391.00625 53.154688 
L 411.00625 53.154688 
L 411.00625 46.154688 
L 391.00625 46.154688 
z
" style="fill: #8da0cb; stroke: #8da0cb; stroke-linejoin: miter"/>
    </g>
    <g id="text_3">
     <!-- Cat3 -->
     <g transform="translate(419.00625 53.154688)scale(0.1 -0.1)">
      <defs>
       <path id="DejaVuSans-33" d="M 2597 2516 
Q 3050 2419 3304 2112 
Q 3559 1806 3559 1356 
Q 3559 666 3084 287 
Q 2609 -91 1734 -91 
Q 1441 -91 1130 -33 
Q 819 25 488 141 
L 488 750 
Q 750 597 1062 519 
Q 1375 441 1716 441 
Q 2309 441 2620 675 
Q 2931 909 2931 1356 
Q 2931 1769 2642 2001 
Q 2353 2234 1838 2234 
L 1294 2234 
L 1294 2753 
L 1863 2753 
Q 2328 2753 2575 2939 
Q 2822 3125 2822 3475 
Q 2822 3834 2567 4026 
Q 2313 4219 1838 4219 
Q 1578 4219 1281 4162 
Q 984 4106 628 3988 
L 628 4550 
Q 988 4650 1302 4700 
Q 1616 4750 1894 4750 
Q 2613 4750 3031 4423 
Q 3450 4097 3450 3541 
Q 3450 3153 3228 2886 
Q 3006 2619 2597 2516 
z
" transform="scale(0.015625)"/>
      </defs>
      <use xlink:href="#DejaVuSans-43"/>
      <use xlink:href="#DejaVuSans-61" x="69.824219"/>
      <use xlink:href="#DejaVuSans-74" x="131.103516"/>
      <use xlink:href="#DejaVuSans-33" x="170.3125"/>
     </g>
    </g>
   </g>
  </g>
 </g>
 <defs>
  <clipPath id="p8df15e26ce">
   <rect x="7.2" y="7.2" width="374.80625" height="184.226801"/>
  </clipPath>
 </defs>
</svg>
