<?xml version="1.0" encoding="utf-8" standalone="no"?>
<!DOCTYPE svg PUBLIC "-//W3C//DTD SVG 1.1//EN"
  "http://www.w3.org/Graphics/SVG/1.1/DTD/svg11.dtd">
<!-- Created with matplotlib (https://matplotlib.org/) -->
<svg height="198.626801pt" version="1.1" viewBox="0 0 453.6 198.626801" width="453.6pt" xmlns="http://www.w3.org/2000/svg" xmlns:xlink="http://www.w3.org/1999/xlink">
 <defs>
  <style type="text/css">
*{stroke-linecap:butt;stroke-linejoin:round;}
  </style>
 </defs>
 <g id="figure_1">
  <g id="patch_1">
   <path d="M 0 198.626801 
L 453.6 198.626801 
L 453.6 0 
L 0 0 
z
" style="fill:#ffffff;"/>
  </g>
  <g id="axes_1">
   <g id="patch_2">
    <path clip-path="url(#p91bb65905e)" d="M 7.2 191.426801 
L 38.963242 191.426801 
L 38.963242 159.663559 
L 7.2 159.663559 
z
" style="fill:#66c2a5;stroke:#66c2a5;stroke-linejoin:miter;"/>
   </g>
   <g id="patch_3">
    <path clip-path="url(#p91bb65905e)" d="M 7.2 153.310911 
L 38.963242 153.310911 
L 38.963242 121.547669 
L 7.2 121.547669 
z
" style="fill:#66c2a5;stroke:#66c2a5;stroke-linejoin:miter;"/>
   </g>
   <g id="patch_4">
    <path clip-path="url(#p91bb65905e)" d="M 7.2 115.195021 
L 38.963242 115.195021 
L 38.963242 83.43178 
L 7.2 83.43178 
z
" style="fill:#66c2a5;stroke:#66c2a5;stroke-linejoin:miter;"/>
   </g>
   <g id="patch_5">
    <path clip-path="url(#p91bb65905e)" d="M 7.2 77.079131 
L 38.963242 77.079131 
L 38.963242 45.31589 
L 7.2 45.31589 
z
" style="fill:#66c2a5;stroke:#66c2a5;stroke-linejoin:miter;"/>
   </g>
   <g id="patch_6">
    <path clip-path="url(#p91bb65905e)" d="M 7.2 38.963242 
L 38.963242 38.963242 
L 38.963242 7.2 
L 7.2 7.2 
z
" style="fill:#66c2a5;stroke:#66c2a5;stroke-linejoin:miter;"/>
   </g>
   <g id="patch_7">
    <path clip-path="url(#p91bb65905e)" d="M 45.31589 191.426801 
L 77.079131 191.426801 
L 77.079131 159.663559 
L 45.31589 159.663559 
z
" style="fill:#66c2a5;stroke:#66c2a5;stroke-linejoin:miter;"/>
   </g>
   <g id="patch_8">
    <path clip-path="url(#p91bb65905e)" d="M 45.31589 153.310911 
L 77.079131 153.310911 
L 77.079131 121.547669 
L 45.31589 121.547669 
z
" style="fill:#66c2a5;stroke:#66c2a5;stroke-linejoin:miter;"/>
   </g>
   <g id="patch_9">
    <path clip-path="url(#p91bb65905e)" d="M 45.31589 115.195021 
L 77.079131 115.195021 
L 77.079131 83.43178 
L 45.31589 83.43178 
z
" style="fill:#66c2a5;stroke:#66c2a5;stroke-linejoin:miter;"/>
   </g>
   <g id="patch_10">
    <path clip-path="url(#p91bb65905e)" d="M 45.31589 77.079131 
L 77.079131 77.079131 
L 77.079131 45.31589 
L 45.31589 45.31589 
z
" style="fill:#66c2a5;stroke:#66c2a5;stroke-linejoin:miter;"/>
   </g>
   <g id="patch_11">
    <path clip-path="url(#p91bb65905e)" d="M 45.31589 38.963242 
L 77.079131 38.963242 
L 77.079131 7.2 
L 45.31589 7.2 
z
" style="fill:#66c2a5;stroke:#66c2a5;stroke-linejoin:miter;"/>
   </g>
   <g id="patch_12">
    <path clip-path="url(#p91bb65905e)" d="M 83.43178 191.426801 
L 115.195021 191.426801 
L 115.195021 159.663559 
L 83.43178 159.663559 
z
" style="fill:#66c2a5;stroke:#66c2a5;stroke-linejoin:miter;"/>
   </g>
   <g id="patch_13">
    <path clip-path="url(#p91bb65905e)" d="M 83.43178 153.310911 
L 115.195021 153.310911 
L 115.195021 121.547669 
L 83.43178 121.547669 
z
" style="fill:#66c2a5;stroke:#66c2a5;stroke-linejoin:miter;"/>
   </g>
   <g id="patch_14">
    <path clip-path="url(#p91bb65905e)" d="M 83.43178 115.195021 
L 115.195021 115.195021 
L 115.195021 83.43178 
L 83.43178 83.43178 
z
" style="fill:#66c2a5;stroke:#66c2a5;stroke-linejoin:miter;"/>
   </g>
   <g id="patch_15">
    <path clip-path="url(#p91bb65905e)" d="M 83.43178 77.079131 
L 115.195021 77.079131 
L 115.195021 45.31589 
L 83.43178 45.31589 
z
" style="fill:#66c2a5;stroke:#66c2a5;stroke-linejoin:miter;"/>
   </g>
   <g id="patch_16">
    <path clip-path="url(#p91bb65905e)" d="M 83.43178 38.963242 
L 115.195021 38.963242 
L 115.195021 7.2 
L 83.43178 7.2 
z
" style="fill:#66c2a5;stroke:#66c2a5;stroke-linejoin:miter;"/>
   </g>
   <g id="patch_17">
    <path clip-path="url(#p91bb65905e)" d="M 121.547669 191.426801 
L 153.310911 191.426801 
L 153.310911 159.663559 
L 121.547669 159.663559 
z
" style="fill:#66c2a5;stroke:#66c2a5;stroke-linejoin:miter;"/>
   </g>
   <g id="patch_18">
    <path clip-path="url(#p91bb65905e)" d="M 121.547669 153.310911 
L 153.310911 153.310911 
L 153.310911 121.547669 
L 121.547669 121.547669 
z
" style="fill:#66c2a5;stroke:#66c2a5;stroke-linejoin:miter;"/>
   </g>
   <g id="patch_19">
    <path clip-path="url(#p91bb65905e)" d="M 121.547669 115.195021 
L 153.310911 115.195021 
L 153.310911 83.43178 
L 121.547669 83.43178 
z
" style="fill:#66c2a5;stroke:#66c2a5;stroke-linejoin:miter;"/>
   </g>
   <g id="patch_20">
    <path clip-path="url(#p91bb65905e)" d="M 121.547669 77.079131 
L 153.310911 77.079131 
L 153.310911 45.31589 
L 121.547669 45.31589 
z
" style="fill:#66c2a5;stroke:#66c2a5;stroke-linejoin:miter;"/>
   </g>
   <g id="patch_21">
    <path clip-path="url(#p91bb65905e)" d="M 121.547669 38.963242 
L 153.310911 38.963242 
L 153.310911 7.2 
L 121.547669 7.2 
z
" style="fill:#66c2a5;stroke:#66c2a5;stroke-linejoin:miter;"/>
   </g>
   <g id="patch_22">
    <path clip-path="url(#p91bb65905e)" d="M 159.663559 191.426801 
L 191.426801 191.426801 
L 191.426801 159.663559 
L 159.663559 159.663559 
z
" style="fill:#66c2a5;stroke:#66c2a5;stroke-linejoin:miter;"/>
   </g>
   <g id="patch_23">
    <path clip-path="url(#p91bb65905e)" d="M 159.663559 153.310911 
L 191.426801 153.310911 
L 191.426801 121.547669 
L 159.663559 121.547669 
z
" style="fill:#66c2a5;stroke:#66c2a5;stroke-linejoin:miter;"/>
   </g>
   <g id="patch_24">
    <path clip-path="url(#p91bb65905e)" d="M 159.663559 115.195021 
L 191.426801 115.195021 
L 191.426801 83.43178 
L 159.663559 83.43178 
z
" style="fill:#66c2a5;stroke:#66c2a5;stroke-linejoin:miter;"/>
   </g>
   <g id="patch_25">
    <path clip-path="url(#p91bb65905e)" d="M 159.663559 77.079131 
L 191.426801 77.079131 
L 191.426801 45.31589 
L 159.663559 45.31589 
z
" style="fill:#66c2a5;stroke:#66c2a5;stroke-linejoin:miter;"/>
   </g>
   <g id="patch_26">
    <path clip-path="url(#p91bb65905e)" d="M 159.663559 38.963242 
L 191.426801 38.963242 
L 191.426801 7.2 
L 159.663559 7.2 
z
" style="fill:#66c2a5;stroke:#66c2a5;stroke-linejoin:miter;"/>
   </g>
   <g id="patch_27">
    <path clip-path="url(#p91bb65905e)" d="M 197.779449 191.426801 
L 229.542691 191.426801 
L 229.542691 159.663559 
L 197.779449 159.663559 
z
" style="fill:#fc8d62;stroke:#fc8d62;stroke-linejoin:miter;"/>
   </g>
   <g id="patch_28">
    <path clip-path="url(#p91bb65905e)" d="M 197.779449 153.310911 
L 229.542691 153.310911 
L 229.542691 121.547669 
L 197.779449 121.547669 
z
" style="fill:#fc8d62;stroke:#fc8d62;stroke-linejoin:miter;"/>
   </g>
   <g id="patch_29">
    <path clip-path="url(#p91bb65905e)" d="M 197.779449 115.195021 
L 229.542691 115.195021 
L 229.542691 83.43178 
L 197.779449 83.43178 
z
" style="fill:#fc8d62;stroke:#fc8d62;stroke-linejoin:miter;"/>
   </g>
   <g id="patch_30">
    <path clip-path="url(#p91bb65905e)" d="M 197.779449 77.079131 
L 229.542691 77.079131 
L 229.542691 45.31589 
L 197.779449 45.31589 
z
" style="fill:#fc8d62;stroke:#fc8d62;stroke-linejoin:miter;"/>
   </g>
   <g id="patch_31">
    <path clip-path="url(#p91bb65905e)" d="M 197.779449 38.963242 
L 229.542691 38.963242 
L 229.542691 7.2 
L 197.779449 7.2 
z
" style="fill:#fc8d62;stroke:#fc8d62;stroke-linejoin:miter;"/>
   </g>
   <g id="patch_32">
    <path clip-path="url(#p91bb65905e)" d="M 235.895339 191.426801 
L 267.658581 191.426801 
L 267.658581 159.663559 
L 235.895339 159.663559 
z
" style="fill:#fc8d62;stroke:#fc8d62;stroke-linejoin:miter;"/>
   </g>
   <g id="patch_33">
    <path clip-path="url(#p91bb65905e)" d="M 235.895339 153.310911 
L 267.658581 153.310911 
L 267.658581 121.547669 
L 235.895339 121.547669 
z
" style="fill:#fc8d62;stroke:#fc8d62;stroke-linejoin:miter;"/>
   </g>
   <g id="patch_34">
    <path clip-path="url(#p91bb65905e)" d="M 235.895339 115.195021 
L 267.658581 115.195021 
L 267.658581 83.43178 
L 235.895339 83.43178 
z
" style="fill:#fc8d62;stroke:#fc8d62;stroke-linejoin:miter;"/>
   </g>
   <g id="patch_35">
    <path clip-path="url(#p91bb65905e)" d="M 235.895339 77.079131 
L 267.658581 77.079131 
L 267.658581 45.31589 
L 235.895339 45.31589 
z
" style="fill:#fc8d62;stroke:#fc8d62;stroke-linejoin:miter;"/>
   </g>
   <g id="patch_36">
    <path clip-path="url(#p91bb65905e)" d="M 235.895339 38.963242 
L 267.658581 38.963242 
L 267.658581 7.2 
L 235.895339 7.2 
z
" style="fill:#fc8d62;stroke:#fc8d62;stroke-linejoin:miter;"/>
   </g>
   <g id="patch_37">
    <path clip-path="url(#p91bb65905e)" d="M 274.011229 191.426801 
L 305.77447 191.426801 
L 305.77447 159.663559 
L 274.011229 159.663559 
z
" style="fill:#fc8d62;stroke:#fc8d62;stroke-linejoin:miter;"/>
   </g>
   <g id="patch_38">
    <path clip-path="url(#p91bb65905e)" d="M 274.011229 153.310911 
L 305.77447 153.310911 
L 305.77447 121.547669 
L 274.011229 121.547669 
z
" style="fill:#fc8d62;stroke:#fc8d62;stroke-linejoin:miter;"/>
   </g>
   <g id="patch_39">
    <path clip-path="url(#p91bb65905e)" d="M 274.011229 115.195021 
L 305.77447 115.195021 
L 305.77447 83.43178 
L 274.011229 83.43178 
z
" style="fill:#fc8d62;stroke:#fc8d62;stroke-linejoin:miter;"/>
   </g>
   <g id="patch_40">
    <path clip-path="url(#p91bb65905e)" d="M 274.011229 77.079131 
L 305.77447 77.079131 
L 305.77447 45.31589 
L 274.011229 45.31589 
z
" style="fill:#fc8d62;stroke:#fc8d62;stroke-linejoin:miter;"/>
   </g>
   <g id="patch_41">
    <path clip-path="url(#p91bb65905e)" d="M 274.011229 38.963242 
L 305.77447 38.963242 
L 305.77447 7.2 
L 274.011229 7.2 
z
" style="fill:#fc8d62;stroke:#fc8d62;stroke-linejoin:miter;"/>
   </g>
   <g id="patch_42">
    <path clip-path="url(#p91bb65905e)" d="M 312.127119 191.426801 
L 343.89036 191.426801 
L 343.89036 159.663559 
L 312.127119 159.663559 
z
" style="fill:#8da0cb;stroke:#8da0cb;stroke-linejoin:miter;"/>
   </g>
   <g id="patch_43">
    <path clip-path="url(#p91bb65905e)" d="M 312.127119 153.310911 
L 343.89036 153.310911 
L 343.89036 121.547669 
L 312.127119 121.547669 
z
" style="fill:#8da0cb;stroke:#8da0cb;stroke-linejoin:miter;"/>
   </g>
   <g id="patch_44">
    <path clip-path="url(#p91bb65905e)" d="M 312.127119 115.195021 
L 343.89036 115.195021 
L 343.89036 83.43178 
L 312.127119 83.43178 
z
" style="fill:#8da0cb;stroke:#8da0cb;stroke-linejoin:miter;"/>
   </g>
   <g id="patch_45">
    <path clip-path="url(#p91bb65905e)" d="M 312.127119 77.079131 
L 343.89036 77.079131 
L 343.89036 45.31589 
L 312.127119 45.31589 
z
" style="fill:#8da0cb;stroke:#8da0cb;stroke-linejoin:miter;"/>
   </g>
   <g id="patch_46">
    <path clip-path="url(#p91bb65905e)" d="M 312.127119 38.963242 
L 343.89036 38.963242 
L 343.89036 7.2 
L 312.127119 7.2 
z
" style="fill:#8da0cb;stroke:#8da0cb;stroke-linejoin:miter;"/>
   </g>
   <g id="patch_47">
    <path clip-path="url(#p91bb65905e)" d="M 350.243008 191.426801 
L 382.00625 191.426801 
L 382.00625 159.663559 
L 350.243008 159.663559 
z
" style="fill:#8da0cb;stroke:#8da0cb;stroke-linejoin:miter;"/>
   </g>
   <g id="patch_48">
    <path clip-path="url(#p91bb65905e)" d="M 350.243008 153.310911 
L 382.00625 153.310911 
L 382.00625 121.547669 
L 350.243008 121.547669 
z
" style="fill:#8da0cb;stroke:#8da0cb;stroke-linejoin:miter;"/>
   </g>
   <g id="patch_49">
    <path clip-path="url(#p91bb65905e)" d="M 350.243008 115.195021 
L 382.00625 115.195021 
L 382.00625 83.43178 
L 350.243008 83.43178 
z
" style="fill:#8da0cb;stroke:#8da0cb;stroke-linejoin:miter;"/>
   </g>
   <g id="patch_50">
    <path clip-path="url(#p91bb65905e)" d="M 350.243008 77.079131 
L 382.00625 77.079131 
L 382.00625 45.31589 
L 350.243008 45.31589 
z
" style="fill:#8da0cb;stroke:#8da0cb;stroke-linejoin:miter;"/>
   </g>
   <g id="patch_51">
    <path clip-path="url(#p91bb65905e)" d="M 350.243008 38.963242 
L 382.00625 38.963242 
L 382.00625 7.2 
L 350.243008 7.2 
z
" style="fill:#8da0cb;stroke:#8da0cb;stroke-linejoin:miter;"/>
   </g>
   <g id="legend_1">
    <g id="patch_52">
     <path d="M 389.00625 59.234375 
L 444.4 59.234375 
Q 446.4 59.234375 446.4 57.234375 
L 446.4 14.2 
Q 446.4 12.2 444.4 12.2 
L 389.00625 12.2 
Q 387.00625 12.2 387.00625 14.2 
L 387.00625 57.234375 
Q 387.00625 59.234375 389.00625 59.234375 
z
" style="fill:#ffffff;opacity:0.8;stroke:#cccccc;stroke-linejoin:miter;"/>
    </g>
    <g id="patch_53">
     <path d="M 391.00625 23.798438 
L 411.00625 23.798438 
L 411.00625 16.798438 
L 391.00625 16.798438 
z
" style="fill:#66c2a5;stroke:#66c2a5;stroke-linejoin:miter;"/>
    </g>
    <g id="text_1">
     <!-- Cat1 -->
     <defs>
      <path d="M 64.40625 67.28125 
L 64.40625 56.890625 
Q 59.421875 61.53125 53.78125 63.8125 
Q 48.140625 66.109375 41.796875 66.109375 
Q 29.296875 66.109375 22.65625 58.46875 
Q 16.015625 50.828125 16.015625 36.375 
Q 16.015625 21.96875 22.65625 14.328125 
Q 29.296875 6.6875 41.796875 6.6875 
Q 48.140625 6.6875 53.78125 8.984375 
Q 59.421875 11.28125 64.40625 15.921875 
L 64.40625 5.609375 
Q 59.234375 2.09375 53.4375 0.328125 
Q 47.65625 -1.421875 41.21875 -1.421875 
Q 24.65625 -1.421875 15.125 8.703125 
Q 5.609375 18.84375 5.609375 36.375 
Q 5.609375 53.953125 15.125 64.078125 
Q 24.65625 74.21875 41.21875 74.21875 
Q 47.75 74.21875 53.53125 72.484375 
Q 59.328125 70.75 64.40625 67.28125 
z
" id="DejaVuSans-67"/>
      <path d="M 34.28125 27.484375 
Q 23.390625 27.484375 19.1875 25 
Q 14.984375 22.515625 14.984375 16.5 
Q 14.984375 11.71875 18.140625 8.90625 
Q 21.296875 6.109375 26.703125 6.109375 
Q 34.1875 6.109375 38.703125 11.40625 
Q 43.21875 16.703125 43.21875 25.484375 
L 43.21875 27.484375 
z
M 52.203125 31.203125 
L 52.203125 0 
L 43.21875 0 
L 43.21875 8.296875 
Q 40.140625 3.328125 35.546875 0.953125 
Q 30.953125 -1.421875 24.3125 -1.421875 
Q 15.921875 -1.421875 10.953125 3.296875 
Q 6 8.015625 6 15.921875 
Q 6 25.140625 12.171875 29.828125 
Q 18.359375 34.515625 30.609375 34.515625 
L 43.21875 34.515625 
L 43.21875 35.40625 
Q 43.21875 41.609375 39.140625 45 
Q 35.0625 48.390625 27.6875 48.390625 
Q 23 48.390625 18.546875 47.265625 
Q 14.109375 46.140625 10.015625 43.890625 
L 10.015625 52.203125 
Q 14.9375 54.109375 19.578125 55.046875 
Q 24.21875 56 28.609375 56 
Q 40.484375 56 46.34375 49.84375 
Q 52.203125 43.703125 52.203125 31.203125 
z
" id="DejaVuSans-97"/>
      <path d="M 18.3125 70.21875 
L 18.3125 54.6875 
L 36.8125 54.6875 
L 36.8125 47.703125 
L 18.3125 47.703125 
L 18.3125 18.015625 
Q 18.3125 11.328125 20.140625 9.421875 
Q 21.96875 7.515625 27.59375 7.515625 
L 36.8125 7.515625 
L 36.8125 0 
L 27.59375 0 
Q 17.1875 0 13.234375 3.875 
Q 9.28125 7.765625 9.28125 18.015625 
L 9.28125 47.703125 
L 2.6875 47.703125 
L 2.6875 54.6875 
L 9.28125 54.6875 
L 9.28125 70.21875 
z
" id="DejaVuSans-116"/>
      <path d="M 12.40625 8.296875 
L 28.515625 8.296875 
L 28.515625 63.921875 
L 10.984375 60.40625 
L 10.984375 69.390625 
L 28.421875 72.90625 
L 38.28125 72.90625 
L 38.28125 8.296875 
L 54.390625 8.296875 
L 54.390625 0 
L 12.40625 0 
z
" id="DejaVuSans-49"/>
     </defs>
     <g transform="translate(419.00625 23.798438)scale(0.1 -0.1)">
      <use xlink:href="#DejaVuSans-67"/>
      <use x="69.824219" xlink:href="#DejaVuSans-97"/>
      <use x="131.103516" xlink:href="#DejaVuSans-116"/>
      <use x="170.3125" xlink:href="#DejaVuSans-49"/>
     </g>
    </g>
    <g id="patch_54">
     <path d="M 391.00625 38.476563 
L 411.00625 38.476563 
L 411.00625 31.476563 
L 391.00625 31.476563 
z
" style="fill:#fc8d62;stroke:#fc8d62;stroke-linejoin:miter;"/>
    </g>
    <g id="text_2">
     <!-- Cat2 -->
     <defs>
      <path d="M 19.1875 8.296875 
L 53.609375 8.296875 
L 53.609375 0 
L 7.328125 0 
L 7.328125 8.296875 
Q 12.9375 14.109375 22.625 23.890625 
Q 32.328125 33.6875 34.8125 36.53125 
Q 39.546875 41.84375 41.421875 45.53125 
Q 43.3125 49.21875 43.3125 52.78125 
Q 43.3125 58.59375 39.234375 62.25 
Q 35.15625 65.921875 28.609375 65.921875 
Q 23.96875 65.921875 18.8125 64.3125 
Q 13.671875 62.703125 7.8125 59.421875 
L 7.8125 69.390625 
Q 13.765625 71.78125 18.9375 73 
Q 24.125 74.21875 28.421875 74.21875 
Q 39.75 74.21875 46.484375 68.546875 
Q 53.21875 62.890625 53.21875 53.421875 
Q 53.21875 48.921875 51.53125 44.890625 
Q 49.859375 40.875 45.40625 35.40625 
Q 44.1875 33.984375 37.640625 27.21875 
Q 31.109375 20.453125 19.1875 8.296875 
z
" id="DejaVuSans-50"/>
     </defs>
     <g transform="translate(419.00625 38.476563)scale(0.1 -0.1)">
      <use xlink:href="#DejaVuSans-67"/>
      <use x="69.824219" xlink:href="#DejaVuSans-97"/>
      <use x="131.103516" xlink:href="#DejaVuSans-116"/>
      <use x="170.3125" xlink:href="#DejaVuSans-50"/>
     </g>
    </g>
    <g id="patch_55">
     <path d="M 391.00625 53.154688 
L 411.00625 53.154688 
L 411.00625 46.154688 
L 391.00625 46.154688 
z
" style="fill:#8da0cb;stroke:#8da0cb;stroke-linejoin:miter;"/>
    </g>
    <g id="text_3">
     <!-- Cat3 -->
     <defs>
      <path d="M 40.578125 39.3125 
Q 47.65625 37.796875 51.625 33 
Q 55.609375 28.21875 55.609375 21.1875 
Q 55.609375 10.40625 48.1875 4.484375 
Q 40.765625 -1.421875 27.09375 -1.421875 
Q 22.515625 -1.421875 17.65625 -0.515625 
Q 12.796875 0.390625 7.625 2.203125 
L 7.625 11.71875 
Q 11.71875 9.328125 16.59375 8.109375 
Q 21.484375 6.890625 26.8125 6.890625 
Q 36.078125 6.890625 40.9375 10.546875 
Q 45.796875 14.203125 45.796875 21.1875 
Q 45.796875 27.640625 41.28125 31.265625 
Q 36.765625 34.90625 28.71875 34.90625 
L 20.21875 34.90625 
L 20.21875 43.015625 
L 29.109375 43.015625 
Q 36.375 43.015625 40.234375 45.921875 
Q 44.09375 48.828125 44.09375 54.296875 
Q 44.09375 59.90625 40.109375 62.90625 
Q 36.140625 65.921875 28.71875 65.921875 
Q 24.65625 65.921875 20.015625 65.03125 
Q 15.375 64.15625 9.8125 62.3125 
L 9.8125 71.09375 
Q 15.4375 72.65625 20.34375 73.4375 
Q 25.25 74.21875 29.59375 74.21875 
Q 40.828125 74.21875 47.359375 69.109375 
Q 53.90625 64.015625 53.90625 55.328125 
Q 53.90625 49.265625 50.4375 45.09375 
Q 46.96875 40.921875 40.578125 39.3125 
z
" id="DejaVuSans-51"/>
     </defs>
     <g transform="translate(419.00625 53.154688)scale(0.1 -0.1)">
      <use xlink:href="#DejaVuSans-67"/>
      <use x="69.824219" xlink:href="#DejaVuSans-97"/>
      <use x="131.103516" xlink:href="#DejaVuSans-116"/>
      <use x="170.3125" xlink:href="#DejaVuSans-51"/>
     </g>
    </g>
   </g>
  </g>
 </g>
 <defs>
  <clipPath id="p91bb65905e">
   <rect height="184.226801" width="374.80625" x="7.2" y="7.2"/>
  </clipPath>
 </defs>
</svg>
