<?xml version="1.0" encoding="utf-8" standalone="no"?>
<!DOCTYPE svg PUBLIC "-//W3C//DTD SVG 1.1//EN"
  "http://www.w3.org/Graphics/SVG/1.1/DTD/svg11.dtd">
<svg xmlns:xlink="http://www.w3.org/1999/xlink" width="453.6pt" height="230.277966pt" viewBox="0 0 453.6 230.277966" xmlns="http://www.w3.org/2000/svg" version="1.1">
 <metadata>
  <rdf:RDF xmlns:dc="http://purl.org/dc/elements/1.1/" xmlns:cc="http://creativecommons.org/ns#" xmlns:rdf="http://www.w3.org/1999/02/22-rdf-syntax-ns#">
   <cc:Work>
    <dc:type rdf:resource="http://purl.org/dc/dcmitype/StillImage"/>
    <dc:date>2022-06-05T10:30:55.437928</dc:date>
    <dc:format>image/svg+xml</dc:format>
    <dc:creator>
     <cc:Agent>
      <dc:title>Matplotlib v3.5.2, https://matplotlib.org/</dc:title>
     </cc:Agent>
    </dc:creator>
   </cc:Work>
  </rdf:RDF>
 </metadata>
 <defs>
  <style type="text/css">*{stroke-linejoin: round; stroke-linecap: butt}</style>
 </defs>
 <g id="figure_1">
  <g id="patch_1">
   <path d="M 0 230.277966 
L 453.6 230.277966 
L 453.6 -0 
L 0 -0 
z
" style="fill: #ffffff"/>
  </g>
  <g id="axes_1">
   <g id="patch_2">
    <path d="M 7.2 223.077966 
L 44.420339 223.077966 
L 44.420339 185.857627 
L 7.2 185.857627 
z
" clip-path="url(#p349ad0ac61)" style="fill: #66c2a5; stroke: #66c2a5; stroke-linejoin: miter"/>
   </g>
   <g id="patch_3">
    <path d="M 7.2 178.413559 
L 44.420339 178.413559 
L 44.420339 141.19322 
L 7.2 141.19322 
z
" clip-path="url(#p349ad0ac61)" style="fill: #66c2a5; stroke: #66c2a5; stroke-linejoin: miter"/>
   </g>
   <g id="patch_4">
    <path d="M 7.2 133.749153 
L 44.420339 133.749153 
L 44.420339 96.528814 
L 7.2 96.528814 
z
" clip-path="url(#p349ad0ac61)" style="fill: #66c2a5; stroke: #66c2a5; stroke-linejoin: miter"/>
   </g>
   <g id="patch_5">
    <path d="M 7.2 89.084746 
L 44.420339 89.084746 
L 44.420339 51.864407 
L 7.2 51.864407 
z
" clip-path="url(#p349ad0ac61)" style="fill: #66c2a5; stroke: #66c2a5; stroke-linejoin: miter"/>
   </g>
   <g id="patch_6">
    <path d="M 7.2 44.420339 
L 44.420339 44.420339 
L 44.420339 7.2 
L 7.2 7.2 
z
" clip-path="url(#p349ad0ac61)" style="fill: #66c2a5; stroke: #66c2a5; stroke-linejoin: miter"/>
   </g>
   <g id="patch_7">
    <path d="M 51.864407 223.077966 
L 89.084746 223.077966 
L 89.084746 185.857627 
L 51.864407 185.857627 
z
" clip-path="url(#p349ad0ac61)" style="fill: #66c2a5; stroke: #66c2a5; stroke-linejoin: miter"/>
   </g>
   <g id="patch_8">
    <path d="M 51.864407 178.413559 
L 89.084746 178.413559 
L 89.084746 141.19322 
L 51.864407 141.19322 
z
" clip-path="url(#p349ad0ac61)" style="fill: #66c2a5; stroke: #66c2a5; stroke-linejoin: miter"/>
   </g>
   <g id="patch_9">
    <path d="M 51.864407 133.749153 
L 89.084746 133.749153 
L 89.084746 96.528814 
L 51.864407 96.528814 
z
" clip-path="url(#p349ad0ac61)" style="fill: #66c2a5; stroke: #66c2a5; stroke-linejoin: miter"/>
   </g>
   <g id="patch_10">
    <path d="M 51.864407 89.084746 
L 89.084746 89.084746 
L 89.084746 51.864407 
L 51.864407 51.864407 
z
" clip-path="url(#p349ad0ac61)" style="fill: #66c2a5; stroke: #66c2a5; stroke-linejoin: miter"/>
   </g>
   <g id="patch_11">
    <path d="M 51.864407 44.420339 
L 89.084746 44.420339 
L 89.084746 7.2 
L 51.864407 7.2 
z
" clip-path="url(#p349ad0ac61)" style="fill: #66c2a5; stroke: #66c2a5; stroke-linejoin: miter"/>
   </g>
   <g id="patch_12">
    <path d="M 96.528814 223.077966 
L 133.749153 223.077966 
L 133.749153 185.857627 
L 96.528814 185.857627 
z
" clip-path="url(#p349ad0ac61)" style="fill: #66c2a5; stroke: #66c2a5; stroke-linejoin: miter"/>
   </g>
   <g id="patch_13">
    <path d="M 96.528814 178.413559 
L 133.749153 178.413559 
L 133.749153 141.19322 
L 96.528814 141.19322 
z
" clip-path="url(#p349ad0ac61)" style="fill: #66c2a5; stroke: #66c2a5; stroke-linejoin: miter"/>
   </g>
   <g id="patch_14">
    <path d="M 96.528814 133.749153 
L 133.749153 133.749153 
L 133.749153 96.528814 
L 96.528814 96.528814 
z
" clip-path="url(#p349ad0ac61)" style="fill: #66c2a5; stroke: #66c2a5; stroke-linejoin: miter"/>
   </g>
   <g id="patch_15">
    <path d="M 96.528814 89.084746 
L 133.749153 89.084746 
L 133.749153 51.864407 
L 96.528814 51.864407 
z
" clip-path="url(#p349ad0ac61)" style="fill: #66c2a5; stroke: #66c2a5; stroke-linejoin: miter"/>
   </g>
   <g id="patch_16">
    <path d="M 96.528814 44.420339 
L 133.749153 44.420339 
L 133.749153 7.2 
L 96.528814 7.2 
z
" clip-path="url(#p349ad0ac61)" style="fill: #66c2a5; stroke: #66c2a5; stroke-linejoin: miter"/>
   </g>
   <g id="patch_17">
    <path d="M 141.19322 223.077966 
L 178.413559 223.077966 
L 178.413559 185.857627 
L 141.19322 185.857627 
z
" clip-path="url(#p349ad0ac61)" style="fill: #66c2a5; stroke: #66c2a5; stroke-linejoin: miter"/>
   </g>
   <g id="patch_18">
    <path d="M 141.19322 178.413559 
L 178.413559 178.413559 
L 178.413559 141.19322 
L 141.19322 141.19322 
z
" clip-path="url(#p349ad0ac61)" style="fill: #66c2a5; stroke: #66c2a5; stroke-linejoin: miter"/>
   </g>
   <g id="patch_19">
    <path d="M 141.19322 133.749153 
L 178.413559 133.749153 
L 178.413559 96.528814 
L 141.19322 96.528814 
z
" clip-path="url(#p349ad0ac61)" style="fill: #66c2a5; stroke: #66c2a5; stroke-linejoin: miter"/>
   </g>
   <g id="patch_20">
    <path d="M 141.19322 89.084746 
L 178.413559 89.084746 
L 178.413559 51.864407 
L 141.19322 51.864407 
z
" clip-path="url(#p349ad0ac61)" style="fill: #66c2a5; stroke: #66c2a5; stroke-linejoin: miter"/>
   </g>
   <g id="patch_21">
    <path d="M 141.19322 44.420339 
L 178.413559 44.420339 
L 178.413559 7.2 
L 141.19322 7.2 
z
" clip-path="url(#p349ad0ac61)" style="fill: #66c2a5; stroke: #66c2a5; stroke-linejoin: miter"/>
   </g>
   <g id="patch_22">
    <path d="M 185.857627 223.077966 
L 223.077966 223.077966 
L 223.077966 185.857627 
L 185.857627 185.857627 
z
" clip-path="url(#p349ad0ac61)" style="fill: #66c2a5; stroke: #66c2a5; stroke-linejoin: miter"/>
   </g>
   <g id="patch_23">
    <path d="M 185.857627 178.413559 
L 223.077966 178.413559 
L 223.077966 141.19322 
L 185.857627 141.19322 
z
" clip-path="url(#p349ad0ac61)" style="fill: #66c2a5; stroke: #66c2a5; stroke-linejoin: miter"/>
   </g>
   <g id="patch_24">
    <path d="M 185.857627 133.749153 
L 223.077966 133.749153 
L 223.077966 96.528814 
L 185.857627 96.528814 
z
" clip-path="url(#p349ad0ac61)" style="fill: #66c2a5; stroke: #66c2a5; stroke-linejoin: miter"/>
   </g>
   <g id="patch_25">
    <path d="M 185.857627 89.084746 
L 223.077966 89.084746 
L 223.077966 51.864407 
L 185.857627 51.864407 
z
" clip-path="url(#p349ad0ac61)" style="fill: #66c2a5; stroke: #66c2a5; stroke-linejoin: miter"/>
   </g>
   <g id="patch_26">
    <path d="M 185.857627 44.420339 
L 223.077966 44.420339 
L 223.077966 7.2 
L 185.857627 7.2 
z
" clip-path="url(#p349ad0ac61)" style="fill: #66c2a5; stroke: #66c2a5; stroke-linejoin: miter"/>
   </g>
   <g id="patch_27">
    <path d="M 230.522034 223.077966 
L 267.742373 223.077966 
L 267.742373 185.857627 
L 230.522034 185.857627 
z
" clip-path="url(#p349ad0ac61)" style="fill: #66c2a5; stroke: #66c2a5; stroke-linejoin: miter"/>
   </g>
   <g id="patch_28">
    <path d="M 230.522034 178.413559 
L 267.742373 178.413559 
L 267.742373 141.19322 
L 230.522034 141.19322 
z
" clip-path="url(#p349ad0ac61)" style="fill: #66c2a5; stroke: #66c2a5; stroke-linejoin: miter"/>
   </g>
   <g id="patch_29">
    <path d="M 230.522034 133.749153 
L 267.742373 133.749153 
L 267.742373 96.528814 
L 230.522034 96.528814 
z
" clip-path="url(#p349ad0ac61)" style="fill: #66c2a5; stroke: #66c2a5; stroke-linejoin: miter"/>
   </g>
   <g id="patch_30">
    <path d="M 230.522034 89.084746 
L 267.742373 89.084746 
L 267.742373 51.864407 
L 230.522034 51.864407 
z
" clip-path="url(#p349ad0ac61)" style="fill: #66c2a5; stroke: #66c2a5; stroke-linejoin: miter"/>
   </g>
   <g id="patch_31">
    <path d="M 230.522034 44.420339 
L 267.742373 44.420339 
L 267.742373 7.2 
L 230.522034 7.2 
z
" clip-path="url(#p349ad0ac61)" style="fill: #66c2a5; stroke: #66c2a5; stroke-linejoin: miter"/>
   </g>
   <g id="patch_32">
    <path d="M 275.186441 223.077966 
L 312.40678 223.077966 
L 312.40678 185.857627 
L 275.186441 185.857627 
z
" clip-path="url(#p349ad0ac61)" style="fill: #fc8d62; stroke: #fc8d62; stroke-linejoin: miter"/>
   </g>
   <g id="patch_33">
    <path d="M 275.186441 178.413559 
L 312.40678 178.413559 
L 312.40678 141.19322 
L 275.186441 141.19322 
z
" clip-path="url(#p349ad0ac61)" style="fill: #fc8d62; stroke: #fc8d62; stroke-linejoin: miter"/>
   </g>
   <g id="patch_34">
    <path d="M 275.186441 133.749153 
L 312.40678 133.749153 
L 312.40678 96.528814 
L 275.186441 96.528814 
z
" clip-path="url(#p349ad0ac61)" style="fill: #fc8d62; stroke: #fc8d62; stroke-linejoin: miter"/>
   </g>
   <g id="patch_35">
    <path d="M 275.186441 89.084746 
L 312.40678 89.084746 
L 312.40678 51.864407 
L 275.186441 51.864407 
z
" clip-path="url(#p349ad0ac61)" style="fill: #fc8d62; stroke: #fc8d62; stroke-linejoin: miter"/>
   </g>
   <g id="patch_36">
    <path d="M 275.186441 44.420339 
L 312.40678 44.420339 
L 312.40678 7.2 
L 275.186441 7.2 
z
" clip-path="url(#p349ad0ac61)" style="fill: #fc8d62; stroke: #fc8d62; stroke-linejoin: miter"/>
   </g>
   <g id="patch_37">
    <path d="M 319.850847 223.077966 
L 357.071186 223.077966 
L 357.071186 185.857627 
L 319.850847 185.857627 
z
" clip-path="url(#p349ad0ac61)" style="fill: #fc8d62; stroke: #fc8d62; stroke-linejoin: miter"/>
   </g>
   <g id="patch_38">
    <path d="M 319.850847 178.413559 
L 357.071186 178.413559 
L 357.071186 141.19322 
L 319.850847 141.19322 
z
" clip-path="url(#p349ad0ac61)" style="fill: #fc8d62; stroke: #fc8d62; stroke-linejoin: miter"/>
   </g>
   <g id="patch_39">
    <path d="M 319.850847 133.749153 
L 357.071186 133.749153 
L 357.071186 96.528814 
L 319.850847 96.528814 
z
" clip-path="url(#p349ad0ac61)" style="fill: #fc8d62; stroke: #fc8d62; stroke-linejoin: miter"/>
   </g>
   <g id="patch_40">
    <path d="M 319.850847 89.084746 
L 357.071186 89.084746 
L 357.071186 51.864407 
L 319.850847 51.864407 
z
" clip-path="url(#p349ad0ac61)" style="fill: #fc8d62; stroke: #fc8d62; stroke-linejoin: miter"/>
   </g>
   <g id="patch_41">
    <path d="M 319.850847 44.420339 
L 357.071186 44.420339 
L 357.071186 7.2 
L 319.850847 7.2 
z
" clip-path="url(#p349ad0ac61)" style="fill: #fc8d62; stroke: #fc8d62; stroke-linejoin: miter"/>
   </g>
   <g id="patch_42">
    <path d="M 364.515254 223.077966 
L 401.735593 223.077966 
L 401.735593 185.857627 
L 364.515254 185.857627 
z
" clip-path="url(#p349ad0ac61)" style="fill: #fc8d62; stroke: #fc8d62; stroke-linejoin: miter"/>
   </g>
   <g id="patch_43">
    <path d="M 364.515254 178.413559 
L 401.735593 178.413559 
L 401.735593 141.19322 
L 364.515254 141.19322 
z
" clip-path="url(#p349ad0ac61)" style="fill: #fc8d62; stroke: #fc8d62; stroke-linejoin: miter"/>
   </g>
   <g id="patch_44">
    <path d="M 364.515254 133.749153 
L 401.735593 133.749153 
L 401.735593 96.528814 
L 364.515254 96.528814 
z
" clip-path="url(#p349ad0ac61)" style="fill: #fc8d62; stroke: #fc8d62; stroke-linejoin: miter"/>
   </g>
   <g id="patch_45">
    <path d="M 364.515254 89.084746 
L 401.735593 89.084746 
L 401.735593 51.864407 
L 364.515254 51.864407 
z
" clip-path="url(#p349ad0ac61)" style="fill: #fc8d62; stroke: #fc8d62; stroke-linejoin: miter"/>
   </g>
   <g id="patch_46">
    <path d="M 364.515254 44.420339 
L 401.735593 44.420339 
L 401.735593 7.2 
L 364.515254 7.2 
z
" clip-path="url(#p349ad0ac61)" style="fill: #fc8d62; stroke: #fc8d62; stroke-linejoin: miter"/>
   </g>
   <g id="patch_47">
    <path d="M 409.179661 223.077966 
L 446.4 223.077966 
L 446.4 185.857627 
L 409.179661 185.857627 
z
" clip-path="url(#p349ad0ac61)" style="fill: #fc8d62; stroke: #fc8d62; stroke-linejoin: miter"/>
   </g>
   <g id="patch_48">
    <path d="M 409.179661 178.413559 
L 446.4 178.413559 
L 446.4 141.19322 
L 409.179661 141.19322 
z
" clip-path="url(#p349ad0ac61)" style="fill: #8da0cb; stroke: #8da0cb; stroke-linejoin: miter"/>
   </g>
   <g id="patch_49">
    <path d="M 409.179661 133.749153 
L 446.4 133.749153 
L 446.4 96.528814 
L 409.179661 96.528814 
z
" clip-path="url(#p349ad0ac61)" style="fill: #8da0cb; stroke: #8da0cb; stroke-linejoin: miter"/>
   </g>
   <g id="patch_50">
    <path d="M 409.179661 89.084746 
L 446.4 89.084746 
L 446.4 51.864407 
L 409.179661 51.864407 
z
" clip-path="url(#p349ad0ac61)" style="fill: #8da0cb; stroke: #8da0cb; stroke-linejoin: miter"/>
   </g>
   <g id="patch_51">
    <path d="M 409.179661 44.420339 
L 446.4 44.420339 
L 446.4 7.2 
L 409.179661 7.2 
z
" clip-path="url(#p349ad0ac61)" style="fill: #8da0cb; stroke: #8da0cb; stroke-linejoin: miter"/>
   </g>
  </g>
 </g>
 <defs>
  <clipPath id="p349ad0ac61">
   <rect x="7.2" y="7.2" width="439.2" height="215.877966"/>
  </clipPath>
 </defs>
</svg>
