<?xml version="1.0" encoding="utf-8" standalone="no"?>
<!DOCTYPE svg PUBLIC "-//W3C//DTD SVG 1.1//EN"
  "http://www.w3.org/Graphics/SVG/1.1/DTD/svg11.dtd">
<!-- Created with matplotlib (https://matplotlib.org/) -->
<svg height="230.277966pt" version="1.1" viewBox="0 0 453.6 230.277966" width="453.6pt" xmlns="http://www.w3.org/2000/svg" xmlns:xlink="http://www.w3.org/1999/xlink">
 <defs>
  <style type="text/css">
*{stroke-linecap:butt;stroke-linejoin:round;}
  </style>
 </defs>
 <g id="figure_1">
  <g id="patch_1">
   <path d="M 0 230.277966 
L 453.6 230.277966 
L 453.6 -0 
L 0 -0 
z
" style="fill:#ffffff;"/>
  </g>
  <g id="axes_1">
   <g id="patch_2">
    <path clip-path="url(#p0a20dcf542)" d="M 7.2 223.077966 
L 44.420339 223.077966 
L 44.420339 185.857627 
L 7.2 185.857627 
z
" style="fill:#66c2a5;stroke:#66c2a5;stroke-linejoin:miter;"/>
   </g>
   <g id="patch_3">
    <path clip-path="url(#p0a20dcf542)" d="M 51.864407 223.077966 
L 89.084746 223.077966 
L 89.084746 185.857627 
L 51.864407 185.857627 
z
" style="fill:#66c2a5;stroke:#66c2a5;stroke-linejoin:miter;"/>
   </g>
   <g id="patch_4">
    <path clip-path="url(#p0a20dcf542)" d="M 96.528814 223.077966 
L 133.749153 223.077966 
L 133.749153 185.857627 
L 96.528814 185.857627 
z
" style="fill:#66c2a5;stroke:#66c2a5;stroke-linejoin:miter;"/>
   </g>
   <g id="patch_5">
    <path clip-path="url(#p0a20dcf542)" d="M 141.19322 223.077966 
L 178.413559 223.077966 
L 178.413559 185.857627 
L 141.19322 185.857627 
z
" style="fill:#66c2a5;stroke:#66c2a5;stroke-linejoin:miter;"/>
   </g>
   <g id="patch_6">
    <path clip-path="url(#p0a20dcf542)" d="M 185.857627 223.077966 
L 223.077966 223.077966 
L 223.077966 185.857627 
L 185.857627 185.857627 
z
" style="fill:#66c2a5;stroke:#66c2a5;stroke-linejoin:miter;"/>
   </g>
   <g id="patch_7">
    <path clip-path="url(#p0a20dcf542)" d="M 230.522034 223.077966 
L 267.742373 223.077966 
L 267.742373 185.857627 
L 230.522034 185.857627 
z
" style="fill:#66c2a5;stroke:#66c2a5;stroke-linejoin:miter;"/>
   </g>
   <g id="patch_8">
    <path clip-path="url(#p0a20dcf542)" d="M 275.186441 223.077966 
L 312.40678 223.077966 
L 312.40678 185.857627 
L 275.186441 185.857627 
z
" style="fill:#66c2a5;stroke:#66c2a5;stroke-linejoin:miter;"/>
   </g>
   <g id="patch_9">
    <path clip-path="url(#p0a20dcf542)" d="M 319.850847 223.077966 
L 357.071186 223.077966 
L 357.071186 185.857627 
L 319.850847 185.857627 
z
" style="fill:#66c2a5;stroke:#66c2a5;stroke-linejoin:miter;"/>
   </g>
   <g id="patch_10">
    <path clip-path="url(#p0a20dcf542)" d="M 364.515254 223.077966 
L 401.735593 223.077966 
L 401.735593 185.857627 
L 364.515254 185.857627 
z
" style="fill:#66c2a5;stroke:#66c2a5;stroke-linejoin:miter;"/>
   </g>
   <g id="patch_11">
    <path clip-path="url(#p0a20dcf542)" d="M 409.179661 223.077966 
L 446.4 223.077966 
L 446.4 185.857627 
L 409.179661 185.857627 
z
" style="fill:#66c2a5;stroke:#66c2a5;stroke-linejoin:miter;"/>
   </g>
   <g id="patch_12">
    <path clip-path="url(#p0a20dcf542)" d="M 7.2 178.413559 
L 44.420339 178.413559 
L 44.420339 141.19322 
L 7.2 141.19322 
z
" style="fill:#66c2a5;stroke:#66c2a5;stroke-linejoin:miter;"/>
   </g>
   <g id="patch_13">
    <path clip-path="url(#p0a20dcf542)" d="M 51.864407 178.413559 
L 89.084746 178.413559 
L 89.084746 141.19322 
L 51.864407 141.19322 
z
" style="fill:#66c2a5;stroke:#66c2a5;stroke-linejoin:miter;"/>
   </g>
   <g id="patch_14">
    <path clip-path="url(#p0a20dcf542)" d="M 96.528814 178.413559 
L 133.749153 178.413559 
L 133.749153 141.19322 
L 96.528814 141.19322 
z
" style="fill:#66c2a5;stroke:#66c2a5;stroke-linejoin:miter;"/>
   </g>
   <g id="patch_15">
    <path clip-path="url(#p0a20dcf542)" d="M 141.19322 178.413559 
L 178.413559 178.413559 
L 178.413559 141.19322 
L 141.19322 141.19322 
z
" style="fill:#66c2a5;stroke:#66c2a5;stroke-linejoin:miter;"/>
   </g>
   <g id="patch_16">
    <path clip-path="url(#p0a20dcf542)" d="M 185.857627 178.413559 
L 223.077966 178.413559 
L 223.077966 141.19322 
L 185.857627 141.19322 
z
" style="fill:#66c2a5;stroke:#66c2a5;stroke-linejoin:miter;"/>
   </g>
   <g id="patch_17">
    <path clip-path="url(#p0a20dcf542)" d="M 230.522034 178.413559 
L 267.742373 178.413559 
L 267.742373 141.19322 
L 230.522034 141.19322 
z
" style="fill:#66c2a5;stroke:#66c2a5;stroke-linejoin:miter;"/>
   </g>
   <g id="patch_18">
    <path clip-path="url(#p0a20dcf542)" d="M 275.186441 178.413559 
L 312.40678 178.413559 
L 312.40678 141.19322 
L 275.186441 141.19322 
z
" style="fill:#66c2a5;stroke:#66c2a5;stroke-linejoin:miter;"/>
   </g>
   <g id="patch_19">
    <path clip-path="url(#p0a20dcf542)" d="M 319.850847 178.413559 
L 357.071186 178.413559 
L 357.071186 141.19322 
L 319.850847 141.19322 
z
" style="fill:#66c2a5;stroke:#66c2a5;stroke-linejoin:miter;"/>
   </g>
   <g id="patch_20">
    <path clip-path="url(#p0a20dcf542)" d="M 364.515254 178.413559 
L 401.735593 178.413559 
L 401.735593 141.19322 
L 364.515254 141.19322 
z
" style="fill:#66c2a5;stroke:#66c2a5;stroke-linejoin:miter;"/>
   </g>
   <g id="patch_21">
    <path clip-path="url(#p0a20dcf542)" d="M 409.179661 178.413559 
L 446.4 178.413559 
L 446.4 141.19322 
L 409.179661 141.19322 
z
" style="fill:#66c2a5;stroke:#66c2a5;stroke-linejoin:miter;"/>
   </g>
   <g id="patch_22">
    <path clip-path="url(#p0a20dcf542)" d="M 7.2 133.749153 
L 44.420339 133.749153 
L 44.420339 96.528814 
L 7.2 96.528814 
z
" style="fill:#66c2a5;stroke:#66c2a5;stroke-linejoin:miter;"/>
   </g>
   <g id="patch_23">
    <path clip-path="url(#p0a20dcf542)" d="M 51.864407 133.749153 
L 89.084746 133.749153 
L 89.084746 96.528814 
L 51.864407 96.528814 
z
" style="fill:#66c2a5;stroke:#66c2a5;stroke-linejoin:miter;"/>
   </g>
   <g id="patch_24">
    <path clip-path="url(#p0a20dcf542)" d="M 96.528814 133.749153 
L 133.749153 133.749153 
L 133.749153 96.528814 
L 96.528814 96.528814 
z
" style="fill:#66c2a5;stroke:#66c2a5;stroke-linejoin:miter;"/>
   </g>
   <g id="patch_25">
    <path clip-path="url(#p0a20dcf542)" d="M 141.19322 133.749153 
L 178.413559 133.749153 
L 178.413559 96.528814 
L 141.19322 96.528814 
z
" style="fill:#66c2a5;stroke:#66c2a5;stroke-linejoin:miter;"/>
   </g>
   <g id="patch_26">
    <path clip-path="url(#p0a20dcf542)" d="M 185.857627 133.749153 
L 223.077966 133.749153 
L 223.077966 96.528814 
L 185.857627 96.528814 
z
" style="fill:#66c2a5;stroke:#66c2a5;stroke-linejoin:miter;"/>
   </g>
   <g id="patch_27">
    <path clip-path="url(#p0a20dcf542)" d="M 230.522034 133.749153 
L 267.742373 133.749153 
L 267.742373 96.528814 
L 230.522034 96.528814 
z
" style="fill:#fc8d62;stroke:#fc8d62;stroke-linejoin:miter;"/>
   </g>
   <g id="patch_28">
    <path clip-path="url(#p0a20dcf542)" d="M 275.186441 133.749153 
L 312.40678 133.749153 
L 312.40678 96.528814 
L 275.186441 96.528814 
z
" style="fill:#fc8d62;stroke:#fc8d62;stroke-linejoin:miter;"/>
   </g>
   <g id="patch_29">
    <path clip-path="url(#p0a20dcf542)" d="M 319.850847 133.749153 
L 357.071186 133.749153 
L 357.071186 96.528814 
L 319.850847 96.528814 
z
" style="fill:#fc8d62;stroke:#fc8d62;stroke-linejoin:miter;"/>
   </g>
   <g id="patch_30">
    <path clip-path="url(#p0a20dcf542)" d="M 364.515254 133.749153 
L 401.735593 133.749153 
L 401.735593 96.528814 
L 364.515254 96.528814 
z
" style="fill:#fc8d62;stroke:#fc8d62;stroke-linejoin:miter;"/>
   </g>
   <g id="patch_31">
    <path clip-path="url(#p0a20dcf542)" d="M 409.179661 133.749153 
L 446.4 133.749153 
L 446.4 96.528814 
L 409.179661 96.528814 
z
" style="fill:#fc8d62;stroke:#fc8d62;stroke-linejoin:miter;"/>
   </g>
   <g id="patch_32">
    <path clip-path="url(#p0a20dcf542)" d="M 7.2 89.084746 
L 44.420339 89.084746 
L 44.420339 51.864407 
L 7.2 51.864407 
z
" style="fill:#fc8d62;stroke:#fc8d62;stroke-linejoin:miter;"/>
   </g>
   <g id="patch_33">
    <path clip-path="url(#p0a20dcf542)" d="M 51.864407 89.084746 
L 89.084746 89.084746 
L 89.084746 51.864407 
L 51.864407 51.864407 
z
" style="fill:#fc8d62;stroke:#fc8d62;stroke-linejoin:miter;"/>
   </g>
   <g id="patch_34">
    <path clip-path="url(#p0a20dcf542)" d="M 96.528814 89.084746 
L 133.749153 89.084746 
L 133.749153 51.864407 
L 96.528814 51.864407 
z
" style="fill:#fc8d62;stroke:#fc8d62;stroke-linejoin:miter;"/>
   </g>
   <g id="patch_35">
    <path clip-path="url(#p0a20dcf542)" d="M 141.19322 89.084746 
L 178.413559 89.084746 
L 178.413559 51.864407 
L 141.19322 51.864407 
z
" style="fill:#fc8d62;stroke:#fc8d62;stroke-linejoin:miter;"/>
   </g>
   <g id="patch_36">
    <path clip-path="url(#p0a20dcf542)" d="M 185.857627 89.084746 
L 223.077966 89.084746 
L 223.077966 51.864407 
L 185.857627 51.864407 
z
" style="fill:#fc8d62;stroke:#fc8d62;stroke-linejoin:miter;"/>
   </g>
   <g id="patch_37">
    <path clip-path="url(#p0a20dcf542)" d="M 230.522034 89.084746 
L 267.742373 89.084746 
L 267.742373 51.864407 
L 230.522034 51.864407 
z
" style="fill:#fc8d62;stroke:#fc8d62;stroke-linejoin:miter;"/>
   </g>
   <g id="patch_38">
    <path clip-path="url(#p0a20dcf542)" d="M 275.186441 89.084746 
L 312.40678 89.084746 
L 312.40678 51.864407 
L 275.186441 51.864407 
z
" style="fill:#fc8d62;stroke:#fc8d62;stroke-linejoin:miter;"/>
   </g>
   <g id="patch_39">
    <path clip-path="url(#p0a20dcf542)" d="M 319.850847 89.084746 
L 357.071186 89.084746 
L 357.071186 51.864407 
L 319.850847 51.864407 
z
" style="fill:#fc8d62;stroke:#fc8d62;stroke-linejoin:miter;"/>
   </g>
   <g id="patch_40">
    <path clip-path="url(#p0a20dcf542)" d="M 364.515254 89.084746 
L 401.735593 89.084746 
L 401.735593 51.864407 
L 364.515254 51.864407 
z
" style="fill:#fc8d62;stroke:#fc8d62;stroke-linejoin:miter;"/>
   </g>
   <g id="patch_41">
    <path clip-path="url(#p0a20dcf542)" d="M 409.179661 89.084746 
L 446.4 89.084746 
L 446.4 51.864407 
L 409.179661 51.864407 
z
" style="fill:#fc8d62;stroke:#fc8d62;stroke-linejoin:miter;"/>
   </g>
   <g id="patch_42">
    <path clip-path="url(#p0a20dcf542)" d="M 7.2 44.420339 
L 44.420339 44.420339 
L 44.420339 7.2 
L 7.2 7.2 
z
" style="fill:#fc8d62;stroke:#fc8d62;stroke-linejoin:miter;"/>
   </g>
   <g id="patch_43">
    <path clip-path="url(#p0a20dcf542)" d="M 51.864407 44.420339 
L 89.084746 44.420339 
L 89.084746 7.2 
L 51.864407 7.2 
z
" style="fill:#fc8d62;stroke:#fc8d62;stroke-linejoin:miter;"/>
   </g>
   <g id="patch_44">
    <path clip-path="url(#p0a20dcf542)" d="M 96.528814 44.420339 
L 133.749153 44.420339 
L 133.749153 7.2 
L 96.528814 7.2 
z
" style="fill:#fc8d62;stroke:#fc8d62;stroke-linejoin:miter;"/>
   </g>
   <g id="patch_45">
    <path clip-path="url(#p0a20dcf542)" d="M 141.19322 44.420339 
L 178.413559 44.420339 
L 178.413559 7.2 
L 141.19322 7.2 
z
" style="fill:#fc8d62;stroke:#fc8d62;stroke-linejoin:miter;"/>
   </g>
   <g id="patch_46">
    <path clip-path="url(#p0a20dcf542)" d="M 185.857627 44.420339 
L 223.077966 44.420339 
L 223.077966 7.2 
L 185.857627 7.2 
z
" style="fill:#fc8d62;stroke:#fc8d62;stroke-linejoin:miter;"/>
   </g>
   <g id="patch_47">
    <path clip-path="url(#p0a20dcf542)" d="M 230.522034 44.420339 
L 267.742373 44.420339 
L 267.742373 7.2 
L 230.522034 7.2 
z
" style="fill:#fc8d62;stroke:#fc8d62;stroke-linejoin:miter;"/>
   </g>
   <g id="patch_48">
    <path clip-path="url(#p0a20dcf542)" d="M 275.186441 44.420339 
L 312.40678 44.420339 
L 312.40678 7.2 
L 275.186441 7.2 
z
" style="fill:#fc8d62;stroke:#fc8d62;stroke-linejoin:miter;"/>
   </g>
   <g id="patch_49">
    <path clip-path="url(#p0a20dcf542)" d="M 319.850847 44.420339 
L 357.071186 44.420339 
L 357.071186 7.2 
L 319.850847 7.2 
z
" style="fill:#fc8d62;stroke:#fc8d62;stroke-linejoin:miter;"/>
   </g>
   <g id="patch_50">
    <path clip-path="url(#p0a20dcf542)" d="M 364.515254 44.420339 
L 401.735593 44.420339 
L 401.735593 7.2 
L 364.515254 7.2 
z
" style="fill:#fc8d62;stroke:#fc8d62;stroke-linejoin:miter;"/>
   </g>
   <g id="patch_51">
    <path clip-path="url(#p0a20dcf542)" d="M 409.179661 44.420339 
L 446.4 44.420339 
L 446.4 7.2 
L 409.179661 7.2 
z
" style="fill:#8da0cb;stroke:#8da0cb;stroke-linejoin:miter;"/>
   </g>
  </g>
 </g>
 <defs>
  <clipPath id="p0a20dcf542">
   <rect height="215.877966" width="439.2" x="7.2" y="7.2"/>
  </clipPath>
 </defs>
</svg>
