<?xml version="1.0" encoding="utf-8" standalone="no"?>
<!DOCTYPE svg PUBLIC "-//W3C//DTD SVG 1.1//EN"
  "http://www.w3.org/Graphics/SVG/1.1/DTD/svg11.dtd">
<!-- Created with matplotlib (https://matplotlib.org/) -->
<svg height="176.210526pt" version="1.1" viewBox="0 0 453.6 176.210526" width="453.6pt" xmlns="http://www.w3.org/2000/svg" xmlns:xlink="http://www.w3.org/1999/xlink">
 <defs>
  <style type="text/css">
*{stroke-linecap:butt;stroke-linejoin:round;}
  </style>
 </defs>
 <g id="figure_1">
  <g id="patch_1">
   <path d="M 0 176.210526 
L 453.6 176.210526 
L 453.6 -0 
L 0 -0 
z
" style="fill:#ffffff;"/>
  </g>
  <g id="axes_1">
   <g id="patch_2">
    <path clip-path="url(#pba2ac66455)" d="M 7.2 169.010526 
L 30.315789 169.010526 
L 30.315789 145.894737 
L 7.2 145.894737 
z
" style="fill:#66c2a5;stroke:#66c2a5;stroke-linejoin:miter;"/>
   </g>
   <g id="patch_3">
    <path clip-path="url(#pba2ac66455)" d="M 7.2 134.336842 
L 30.315789 134.336842 
L 30.315789 111.221053 
L 7.2 111.221053 
z
" style="fill:#66c2a5;stroke:#66c2a5;stroke-linejoin:miter;"/>
   </g>
   <g id="patch_4">
    <path clip-path="url(#pba2ac66455)" d="M 7.2 99.663158 
L 30.315789 99.663158 
L 30.315789 76.547368 
L 7.2 76.547368 
z
" style="fill:#66c2a5;stroke:#66c2a5;stroke-linejoin:miter;"/>
   </g>
   <g id="patch_5">
    <path clip-path="url(#pba2ac66455)" d="M 7.2 64.989474 
L 30.315789 64.989474 
L 30.315789 41.873684 
L 7.2 41.873684 
z
" style="fill:#66c2a5;stroke:#66c2a5;stroke-linejoin:miter;"/>
   </g>
   <g id="patch_6">
    <path clip-path="url(#pba2ac66455)" d="M 7.2 30.315789 
L 30.315789 30.315789 
L 30.315789 7.2 
L 7.2 7.2 
z
" style="fill:#66c2a5;stroke:#66c2a5;stroke-linejoin:miter;"/>
   </g>
   <g id="patch_7">
    <path clip-path="url(#pba2ac66455)" d="M 53.431579 169.010526 
L 76.547368 169.010526 
L 76.547368 145.894737 
L 53.431579 145.894737 
z
" style="fill:#66c2a5;stroke:#66c2a5;stroke-linejoin:miter;"/>
   </g>
   <g id="patch_8">
    <path clip-path="url(#pba2ac66455)" d="M 53.431579 134.336842 
L 76.547368 134.336842 
L 76.547368 111.221053 
L 53.431579 111.221053 
z
" style="fill:#66c2a5;stroke:#66c2a5;stroke-linejoin:miter;"/>
   </g>
   <g id="patch_9">
    <path clip-path="url(#pba2ac66455)" d="M 53.431579 99.663158 
L 76.547368 99.663158 
L 76.547368 76.547368 
L 53.431579 76.547368 
z
" style="fill:#66c2a5;stroke:#66c2a5;stroke-linejoin:miter;"/>
   </g>
   <g id="patch_10">
    <path clip-path="url(#pba2ac66455)" d="M 53.431579 64.989474 
L 76.547368 64.989474 
L 76.547368 41.873684 
L 53.431579 41.873684 
z
" style="fill:#66c2a5;stroke:#66c2a5;stroke-linejoin:miter;"/>
   </g>
   <g id="patch_11">
    <path clip-path="url(#pba2ac66455)" d="M 53.431579 30.315789 
L 76.547368 30.315789 
L 76.547368 7.2 
L 53.431579 7.2 
z
" style="fill:#66c2a5;stroke:#66c2a5;stroke-linejoin:miter;"/>
   </g>
   <g id="patch_12">
    <path clip-path="url(#pba2ac66455)" d="M 99.663158 169.010526 
L 122.778947 169.010526 
L 122.778947 145.894737 
L 99.663158 145.894737 
z
" style="fill:#66c2a5;stroke:#66c2a5;stroke-linejoin:miter;"/>
   </g>
   <g id="patch_13">
    <path clip-path="url(#pba2ac66455)" d="M 99.663158 134.336842 
L 122.778947 134.336842 
L 122.778947 111.221053 
L 99.663158 111.221053 
z
" style="fill:#66c2a5;stroke:#66c2a5;stroke-linejoin:miter;"/>
   </g>
   <g id="patch_14">
    <path clip-path="url(#pba2ac66455)" d="M 99.663158 99.663158 
L 122.778947 99.663158 
L 122.778947 76.547368 
L 99.663158 76.547368 
z
" style="fill:#66c2a5;stroke:#66c2a5;stroke-linejoin:miter;"/>
   </g>
   <g id="patch_15">
    <path clip-path="url(#pba2ac66455)" d="M 99.663158 64.989474 
L 122.778947 64.989474 
L 122.778947 41.873684 
L 99.663158 41.873684 
z
" style="fill:#66c2a5;stroke:#66c2a5;stroke-linejoin:miter;"/>
   </g>
   <g id="patch_16">
    <path clip-path="url(#pba2ac66455)" d="M 99.663158 30.315789 
L 122.778947 30.315789 
L 122.778947 7.2 
L 99.663158 7.2 
z
" style="fill:#66c2a5;stroke:#66c2a5;stroke-linejoin:miter;"/>
   </g>
   <g id="patch_17">
    <path clip-path="url(#pba2ac66455)" d="M 145.894737 169.010526 
L 169.010526 169.010526 
L 169.010526 145.894737 
L 145.894737 145.894737 
z
" style="fill:#66c2a5;stroke:#66c2a5;stroke-linejoin:miter;"/>
   </g>
   <g id="patch_18">
    <path clip-path="url(#pba2ac66455)" d="M 145.894737 134.336842 
L 169.010526 134.336842 
L 169.010526 111.221053 
L 145.894737 111.221053 
z
" style="fill:#66c2a5;stroke:#66c2a5;stroke-linejoin:miter;"/>
   </g>
   <g id="patch_19">
    <path clip-path="url(#pba2ac66455)" d="M 145.894737 99.663158 
L 169.010526 99.663158 
L 169.010526 76.547368 
L 145.894737 76.547368 
z
" style="fill:#66c2a5;stroke:#66c2a5;stroke-linejoin:miter;"/>
   </g>
   <g id="patch_20">
    <path clip-path="url(#pba2ac66455)" d="M 145.894737 64.989474 
L 169.010526 64.989474 
L 169.010526 41.873684 
L 145.894737 41.873684 
z
" style="fill:#66c2a5;stroke:#66c2a5;stroke-linejoin:miter;"/>
   </g>
   <g id="patch_21">
    <path clip-path="url(#pba2ac66455)" d="M 145.894737 30.315789 
L 169.010526 30.315789 
L 169.010526 7.2 
L 145.894737 7.2 
z
" style="fill:#66c2a5;stroke:#66c2a5;stroke-linejoin:miter;"/>
   </g>
   <g id="patch_22">
    <path clip-path="url(#pba2ac66455)" d="M 192.126316 169.010526 
L 215.242105 169.010526 
L 215.242105 145.894737 
L 192.126316 145.894737 
z
" style="fill:#66c2a5;stroke:#66c2a5;stroke-linejoin:miter;"/>
   </g>
   <g id="patch_23">
    <path clip-path="url(#pba2ac66455)" d="M 192.126316 134.336842 
L 215.242105 134.336842 
L 215.242105 111.221053 
L 192.126316 111.221053 
z
" style="fill:#66c2a5;stroke:#66c2a5;stroke-linejoin:miter;"/>
   </g>
   <g id="patch_24">
    <path clip-path="url(#pba2ac66455)" d="M 192.126316 99.663158 
L 215.242105 99.663158 
L 215.242105 76.547368 
L 192.126316 76.547368 
z
" style="fill:#66c2a5;stroke:#66c2a5;stroke-linejoin:miter;"/>
   </g>
   <g id="patch_25">
    <path clip-path="url(#pba2ac66455)" d="M 192.126316 64.989474 
L 215.242105 64.989474 
L 215.242105 41.873684 
L 192.126316 41.873684 
z
" style="fill:#66c2a5;stroke:#66c2a5;stroke-linejoin:miter;"/>
   </g>
   <g id="patch_26">
    <path clip-path="url(#pba2ac66455)" d="M 192.126316 30.315789 
L 215.242105 30.315789 
L 215.242105 7.2 
L 192.126316 7.2 
z
" style="fill:#66c2a5;stroke:#66c2a5;stroke-linejoin:miter;"/>
   </g>
   <g id="patch_27">
    <path clip-path="url(#pba2ac66455)" d="M 238.357895 169.010526 
L 261.473684 169.010526 
L 261.473684 145.894737 
L 238.357895 145.894737 
z
" style="fill:#66c2a5;stroke:#66c2a5;stroke-linejoin:miter;"/>
   </g>
   <g id="patch_28">
    <path clip-path="url(#pba2ac66455)" d="M 238.357895 134.336842 
L 261.473684 134.336842 
L 261.473684 111.221053 
L 238.357895 111.221053 
z
" style="fill:#66c2a5;stroke:#66c2a5;stroke-linejoin:miter;"/>
   </g>
   <g id="patch_29">
    <path clip-path="url(#pba2ac66455)" d="M 238.357895 99.663158 
L 261.473684 99.663158 
L 261.473684 76.547368 
L 238.357895 76.547368 
z
" style="fill:#66c2a5;stroke:#66c2a5;stroke-linejoin:miter;"/>
   </g>
   <g id="patch_30">
    <path clip-path="url(#pba2ac66455)" d="M 238.357895 64.989474 
L 261.473684 64.989474 
L 261.473684 41.873684 
L 238.357895 41.873684 
z
" style="fill:#66c2a5;stroke:#66c2a5;stroke-linejoin:miter;"/>
   </g>
   <g id="patch_31">
    <path clip-path="url(#pba2ac66455)" d="M 238.357895 30.315789 
L 261.473684 30.315789 
L 261.473684 7.2 
L 238.357895 7.2 
z
" style="fill:#66c2a5;stroke:#66c2a5;stroke-linejoin:miter;"/>
   </g>
   <g id="patch_32">
    <path clip-path="url(#pba2ac66455)" d="M 284.589474 169.010526 
L 307.705263 169.010526 
L 307.705263 145.894737 
L 284.589474 145.894737 
z
" style="fill:#fc8d62;stroke:#fc8d62;stroke-linejoin:miter;"/>
   </g>
   <g id="patch_33">
    <path clip-path="url(#pba2ac66455)" d="M 284.589474 134.336842 
L 307.705263 134.336842 
L 307.705263 111.221053 
L 284.589474 111.221053 
z
" style="fill:#fc8d62;stroke:#fc8d62;stroke-linejoin:miter;"/>
   </g>
   <g id="patch_34">
    <path clip-path="url(#pba2ac66455)" d="M 284.589474 99.663158 
L 307.705263 99.663158 
L 307.705263 76.547368 
L 284.589474 76.547368 
z
" style="fill:#fc8d62;stroke:#fc8d62;stroke-linejoin:miter;"/>
   </g>
   <g id="patch_35">
    <path clip-path="url(#pba2ac66455)" d="M 284.589474 64.989474 
L 307.705263 64.989474 
L 307.705263 41.873684 
L 284.589474 41.873684 
z
" style="fill:#fc8d62;stroke:#fc8d62;stroke-linejoin:miter;"/>
   </g>
   <g id="patch_36">
    <path clip-path="url(#pba2ac66455)" d="M 284.589474 30.315789 
L 307.705263 30.315789 
L 307.705263 7.2 
L 284.589474 7.2 
z
" style="fill:#fc8d62;stroke:#fc8d62;stroke-linejoin:miter;"/>
   </g>
   <g id="patch_37">
    <path clip-path="url(#pba2ac66455)" d="M 330.821053 169.010526 
L 353.936842 169.010526 
L 353.936842 145.894737 
L 330.821053 145.894737 
z
" style="fill:#fc8d62;stroke:#fc8d62;stroke-linejoin:miter;"/>
   </g>
   <g id="patch_38">
    <path clip-path="url(#pba2ac66455)" d="M 330.821053 134.336842 
L 353.936842 134.336842 
L 353.936842 111.221053 
L 330.821053 111.221053 
z
" style="fill:#fc8d62;stroke:#fc8d62;stroke-linejoin:miter;"/>
   </g>
   <g id="patch_39">
    <path clip-path="url(#pba2ac66455)" d="M 330.821053 99.663158 
L 353.936842 99.663158 
L 353.936842 76.547368 
L 330.821053 76.547368 
z
" style="fill:#fc8d62;stroke:#fc8d62;stroke-linejoin:miter;"/>
   </g>
   <g id="patch_40">
    <path clip-path="url(#pba2ac66455)" d="M 330.821053 64.989474 
L 353.936842 64.989474 
L 353.936842 41.873684 
L 330.821053 41.873684 
z
" style="fill:#fc8d62;stroke:#fc8d62;stroke-linejoin:miter;"/>
   </g>
   <g id="patch_41">
    <path clip-path="url(#pba2ac66455)" d="M 330.821053 30.315789 
L 353.936842 30.315789 
L 353.936842 7.2 
L 330.821053 7.2 
z
" style="fill:#fc8d62;stroke:#fc8d62;stroke-linejoin:miter;"/>
   </g>
   <g id="patch_42">
    <path clip-path="url(#pba2ac66455)" d="M 377.052632 169.010526 
L 400.168421 169.010526 
L 400.168421 145.894737 
L 377.052632 145.894737 
z
" style="fill:#fc8d62;stroke:#fc8d62;stroke-linejoin:miter;"/>
   </g>
   <g id="patch_43">
    <path clip-path="url(#pba2ac66455)" d="M 377.052632 134.336842 
L 400.168421 134.336842 
L 400.168421 111.221053 
L 377.052632 111.221053 
z
" style="fill:#fc8d62;stroke:#fc8d62;stroke-linejoin:miter;"/>
   </g>
   <g id="patch_44">
    <path clip-path="url(#pba2ac66455)" d="M 377.052632 99.663158 
L 400.168421 99.663158 
L 400.168421 76.547368 
L 377.052632 76.547368 
z
" style="fill:#fc8d62;stroke:#fc8d62;stroke-linejoin:miter;"/>
   </g>
   <g id="patch_45">
    <path clip-path="url(#pba2ac66455)" d="M 377.052632 64.989474 
L 400.168421 64.989474 
L 400.168421 41.873684 
L 377.052632 41.873684 
z
" style="fill:#fc8d62;stroke:#fc8d62;stroke-linejoin:miter;"/>
   </g>
   <g id="patch_46">
    <path clip-path="url(#pba2ac66455)" d="M 377.052632 30.315789 
L 400.168421 30.315789 
L 400.168421 7.2 
L 377.052632 7.2 
z
" style="fill:#fc8d62;stroke:#fc8d62;stroke-linejoin:miter;"/>
   </g>
   <g id="patch_47">
    <path clip-path="url(#pba2ac66455)" d="M 423.284211 169.010526 
L 446.4 169.010526 
L 446.4 145.894737 
L 423.284211 145.894737 
z
" style="fill:#fc8d62;stroke:#fc8d62;stroke-linejoin:miter;"/>
   </g>
   <g id="patch_48">
    <path clip-path="url(#pba2ac66455)" d="M 423.284211 134.336842 
L 446.4 134.336842 
L 446.4 111.221053 
L 423.284211 111.221053 
z
" style="fill:#8da0cb;stroke:#8da0cb;stroke-linejoin:miter;"/>
   </g>
   <g id="patch_49">
    <path clip-path="url(#pba2ac66455)" d="M 423.284211 99.663158 
L 446.4 99.663158 
L 446.4 76.547368 
L 423.284211 76.547368 
z
" style="fill:#8da0cb;stroke:#8da0cb;stroke-linejoin:miter;"/>
   </g>
   <g id="patch_50">
    <path clip-path="url(#pba2ac66455)" d="M 423.284211 64.989474 
L 446.4 64.989474 
L 446.4 41.873684 
L 423.284211 41.873684 
z
" style="fill:#8da0cb;stroke:#8da0cb;stroke-linejoin:miter;"/>
   </g>
   <g id="patch_51">
    <path clip-path="url(#pba2ac66455)" d="M 423.284211 30.315789 
L 446.4 30.315789 
L 446.4 7.2 
L 423.284211 7.2 
z
" style="fill:#8da0cb;stroke:#8da0cb;stroke-linejoin:miter;"/>
   </g>
  </g>
 </g>
 <defs>
  <clipPath id="pba2ac66455">
   <rect height="161.810526" width="439.2" x="7.2" y="7.2"/>
  </clipPath>
 </defs>
</svg>
