<?xml version="1.0" encoding="utf-8" standalone="no"?>
<!DOCTYPE svg PUBLIC "-//W3C//DTD SVG 1.1//EN"
  "http://www.w3.org/Graphics/SVG/1.1/DTD/svg11.dtd">
<!-- Created with matplotlib (https://matplotlib.org/) -->
<svg height="147.822723pt" version="1.1" viewBox="0 0 453.6 147.822723" width="453.6pt" xmlns="http://www.w3.org/2000/svg" xmlns:xlink="http://www.w3.org/1999/xlink">
 <defs>
  <style type="text/css">
*{stroke-linecap:butt;stroke-linejoin:round;}
  </style>
 </defs>
 <g id="figure_1">
  <g id="patch_1">
   <path d="M 0 147.822723 
L 453.6 147.822723 
L 453.6 0 
L 0 0 
z
" style="fill:#ffffff;"/>
  </g>
  <g id="axes_1">
   <g id="patch_2">
    <path clip-path="url(#pb4696633f4)" d="M 7.2 140.622723 
L 44.420339 140.622723 
L 44.420339 117.618805 
L 7.2 117.618805 
z
" style="fill:#66c2a5;stroke:#66c2a5;stroke-linejoin:miter;"/>
   </g>
   <g id="patch_3">
    <path clip-path="url(#pb4696633f4)" d="M 7.2 113.018022 
L 44.420339 113.018022 
L 44.420339 90.014104 
L 7.2 90.014104 
z
" style="fill:#66c2a5;stroke:#66c2a5;stroke-linejoin:miter;"/>
   </g>
   <g id="patch_4">
    <path clip-path="url(#pb4696633f4)" d="M 7.2 85.41332 
L 44.420339 85.41332 
L 44.420339 62.409403 
L 7.2 62.409403 
z
" style="fill:#66c2a5;stroke:#66c2a5;stroke-linejoin:miter;"/>
   </g>
   <g id="patch_5">
    <path clip-path="url(#pb4696633f4)" d="M 7.2 57.808619 
L 44.420339 57.808619 
L 44.420339 34.804701 
L 7.2 34.804701 
z
" style="fill:#66c2a5;stroke:#66c2a5;stroke-linejoin:miter;"/>
   </g>
   <g id="patch_6">
    <path clip-path="url(#pb4696633f4)" d="M 7.2 30.203918 
L 44.420339 30.203918 
L 44.420339 7.2 
L 7.2 7.2 
z
" style="fill:#66c2a5;stroke:#66c2a5;stroke-linejoin:miter;"/>
   </g>
   <g id="patch_7">
    <path clip-path="url(#pb4696633f4)" d="M 51.864407 140.622723 
L 89.084746 140.622723 
L 89.084746 117.618805 
L 51.864407 117.618805 
z
" style="fill:#66c2a5;stroke:#66c2a5;stroke-linejoin:miter;"/>
   </g>
   <g id="patch_8">
    <path clip-path="url(#pb4696633f4)" d="M 51.864407 113.018022 
L 89.084746 113.018022 
L 89.084746 90.014104 
L 51.864407 90.014104 
z
" style="fill:#66c2a5;stroke:#66c2a5;stroke-linejoin:miter;"/>
   </g>
   <g id="patch_9">
    <path clip-path="url(#pb4696633f4)" d="M 51.864407 85.41332 
L 89.084746 85.41332 
L 89.084746 62.409403 
L 51.864407 62.409403 
z
" style="fill:#66c2a5;stroke:#66c2a5;stroke-linejoin:miter;"/>
   </g>
   <g id="patch_10">
    <path clip-path="url(#pb4696633f4)" d="M 51.864407 57.808619 
L 89.084746 57.808619 
L 89.084746 34.804701 
L 51.864407 34.804701 
z
" style="fill:#66c2a5;stroke:#66c2a5;stroke-linejoin:miter;"/>
   </g>
   <g id="patch_11">
    <path clip-path="url(#pb4696633f4)" d="M 51.864407 30.203918 
L 89.084746 30.203918 
L 89.084746 7.2 
L 51.864407 7.2 
z
" style="fill:#66c2a5;stroke:#66c2a5;stroke-linejoin:miter;"/>
   </g>
   <g id="patch_12">
    <path clip-path="url(#pb4696633f4)" d="M 96.528814 140.622723 
L 133.749153 140.622723 
L 133.749153 117.618805 
L 96.528814 117.618805 
z
" style="fill:#66c2a5;stroke:#66c2a5;stroke-linejoin:miter;"/>
   </g>
   <g id="patch_13">
    <path clip-path="url(#pb4696633f4)" d="M 96.528814 113.018022 
L 133.749153 113.018022 
L 133.749153 90.014104 
L 96.528814 90.014104 
z
" style="fill:#66c2a5;stroke:#66c2a5;stroke-linejoin:miter;"/>
   </g>
   <g id="patch_14">
    <path clip-path="url(#pb4696633f4)" d="M 96.528814 85.41332 
L 133.749153 85.41332 
L 133.749153 62.409403 
L 96.528814 62.409403 
z
" style="fill:#66c2a5;stroke:#66c2a5;stroke-linejoin:miter;"/>
   </g>
   <g id="patch_15">
    <path clip-path="url(#pb4696633f4)" d="M 96.528814 57.808619 
L 133.749153 57.808619 
L 133.749153 34.804701 
L 96.528814 34.804701 
z
" style="fill:#66c2a5;stroke:#66c2a5;stroke-linejoin:miter;"/>
   </g>
   <g id="patch_16">
    <path clip-path="url(#pb4696633f4)" d="M 96.528814 30.203918 
L 133.749153 30.203918 
L 133.749153 7.2 
L 96.528814 7.2 
z
" style="fill:#66c2a5;stroke:#66c2a5;stroke-linejoin:miter;"/>
   </g>
   <g id="patch_17">
    <path clip-path="url(#pb4696633f4)" d="M 141.19322 140.622723 
L 178.413559 140.622723 
L 178.413559 117.618805 
L 141.19322 117.618805 
z
" style="fill:#66c2a5;stroke:#66c2a5;stroke-linejoin:miter;"/>
   </g>
   <g id="patch_18">
    <path clip-path="url(#pb4696633f4)" d="M 141.19322 113.018022 
L 178.413559 113.018022 
L 178.413559 90.014104 
L 141.19322 90.014104 
z
" style="fill:#66c2a5;stroke:#66c2a5;stroke-linejoin:miter;"/>
   </g>
   <g id="patch_19">
    <path clip-path="url(#pb4696633f4)" d="M 141.19322 85.41332 
L 178.413559 85.41332 
L 178.413559 62.409403 
L 141.19322 62.409403 
z
" style="fill:#66c2a5;stroke:#66c2a5;stroke-linejoin:miter;"/>
   </g>
   <g id="patch_20">
    <path clip-path="url(#pb4696633f4)" d="M 141.19322 57.808619 
L 178.413559 57.808619 
L 178.413559 34.804701 
L 141.19322 34.804701 
z
" style="fill:#66c2a5;stroke:#66c2a5;stroke-linejoin:miter;"/>
   </g>
   <g id="patch_21">
    <path clip-path="url(#pb4696633f4)" d="M 141.19322 30.203918 
L 178.413559 30.203918 
L 178.413559 7.2 
L 141.19322 7.2 
z
" style="fill:#66c2a5;stroke:#66c2a5;stroke-linejoin:miter;"/>
   </g>
   <g id="patch_22">
    <path clip-path="url(#pb4696633f4)" d="M 185.857627 140.622723 
L 223.077966 140.622723 
L 223.077966 117.618805 
L 185.857627 117.618805 
z
" style="fill:#66c2a5;stroke:#66c2a5;stroke-linejoin:miter;"/>
   </g>
   <g id="patch_23">
    <path clip-path="url(#pb4696633f4)" d="M 185.857627 113.018022 
L 223.077966 113.018022 
L 223.077966 90.014104 
L 185.857627 90.014104 
z
" style="fill:#66c2a5;stroke:#66c2a5;stroke-linejoin:miter;"/>
   </g>
   <g id="patch_24">
    <path clip-path="url(#pb4696633f4)" d="M 185.857627 85.41332 
L 223.077966 85.41332 
L 223.077966 62.409403 
L 185.857627 62.409403 
z
" style="fill:#66c2a5;stroke:#66c2a5;stroke-linejoin:miter;"/>
   </g>
   <g id="patch_25">
    <path clip-path="url(#pb4696633f4)" d="M 185.857627 57.808619 
L 223.077966 57.808619 
L 223.077966 34.804701 
L 185.857627 34.804701 
z
" style="fill:#66c2a5;stroke:#66c2a5;stroke-linejoin:miter;"/>
   </g>
   <g id="patch_26">
    <path clip-path="url(#pb4696633f4)" d="M 185.857627 30.203918 
L 223.077966 30.203918 
L 223.077966 7.2 
L 185.857627 7.2 
z
" style="fill:#66c2a5;stroke:#66c2a5;stroke-linejoin:miter;"/>
   </g>
   <g id="patch_27">
    <path clip-path="url(#pb4696633f4)" d="M 230.522034 140.622723 
L 267.742373 140.622723 
L 267.742373 117.618805 
L 230.522034 117.618805 
z
" style="fill:#fc8d62;stroke:#fc8d62;stroke-linejoin:miter;"/>
   </g>
   <g id="patch_28">
    <path clip-path="url(#pb4696633f4)" d="M 230.522034 113.018022 
L 267.742373 113.018022 
L 267.742373 90.014104 
L 230.522034 90.014104 
z
" style="fill:#fc8d62;stroke:#fc8d62;stroke-linejoin:miter;"/>
   </g>
   <g id="patch_29">
    <path clip-path="url(#pb4696633f4)" d="M 230.522034 85.41332 
L 267.742373 85.41332 
L 267.742373 62.409403 
L 230.522034 62.409403 
z
" style="fill:#fc8d62;stroke:#fc8d62;stroke-linejoin:miter;"/>
   </g>
   <g id="patch_30">
    <path clip-path="url(#pb4696633f4)" d="M 230.522034 57.808619 
L 267.742373 57.808619 
L 267.742373 34.804701 
L 230.522034 34.804701 
z
" style="fill:#fc8d62;stroke:#fc8d62;stroke-linejoin:miter;"/>
   </g>
   <g id="patch_31">
    <path clip-path="url(#pb4696633f4)" d="M 230.522034 30.203918 
L 267.742373 30.203918 
L 267.742373 7.2 
L 230.522034 7.2 
z
" style="fill:#fc8d62;stroke:#fc8d62;stroke-linejoin:miter;"/>
   </g>
   <g id="patch_32">
    <path clip-path="url(#pb4696633f4)" d="M 275.186441 140.622723 
L 312.40678 140.622723 
L 312.40678 117.618805 
L 275.186441 117.618805 
z
" style="fill:#fc8d62;stroke:#fc8d62;stroke-linejoin:miter;"/>
   </g>
   <g id="patch_33">
    <path clip-path="url(#pb4696633f4)" d="M 275.186441 113.018022 
L 312.40678 113.018022 
L 312.40678 90.014104 
L 275.186441 90.014104 
z
" style="fill:#fc8d62;stroke:#fc8d62;stroke-linejoin:miter;"/>
   </g>
   <g id="patch_34">
    <path clip-path="url(#pb4696633f4)" d="M 275.186441 85.41332 
L 312.40678 85.41332 
L 312.40678 62.409403 
L 275.186441 62.409403 
z
" style="fill:#fc8d62;stroke:#fc8d62;stroke-linejoin:miter;"/>
   </g>
   <g id="patch_35">
    <path clip-path="url(#pb4696633f4)" d="M 275.186441 57.808619 
L 312.40678 57.808619 
L 312.40678 34.804701 
L 275.186441 34.804701 
z
" style="fill:#fc8d62;stroke:#fc8d62;stroke-linejoin:miter;"/>
   </g>
   <g id="patch_36">
    <path clip-path="url(#pb4696633f4)" d="M 275.186441 30.203918 
L 312.40678 30.203918 
L 312.40678 7.2 
L 275.186441 7.2 
z
" style="fill:#fc8d62;stroke:#fc8d62;stroke-linejoin:miter;"/>
   </g>
   <g id="patch_37">
    <path clip-path="url(#pb4696633f4)" d="M 319.850847 140.622723 
L 357.071186 140.622723 
L 357.071186 117.618805 
L 319.850847 117.618805 
z
" style="fill:#fc8d62;stroke:#fc8d62;stroke-linejoin:miter;"/>
   </g>
   <g id="patch_38">
    <path clip-path="url(#pb4696633f4)" d="M 319.850847 113.018022 
L 357.071186 113.018022 
L 357.071186 90.014104 
L 319.850847 90.014104 
z
" style="fill:#fc8d62;stroke:#fc8d62;stroke-linejoin:miter;"/>
   </g>
   <g id="patch_39">
    <path clip-path="url(#pb4696633f4)" d="M 319.850847 85.41332 
L 357.071186 85.41332 
L 357.071186 62.409403 
L 319.850847 62.409403 
z
" style="fill:#fc8d62;stroke:#fc8d62;stroke-linejoin:miter;"/>
   </g>
   <g id="patch_40">
    <path clip-path="url(#pb4696633f4)" d="M 319.850847 57.808619 
L 357.071186 57.808619 
L 357.071186 34.804701 
L 319.850847 34.804701 
z
" style="fill:#fc8d62;stroke:#fc8d62;stroke-linejoin:miter;"/>
   </g>
   <g id="patch_41">
    <path clip-path="url(#pb4696633f4)" d="M 319.850847 30.203918 
L 357.071186 30.203918 
L 357.071186 7.2 
L 319.850847 7.2 
z
" style="fill:#fc8d62;stroke:#fc8d62;stroke-linejoin:miter;"/>
   </g>
   <g id="patch_42">
    <path clip-path="url(#pb4696633f4)" d="M 364.515254 140.622723 
L 401.735593 140.622723 
L 401.735593 117.618805 
L 364.515254 117.618805 
z
" style="fill:#fc8d62;stroke:#fc8d62;stroke-linejoin:miter;"/>
   </g>
   <g id="patch_43">
    <path clip-path="url(#pb4696633f4)" d="M 364.515254 113.018022 
L 401.735593 113.018022 
L 401.735593 90.014104 
L 364.515254 90.014104 
z
" style="fill:#fc8d62;stroke:#fc8d62;stroke-linejoin:miter;"/>
   </g>
   <g id="patch_44">
    <path clip-path="url(#pb4696633f4)" d="M 364.515254 85.41332 
L 401.735593 85.41332 
L 401.735593 62.409403 
L 364.515254 62.409403 
z
" style="fill:#fc8d62;stroke:#fc8d62;stroke-linejoin:miter;"/>
   </g>
   <g id="patch_45">
    <path clip-path="url(#pb4696633f4)" d="M 364.515254 57.808619 
L 401.735593 57.808619 
L 401.735593 34.804701 
L 364.515254 34.804701 
z
" style="fill:#fc8d62;stroke:#fc8d62;stroke-linejoin:miter;"/>
   </g>
   <g id="patch_46">
    <path clip-path="url(#pb4696633f4)" d="M 364.515254 30.203918 
L 401.735593 30.203918 
L 401.735593 7.2 
L 364.515254 7.2 
z
" style="fill:#fc8d62;stroke:#fc8d62;stroke-linejoin:miter;"/>
   </g>
   <g id="patch_47">
    <path clip-path="url(#pb4696633f4)" d="M 409.179661 140.622723 
L 446.4 140.622723 
L 446.4 117.618805 
L 409.179661 117.618805 
z
" style="fill:#fc8d62;stroke:#fc8d62;stroke-linejoin:miter;"/>
   </g>
   <g id="patch_48">
    <path clip-path="url(#pb4696633f4)" d="M 409.179661 113.018022 
L 446.4 113.018022 
L 446.4 90.014104 
L 409.179661 90.014104 
z
" style="fill:#fc8d62;stroke:#fc8d62;stroke-linejoin:miter;"/>
   </g>
   <g id="patch_49">
    <path clip-path="url(#pb4696633f4)" d="M 409.179661 85.41332 
L 446.4 85.41332 
L 446.4 62.409403 
L 409.179661 62.409403 
z
" style="fill:#fc8d62;stroke:#fc8d62;stroke-linejoin:miter;"/>
   </g>
   <g id="patch_50">
    <path clip-path="url(#pb4696633f4)" d="M 409.179661 57.808619 
L 446.4 57.808619 
L 446.4 34.804701 
L 409.179661 34.804701 
z
" style="fill:#fc8d62;stroke:#fc8d62;stroke-linejoin:miter;"/>
   </g>
   <g id="patch_51">
    <path clip-path="url(#pb4696633f4)" d="M 409.179661 30.203918 
L 446.4 30.203918 
L 446.4 7.2 
L 409.179661 7.2 
z
" style="fill:#8da0cb;stroke:#8da0cb;stroke-linejoin:miter;"/>
   </g>
  </g>
 </g>
 <defs>
  <clipPath id="pb4696633f4">
   <rect height="133.422723" width="439.2" x="7.2" y="7.2"/>
  </clipPath>
 </defs>
</svg>
