<?xml version="1.0" encoding="utf-8" standalone="no"?>
<!DOCTYPE svg PUBLIC "-//W3C//DTD SVG 1.1//EN"
  "http://www.w3.org/Graphics/SVG/1.1/DTD/svg11.dtd">
<svg xmlns:xlink="http://www.w3.org/1999/xlink" width="453.6pt" height="233.371716pt" viewBox="0 0 453.6 233.371716" xmlns="http://www.w3.org/2000/svg" version="1.1">
 <metadata>
  <rdf:RDF xmlns:dc="http://purl.org/dc/elements/1.1/" xmlns:cc="http://creativecommons.org/ns#" xmlns:rdf="http://www.w3.org/1999/02/22-rdf-syntax-ns#">
   <cc:Work>
    <dc:type rdf:resource="http://purl.org/dc/dcmitype/StillImage"/>
    <dc:date>2022-06-05T10:24:42.031744</dc:date>
    <dc:format>image/svg+xml</dc:format>
    <dc:creator>
     <cc:Agent>
      <dc:title>Matplotlib v3.5.2, https://matplotlib.org/</dc:title>
     </cc:Agent>
    </dc:creator>
   </cc:Work>
  </rdf:RDF>
 </metadata>
 <defs>
  <style type="text/css">*{stroke-linejoin: round; stroke-linecap: butt}</style>
 </defs>
 <g id="figure_1">
  <g id="patch_1">
   <path d="M 0 233.371716 
L 453.6 233.371716 
L 453.6 0 
L 0 0 
z
" style="fill: #ffffff"/>
  </g>
  <g id="axes_1">
   <g id="text_1">
    <!--  -->
    <g style="fill: #232066" transform="translate(7.2 223.077966)scale(0.24 -0.24)">
     <defs>
      <path id="FontAwesome6Free-Solid-f005" d="M 4763 3713 
L 6550 3450 
C 6700 3425 6825 3325 6875 3175 
C 6925 3038 6888 2875 6775 2775 
L 5475 1488 
L 5788 -338 
C 5813 -488 5750 -638 5625 -725 
C 5500 -825 5338 -825 5200 -763 
L 3600 100 
L 1988 -763 
C 1863 -825 1688 -825 1575 -725 
C 1450 -638 1388 -488 1413 -338 
L 1713 1488 
L 413 2775 
C 300 2875 263 3038 313 3175 
C 363 3325 488 3425 638 3450 
L 2438 3713 
L 3238 5375 
C 3300 5513 3438 5600 3600 5600 
C 3750 5600 3888 5513 3950 5375 
L 4763 3713 
z
" transform="scale(0.015625)"/>
     </defs>
     <use xlink:href="#FontAwesome6Free-Solid-f005"/>
    </g>
   </g>
   <g id="text_2">
    <!--  -->
    <g style="fill: #232066" transform="translate(7.2 178.413559)scale(0.24 -0.24)">
     <use xlink:href="#FontAwesome6Free-Solid-f005"/>
    </g>
   </g>
   <g id="text_3">
    <!--  -->
    <g style="fill: #232066" transform="translate(7.2 133.749153)scale(0.24 -0.24)">
     <use xlink:href="#FontAwesome6Free-Solid-f005"/>
    </g>
   </g>
   <g id="text_4">
    <!--  -->
    <g style="fill: #232066" transform="translate(7.2 89.084746)scale(0.24 -0.24)">
     <use xlink:href="#FontAwesome6Free-Solid-f005"/>
    </g>
   </g>
   <g id="text_5">
    <!--  -->
    <g style="fill: #232066" transform="translate(7.2 44.420339)scale(0.24 -0.24)">
     <use xlink:href="#FontAwesome6Free-Solid-f005"/>
    </g>
   </g>
   <g id="text_6">
    <!--  -->
    <g style="fill: #232066" transform="translate(51.864407 223.077966)scale(0.24 -0.24)">
     <use xlink:href="#FontAwesome6Free-Solid-f005"/>
    </g>
   </g>
   <g id="text_7">
    <!--  -->
    <g style="fill: #232066" transform="translate(51.864407 178.413559)scale(0.24 -0.24)">
     <use xlink:href="#FontAwesome6Free-Solid-f005"/>
    </g>
   </g>
   <g id="text_8">
    <!--  -->
    <g style="fill: #232066" transform="translate(51.864407 133.749153)scale(0.24 -0.24)">
     <use xlink:href="#FontAwesome6Free-Solid-f005"/>
    </g>
   </g>
   <g id="text_9">
    <!--  -->
    <g style="fill: #232066" transform="translate(51.864407 89.084746)scale(0.24 -0.24)">
     <use xlink:href="#FontAwesome6Free-Solid-f005"/>
    </g>
   </g>
   <g id="text_10">
    <!--  -->
    <g style="fill: #232066" transform="translate(51.864407 44.420339)scale(0.24 -0.24)">
     <use xlink:href="#FontAwesome6Free-Solid-f005"/>
    </g>
   </g>
   <g id="text_11">
    <!--  -->
    <g style="fill: #232066" transform="translate(96.528814 223.077966)scale(0.24 -0.24)">
     <use xlink:href="#FontAwesome6Free-Solid-f005"/>
    </g>
   </g>
   <g id="text_12">
    <!--  -->
    <g style="fill: #232066" transform="translate(96.528814 178.413559)scale(0.24 -0.24)">
     <use xlink:href="#FontAwesome6Free-Solid-f005"/>
    </g>
   </g>
   <g id="text_13">
    <!--  -->
    <g style="fill: #232066" transform="translate(96.528814 133.749153)scale(0.24 -0.24)">
     <use xlink:href="#FontAwesome6Free-Solid-f005"/>
    </g>
   </g>
   <g id="text_14">
    <!--  -->
    <g style="fill: #232066" transform="translate(96.528814 89.084746)scale(0.24 -0.24)">
     <use xlink:href="#FontAwesome6Free-Solid-f005"/>
    </g>
   </g>
   <g id="text_15">
    <!--  -->
    <g style="fill: #232066" transform="translate(96.528814 44.420339)scale(0.24 -0.24)">
     <use xlink:href="#FontAwesome6Free-Solid-f005"/>
    </g>
   </g>
   <g id="text_16">
    <!--  -->
    <g style="fill: #232066" transform="translate(141.19322 223.077966)scale(0.24 -0.24)">
     <use xlink:href="#FontAwesome6Free-Solid-f005"/>
    </g>
   </g>
   <g id="text_17">
    <!--  -->
    <g style="fill: #232066" transform="translate(141.19322 178.413559)scale(0.24 -0.24)">
     <use xlink:href="#FontAwesome6Free-Solid-f005"/>
    </g>
   </g>
   <g id="text_18">
    <!--  -->
    <g style="fill: #232066" transform="translate(141.19322 133.749153)scale(0.24 -0.24)">
     <use xlink:href="#FontAwesome6Free-Solid-f005"/>
    </g>
   </g>
   <g id="text_19">
    <!--  -->
    <g style="fill: #232066" transform="translate(141.19322 89.084746)scale(0.24 -0.24)">
     <use xlink:href="#FontAwesome6Free-Solid-f005"/>
    </g>
   </g>
   <g id="text_20">
    <!--  -->
    <g style="fill: #232066" transform="translate(141.19322 44.420339)scale(0.24 -0.24)">
     <use xlink:href="#FontAwesome6Free-Solid-f005"/>
    </g>
   </g>
   <g id="text_21">
    <!--  -->
    <g style="fill: #232066" transform="translate(185.857627 223.077966)scale(0.24 -0.24)">
     <use xlink:href="#FontAwesome6Free-Solid-f005"/>
    </g>
   </g>
   <g id="text_22">
    <!--  -->
    <g style="fill: #232066" transform="translate(185.857627 178.413559)scale(0.24 -0.24)">
     <use xlink:href="#FontAwesome6Free-Solid-f005"/>
    </g>
   </g>
   <g id="text_23">
    <!--  -->
    <g style="fill: #232066" transform="translate(185.857627 133.749153)scale(0.24 -0.24)">
     <use xlink:href="#FontAwesome6Free-Solid-f005"/>
    </g>
   </g>
   <g id="text_24">
    <!--  -->
    <g style="fill: #232066" transform="translate(185.857627 89.084746)scale(0.24 -0.24)">
     <use xlink:href="#FontAwesome6Free-Solid-f005"/>
    </g>
   </g>
   <g id="text_25">
    <!--  -->
    <g style="fill: #232066" transform="translate(185.857627 44.420339)scale(0.24 -0.24)">
     <use xlink:href="#FontAwesome6Free-Solid-f005"/>
    </g>
   </g>
   <g id="text_26">
    <!--  -->
    <g style="fill: #232066" transform="translate(230.522034 223.077966)scale(0.24 -0.24)">
     <use xlink:href="#FontAwesome6Free-Solid-f005"/>
    </g>
   </g>
   <g id="text_27">
    <!--  -->
    <g style="fill: #232066" transform="translate(230.522034 178.413559)scale(0.24 -0.24)">
     <use xlink:href="#FontAwesome6Free-Solid-f005"/>
    </g>
   </g>
   <g id="text_28">
    <!--  -->
    <g style="fill: #232066" transform="translate(230.522034 133.749153)scale(0.24 -0.24)">
     <use xlink:href="#FontAwesome6Free-Solid-f005"/>
    </g>
   </g>
   <g id="text_29">
    <!--  -->
    <g style="fill: #232066" transform="translate(230.522034 89.084746)scale(0.24 -0.24)">
     <use xlink:href="#FontAwesome6Free-Solid-f005"/>
    </g>
   </g>
   <g id="text_30">
    <!--  -->
    <g style="fill: #232066" transform="translate(230.522034 44.420339)scale(0.24 -0.24)">
     <use xlink:href="#FontAwesome6Free-Solid-f005"/>
    </g>
   </g>
   <g id="text_31">
    <!--  -->
    <g style="fill: #983d3d" transform="translate(275.186441 223.077966)scale(0.24 -0.24)">
     <use xlink:href="#FontAwesome6Free-Solid-f005"/>
    </g>
   </g>
   <g id="text_32">
    <!--  -->
    <g style="fill: #983d3d" transform="translate(275.186441 178.413559)scale(0.24 -0.24)">
     <use xlink:href="#FontAwesome6Free-Solid-f005"/>
    </g>
   </g>
   <g id="text_33">
    <!--  -->
    <g style="fill: #983d3d" transform="translate(275.186441 133.749153)scale(0.24 -0.24)">
     <use xlink:href="#FontAwesome6Free-Solid-f005"/>
    </g>
   </g>
   <g id="text_34">
    <!--  -->
    <g style="fill: #983d3d" transform="translate(275.186441 89.084746)scale(0.24 -0.24)">
     <use xlink:href="#FontAwesome6Free-Solid-f005"/>
    </g>
   </g>
   <g id="text_35">
    <!--  -->
    <g style="fill: #983d3d" transform="translate(275.186441 44.420339)scale(0.24 -0.24)">
     <use xlink:href="#FontAwesome6Free-Solid-f005"/>
    </g>
   </g>
   <g id="text_36">
    <!--  -->
    <g style="fill: #983d3d" transform="translate(319.850847 223.077966)scale(0.24 -0.24)">
     <use xlink:href="#FontAwesome6Free-Solid-f005"/>
    </g>
   </g>
   <g id="text_37">
    <!--  -->
    <g style="fill: #983d3d" transform="translate(319.850847 178.413559)scale(0.24 -0.24)">
     <use xlink:href="#FontAwesome6Free-Solid-f005"/>
    </g>
   </g>
   <g id="text_38">
    <!--  -->
    <g style="fill: #983d3d" transform="translate(319.850847 133.749153)scale(0.24 -0.24)">
     <use xlink:href="#FontAwesome6Free-Solid-f005"/>
    </g>
   </g>
   <g id="text_39">
    <!--  -->
    <g style="fill: #983d3d" transform="translate(319.850847 89.084746)scale(0.24 -0.24)">
     <use xlink:href="#FontAwesome6Free-Solid-f005"/>
    </g>
   </g>
   <g id="text_40">
    <!--  -->
    <g style="fill: #983d3d" transform="translate(319.850847 44.420339)scale(0.24 -0.24)">
     <use xlink:href="#FontAwesome6Free-Solid-f005"/>
    </g>
   </g>
   <g id="text_41">
    <!--  -->
    <g style="fill: #983d3d" transform="translate(364.515254 223.077966)scale(0.24 -0.24)">
     <use xlink:href="#FontAwesome6Free-Solid-f005"/>
    </g>
   </g>
   <g id="text_42">
    <!--  -->
    <g style="fill: #983d3d" transform="translate(364.515254 178.413559)scale(0.24 -0.24)">
     <use xlink:href="#FontAwesome6Free-Solid-f005"/>
    </g>
   </g>
   <g id="text_43">
    <!--  -->
    <g style="fill: #983d3d" transform="translate(364.515254 133.749153)scale(0.24 -0.24)">
     <use xlink:href="#FontAwesome6Free-Solid-f005"/>
    </g>
   </g>
   <g id="text_44">
    <!--  -->
    <g style="fill: #983d3d" transform="translate(364.515254 89.084746)scale(0.24 -0.24)">
     <use xlink:href="#FontAwesome6Free-Solid-f005"/>
    </g>
   </g>
   <g id="text_45">
    <!--  -->
    <g style="fill: #983d3d" transform="translate(364.515254 44.420339)scale(0.24 -0.24)">
     <use xlink:href="#FontAwesome6Free-Solid-f005"/>
    </g>
   </g>
   <g id="text_46">
    <!--  -->
    <g style="fill: #983d3d" transform="translate(409.179661 223.077966)scale(0.24 -0.24)">
     <use xlink:href="#FontAwesome6Free-Solid-f005"/>
    </g>
   </g>
   <g id="text_47">
    <!--  -->
    <g style="fill: #dcb732" transform="translate(409.179661 178.413559)scale(0.24 -0.24)">
     <use xlink:href="#FontAwesome6Free-Solid-f005"/>
    </g>
   </g>
   <g id="text_48">
    <!--  -->
    <g style="fill: #dcb732" transform="translate(409.179661 133.749153)scale(0.24 -0.24)">
     <use xlink:href="#FontAwesome6Free-Solid-f005"/>
    </g>
   </g>
   <g id="text_49">
    <!--  -->
    <g style="fill: #dcb732" transform="translate(409.179661 89.084746)scale(0.24 -0.24)">
     <use xlink:href="#FontAwesome6Free-Solid-f005"/>
    </g>
   </g>
   <g id="text_50">
    <!--  -->
    <g style="fill: #dcb732" transform="translate(409.179661 44.420339)scale(0.24 -0.24)">
     <use xlink:href="#FontAwesome6Free-Solid-f005"/>
    </g>
   </g>
  </g>
 </g>
</svg>
