<?xml version="1.0" encoding="utf-8" standalone="no"?>
<!DOCTYPE svg PUBLIC "-//W3C//DTD SVG 1.1//EN"
  "http://www.w3.org/Graphics/SVG/1.1/DTD/svg11.dtd">
<svg height="194.877516pt" version="1.1" viewBox="0 0 453.6 194.877516" width="453.6pt" xmlns="http://www.w3.org/2000/svg" xmlns:xlink="http://www.w3.org/1999/xlink">
 <metadata>
  <rdf:RDF xmlns:cc="http://creativecommons.org/ns#" xmlns:dc="http://purl.org/dc/elements/1.1/" xmlns:rdf="http://www.w3.org/1999/02/22-rdf-syntax-ns#">
   <cc:Work>
    <dc:type rdf:resource="http://purl.org/dc/dcmitype/StillImage"/>
    <dc:date>2021-07-27T21:08:50.962332</dc:date>
    <dc:format>image/svg+xml</dc:format>
    <dc:creator>
     <cc:Agent>
      <dc:title>Matplotlib v3.4.2, https://matplotlib.org/</dc:title>
     </cc:Agent>
    </dc:creator>
   </cc:Work>
  </rdf:RDF>
 </metadata>
 <defs>
  <style type="text/css">*{stroke-linecap:butt;stroke-linejoin:round;}</style>
 </defs>
 <g id="figure_1">
  <g id="patch_1">
   <path d="M 0 194.877516 
L 453.6 194.877516 
L 453.6 0 
L 0 0 
z
" style="fill:#ffffff;"/>
  </g>
  <g id="axes_1">
   <g id="text_1">
    <!--  -->
    <g style="fill:#ffa500;" transform="translate(7.2 185.177516)scale(0.2 -0.2)">
     <defs>
      <path d="M 6175 2825 
L 5425 3325 
L 5600 4213 
C 5625 4375 5575 4550 5463 4675 
C 5338 4788 5163 4838 5000 4813 
L 4113 4638 
L 3613 5388 
C 3425 5663 2963 5663 2775 5388 
L 2275 4638 
L 1388 4813 
C 1225 4838 1050 4788 938 4663 
C 813 4550 763 4375 788 4213 
L 963 3325 
L 213 2825 
C 75 2725 0 2575 0 2400 
C 0 2238 75 2075 213 1988 
L 963 1475 
L 788 588 
C 763 425 813 250 938 138 
C 1050 13 1213 -38 1388 0 
L 2275 163 
L 2775 -588 
C 2875 -725 3025 -800 3200 -800 
C 3363 -800 3525 -725 3613 -588 
L 4113 163 
L 5000 0 
C 5175 -38 5338 13 5463 138 
C 5575 250 5625 425 5600 588 
L 5425 1475 
L 6175 1975 
C 6313 2075 6400 2238 6400 2400 
C 6400 2575 6313 2725 6175 2825 
z
M 4763 1750 
L 4975 613 
L 3838 825 
L 3200 -125 
L 2550 838 
L 1413 613 
L 1625 1750 
L 675 2400 
L 1625 3050 
L 1413 4188 
L 2550 3975 
L 3200 4938 
L 3838 3975 
L 4975 4188 
L 4763 3050 
L 5725 2400 
L 4763 1750 
z
M 3200 3700 
C 2475 3700 1900 3113 1900 2400 
C 1900 1675 2475 1100 3200 1100 
C 3913 1100 4500 1675 4500 2400 
C 4500 3113 3913 3700 3200 3700 
z
M 3200 1700 
C 2813 1700 2500 2013 2500 2400 
C 2500 2775 2813 3100 3200 3100 
C 3575 3100 3900 2775 3900 2400 
C 3900 2013 3575 1700 3200 1700 
z
" id="FontAwesome5Free-Regular-f185" transform="scale(0.015625)"/>
     </defs>
     <use xlink:href="#FontAwesome5Free-Regular-f185"/>
    </g>
   </g>
   <g id="text_2">
    <!--  -->
    <g style="fill:#ffa500;" transform="translate(7.2 148.354582)scale(0.2 -0.2)">
     <use xlink:href="#FontAwesome5Free-Regular-f185"/>
    </g>
   </g>
   <g id="text_3">
    <!--  -->
    <g style="fill:#ffa500;" transform="translate(7.2 111.531647)scale(0.2 -0.2)">
     <use xlink:href="#FontAwesome5Free-Regular-f185"/>
    </g>
   </g>
   <g id="text_4">
    <!--  -->
    <g style="fill:#ffa500;" transform="translate(7.2 74.708713)scale(0.2 -0.2)">
     <use xlink:href="#FontAwesome5Free-Regular-f185"/>
    </g>
   </g>
   <g id="text_5">
    <!--  -->
    <g style="fill:#ffa500;" transform="translate(7.2 37.885779)scale(0.2 -0.2)">
     <use xlink:href="#FontAwesome5Free-Regular-f185"/>
    </g>
   </g>
   <g id="text_6">
    <!--  -->
    <g style="fill:#ffa500;" transform="translate(44.022934 185.177516)scale(0.2 -0.2)">
     <use xlink:href="#FontAwesome5Free-Regular-f185"/>
    </g>
   </g>
   <g id="text_7">
    <!--  -->
    <g style="fill:#ffa500;" transform="translate(44.022934 148.354582)scale(0.2 -0.2)">
     <use xlink:href="#FontAwesome5Free-Regular-f185"/>
    </g>
   </g>
   <g id="text_8">
    <!--  -->
    <g style="fill:#ffa500;" transform="translate(44.022934 111.531647)scale(0.2 -0.2)">
     <use xlink:href="#FontAwesome5Free-Regular-f185"/>
    </g>
   </g>
   <g id="text_9">
    <!--  -->
    <g style="fill:#ffa500;" transform="translate(44.022934 74.708713)scale(0.2 -0.2)">
     <use xlink:href="#FontAwesome5Free-Regular-f185"/>
    </g>
   </g>
   <g id="text_10">
    <!--  -->
    <g style="fill:#ffa500;" transform="translate(44.022934 37.885779)scale(0.2 -0.2)">
     <use xlink:href="#FontAwesome5Free-Regular-f185"/>
    </g>
   </g>
   <g id="text_11">
    <!--  -->
    <g style="fill:#ffa500;" transform="translate(80.845869 185.177516)scale(0.2 -0.2)">
     <use xlink:href="#FontAwesome5Free-Regular-f185"/>
    </g>
   </g>
   <g id="text_12">
    <!--  -->
    <g style="fill:#ffa500;" transform="translate(80.845869 148.354582)scale(0.2 -0.2)">
     <use xlink:href="#FontAwesome5Free-Regular-f185"/>
    </g>
   </g>
   <g id="text_13">
    <!--  -->
    <g style="fill:#ffa500;" transform="translate(80.845869 111.531647)scale(0.2 -0.2)">
     <use xlink:href="#FontAwesome5Free-Regular-f185"/>
    </g>
   </g>
   <g id="text_14">
    <!--  -->
    <g style="fill:#ffa500;" transform="translate(80.845869 74.708713)scale(0.2 -0.2)">
     <use xlink:href="#FontAwesome5Free-Regular-f185"/>
    </g>
   </g>
   <g id="text_15">
    <!--  -->
    <g style="fill:#ffa500;" transform="translate(80.845869 37.885779)scale(0.2 -0.2)">
     <use xlink:href="#FontAwesome5Free-Regular-f185"/>
    </g>
   </g>
   <g id="text_16">
    <!--  -->
    <g style="fill:#ffa500;" transform="translate(117.668803 185.177516)scale(0.2 -0.2)">
     <use xlink:href="#FontAwesome5Free-Regular-f185"/>
    </g>
   </g>
   <g id="text_17">
    <!--  -->
    <g style="fill:#ffa500;" transform="translate(117.668803 148.354582)scale(0.2 -0.2)">
     <use xlink:href="#FontAwesome5Free-Regular-f185"/>
    </g>
   </g>
   <g id="text_18">
    <!--  -->
    <g style="fill:#ffa500;" transform="translate(117.668803 111.531647)scale(0.2 -0.2)">
     <use xlink:href="#FontAwesome5Free-Regular-f185"/>
    </g>
   </g>
   <g id="text_19">
    <!--  -->
    <g style="fill:#ffa500;" transform="translate(117.668803 74.708713)scale(0.2 -0.2)">
     <use xlink:href="#FontAwesome5Free-Regular-f185"/>
    </g>
   </g>
   <g id="text_20">
    <!--  -->
    <g style="fill:#ffa500;" transform="translate(117.668803 37.885779)scale(0.2 -0.2)">
     <use xlink:href="#FontAwesome5Free-Regular-f185"/>
    </g>
   </g>
   <g id="text_21">
    <!--  -->
    <g style="fill:#ffa500;" transform="translate(154.491737 185.177516)scale(0.2 -0.2)">
     <use xlink:href="#FontAwesome5Free-Regular-f185"/>
    </g>
   </g>
   <g id="text_22">
    <!--  -->
    <g style="fill:#ffa500;" transform="translate(154.491737 148.354582)scale(0.2 -0.2)">
     <use xlink:href="#FontAwesome5Free-Regular-f185"/>
    </g>
   </g>
   <g id="text_23">
    <!--  -->
    <g style="fill:#ffa500;" transform="translate(154.491737 111.531647)scale(0.2 -0.2)">
     <use xlink:href="#FontAwesome5Free-Regular-f185"/>
    </g>
   </g>
   <g id="text_24">
    <!--  -->
    <g style="fill:#ffa500;" transform="translate(154.491737 74.708713)scale(0.2 -0.2)">
     <use xlink:href="#FontAwesome5Free-Regular-f185"/>
    </g>
   </g>
   <g id="text_25">
    <!--  -->
    <g style="fill:#ffa500;" transform="translate(154.491737 37.885779)scale(0.2 -0.2)">
     <use xlink:href="#FontAwesome5Free-Regular-f185"/>
    </g>
   </g>
   <g id="text_26">
    <!--  -->
    <g style="fill:#ffa500;" transform="translate(191.314672 185.177516)scale(0.2 -0.2)">
     <use xlink:href="#FontAwesome5Free-Regular-f185"/>
    </g>
   </g>
   <g id="text_27">
    <!--  -->
    <g style="fill:#ffa500;" transform="translate(191.314672 148.354582)scale(0.2 -0.2)">
     <use xlink:href="#FontAwesome5Free-Regular-f185"/>
    </g>
   </g>
   <g id="text_28">
    <!--  -->
    <g style="fill:#ffa500;" transform="translate(191.314672 111.531647)scale(0.2 -0.2)">
     <use xlink:href="#FontAwesome5Free-Regular-f185"/>
    </g>
   </g>
   <g id="text_29">
    <!--  -->
    <g style="fill:#ffa500;" transform="translate(191.314672 74.708713)scale(0.2 -0.2)">
     <use xlink:href="#FontAwesome5Free-Regular-f185"/>
    </g>
   </g>
   <g id="text_30">
    <!--  -->
    <g style="fill:#ffa500;" transform="translate(191.314672 37.885779)scale(0.2 -0.2)">
     <use xlink:href="#FontAwesome5Free-Regular-f185"/>
    </g>
   </g>
   <g id="text_31">
    <!--  -->
    <g style="fill:#4384ff;" transform="translate(228.137606 185.177516)scale(0.2 -0.2)">
     <defs>
      <path d="M 2288 963 
C 2200 1025 2075 988 2025 888 
L 1225 -513 
C 1163 -600 1200 -725 1300 -775 
C 1325 -800 1363 -800 1400 -800 
C 1463 -800 1525 -775 1563 -700 
L 2363 700 
C 2425 788 2388 913 2288 963 
z
M 3488 963 
C 3400 1025 3275 988 3225 888 
L 2425 -513 
C 2363 -600 2400 -725 2500 -775 
C 2525 -800 2563 -800 2600 -800 
C 2663 -800 2725 -775 2763 -700 
L 3563 700 
C 3625 788 3588 913 3488 963 
z
M 1088 963 
C 1000 1025 875 988 825 888 
L 25 -513 
C -38 -600 0 -725 100 -775 
C 125 -800 163 -800 200 -800 
C 263 -800 325 -775 363 -700 
L 1163 700 
C 1225 788 1188 913 1088 963 
z
M 5888 963 
C 5800 1025 5675 988 5625 888 
L 4825 -513 
C 4763 -600 4800 -725 4900 -775 
C 4925 -800 4963 -800 5000 -800 
C 5063 -800 5125 -775 5163 -700 
L 5963 700 
C 6025 788 5988 913 5888 963 
z
M 4688 963 
C 4600 1025 4475 988 4425 888 
L 3625 -513 
C 3563 -600 3600 -725 3700 -775 
C 3725 -800 3763 -800 3800 -800 
C 3863 -800 3925 -775 3963 -700 
L 4763 700 
C 4825 788 4788 913 4688 963 
z
M 5200 4000 
C 5188 4000 5175 3988 5175 3988 
C 5188 4063 5200 4125 5200 4200 
C 5200 4750 4750 5200 4200 5200 
C 3888 5200 3613 5050 3438 4838 
C 3200 5288 2738 5600 2200 5600 
C 1425 5600 800 4963 800 4200 
C 800 4100 800 4013 825 3925 
C 338 3775 0 3325 0 2800 
C 0 2138 538 1600 1200 1600 
L 5200 1600 
C 5863 1600 6400 2138 6400 2800 
C 6400 3463 5863 4000 5200 4000 
z
" id="FontAwesome5Free-Solid-f740" transform="scale(0.015625)"/>
     </defs>
     <use xlink:href="#FontAwesome5Free-Solid-f740"/>
    </g>
   </g>
   <g id="text_32">
    <!--  -->
    <g style="fill:#4384ff;" transform="translate(228.137606 148.354582)scale(0.2 -0.2)">
     <use xlink:href="#FontAwesome5Free-Solid-f740"/>
    </g>
   </g>
   <g id="text_33">
    <!--  -->
    <g style="fill:#4384ff;" transform="translate(228.137606 111.531647)scale(0.2 -0.2)">
     <use xlink:href="#FontAwesome5Free-Solid-f740"/>
    </g>
   </g>
   <g id="text_34">
    <!--  -->
    <g style="fill:#4384ff;" transform="translate(228.137606 74.708713)scale(0.2 -0.2)">
     <use xlink:href="#FontAwesome5Free-Solid-f740"/>
    </g>
   </g>
   <g id="text_35">
    <!--  -->
    <g style="fill:#4384ff;" transform="translate(228.137606 37.885779)scale(0.2 -0.2)">
     <use xlink:href="#FontAwesome5Free-Solid-f740"/>
    </g>
   </g>
   <g id="text_36">
    <!--  -->
    <g style="fill:#4384ff;" transform="translate(264.96054 185.177516)scale(0.2 -0.2)">
     <use xlink:href="#FontAwesome5Free-Solid-f740"/>
    </g>
   </g>
   <g id="text_37">
    <!--  -->
    <g style="fill:#4384ff;" transform="translate(264.96054 148.354582)scale(0.2 -0.2)">
     <use xlink:href="#FontAwesome5Free-Solid-f740"/>
    </g>
   </g>
   <g id="text_38">
    <!--  -->
    <g style="fill:#4384ff;" transform="translate(264.96054 111.531647)scale(0.2 -0.2)">
     <use xlink:href="#FontAwesome5Free-Solid-f740"/>
    </g>
   </g>
   <g id="text_39">
    <!--  -->
    <g style="fill:#4384ff;" transform="translate(264.96054 74.708713)scale(0.2 -0.2)">
     <use xlink:href="#FontAwesome5Free-Solid-f740"/>
    </g>
   </g>
   <g id="text_40">
    <!--  -->
    <g style="fill:#4384ff;" transform="translate(264.96054 37.885779)scale(0.2 -0.2)">
     <use xlink:href="#FontAwesome5Free-Solid-f740"/>
    </g>
   </g>
   <g id="text_41">
    <!--  -->
    <g style="fill:#4384ff;" transform="translate(301.783475 185.177516)scale(0.2 -0.2)">
     <use xlink:href="#FontAwesome5Free-Solid-f740"/>
    </g>
   </g>
   <g id="text_42">
    <!--  -->
    <g style="fill:#4384ff;" transform="translate(301.783475 148.354582)scale(0.2 -0.2)">
     <use xlink:href="#FontAwesome5Free-Solid-f740"/>
    </g>
   </g>
   <g id="text_43">
    <!--  -->
    <g style="fill:#4384ff;" transform="translate(301.783475 111.531647)scale(0.2 -0.2)">
     <use xlink:href="#FontAwesome5Free-Solid-f740"/>
    </g>
   </g>
   <g id="text_44">
    <!--  -->
    <g style="fill:#4384ff;" transform="translate(301.783475 74.708713)scale(0.2 -0.2)">
     <use xlink:href="#FontAwesome5Free-Solid-f740"/>
    </g>
   </g>
   <g id="text_45">
    <!--  -->
    <g style="fill:#4384ff;" transform="translate(301.783475 37.885779)scale(0.2 -0.2)">
     <use xlink:href="#FontAwesome5Free-Solid-f740"/>
    </g>
   </g>
   <g id="text_46">
    <!--  -->
    <g style="fill:#4384ff;" transform="translate(338.606409 185.177516)scale(0.2 -0.2)">
     <use xlink:href="#FontAwesome5Free-Solid-f740"/>
    </g>
   </g>
   <g id="text_47">
    <!--  -->
    <g style="fill:#c0c0c0;" transform="translate(338.606409 148.354582)scale(0.2 -0.2)">
     <defs>
      <path d="M 5550 1100 
L 5550 4113 
C 5550 4200 5463 4275 5363 4275 
C 5225 4275 4688 3925 4200 3925 
C 3838 3925 3438 4275 2613 4275 
C 1913 4275 1238 3938 1188 3913 
L 1188 4313 
C 1363 4438 1463 4650 1463 4875 
C 1463 5275 1150 5600 750 5600 
C 350 5600 38 5275 38 4875 
C 38 4650 150 4438 313 4313 
L 313 -375 
C 313 -613 500 -800 750 -800 
C 975 -800 1175 -638 1175 -375 
L 1175 600 
C 1200 613 1225 613 1250 625 
C 1675 825 2200 1000 2700 1000 
C 3388 1000 3650 638 4225 638 
C 4638 638 5025 775 5388 938 
C 5475 975 5550 1013 5550 1100 
z
" id="FontAwesome5Brands-Regular-f425" transform="scale(0.015625)"/>
     </defs>
     <use xlink:href="#FontAwesome5Brands-Regular-f425"/>
    </g>
   </g>
   <g id="text_48">
    <!--  -->
    <g style="fill:#c0c0c0;" transform="translate(338.606409 111.531647)scale(0.2 -0.2)">
     <use xlink:href="#FontAwesome5Brands-Regular-f425"/>
    </g>
   </g>
   <g id="text_49">
    <!--  -->
    <g style="fill:#c0c0c0;" transform="translate(338.606409 74.708713)scale(0.2 -0.2)">
     <use xlink:href="#FontAwesome5Brands-Regular-f425"/>
    </g>
   </g>
   <g id="text_50">
    <!--  -->
    <g style="fill:#c0c0c0;" transform="translate(338.606409 37.885779)scale(0.2 -0.2)">
     <use xlink:href="#FontAwesome5Brands-Regular-f425"/>
    </g>
   </g>
   <g id="legend_1">
    <g id="patch_2">
     <path d="M 376.292187 59.234375 
L 444.4 59.234375 
Q 446.4 59.234375 446.4 57.234375 
L 446.4 14.2 
Q 446.4 12.2 444.4 12.2 
L 376.292187 12.2 
Q 374.292187 12.2 374.292187 14.2 
L 374.292187 57.234375 
Q 374.292187 59.234375 376.292187 59.234375 
z
" style="fill:#ffffff;opacity:0.8;stroke:#cccccc;stroke-linejoin:miter;"/>
    </g>
    <g id="text_51">
     <!--  -->
     <g style="fill:#ffa500;" transform="translate(383.292187 24.097656)scale(0.1 -0.1)">
      <use xlink:href="#FontAwesome5Free-Regular-f185"/>
     </g>
    </g>
    <g id="text_52">
     <!-- sun -->
     <g transform="translate(406.292187 23.798438)scale(0.1 -0.1)">
      <defs>
       <path d="M 2834 3397 
L 2834 2853 
Q 2591 2978 2328 3040 
Q 2066 3103 1784 3103 
Q 1356 3103 1142 2972 
Q 928 2841 928 2578 
Q 928 2378 1081 2264 
Q 1234 2150 1697 2047 
L 1894 2003 
Q 2506 1872 2764 1633 
Q 3022 1394 3022 966 
Q 3022 478 2636 193 
Q 2250 -91 1575 -91 
Q 1294 -91 989 -36 
Q 684 19 347 128 
L 347 722 
Q 666 556 975 473 
Q 1284 391 1588 391 
Q 1994 391 2212 530 
Q 2431 669 2431 922 
Q 2431 1156 2273 1281 
Q 2116 1406 1581 1522 
L 1381 1569 
Q 847 1681 609 1914 
Q 372 2147 372 2553 
Q 372 3047 722 3315 
Q 1072 3584 1716 3584 
Q 2034 3584 2315 3537 
Q 2597 3491 2834 3397 
z
" id="DejaVuSans-73" transform="scale(0.015625)"/>
       <path d="M 544 1381 
L 544 3500 
L 1119 3500 
L 1119 1403 
Q 1119 906 1312 657 
Q 1506 409 1894 409 
Q 2359 409 2629 706 
Q 2900 1003 2900 1516 
L 2900 3500 
L 3475 3500 
L 3475 0 
L 2900 0 
L 2900 538 
Q 2691 219 2414 64 
Q 2138 -91 1772 -91 
Q 1169 -91 856 284 
Q 544 659 544 1381 
z
M 1991 3584 
L 1991 3584 
z
" id="DejaVuSans-75" transform="scale(0.015625)"/>
       <path d="M 3513 2113 
L 3513 0 
L 2938 0 
L 2938 2094 
Q 2938 2591 2744 2837 
Q 2550 3084 2163 3084 
Q 1697 3084 1428 2787 
Q 1159 2491 1159 1978 
L 1159 0 
L 581 0 
L 581 3500 
L 1159 3500 
L 1159 2956 
Q 1366 3272 1645 3428 
Q 1925 3584 2291 3584 
Q 2894 3584 3203 3211 
Q 3513 2838 3513 2113 
z
" id="DejaVuSans-6e" transform="scale(0.015625)"/>
      </defs>
      <use xlink:href="#DejaVuSans-73"/>
      <use x="52.099609" xlink:href="#DejaVuSans-75"/>
      <use x="115.478516" xlink:href="#DejaVuSans-6e"/>
     </g>
    </g>
    <g id="text_53">
     <!--  -->
     <g style="fill:#4384ff;" transform="translate(383.292187 38.726562)scale(0.1 -0.1)">
      <use xlink:href="#FontAwesome5Free-Solid-f740"/>
     </g>
    </g>
    <g id="text_54">
     <!-- shower -->
     <g transform="translate(406.292187 38.476562)scale(0.1 -0.1)">
      <defs>
       <path d="M 3513 2113 
L 3513 0 
L 2938 0 
L 2938 2094 
Q 2938 2591 2744 2837 
Q 2550 3084 2163 3084 
Q 1697 3084 1428 2787 
Q 1159 2491 1159 1978 
L 1159 0 
L 581 0 
L 581 4863 
L 1159 4863 
L 1159 2956 
Q 1366 3272 1645 3428 
Q 1925 3584 2291 3584 
Q 2894 3584 3203 3211 
Q 3513 2838 3513 2113 
z
" id="DejaVuSans-68" transform="scale(0.015625)"/>
       <path d="M 1959 3097 
Q 1497 3097 1228 2736 
Q 959 2375 959 1747 
Q 959 1119 1226 758 
Q 1494 397 1959 397 
Q 2419 397 2687 759 
Q 2956 1122 2956 1747 
Q 2956 2369 2687 2733 
Q 2419 3097 1959 3097 
z
M 1959 3584 
Q 2709 3584 3137 3096 
Q 3566 2609 3566 1747 
Q 3566 888 3137 398 
Q 2709 -91 1959 -91 
Q 1206 -91 779 398 
Q 353 888 353 1747 
Q 353 2609 779 3096 
Q 1206 3584 1959 3584 
z
" id="DejaVuSans-6f" transform="scale(0.015625)"/>
       <path d="M 269 3500 
L 844 3500 
L 1563 769 
L 2278 3500 
L 2956 3500 
L 3675 769 
L 4391 3500 
L 4966 3500 
L 4050 0 
L 3372 0 
L 2619 2869 
L 1863 0 
L 1184 0 
L 269 3500 
z
" id="DejaVuSans-77" transform="scale(0.015625)"/>
       <path d="M 3597 1894 
L 3597 1613 
L 953 1613 
Q 991 1019 1311 708 
Q 1631 397 2203 397 
Q 2534 397 2845 478 
Q 3156 559 3463 722 
L 3463 178 
Q 3153 47 2828 -22 
Q 2503 -91 2169 -91 
Q 1331 -91 842 396 
Q 353 884 353 1716 
Q 353 2575 817 3079 
Q 1281 3584 2069 3584 
Q 2775 3584 3186 3129 
Q 3597 2675 3597 1894 
z
M 3022 2063 
Q 3016 2534 2758 2815 
Q 2500 3097 2075 3097 
Q 1594 3097 1305 2825 
Q 1016 2553 972 2059 
L 3022 2063 
z
" id="DejaVuSans-65" transform="scale(0.015625)"/>
       <path d="M 2631 2963 
Q 2534 3019 2420 3045 
Q 2306 3072 2169 3072 
Q 1681 3072 1420 2755 
Q 1159 2438 1159 1844 
L 1159 0 
L 581 0 
L 581 3500 
L 1159 3500 
L 1159 2956 
Q 1341 3275 1631 3429 
Q 1922 3584 2338 3584 
Q 2397 3584 2469 3576 
Q 2541 3569 2628 3553 
L 2631 2963 
z
" id="DejaVuSans-72" transform="scale(0.015625)"/>
      </defs>
      <use xlink:href="#DejaVuSans-73"/>
      <use x="52.099609" xlink:href="#DejaVuSans-68"/>
      <use x="115.478516" xlink:href="#DejaVuSans-6f"/>
      <use x="176.660156" xlink:href="#DejaVuSans-77"/>
      <use x="258.447266" xlink:href="#DejaVuSans-65"/>
      <use x="319.970703" xlink:href="#DejaVuSans-72"/>
     </g>
    </g>
    <g id="text_55">
     <!--  -->
     <g style="fill:#c0c0c0;" transform="translate(383.917187 53.404688)scale(0.1 -0.1)">
      <use xlink:href="#FontAwesome5Brands-Regular-f425"/>
     </g>
    </g>
    <g id="text_56">
     <!-- flag -->
     <g transform="translate(406.292187 53.154688)scale(0.1 -0.1)">
      <defs>
       <path d="M 2375 4863 
L 2375 4384 
L 1825 4384 
Q 1516 4384 1395 4259 
Q 1275 4134 1275 3809 
L 1275 3500 
L 2222 3500 
L 2222 3053 
L 1275 3053 
L 1275 0 
L 697 0 
L 697 3053 
L 147 3053 
L 147 3500 
L 697 3500 
L 697 3744 
Q 697 4328 969 4595 
Q 1241 4863 1831 4863 
L 2375 4863 
z
" id="DejaVuSans-66" transform="scale(0.015625)"/>
       <path d="M 603 4863 
L 1178 4863 
L 1178 0 
L 603 0 
L 603 4863 
z
" id="DejaVuSans-6c" transform="scale(0.015625)"/>
       <path d="M 2194 1759 
Q 1497 1759 1228 1600 
Q 959 1441 959 1056 
Q 959 750 1161 570 
Q 1363 391 1709 391 
Q 2188 391 2477 730 
Q 2766 1069 2766 1631 
L 2766 1759 
L 2194 1759 
z
M 3341 1997 
L 3341 0 
L 2766 0 
L 2766 531 
Q 2569 213 2275 61 
Q 1981 -91 1556 -91 
Q 1019 -91 701 211 
Q 384 513 384 1019 
Q 384 1609 779 1909 
Q 1175 2209 1959 2209 
L 2766 2209 
L 2766 2266 
Q 2766 2663 2505 2880 
Q 2244 3097 1772 3097 
Q 1472 3097 1187 3025 
Q 903 2953 641 2809 
L 641 3341 
Q 956 3463 1253 3523 
Q 1550 3584 1831 3584 
Q 2591 3584 2966 3190 
Q 3341 2797 3341 1997 
z
" id="DejaVuSans-61" transform="scale(0.015625)"/>
       <path d="M 2906 1791 
Q 2906 2416 2648 2759 
Q 2391 3103 1925 3103 
Q 1463 3103 1205 2759 
Q 947 2416 947 1791 
Q 947 1169 1205 825 
Q 1463 481 1925 481 
Q 2391 481 2648 825 
Q 2906 1169 2906 1791 
z
M 3481 434 
Q 3481 -459 3084 -895 
Q 2688 -1331 1869 -1331 
Q 1566 -1331 1297 -1286 
Q 1028 -1241 775 -1147 
L 775 -588 
Q 1028 -725 1275 -790 
Q 1522 -856 1778 -856 
Q 2344 -856 2625 -561 
Q 2906 -266 2906 331 
L 2906 616 
Q 2728 306 2450 153 
Q 2172 0 1784 0 
Q 1141 0 747 490 
Q 353 981 353 1791 
Q 353 2603 747 3093 
Q 1141 3584 1784 3584 
Q 2172 3584 2450 3431 
Q 2728 3278 2906 2969 
L 2906 3500 
L 3481 3500 
L 3481 434 
z
" id="DejaVuSans-67" transform="scale(0.015625)"/>
      </defs>
      <use xlink:href="#DejaVuSans-66"/>
      <use x="35.205078" xlink:href="#DejaVuSans-6c"/>
      <use x="62.988281" xlink:href="#DejaVuSans-61"/>
      <use x="124.267578" xlink:href="#DejaVuSans-67"/>
     </g>
    </g>
   </g>
  </g>
 </g>
</svg>
