<?xml version="1.0" encoding="utf-8" standalone="no"?>
<!DOCTYPE svg PUBLIC "-//W3C//DTD SVG 1.1//EN"
  "http://www.w3.org/Graphics/SVG/1.1/DTD/svg11.dtd">
<!-- Created with matplotlib (https://matplotlib.org/) -->
<svg height="104.140953pt" version="1.1" viewBox="0 0 453.6 104.140953" width="453.6pt" xmlns="http://www.w3.org/2000/svg" xmlns:xlink="http://www.w3.org/1999/xlink">
 <defs>
  <style type="text/css">
*{stroke-linecap:butt;stroke-linejoin:round;}
  </style>
 </defs>
 <g id="figure_1">
  <g id="patch_1">
   <path d="M 0 104.140953 
L 453.6 104.140953 
L 453.6 0 
L 0 0 
z
" style="fill:#ffffff;"/>
  </g>
  <g id="axes_1">
   <g id="text_1">
    <!--  -->
    <defs>
     <path d="M 50 56.25 
C 55.078125 56.25 59.578125 54.296875 63.28125 50.78125 
C 66.796875 47.078125 68.75 42.578125 68.75 37.5 
C 68.75 32.234375 66.796875 27.734375 63.28125 24.21875 
C 59.578125 20.515625 55.078125 18.75 50 18.75 
C 44.734375 18.75 40.234375 20.515625 36.71875 24.21875 
C 33.015625 27.734375 31.25 32.234375 31.25 37.5 
C 31.25 42.578125 33.015625 47.078125 36.71875 50.78125 
C 40.234375 54.296875 44.734375 56.25 50 56.25 
z
M 98.046875 40.625 
L 98.046875 40.4375 
C 99.21875 39.84375 100 38.875 100 37.5 
C 100 35.9375 99.21875 34.96875 98.046875 34.375 
L 79.6875 25.203125 
L 86.140625 5.671875 
C 86.53125 4.296875 86.140625 3.125 85.15625 2.15625 
C 84.1875 0.984375 83.015625 0.78125 81.84375 1.375 
L 62.3125 7.8125 
L 52.9375 -10.546875 
C 52.34375 -11.921875 51.375 -12.5 50 -12.5 
C 48.4375 -12.5 47.46875 -11.921875 46.875 -10.546875 
L 37.703125 7.8125 
L 18.171875 1.375 
C 16.796875 0.78125 15.625 0.984375 14.65625 1.953125 
C 13.484375 2.9375 13.28125 4.109375 13.875 5.671875 
L 20.3125 25.203125 
L 1.953125 34.375 
C 0.59375 34.96875 0 35.9375 0 37.5 
C 0 38.875 0.59375 39.84375 1.953125 40.625 
L 20.3125 49.8125 
L 13.875 69.34375 
C 13.28125 70.515625 13.484375 71.6875 14.65625 72.859375 
C 15.625 73.828125 16.796875 74.03125 18.171875 73.640625 
L 37.703125 67.1875 
L 46.875 85.546875 
C 47.46875 86.71875 48.4375 87.5 50 87.5 
C 51.375 87.5 52.34375 86.71875 53.125 85.546875 
L 62.3125 67.1875 
L 81.84375 73.640625 
C 83.015625 74.03125 84.1875 73.828125 85.359375 72.859375 
C 86.328125 71.6875 86.53125 70.515625 86.140625 69.34375 
L 79.6875 49.8125 
z
M 67.78125 19.921875 
L 67.78125 19.734375 
C 70.90625 22.859375 72.859375 26.765625 74.03125 31.0625 
C 75.203125 35.359375 75.203125 39.65625 74.03125 43.953125 
C 72.859375 48.25 70.703125 51.953125 67.578125 55.078125 
C 64.453125 58.203125 60.75 60.359375 56.453125 61.53125 
C 52.15625 62.703125 47.859375 62.703125 43.5625 61.53125 
C 39.265625 60.359375 35.359375 58.203125 32.234375 55.078125 
C 29.109375 51.953125 26.953125 48.25 25.78125 43.953125 
C 24.609375 39.65625 24.609375 35.359375 25.78125 31.0625 
C 26.953125 26.765625 29.109375 22.859375 32.234375 19.734375 
C 35.359375 16.609375 39.265625 14.453125 43.5625 13.28125 
C 47.859375 12.109375 52.15625 12.109375 56.453125 13.28125 
C 60.75 14.453125 64.453125 16.609375 67.78125 19.921875 
z
" id="FontAwesome5FreeSolid-61829"/>
    </defs>
    <g style="fill:#ffa500;" transform="translate(7.2 95.440953)scale(0.12 -0.12)">
     <use xlink:href="#FontAwesome5FreeSolid-61829"/>
    </g>
   </g>
   <g id="text_2">
    <!--  -->
    <g style="fill:#ffa500;" transform="translate(7.2 77.184204)scale(0.12 -0.12)">
     <use xlink:href="#FontAwesome5FreeSolid-61829"/>
    </g>
   </g>
   <g id="text_3">
    <!--  -->
    <g style="fill:#ffa500;" transform="translate(7.2 58.927455)scale(0.12 -0.12)">
     <use xlink:href="#FontAwesome5FreeSolid-61829"/>
    </g>
   </g>
   <g id="text_4">
    <!--  -->
    <g style="fill:#ffa500;" transform="translate(7.2 40.670706)scale(0.12 -0.12)">
     <use xlink:href="#FontAwesome5FreeSolid-61829"/>
    </g>
   </g>
   <g id="text_5">
    <!--  -->
    <g style="fill:#ffa500;" transform="translate(7.2 22.413957)scale(0.12 -0.12)">
     <use xlink:href="#FontAwesome5FreeSolid-61829"/>
    </g>
   </g>
   <g id="text_6">
    <!--  -->
    <g style="fill:#ffa500;" transform="translate(25.456749 95.440953)scale(0.12 -0.12)">
     <use xlink:href="#FontAwesome5FreeSolid-61829"/>
    </g>
   </g>
   <g id="text_7">
    <!--  -->
    <g style="fill:#ffa500;" transform="translate(25.456749 77.184204)scale(0.12 -0.12)">
     <use xlink:href="#FontAwesome5FreeSolid-61829"/>
    </g>
   </g>
   <g id="text_8">
    <!--  -->
    <g style="fill:#ffa500;" transform="translate(25.456749 58.927455)scale(0.12 -0.12)">
     <use xlink:href="#FontAwesome5FreeSolid-61829"/>
    </g>
   </g>
   <g id="text_9">
    <!--  -->
    <g style="fill:#ffa500;" transform="translate(25.456749 40.670706)scale(0.12 -0.12)">
     <use xlink:href="#FontAwesome5FreeSolid-61829"/>
    </g>
   </g>
   <g id="text_10">
    <!--  -->
    <g style="fill:#ffa500;" transform="translate(25.456749 22.413957)scale(0.12 -0.12)">
     <use xlink:href="#FontAwesome5FreeSolid-61829"/>
    </g>
   </g>
   <g id="text_11">
    <!--  -->
    <g style="fill:#ffa500;" transform="translate(43.713498 95.440953)scale(0.12 -0.12)">
     <use xlink:href="#FontAwesome5FreeSolid-61829"/>
    </g>
   </g>
   <g id="text_12">
    <!--  -->
    <g style="fill:#ffa500;" transform="translate(43.713498 77.184204)scale(0.12 -0.12)">
     <use xlink:href="#FontAwesome5FreeSolid-61829"/>
    </g>
   </g>
   <g id="text_13">
    <!--  -->
    <g style="fill:#ffa500;" transform="translate(43.713498 58.927455)scale(0.12 -0.12)">
     <use xlink:href="#FontAwesome5FreeSolid-61829"/>
    </g>
   </g>
   <g id="text_14">
    <!--  -->
    <g style="fill:#ffa500;" transform="translate(43.713498 40.670706)scale(0.12 -0.12)">
     <use xlink:href="#FontAwesome5FreeSolid-61829"/>
    </g>
   </g>
   <g id="text_15">
    <!--  -->
    <g style="fill:#ffa500;" transform="translate(43.713498 22.413957)scale(0.12 -0.12)">
     <use xlink:href="#FontAwesome5FreeSolid-61829"/>
    </g>
   </g>
   <g id="text_16">
    <!--  -->
    <g style="fill:#ffa500;" transform="translate(61.970247 95.440953)scale(0.12 -0.12)">
     <use xlink:href="#FontAwesome5FreeSolid-61829"/>
    </g>
   </g>
   <g id="text_17">
    <!--  -->
    <g style="fill:#ffa500;" transform="translate(61.970247 77.184204)scale(0.12 -0.12)">
     <use xlink:href="#FontAwesome5FreeSolid-61829"/>
    </g>
   </g>
   <g id="text_18">
    <!--  -->
    <g style="fill:#ffa500;" transform="translate(61.970247 58.927455)scale(0.12 -0.12)">
     <use xlink:href="#FontAwesome5FreeSolid-61829"/>
    </g>
   </g>
   <g id="text_19">
    <!--  -->
    <g style="fill:#ffa500;" transform="translate(61.970247 40.670706)scale(0.12 -0.12)">
     <use xlink:href="#FontAwesome5FreeSolid-61829"/>
    </g>
   </g>
   <g id="text_20">
    <!--  -->
    <g style="fill:#ffa500;" transform="translate(61.970247 22.413957)scale(0.12 -0.12)">
     <use xlink:href="#FontAwesome5FreeSolid-61829"/>
    </g>
   </g>
   <g id="text_21">
    <!--  -->
    <g style="fill:#ffa500;" transform="translate(80.226996 95.440953)scale(0.12 -0.12)">
     <use xlink:href="#FontAwesome5FreeSolid-61829"/>
    </g>
   </g>
   <g id="text_22">
    <!--  -->
    <g style="fill:#ffa500;" transform="translate(80.226996 77.184204)scale(0.12 -0.12)">
     <use xlink:href="#FontAwesome5FreeSolid-61829"/>
    </g>
   </g>
   <g id="text_23">
    <!--  -->
    <g style="fill:#ffa500;" transform="translate(80.226996 58.927455)scale(0.12 -0.12)">
     <use xlink:href="#FontAwesome5FreeSolid-61829"/>
    </g>
   </g>
   <g id="text_24">
    <!--  -->
    <g style="fill:#ffa500;" transform="translate(80.226996 40.670706)scale(0.12 -0.12)">
     <use xlink:href="#FontAwesome5FreeSolid-61829"/>
    </g>
   </g>
   <g id="text_25">
    <!--  -->
    <g style="fill:#ffa500;" transform="translate(80.226996 22.413957)scale(0.12 -0.12)">
     <use xlink:href="#FontAwesome5FreeSolid-61829"/>
    </g>
   </g>
   <g id="text_26">
    <!--  -->
    <g style="fill:#ffa500;" transform="translate(98.483745 95.440953)scale(0.12 -0.12)">
     <use xlink:href="#FontAwesome5FreeSolid-61829"/>
    </g>
   </g>
   <g id="text_27">
    <!--  -->
    <g style="fill:#ffa500;" transform="translate(98.483745 77.184204)scale(0.12 -0.12)">
     <use xlink:href="#FontAwesome5FreeSolid-61829"/>
    </g>
   </g>
   <g id="text_28">
    <!--  -->
    <g style="fill:#ffa500;" transform="translate(98.483745 58.927455)scale(0.12 -0.12)">
     <use xlink:href="#FontAwesome5FreeSolid-61829"/>
    </g>
   </g>
   <g id="text_29">
    <!--  -->
    <g style="fill:#ffa500;" transform="translate(98.483745 40.670706)scale(0.12 -0.12)">
     <use xlink:href="#FontAwesome5FreeSolid-61829"/>
    </g>
   </g>
   <g id="text_30">
    <!--  -->
    <g style="fill:#ffa500;" transform="translate(98.483745 22.413957)scale(0.12 -0.12)">
     <use xlink:href="#FontAwesome5FreeSolid-61829"/>
    </g>
   </g>
   <g id="text_31">
    <!--  -->
    <g style="fill:#ffa500;" transform="translate(116.740494 95.440953)scale(0.12 -0.12)">
     <use xlink:href="#FontAwesome5FreeSolid-61829"/>
    </g>
   </g>
   <g id="text_32">
    <!--  -->
    <g style="fill:#ffa500;" transform="translate(116.740494 77.184204)scale(0.12 -0.12)">
     <use xlink:href="#FontAwesome5FreeSolid-61829"/>
    </g>
   </g>
   <g id="text_33">
    <!--  -->
    <g style="fill:#ffa500;" transform="translate(116.740494 58.927455)scale(0.12 -0.12)">
     <use xlink:href="#FontAwesome5FreeSolid-61829"/>
    </g>
   </g>
   <g id="text_34">
    <!--  -->
    <g style="fill:#ffa500;" transform="translate(116.740494 40.670706)scale(0.12 -0.12)">
     <use xlink:href="#FontAwesome5FreeSolid-61829"/>
    </g>
   </g>
   <g id="text_35">
    <!--  -->
    <g style="fill:#ffa500;" transform="translate(116.740494 22.413957)scale(0.12 -0.12)">
     <use xlink:href="#FontAwesome5FreeSolid-61829"/>
    </g>
   </g>
   <g id="text_36">
    <!--  -->
    <g style="fill:#ffa500;" transform="translate(134.997243 95.440953)scale(0.12 -0.12)">
     <use xlink:href="#FontAwesome5FreeSolid-61829"/>
    </g>
   </g>
   <g id="text_37">
    <!--  -->
    <g style="fill:#ffa500;" transform="translate(134.997243 77.184204)scale(0.12 -0.12)">
     <use xlink:href="#FontAwesome5FreeSolid-61829"/>
    </g>
   </g>
   <g id="text_38">
    <!--  -->
    <g style="fill:#ffa500;" transform="translate(134.997243 58.927455)scale(0.12 -0.12)">
     <use xlink:href="#FontAwesome5FreeSolid-61829"/>
    </g>
   </g>
   <g id="text_39">
    <!--  -->
    <g style="fill:#ffa500;" transform="translate(134.997243 40.670706)scale(0.12 -0.12)">
     <use xlink:href="#FontAwesome5FreeSolid-61829"/>
    </g>
   </g>
   <g id="text_40">
    <!--  -->
    <g style="fill:#ffa500;" transform="translate(134.997243 22.413957)scale(0.12 -0.12)">
     <use xlink:href="#FontAwesome5FreeSolid-61829"/>
    </g>
   </g>
   <g id="text_41">
    <!--  -->
    <g style="fill:#ffa500;" transform="translate(153.253992 95.440953)scale(0.12 -0.12)">
     <use xlink:href="#FontAwesome5FreeSolid-61829"/>
    </g>
   </g>
   <g id="text_42">
    <!--  -->
    <g style="fill:#ffa500;" transform="translate(153.253992 77.184204)scale(0.12 -0.12)">
     <use xlink:href="#FontAwesome5FreeSolid-61829"/>
    </g>
   </g>
   <g id="text_43">
    <!--  -->
    <g style="fill:#ffa500;" transform="translate(153.253992 58.927455)scale(0.12 -0.12)">
     <use xlink:href="#FontAwesome5FreeSolid-61829"/>
    </g>
   </g>
   <g id="text_44">
    <!--  -->
    <g style="fill:#ffa500;" transform="translate(153.253992 40.670706)scale(0.12 -0.12)">
     <use xlink:href="#FontAwesome5FreeSolid-61829"/>
    </g>
   </g>
   <g id="text_45">
    <!--  -->
    <g style="fill:#ffa500;" transform="translate(153.253992 22.413957)scale(0.12 -0.12)">
     <use xlink:href="#FontAwesome5FreeSolid-61829"/>
    </g>
   </g>
   <g id="text_46">
    <!--  -->
    <g style="fill:#ffa500;" transform="translate(171.510741 95.440953)scale(0.12 -0.12)">
     <use xlink:href="#FontAwesome5FreeSolid-61829"/>
    </g>
   </g>
   <g id="text_47">
    <!--  -->
    <g style="fill:#ffa500;" transform="translate(171.510741 77.184204)scale(0.12 -0.12)">
     <use xlink:href="#FontAwesome5FreeSolid-61829"/>
    </g>
   </g>
   <g id="text_48">
    <!--  -->
    <g style="fill:#ffa500;" transform="translate(171.510741 58.927455)scale(0.12 -0.12)">
     <use xlink:href="#FontAwesome5FreeSolid-61829"/>
    </g>
   </g>
   <g id="text_49">
    <!--  -->
    <defs>
     <path d="M 35.9375 15.234375 
C 36.71875 14.84375 37.109375 14.0625 37.3125 13.28125 
C 37.5 12.5 37.5 11.71875 37.109375 10.9375 
L 24.609375 -10.9375 
C 23.828125 -12.109375 23.046875 -12.5 21.875 -12.5 
C 21.296875 -12.5 20.703125 -12.5 20.3125 -12.109375 
C 19.53125 -11.71875 18.953125 -11.140625 18.75 -10.359375 
C 18.5625 -9.578125 18.75 -8.59375 19.140625 -7.8125 
L 31.640625 14.0625 
C 32.03125 14.84375 32.625 15.234375 33.40625 15.4375 
C 34.1875 15.625 35.15625 15.625 35.9375 15.234375 
z
M 54.6875 15.234375 
C 55.46875 14.84375 55.859375 14.0625 56.0625 13.28125 
C 56.25 12.5 56.25 11.71875 55.859375 10.9375 
L 43.359375 -10.9375 
C 42.578125 -12.109375 41.796875 -12.5 40.625 -12.5 
C 40.046875 -12.5 39.453125 -12.5 39.0625 -12.109375 
C 38.28125 -11.71875 37.703125 -11.140625 37.5 -10.359375 
C 37.3125 -9.578125 37.5 -8.59375 37.890625 -7.8125 
L 50.390625 14.0625 
C 50.78125 14.84375 51.375 15.234375 52.15625 15.4375 
C 52.9375 15.625 53.90625 15.625 54.6875 15.234375 
z
M 17.1875 15.234375 
C 17.96875 14.84375 18.359375 14.0625 18.5625 13.28125 
C 18.75 12.5 18.75 11.71875 18.359375 10.9375 
L 5.859375 -10.9375 
C 5.078125 -12.109375 4.296875 -12.5 3.125 -12.5 
C 2.546875 -12.5 1.953125 -12.5 1.5625 -12.109375 
C 0.78125 -11.71875 0.203125 -11.140625 0 -10.359375 
C -0.203125 -9.578125 0 -8.59375 0.390625 -7.8125 
L 12.890625 14.0625 
C 13.28125 14.84375 13.875 15.234375 14.65625 15.4375 
C 15.4375 15.625 16.40625 15.625 17.1875 15.234375 
z
M 92.1875 15.234375 
C 92.96875 14.84375 93.359375 14.0625 93.5625 13.28125 
C 93.75 12.5 93.75 11.71875 93.359375 10.9375 
L 80.859375 -10.9375 
C 80.078125 -12.109375 79.296875 -12.5 78.125 -12.5 
C 77.546875 -12.5 76.953125 -12.5 76.5625 -12.109375 
C 75.78125 -11.71875 75.203125 -11.140625 75 -10.359375 
C 74.8125 -9.578125 75 -8.59375 75.390625 -7.8125 
L 87.890625 14.0625 
C 88.28125 14.84375 88.875 15.234375 89.65625 15.4375 
C 90.4375 15.625 91.40625 15.625 92.1875 15.234375 
z
M 73.4375 15.234375 
C 74.21875 14.84375 74.609375 14.0625 74.8125 13.28125 
C 75 12.5 75 11.71875 74.609375 10.9375 
L 62.109375 -10.9375 
C 61.328125 -12.109375 60.546875 -12.5 59.375 -12.5 
C 58.796875 -12.5 58.203125 -12.5 57.8125 -12.109375 
C 57.03125 -11.71875 56.453125 -11.140625 56.25 -10.359375 
C 56.0625 -9.578125 56.25 -8.59375 56.640625 -7.8125 
L 69.140625 14.0625 
C 69.53125 14.84375 70.125 15.234375 70.90625 15.4375 
C 71.6875 15.625 72.65625 15.625 73.4375 15.234375 
z
M 81.25 62.5 
C 86.328125 62.5 90.828125 60.546875 94.53125 57.03125 
C 98.046875 53.328125 100 48.828125 100 43.75 
C 100 38.484375 98.046875 33.984375 94.53125 30.46875 
C 90.828125 26.765625 86.328125 25 81.25 25 
L 18.75 25 
C 13.484375 25 8.984375 26.765625 5.46875 30.46875 
C 1.765625 33.984375 0 38.484375 0 43.75 
C 0 47.65625 1.171875 51.375 3.515625 54.6875 
C 5.859375 57.8125 8.984375 60.15625 12.890625 61.53125 
C 12.5 62.890625 12.5 64.265625 12.5 65.625 
C 12.5 69.53125 13.484375 73.046875 15.4375 76.5625 
C 17.390625 79.890625 19.921875 82.625 23.4375 84.578125 
C 26.765625 86.53125 30.46875 87.5 34.578125 87.5 
C 38.484375 87.5 42.1875 86.328125 45.703125 84.1875 
C 49.21875 82.03125 51.765625 79.109375 53.71875 75.59375 
C 55.078125 77.34375 56.84375 78.71875 58.984375 79.6875 
C 60.9375 80.671875 63.28125 81.25 65.625 81.25 
C 69.921875 81.25 73.4375 79.6875 76.5625 76.5625 
C 79.6875 73.4375 81.25 69.921875 81.25 65.625 
C 81.25 64.453125 81.0625 63.28125 80.859375 62.5 
L 81.0625 62.5 
z
" id="FontAwesome5FreeSolid-63296"/>
    </defs>
    <g style="fill:#4384ff;" transform="translate(171.510741 40.670706)scale(0.12 -0.12)">
     <use xlink:href="#FontAwesome5FreeSolid-63296"/>
    </g>
   </g>
   <g id="text_50">
    <!--  -->
    <g style="fill:#4384ff;" transform="translate(171.510741 22.413957)scale(0.12 -0.12)">
     <use xlink:href="#FontAwesome5FreeSolid-63296"/>
    </g>
   </g>
   <g id="text_51">
    <!--  -->
    <g style="fill:#4384ff;" transform="translate(189.767489 95.440953)scale(0.12 -0.12)">
     <use xlink:href="#FontAwesome5FreeSolid-63296"/>
    </g>
   </g>
   <g id="text_52">
    <!--  -->
    <g style="fill:#4384ff;" transform="translate(189.767489 77.184204)scale(0.12 -0.12)">
     <use xlink:href="#FontAwesome5FreeSolid-63296"/>
    </g>
   </g>
   <g id="text_53">
    <!--  -->
    <g style="fill:#4384ff;" transform="translate(189.767489 58.927455)scale(0.12 -0.12)">
     <use xlink:href="#FontAwesome5FreeSolid-63296"/>
    </g>
   </g>
   <g id="text_54">
    <!--  -->
    <g style="fill:#4384ff;" transform="translate(189.767489 40.670706)scale(0.12 -0.12)">
     <use xlink:href="#FontAwesome5FreeSolid-63296"/>
    </g>
   </g>
   <g id="text_55">
    <!--  -->
    <g style="fill:#4384ff;" transform="translate(189.767489 22.413957)scale(0.12 -0.12)">
     <use xlink:href="#FontAwesome5FreeSolid-63296"/>
    </g>
   </g>
   <g id="text_56">
    <!--  -->
    <g style="fill:#4384ff;" transform="translate(208.024238 95.440953)scale(0.12 -0.12)">
     <use xlink:href="#FontAwesome5FreeSolid-63296"/>
    </g>
   </g>
   <g id="text_57">
    <!--  -->
    <g style="fill:#4384ff;" transform="translate(208.024238 77.184204)scale(0.12 -0.12)">
     <use xlink:href="#FontAwesome5FreeSolid-63296"/>
    </g>
   </g>
   <g id="text_58">
    <!--  -->
    <g style="fill:#4384ff;" transform="translate(208.024238 58.927455)scale(0.12 -0.12)">
     <use xlink:href="#FontAwesome5FreeSolid-63296"/>
    </g>
   </g>
   <g id="text_59">
    <!--  -->
    <g style="fill:#4384ff;" transform="translate(208.024238 40.670706)scale(0.12 -0.12)">
     <use xlink:href="#FontAwesome5FreeSolid-63296"/>
    </g>
   </g>
   <g id="text_60">
    <!--  -->
    <g style="fill:#4384ff;" transform="translate(208.024238 22.413957)scale(0.12 -0.12)">
     <use xlink:href="#FontAwesome5FreeSolid-63296"/>
    </g>
   </g>
   <g id="text_61">
    <!--  -->
    <g style="fill:#4384ff;" transform="translate(226.280987 95.440953)scale(0.12 -0.12)">
     <use xlink:href="#FontAwesome5FreeSolid-63296"/>
    </g>
   </g>
   <g id="text_62">
    <!--  -->
    <g style="fill:#4384ff;" transform="translate(226.280987 77.184204)scale(0.12 -0.12)">
     <use xlink:href="#FontAwesome5FreeSolid-63296"/>
    </g>
   </g>
   <g id="text_63">
    <!--  -->
    <g style="fill:#4384ff;" transform="translate(226.280987 58.927455)scale(0.12 -0.12)">
     <use xlink:href="#FontAwesome5FreeSolid-63296"/>
    </g>
   </g>
   <g id="text_64">
    <!--  -->
    <g style="fill:#4384ff;" transform="translate(226.280987 40.670706)scale(0.12 -0.12)">
     <use xlink:href="#FontAwesome5FreeSolid-63296"/>
    </g>
   </g>
   <g id="text_65">
    <!--  -->
    <g style="fill:#4384ff;" transform="translate(226.280987 22.413957)scale(0.12 -0.12)">
     <use xlink:href="#FontAwesome5FreeSolid-63296"/>
    </g>
   </g>
   <g id="text_66">
    <!--  -->
    <g style="fill:#4384ff;" transform="translate(244.537736 95.440953)scale(0.12 -0.12)">
     <use xlink:href="#FontAwesome5FreeSolid-63296"/>
    </g>
   </g>
   <g id="text_67">
    <!--  -->
    <g style="fill:#4384ff;" transform="translate(244.537736 77.184204)scale(0.12 -0.12)">
     <use xlink:href="#FontAwesome5FreeSolid-63296"/>
    </g>
   </g>
   <g id="text_68">
    <!--  -->
    <g style="fill:#4384ff;" transform="translate(244.537736 58.927455)scale(0.12 -0.12)">
     <use xlink:href="#FontAwesome5FreeSolid-63296"/>
    </g>
   </g>
   <g id="text_69">
    <!--  -->
    <g style="fill:#4384ff;" transform="translate(244.537736 40.670706)scale(0.12 -0.12)">
     <use xlink:href="#FontAwesome5FreeSolid-63296"/>
    </g>
   </g>
   <g id="text_70">
    <!--  -->
    <g style="fill:#4384ff;" transform="translate(244.537736 22.413957)scale(0.12 -0.12)">
     <use xlink:href="#FontAwesome5FreeSolid-63296"/>
    </g>
   </g>
   <g id="text_71">
    <!--  -->
    <g style="fill:#4384ff;" transform="translate(262.794485 95.440953)scale(0.12 -0.12)">
     <use xlink:href="#FontAwesome5FreeSolid-63296"/>
    </g>
   </g>
   <g id="text_72">
    <!--  -->
    <g style="fill:#4384ff;" transform="translate(262.794485 77.184204)scale(0.12 -0.12)">
     <use xlink:href="#FontAwesome5FreeSolid-63296"/>
    </g>
   </g>
   <g id="text_73">
    <!--  -->
    <g style="fill:#4384ff;" transform="translate(262.794485 58.927455)scale(0.12 -0.12)">
     <use xlink:href="#FontAwesome5FreeSolid-63296"/>
    </g>
   </g>
   <g id="text_74">
    <!--  -->
    <g style="fill:#4384ff;" transform="translate(262.794485 40.670706)scale(0.12 -0.12)">
     <use xlink:href="#FontAwesome5FreeSolid-63296"/>
    </g>
   </g>
   <g id="text_75">
    <!--  -->
    <g style="fill:#4384ff;" transform="translate(262.794485 22.413957)scale(0.12 -0.12)">
     <use xlink:href="#FontAwesome5FreeSolid-63296"/>
    </g>
   </g>
   <g id="text_76">
    <!--  -->
    <g style="fill:#4384ff;" transform="translate(281.051234 95.440953)scale(0.12 -0.12)">
     <use xlink:href="#FontAwesome5FreeSolid-63296"/>
    </g>
   </g>
   <g id="text_77">
    <!--  -->
    <g style="fill:#4384ff;" transform="translate(281.051234 77.184204)scale(0.12 -0.12)">
     <use xlink:href="#FontAwesome5FreeSolid-63296"/>
    </g>
   </g>
   <g id="text_78">
    <!--  -->
    <g style="fill:#4384ff;" transform="translate(281.051234 58.927455)scale(0.12 -0.12)">
     <use xlink:href="#FontAwesome5FreeSolid-63296"/>
    </g>
   </g>
   <g id="text_79">
    <!--  -->
    <g style="fill:#4384ff;" transform="translate(281.051234 40.670706)scale(0.12 -0.12)">
     <use xlink:href="#FontAwesome5FreeSolid-63296"/>
    </g>
   </g>
   <g id="text_80">
    <!--  -->
    <g style="fill:#4384ff;" transform="translate(281.051234 22.413957)scale(0.12 -0.12)">
     <use xlink:href="#FontAwesome5FreeSolid-63296"/>
    </g>
   </g>
   <g id="text_81">
    <!--  -->
    <g style="fill:#4384ff;" transform="translate(299.307983 95.440953)scale(0.12 -0.12)">
     <use xlink:href="#FontAwesome5FreeSolid-63296"/>
    </g>
   </g>
   <g id="text_82">
    <!--  -->
    <g style="fill:#4384ff;" transform="translate(299.307983 77.184204)scale(0.12 -0.12)">
     <use xlink:href="#FontAwesome5FreeSolid-63296"/>
    </g>
   </g>
   <g id="text_83">
    <!--  -->
    <g style="fill:#4384ff;" transform="translate(299.307983 58.927455)scale(0.12 -0.12)">
     <use xlink:href="#FontAwesome5FreeSolid-63296"/>
    </g>
   </g>
   <g id="text_84">
    <!--  -->
    <g style="fill:#4384ff;" transform="translate(299.307983 40.670706)scale(0.12 -0.12)">
     <use xlink:href="#FontAwesome5FreeSolid-63296"/>
    </g>
   </g>
   <g id="text_85">
    <!--  -->
    <g style="fill:#4384ff;" transform="translate(299.307983 22.413957)scale(0.12 -0.12)">
     <use xlink:href="#FontAwesome5FreeSolid-63296"/>
    </g>
   </g>
   <g id="text_86">
    <!--  -->
    <g style="fill:#4384ff;" transform="translate(317.564732 95.440953)scale(0.12 -0.12)">
     <use xlink:href="#FontAwesome5FreeSolid-63296"/>
    </g>
   </g>
   <g id="text_87">
    <!--  -->
    <g style="fill:#4384ff;" transform="translate(317.564732 77.184204)scale(0.12 -0.12)">
     <use xlink:href="#FontAwesome5FreeSolid-63296"/>
    </g>
   </g>
   <g id="text_88">
    <!--  -->
    <g style="fill:#4384ff;" transform="translate(317.564732 58.927455)scale(0.12 -0.12)">
     <use xlink:href="#FontAwesome5FreeSolid-63296"/>
    </g>
   </g>
   <g id="text_89">
    <!--  -->
    <g style="fill:#4384ff;" transform="translate(317.564732 40.670706)scale(0.12 -0.12)">
     <use xlink:href="#FontAwesome5FreeSolid-63296"/>
    </g>
   </g>
   <g id="text_90">
    <!--  -->
    <g style="fill:#4384ff;" transform="translate(317.564732 22.413957)scale(0.12 -0.12)">
     <use xlink:href="#FontAwesome5FreeSolid-63296"/>
    </g>
   </g>
   <g id="text_91">
    <!--  -->
    <g style="fill:#4384ff;" transform="translate(335.821481 95.440953)scale(0.12 -0.12)">
     <use xlink:href="#FontAwesome5FreeSolid-63296"/>
    </g>
   </g>
   <g id="text_92">
    <!--  -->
    <g style="fill:#4384ff;" transform="translate(335.821481 77.184204)scale(0.12 -0.12)">
     <use xlink:href="#FontAwesome5FreeSolid-63296"/>
    </g>
   </g>
   <g id="text_93">
    <!--  -->
    <g style="fill:#4384ff;" transform="translate(335.821481 58.927455)scale(0.12 -0.12)">
     <use xlink:href="#FontAwesome5FreeSolid-63296"/>
    </g>
   </g>
   <g id="text_94">
    <!--  -->
    <g style="fill:#4384ff;" transform="translate(335.821481 40.670706)scale(0.12 -0.12)">
     <use xlink:href="#FontAwesome5FreeSolid-63296"/>
    </g>
   </g>
   <g id="text_95">
    <!--  -->
    <defs>
     <path d="M 85.9375 20.125 
C 86.71875 19.734375 87.109375 18.953125 87.3125 18.171875 
C 87.5 17.390625 87.5 16.609375 87.109375 16.015625 
L 83.984375 10.75 
C 83.59375 9.96875 83.015625 9.375 82.234375 9.1875 
C 81.453125 8.984375 80.671875 9.1875 79.890625 9.578125 
L 73.4375 13.484375 
L 74.609375 8.40625 
C 74.8125 7.625 74.8125 6.84375 74.421875 6.0625 
C 74.03125 5.28125 73.4375 4.890625 72.65625 4.6875 
L 69.734375 3.90625 
C 68.953125 3.515625 68.171875 3.71875 67.390625 4.109375 
C 66.609375 4.5 66.015625 5.28125 66.015625 6.0625 
L 62.3125 19.921875 
L 50 26.953125 
L 50 11.71875 
L 60.359375 1.375 
C 60.9375 0.59375 61.328125 -0.203125 61.328125 -0.984375 
C 61.328125 -1.765625 60.9375 -2.546875 60.359375 -3.125 
L 58.203125 -5.28125 
C 57.421875 -6.0625 56.640625 -6.25 55.859375 -6.25 
C 55.078125 -6.25 54.296875 -6.0625 53.90625 -5.28125 
L 50 -1.5625 
L 50 -9.375 
C 50 -10.359375 49.609375 -11.140625 49.03125 -11.71875 
C 48.25 -12.3125 47.65625 -12.5 46.875 -12.5 
L 40.625 -12.5 
C 39.65625 -12.5 38.875 -12.3125 38.28125 -11.71875 
C 37.703125 -11.140625 37.5 -10.359375 37.5 -9.375 
L 37.5 -1.5625 
L 33.59375 -5.28125 
C 32.8125 -6.0625 32.03125 -6.25 31.25 -6.25 
C 30.46875 -6.25 29.6875 -6.0625 29.296875 -5.28125 
L 26.953125 -3.125 
C 26.171875 -2.546875 25.984375 -1.765625 25.984375 -0.984375 
C 25.984375 -0.203125 26.171875 0.59375 26.953125 1.375 
L 37.5 11.71875 
L 37.5 26.953125 
L 25.203125 19.921875 
L 21.484375 6.0625 
C 21.09375 5.28125 20.703125 4.5 19.921875 4.109375 
C 19.140625 3.71875 18.5625 3.515625 17.78125 3.90625 
L 14.84375 4.6875 
C 14.0625 4.6875 13.484375 5.28125 13.09375 6.0625 
C 12.703125 6.84375 12.5 7.625 12.703125 8.40625 
L 14.0625 13.484375 
L 7.625 9.578125 
C 6.84375 9.1875 6.0625 8.984375 5.28125 9.1875 
C 4.5 9.375 3.90625 9.96875 3.515625 10.75 
L 0.390625 16.015625 
C 0 16.609375 -0.203125 17.390625 0 18.171875 
C 0.203125 18.953125 0.78125 19.734375 1.5625 20.125 
L 8.203125 23.828125 
L 2.9375 25.203125 
C 2.15625 25.390625 1.5625 25.78125 1.171875 26.5625 
C 0.78125 27.34375 0.59375 28.125 0.984375 28.90625 
L 1.765625 31.84375 
C 1.765625 32.625 2.15625 33.203125 2.9375 33.59375 
C 3.71875 33.984375 4.5 34.1875 5.46875 33.984375 
L 19.140625 30.28125 
L 31.640625 37.5 
L 19.140625 44.734375 
L 5.28125 41.015625 
C 4.5 40.625 3.71875 40.828125 2.9375 41.21875 
C 2.15625 41.609375 1.765625 42.390625 1.765625 43.171875 
L 0.984375 46.09375 
C 0.59375 46.875 0.78125 47.46875 1.171875 48.25 
C 1.5625 49.03125 2.15625 49.421875 3.125 49.8125 
L 8.203125 51.171875 
L 1.5625 54.890625 
C 0.78125 55.28125 0.203125 55.859375 0 56.640625 
C -0.203125 57.421875 0 58.203125 0.390625 58.984375 
L 3.515625 64.265625 
C 3.90625 65.046875 4.5 65.4375 5.28125 65.625 
C 6.0625 65.828125 6.84375 65.828125 7.625 65.4375 
L 14.265625 61.53125 
L 12.703125 66.609375 
C 12.5 67.390625 12.703125 67.96875 13.09375 68.75 
C 13.484375 69.53125 14.0625 69.921875 14.84375 70.3125 
L 17.78125 71.09375 
C 18.5625 71.296875 19.34375 71.09375 20.125 70.703125 
C 20.90625 70.3125 21.296875 69.734375 21.484375 68.953125 
L 25.203125 55.078125 
L 37.5 48.046875 
L 37.5 63.28125 
L 26.953125 73.640625 
C 26.375 74.21875 26.171875 75 26.171875 75.78125 
C 26.171875 76.5625 26.375 77.34375 26.953125 78.125 
L 29.296875 80.28125 
C 29.6875 80.859375 30.46875 81.25 31.453125 81.25 
C 32.234375 81.25 33.015625 80.859375 33.59375 80.28125 
L 37.5 76.5625 
L 37.5 84.375 
C 37.5 85.15625 37.703125 85.9375 38.28125 86.53125 
C 38.875 87.109375 39.65625 87.5 40.625 87.5 
L 46.875 87.5 
C 47.65625 87.5 48.4375 87.109375 49.03125 86.53125 
C 49.609375 85.9375 50 85.15625 50 84.375 
L 50 76.5625 
L 53.90625 80.28125 
C 54.296875 80.859375 55.078125 81.25 56.0625 81.25 
C 56.84375 81.25 57.625 80.859375 58.203125 80.28125 
L 60.546875 78.125 
C 60.9375 77.34375 61.328125 76.5625 61.328125 75.78125 
C 61.328125 75 60.9375 74.21875 60.546875 73.640625 
L 50 63.28125 
L 50 48.046875 
L 62.3125 55.078125 
L 66.015625 68.953125 
C 66.015625 69.734375 66.609375 70.3125 67.390625 70.703125 
C 68.171875 71.09375 68.953125 71.296875 69.734375 71.09375 
L 72.65625 70.3125 
C 73.4375 69.921875 74.03125 69.53125 74.421875 68.75 
C 74.8125 67.96875 74.8125 67.390625 74.8125 66.609375 
L 73.4375 61.53125 
L 79.890625 65.4375 
C 80.671875 65.828125 81.453125 65.828125 82.234375 65.625 
C 83.015625 65.4375 83.59375 65.046875 83.984375 64.265625 
L 87.109375 58.984375 
C 87.5 58.203125 87.5 57.421875 87.3125 56.640625 
C 87.109375 55.859375 86.71875 55.28125 85.9375 54.890625 
L 79.296875 51.171875 
L 84.375 49.8125 
C 85.15625 49.421875 85.9375 49.03125 86.328125 48.25 
C 86.71875 47.46875 86.71875 46.875 86.53125 46.09375 
L 85.75 43.171875 
C 85.546875 42.390625 85.15625 41.609375 84.375 41.21875 
C 83.59375 40.828125 82.8125 40.625 82.03125 41.015625 
L 68.359375 44.734375 
L 55.859375 37.5 
L 68.359375 30.28125 
L 82.03125 33.984375 
C 82.8125 34.1875 83.59375 33.984375 84.375 33.59375 
C 85.15625 33.203125 85.546875 32.625 85.75 31.84375 
L 86.53125 28.90625 
C 86.71875 28.125 86.71875 27.34375 86.328125 26.5625 
C 85.9375 25.78125 85.359375 25.390625 84.578125 25.203125 
L 79.5 23.828125 
z
" id="FontAwesome5FreeSolid-62172"/>
    </defs>
    <g style="fill:#c0c0c0;" transform="translate(335.821481 22.413957)scale(0.12 -0.12)">
     <use xlink:href="#FontAwesome5FreeSolid-62172"/>
    </g>
   </g>
   <g id="text_96">
    <!--  -->
    <g style="fill:#c0c0c0;" transform="translate(354.07823 95.440953)scale(0.12 -0.12)">
     <use xlink:href="#FontAwesome5FreeSolid-62172"/>
    </g>
   </g>
   <g id="text_97">
    <!--  -->
    <g style="fill:#c0c0c0;" transform="translate(354.07823 77.184204)scale(0.12 -0.12)">
     <use xlink:href="#FontAwesome5FreeSolid-62172"/>
    </g>
   </g>
   <g id="legend_1">
    <g id="patch_2">
     <path d="M 376.292187 59.234375 
L 444.4 59.234375 
Q 446.4 59.234375 446.4 57.234375 
L 446.4 14.2 
Q 446.4 12.2 444.4 12.2 
L 376.292187 12.2 
Q 374.292187 12.2 374.292187 14.2 
L 374.292187 57.234375 
Q 374.292187 59.234375 376.292187 59.234375 
z
" style="fill:#ffffff;opacity:0.8;stroke:#cccccc;stroke-linejoin:miter;"/>
    </g>
    <g id="text_98">
     <!--  -->
     <g style="fill:#ffa500;" transform="translate(383.292187 24.048437)scale(0.1 -0.1)">
      <use xlink:href="#FontAwesome5FreeSolid-61829"/>
     </g>
    </g>
    <g id="text_99">
     <!-- sun -->
     <defs>
      <path d="M 44.28125 53.078125 
L 44.28125 44.578125 
Q 40.484375 46.53125 36.375 47.5 
Q 32.28125 48.484375 27.875 48.484375 
Q 21.1875 48.484375 17.84375 46.4375 
Q 14.5 44.390625 14.5 40.28125 
Q 14.5 37.15625 16.890625 35.375 
Q 19.28125 33.59375 26.515625 31.984375 
L 29.59375 31.296875 
Q 39.15625 29.25 43.1875 25.515625 
Q 47.21875 21.78125 47.21875 15.09375 
Q 47.21875 7.46875 41.1875 3.015625 
Q 35.15625 -1.421875 24.609375 -1.421875 
Q 20.21875 -1.421875 15.453125 -0.5625 
Q 10.6875 0.296875 5.421875 2 
L 5.421875 11.28125 
Q 10.40625 8.6875 15.234375 7.390625 
Q 20.0625 6.109375 24.8125 6.109375 
Q 31.15625 6.109375 34.5625 8.28125 
Q 37.984375 10.453125 37.984375 14.40625 
Q 37.984375 18.0625 35.515625 20.015625 
Q 33.0625 21.96875 24.703125 23.78125 
L 21.578125 24.515625 
Q 13.234375 26.265625 9.515625 29.90625 
Q 5.8125 33.546875 5.8125 39.890625 
Q 5.8125 47.609375 11.28125 51.796875 
Q 16.75 56 26.8125 56 
Q 31.78125 56 36.171875 55.265625 
Q 40.578125 54.546875 44.28125 53.078125 
z
" id="DejaVuSans-115"/>
      <path d="M 8.5 21.578125 
L 8.5 54.6875 
L 17.484375 54.6875 
L 17.484375 21.921875 
Q 17.484375 14.15625 20.5 10.265625 
Q 23.53125 6.390625 29.59375 6.390625 
Q 36.859375 6.390625 41.078125 11.03125 
Q 45.3125 15.671875 45.3125 23.6875 
L 45.3125 54.6875 
L 54.296875 54.6875 
L 54.296875 0 
L 45.3125 0 
L 45.3125 8.40625 
Q 42.046875 3.421875 37.71875 1 
Q 33.40625 -1.421875 27.6875 -1.421875 
Q 18.265625 -1.421875 13.375 4.4375 
Q 8.5 10.296875 8.5 21.578125 
z
M 31.109375 56 
z
" id="DejaVuSans-117"/>
      <path d="M 54.890625 33.015625 
L 54.890625 0 
L 45.90625 0 
L 45.90625 32.71875 
Q 45.90625 40.484375 42.875 44.328125 
Q 39.84375 48.1875 33.796875 48.1875 
Q 26.515625 48.1875 22.3125 43.546875 
Q 18.109375 38.921875 18.109375 30.90625 
L 18.109375 0 
L 9.078125 0 
L 9.078125 54.6875 
L 18.109375 54.6875 
L 18.109375 46.1875 
Q 21.34375 51.125 25.703125 53.5625 
Q 30.078125 56 35.796875 56 
Q 45.21875 56 50.046875 50.171875 
Q 54.890625 44.34375 54.890625 33.015625 
z
" id="DejaVuSans-110"/>
     </defs>
     <g transform="translate(406.292187 23.798437)scale(0.1 -0.1)">
      <use xlink:href="#DejaVuSans-115"/>
      <use x="52.099609" xlink:href="#DejaVuSans-117"/>
      <use x="115.478516" xlink:href="#DejaVuSans-110"/>
     </g>
    </g>
    <g id="text_100">
     <!--  -->
     <g style="fill:#4384ff;" transform="translate(383.292187 38.726562)scale(0.1 -0.1)">
      <use xlink:href="#FontAwesome5FreeSolid-63296"/>
     </g>
    </g>
    <g id="text_101">
     <!-- shower -->
     <defs>
      <path d="M 54.890625 33.015625 
L 54.890625 0 
L 45.90625 0 
L 45.90625 32.71875 
Q 45.90625 40.484375 42.875 44.328125 
Q 39.84375 48.1875 33.796875 48.1875 
Q 26.515625 48.1875 22.3125 43.546875 
Q 18.109375 38.921875 18.109375 30.90625 
L 18.109375 0 
L 9.078125 0 
L 9.078125 75.984375 
L 18.109375 75.984375 
L 18.109375 46.1875 
Q 21.34375 51.125 25.703125 53.5625 
Q 30.078125 56 35.796875 56 
Q 45.21875 56 50.046875 50.171875 
Q 54.890625 44.34375 54.890625 33.015625 
z
" id="DejaVuSans-104"/>
      <path d="M 30.609375 48.390625 
Q 23.390625 48.390625 19.1875 42.75 
Q 14.984375 37.109375 14.984375 27.296875 
Q 14.984375 17.484375 19.15625 11.84375 
Q 23.34375 6.203125 30.609375 6.203125 
Q 37.796875 6.203125 41.984375 11.859375 
Q 46.1875 17.53125 46.1875 27.296875 
Q 46.1875 37.015625 41.984375 42.703125 
Q 37.796875 48.390625 30.609375 48.390625 
z
M 30.609375 56 
Q 42.328125 56 49.015625 48.375 
Q 55.71875 40.765625 55.71875 27.296875 
Q 55.71875 13.875 49.015625 6.21875 
Q 42.328125 -1.421875 30.609375 -1.421875 
Q 18.84375 -1.421875 12.171875 6.21875 
Q 5.515625 13.875 5.515625 27.296875 
Q 5.515625 40.765625 12.171875 48.375 
Q 18.84375 56 30.609375 56 
z
" id="DejaVuSans-111"/>
      <path d="M 4.203125 54.6875 
L 13.1875 54.6875 
L 24.421875 12.015625 
L 35.59375 54.6875 
L 46.1875 54.6875 
L 57.421875 12.015625 
L 68.609375 54.6875 
L 77.59375 54.6875 
L 63.28125 0 
L 52.6875 0 
L 40.921875 44.828125 
L 29.109375 0 
L 18.5 0 
z
" id="DejaVuSans-119"/>
      <path d="M 56.203125 29.59375 
L 56.203125 25.203125 
L 14.890625 25.203125 
Q 15.484375 15.921875 20.484375 11.0625 
Q 25.484375 6.203125 34.421875 6.203125 
Q 39.59375 6.203125 44.453125 7.46875 
Q 49.3125 8.734375 54.109375 11.28125 
L 54.109375 2.78125 
Q 49.265625 0.734375 44.1875 -0.34375 
Q 39.109375 -1.421875 33.890625 -1.421875 
Q 20.796875 -1.421875 13.15625 6.1875 
Q 5.515625 13.8125 5.515625 26.8125 
Q 5.515625 40.234375 12.765625 48.109375 
Q 20.015625 56 32.328125 56 
Q 43.359375 56 49.78125 48.890625 
Q 56.203125 41.796875 56.203125 29.59375 
z
M 47.21875 32.234375 
Q 47.125 39.59375 43.09375 43.984375 
Q 39.0625 48.390625 32.421875 48.390625 
Q 24.90625 48.390625 20.390625 44.140625 
Q 15.875 39.890625 15.1875 32.171875 
z
" id="DejaVuSans-101"/>
      <path d="M 41.109375 46.296875 
Q 39.59375 47.171875 37.8125 47.578125 
Q 36.03125 48 33.890625 48 
Q 26.265625 48 22.1875 43.046875 
Q 18.109375 38.09375 18.109375 28.8125 
L 18.109375 0 
L 9.078125 0 
L 9.078125 54.6875 
L 18.109375 54.6875 
L 18.109375 46.1875 
Q 20.953125 51.171875 25.484375 53.578125 
Q 30.03125 56 36.53125 56 
Q 37.453125 56 38.578125 55.875 
Q 39.703125 55.765625 41.0625 55.515625 
z
" id="DejaVuSans-114"/>
     </defs>
     <g transform="translate(406.292187 38.476562)scale(0.1 -0.1)">
      <use xlink:href="#DejaVuSans-115"/>
      <use x="52.099609" xlink:href="#DejaVuSans-104"/>
      <use x="115.478516" xlink:href="#DejaVuSans-111"/>
      <use x="176.660156" xlink:href="#DejaVuSans-119"/>
      <use x="258.447266" xlink:href="#DejaVuSans-101"/>
      <use x="319.970703" xlink:href="#DejaVuSans-114"/>
     </g>
    </g>
    <g id="text_102">
     <!--  -->
     <g style="fill:#c0c0c0;" transform="translate(383.917187 53.404687)scale(0.1 -0.1)">
      <use xlink:href="#FontAwesome5FreeSolid-62172"/>
     </g>
    </g>
    <g id="text_103">
     <!-- snow -->
     <g transform="translate(406.292187 53.154687)scale(0.1 -0.1)">
      <use xlink:href="#DejaVuSans-115"/>
      <use x="52.099609" xlink:href="#DejaVuSans-110"/>
      <use x="115.478516" xlink:href="#DejaVuSans-111"/>
      <use x="176.660156" xlink:href="#DejaVuSans-119"/>
     </g>
    </g>
   </g>
  </g>
 </g>
</svg>
