<?xml version="1.0" encoding="utf-8" standalone="no"?>
<!DOCTYPE svg PUBLIC "-//W3C//DTD SVG 1.1//EN"
  "http://www.w3.org/Graphics/SVG/1.1/DTD/svg11.dtd">
<svg xmlns:xlink="http://www.w3.org/1999/xlink" width="453.6pt" height="194.955641pt" viewBox="0 0 453.6 194.955641" xmlns="http://www.w3.org/2000/svg" version="1.1">
 <metadata>
  <rdf:RDF xmlns:dc="http://purl.org/dc/elements/1.1/" xmlns:cc="http://creativecommons.org/ns#" xmlns:rdf="http://www.w3.org/1999/02/22-rdf-syntax-ns#">
   <cc:Work>
    <dc:type rdf:resource="http://purl.org/dc/dcmitype/StillImage"/>
    <dc:date>2022-06-07T10:35:54.688443</dc:date>
    <dc:format>image/svg+xml</dc:format>
    <dc:creator>
     <cc:Agent>
      <dc:title>Matplotlib v3.5.2, https://matplotlib.org/</dc:title>
     </cc:Agent>
    </dc:creator>
   </cc:Work>
  </rdf:RDF>
 </metadata>
 <defs>
  <style type="text/css">*{stroke-linejoin: round; stroke-linecap: butt}</style>
 </defs>
 <g id="figure_1">
  <g id="patch_1">
   <path d="M 0 194.955641 
L 453.6 194.955641 
L 453.6 0 
L 0 0 
z
" style="fill: #ffffff"/>
  </g>
  <g id="axes_1">
   <g id="text_1">
    <!--  -->
    <g style="fill: #ffa500" transform="translate(7.2 185.177516)scale(0.2 -0.2)">
     <defs>
      <path id="FontAwesome6Free-Regular-f185" d="M 6313 1538 
L 5713 2388 
L 6313 3250 
C 6400 3388 6425 3550 6363 3700 
C 6300 3850 6163 3963 6000 3988 
L 4975 4175 
L 4788 5200 
C 4763 5363 4650 5500 4500 5563 
C 4350 5625 4188 5600 4050 5513 
L 3200 4913 
L 2338 5513 
C 2200 5600 2038 5625 1888 5563 
C 1738 5500 1625 5363 1600 5200 
L 1413 4175 
L 388 3988 
C 225 3963 88 3850 25 3700 
C -38 3550 -13 3388 75 3250 
L 675 2400 
L 75 1538 
C -13 1400 -38 1238 25 1088 
C 88 938 225 825 388 800 
L 1413 613 
L 1600 -413 
C 1625 -575 1738 -713 1888 -775 
C 2038 -825 2200 -813 2338 -725 
L 3200 -125 
L 4050 -725 
C 4138 -775 4225 -800 4325 -800 
C 4388 -800 4450 -800 4500 -775 
C 4650 -713 4763 -575 4788 -413 
L 4975 613 
L 6000 800 
C 6163 825 6300 938 6363 1088 
C 6425 1238 6400 1400 6313 1538 
z
M 5700 1350 
L 4463 1125 
L 4238 -113 
L 3200 600 
L 2150 -113 
L 1925 1125 
L 688 1350 
L 1400 2400 
L 688 3438 
L 1925 3663 
L 2150 4900 
L 3200 4188 
L 4238 4900 
L 4463 3663 
L 5700 3438 
L 4988 2400 
L 5700 1350 
z
M 3200 3800 
C 2425 3800 1800 3175 1800 2413 
C 1800 1638 2438 1025 3200 1025 
C 3950 1025 4588 1650 4588 2413 
C 4588 3163 3963 3800 3200 3800 
z
M 3200 1600 
C 2750 1600 2400 1963 2400 2400 
C 2400 2850 2750 3200 3200 3200 
C 3638 3200 3988 2838 3988 2400 
C 3988 1975 3638 1600 3200 1600 
z
" transform="scale(0.015625)"/>
     </defs>
     <use xlink:href="#FontAwesome6Free-Regular-f185"/>
    </g>
   </g>
   <g id="text_2">
    <!--  -->
    <g style="fill: #ffa500" transform="translate(7.2 148.354582)scale(0.2 -0.2)">
     <use xlink:href="#FontAwesome6Free-Regular-f185"/>
    </g>
   </g>
   <g id="text_3">
    <!--  -->
    <g style="fill: #ffa500" transform="translate(7.2 111.531647)scale(0.2 -0.2)">
     <use xlink:href="#FontAwesome6Free-Regular-f185"/>
    </g>
   </g>
   <g id="text_4">
    <!--  -->
    <g style="fill: #ffa500" transform="translate(7.2 74.708713)scale(0.2 -0.2)">
     <use xlink:href="#FontAwesome6Free-Regular-f185"/>
    </g>
   </g>
   <g id="text_5">
    <!--  -->
    <g style="fill: #ffa500" transform="translate(7.2 37.885779)scale(0.2 -0.2)">
     <use xlink:href="#FontAwesome6Free-Regular-f185"/>
    </g>
   </g>
   <g id="text_6">
    <!--  -->
    <g style="fill: #ffa500" transform="translate(44.022934 185.177516)scale(0.2 -0.2)">
     <use xlink:href="#FontAwesome6Free-Regular-f185"/>
    </g>
   </g>
   <g id="text_7">
    <!--  -->
    <g style="fill: #ffa500" transform="translate(44.022934 148.354582)scale(0.2 -0.2)">
     <use xlink:href="#FontAwesome6Free-Regular-f185"/>
    </g>
   </g>
   <g id="text_8">
    <!--  -->
    <g style="fill: #ffa500" transform="translate(44.022934 111.531647)scale(0.2 -0.2)">
     <use xlink:href="#FontAwesome6Free-Regular-f185"/>
    </g>
   </g>
   <g id="text_9">
    <!--  -->
    <g style="fill: #ffa500" transform="translate(44.022934 74.708713)scale(0.2 -0.2)">
     <use xlink:href="#FontAwesome6Free-Regular-f185"/>
    </g>
   </g>
   <g id="text_10">
    <!--  -->
    <g style="fill: #ffa500" transform="translate(44.022934 37.885779)scale(0.2 -0.2)">
     <use xlink:href="#FontAwesome6Free-Regular-f185"/>
    </g>
   </g>
   <g id="text_11">
    <!--  -->
    <g style="fill: #ffa500" transform="translate(80.845869 185.177516)scale(0.2 -0.2)">
     <use xlink:href="#FontAwesome6Free-Regular-f185"/>
    </g>
   </g>
   <g id="text_12">
    <!--  -->
    <g style="fill: #ffa500" transform="translate(80.845869 148.354582)scale(0.2 -0.2)">
     <use xlink:href="#FontAwesome6Free-Regular-f185"/>
    </g>
   </g>
   <g id="text_13">
    <!--  -->
    <g style="fill: #ffa500" transform="translate(80.845869 111.531647)scale(0.2 -0.2)">
     <use xlink:href="#FontAwesome6Free-Regular-f185"/>
    </g>
   </g>
   <g id="text_14">
    <!--  -->
    <g style="fill: #ffa500" transform="translate(80.845869 74.708713)scale(0.2 -0.2)">
     <use xlink:href="#FontAwesome6Free-Regular-f185"/>
    </g>
   </g>
   <g id="text_15">
    <!--  -->
    <g style="fill: #ffa500" transform="translate(80.845869 37.885779)scale(0.2 -0.2)">
     <use xlink:href="#FontAwesome6Free-Regular-f185"/>
    </g>
   </g>
   <g id="text_16">
    <!--  -->
    <g style="fill: #ffa500" transform="translate(117.668803 185.177516)scale(0.2 -0.2)">
     <use xlink:href="#FontAwesome6Free-Regular-f185"/>
    </g>
   </g>
   <g id="text_17">
    <!--  -->
    <g style="fill: #ffa500" transform="translate(117.668803 148.354582)scale(0.2 -0.2)">
     <use xlink:href="#FontAwesome6Free-Regular-f185"/>
    </g>
   </g>
   <g id="text_18">
    <!--  -->
    <g style="fill: #ffa500" transform="translate(117.668803 111.531647)scale(0.2 -0.2)">
     <use xlink:href="#FontAwesome6Free-Regular-f185"/>
    </g>
   </g>
   <g id="text_19">
    <!--  -->
    <g style="fill: #ffa500" transform="translate(117.668803 74.708713)scale(0.2 -0.2)">
     <use xlink:href="#FontAwesome6Free-Regular-f185"/>
    </g>
   </g>
   <g id="text_20">
    <!--  -->
    <g style="fill: #ffa500" transform="translate(117.668803 37.885779)scale(0.2 -0.2)">
     <use xlink:href="#FontAwesome6Free-Regular-f185"/>
    </g>
   </g>
   <g id="text_21">
    <!--  -->
    <g style="fill: #ffa500" transform="translate(154.491737 185.177516)scale(0.2 -0.2)">
     <use xlink:href="#FontAwesome6Free-Regular-f185"/>
    </g>
   </g>
   <g id="text_22">
    <!--  -->
    <g style="fill: #ffa500" transform="translate(154.491737 148.354582)scale(0.2 -0.2)">
     <use xlink:href="#FontAwesome6Free-Regular-f185"/>
    </g>
   </g>
   <g id="text_23">
    <!--  -->
    <g style="fill: #ffa500" transform="translate(154.491737 111.531647)scale(0.2 -0.2)">
     <use xlink:href="#FontAwesome6Free-Regular-f185"/>
    </g>
   </g>
   <g id="text_24">
    <!--  -->
    <g style="fill: #ffa500" transform="translate(154.491737 74.708713)scale(0.2 -0.2)">
     <use xlink:href="#FontAwesome6Free-Regular-f185"/>
    </g>
   </g>
   <g id="text_25">
    <!--  -->
    <g style="fill: #ffa500" transform="translate(154.491737 37.885779)scale(0.2 -0.2)">
     <use xlink:href="#FontAwesome6Free-Regular-f185"/>
    </g>
   </g>
   <g id="text_26">
    <!--  -->
    <g style="fill: #ffa500" transform="translate(191.314672 185.177516)scale(0.2 -0.2)">
     <use xlink:href="#FontAwesome6Free-Regular-f185"/>
    </g>
   </g>
   <g id="text_27">
    <!--  -->
    <g style="fill: #ffa500" transform="translate(191.314672 148.354582)scale(0.2 -0.2)">
     <use xlink:href="#FontAwesome6Free-Regular-f185"/>
    </g>
   </g>
   <g id="text_28">
    <!--  -->
    <g style="fill: #ffa500" transform="translate(191.314672 111.531647)scale(0.2 -0.2)">
     <use xlink:href="#FontAwesome6Free-Regular-f185"/>
    </g>
   </g>
   <g id="text_29">
    <!--  -->
    <g style="fill: #ffa500" transform="translate(191.314672 74.708713)scale(0.2 -0.2)">
     <use xlink:href="#FontAwesome6Free-Regular-f185"/>
    </g>
   </g>
   <g id="text_30">
    <!--  -->
    <g style="fill: #ffa500" transform="translate(191.314672 37.885779)scale(0.2 -0.2)">
     <use xlink:href="#FontAwesome6Free-Regular-f185"/>
    </g>
   </g>
   <g id="text_31">
    <!--  -->
    <g style="fill: #4384ff" transform="translate(228.137606 185.177516)scale(0.2 -0.2)">
     <defs>
      <path id="FontAwesome6Free-Solid-f740" d="M 5200 4000 
C 5188 4000 5175 3988 5175 3988 
C 5188 4063 5200 4125 5200 4200 
C 5200 4750 4750 5200 4200 5200 
C 3900 5200 3625 5050 3450 4838 
C 3200 5288 2738 5600 2200 5600 
C 1425 5600 800 4963 800 4200 
C 800 4100 800 4013 825 3925 
C 338 3775 0 3325 0 2800 
C 0 2138 525 1600 1188 1600 
L 5175 1600 
C 5863 1600 6400 2138 6400 2800 
C 6400 3463 5863 4000 5200 4000 
z
M 2475 1175 
C 2325 1238 2150 1163 2088 1013 
L 1500 -388 
C 1425 -538 1500 -713 1650 -788 
C 1675 -800 1725 -800 1763 -800 
C 1875 -800 1988 -738 2038 -625 
L 2625 775 
C 2700 925 2625 1100 2475 1175 
z
M 1013 1175 
C 863 1238 688 1163 613 1013 
L 25 -388 
C -50 -538 25 -713 175 -788 
C 213 -800 250 -800 288 -800 
C 413 -800 525 -738 575 -625 
L 1163 775 
C 1238 925 1163 1100 1013 1175 
z
M 3950 1175 
C 3788 1238 3613 1163 3550 1013 
L 2963 -388 
C 2900 -538 2963 -713 3125 -788 
C 3150 -800 3188 -800 3225 -800 
C 3350 -800 3450 -738 3500 -625 
L 4088 775 
C 4163 925 4100 1100 3950 1175 
z
M 5413 1175 
C 5263 1238 5088 1163 5013 1013 
L 4425 -388 
C 4363 -538 4438 -713 4588 -788 
C 4613 -800 4650 -800 4688 -800 
C 4800 -800 4913 -738 4963 -625 
L 5550 775 
C 5638 925 5563 1100 5413 1175 
z
" transform="scale(0.015625)"/>
     </defs>
     <use xlink:href="#FontAwesome6Free-Solid-f740"/>
    </g>
   </g>
   <g id="text_32">
    <!--  -->
    <g style="fill: #4384ff" transform="translate(228.137606 148.354582)scale(0.2 -0.2)">
     <use xlink:href="#FontAwesome6Free-Solid-f740"/>
    </g>
   </g>
   <g id="text_33">
    <!--  -->
    <g style="fill: #4384ff" transform="translate(228.137606 111.531647)scale(0.2 -0.2)">
     <use xlink:href="#FontAwesome6Free-Solid-f740"/>
    </g>
   </g>
   <g id="text_34">
    <!--  -->
    <g style="fill: #4384ff" transform="translate(228.137606 74.708713)scale(0.2 -0.2)">
     <use xlink:href="#FontAwesome6Free-Solid-f740"/>
    </g>
   </g>
   <g id="text_35">
    <!--  -->
    <g style="fill: #4384ff" transform="translate(228.137606 37.885779)scale(0.2 -0.2)">
     <use xlink:href="#FontAwesome6Free-Solid-f740"/>
    </g>
   </g>
   <g id="text_36">
    <!--  -->
    <g style="fill: #4384ff" transform="translate(264.96054 185.177516)scale(0.2 -0.2)">
     <use xlink:href="#FontAwesome6Free-Solid-f740"/>
    </g>
   </g>
   <g id="text_37">
    <!--  -->
    <g style="fill: #4384ff" transform="translate(264.96054 148.354582)scale(0.2 -0.2)">
     <use xlink:href="#FontAwesome6Free-Solid-f740"/>
    </g>
   </g>
   <g id="text_38">
    <!--  -->
    <g style="fill: #4384ff" transform="translate(264.96054 111.531647)scale(0.2 -0.2)">
     <use xlink:href="#FontAwesome6Free-Solid-f740"/>
    </g>
   </g>
   <g id="text_39">
    <!--  -->
    <g style="fill: #4384ff" transform="translate(264.96054 74.708713)scale(0.2 -0.2)">
     <use xlink:href="#FontAwesome6Free-Solid-f740"/>
    </g>
   </g>
   <g id="text_40">
    <!--  -->
    <g style="fill: #4384ff" transform="translate(264.96054 37.885779)scale(0.2 -0.2)">
     <use xlink:href="#FontAwesome6Free-Solid-f740"/>
    </g>
   </g>
   <g id="text_41">
    <!--  -->
    <g style="fill: #4384ff" transform="translate(301.783475 185.177516)scale(0.2 -0.2)">
     <use xlink:href="#FontAwesome6Free-Solid-f740"/>
    </g>
   </g>
   <g id="text_42">
    <!--  -->
    <g style="fill: #4384ff" transform="translate(301.783475 148.354582)scale(0.2 -0.2)">
     <use xlink:href="#FontAwesome6Free-Solid-f740"/>
    </g>
   </g>
   <g id="text_43">
    <!--  -->
    <g style="fill: #4384ff" transform="translate(301.783475 111.531647)scale(0.2 -0.2)">
     <use xlink:href="#FontAwesome6Free-Solid-f740"/>
    </g>
   </g>
   <g id="text_44">
    <!--  -->
    <g style="fill: #4384ff" transform="translate(301.783475 74.708713)scale(0.2 -0.2)">
     <use xlink:href="#FontAwesome6Free-Solid-f740"/>
    </g>
   </g>
   <g id="text_45">
    <!--  -->
    <g style="fill: #4384ff" transform="translate(301.783475 37.885779)scale(0.2 -0.2)">
     <use xlink:href="#FontAwesome6Free-Solid-f740"/>
    </g>
   </g>
   <g id="text_46">
    <!--  -->
    <g style="fill: #4384ff" transform="translate(338.606409 185.177516)scale(0.2 -0.2)">
     <use xlink:href="#FontAwesome6Free-Solid-f740"/>
    </g>
   </g>
   <g id="text_47">
    <!--  -->
    <g style="fill: #c0c0c0" transform="translate(338.606409 148.354582)scale(0.2 -0.2)">
     <defs>
      <path id="FontAwesome6Brands-Regular-f2b4" d="M 5600 5000 
L 5600 800 
C 4813 513 4575 400 4113 400 
C 3325 400 3025 800 2238 800 
C 1988 800 1788 750 1600 700 
L 1600 1500 
C 1788 1550 1988 1600 2238 1600 
C 3025 1600 3325 1200 4113 1200 
C 4363 1200 4550 1238 4800 1313 
L 4800 3913 
C 4550 3838 4363 3800 4113 3800 
C 3325 3800 3025 4200 2238 4200 
C 1600 4200 1300 3938 800 3838 
L 800 0 
C 800 -225 625 -400 400 -400 
C 175 -400 0 -225 0 0 
L 0 4800 
C 0 5025 175 5200 400 5200 
C 625 5200 800 5025 800 4800 
L 800 4638 
C 1300 4738 1600 5000 2238 5000 
C 3025 5000 3325 4600 4113 4600 
C 4575 4600 4813 4713 5600 5000 
z
" transform="scale(0.015625)"/>
     </defs>
     <use xlink:href="#FontAwesome6Brands-Regular-f2b4"/>
    </g>
   </g>
   <g id="text_48">
    <!--  -->
    <g style="fill: #c0c0c0" transform="translate(338.606409 111.531647)scale(0.2 -0.2)">
     <use xlink:href="#FontAwesome6Brands-Regular-f2b4"/>
    </g>
   </g>
   <g id="text_49">
    <!--  -->
    <g style="fill: #c0c0c0" transform="translate(338.606409 74.708713)scale(0.2 -0.2)">
     <use xlink:href="#FontAwesome6Brands-Regular-f2b4"/>
    </g>
   </g>
   <g id="text_50">
    <!--  -->
    <g style="fill: #c0c0c0" transform="translate(338.606409 37.885779)scale(0.2 -0.2)">
     <use xlink:href="#FontAwesome6Brands-Regular-f2b4"/>
    </g>
   </g>
   <g id="legend_1">
    <g id="patch_2">
     <path d="M 376.292187 59.234375 
L 444.4 59.234375 
Q 446.4 59.234375 446.4 57.234375 
L 446.4 14.2 
Q 446.4 12.2 444.4 12.2 
L 376.292187 12.2 
Q 374.292187 12.2 374.292187 14.2 
L 374.292187 57.234375 
Q 374.292187 59.234375 376.292187 59.234375 
z
" style="fill: #ffffff; opacity: 0.8; stroke: #cccccc; stroke-linejoin: miter"/>
    </g>
    <g id="text_51">
     <!--  -->
     <g style="fill: #ffa500" transform="translate(383.292187 24.048438)scale(0.1 -0.1)">
      <use xlink:href="#FontAwesome6Free-Regular-f185"/>
     </g>
    </g>
    <g id="text_52">
     <!-- sun -->
     <g transform="translate(406.292187 23.798438)scale(0.1 -0.1)">
      <defs>
       <path id="DejaVuSans-73" d="M 2834 3397 
L 2834 2853 
Q 2591 2978 2328 3040 
Q 2066 3103 1784 3103 
Q 1356 3103 1142 2972 
Q 928 2841 928 2578 
Q 928 2378 1081 2264 
Q 1234 2150 1697 2047 
L 1894 2003 
Q 2506 1872 2764 1633 
Q 3022 1394 3022 966 
Q 3022 478 2636 193 
Q 2250 -91 1575 -91 
Q 1294 -91 989 -36 
Q 684 19 347 128 
L 347 722 
Q 666 556 975 473 
Q 1284 391 1588 391 
Q 1994 391 2212 530 
Q 2431 669 2431 922 
Q 2431 1156 2273 1281 
Q 2116 1406 1581 1522 
L 1381 1569 
Q 847 1681 609 1914 
Q 372 2147 372 2553 
Q 372 3047 722 3315 
Q 1072 3584 1716 3584 
Q 2034 3584 2315 3537 
Q 2597 3491 2834 3397 
z
" transform="scale(0.015625)"/>
       <path id="DejaVuSans-75" d="M 544 1381 
L 544 3500 
L 1119 3500 
L 1119 1403 
Q 1119 906 1312 657 
Q 1506 409 1894 409 
Q 2359 409 2629 706 
Q 2900 1003 2900 1516 
L 2900 3500 
L 3475 3500 
L 3475 0 
L 2900 0 
L 2900 538 
Q 2691 219 2414 64 
Q 2138 -91 1772 -91 
Q 1169 -91 856 284 
Q 544 659 544 1381 
z
M 1991 3584 
L 1991 3584 
z
" transform="scale(0.015625)"/>
       <path id="DejaVuSans-6e" d="M 3513 2113 
L 3513 0 
L 2938 0 
L 2938 2094 
Q 2938 2591 2744 2837 
Q 2550 3084 2163 3084 
Q 1697 3084 1428 2787 
Q 1159 2491 1159 1978 
L 1159 0 
L 581 0 
L 581 3500 
L 1159 3500 
L 1159 2956 
Q 1366 3272 1645 3428 
Q 1925 3584 2291 3584 
Q 2894 3584 3203 3211 
Q 3513 2838 3513 2113 
z
" transform="scale(0.015625)"/>
      </defs>
      <use xlink:href="#DejaVuSans-73"/>
      <use xlink:href="#DejaVuSans-75" x="52.099609"/>
      <use xlink:href="#DejaVuSans-6e" x="115.478516"/>
     </g>
    </g>
    <g id="text_53">
     <!--  -->
     <g style="fill: #4384ff" transform="translate(383.292187 38.726562)scale(0.1 -0.1)">
      <use xlink:href="#FontAwesome6Free-Solid-f740"/>
     </g>
    </g>
    <g id="text_54">
     <!-- shower -->
     <g transform="translate(406.292187 38.476562)scale(0.1 -0.1)">
      <defs>
       <path id="DejaVuSans-68" d="M 3513 2113 
L 3513 0 
L 2938 0 
L 2938 2094 
Q 2938 2591 2744 2837 
Q 2550 3084 2163 3084 
Q 1697 3084 1428 2787 
Q 1159 2491 1159 1978 
L 1159 0 
L 581 0 
L 581 4863 
L 1159 4863 
L 1159 2956 
Q 1366 3272 1645 3428 
Q 1925 3584 2291 3584 
Q 2894 3584 3203 3211 
Q 3513 2838 3513 2113 
z
" transform="scale(0.015625)"/>
       <path id="DejaVuSans-6f" d="M 1959 3097 
Q 1497 3097 1228 2736 
Q 959 2375 959 1747 
Q 959 1119 1226 758 
Q 1494 397 1959 397 
Q 2419 397 2687 759 
Q 2956 1122 2956 1747 
Q 2956 2369 2687 2733 
Q 2419 3097 1959 3097 
z
M 1959 3584 
Q 2709 3584 3137 3096 
Q 3566 2609 3566 1747 
Q 3566 888 3137 398 
Q 2709 -91 1959 -91 
Q 1206 -91 779 398 
Q 353 888 353 1747 
Q 353 2609 779 3096 
Q 1206 3584 1959 3584 
z
" transform="scale(0.015625)"/>
       <path id="DejaVuSans-77" d="M 269 3500 
L 844 3500 
L 1563 769 
L 2278 3500 
L 2956 3500 
L 3675 769 
L 4391 3500 
L 4966 3500 
L 4050 0 
L 3372 0 
L 2619 2869 
L 1863 0 
L 1184 0 
L 269 3500 
z
" transform="scale(0.015625)"/>
       <path id="DejaVuSans-65" d="M 3597 1894 
L 3597 1613 
L 953 1613 
Q 991 1019 1311 708 
Q 1631 397 2203 397 
Q 2534 397 2845 478 
Q 3156 559 3463 722 
L 3463 178 
Q 3153 47 2828 -22 
Q 2503 -91 2169 -91 
Q 1331 -91 842 396 
Q 353 884 353 1716 
Q 353 2575 817 3079 
Q 1281 3584 2069 3584 
Q 2775 3584 3186 3129 
Q 3597 2675 3597 1894 
z
M 3022 2063 
Q 3016 2534 2758 2815 
Q 2500 3097 2075 3097 
Q 1594 3097 1305 2825 
Q 1016 2553 972 2059 
L 3022 2063 
z
" transform="scale(0.015625)"/>
       <path id="DejaVuSans-72" d="M 2631 2963 
Q 2534 3019 2420 3045 
Q 2306 3072 2169 3072 
Q 1681 3072 1420 2755 
Q 1159 2438 1159 1844 
L 1159 0 
L 581 0 
L 581 3500 
L 1159 3500 
L 1159 2956 
Q 1341 3275 1631 3429 
Q 1922 3584 2338 3584 
Q 2397 3584 2469 3576 
Q 2541 3569 2628 3553 
L 2631 2963 
z
" transform="scale(0.015625)"/>
      </defs>
      <use xlink:href="#DejaVuSans-73"/>
      <use xlink:href="#DejaVuSans-68" x="52.099609"/>
      <use xlink:href="#DejaVuSans-6f" x="115.478516"/>
      <use xlink:href="#DejaVuSans-77" x="176.660156"/>
      <use xlink:href="#DejaVuSans-65" x="258.447266"/>
      <use xlink:href="#DejaVuSans-72" x="319.970703"/>
     </g>
    </g>
    <g id="text_55">
     <!--  -->
     <g style="fill: #c0c0c0" transform="translate(383.917187 53.385156)scale(0.1 -0.1)">
      <use xlink:href="#FontAwesome6Brands-Regular-f2b4"/>
     </g>
    </g>
    <g id="text_56">
     <!-- flag -->
     <g transform="translate(406.292187 53.154688)scale(0.1 -0.1)">
      <defs>
       <path id="DejaVuSans-66" d="M 2375 4863 
L 2375 4384 
L 1825 4384 
Q 1516 4384 1395 4259 
Q 1275 4134 1275 3809 
L 1275 3500 
L 2222 3500 
L 2222 3053 
L 1275 3053 
L 1275 0 
L 697 0 
L 697 3053 
L 147 3053 
L 147 3500 
L 697 3500 
L 697 3744 
Q 697 4328 969 4595 
Q 1241 4863 1831 4863 
L 2375 4863 
z
" transform="scale(0.015625)"/>
       <path id="DejaVuSans-6c" d="M 603 4863 
L 1178 4863 
L 1178 0 
L 603 0 
L 603 4863 
z
" transform="scale(0.015625)"/>
       <path id="DejaVuSans-61" d="M 2194 1759 
Q 1497 1759 1228 1600 
Q 959 1441 959 1056 
Q 959 750 1161 570 
Q 1363 391 1709 391 
Q 2188 391 2477 730 
Q 2766 1069 2766 1631 
L 2766 1759 
L 2194 1759 
z
M 3341 1997 
L 3341 0 
L 2766 0 
L 2766 531 
Q 2569 213 2275 61 
Q 1981 -91 1556 -91 
Q 1019 -91 701 211 
Q 384 513 384 1019 
Q 384 1609 779 1909 
Q 1175 2209 1959 2209 
L 2766 2209 
L 2766 2266 
Q 2766 2663 2505 2880 
Q 2244 3097 1772 3097 
Q 1472 3097 1187 3025 
Q 903 2953 641 2809 
L 641 3341 
Q 956 3463 1253 3523 
Q 1550 3584 1831 3584 
Q 2591 3584 2966 3190 
Q 3341 2797 3341 1997 
z
" transform="scale(0.015625)"/>
       <path id="DejaVuSans-67" d="M 2906 1791 
Q 2906 2416 2648 2759 
Q 2391 3103 1925 3103 
Q 1463 3103 1205 2759 
Q 947 2416 947 1791 
Q 947 1169 1205 825 
Q 1463 481 1925 481 
Q 2391 481 2648 825 
Q 2906 1169 2906 1791 
z
M 3481 434 
Q 3481 -459 3084 -895 
Q 2688 -1331 1869 -1331 
Q 1566 -1331 1297 -1286 
Q 1028 -1241 775 -1147 
L 775 -588 
Q 1028 -725 1275 -790 
Q 1522 -856 1778 -856 
Q 2344 -856 2625 -561 
Q 2906 -266 2906 331 
L 2906 616 
Q 2728 306 2450 153 
Q 2172 0 1784 0 
Q 1141 0 747 490 
Q 353 981 353 1791 
Q 353 2603 747 3093 
Q 1141 3584 1784 3584 
Q 2172 3584 2450 3431 
Q 2728 3278 2906 2969 
L 2906 3500 
L 3481 3500 
L 3481 434 
z
" transform="scale(0.015625)"/>
      </defs>
      <use xlink:href="#DejaVuSans-66"/>
      <use xlink:href="#DejaVuSans-6c" x="35.205078"/>
      <use xlink:href="#DejaVuSans-61" x="62.988281"/>
      <use xlink:href="#DejaVuSans-67" x="124.267578"/>
     </g>
    </g>
   </g>
  </g>
 </g>
</svg>
