<?xml version="1.0" encoding="utf-8" standalone="no"?>
<!DOCTYPE svg PUBLIC "-//W3C//DTD SVG 1.1//EN"
  "http://www.w3.org/Graphics/SVG/1.1/DTD/svg11.dtd">
<svg xmlns:xlink="http://www.w3.org/1999/xlink" width="453.6pt" height="195.033766pt" viewBox="0 0 453.6 195.033766" xmlns="http://www.w3.org/2000/svg" version="1.1">
 <metadata>
  <rdf:RDF xmlns:dc="http://purl.org/dc/elements/1.1/" xmlns:cc="http://creativecommons.org/ns#" xmlns:rdf="http://www.w3.org/1999/02/22-rdf-syntax-ns#">
   <cc:Work>
    <dc:type rdf:resource="http://purl.org/dc/dcmitype/StillImage"/>
    <dc:date>2022-06-04T15:24:55.522677</dc:date>
    <dc:format>image/svg+xml</dc:format>
    <dc:creator>
     <cc:Agent>
      <dc:title>Matplotlib v3.5.2, https://matplotlib.org/</dc:title>
     </cc:Agent>
    </dc:creator>
   </cc:Work>
  </rdf:RDF>
 </metadata>
 <defs>
  <style type="text/css">*{stroke-linejoin: round; stroke-linecap: butt}</style>
 </defs>
 <g id="figure_1">
  <g id="patch_1">
   <path d="M 0 195.033766 
L 453.6 195.033766 
L 453.6 0 
L 0 0 
z
" style="fill: #ffffff"/>
  </g>
  <g id="axes_1">
   <g id="text_1">
    <!--  -->
    <g style="fill: #ffa500" transform="translate(7.2 185.177516)scale(0.2 -0.2)">
     <defs>
      <path id="FontAwesome5Free-Solid-f185" d="M 3200 3600 
C 2538 3600 2000 3050 2000 2400 
C 2000 1738 2538 1200 3200 1200 
C 3850 1200 4400 1738 4400 2400 
C 4400 3050 3850 3600 3200 3600 
z
M 6275 2588 
L 5088 3175 
L 5513 4438 
C 5563 4600 5400 4763 5238 4713 
L 3975 4288 
L 3388 5475 
C 3313 5638 3075 5638 3000 5475 
L 2413 4288 
L 1150 4713 
C 988 4763 825 4600 875 4438 
L 1300 3175 
L 113 2588 
C -50 2513 -50 2275 113 2200 
L 1300 1613 
L 875 350 
C 825 188 988 25 1150 75 
L 2413 500 
L 3000 -688 
C 3075 -850 3313 -850 3388 -688 
L 3975 500 
L 5238 75 
C 5400 25 5563 188 5513 350 
L 5088 1613 
L 6275 2200 
C 6438 2275 6438 2513 6275 2588 
z
M 4325 1263 
C 3700 638 2688 638 2063 1263 
C 1438 1888 1438 2900 2063 3525 
C 2688 4150 3700 4150 4325 3525 
C 4950 2900 4950 1888 4325 1263 
z
" transform="scale(0.015625)"/>
     </defs>
     <use xlink:href="#FontAwesome5Free-Solid-f185"/>
    </g>
   </g>
   <g id="text_2">
    <!--  -->
    <g style="fill: #ffa500" transform="translate(7.2 148.354582)scale(0.2 -0.2)">
     <use xlink:href="#FontAwesome5Free-Solid-f185"/>
    </g>
   </g>
   <g id="text_3">
    <!--  -->
    <g style="fill: #ffa500" transform="translate(7.2 111.531647)scale(0.2 -0.2)">
     <use xlink:href="#FontAwesome5Free-Solid-f185"/>
    </g>
   </g>
   <g id="text_4">
    <!--  -->
    <g style="fill: #ffa500" transform="translate(7.2 74.708713)scale(0.2 -0.2)">
     <use xlink:href="#FontAwesome5Free-Solid-f185"/>
    </g>
   </g>
   <g id="text_5">
    <!--  -->
    <g style="fill: #ffa500" transform="translate(7.2 37.885779)scale(0.2 -0.2)">
     <use xlink:href="#FontAwesome5Free-Solid-f185"/>
    </g>
   </g>
   <g id="text_6">
    <!--  -->
    <g style="fill: #ffa500" transform="translate(44.022934 185.177516)scale(0.2 -0.2)">
     <use xlink:href="#FontAwesome5Free-Solid-f185"/>
    </g>
   </g>
   <g id="text_7">
    <!--  -->
    <g style="fill: #ffa500" transform="translate(44.022934 148.354582)scale(0.2 -0.2)">
     <use xlink:href="#FontAwesome5Free-Solid-f185"/>
    </g>
   </g>
   <g id="text_8">
    <!--  -->
    <g style="fill: #ffa500" transform="translate(44.022934 111.531647)scale(0.2 -0.2)">
     <use xlink:href="#FontAwesome5Free-Solid-f185"/>
    </g>
   </g>
   <g id="text_9">
    <!--  -->
    <g style="fill: #ffa500" transform="translate(44.022934 74.708713)scale(0.2 -0.2)">
     <use xlink:href="#FontAwesome5Free-Solid-f185"/>
    </g>
   </g>
   <g id="text_10">
    <!--  -->
    <g style="fill: #ffa500" transform="translate(44.022934 37.885779)scale(0.2 -0.2)">
     <use xlink:href="#FontAwesome5Free-Solid-f185"/>
    </g>
   </g>
   <g id="text_11">
    <!--  -->
    <g style="fill: #ffa500" transform="translate(80.845869 185.177516)scale(0.2 -0.2)">
     <use xlink:href="#FontAwesome5Free-Solid-f185"/>
    </g>
   </g>
   <g id="text_12">
    <!--  -->
    <g style="fill: #ffa500" transform="translate(80.845869 148.354582)scale(0.2 -0.2)">
     <use xlink:href="#FontAwesome5Free-Solid-f185"/>
    </g>
   </g>
   <g id="text_13">
    <!--  -->
    <g style="fill: #ffa500" transform="translate(80.845869 111.531647)scale(0.2 -0.2)">
     <use xlink:href="#FontAwesome5Free-Solid-f185"/>
    </g>
   </g>
   <g id="text_14">
    <!--  -->
    <g style="fill: #ffa500" transform="translate(80.845869 74.708713)scale(0.2 -0.2)">
     <use xlink:href="#FontAwesome5Free-Solid-f185"/>
    </g>
   </g>
   <g id="text_15">
    <!--  -->
    <g style="fill: #ffa500" transform="translate(80.845869 37.885779)scale(0.2 -0.2)">
     <use xlink:href="#FontAwesome5Free-Solid-f185"/>
    </g>
   </g>
   <g id="text_16">
    <!--  -->
    <g style="fill: #ffa500" transform="translate(117.668803 185.177516)scale(0.2 -0.2)">
     <use xlink:href="#FontAwesome5Free-Solid-f185"/>
    </g>
   </g>
   <g id="text_17">
    <!--  -->
    <g style="fill: #ffa500" transform="translate(117.668803 148.354582)scale(0.2 -0.2)">
     <use xlink:href="#FontAwesome5Free-Solid-f185"/>
    </g>
   </g>
   <g id="text_18">
    <!--  -->
    <g style="fill: #ffa500" transform="translate(117.668803 111.531647)scale(0.2 -0.2)">
     <use xlink:href="#FontAwesome5Free-Solid-f185"/>
    </g>
   </g>
   <g id="text_19">
    <!--  -->
    <g style="fill: #ffa500" transform="translate(117.668803 74.708713)scale(0.2 -0.2)">
     <use xlink:href="#FontAwesome5Free-Solid-f185"/>
    </g>
   </g>
   <g id="text_20">
    <!--  -->
    <g style="fill: #ffa500" transform="translate(117.668803 37.885779)scale(0.2 -0.2)">
     <use xlink:href="#FontAwesome5Free-Solid-f185"/>
    </g>
   </g>
   <g id="text_21">
    <!--  -->
    <g style="fill: #ffa500" transform="translate(154.491737 185.177516)scale(0.2 -0.2)">
     <use xlink:href="#FontAwesome5Free-Solid-f185"/>
    </g>
   </g>
   <g id="text_22">
    <!--  -->
    <g style="fill: #ffa500" transform="translate(154.491737 148.354582)scale(0.2 -0.2)">
     <use xlink:href="#FontAwesome5Free-Solid-f185"/>
    </g>
   </g>
   <g id="text_23">
    <!--  -->
    <g style="fill: #ffa500" transform="translate(154.491737 111.531647)scale(0.2 -0.2)">
     <use xlink:href="#FontAwesome5Free-Solid-f185"/>
    </g>
   </g>
   <g id="text_24">
    <!--  -->
    <g style="fill: #ffa500" transform="translate(154.491737 74.708713)scale(0.2 -0.2)">
     <use xlink:href="#FontAwesome5Free-Solid-f185"/>
    </g>
   </g>
   <g id="text_25">
    <!--  -->
    <g style="fill: #ffa500" transform="translate(154.491737 37.885779)scale(0.2 -0.2)">
     <use xlink:href="#FontAwesome5Free-Solid-f185"/>
    </g>
   </g>
   <g id="text_26">
    <!--  -->
    <g style="fill: #ffa500" transform="translate(191.314672 185.177516)scale(0.2 -0.2)">
     <use xlink:href="#FontAwesome5Free-Solid-f185"/>
    </g>
   </g>
   <g id="text_27">
    <!--  -->
    <g style="fill: #ffa500" transform="translate(191.314672 148.354582)scale(0.2 -0.2)">
     <use xlink:href="#FontAwesome5Free-Solid-f185"/>
    </g>
   </g>
   <g id="text_28">
    <!--  -->
    <g style="fill: #ffa500" transform="translate(191.314672 111.531647)scale(0.2 -0.2)">
     <use xlink:href="#FontAwesome5Free-Solid-f185"/>
    </g>
   </g>
   <g id="text_29">
    <!--  -->
    <g style="fill: #ffa500" transform="translate(191.314672 74.708713)scale(0.2 -0.2)">
     <use xlink:href="#FontAwesome5Free-Solid-f185"/>
    </g>
   </g>
   <g id="text_30">
    <!--  -->
    <g style="fill: #ffa500" transform="translate(191.314672 37.885779)scale(0.2 -0.2)">
     <use xlink:href="#FontAwesome5Free-Solid-f185"/>
    </g>
   </g>
   <g id="text_31">
    <!--  -->
    <g style="fill: #4384ff" transform="translate(228.137606 185.177516)scale(0.2 -0.2)">
     <defs>
      <path id="FontAwesome5Free-Solid-f740" d="M 2288 963 
C 2200 1025 2075 988 2025 888 
L 1225 -513 
C 1163 -600 1200 -725 1300 -775 
C 1325 -800 1363 -800 1400 -800 
C 1463 -800 1525 -775 1563 -700 
L 2363 700 
C 2425 788 2388 913 2288 963 
z
M 3488 963 
C 3400 1025 3275 988 3225 888 
L 2425 -513 
C 2363 -600 2400 -725 2500 -775 
C 2525 -800 2563 -800 2600 -800 
C 2663 -800 2725 -775 2763 -700 
L 3563 700 
C 3625 788 3588 913 3488 963 
z
M 1088 963 
C 1000 1025 875 988 825 888 
L 25 -513 
C -38 -600 0 -725 100 -775 
C 125 -800 163 -800 200 -800 
C 263 -800 325 -775 363 -700 
L 1163 700 
C 1225 788 1188 913 1088 963 
z
M 5888 963 
C 5800 1025 5675 988 5625 888 
L 4825 -513 
C 4763 -600 4800 -725 4900 -775 
C 4925 -800 4963 -800 5000 -800 
C 5063 -800 5125 -775 5163 -700 
L 5963 700 
C 6025 788 5988 913 5888 963 
z
M 4688 963 
C 4600 1025 4475 988 4425 888 
L 3625 -513 
C 3563 -600 3600 -725 3700 -775 
C 3725 -800 3763 -800 3800 -800 
C 3863 -800 3925 -775 3963 -700 
L 4763 700 
C 4825 788 4788 913 4688 963 
z
M 5200 4000 
C 5188 4000 5175 3988 5175 3988 
C 5188 4063 5200 4125 5200 4200 
C 5200 4750 4750 5200 4200 5200 
C 3888 5200 3613 5050 3438 4838 
C 3200 5288 2738 5600 2200 5600 
C 1425 5600 800 4963 800 4200 
C 800 4100 800 4013 825 3925 
C 338 3775 0 3325 0 2800 
C 0 2138 538 1600 1200 1600 
L 5200 1600 
C 5863 1600 6400 2138 6400 2800 
C 6400 3463 5863 4000 5200 4000 
z
" transform="scale(0.015625)"/>
     </defs>
     <use xlink:href="#FontAwesome5Free-Solid-f740"/>
    </g>
   </g>
   <g id="text_32">
    <!--  -->
    <g style="fill: #4384ff" transform="translate(228.137606 148.354582)scale(0.2 -0.2)">
     <use xlink:href="#FontAwesome5Free-Solid-f740"/>
    </g>
   </g>
   <g id="text_33">
    <!--  -->
    <g style="fill: #4384ff" transform="translate(228.137606 111.531647)scale(0.2 -0.2)">
     <use xlink:href="#FontAwesome5Free-Solid-f740"/>
    </g>
   </g>
   <g id="text_34">
    <!--  -->
    <g style="fill: #4384ff" transform="translate(228.137606 74.708713)scale(0.2 -0.2)">
     <use xlink:href="#FontAwesome5Free-Solid-f740"/>
    </g>
   </g>
   <g id="text_35">
    <!--  -->
    <g style="fill: #4384ff" transform="translate(228.137606 37.885779)scale(0.2 -0.2)">
     <use xlink:href="#FontAwesome5Free-Solid-f740"/>
    </g>
   </g>
   <g id="text_36">
    <!--  -->
    <g style="fill: #4384ff" transform="translate(264.96054 185.177516)scale(0.2 -0.2)">
     <use xlink:href="#FontAwesome5Free-Solid-f740"/>
    </g>
   </g>
   <g id="text_37">
    <!--  -->
    <g style="fill: #4384ff" transform="translate(264.96054 148.354582)scale(0.2 -0.2)">
     <use xlink:href="#FontAwesome5Free-Solid-f740"/>
    </g>
   </g>
   <g id="text_38">
    <!--  -->
    <g style="fill: #4384ff" transform="translate(264.96054 111.531647)scale(0.2 -0.2)">
     <use xlink:href="#FontAwesome5Free-Solid-f740"/>
    </g>
   </g>
   <g id="text_39">
    <!--  -->
    <g style="fill: #4384ff" transform="translate(264.96054 74.708713)scale(0.2 -0.2)">
     <use xlink:href="#FontAwesome5Free-Solid-f740"/>
    </g>
   </g>
   <g id="text_40">
    <!--  -->
    <g style="fill: #4384ff" transform="translate(264.96054 37.885779)scale(0.2 -0.2)">
     <use xlink:href="#FontAwesome5Free-Solid-f740"/>
    </g>
   </g>
   <g id="text_41">
    <!--  -->
    <g style="fill: #4384ff" transform="translate(301.783475 185.177516)scale(0.2 -0.2)">
     <use xlink:href="#FontAwesome5Free-Solid-f740"/>
    </g>
   </g>
   <g id="text_42">
    <!--  -->
    <g style="fill: #4384ff" transform="translate(301.783475 148.354582)scale(0.2 -0.2)">
     <use xlink:href="#FontAwesome5Free-Solid-f740"/>
    </g>
   </g>
   <g id="text_43">
    <!--  -->
    <g style="fill: #4384ff" transform="translate(301.783475 111.531647)scale(0.2 -0.2)">
     <use xlink:href="#FontAwesome5Free-Solid-f740"/>
    </g>
   </g>
   <g id="text_44">
    <!--  -->
    <g style="fill: #4384ff" transform="translate(301.783475 74.708713)scale(0.2 -0.2)">
     <use xlink:href="#FontAwesome5Free-Solid-f740"/>
    </g>
   </g>
   <g id="text_45">
    <!--  -->
    <g style="fill: #4384ff" transform="translate(301.783475 37.885779)scale(0.2 -0.2)">
     <use xlink:href="#FontAwesome5Free-Solid-f740"/>
    </g>
   </g>
   <g id="text_46">
    <!--  -->
    <g style="fill: #4384ff" transform="translate(338.606409 185.177516)scale(0.2 -0.2)">
     <use xlink:href="#FontAwesome5Free-Solid-f740"/>
    </g>
   </g>
   <g id="text_47">
    <!--  -->
    <g style="fill: #c0c0c0" transform="translate(338.606409 148.354582)scale(0.2 -0.2)">
     <defs>
      <path id="FontAwesome5Free-Solid-f2dc" d="M 5500 1275 
L 5075 1525 
L 5400 1613 
C 5500 1638 5563 1750 5538 1850 
L 5488 2038 
C 5463 2138 5350 2200 5250 2175 
L 4363 1938 
L 3563 2400 
L 4363 2850 
L 5250 2613 
C 5350 2588 5463 2650 5488 2750 
L 5538 2938 
C 5563 3038 5500 3150 5400 3175 
L 5075 3263 
L 5500 3513 
C 5588 3563 5625 3675 5563 3775 
L 5375 4113 
C 5325 4200 5200 4225 5113 4175 
L 4688 3938 
L 4775 4263 
C 4800 4363 4738 4463 4638 4500 
L 4450 4550 
C 4350 4575 4250 4513 4213 4413 
L 3975 3525 
L 3200 3075 
L 3200 4038 
L 3863 4713 
C 3938 4788 3938 4913 3863 5000 
L 3725 5138 
C 3650 5213 3525 5213 3438 5138 
L 3200 4888 
L 3200 5400 
C 3200 5500 3100 5600 3000 5600 
L 2600 5600 
C 2488 5600 2400 5500 2400 5400 
L 2400 4888 
L 2150 5138 
C 2075 5213 1938 5213 1863 5138 
L 1725 5000 
C 1650 4913 1650 4788 1725 4713 
L 2400 4038 
L 2400 3075 
L 1613 3525 
L 1375 4413 
C 1350 4513 1238 4575 1138 4550 
L 950 4500 
C 850 4463 788 4363 813 4263 
L 900 3938 
L 475 4175 
C 388 4238 263 4200 213 4113 
L 25 3775 
C -38 3675 0 3563 88 3513 
L 513 3263 
L 188 3175 
C 88 3150 25 3050 50 2938 
L 100 2750 
C 125 2650 238 2588 338 2613 
L 1225 2850 
L 2025 2400 
L 1225 1938 
L 338 2175 
C 238 2200 125 2138 100 2038 
L 50 1850 
C 25 1750 88 1638 188 1613 
L 513 1525 
L 88 1275 
C 0 1225 -38 1113 25 1013 
L 213 675 
C 263 588 388 563 475 613 
L 900 850 
L 813 525 
C 788 425 850 325 950 288 
L 1138 238 
C 1238 213 1338 275 1375 375 
L 1613 1263 
L 2388 1713 
L 2388 750 
L 1725 75 
C 1638 0 1638 -125 1725 -213 
L 1863 -350 
C 1938 -425 2063 -425 2150 -350 
L 2388 -100 
L 2388 -600 
C 2388 -713 2488 -800 2588 -800 
L 2988 -800 
C 3100 -800 3188 -713 3188 -600 
L 3188 -100 
L 3438 -350 
C 3513 -425 3638 -425 3725 -350 
L 3863 -200 
C 3938 -125 3938 0 3863 75 
L 3200 750 
L 3200 1713 
L 3975 1263 
L 4213 375 
C 4250 275 4350 213 4450 238 
L 4638 288 
C 4738 325 4800 425 4775 525 
L 4688 850 
L 5113 613 
C 5200 563 5325 588 5375 688 
L 5563 1013 
C 5625 1113 5588 1225 5500 1275 
z
" transform="scale(0.015625)"/>
     </defs>
     <use xlink:href="#FontAwesome5Free-Solid-f2dc"/>
    </g>
   </g>
   <g id="text_48">
    <!--  -->
    <g style="fill: #c0c0c0" transform="translate(338.606409 111.531647)scale(0.2 -0.2)">
     <use xlink:href="#FontAwesome5Free-Solid-f2dc"/>
    </g>
   </g>
   <g id="text_49">
    <!--  -->
    <g style="fill: #c0c0c0" transform="translate(338.606409 74.708713)scale(0.2 -0.2)">
     <use xlink:href="#FontAwesome5Free-Solid-f2dc"/>
    </g>
   </g>
   <g id="text_50">
    <!--  -->
    <g style="fill: #c0c0c0" transform="translate(338.606409 37.885779)scale(0.2 -0.2)">
     <use xlink:href="#FontAwesome5Free-Solid-f2dc"/>
    </g>
   </g>
   <g id="legend_1">
    <g id="patch_2">
     <path d="M 376.292187 59.234375 
L 444.4 59.234375 
Q 446.4 59.234375 446.4 57.234375 
L 446.4 14.2 
Q 446.4 12.2 444.4 12.2 
L 376.292187 12.2 
Q 374.292187 12.2 374.292187 14.2 
L 374.292187 57.234375 
Q 374.292187 59.234375 376.292187 59.234375 
z
" style="fill: #ffffff; opacity: 0.8; stroke: #cccccc; stroke-linejoin: miter"/>
    </g>
    <g id="text_51">
     <!--  -->
     <g style="fill: #ffa500" transform="translate(383.292187 24.039062)scale(0.1 -0.1)">
      <use xlink:href="#FontAwesome5Free-Solid-f185"/>
     </g>
    </g>
    <g id="text_52">
     <!-- sun -->
     <g transform="translate(406.292187 23.798437)scale(0.1 -0.1)">
      <defs>
       <path id="DejaVuSans-73" d="M 2834 3397 
L 2834 2853 
Q 2591 2978 2328 3040 
Q 2066 3103 1784 3103 
Q 1356 3103 1142 2972 
Q 928 2841 928 2578 
Q 928 2378 1081 2264 
Q 1234 2150 1697 2047 
L 1894 2003 
Q 2506 1872 2764 1633 
Q 3022 1394 3022 966 
Q 3022 478 2636 193 
Q 2250 -91 1575 -91 
Q 1294 -91 989 -36 
Q 684 19 347 128 
L 347 722 
Q 666 556 975 473 
Q 1284 391 1588 391 
Q 1994 391 2212 530 
Q 2431 669 2431 922 
Q 2431 1156 2273 1281 
Q 2116 1406 1581 1522 
L 1381 1569 
Q 847 1681 609 1914 
Q 372 2147 372 2553 
Q 372 3047 722 3315 
Q 1072 3584 1716 3584 
Q 2034 3584 2315 3537 
Q 2597 3491 2834 3397 
z
" transform="scale(0.015625)"/>
       <path id="DejaVuSans-75" d="M 544 1381 
L 544 3500 
L 1119 3500 
L 1119 1403 
Q 1119 906 1312 657 
Q 1506 409 1894 409 
Q 2359 409 2629 706 
Q 2900 1003 2900 1516 
L 2900 3500 
L 3475 3500 
L 3475 0 
L 2900 0 
L 2900 538 
Q 2691 219 2414 64 
Q 2138 -91 1772 -91 
Q 1169 -91 856 284 
Q 544 659 544 1381 
z
M 1991 3584 
L 1991 3584 
z
" transform="scale(0.015625)"/>
       <path id="DejaVuSans-6e" d="M 3513 2113 
L 3513 0 
L 2938 0 
L 2938 2094 
Q 2938 2591 2744 2837 
Q 2550 3084 2163 3084 
Q 1697 3084 1428 2787 
Q 1159 2491 1159 1978 
L 1159 0 
L 581 0 
L 581 3500 
L 1159 3500 
L 1159 2956 
Q 1366 3272 1645 3428 
Q 1925 3584 2291 3584 
Q 2894 3584 3203 3211 
Q 3513 2838 3513 2113 
z
" transform="scale(0.015625)"/>
      </defs>
      <use xlink:href="#DejaVuSans-73"/>
      <use xlink:href="#DejaVuSans-75" x="52.099609"/>
      <use xlink:href="#DejaVuSans-6e" x="115.478516"/>
     </g>
    </g>
    <g id="text_53">
     <!--  -->
     <g style="fill: #4384ff" transform="translate(383.292187 38.726562)scale(0.1 -0.1)">
      <use xlink:href="#FontAwesome5Free-Solid-f740"/>
     </g>
    </g>
    <g id="text_54">
     <!-- shower -->
     <g transform="translate(406.292187 38.476562)scale(0.1 -0.1)">
      <defs>
       <path id="DejaVuSans-68" d="M 3513 2113 
L 3513 0 
L 2938 0 
L 2938 2094 
Q 2938 2591 2744 2837 
Q 2550 3084 2163 3084 
Q 1697 3084 1428 2787 
Q 1159 2491 1159 1978 
L 1159 0 
L 581 0 
L 581 4863 
L 1159 4863 
L 1159 2956 
Q 1366 3272 1645 3428 
Q 1925 3584 2291 3584 
Q 2894 3584 3203 3211 
Q 3513 2838 3513 2113 
z
" transform="scale(0.015625)"/>
       <path id="DejaVuSans-6f" d="M 1959 3097 
Q 1497 3097 1228 2736 
Q 959 2375 959 1747 
Q 959 1119 1226 758 
Q 1494 397 1959 397 
Q 2419 397 2687 759 
Q 2956 1122 2956 1747 
Q 2956 2369 2687 2733 
Q 2419 3097 1959 3097 
z
M 1959 3584 
Q 2709 3584 3137 3096 
Q 3566 2609 3566 1747 
Q 3566 888 3137 398 
Q 2709 -91 1959 -91 
Q 1206 -91 779 398 
Q 353 888 353 1747 
Q 353 2609 779 3096 
Q 1206 3584 1959 3584 
z
" transform="scale(0.015625)"/>
       <path id="DejaVuSans-77" d="M 269 3500 
L 844 3500 
L 1563 769 
L 2278 3500 
L 2956 3500 
L 3675 769 
L 4391 3500 
L 4966 3500 
L 4050 0 
L 3372 0 
L 2619 2869 
L 1863 0 
L 1184 0 
L 269 3500 
z
" transform="scale(0.015625)"/>
       <path id="DejaVuSans-65" d="M 3597 1894 
L 3597 1613 
L 953 1613 
Q 991 1019 1311 708 
Q 1631 397 2203 397 
Q 2534 397 2845 478 
Q 3156 559 3463 722 
L 3463 178 
Q 3153 47 2828 -22 
Q 2503 -91 2169 -91 
Q 1331 -91 842 396 
Q 353 884 353 1716 
Q 353 2575 817 3079 
Q 1281 3584 2069 3584 
Q 2775 3584 3186 3129 
Q 3597 2675 3597 1894 
z
M 3022 2063 
Q 3016 2534 2758 2815 
Q 2500 3097 2075 3097 
Q 1594 3097 1305 2825 
Q 1016 2553 972 2059 
L 3022 2063 
z
" transform="scale(0.015625)"/>
       <path id="DejaVuSans-72" d="M 2631 2963 
Q 2534 3019 2420 3045 
Q 2306 3072 2169 3072 
Q 1681 3072 1420 2755 
Q 1159 2438 1159 1844 
L 1159 0 
L 581 0 
L 581 3500 
L 1159 3500 
L 1159 2956 
Q 1341 3275 1631 3429 
Q 1922 3584 2338 3584 
Q 2397 3584 2469 3576 
Q 2541 3569 2628 3553 
L 2631 2963 
z
" transform="scale(0.015625)"/>
      </defs>
      <use xlink:href="#DejaVuSans-73"/>
      <use xlink:href="#DejaVuSans-68" x="52.099609"/>
      <use xlink:href="#DejaVuSans-6f" x="115.478516"/>
      <use xlink:href="#DejaVuSans-77" x="176.660156"/>
      <use xlink:href="#DejaVuSans-65" x="258.447266"/>
      <use xlink:href="#DejaVuSans-72" x="319.970703"/>
     </g>
    </g>
    <g id="text_55">
     <!--  -->
     <g style="fill: #c0c0c0" transform="translate(383.917187 53.404687)scale(0.1 -0.1)">
      <use xlink:href="#FontAwesome5Free-Solid-f2dc"/>
     </g>
    </g>
    <g id="text_56">
     <!-- snow -->
     <g transform="translate(406.292187 53.154687)scale(0.1 -0.1)">
      <use xlink:href="#DejaVuSans-73"/>
      <use xlink:href="#DejaVuSans-6e" x="52.099609"/>
      <use xlink:href="#DejaVuSans-6f" x="115.478516"/>
      <use xlink:href="#DejaVuSans-77" x="176.660156"/>
     </g>
    </g>
   </g>
  </g>
 </g>
</svg>
