<?xml version="1.0" encoding="utf-8" standalone="no"?>
<!DOCTYPE svg PUBLIC "-//W3C//DTD SVG 1.1//EN"
  "http://www.w3.org/Graphics/SVG/1.1/DTD/svg11.dtd">
<!-- Created with matplotlib (https://matplotlib.org/) -->
<svg height="195.565016pt" version="1.1" viewBox="0 0 453.6 195.565016" width="453.6pt" xmlns="http://www.w3.org/2000/svg" xmlns:xlink="http://www.w3.org/1999/xlink">
 <defs>
  <style type="text/css">
*{stroke-linecap:butt;stroke-linejoin:round;}
  </style>
 </defs>
 <g id="figure_1">
  <g id="patch_1">
   <path d="M 0 195.565016 
L 453.6 195.565016 
L 453.6 -0 
L 0 -0 
z
" style="fill:#ffffff;"/>
  </g>
  <g id="axes_1">
   <g id="text_1">
    <!--  -->
    <defs>
     <path d="M 50 56.25 
C 39.65625 56.25 31.25 47.65625 31.25 37.5 
C 31.25 27.15625 39.65625 18.75 50 18.75 
C 60.15625 18.75 68.75 27.15625 68.75 37.5 
C 68.75 47.65625 60.15625 56.25 50 56.25 
z
M 98.046875 40.4375 
L 79.5 49.609375 
L 86.140625 69.34375 
C 86.921875 71.875 84.375 74.421875 81.84375 73.640625 
L 62.109375 67 
L 52.9375 85.546875 
C 51.765625 88.09375 48.046875 88.09375 46.875 85.546875 
L 37.703125 67 
L 17.96875 73.640625 
C 15.4375 74.421875 12.890625 71.875 13.671875 69.34375 
L 20.3125 49.609375 
L 1.765625 40.4375 
C -0.78125 39.265625 -0.78125 35.546875 1.765625 34.375 
L 20.3125 25.203125 
L 13.671875 5.46875 
C 12.890625 2.9375 15.4375 0.390625 17.96875 1.171875 
L 37.703125 7.8125 
L 46.875 -10.75 
C 48.046875 -13.28125 51.765625 -13.28125 52.9375 -10.75 
L 62.109375 7.8125 
L 81.84375 1.171875 
C 84.375 0.390625 86.921875 2.9375 86.140625 5.46875 
L 79.5 25.203125 
L 98.046875 34.375 
C 100.59375 35.546875 100.59375 39.265625 98.046875 40.4375 
z
M 67.578125 19.734375 
C 57.8125 9.96875 42 9.96875 32.234375 19.734375 
C 22.46875 29.5 22.46875 45.3125 32.234375 55.078125 
C 42 64.84375 57.8125 64.84375 67.578125 55.078125 
C 77.34375 45.3125 77.34375 29.5 67.578125 19.734375 
z
" id="FontAwesome5Free-Solid-61829"/>
    </defs>
    <g style="fill:#ffa500;" transform="translate(7.2 185.177516)scale(0.24 -0.24)">
     <use xlink:href="#FontAwesome5Free-Solid-61829"/>
    </g>
   </g>
   <g id="text_2">
    <!--  -->
    <g style="fill:#ffa500;" transform="translate(7.2 148.354582)scale(0.24 -0.24)">
     <use xlink:href="#FontAwesome5Free-Solid-61829"/>
    </g>
   </g>
   <g id="text_3">
    <!--  -->
    <g style="fill:#ffa500;" transform="translate(7.2 111.531647)scale(0.24 -0.24)">
     <use xlink:href="#FontAwesome5Free-Solid-61829"/>
    </g>
   </g>
   <g id="text_4">
    <!--  -->
    <g style="fill:#ffa500;" transform="translate(7.2 74.708713)scale(0.24 -0.24)">
     <use xlink:href="#FontAwesome5Free-Solid-61829"/>
    </g>
   </g>
   <g id="text_5">
    <!--  -->
    <g style="fill:#ffa500;" transform="translate(7.2 37.885779)scale(0.24 -0.24)">
     <use xlink:href="#FontAwesome5Free-Solid-61829"/>
    </g>
   </g>
   <g id="text_6">
    <!--  -->
    <g style="fill:#ffa500;" transform="translate(44.022934 185.177516)scale(0.24 -0.24)">
     <use xlink:href="#FontAwesome5Free-Solid-61829"/>
    </g>
   </g>
   <g id="text_7">
    <!--  -->
    <g style="fill:#ffa500;" transform="translate(44.022934 148.354582)scale(0.24 -0.24)">
     <use xlink:href="#FontAwesome5Free-Solid-61829"/>
    </g>
   </g>
   <g id="text_8">
    <!--  -->
    <g style="fill:#ffa500;" transform="translate(44.022934 111.531647)scale(0.24 -0.24)">
     <use xlink:href="#FontAwesome5Free-Solid-61829"/>
    </g>
   </g>
   <g id="text_9">
    <!--  -->
    <g style="fill:#ffa500;" transform="translate(44.022934 74.708713)scale(0.24 -0.24)">
     <use xlink:href="#FontAwesome5Free-Solid-61829"/>
    </g>
   </g>
   <g id="text_10">
    <!--  -->
    <g style="fill:#ffa500;" transform="translate(44.022934 37.885779)scale(0.24 -0.24)">
     <use xlink:href="#FontAwesome5Free-Solid-61829"/>
    </g>
   </g>
   <g id="text_11">
    <!--  -->
    <g style="fill:#ffa500;" transform="translate(80.845869 185.177516)scale(0.24 -0.24)">
     <use xlink:href="#FontAwesome5Free-Solid-61829"/>
    </g>
   </g>
   <g id="text_12">
    <!--  -->
    <g style="fill:#ffa500;" transform="translate(80.845869 148.354582)scale(0.24 -0.24)">
     <use xlink:href="#FontAwesome5Free-Solid-61829"/>
    </g>
   </g>
   <g id="text_13">
    <!--  -->
    <g style="fill:#ffa500;" transform="translate(80.845869 111.531647)scale(0.24 -0.24)">
     <use xlink:href="#FontAwesome5Free-Solid-61829"/>
    </g>
   </g>
   <g id="text_14">
    <!--  -->
    <g style="fill:#ffa500;" transform="translate(80.845869 74.708713)scale(0.24 -0.24)">
     <use xlink:href="#FontAwesome5Free-Solid-61829"/>
    </g>
   </g>
   <g id="text_15">
    <!--  -->
    <g style="fill:#ffa500;" transform="translate(80.845869 37.885779)scale(0.24 -0.24)">
     <use xlink:href="#FontAwesome5Free-Solid-61829"/>
    </g>
   </g>
   <g id="text_16">
    <!--  -->
    <g style="fill:#ffa500;" transform="translate(117.668803 185.177516)scale(0.24 -0.24)">
     <use xlink:href="#FontAwesome5Free-Solid-61829"/>
    </g>
   </g>
   <g id="text_17">
    <!--  -->
    <g style="fill:#ffa500;" transform="translate(117.668803 148.354582)scale(0.24 -0.24)">
     <use xlink:href="#FontAwesome5Free-Solid-61829"/>
    </g>
   </g>
   <g id="text_18">
    <!--  -->
    <g style="fill:#ffa500;" transform="translate(117.668803 111.531647)scale(0.24 -0.24)">
     <use xlink:href="#FontAwesome5Free-Solid-61829"/>
    </g>
   </g>
   <g id="text_19">
    <!--  -->
    <g style="fill:#ffa500;" transform="translate(117.668803 74.708713)scale(0.24 -0.24)">
     <use xlink:href="#FontAwesome5Free-Solid-61829"/>
    </g>
   </g>
   <g id="text_20">
    <!--  -->
    <g style="fill:#ffa500;" transform="translate(117.668803 37.885779)scale(0.24 -0.24)">
     <use xlink:href="#FontAwesome5Free-Solid-61829"/>
    </g>
   </g>
   <g id="text_21">
    <!--  -->
    <g style="fill:#ffa500;" transform="translate(154.491737 185.177516)scale(0.24 -0.24)">
     <use xlink:href="#FontAwesome5Free-Solid-61829"/>
    </g>
   </g>
   <g id="text_22">
    <!--  -->
    <g style="fill:#ffa500;" transform="translate(154.491737 148.354582)scale(0.24 -0.24)">
     <use xlink:href="#FontAwesome5Free-Solid-61829"/>
    </g>
   </g>
   <g id="text_23">
    <!--  -->
    <g style="fill:#ffa500;" transform="translate(154.491737 111.531647)scale(0.24 -0.24)">
     <use xlink:href="#FontAwesome5Free-Solid-61829"/>
    </g>
   </g>
   <g id="text_24">
    <!--  -->
    <g style="fill:#ffa500;" transform="translate(154.491737 74.708713)scale(0.24 -0.24)">
     <use xlink:href="#FontAwesome5Free-Solid-61829"/>
    </g>
   </g>
   <g id="text_25">
    <!--  -->
    <g style="fill:#ffa500;" transform="translate(154.491737 37.885779)scale(0.24 -0.24)">
     <use xlink:href="#FontAwesome5Free-Solid-61829"/>
    </g>
   </g>
   <g id="text_26">
    <!--  -->
    <g style="fill:#ffa500;" transform="translate(191.314672 185.177516)scale(0.24 -0.24)">
     <use xlink:href="#FontAwesome5Free-Solid-61829"/>
    </g>
   </g>
   <g id="text_27">
    <!--  -->
    <g style="fill:#ffa500;" transform="translate(191.314672 148.354582)scale(0.24 -0.24)">
     <use xlink:href="#FontAwesome5Free-Solid-61829"/>
    </g>
   </g>
   <g id="text_28">
    <!--  -->
    <g style="fill:#ffa500;" transform="translate(191.314672 111.531647)scale(0.24 -0.24)">
     <use xlink:href="#FontAwesome5Free-Solid-61829"/>
    </g>
   </g>
   <g id="text_29">
    <!--  -->
    <g style="fill:#ffa500;" transform="translate(191.314672 74.708713)scale(0.24 -0.24)">
     <use xlink:href="#FontAwesome5Free-Solid-61829"/>
    </g>
   </g>
   <g id="text_30">
    <!--  -->
    <g style="fill:#ffa500;" transform="translate(191.314672 37.885779)scale(0.24 -0.24)">
     <use xlink:href="#FontAwesome5Free-Solid-61829"/>
    </g>
   </g>
   <g id="text_31">
    <!--  -->
    <defs>
     <path d="M 35.75 15.046875 
C 34.375 16.015625 32.421875 15.4375 31.640625 13.875 
L 19.140625 -8.015625 
C 18.171875 -9.375 18.75 -11.328125 20.3125 -12.109375 
C 20.703125 -12.5 21.296875 -12.5 21.875 -12.5 
C 22.859375 -12.5 23.828125 -12.109375 24.421875 -10.9375 
L 36.921875 10.9375 
C 37.890625 12.3125 37.3125 14.265625 35.75 15.046875 
z
M 54.5 15.046875 
C 53.125 16.015625 51.171875 15.4375 50.390625 13.875 
L 37.890625 -8.015625 
C 36.921875 -9.375 37.5 -11.328125 39.0625 -12.109375 
C 39.453125 -12.5 40.046875 -12.5 40.625 -12.5 
C 41.609375 -12.5 42.578125 -12.109375 43.171875 -10.9375 
L 55.671875 10.9375 
C 56.640625 12.3125 56.0625 14.265625 54.5 15.046875 
z
M 17 15.046875 
C 15.625 16.015625 13.671875 15.4375 12.890625 13.875 
L 0.390625 -8.015625 
C -0.59375 -9.375 0 -11.328125 1.5625 -12.109375 
C 1.953125 -12.5 2.546875 -12.5 3.125 -12.5 
C 4.109375 -12.5 5.078125 -12.109375 5.671875 -10.9375 
L 18.171875 10.9375 
C 19.140625 12.3125 18.5625 14.265625 17 15.046875 
z
M 92 15.046875 
C 90.625 16.015625 88.671875 15.4375 87.890625 13.875 
L 75.390625 -8.015625 
C 74.421875 -9.375 75 -11.328125 76.5625 -12.109375 
C 76.953125 -12.5 77.546875 -12.5 78.125 -12.5 
C 79.109375 -12.5 80.078125 -12.109375 80.671875 -10.9375 
L 93.171875 10.9375 
C 94.140625 12.3125 93.5625 14.265625 92 15.046875 
z
M 73.25 15.046875 
C 71.875 16.015625 69.921875 15.4375 69.140625 13.875 
L 56.640625 -8.015625 
C 55.671875 -9.375 56.25 -11.328125 57.8125 -12.109375 
C 58.203125 -12.5 58.796875 -12.5 59.375 -12.5 
C 60.359375 -12.5 61.328125 -12.109375 61.921875 -10.9375 
L 74.421875 10.9375 
C 75.390625 12.3125 74.8125 14.265625 73.25 15.046875 
z
M 81.25 62.5 
C 81.0625 62.5 80.859375 62.3125 80.859375 62.3125 
C 81.0625 63.484375 81.25 64.453125 81.25 65.625 
C 81.25 74.21875 74.21875 81.25 65.625 81.25 
C 60.75 81.25 56.453125 78.90625 53.71875 75.59375 
C 50 82.625 42.78125 87.5 34.375 87.5 
C 22.265625 87.5 12.5 77.546875 12.5 65.625 
C 12.5 64.0625 12.5 62.703125 12.890625 61.328125 
C 5.28125 58.984375 0 51.953125 0 43.75 
C 0 33.40625 8.40625 25 18.75 25 
L 81.25 25 
C 91.609375 25 100 33.40625 100 43.75 
C 100 54.109375 91.609375 62.5 81.25 62.5 
z
" id="FontAwesome5Free-Solid-63296"/>
    </defs>
    <g style="fill:#4384ff;" transform="translate(228.137606 185.177516)scale(0.24 -0.24)">
     <use xlink:href="#FontAwesome5Free-Solid-63296"/>
    </g>
   </g>
   <g id="text_32">
    <!--  -->
    <g style="fill:#4384ff;" transform="translate(228.137606 148.354582)scale(0.24 -0.24)">
     <use xlink:href="#FontAwesome5Free-Solid-63296"/>
    </g>
   </g>
   <g id="text_33">
    <!--  -->
    <g style="fill:#4384ff;" transform="translate(228.137606 111.531647)scale(0.24 -0.24)">
     <use xlink:href="#FontAwesome5Free-Solid-63296"/>
    </g>
   </g>
   <g id="text_34">
    <!--  -->
    <g style="fill:#4384ff;" transform="translate(228.137606 74.708713)scale(0.24 -0.24)">
     <use xlink:href="#FontAwesome5Free-Solid-63296"/>
    </g>
   </g>
   <g id="text_35">
    <!--  -->
    <g style="fill:#4384ff;" transform="translate(228.137606 37.885779)scale(0.24 -0.24)">
     <use xlink:href="#FontAwesome5Free-Solid-63296"/>
    </g>
   </g>
   <g id="text_36">
    <!--  -->
    <g style="fill:#4384ff;" transform="translate(264.96054 185.177516)scale(0.24 -0.24)">
     <use xlink:href="#FontAwesome5Free-Solid-63296"/>
    </g>
   </g>
   <g id="text_37">
    <!--  -->
    <g style="fill:#4384ff;" transform="translate(264.96054 148.354582)scale(0.24 -0.24)">
     <use xlink:href="#FontAwesome5Free-Solid-63296"/>
    </g>
   </g>
   <g id="text_38">
    <!--  -->
    <g style="fill:#4384ff;" transform="translate(264.96054 111.531647)scale(0.24 -0.24)">
     <use xlink:href="#FontAwesome5Free-Solid-63296"/>
    </g>
   </g>
   <g id="text_39">
    <!--  -->
    <g style="fill:#4384ff;" transform="translate(264.96054 74.708713)scale(0.24 -0.24)">
     <use xlink:href="#FontAwesome5Free-Solid-63296"/>
    </g>
   </g>
   <g id="text_40">
    <!--  -->
    <g style="fill:#4384ff;" transform="translate(264.96054 37.885779)scale(0.24 -0.24)">
     <use xlink:href="#FontAwesome5Free-Solid-63296"/>
    </g>
   </g>
   <g id="text_41">
    <!--  -->
    <g style="fill:#4384ff;" transform="translate(301.783475 185.177516)scale(0.24 -0.24)">
     <use xlink:href="#FontAwesome5Free-Solid-63296"/>
    </g>
   </g>
   <g id="text_42">
    <!--  -->
    <g style="fill:#4384ff;" transform="translate(301.783475 148.354582)scale(0.24 -0.24)">
     <use xlink:href="#FontAwesome5Free-Solid-63296"/>
    </g>
   </g>
   <g id="text_43">
    <!--  -->
    <g style="fill:#4384ff;" transform="translate(301.783475 111.531647)scale(0.24 -0.24)">
     <use xlink:href="#FontAwesome5Free-Solid-63296"/>
    </g>
   </g>
   <g id="text_44">
    <!--  -->
    <g style="fill:#4384ff;" transform="translate(301.783475 74.708713)scale(0.24 -0.24)">
     <use xlink:href="#FontAwesome5Free-Solid-63296"/>
    </g>
   </g>
   <g id="text_45">
    <!--  -->
    <g style="fill:#4384ff;" transform="translate(301.783475 37.885779)scale(0.24 -0.24)">
     <use xlink:href="#FontAwesome5Free-Solid-63296"/>
    </g>
   </g>
   <g id="text_46">
    <!--  -->
    <g style="fill:#4384ff;" transform="translate(338.606409 185.177516)scale(0.24 -0.24)">
     <use xlink:href="#FontAwesome5Free-Solid-63296"/>
    </g>
   </g>
   <g id="text_47">
    <!--  -->
    <defs>
     <path d="M 85.9375 19.921875 
L 79.296875 23.828125 
L 84.375 25.203125 
C 85.9375 25.59375 86.921875 27.34375 86.53125 28.90625 
L 85.75 31.84375 
C 85.359375 33.40625 83.59375 34.375 82.03125 33.984375 
L 68.171875 30.28125 
L 55.671875 37.5 
L 68.171875 44.53125 
L 82.03125 40.828125 
C 83.59375 40.4375 85.359375 41.40625 85.75 42.96875 
L 86.53125 45.90625 
C 86.921875 47.46875 85.9375 49.21875 84.375 49.609375 
L 79.296875 50.984375 
L 85.9375 54.890625 
C 87.3125 55.671875 87.890625 57.421875 86.921875 58.984375 
L 83.984375 64.265625 
C 83.203125 65.625 81.25 66.015625 79.890625 65.234375 
L 73.25 61.53125 
L 74.609375 66.609375 
C 75 68.171875 74.03125 69.734375 72.46875 70.3125 
L 69.53125 71.09375 
C 67.96875 71.484375 66.40625 70.515625 65.828125 68.953125 
L 62.109375 55.078125 
L 50 48.046875 
L 50 63.09375 
L 60.359375 73.640625 
C 61.53125 74.8125 61.53125 76.765625 60.359375 78.125 
L 58.203125 80.28125 
C 57.03125 81.453125 55.078125 81.453125 53.71875 80.28125 
L 50 76.375 
L 50 84.375 
C 50 85.9375 48.4375 87.5 46.875 87.5 
L 40.625 87.5 
C 38.875 87.5 37.5 85.9375 37.5 84.375 
L 37.5 76.375 
L 33.59375 80.28125 
C 32.421875 81.453125 30.28125 81.453125 29.109375 80.28125 
L 26.953125 78.125 
C 25.78125 76.765625 25.78125 74.8125 26.953125 73.640625 
L 37.5 63.09375 
L 37.5 48.046875 
L 25.203125 55.078125 
L 21.484375 68.953125 
C 21.09375 70.515625 19.34375 71.484375 17.78125 71.09375 
L 14.84375 70.3125 
C 13.28125 69.734375 12.3125 68.171875 12.703125 66.609375 
L 14.0625 61.53125 
L 7.421875 65.234375 
C 6.0625 66.21875 4.109375 65.625 3.328125 64.265625 
L 0.390625 58.984375 
C -0.59375 57.421875 0 55.671875 1.375 54.890625 
L 8.015625 50.984375 
L 2.9375 49.609375 
C 1.375 49.21875 0.390625 47.65625 0.78125 45.90625 
L 1.5625 42.96875 
C 1.953125 41.40625 3.71875 40.4375 5.28125 40.828125 
L 19.140625 44.53125 
L 31.640625 37.5 
L 19.140625 30.28125 
L 5.28125 33.984375 
C 3.71875 34.375 1.953125 33.40625 1.5625 31.84375 
L 0.78125 28.90625 
C 0.390625 27.34375 1.375 25.59375 2.9375 25.203125 
L 8.015625 23.828125 
L 1.375 19.921875 
C 0 19.140625 -0.59375 17.390625 0.390625 15.828125 
L 3.328125 10.546875 
C 4.109375 9.1875 6.0625 8.796875 7.421875 9.578125 
L 14.0625 13.28125 
L 12.703125 8.203125 
C 12.3125 6.640625 13.28125 5.078125 14.84375 4.5 
L 17.78125 3.71875 
C 19.34375 3.328125 20.90625 4.296875 21.484375 5.859375 
L 25.203125 19.734375 
L 37.3125 26.765625 
L 37.3125 11.71875 
L 26.953125 1.171875 
C 25.59375 0 25.59375 -1.953125 26.953125 -3.328125 
L 29.109375 -5.46875 
C 30.28125 -6.640625 32.234375 -6.640625 33.59375 -5.46875 
L 37.3125 -1.5625 
L 37.3125 -9.375 
C 37.3125 -11.140625 38.875 -12.5 40.4375 -12.5 
L 46.6875 -12.5 
C 48.4375 -12.5 49.8125 -11.140625 49.8125 -9.375 
L 49.8125 -1.5625 
L 53.71875 -5.46875 
C 54.890625 -6.640625 56.84375 -6.640625 58.203125 -5.46875 
L 60.359375 -3.125 
C 61.53125 -1.953125 61.53125 0 60.359375 1.171875 
L 50 11.71875 
L 50 26.765625 
L 62.109375 19.734375 
L 65.828125 5.859375 
C 66.40625 4.296875 67.96875 3.328125 69.53125 3.71875 
L 72.46875 4.5 
C 74.03125 5.078125 75 6.640625 74.609375 8.203125 
L 73.25 13.28125 
L 79.890625 9.578125 
C 81.25 8.796875 83.203125 9.1875 83.984375 10.75 
L 86.921875 15.828125 
C 87.890625 17.390625 87.3125 19.140625 85.9375 19.921875 
z
" id="FontAwesome5Free-Solid-62172"/>
    </defs>
    <g style="fill:#c0c0c0;" transform="translate(338.606409 148.354582)scale(0.24 -0.24)">
     <use xlink:href="#FontAwesome5Free-Solid-62172"/>
    </g>
   </g>
   <g id="text_48">
    <!--  -->
    <g style="fill:#c0c0c0;" transform="translate(338.606409 111.531647)scale(0.24 -0.24)">
     <use xlink:href="#FontAwesome5Free-Solid-62172"/>
    </g>
   </g>
   <g id="text_49">
    <!--  -->
    <g style="fill:#c0c0c0;" transform="translate(338.606409 74.708713)scale(0.24 -0.24)">
     <use xlink:href="#FontAwesome5Free-Solid-62172"/>
    </g>
   </g>
   <g id="text_50">
    <!--  -->
    <g style="fill:#c0c0c0;" transform="translate(338.606409 37.885779)scale(0.24 -0.24)">
     <use xlink:href="#FontAwesome5Free-Solid-62172"/>
    </g>
   </g>
   <g id="legend_1">
    <g id="patch_2">
     <path d="M 376.292187 59.234375 
L 444.4 59.234375 
Q 446.4 59.234375 446.4 57.234375 
L 446.4 14.2 
Q 446.4 12.2 444.4 12.2 
L 376.292187 12.2 
Q 374.292187 12.2 374.292187 14.2 
L 374.292187 57.234375 
Q 374.292187 59.234375 376.292187 59.234375 
z
" style="fill:#ffffff;opacity:0.8;stroke:#cccccc;stroke-linejoin:miter;"/>
    </g>
    <g id="text_51">
     <!--  -->
     <g style="fill:#ffa500;" transform="translate(383.292187 24.039062)scale(0.1 -0.1)">
      <use xlink:href="#FontAwesome5Free-Solid-61829"/>
     </g>
    </g>
    <g id="text_52">
     <!-- sun -->
     <defs>
      <path d="M 44.28125 53.078125 
L 44.28125 44.578125 
Q 40.484375 46.53125 36.375 47.5 
Q 32.28125 48.484375 27.875 48.484375 
Q 21.1875 48.484375 17.84375 46.4375 
Q 14.5 44.390625 14.5 40.28125 
Q 14.5 37.15625 16.890625 35.375 
Q 19.28125 33.59375 26.515625 31.984375 
L 29.59375 31.296875 
Q 39.15625 29.25 43.1875 25.515625 
Q 47.21875 21.78125 47.21875 15.09375 
Q 47.21875 7.46875 41.1875 3.015625 
Q 35.15625 -1.421875 24.609375 -1.421875 
Q 20.21875 -1.421875 15.453125 -0.5625 
Q 10.6875 0.296875 5.421875 2 
L 5.421875 11.28125 
Q 10.40625 8.6875 15.234375 7.390625 
Q 20.0625 6.109375 24.8125 6.109375 
Q 31.15625 6.109375 34.5625 8.28125 
Q 37.984375 10.453125 37.984375 14.40625 
Q 37.984375 18.0625 35.515625 20.015625 
Q 33.0625 21.96875 24.703125 23.78125 
L 21.578125 24.515625 
Q 13.234375 26.265625 9.515625 29.90625 
Q 5.8125 33.546875 5.8125 39.890625 
Q 5.8125 47.609375 11.28125 51.796875 
Q 16.75 56 26.8125 56 
Q 31.78125 56 36.171875 55.265625 
Q 40.578125 54.546875 44.28125 53.078125 
z
" id="DejaVuSans-115"/>
      <path d="M 8.5 21.578125 
L 8.5 54.6875 
L 17.484375 54.6875 
L 17.484375 21.921875 
Q 17.484375 14.15625 20.5 10.265625 
Q 23.53125 6.390625 29.59375 6.390625 
Q 36.859375 6.390625 41.078125 11.03125 
Q 45.3125 15.671875 45.3125 23.6875 
L 45.3125 54.6875 
L 54.296875 54.6875 
L 54.296875 0 
L 45.3125 0 
L 45.3125 8.40625 
Q 42.046875 3.421875 37.71875 1 
Q 33.40625 -1.421875 27.6875 -1.421875 
Q 18.265625 -1.421875 13.375 4.4375 
Q 8.5 10.296875 8.5 21.578125 
z
M 31.109375 56 
z
" id="DejaVuSans-117"/>
      <path d="M 54.890625 33.015625 
L 54.890625 0 
L 45.90625 0 
L 45.90625 32.71875 
Q 45.90625 40.484375 42.875 44.328125 
Q 39.84375 48.1875 33.796875 48.1875 
Q 26.515625 48.1875 22.3125 43.546875 
Q 18.109375 38.921875 18.109375 30.90625 
L 18.109375 0 
L 9.078125 0 
L 9.078125 54.6875 
L 18.109375 54.6875 
L 18.109375 46.1875 
Q 21.34375 51.125 25.703125 53.5625 
Q 30.078125 56 35.796875 56 
Q 45.21875 56 50.046875 50.171875 
Q 54.890625 44.34375 54.890625 33.015625 
z
" id="DejaVuSans-110"/>
     </defs>
     <g transform="translate(406.292187 23.798438)scale(0.1 -0.1)">
      <use xlink:href="#DejaVuSans-115"/>
      <use x="52.099609" xlink:href="#DejaVuSans-117"/>
      <use x="115.478516" xlink:href="#DejaVuSans-110"/>
     </g>
    </g>
    <g id="text_53">
     <!--  -->
     <g style="fill:#4384ff;" transform="translate(383.292187 38.726562)scale(0.1 -0.1)">
      <use xlink:href="#FontAwesome5Free-Solid-63296"/>
     </g>
    </g>
    <g id="text_54">
     <!-- shower -->
     <defs>
      <path d="M 54.890625 33.015625 
L 54.890625 0 
L 45.90625 0 
L 45.90625 32.71875 
Q 45.90625 40.484375 42.875 44.328125 
Q 39.84375 48.1875 33.796875 48.1875 
Q 26.515625 48.1875 22.3125 43.546875 
Q 18.109375 38.921875 18.109375 30.90625 
L 18.109375 0 
L 9.078125 0 
L 9.078125 75.984375 
L 18.109375 75.984375 
L 18.109375 46.1875 
Q 21.34375 51.125 25.703125 53.5625 
Q 30.078125 56 35.796875 56 
Q 45.21875 56 50.046875 50.171875 
Q 54.890625 44.34375 54.890625 33.015625 
z
" id="DejaVuSans-104"/>
      <path d="M 30.609375 48.390625 
Q 23.390625 48.390625 19.1875 42.75 
Q 14.984375 37.109375 14.984375 27.296875 
Q 14.984375 17.484375 19.15625 11.84375 
Q 23.34375 6.203125 30.609375 6.203125 
Q 37.796875 6.203125 41.984375 11.859375 
Q 46.1875 17.53125 46.1875 27.296875 
Q 46.1875 37.015625 41.984375 42.703125 
Q 37.796875 48.390625 30.609375 48.390625 
z
M 30.609375 56 
Q 42.328125 56 49.015625 48.375 
Q 55.71875 40.765625 55.71875 27.296875 
Q 55.71875 13.875 49.015625 6.21875 
Q 42.328125 -1.421875 30.609375 -1.421875 
Q 18.84375 -1.421875 12.171875 6.21875 
Q 5.515625 13.875 5.515625 27.296875 
Q 5.515625 40.765625 12.171875 48.375 
Q 18.84375 56 30.609375 56 
z
" id="DejaVuSans-111"/>
      <path d="M 4.203125 54.6875 
L 13.1875 54.6875 
L 24.421875 12.015625 
L 35.59375 54.6875 
L 46.1875 54.6875 
L 57.421875 12.015625 
L 68.609375 54.6875 
L 77.59375 54.6875 
L 63.28125 0 
L 52.6875 0 
L 40.921875 44.828125 
L 29.109375 0 
L 18.5 0 
z
" id="DejaVuSans-119"/>
      <path d="M 56.203125 29.59375 
L 56.203125 25.203125 
L 14.890625 25.203125 
Q 15.484375 15.921875 20.484375 11.0625 
Q 25.484375 6.203125 34.421875 6.203125 
Q 39.59375 6.203125 44.453125 7.46875 
Q 49.3125 8.734375 54.109375 11.28125 
L 54.109375 2.78125 
Q 49.265625 0.734375 44.1875 -0.34375 
Q 39.109375 -1.421875 33.890625 -1.421875 
Q 20.796875 -1.421875 13.15625 6.1875 
Q 5.515625 13.8125 5.515625 26.8125 
Q 5.515625 40.234375 12.765625 48.109375 
Q 20.015625 56 32.328125 56 
Q 43.359375 56 49.78125 48.890625 
Q 56.203125 41.796875 56.203125 29.59375 
z
M 47.21875 32.234375 
Q 47.125 39.59375 43.09375 43.984375 
Q 39.0625 48.390625 32.421875 48.390625 
Q 24.90625 48.390625 20.390625 44.140625 
Q 15.875 39.890625 15.1875 32.171875 
z
" id="DejaVuSans-101"/>
      <path d="M 41.109375 46.296875 
Q 39.59375 47.171875 37.8125 47.578125 
Q 36.03125 48 33.890625 48 
Q 26.265625 48 22.1875 43.046875 
Q 18.109375 38.09375 18.109375 28.8125 
L 18.109375 0 
L 9.078125 0 
L 9.078125 54.6875 
L 18.109375 54.6875 
L 18.109375 46.1875 
Q 20.953125 51.171875 25.484375 53.578125 
Q 30.03125 56 36.53125 56 
Q 37.453125 56 38.578125 55.875 
Q 39.703125 55.765625 41.0625 55.515625 
z
" id="DejaVuSans-114"/>
     </defs>
     <g transform="translate(406.292187 38.476562)scale(0.1 -0.1)">
      <use xlink:href="#DejaVuSans-115"/>
      <use x="52.099609" xlink:href="#DejaVuSans-104"/>
      <use x="115.478516" xlink:href="#DejaVuSans-111"/>
      <use x="176.660156" xlink:href="#DejaVuSans-119"/>
      <use x="258.447266" xlink:href="#DejaVuSans-101"/>
      <use x="319.970703" xlink:href="#DejaVuSans-114"/>
     </g>
    </g>
    <g id="text_55">
     <!--  -->
     <g style="fill:#c0c0c0;" transform="translate(383.917187 53.404688)scale(0.1 -0.1)">
      <use xlink:href="#FontAwesome5Free-Solid-62172"/>
     </g>
    </g>
    <g id="text_56">
     <!-- snow -->
     <g transform="translate(406.292187 53.154688)scale(0.1 -0.1)">
      <use xlink:href="#DejaVuSans-115"/>
      <use x="52.099609" xlink:href="#DejaVuSans-110"/>
      <use x="115.478516" xlink:href="#DejaVuSans-111"/>
      <use x="176.660156" xlink:href="#DejaVuSans-119"/>
     </g>
    </g>
   </g>
  </g>
 </g>
</svg>
