<?xml version="1.0" encoding="utf-8" standalone="no"?>
<!DOCTYPE svg PUBLIC "-//W3C//DTD SVG 1.1//EN"
  "http://www.w3.org/Graphics/SVG/1.1/DTD/svg11.dtd">
<!-- Created with matplotlib (https://matplotlib.org/) -->
<svg height="122.931933pt" version="1.1" viewBox="0 0 453.6 122.931933" width="453.6pt" xmlns="http://www.w3.org/2000/svg" xmlns:xlink="http://www.w3.org/1999/xlink">
 <defs>
  <style type="text/css">
*{stroke-linecap:butt;stroke-linejoin:round;}
  </style>
 </defs>
 <g id="figure_1">
  <g id="patch_1">
   <path d="M 0 122.931933 
L 453.6 122.931933 
L 453.6 0 
L 0 0 
z
" style="fill:#ffffff;"/>
  </g>
  <g id="axes_1">
   <g id="text_1">
    <!--  -->
    <defs>
     <path d="M 23.4375 73.4375 
C 23.4375 69.53125 24.8125 66.21875 27.546875 63.484375 
C 30.28125 60.75 33.59375 59.375 37.5 59.375 
C 41.40625 59.375 44.734375 60.75 47.46875 63.484375 
C 50.203125 66.21875 51.5625 69.53125 51.5625 73.4375 
C 51.5625 77.34375 50.203125 80.671875 47.46875 83.40625 
C 44.734375 86.140625 41.40625 87.5 37.5 87.5 
C 33.59375 87.5 30.28125 86.140625 27.546875 83.40625 
C 24.8125 80.671875 23.4375 77.34375 23.4375 73.4375 
z
M 73.25 73.25 
C 74.421875 71.875 75 70.3125 75 68.75 
C 75 67 74.421875 65.4375 73.25 64.265625 
L 54.6875 45.90625 
L 54.6875 -6.25 
C 54.6875 -8.015625 53.90625 -9.578125 52.734375 -10.75 
C 51.5625 -11.921875 50 -12.5 48.4375 -12.5 
L 45.3125 -12.5 
C 43.5625 -12.5 42 -11.921875 40.828125 -10.75 
C 39.65625 -9.578125 39.0625 -8.015625 39.0625 -6.25 
L 39.0625 15.625 
L 35.9375 15.625 
L 35.9375 -6.25 
C 35.9375 -8.015625 35.15625 -9.578125 33.984375 -10.75 
C 32.8125 -11.921875 31.25 -12.5 29.6875 -12.5 
L 26.5625 -12.5 
C 24.8125 -12.5 23.25 -11.921875 22.078125 -10.75 
C 20.90625 -9.578125 20.3125 -8.015625 20.3125 -6.25 
L 20.3125 45.90625 
L 1.765625 64.265625 
C 0.59375 65.4375 0 67 0 68.75 
C 0 70.3125 0.59375 71.875 1.765625 73.046875 
C 2.9375 74.21875 4.5 75 6.25 75 
C 7.8125 75 9.375 74.421875 10.75 73.25 
L 27.546875 56.25 
L 47.46875 56.25 
L 64.265625 73.25 
C 65.4375 74.421875 67 75 68.75 75 
C 70.3125 75 71.875 74.421875 73.25 73.25 
z
" id="FontAwesome5FreeSolid-61870"/>
    </defs>
    <g style="fill:#232066;" transform="translate(7.2 114.231933)scale(0.12 -0.12)">
     <use xlink:href="#FontAwesome5FreeSolid-61870"/>
    </g>
   </g>
   <g id="text_2">
    <!--  -->
    <g style="fill:#232066;" transform="translate(7.2 92.087395)scale(0.12 -0.12)">
     <use xlink:href="#FontAwesome5FreeSolid-61870"/>
    </g>
   </g>
   <g id="text_3">
    <!--  -->
    <g style="fill:#232066;" transform="translate(7.2 69.942857)scale(0.12 -0.12)">
     <use xlink:href="#FontAwesome5FreeSolid-61870"/>
    </g>
   </g>
   <g id="text_4">
    <!--  -->
    <g style="fill:#232066;" transform="translate(7.2 47.798319)scale(0.12 -0.12)">
     <use xlink:href="#FontAwesome5FreeSolid-61870"/>
    </g>
   </g>
   <g id="text_5">
    <!--  -->
    <g style="fill:#232066;" transform="translate(7.2 25.653782)scale(0.12 -0.12)">
     <use xlink:href="#FontAwesome5FreeSolid-61870"/>
    </g>
   </g>
   <g id="text_6">
    <!--  -->
    <g style="fill:#232066;" transform="translate(29.344538 114.231933)scale(0.12 -0.12)">
     <use xlink:href="#FontAwesome5FreeSolid-61870"/>
    </g>
   </g>
   <g id="text_7">
    <!--  -->
    <g style="fill:#232066;" transform="translate(29.344538 92.087395)scale(0.12 -0.12)">
     <use xlink:href="#FontAwesome5FreeSolid-61870"/>
    </g>
   </g>
   <g id="text_8">
    <!--  -->
    <g style="fill:#232066;" transform="translate(29.344538 69.942857)scale(0.12 -0.12)">
     <use xlink:href="#FontAwesome5FreeSolid-61870"/>
    </g>
   </g>
   <g id="text_9">
    <!--  -->
    <g style="fill:#232066;" transform="translate(29.344538 47.798319)scale(0.12 -0.12)">
     <use xlink:href="#FontAwesome5FreeSolid-61870"/>
    </g>
   </g>
   <g id="text_10">
    <!--  -->
    <g style="fill:#232066;" transform="translate(29.344538 25.653782)scale(0.12 -0.12)">
     <use xlink:href="#FontAwesome5FreeSolid-61870"/>
    </g>
   </g>
   <g id="text_11">
    <!--  -->
    <g style="fill:#232066;" transform="translate(51.489076 114.231933)scale(0.12 -0.12)">
     <use xlink:href="#FontAwesome5FreeSolid-61870"/>
    </g>
   </g>
   <g id="text_12">
    <!--  -->
    <g style="fill:#232066;" transform="translate(51.489076 92.087395)scale(0.12 -0.12)">
     <use xlink:href="#FontAwesome5FreeSolid-61870"/>
    </g>
   </g>
   <g id="text_13">
    <!--  -->
    <g style="fill:#232066;" transform="translate(51.489076 69.942857)scale(0.12 -0.12)">
     <use xlink:href="#FontAwesome5FreeSolid-61870"/>
    </g>
   </g>
   <g id="text_14">
    <!--  -->
    <g style="fill:#232066;" transform="translate(51.489076 47.798319)scale(0.12 -0.12)">
     <use xlink:href="#FontAwesome5FreeSolid-61870"/>
    </g>
   </g>
   <g id="text_15">
    <!--  -->
    <g style="fill:#232066;" transform="translate(51.489076 25.653782)scale(0.12 -0.12)">
     <use xlink:href="#FontAwesome5FreeSolid-61870"/>
    </g>
   </g>
   <g id="text_16">
    <!--  -->
    <g style="fill:#232066;" transform="translate(73.633613 114.231933)scale(0.12 -0.12)">
     <use xlink:href="#FontAwesome5FreeSolid-61870"/>
    </g>
   </g>
   <g id="text_17">
    <!--  -->
    <g style="fill:#232066;" transform="translate(73.633613 92.087395)scale(0.12 -0.12)">
     <use xlink:href="#FontAwesome5FreeSolid-61870"/>
    </g>
   </g>
   <g id="text_18">
    <!--  -->
    <g style="fill:#232066;" transform="translate(73.633613 69.942857)scale(0.12 -0.12)">
     <use xlink:href="#FontAwesome5FreeSolid-61870"/>
    </g>
   </g>
   <g id="text_19">
    <!--  -->
    <g style="fill:#232066;" transform="translate(73.633613 47.798319)scale(0.12 -0.12)">
     <use xlink:href="#FontAwesome5FreeSolid-61870"/>
    </g>
   </g>
   <g id="text_20">
    <!--  -->
    <g style="fill:#232066;" transform="translate(73.633613 25.653782)scale(0.12 -0.12)">
     <use xlink:href="#FontAwesome5FreeSolid-61870"/>
    </g>
   </g>
   <g id="text_21">
    <!--  -->
    <g style="fill:#232066;" transform="translate(95.778151 114.231933)scale(0.12 -0.12)">
     <use xlink:href="#FontAwesome5FreeSolid-61870"/>
    </g>
   </g>
   <g id="text_22">
    <!--  -->
    <g style="fill:#232066;" transform="translate(95.778151 92.087395)scale(0.12 -0.12)">
     <use xlink:href="#FontAwesome5FreeSolid-61870"/>
    </g>
   </g>
   <g id="text_23">
    <!--  -->
    <g style="fill:#232066;" transform="translate(95.778151 69.942857)scale(0.12 -0.12)">
     <use xlink:href="#FontAwesome5FreeSolid-61870"/>
    </g>
   </g>
   <g id="text_24">
    <!--  -->
    <g style="fill:#232066;" transform="translate(95.778151 47.798319)scale(0.12 -0.12)">
     <use xlink:href="#FontAwesome5FreeSolid-61870"/>
    </g>
   </g>
   <g id="text_25">
    <!--  -->
    <g style="fill:#232066;" transform="translate(95.778151 25.653782)scale(0.12 -0.12)">
     <use xlink:href="#FontAwesome5FreeSolid-61870"/>
    </g>
   </g>
   <g id="text_26">
    <!--  -->
    <g style="fill:#232066;" transform="translate(117.922689 114.231933)scale(0.12 -0.12)">
     <use xlink:href="#FontAwesome5FreeSolid-61870"/>
    </g>
   </g>
   <g id="text_27">
    <!--  -->
    <g style="fill:#232066;" transform="translate(117.922689 92.087395)scale(0.12 -0.12)">
     <use xlink:href="#FontAwesome5FreeSolid-61870"/>
    </g>
   </g>
   <g id="text_28">
    <!--  -->
    <g style="fill:#232066;" transform="translate(117.922689 69.942857)scale(0.12 -0.12)">
     <use xlink:href="#FontAwesome5FreeSolid-61870"/>
    </g>
   </g>
   <g id="text_29">
    <!--  -->
    <g style="fill:#232066;" transform="translate(117.922689 47.798319)scale(0.12 -0.12)">
     <use xlink:href="#FontAwesome5FreeSolid-61870"/>
    </g>
   </g>
   <g id="text_30">
    <!--  -->
    <g style="fill:#232066;" transform="translate(117.922689 25.653782)scale(0.12 -0.12)">
     <use xlink:href="#FontAwesome5FreeSolid-61870"/>
    </g>
   </g>
   <g id="text_31">
    <!--  -->
    <g style="fill:#232066;" transform="translate(140.067227 114.231933)scale(0.12 -0.12)">
     <use xlink:href="#FontAwesome5FreeSolid-61870"/>
    </g>
   </g>
   <g id="text_32">
    <!--  -->
    <g style="fill:#232066;" transform="translate(140.067227 92.087395)scale(0.12 -0.12)">
     <use xlink:href="#FontAwesome5FreeSolid-61870"/>
    </g>
   </g>
   <g id="text_33">
    <!--  -->
    <g style="fill:#232066;" transform="translate(140.067227 69.942857)scale(0.12 -0.12)">
     <use xlink:href="#FontAwesome5FreeSolid-61870"/>
    </g>
   </g>
   <g id="text_34">
    <!--  -->
    <g style="fill:#232066;" transform="translate(140.067227 47.798319)scale(0.12 -0.12)">
     <use xlink:href="#FontAwesome5FreeSolid-61870"/>
    </g>
   </g>
   <g id="text_35">
    <!--  -->
    <g style="fill:#232066;" transform="translate(140.067227 25.653782)scale(0.12 -0.12)">
     <use xlink:href="#FontAwesome5FreeSolid-61870"/>
    </g>
   </g>
   <g id="text_36">
    <!--  -->
    <g style="fill:#232066;" transform="translate(162.211765 114.231933)scale(0.12 -0.12)">
     <use xlink:href="#FontAwesome5FreeSolid-61870"/>
    </g>
   </g>
   <g id="text_37">
    <!--  -->
    <g style="fill:#232066;" transform="translate(162.211765 92.087395)scale(0.12 -0.12)">
     <use xlink:href="#FontAwesome5FreeSolid-61870"/>
    </g>
   </g>
   <g id="text_38">
    <!--  -->
    <g style="fill:#232066;" transform="translate(162.211765 69.942857)scale(0.12 -0.12)">
     <use xlink:href="#FontAwesome5FreeSolid-61870"/>
    </g>
   </g>
   <g id="text_39">
    <!--  -->
    <g style="fill:#232066;" transform="translate(162.211765 47.798319)scale(0.12 -0.12)">
     <use xlink:href="#FontAwesome5FreeSolid-61870"/>
    </g>
   </g>
   <g id="text_40">
    <!--  -->
    <g style="fill:#232066;" transform="translate(162.211765 25.653782)scale(0.12 -0.12)">
     <use xlink:href="#FontAwesome5FreeSolid-61870"/>
    </g>
   </g>
   <g id="text_41">
    <!--  -->
    <g style="fill:#232066;" transform="translate(184.356303 114.231933)scale(0.12 -0.12)">
     <use xlink:href="#FontAwesome5FreeSolid-61870"/>
    </g>
   </g>
   <g id="text_42">
    <!--  -->
    <g style="fill:#232066;" transform="translate(184.356303 92.087395)scale(0.12 -0.12)">
     <use xlink:href="#FontAwesome5FreeSolid-61870"/>
    </g>
   </g>
   <g id="text_43">
    <!--  -->
    <g style="fill:#232066;" transform="translate(184.356303 69.942857)scale(0.12 -0.12)">
     <use xlink:href="#FontAwesome5FreeSolid-61870"/>
    </g>
   </g>
   <g id="text_44">
    <!--  -->
    <g style="fill:#232066;" transform="translate(184.356303 47.798319)scale(0.12 -0.12)">
     <use xlink:href="#FontAwesome5FreeSolid-61870"/>
    </g>
   </g>
   <g id="text_45">
    <!--  -->
    <g style="fill:#232066;" transform="translate(184.356303 25.653782)scale(0.12 -0.12)">
     <use xlink:href="#FontAwesome5FreeSolid-61870"/>
    </g>
   </g>
   <g id="text_46">
    <!--  -->
    <g style="fill:#232066;" transform="translate(206.50084 114.231933)scale(0.12 -0.12)">
     <use xlink:href="#FontAwesome5FreeSolid-61870"/>
    </g>
   </g>
   <g id="text_47">
    <!--  -->
    <g style="fill:#232066;" transform="translate(206.50084 92.087395)scale(0.12 -0.12)">
     <use xlink:href="#FontAwesome5FreeSolid-61870"/>
    </g>
   </g>
   <g id="text_48">
    <!--  -->
    <g style="fill:#232066;" transform="translate(206.50084 69.942857)scale(0.12 -0.12)">
     <use xlink:href="#FontAwesome5FreeSolid-61870"/>
    </g>
   </g>
   <g id="text_49">
    <!--  -->
    <g style="fill:#983d3d;" transform="translate(206.50084 47.798319)scale(0.12 -0.12)">
     <use xlink:href="#FontAwesome5FreeSolid-61870"/>
    </g>
   </g>
   <g id="text_50">
    <!--  -->
    <g style="fill:#983d3d;" transform="translate(206.50084 25.653782)scale(0.12 -0.12)">
     <use xlink:href="#FontAwesome5FreeSolid-61870"/>
    </g>
   </g>
   <g id="text_51">
    <!--  -->
    <g style="fill:#983d3d;" transform="translate(228.645378 114.231933)scale(0.12 -0.12)">
     <use xlink:href="#FontAwesome5FreeSolid-61870"/>
    </g>
   </g>
   <g id="text_52">
    <!--  -->
    <g style="fill:#983d3d;" transform="translate(228.645378 92.087395)scale(0.12 -0.12)">
     <use xlink:href="#FontAwesome5FreeSolid-61870"/>
    </g>
   </g>
   <g id="text_53">
    <!--  -->
    <g style="fill:#983d3d;" transform="translate(228.645378 69.942857)scale(0.12 -0.12)">
     <use xlink:href="#FontAwesome5FreeSolid-61870"/>
    </g>
   </g>
   <g id="text_54">
    <!--  -->
    <g style="fill:#983d3d;" transform="translate(228.645378 47.798319)scale(0.12 -0.12)">
     <use xlink:href="#FontAwesome5FreeSolid-61870"/>
    </g>
   </g>
   <g id="text_55">
    <!--  -->
    <g style="fill:#983d3d;" transform="translate(228.645378 25.653782)scale(0.12 -0.12)">
     <use xlink:href="#FontAwesome5FreeSolid-61870"/>
    </g>
   </g>
   <g id="text_56">
    <!--  -->
    <g style="fill:#983d3d;" transform="translate(250.789916 114.231933)scale(0.12 -0.12)">
     <use xlink:href="#FontAwesome5FreeSolid-61870"/>
    </g>
   </g>
   <g id="text_57">
    <!--  -->
    <g style="fill:#983d3d;" transform="translate(250.789916 92.087395)scale(0.12 -0.12)">
     <use xlink:href="#FontAwesome5FreeSolid-61870"/>
    </g>
   </g>
   <g id="text_58">
    <!--  -->
    <g style="fill:#983d3d;" transform="translate(250.789916 69.942857)scale(0.12 -0.12)">
     <use xlink:href="#FontAwesome5FreeSolid-61870"/>
    </g>
   </g>
   <g id="text_59">
    <!--  -->
    <g style="fill:#983d3d;" transform="translate(250.789916 47.798319)scale(0.12 -0.12)">
     <use xlink:href="#FontAwesome5FreeSolid-61870"/>
    </g>
   </g>
   <g id="text_60">
    <!--  -->
    <g style="fill:#983d3d;" transform="translate(250.789916 25.653782)scale(0.12 -0.12)">
     <use xlink:href="#FontAwesome5FreeSolid-61870"/>
    </g>
   </g>
   <g id="text_61">
    <!--  -->
    <g style="fill:#983d3d;" transform="translate(272.934454 114.231933)scale(0.12 -0.12)">
     <use xlink:href="#FontAwesome5FreeSolid-61870"/>
    </g>
   </g>
   <g id="text_62">
    <!--  -->
    <g style="fill:#983d3d;" transform="translate(272.934454 92.087395)scale(0.12 -0.12)">
     <use xlink:href="#FontAwesome5FreeSolid-61870"/>
    </g>
   </g>
   <g id="text_63">
    <!--  -->
    <g style="fill:#983d3d;" transform="translate(272.934454 69.942857)scale(0.12 -0.12)">
     <use xlink:href="#FontAwesome5FreeSolid-61870"/>
    </g>
   </g>
   <g id="text_64">
    <!--  -->
    <g style="fill:#983d3d;" transform="translate(272.934454 47.798319)scale(0.12 -0.12)">
     <use xlink:href="#FontAwesome5FreeSolid-61870"/>
    </g>
   </g>
   <g id="text_65">
    <!--  -->
    <g style="fill:#983d3d;" transform="translate(272.934454 25.653782)scale(0.12 -0.12)">
     <use xlink:href="#FontAwesome5FreeSolid-61870"/>
    </g>
   </g>
   <g id="text_66">
    <!--  -->
    <g style="fill:#983d3d;" transform="translate(295.078992 114.231933)scale(0.12 -0.12)">
     <use xlink:href="#FontAwesome5FreeSolid-61870"/>
    </g>
   </g>
   <g id="text_67">
    <!--  -->
    <g style="fill:#983d3d;" transform="translate(295.078992 92.087395)scale(0.12 -0.12)">
     <use xlink:href="#FontAwesome5FreeSolid-61870"/>
    </g>
   </g>
   <g id="text_68">
    <!--  -->
    <g style="fill:#983d3d;" transform="translate(295.078992 69.942857)scale(0.12 -0.12)">
     <use xlink:href="#FontAwesome5FreeSolid-61870"/>
    </g>
   </g>
   <g id="text_69">
    <!--  -->
    <g style="fill:#983d3d;" transform="translate(295.078992 47.798319)scale(0.12 -0.12)">
     <use xlink:href="#FontAwesome5FreeSolid-61870"/>
    </g>
   </g>
   <g id="text_70">
    <!--  -->
    <g style="fill:#983d3d;" transform="translate(295.078992 25.653782)scale(0.12 -0.12)">
     <use xlink:href="#FontAwesome5FreeSolid-61870"/>
    </g>
   </g>
   <g id="text_71">
    <!--  -->
    <g style="fill:#983d3d;" transform="translate(317.223529 114.231933)scale(0.12 -0.12)">
     <use xlink:href="#FontAwesome5FreeSolid-61870"/>
    </g>
   </g>
   <g id="text_72">
    <!--  -->
    <g style="fill:#983d3d;" transform="translate(317.223529 92.087395)scale(0.12 -0.12)">
     <use xlink:href="#FontAwesome5FreeSolid-61870"/>
    </g>
   </g>
   <g id="text_73">
    <!--  -->
    <g style="fill:#983d3d;" transform="translate(317.223529 69.942857)scale(0.12 -0.12)">
     <use xlink:href="#FontAwesome5FreeSolid-61870"/>
    </g>
   </g>
   <g id="text_74">
    <!--  -->
    <g style="fill:#983d3d;" transform="translate(317.223529 47.798319)scale(0.12 -0.12)">
     <use xlink:href="#FontAwesome5FreeSolid-61870"/>
    </g>
   </g>
   <g id="text_75">
    <!--  -->
    <g style="fill:#983d3d;" transform="translate(317.223529 25.653782)scale(0.12 -0.12)">
     <use xlink:href="#FontAwesome5FreeSolid-61870"/>
    </g>
   </g>
   <g id="text_76">
    <!--  -->
    <g style="fill:#983d3d;" transform="translate(339.368067 114.231933)scale(0.12 -0.12)">
     <use xlink:href="#FontAwesome5FreeSolid-61870"/>
    </g>
   </g>
   <g id="text_77">
    <!--  -->
    <g style="fill:#983d3d;" transform="translate(339.368067 92.087395)scale(0.12 -0.12)">
     <use xlink:href="#FontAwesome5FreeSolid-61870"/>
    </g>
   </g>
   <g id="text_78">
    <!--  -->
    <g style="fill:#983d3d;" transform="translate(339.368067 69.942857)scale(0.12 -0.12)">
     <use xlink:href="#FontAwesome5FreeSolid-61870"/>
    </g>
   </g>
   <g id="text_79">
    <!--  -->
    <g style="fill:#983d3d;" transform="translate(339.368067 47.798319)scale(0.12 -0.12)">
     <use xlink:href="#FontAwesome5FreeSolid-61870"/>
    </g>
   </g>
   <g id="text_80">
    <!--  -->
    <g style="fill:#983d3d;" transform="translate(339.368067 25.653782)scale(0.12 -0.12)">
     <use xlink:href="#FontAwesome5FreeSolid-61870"/>
    </g>
   </g>
   <g id="text_81">
    <!--  -->
    <g style="fill:#983d3d;" transform="translate(361.512605 114.231933)scale(0.12 -0.12)">
     <use xlink:href="#FontAwesome5FreeSolid-61870"/>
    </g>
   </g>
   <g id="text_82">
    <!--  -->
    <g style="fill:#983d3d;" transform="translate(361.512605 92.087395)scale(0.12 -0.12)">
     <use xlink:href="#FontAwesome5FreeSolid-61870"/>
    </g>
   </g>
   <g id="text_83">
    <!--  -->
    <g style="fill:#983d3d;" transform="translate(361.512605 69.942857)scale(0.12 -0.12)">
     <use xlink:href="#FontAwesome5FreeSolid-61870"/>
    </g>
   </g>
   <g id="text_84">
    <!--  -->
    <g style="fill:#983d3d;" transform="translate(361.512605 47.798319)scale(0.12 -0.12)">
     <use xlink:href="#FontAwesome5FreeSolid-61870"/>
    </g>
   </g>
   <g id="text_85">
    <!--  -->
    <g style="fill:#983d3d;" transform="translate(361.512605 25.653782)scale(0.12 -0.12)">
     <use xlink:href="#FontAwesome5FreeSolid-61870"/>
    </g>
   </g>
   <g id="text_86">
    <!--  -->
    <g style="fill:#983d3d;" transform="translate(383.657143 114.231933)scale(0.12 -0.12)">
     <use xlink:href="#FontAwesome5FreeSolid-61870"/>
    </g>
   </g>
   <g id="text_87">
    <!--  -->
    <g style="fill:#983d3d;" transform="translate(383.657143 92.087395)scale(0.12 -0.12)">
     <use xlink:href="#FontAwesome5FreeSolid-61870"/>
    </g>
   </g>
   <g id="text_88">
    <!--  -->
    <g style="fill:#983d3d;" transform="translate(383.657143 69.942857)scale(0.12 -0.12)">
     <use xlink:href="#FontAwesome5FreeSolid-61870"/>
    </g>
   </g>
   <g id="text_89">
    <!--  -->
    <g style="fill:#983d3d;" transform="translate(383.657143 47.798319)scale(0.12 -0.12)">
     <use xlink:href="#FontAwesome5FreeSolid-61870"/>
    </g>
   </g>
   <g id="text_90">
    <!--  -->
    <g style="fill:#983d3d;" transform="translate(383.657143 25.653782)scale(0.12 -0.12)">
     <use xlink:href="#FontAwesome5FreeSolid-61870"/>
    </g>
   </g>
   <g id="text_91">
    <!--  -->
    <g style="fill:#983d3d;" transform="translate(405.801681 114.231933)scale(0.12 -0.12)">
     <use xlink:href="#FontAwesome5FreeSolid-61870"/>
    </g>
   </g>
   <g id="text_92">
    <!--  -->
    <g style="fill:#983d3d;" transform="translate(405.801681 92.087395)scale(0.12 -0.12)">
     <use xlink:href="#FontAwesome5FreeSolid-61870"/>
    </g>
   </g>
   <g id="text_93">
    <!--  -->
    <g style="fill:#983d3d;" transform="translate(405.801681 69.942857)scale(0.12 -0.12)">
     <use xlink:href="#FontAwesome5FreeSolid-61870"/>
    </g>
   </g>
   <g id="text_94">
    <!--  -->
    <g style="fill:#983d3d;" transform="translate(405.801681 47.798319)scale(0.12 -0.12)">
     <use xlink:href="#FontAwesome5FreeSolid-61870"/>
    </g>
   </g>
   <g id="text_95">
    <!--  -->
    <g style="fill:#dcb732;" transform="translate(405.801681 25.653782)scale(0.12 -0.12)">
     <use xlink:href="#FontAwesome5FreeSolid-61870"/>
    </g>
   </g>
   <g id="text_96">
    <!--  -->
    <g style="fill:#dcb732;" transform="translate(427.946218 114.231933)scale(0.12 -0.12)">
     <use xlink:href="#FontAwesome5FreeSolid-61870"/>
    </g>
   </g>
   <g id="text_97">
    <!--  -->
    <g style="fill:#dcb732;" transform="translate(427.946218 92.087395)scale(0.12 -0.12)">
     <use xlink:href="#FontAwesome5FreeSolid-61870"/>
    </g>
   </g>
  </g>
 </g>
</svg>
