<?xml version="1.0" encoding="utf-8" standalone="no"?>
<!DOCTYPE svg PUBLIC "-//W3C//DTD SVG 1.1//EN"
  "http://www.w3.org/Graphics/SVG/1.1/DTD/svg11.dtd">
<svg xmlns:xlink="http://www.w3.org/1999/xlink" width="450.189375pt" height="286.638744pt" viewBox="0 0 450.189375 286.638744" xmlns="http://www.w3.org/2000/svg" version="1.1">
 <metadata>
  <rdf:RDF xmlns:dc="http://purl.org/dc/elements/1.1/" xmlns:cc="http://creativecommons.org/ns#" xmlns:rdf="http://www.w3.org/1999/02/22-rdf-syntax-ns#">
   <cc:Work>
    <dc:type rdf:resource="http://purl.org/dc/dcmitype/StillImage"/>
    <dc:date>2022-06-04T15:24:55.231881</dc:date>
    <dc:format>image/svg+xml</dc:format>
    <dc:creator>
     <cc:Agent>
      <dc:title>Matplotlib v3.5.2, https://matplotlib.org/</dc:title>
     </cc:Agent>
    </dc:creator>
   </cc:Work>
  </rdf:RDF>
 </metadata>
 <defs>
  <style type="text/css">*{stroke-linejoin: round; stroke-linecap: butt}</style>
 </defs>
 <g id="figure_1">
  <g id="patch_1">
   <path d="M 0 286.638744 
L 450.189375 286.638744 
L 450.189375 0 
L 0 0 
z
" style="fill: #ffffff"/>
  </g>
  <g id="axes_1">
   <g id="patch_2">
    <path d="M 7.2 242.598432 
L 44.131303 242.598432 
L 44.131303 205.667129 
L 7.2 205.667129 
z
" clip-path="url(#p752c90fd95)" style="fill: #66c2a5; stroke: #66c2a5; stroke-linejoin: miter"/>
   </g>
   <g id="patch_3">
    <path d="M 7.2 198.280869 
L 44.131303 198.280869 
L 44.131303 161.349566 
L 7.2 161.349566 
z
" clip-path="url(#p752c90fd95)" style="fill: #66c2a5; stroke: #66c2a5; stroke-linejoin: miter"/>
   </g>
   <g id="patch_4">
    <path d="M 7.2 153.963305 
L 44.131303 153.963305 
L 44.131303 117.032002 
L 7.2 117.032002 
z
" clip-path="url(#p752c90fd95)" style="fill: #66c2a5; stroke: #66c2a5; stroke-linejoin: miter"/>
   </g>
   <g id="patch_5">
    <path d="M 7.2 109.645742 
L 44.131303 109.645742 
L 44.131303 72.714439 
L 7.2 72.714439 
z
" clip-path="url(#p752c90fd95)" style="fill: #66c2a5; stroke: #66c2a5; stroke-linejoin: miter"/>
   </g>
   <g id="patch_6">
    <path d="M 7.2 65.328178 
L 44.131303 65.328178 
L 44.131303 28.396875 
L 7.2 28.396875 
z
" clip-path="url(#p752c90fd95)" style="fill: #66c2a5; stroke: #66c2a5; stroke-linejoin: miter"/>
   </g>
   <g id="patch_7">
    <path d="M 51.517564 242.598432 
L 88.448867 242.598432 
L 88.448867 205.667129 
L 51.517564 205.667129 
z
" clip-path="url(#p752c90fd95)" style="fill: #66c2a5; stroke: #66c2a5; stroke-linejoin: miter"/>
   </g>
   <g id="patch_8">
    <path d="M 51.517564 198.280869 
L 88.448867 198.280869 
L 88.448867 161.349566 
L 51.517564 161.349566 
z
" clip-path="url(#p752c90fd95)" style="fill: #66c2a5; stroke: #66c2a5; stroke-linejoin: miter"/>
   </g>
   <g id="patch_9">
    <path d="M 51.517564 153.963305 
L 88.448867 153.963305 
L 88.448867 117.032002 
L 51.517564 117.032002 
z
" clip-path="url(#p752c90fd95)" style="fill: #66c2a5; stroke: #66c2a5; stroke-linejoin: miter"/>
   </g>
   <g id="patch_10">
    <path d="M 51.517564 109.645742 
L 88.448867 109.645742 
L 88.448867 72.714439 
L 51.517564 72.714439 
z
" clip-path="url(#p752c90fd95)" style="fill: #66c2a5; stroke: #66c2a5; stroke-linejoin: miter"/>
   </g>
   <g id="patch_11">
    <path d="M 51.517564 65.328178 
L 88.448867 65.328178 
L 88.448867 28.396875 
L 51.517564 28.396875 
z
" clip-path="url(#p752c90fd95)" style="fill: #66c2a5; stroke: #66c2a5; stroke-linejoin: miter"/>
   </g>
   <g id="patch_12">
    <path d="M 95.835127 242.598432 
L 132.76643 242.598432 
L 132.76643 205.667129 
L 95.835127 205.667129 
z
" clip-path="url(#p752c90fd95)" style="fill: #66c2a5; stroke: #66c2a5; stroke-linejoin: miter"/>
   </g>
   <g id="patch_13">
    <path d="M 95.835127 198.280869 
L 132.76643 198.280869 
L 132.76643 161.349566 
L 95.835127 161.349566 
z
" clip-path="url(#p752c90fd95)" style="fill: #66c2a5; stroke: #66c2a5; stroke-linejoin: miter"/>
   </g>
   <g id="patch_14">
    <path d="M 95.835127 153.963305 
L 132.76643 153.963305 
L 132.76643 117.032002 
L 95.835127 117.032002 
z
" clip-path="url(#p752c90fd95)" style="fill: #66c2a5; stroke: #66c2a5; stroke-linejoin: miter"/>
   </g>
   <g id="patch_15">
    <path d="M 95.835127 109.645742 
L 132.76643 109.645742 
L 132.76643 72.714439 
L 95.835127 72.714439 
z
" clip-path="url(#p752c90fd95)" style="fill: #66c2a5; stroke: #66c2a5; stroke-linejoin: miter"/>
   </g>
   <g id="patch_16">
    <path d="M 95.835127 65.328178 
L 132.76643 65.328178 
L 132.76643 28.396875 
L 95.835127 28.396875 
z
" clip-path="url(#p752c90fd95)" style="fill: #66c2a5; stroke: #66c2a5; stroke-linejoin: miter"/>
   </g>
   <g id="patch_17">
    <path d="M 140.152691 242.598432 
L 177.083994 242.598432 
L 177.083994 205.667129 
L 140.152691 205.667129 
z
" clip-path="url(#p752c90fd95)" style="fill: #66c2a5; stroke: #66c2a5; stroke-linejoin: miter"/>
   </g>
   <g id="patch_18">
    <path d="M 140.152691 198.280869 
L 177.083994 198.280869 
L 177.083994 161.349566 
L 140.152691 161.349566 
z
" clip-path="url(#p752c90fd95)" style="fill: #66c2a5; stroke: #66c2a5; stroke-linejoin: miter"/>
   </g>
   <g id="patch_19">
    <path d="M 140.152691 153.963305 
L 177.083994 153.963305 
L 177.083994 117.032002 
L 140.152691 117.032002 
z
" clip-path="url(#p752c90fd95)" style="fill: #66c2a5; stroke: #66c2a5; stroke-linejoin: miter"/>
   </g>
   <g id="patch_20">
    <path d="M 140.152691 109.645742 
L 177.083994 109.645742 
L 177.083994 72.714439 
L 140.152691 72.714439 
z
" clip-path="url(#p752c90fd95)" style="fill: #66c2a5; stroke: #66c2a5; stroke-linejoin: miter"/>
   </g>
   <g id="patch_21">
    <path d="M 140.152691 65.328178 
L 177.083994 65.328178 
L 177.083994 28.396875 
L 140.152691 28.396875 
z
" clip-path="url(#p752c90fd95)" style="fill: #66c2a5; stroke: #66c2a5; stroke-linejoin: miter"/>
   </g>
   <g id="patch_22">
    <path d="M 184.470254 242.598432 
L 221.401557 242.598432 
L 221.401557 205.667129 
L 184.470254 205.667129 
z
" clip-path="url(#p752c90fd95)" style="fill: #66c2a5; stroke: #66c2a5; stroke-linejoin: miter"/>
   </g>
   <g id="patch_23">
    <path d="M 184.470254 198.280869 
L 221.401557 198.280869 
L 221.401557 161.349566 
L 184.470254 161.349566 
z
" clip-path="url(#p752c90fd95)" style="fill: #66c2a5; stroke: #66c2a5; stroke-linejoin: miter"/>
   </g>
   <g id="patch_24">
    <path d="M 184.470254 153.963305 
L 221.401557 153.963305 
L 221.401557 117.032002 
L 184.470254 117.032002 
z
" clip-path="url(#p752c90fd95)" style="fill: #66c2a5; stroke: #66c2a5; stroke-linejoin: miter"/>
   </g>
   <g id="patch_25">
    <path d="M 184.470254 109.645742 
L 221.401557 109.645742 
L 221.401557 72.714439 
L 184.470254 72.714439 
z
" clip-path="url(#p752c90fd95)" style="fill: #66c2a5; stroke: #66c2a5; stroke-linejoin: miter"/>
   </g>
   <g id="patch_26">
    <path d="M 184.470254 65.328178 
L 221.401557 65.328178 
L 221.401557 28.396875 
L 184.470254 28.396875 
z
" clip-path="url(#p752c90fd95)" style="fill: #66c2a5; stroke: #66c2a5; stroke-linejoin: miter"/>
   </g>
   <g id="patch_27">
    <path d="M 228.787818 242.598432 
L 265.719121 242.598432 
L 265.719121 205.667129 
L 228.787818 205.667129 
z
" clip-path="url(#p752c90fd95)" style="fill: #66c2a5; stroke: #66c2a5; stroke-linejoin: miter"/>
   </g>
   <g id="patch_28">
    <path d="M 228.787818 198.280869 
L 265.719121 198.280869 
L 265.719121 161.349566 
L 228.787818 161.349566 
z
" clip-path="url(#p752c90fd95)" style="fill: #66c2a5; stroke: #66c2a5; stroke-linejoin: miter"/>
   </g>
   <g id="patch_29">
    <path d="M 228.787818 153.963305 
L 265.719121 153.963305 
L 265.719121 117.032002 
L 228.787818 117.032002 
z
" clip-path="url(#p752c90fd95)" style="fill: #66c2a5; stroke: #66c2a5; stroke-linejoin: miter"/>
   </g>
   <g id="patch_30">
    <path d="M 228.787818 109.645742 
L 265.719121 109.645742 
L 265.719121 72.714439 
L 228.787818 72.714439 
z
" clip-path="url(#p752c90fd95)" style="fill: #66c2a5; stroke: #66c2a5; stroke-linejoin: miter"/>
   </g>
   <g id="patch_31">
    <path d="M 228.787818 65.328178 
L 265.719121 65.328178 
L 265.719121 28.396875 
L 228.787818 28.396875 
z
" clip-path="url(#p752c90fd95)" style="fill: #66c2a5; stroke: #66c2a5; stroke-linejoin: miter"/>
   </g>
   <g id="patch_32">
    <path d="M 273.105381 242.598432 
L 310.036684 242.598432 
L 310.036684 205.667129 
L 273.105381 205.667129 
z
" clip-path="url(#p752c90fd95)" style="fill: #fc8d62; stroke: #fc8d62; stroke-linejoin: miter"/>
   </g>
   <g id="patch_33">
    <path d="M 273.105381 198.280869 
L 310.036684 198.280869 
L 310.036684 161.349566 
L 273.105381 161.349566 
z
" clip-path="url(#p752c90fd95)" style="fill: #fc8d62; stroke: #fc8d62; stroke-linejoin: miter"/>
   </g>
   <g id="patch_34">
    <path d="M 273.105381 153.963305 
L 310.036684 153.963305 
L 310.036684 117.032002 
L 273.105381 117.032002 
z
" clip-path="url(#p752c90fd95)" style="fill: #fc8d62; stroke: #fc8d62; stroke-linejoin: miter"/>
   </g>
   <g id="patch_35">
    <path d="M 273.105381 109.645742 
L 310.036684 109.645742 
L 310.036684 72.714439 
L 273.105381 72.714439 
z
" clip-path="url(#p752c90fd95)" style="fill: #fc8d62; stroke: #fc8d62; stroke-linejoin: miter"/>
   </g>
   <g id="patch_36">
    <path d="M 273.105381 65.328178 
L 310.036684 65.328178 
L 310.036684 28.396875 
L 273.105381 28.396875 
z
" clip-path="url(#p752c90fd95)" style="fill: #fc8d62; stroke: #fc8d62; stroke-linejoin: miter"/>
   </g>
   <g id="patch_37">
    <path d="M 317.422945 242.598432 
L 354.354248 242.598432 
L 354.354248 205.667129 
L 317.422945 205.667129 
z
" clip-path="url(#p752c90fd95)" style="fill: #fc8d62; stroke: #fc8d62; stroke-linejoin: miter"/>
   </g>
   <g id="patch_38">
    <path d="M 317.422945 198.280869 
L 354.354248 198.280869 
L 354.354248 161.349566 
L 317.422945 161.349566 
z
" clip-path="url(#p752c90fd95)" style="fill: #fc8d62; stroke: #fc8d62; stroke-linejoin: miter"/>
   </g>
   <g id="patch_39">
    <path d="M 317.422945 153.963305 
L 354.354248 153.963305 
L 354.354248 117.032002 
L 317.422945 117.032002 
z
" clip-path="url(#p752c90fd95)" style="fill: #fc8d62; stroke: #fc8d62; stroke-linejoin: miter"/>
   </g>
   <g id="patch_40">
    <path d="M 317.422945 109.645742 
L 354.354248 109.645742 
L 354.354248 72.714439 
L 317.422945 72.714439 
z
" clip-path="url(#p752c90fd95)" style="fill: #fc8d62; stroke: #fc8d62; stroke-linejoin: miter"/>
   </g>
   <g id="patch_41">
    <path d="M 317.422945 65.328178 
L 354.354248 65.328178 
L 354.354248 28.396875 
L 317.422945 28.396875 
z
" clip-path="url(#p752c90fd95)" style="fill: #fc8d62; stroke: #fc8d62; stroke-linejoin: miter"/>
   </g>
   <g id="patch_42">
    <path d="M 361.740508 242.598432 
L 398.671811 242.598432 
L 398.671811 205.667129 
L 361.740508 205.667129 
z
" clip-path="url(#p752c90fd95)" style="fill: #fc8d62; stroke: #fc8d62; stroke-linejoin: miter"/>
   </g>
   <g id="patch_43">
    <path d="M 361.740508 198.280869 
L 398.671811 198.280869 
L 398.671811 161.349566 
L 361.740508 161.349566 
z
" clip-path="url(#p752c90fd95)" style="fill: #fc8d62; stroke: #fc8d62; stroke-linejoin: miter"/>
   </g>
   <g id="patch_44">
    <path d="M 361.740508 153.963305 
L 398.671811 153.963305 
L 398.671811 117.032002 
L 361.740508 117.032002 
z
" clip-path="url(#p752c90fd95)" style="fill: #fc8d62; stroke: #fc8d62; stroke-linejoin: miter"/>
   </g>
   <g id="patch_45">
    <path d="M 361.740508 109.645742 
L 398.671811 109.645742 
L 398.671811 72.714439 
L 361.740508 72.714439 
z
" clip-path="url(#p752c90fd95)" style="fill: #fc8d62; stroke: #fc8d62; stroke-linejoin: miter"/>
   </g>
   <g id="patch_46">
    <path d="M 361.740508 65.328178 
L 398.671811 65.328178 
L 398.671811 28.396875 
L 361.740508 28.396875 
z
" clip-path="url(#p752c90fd95)" style="fill: #fc8d62; stroke: #fc8d62; stroke-linejoin: miter"/>
   </g>
   <g id="patch_47">
    <path d="M 406.058072 242.598432 
L 442.989375 242.598432 
L 442.989375 205.667129 
L 406.058072 205.667129 
z
" clip-path="url(#p752c90fd95)" style="fill: #fc8d62; stroke: #fc8d62; stroke-linejoin: miter"/>
   </g>
   <g id="patch_48">
    <path d="M 406.058072 198.280869 
L 442.989375 198.280869 
L 442.989375 161.349566 
L 406.058072 161.349566 
z
" clip-path="url(#p752c90fd95)" style="fill: #8da0cb; stroke: #8da0cb; stroke-linejoin: miter"/>
   </g>
   <g id="patch_49">
    <path d="M 406.058072 153.963305 
L 442.989375 153.963305 
L 442.989375 117.032002 
L 406.058072 117.032002 
z
" clip-path="url(#p752c90fd95)" style="fill: #8da0cb; stroke: #8da0cb; stroke-linejoin: miter"/>
   </g>
   <g id="patch_50">
    <path d="M 406.058072 109.645742 
L 442.989375 109.645742 
L 442.989375 72.714439 
L 406.058072 72.714439 
z
" clip-path="url(#p752c90fd95)" style="fill: #8da0cb; stroke: #8da0cb; stroke-linejoin: miter"/>
   </g>
   <g id="patch_51">
    <path d="M 406.058072 65.328178 
L 442.989375 65.328178 
L 442.989375 28.396875 
L 406.058072 28.396875 
z
" clip-path="url(#p752c90fd95)" style="fill: #8da0cb; stroke: #8da0cb; stroke-linejoin: miter"/>
   </g>
   <g id="text_1">
    <!-- Example plot -->
    <g transform="translate(7.2 22.396875)scale(0.2 -0.2)">
     <defs>
      <path id="DejaVuSans-45" d="M 628 4666 
L 3578 4666 
L 3578 4134 
L 1259 4134 
L 1259 2753 
L 3481 2753 
L 3481 2222 
L 1259 2222 
L 1259 531 
L 3634 531 
L 3634 0 
L 628 0 
L 628 4666 
z
" transform="scale(0.015625)"/>
      <path id="DejaVuSans-78" d="M 3513 3500 
L 2247 1797 
L 3578 0 
L 2900 0 
L 1881 1375 
L 863 0 
L 184 0 
L 1544 1831 
L 300 3500 
L 978 3500 
L 1906 2253 
L 2834 3500 
L 3513 3500 
z
" transform="scale(0.015625)"/>
      <path id="DejaVuSans-61" d="M 2194 1759 
Q 1497 1759 1228 1600 
Q 959 1441 959 1056 
Q 959 750 1161 570 
Q 1363 391 1709 391 
Q 2188 391 2477 730 
Q 2766 1069 2766 1631 
L 2766 1759 
L 2194 1759 
z
M 3341 1997 
L 3341 0 
L 2766 0 
L 2766 531 
Q 2569 213 2275 61 
Q 1981 -91 1556 -91 
Q 1019 -91 701 211 
Q 384 513 384 1019 
Q 384 1609 779 1909 
Q 1175 2209 1959 2209 
L 2766 2209 
L 2766 2266 
Q 2766 2663 2505 2880 
Q 2244 3097 1772 3097 
Q 1472 3097 1187 3025 
Q 903 2953 641 2809 
L 641 3341 
Q 956 3463 1253 3523 
Q 1550 3584 1831 3584 
Q 2591 3584 2966 3190 
Q 3341 2797 3341 1997 
z
" transform="scale(0.015625)"/>
      <path id="DejaVuSans-6d" d="M 3328 2828 
Q 3544 3216 3844 3400 
Q 4144 3584 4550 3584 
Q 5097 3584 5394 3201 
Q 5691 2819 5691 2113 
L 5691 0 
L 5113 0 
L 5113 2094 
Q 5113 2597 4934 2840 
Q 4756 3084 4391 3084 
Q 3944 3084 3684 2787 
Q 3425 2491 3425 1978 
L 3425 0 
L 2847 0 
L 2847 2094 
Q 2847 2600 2669 2842 
Q 2491 3084 2119 3084 
Q 1678 3084 1418 2786 
Q 1159 2488 1159 1978 
L 1159 0 
L 581 0 
L 581 3500 
L 1159 3500 
L 1159 2956 
Q 1356 3278 1631 3431 
Q 1906 3584 2284 3584 
Q 2666 3584 2933 3390 
Q 3200 3197 3328 2828 
z
" transform="scale(0.015625)"/>
      <path id="DejaVuSans-70" d="M 1159 525 
L 1159 -1331 
L 581 -1331 
L 581 3500 
L 1159 3500 
L 1159 2969 
Q 1341 3281 1617 3432 
Q 1894 3584 2278 3584 
Q 2916 3584 3314 3078 
Q 3713 2572 3713 1747 
Q 3713 922 3314 415 
Q 2916 -91 2278 -91 
Q 1894 -91 1617 61 
Q 1341 213 1159 525 
z
M 3116 1747 
Q 3116 2381 2855 2742 
Q 2594 3103 2138 3103 
Q 1681 3103 1420 2742 
Q 1159 2381 1159 1747 
Q 1159 1113 1420 752 
Q 1681 391 2138 391 
Q 2594 391 2855 752 
Q 3116 1113 3116 1747 
z
" transform="scale(0.015625)"/>
      <path id="DejaVuSans-6c" d="M 603 4863 
L 1178 4863 
L 1178 0 
L 603 0 
L 603 4863 
z
" transform="scale(0.015625)"/>
      <path id="DejaVuSans-65" d="M 3597 1894 
L 3597 1613 
L 953 1613 
Q 991 1019 1311 708 
Q 1631 397 2203 397 
Q 2534 397 2845 478 
Q 3156 559 3463 722 
L 3463 178 
Q 3153 47 2828 -22 
Q 2503 -91 2169 -91 
Q 1331 -91 842 396 
Q 353 884 353 1716 
Q 353 2575 817 3079 
Q 1281 3584 2069 3584 
Q 2775 3584 3186 3129 
Q 3597 2675 3597 1894 
z
M 3022 2063 
Q 3016 2534 2758 2815 
Q 2500 3097 2075 3097 
Q 1594 3097 1305 2825 
Q 1016 2553 972 2059 
L 3022 2063 
z
" transform="scale(0.015625)"/>
      <path id="DejaVuSans-20" transform="scale(0.015625)"/>
      <path id="DejaVuSans-6f" d="M 1959 3097 
Q 1497 3097 1228 2736 
Q 959 2375 959 1747 
Q 959 1119 1226 758 
Q 1494 397 1959 397 
Q 2419 397 2687 759 
Q 2956 1122 2956 1747 
Q 2956 2369 2687 2733 
Q 2419 3097 1959 3097 
z
M 1959 3584 
Q 2709 3584 3137 3096 
Q 3566 2609 3566 1747 
Q 3566 888 3137 398 
Q 2709 -91 1959 -91 
Q 1206 -91 779 398 
Q 353 888 353 1747 
Q 353 2609 779 3096 
Q 1206 3584 1959 3584 
z
" transform="scale(0.015625)"/>
      <path id="DejaVuSans-74" d="M 1172 4494 
L 1172 3500 
L 2356 3500 
L 2356 3053 
L 1172 3053 
L 1172 1153 
Q 1172 725 1289 603 
Q 1406 481 1766 481 
L 2356 481 
L 2356 0 
L 1766 0 
Q 1100 0 847 248 
Q 594 497 594 1153 
L 594 3053 
L 172 3053 
L 172 3500 
L 594 3500 
L 594 4494 
L 1172 4494 
z
" transform="scale(0.015625)"/>
     </defs>
     <use xlink:href="#DejaVuSans-45"/>
     <use xlink:href="#DejaVuSans-78" x="63.183594"/>
     <use xlink:href="#DejaVuSans-61" x="122.363281"/>
     <use xlink:href="#DejaVuSans-6d" x="183.642578"/>
     <use xlink:href="#DejaVuSans-70" x="281.054688"/>
     <use xlink:href="#DejaVuSans-6c" x="344.53125"/>
     <use xlink:href="#DejaVuSans-65" x="372.314453"/>
     <use xlink:href="#DejaVuSans-20" x="433.837891"/>
     <use xlink:href="#DejaVuSans-70" x="465.625"/>
     <use xlink:href="#DejaVuSans-6c" x="529.101562"/>
     <use xlink:href="#DejaVuSans-6f" x="556.884766"/>
     <use xlink:href="#DejaVuSans-74" x="618.066406"/>
    </g>
   </g>
   <g id="legend_1">
    <g id="patch_52">
     <path d="M 15.6 279.438744 
L 365.330625 279.438744 
Q 367.730625 279.438744 367.730625 277.038744 
L 367.730625 260.624994 
Q 367.730625 258.224994 365.330625 258.224994 
L 15.6 258.224994 
Q 13.2 258.224994 13.2 260.624994 
L 13.2 277.038744 
Q 13.2 279.438744 15.6 279.438744 
L 15.6 279.438744 
z
" style="fill: none; opacity: 0"/>
    </g>
    <g id="patch_53">
     <path d="M 18 272.143119 
L 42 272.143119 
L 42 263.743119 
L 18 263.743119 
z
" style="fill: #66c2a5; stroke: #66c2a5; stroke-linejoin: miter"/>
    </g>
    <g id="text_2">
     <!-- Cat1 (60%) -->
     <g transform="translate(51.6 272.143119)scale(0.12 -0.12)">
      <defs>
       <path id="DejaVuSans-43" d="M 4122 4306 
L 4122 3641 
Q 3803 3938 3442 4084 
Q 3081 4231 2675 4231 
Q 1875 4231 1450 3742 
Q 1025 3253 1025 2328 
Q 1025 1406 1450 917 
Q 1875 428 2675 428 
Q 3081 428 3442 575 
Q 3803 722 4122 1019 
L 4122 359 
Q 3791 134 3420 21 
Q 3050 -91 2638 -91 
Q 1578 -91 968 557 
Q 359 1206 359 2328 
Q 359 3453 968 4101 
Q 1578 4750 2638 4750 
Q 3056 4750 3426 4639 
Q 3797 4528 4122 4306 
z
" transform="scale(0.015625)"/>
       <path id="DejaVuSans-31" d="M 794 531 
L 1825 531 
L 1825 4091 
L 703 3866 
L 703 4441 
L 1819 4666 
L 2450 4666 
L 2450 531 
L 3481 531 
L 3481 0 
L 794 0 
L 794 531 
z
" transform="scale(0.015625)"/>
       <path id="DejaVuSans-28" d="M 1984 4856 
Q 1566 4138 1362 3434 
Q 1159 2731 1159 2009 
Q 1159 1288 1364 580 
Q 1569 -128 1984 -844 
L 1484 -844 
Q 1016 -109 783 600 
Q 550 1309 550 2009 
Q 550 2706 781 3412 
Q 1013 4119 1484 4856 
L 1984 4856 
z
" transform="scale(0.015625)"/>
       <path id="DejaVuSans-36" d="M 2113 2584 
Q 1688 2584 1439 2293 
Q 1191 2003 1191 1497 
Q 1191 994 1439 701 
Q 1688 409 2113 409 
Q 2538 409 2786 701 
Q 3034 994 3034 1497 
Q 3034 2003 2786 2293 
Q 2538 2584 2113 2584 
z
M 3366 4563 
L 3366 3988 
Q 3128 4100 2886 4159 
Q 2644 4219 2406 4219 
Q 1781 4219 1451 3797 
Q 1122 3375 1075 2522 
Q 1259 2794 1537 2939 
Q 1816 3084 2150 3084 
Q 2853 3084 3261 2657 
Q 3669 2231 3669 1497 
Q 3669 778 3244 343 
Q 2819 -91 2113 -91 
Q 1303 -91 875 529 
Q 447 1150 447 2328 
Q 447 3434 972 4092 
Q 1497 4750 2381 4750 
Q 2619 4750 2861 4703 
Q 3103 4656 3366 4563 
z
" transform="scale(0.015625)"/>
       <path id="DejaVuSans-30" d="M 2034 4250 
Q 1547 4250 1301 3770 
Q 1056 3291 1056 2328 
Q 1056 1369 1301 889 
Q 1547 409 2034 409 
Q 2525 409 2770 889 
Q 3016 1369 3016 2328 
Q 3016 3291 2770 3770 
Q 2525 4250 2034 4250 
z
M 2034 4750 
Q 2819 4750 3233 4129 
Q 3647 3509 3647 2328 
Q 3647 1150 3233 529 
Q 2819 -91 2034 -91 
Q 1250 -91 836 529 
Q 422 1150 422 2328 
Q 422 3509 836 4129 
Q 1250 4750 2034 4750 
z
" transform="scale(0.015625)"/>
       <path id="DejaVuSans-25" d="M 4653 2053 
Q 4381 2053 4226 1822 
Q 4072 1591 4072 1178 
Q 4072 772 4226 539 
Q 4381 306 4653 306 
Q 4919 306 5073 539 
Q 5228 772 5228 1178 
Q 5228 1588 5073 1820 
Q 4919 2053 4653 2053 
z
M 4653 2450 
Q 5147 2450 5437 2106 
Q 5728 1763 5728 1178 
Q 5728 594 5436 251 
Q 5144 -91 4653 -91 
Q 4153 -91 3862 251 
Q 3572 594 3572 1178 
Q 3572 1766 3864 2108 
Q 4156 2450 4653 2450 
z
M 1428 4353 
Q 1159 4353 1004 4120 
Q 850 3888 850 3481 
Q 850 3069 1003 2837 
Q 1156 2606 1428 2606 
Q 1700 2606 1854 2837 
Q 2009 3069 2009 3481 
Q 2009 3884 1853 4118 
Q 1697 4353 1428 4353 
z
M 4250 4750 
L 4750 4750 
L 1831 -91 
L 1331 -91 
L 4250 4750 
z
M 1428 4750 
Q 1922 4750 2215 4408 
Q 2509 4066 2509 3481 
Q 2509 2891 2217 2550 
Q 1925 2209 1428 2209 
Q 931 2209 642 2551 
Q 353 2894 353 3481 
Q 353 4063 643 4406 
Q 934 4750 1428 4750 
z
" transform="scale(0.015625)"/>
       <path id="DejaVuSans-29" d="M 513 4856 
L 1013 4856 
Q 1481 4119 1714 3412 
Q 1947 2706 1947 2009 
Q 1947 1309 1714 600 
Q 1481 -109 1013 -844 
L 513 -844 
Q 928 -128 1133 580 
Q 1338 1288 1338 2009 
Q 1338 2731 1133 3434 
Q 928 4138 513 4856 
z
" transform="scale(0.015625)"/>
      </defs>
      <use xlink:href="#DejaVuSans-43"/>
      <use xlink:href="#DejaVuSans-61" x="69.824219"/>
      <use xlink:href="#DejaVuSans-74" x="131.103516"/>
      <use xlink:href="#DejaVuSans-31" x="170.3125"/>
      <use xlink:href="#DejaVuSans-20" x="233.935547"/>
      <use xlink:href="#DejaVuSans-28" x="265.722656"/>
      <use xlink:href="#DejaVuSans-36" x="304.736328"/>
      <use xlink:href="#DejaVuSans-30" x="368.359375"/>
      <use xlink:href="#DejaVuSans-25" x="431.982422"/>
      <use xlink:href="#DejaVuSans-29" x="527.001953"/>
     </g>
    </g>
    <g id="patch_54">
     <path d="M 143.521875 272.143119 
L 167.521875 272.143119 
L 167.521875 263.743119 
L 143.521875 263.743119 
z
" style="fill: #fc8d62; stroke: #fc8d62; stroke-linejoin: miter"/>
    </g>
    <g id="text_3">
     <!-- Cat2 (32%) -->
     <g transform="translate(177.121875 272.143119)scale(0.12 -0.12)">
      <defs>
       <path id="DejaVuSans-32" d="M 1228 531 
L 3431 531 
L 3431 0 
L 469 0 
L 469 531 
Q 828 903 1448 1529 
Q 2069 2156 2228 2338 
Q 2531 2678 2651 2914 
Q 2772 3150 2772 3378 
Q 2772 3750 2511 3984 
Q 2250 4219 1831 4219 
Q 1534 4219 1204 4116 
Q 875 4013 500 3803 
L 500 4441 
Q 881 4594 1212 4672 
Q 1544 4750 1819 4750 
Q 2544 4750 2975 4387 
Q 3406 4025 3406 3419 
Q 3406 3131 3298 2873 
Q 3191 2616 2906 2266 
Q 2828 2175 2409 1742 
Q 1991 1309 1228 531 
z
" transform="scale(0.015625)"/>
       <path id="DejaVuSans-33" d="M 2597 2516 
Q 3050 2419 3304 2112 
Q 3559 1806 3559 1356 
Q 3559 666 3084 287 
Q 2609 -91 1734 -91 
Q 1441 -91 1130 -33 
Q 819 25 488 141 
L 488 750 
Q 750 597 1062 519 
Q 1375 441 1716 441 
Q 2309 441 2620 675 
Q 2931 909 2931 1356 
Q 2931 1769 2642 2001 
Q 2353 2234 1838 2234 
L 1294 2234 
L 1294 2753 
L 1863 2753 
Q 2328 2753 2575 2939 
Q 2822 3125 2822 3475 
Q 2822 3834 2567 4026 
Q 2313 4219 1838 4219 
Q 1578 4219 1281 4162 
Q 984 4106 628 3988 
L 628 4550 
Q 988 4650 1302 4700 
Q 1616 4750 1894 4750 
Q 2613 4750 3031 4423 
Q 3450 4097 3450 3541 
Q 3450 3153 3228 2886 
Q 3006 2619 2597 2516 
z
" transform="scale(0.015625)"/>
      </defs>
      <use xlink:href="#DejaVuSans-43"/>
      <use xlink:href="#DejaVuSans-61" x="69.824219"/>
      <use xlink:href="#DejaVuSans-74" x="131.103516"/>
      <use xlink:href="#DejaVuSans-32" x="170.3125"/>
      <use xlink:href="#DejaVuSans-20" x="233.935547"/>
      <use xlink:href="#DejaVuSans-28" x="265.722656"/>
      <use xlink:href="#DejaVuSans-33" x="304.736328"/>
      <use xlink:href="#DejaVuSans-32" x="368.359375"/>
      <use xlink:href="#DejaVuSans-25" x="431.982422"/>
      <use xlink:href="#DejaVuSans-29" x="527.001953"/>
     </g>
    </g>
    <g id="patch_55">
     <path d="M 269.04375 272.143119 
L 293.04375 272.143119 
L 293.04375 263.743119 
L 269.04375 263.743119 
z
" style="fill: #8da0cb; stroke: #8da0cb; stroke-linejoin: miter"/>
    </g>
    <g id="text_4">
     <!-- Cat3 (8%) -->
     <g transform="translate(302.64375 272.143119)scale(0.12 -0.12)">
      <defs>
       <path id="DejaVuSans-38" d="M 2034 2216 
Q 1584 2216 1326 1975 
Q 1069 1734 1069 1313 
Q 1069 891 1326 650 
Q 1584 409 2034 409 
Q 2484 409 2743 651 
Q 3003 894 3003 1313 
Q 3003 1734 2745 1975 
Q 2488 2216 2034 2216 
z
M 1403 2484 
Q 997 2584 770 2862 
Q 544 3141 544 3541 
Q 544 4100 942 4425 
Q 1341 4750 2034 4750 
Q 2731 4750 3128 4425 
Q 3525 4100 3525 3541 
Q 3525 3141 3298 2862 
Q 3072 2584 2669 2484 
Q 3125 2378 3379 2068 
Q 3634 1759 3634 1313 
Q 3634 634 3220 271 
Q 2806 -91 2034 -91 
Q 1263 -91 848 271 
Q 434 634 434 1313 
Q 434 1759 690 2068 
Q 947 2378 1403 2484 
z
M 1172 3481 
Q 1172 3119 1398 2916 
Q 1625 2713 2034 2713 
Q 2441 2713 2670 2916 
Q 2900 3119 2900 3481 
Q 2900 3844 2670 4047 
Q 2441 4250 2034 4250 
Q 1625 4250 1398 4047 
Q 1172 3844 1172 3481 
z
" transform="scale(0.015625)"/>
      </defs>
      <use xlink:href="#DejaVuSans-43"/>
      <use xlink:href="#DejaVuSans-61" x="69.824219"/>
      <use xlink:href="#DejaVuSans-74" x="131.103516"/>
      <use xlink:href="#DejaVuSans-33" x="170.3125"/>
      <use xlink:href="#DejaVuSans-20" x="233.935547"/>
      <use xlink:href="#DejaVuSans-28" x="265.722656"/>
      <use xlink:href="#DejaVuSans-38" x="304.736328"/>
      <use xlink:href="#DejaVuSans-25" x="368.359375"/>
      <use xlink:href="#DejaVuSans-29" x="463.378906"/>
     </g>
    </g>
   </g>
  </g>
 </g>
 <defs>
  <clipPath id="p752c90fd95">
   <rect x="7.2" y="28.396875" width="435.789375" height="214.201557"/>
  </clipPath>
 </defs>
</svg>
