<?xml version="1.0" encoding="utf-8" standalone="no"?>
<!DOCTYPE svg PUBLIC "-//W3C//DTD SVG 1.1//EN"
  "http://www.w3.org/Graphics/SVG/1.1/DTD/svg11.dtd">
<svg xmlns:xlink="http://www.w3.org/1999/xlink" width="453.6pt" height="121.431933pt" viewBox="0 0 453.6 121.431933" xmlns="http://www.w3.org/2000/svg" version="1.1">
 <metadata>
  <rdf:RDF xmlns:dc="http://purl.org/dc/elements/1.1/" xmlns:cc="http://creativecommons.org/ns#" xmlns:rdf="http://www.w3.org/1999/02/22-rdf-syntax-ns#">
   <cc:Work>
    <dc:type rdf:resource="http://purl.org/dc/dcmitype/StillImage"/>
    <dc:date>2022-06-04T19:58:41.603170</dc:date>
    <dc:format>image/svg+xml</dc:format>
    <dc:creator>
     <cc:Agent>
      <dc:title>Matplotlib v3.5.2, https://matplotlib.org/</dc:title>
     </cc:Agent>
    </dc:creator>
   </cc:Work>
  </rdf:RDF>
 </metadata>
 <defs>
  <style type="text/css">*{stroke-linejoin: round; stroke-linecap: butt}</style>
 </defs>
 <g id="figure_1">
  <g id="patch_1">
   <path d="M 0 121.431933 
L 453.6 121.431933 
L 453.6 0 
L 0 0 
z
" style="fill: #ffffff"/>
  </g>
  <g id="axes_1">
   <g id="patch_2">
    <path d="M 7.2 114.231933 
L 25.653782 114.231933 
L 25.653782 95.778151 
L 7.2 95.778151 
z
" clip-path="url(#pfd1093ddce)" style="fill: #66c2a5; stroke: #66c2a5; stroke-linejoin: miter"/>
   </g>
   <g id="patch_3">
    <path d="M 7.2 92.087395 
L 25.653782 92.087395 
L 25.653782 73.633613 
L 7.2 73.633613 
z
" clip-path="url(#pfd1093ddce)" style="fill: #66c2a5; stroke: #66c2a5; stroke-linejoin: miter"/>
   </g>
   <g id="patch_4">
    <path d="M 7.2 69.942857 
L 25.653782 69.942857 
L 25.653782 51.489076 
L 7.2 51.489076 
z
" clip-path="url(#pfd1093ddce)" style="fill: #66c2a5; stroke: #66c2a5; stroke-linejoin: miter"/>
   </g>
   <g id="patch_5">
    <path d="M 7.2 47.798319 
L 25.653782 47.798319 
L 25.653782 29.344538 
L 7.2 29.344538 
z
" clip-path="url(#pfd1093ddce)" style="fill: #66c2a5; stroke: #66c2a5; stroke-linejoin: miter"/>
   </g>
   <g id="patch_6">
    <path d="M 7.2 25.653782 
L 25.653782 25.653782 
L 25.653782 7.2 
L 7.2 7.2 
z
" clip-path="url(#pfd1093ddce)" style="fill: #66c2a5; stroke: #66c2a5; stroke-linejoin: miter"/>
   </g>
   <g id="patch_7">
    <path d="M 29.344538 114.231933 
L 47.798319 114.231933 
L 47.798319 95.778151 
L 29.344538 95.778151 
z
" clip-path="url(#pfd1093ddce)" style="fill: #66c2a5; stroke: #66c2a5; stroke-linejoin: miter"/>
   </g>
   <g id="patch_8">
    <path d="M 29.344538 92.087395 
L 47.798319 92.087395 
L 47.798319 73.633613 
L 29.344538 73.633613 
z
" clip-path="url(#pfd1093ddce)" style="fill: #66c2a5; stroke: #66c2a5; stroke-linejoin: miter"/>
   </g>
   <g id="patch_9">
    <path d="M 29.344538 69.942857 
L 47.798319 69.942857 
L 47.798319 51.489076 
L 29.344538 51.489076 
z
" clip-path="url(#pfd1093ddce)" style="fill: #66c2a5; stroke: #66c2a5; stroke-linejoin: miter"/>
   </g>
   <g id="patch_10">
    <path d="M 29.344538 47.798319 
L 47.798319 47.798319 
L 47.798319 29.344538 
L 29.344538 29.344538 
z
" clip-path="url(#pfd1093ddce)" style="fill: #66c2a5; stroke: #66c2a5; stroke-linejoin: miter"/>
   </g>
   <g id="patch_11">
    <path d="M 29.344538 25.653782 
L 47.798319 25.653782 
L 47.798319 7.2 
L 29.344538 7.2 
z
" clip-path="url(#pfd1093ddce)" style="fill: #66c2a5; stroke: #66c2a5; stroke-linejoin: miter"/>
   </g>
   <g id="patch_12">
    <path d="M 51.489076 114.231933 
L 69.942857 114.231933 
L 69.942857 95.778151 
L 51.489076 95.778151 
z
" clip-path="url(#pfd1093ddce)" style="fill: #66c2a5; stroke: #66c2a5; stroke-linejoin: miter"/>
   </g>
   <g id="patch_13">
    <path d="M 51.489076 92.087395 
L 69.942857 92.087395 
L 69.942857 73.633613 
L 51.489076 73.633613 
z
" clip-path="url(#pfd1093ddce)" style="fill: #66c2a5; stroke: #66c2a5; stroke-linejoin: miter"/>
   </g>
   <g id="patch_14">
    <path d="M 51.489076 69.942857 
L 69.942857 69.942857 
L 69.942857 51.489076 
L 51.489076 51.489076 
z
" clip-path="url(#pfd1093ddce)" style="fill: #66c2a5; stroke: #66c2a5; stroke-linejoin: miter"/>
   </g>
   <g id="patch_15">
    <path d="M 51.489076 47.798319 
L 69.942857 47.798319 
L 69.942857 29.344538 
L 51.489076 29.344538 
z
" clip-path="url(#pfd1093ddce)" style="fill: #66c2a5; stroke: #66c2a5; stroke-linejoin: miter"/>
   </g>
   <g id="patch_16">
    <path d="M 51.489076 25.653782 
L 69.942857 25.653782 
L 69.942857 7.2 
L 51.489076 7.2 
z
" clip-path="url(#pfd1093ddce)" style="fill: #66c2a5; stroke: #66c2a5; stroke-linejoin: miter"/>
   </g>
   <g id="patch_17">
    <path d="M 73.633613 114.231933 
L 92.087395 114.231933 
L 92.087395 95.778151 
L 73.633613 95.778151 
z
" clip-path="url(#pfd1093ddce)" style="fill: #66c2a5; stroke: #66c2a5; stroke-linejoin: miter"/>
   </g>
   <g id="patch_18">
    <path d="M 73.633613 92.087395 
L 92.087395 92.087395 
L 92.087395 73.633613 
L 73.633613 73.633613 
z
" clip-path="url(#pfd1093ddce)" style="fill: #66c2a5; stroke: #66c2a5; stroke-linejoin: miter"/>
   </g>
   <g id="patch_19">
    <path d="M 73.633613 69.942857 
L 92.087395 69.942857 
L 92.087395 51.489076 
L 73.633613 51.489076 
z
" clip-path="url(#pfd1093ddce)" style="fill: #66c2a5; stroke: #66c2a5; stroke-linejoin: miter"/>
   </g>
   <g id="patch_20">
    <path d="M 73.633613 47.798319 
L 92.087395 47.798319 
L 92.087395 29.344538 
L 73.633613 29.344538 
z
" clip-path="url(#pfd1093ddce)" style="fill: #66c2a5; stroke: #66c2a5; stroke-linejoin: miter"/>
   </g>
   <g id="patch_21">
    <path d="M 73.633613 25.653782 
L 92.087395 25.653782 
L 92.087395 7.2 
L 73.633613 7.2 
z
" clip-path="url(#pfd1093ddce)" style="fill: #66c2a5; stroke: #66c2a5; stroke-linejoin: miter"/>
   </g>
   <g id="patch_22">
    <path d="M 95.778151 114.231933 
L 114.231933 114.231933 
L 114.231933 95.778151 
L 95.778151 95.778151 
z
" clip-path="url(#pfd1093ddce)" style="fill: #66c2a5; stroke: #66c2a5; stroke-linejoin: miter"/>
   </g>
   <g id="patch_23">
    <path d="M 95.778151 92.087395 
L 114.231933 92.087395 
L 114.231933 73.633613 
L 95.778151 73.633613 
z
" clip-path="url(#pfd1093ddce)" style="fill: #66c2a5; stroke: #66c2a5; stroke-linejoin: miter"/>
   </g>
   <g id="patch_24">
    <path d="M 95.778151 69.942857 
L 114.231933 69.942857 
L 114.231933 51.489076 
L 95.778151 51.489076 
z
" clip-path="url(#pfd1093ddce)" style="fill: #66c2a5; stroke: #66c2a5; stroke-linejoin: miter"/>
   </g>
   <g id="patch_25">
    <path d="M 95.778151 47.798319 
L 114.231933 47.798319 
L 114.231933 29.344538 
L 95.778151 29.344538 
z
" clip-path="url(#pfd1093ddce)" style="fill: #66c2a5; stroke: #66c2a5; stroke-linejoin: miter"/>
   </g>
   <g id="patch_26">
    <path d="M 95.778151 25.653782 
L 114.231933 25.653782 
L 114.231933 7.2 
L 95.778151 7.2 
z
" clip-path="url(#pfd1093ddce)" style="fill: #66c2a5; stroke: #66c2a5; stroke-linejoin: miter"/>
   </g>
   <g id="patch_27">
    <path d="M 117.922689 114.231933 
L 136.376471 114.231933 
L 136.376471 95.778151 
L 117.922689 95.778151 
z
" clip-path="url(#pfd1093ddce)" style="fill: #66c2a5; stroke: #66c2a5; stroke-linejoin: miter"/>
   </g>
   <g id="patch_28">
    <path d="M 117.922689 92.087395 
L 136.376471 92.087395 
L 136.376471 73.633613 
L 117.922689 73.633613 
z
" clip-path="url(#pfd1093ddce)" style="fill: #66c2a5; stroke: #66c2a5; stroke-linejoin: miter"/>
   </g>
   <g id="patch_29">
    <path d="M 117.922689 69.942857 
L 136.376471 69.942857 
L 136.376471 51.489076 
L 117.922689 51.489076 
z
" clip-path="url(#pfd1093ddce)" style="fill: #66c2a5; stroke: #66c2a5; stroke-linejoin: miter"/>
   </g>
   <g id="patch_30">
    <path d="M 117.922689 47.798319 
L 136.376471 47.798319 
L 136.376471 29.344538 
L 117.922689 29.344538 
z
" clip-path="url(#pfd1093ddce)" style="fill: #66c2a5; stroke: #66c2a5; stroke-linejoin: miter"/>
   </g>
   <g id="patch_31">
    <path d="M 117.922689 25.653782 
L 136.376471 25.653782 
L 136.376471 7.2 
L 117.922689 7.2 
z
" clip-path="url(#pfd1093ddce)" style="fill: #66c2a5; stroke: #66c2a5; stroke-linejoin: miter"/>
   </g>
   <g id="patch_32">
    <path d="M 140.067227 114.231933 
L 158.521008 114.231933 
L 158.521008 95.778151 
L 140.067227 95.778151 
z
" clip-path="url(#pfd1093ddce)" style="fill: #66c2a5; stroke: #66c2a5; stroke-linejoin: miter"/>
   </g>
   <g id="patch_33">
    <path d="M 140.067227 92.087395 
L 158.521008 92.087395 
L 158.521008 73.633613 
L 140.067227 73.633613 
z
" clip-path="url(#pfd1093ddce)" style="fill: #66c2a5; stroke: #66c2a5; stroke-linejoin: miter"/>
   </g>
   <g id="patch_34">
    <path d="M 140.067227 69.942857 
L 158.521008 69.942857 
L 158.521008 51.489076 
L 140.067227 51.489076 
z
" clip-path="url(#pfd1093ddce)" style="fill: #66c2a5; stroke: #66c2a5; stroke-linejoin: miter"/>
   </g>
   <g id="patch_35">
    <path d="M 140.067227 47.798319 
L 158.521008 47.798319 
L 158.521008 29.344538 
L 140.067227 29.344538 
z
" clip-path="url(#pfd1093ddce)" style="fill: #66c2a5; stroke: #66c2a5; stroke-linejoin: miter"/>
   </g>
   <g id="patch_36">
    <path d="M 140.067227 25.653782 
L 158.521008 25.653782 
L 158.521008 7.2 
L 140.067227 7.2 
z
" clip-path="url(#pfd1093ddce)" style="fill: #66c2a5; stroke: #66c2a5; stroke-linejoin: miter"/>
   </g>
   <g id="patch_37">
    <path d="M 162.211765 114.231933 
L 180.665546 114.231933 
L 180.665546 95.778151 
L 162.211765 95.778151 
z
" clip-path="url(#pfd1093ddce)" style="fill: #66c2a5; stroke: #66c2a5; stroke-linejoin: miter"/>
   </g>
   <g id="patch_38">
    <path d="M 162.211765 92.087395 
L 180.665546 92.087395 
L 180.665546 73.633613 
L 162.211765 73.633613 
z
" clip-path="url(#pfd1093ddce)" style="fill: #66c2a5; stroke: #66c2a5; stroke-linejoin: miter"/>
   </g>
   <g id="patch_39">
    <path d="M 162.211765 69.942857 
L 180.665546 69.942857 
L 180.665546 51.489076 
L 162.211765 51.489076 
z
" clip-path="url(#pfd1093ddce)" style="fill: #66c2a5; stroke: #66c2a5; stroke-linejoin: miter"/>
   </g>
   <g id="patch_40">
    <path d="M 162.211765 47.798319 
L 180.665546 47.798319 
L 180.665546 29.344538 
L 162.211765 29.344538 
z
" clip-path="url(#pfd1093ddce)" style="fill: #66c2a5; stroke: #66c2a5; stroke-linejoin: miter"/>
   </g>
   <g id="patch_41">
    <path d="M 162.211765 25.653782 
L 180.665546 25.653782 
L 180.665546 7.2 
L 162.211765 7.2 
z
" clip-path="url(#pfd1093ddce)" style="fill: #66c2a5; stroke: #66c2a5; stroke-linejoin: miter"/>
   </g>
   <g id="patch_42">
    <path d="M 184.356303 114.231933 
L 202.810084 114.231933 
L 202.810084 95.778151 
L 184.356303 95.778151 
z
" clip-path="url(#pfd1093ddce)" style="fill: #66c2a5; stroke: #66c2a5; stroke-linejoin: miter"/>
   </g>
   <g id="patch_43">
    <path d="M 184.356303 92.087395 
L 202.810084 92.087395 
L 202.810084 73.633613 
L 184.356303 73.633613 
z
" clip-path="url(#pfd1093ddce)" style="fill: #66c2a5; stroke: #66c2a5; stroke-linejoin: miter"/>
   </g>
   <g id="patch_44">
    <path d="M 184.356303 69.942857 
L 202.810084 69.942857 
L 202.810084 51.489076 
L 184.356303 51.489076 
z
" clip-path="url(#pfd1093ddce)" style="fill: #66c2a5; stroke: #66c2a5; stroke-linejoin: miter"/>
   </g>
   <g id="patch_45">
    <path d="M 184.356303 47.798319 
L 202.810084 47.798319 
L 202.810084 29.344538 
L 184.356303 29.344538 
z
" clip-path="url(#pfd1093ddce)" style="fill: #66c2a5; stroke: #66c2a5; stroke-linejoin: miter"/>
   </g>
   <g id="patch_46">
    <path d="M 184.356303 25.653782 
L 202.810084 25.653782 
L 202.810084 7.2 
L 184.356303 7.2 
z
" clip-path="url(#pfd1093ddce)" style="fill: #66c2a5; stroke: #66c2a5; stroke-linejoin: miter"/>
   </g>
   <g id="patch_47">
    <path d="M 206.50084 114.231933 
L 224.954622 114.231933 
L 224.954622 95.778151 
L 206.50084 95.778151 
z
" clip-path="url(#pfd1093ddce)" style="fill: #66c2a5; stroke: #66c2a5; stroke-linejoin: miter"/>
   </g>
   <g id="patch_48">
    <path d="M 206.50084 92.087395 
L 224.954622 92.087395 
L 224.954622 73.633613 
L 206.50084 73.633613 
z
" clip-path="url(#pfd1093ddce)" style="fill: #66c2a5; stroke: #66c2a5; stroke-linejoin: miter"/>
   </g>
   <g id="patch_49">
    <path d="M 206.50084 69.942857 
L 224.954622 69.942857 
L 224.954622 51.489076 
L 206.50084 51.489076 
z
" clip-path="url(#pfd1093ddce)" style="fill: #66c2a5; stroke: #66c2a5; stroke-linejoin: miter"/>
   </g>
   <g id="patch_50">
    <path d="M 206.50084 47.798319 
L 224.954622 47.798319 
L 224.954622 29.344538 
L 206.50084 29.344538 
z
" clip-path="url(#pfd1093ddce)" style="fill: #fc8d62; stroke: #fc8d62; stroke-linejoin: miter"/>
   </g>
   <g id="patch_51">
    <path d="M 206.50084 25.653782 
L 224.954622 25.653782 
L 224.954622 7.2 
L 206.50084 7.2 
z
" clip-path="url(#pfd1093ddce)" style="fill: #fc8d62; stroke: #fc8d62; stroke-linejoin: miter"/>
   </g>
   <g id="patch_52">
    <path d="M 228.645378 114.231933 
L 247.09916 114.231933 
L 247.09916 95.778151 
L 228.645378 95.778151 
z
" clip-path="url(#pfd1093ddce)" style="fill: #fc8d62; stroke: #fc8d62; stroke-linejoin: miter"/>
   </g>
   <g id="patch_53">
    <path d="M 228.645378 92.087395 
L 247.09916 92.087395 
L 247.09916 73.633613 
L 228.645378 73.633613 
z
" clip-path="url(#pfd1093ddce)" style="fill: #fc8d62; stroke: #fc8d62; stroke-linejoin: miter"/>
   </g>
   <g id="patch_54">
    <path d="M 228.645378 69.942857 
L 247.09916 69.942857 
L 247.09916 51.489076 
L 228.645378 51.489076 
z
" clip-path="url(#pfd1093ddce)" style="fill: #fc8d62; stroke: #fc8d62; stroke-linejoin: miter"/>
   </g>
   <g id="patch_55">
    <path d="M 228.645378 47.798319 
L 247.09916 47.798319 
L 247.09916 29.344538 
L 228.645378 29.344538 
z
" clip-path="url(#pfd1093ddce)" style="fill: #fc8d62; stroke: #fc8d62; stroke-linejoin: miter"/>
   </g>
   <g id="patch_56">
    <path d="M 228.645378 25.653782 
L 247.09916 25.653782 
L 247.09916 7.2 
L 228.645378 7.2 
z
" clip-path="url(#pfd1093ddce)" style="fill: #fc8d62; stroke: #fc8d62; stroke-linejoin: miter"/>
   </g>
   <g id="patch_57">
    <path d="M 250.789916 114.231933 
L 269.243697 114.231933 
L 269.243697 95.778151 
L 250.789916 95.778151 
z
" clip-path="url(#pfd1093ddce)" style="fill: #fc8d62; stroke: #fc8d62; stroke-linejoin: miter"/>
   </g>
   <g id="patch_58">
    <path d="M 250.789916 92.087395 
L 269.243697 92.087395 
L 269.243697 73.633613 
L 250.789916 73.633613 
z
" clip-path="url(#pfd1093ddce)" style="fill: #fc8d62; stroke: #fc8d62; stroke-linejoin: miter"/>
   </g>
   <g id="patch_59">
    <path d="M 250.789916 69.942857 
L 269.243697 69.942857 
L 269.243697 51.489076 
L 250.789916 51.489076 
z
" clip-path="url(#pfd1093ddce)" style="fill: #fc8d62; stroke: #fc8d62; stroke-linejoin: miter"/>
   </g>
   <g id="patch_60">
    <path d="M 250.789916 47.798319 
L 269.243697 47.798319 
L 269.243697 29.344538 
L 250.789916 29.344538 
z
" clip-path="url(#pfd1093ddce)" style="fill: #fc8d62; stroke: #fc8d62; stroke-linejoin: miter"/>
   </g>
   <g id="patch_61">
    <path d="M 250.789916 25.653782 
L 269.243697 25.653782 
L 269.243697 7.2 
L 250.789916 7.2 
z
" clip-path="url(#pfd1093ddce)" style="fill: #fc8d62; stroke: #fc8d62; stroke-linejoin: miter"/>
   </g>
   <g id="patch_62">
    <path d="M 272.934454 114.231933 
L 291.388235 114.231933 
L 291.388235 95.778151 
L 272.934454 95.778151 
z
" clip-path="url(#pfd1093ddce)" style="fill: #fc8d62; stroke: #fc8d62; stroke-linejoin: miter"/>
   </g>
   <g id="patch_63">
    <path d="M 272.934454 92.087395 
L 291.388235 92.087395 
L 291.388235 73.633613 
L 272.934454 73.633613 
z
" clip-path="url(#pfd1093ddce)" style="fill: #fc8d62; stroke: #fc8d62; stroke-linejoin: miter"/>
   </g>
   <g id="patch_64">
    <path d="M 272.934454 69.942857 
L 291.388235 69.942857 
L 291.388235 51.489076 
L 272.934454 51.489076 
z
" clip-path="url(#pfd1093ddce)" style="fill: #fc8d62; stroke: #fc8d62; stroke-linejoin: miter"/>
   </g>
   <g id="patch_65">
    <path d="M 272.934454 47.798319 
L 291.388235 47.798319 
L 291.388235 29.344538 
L 272.934454 29.344538 
z
" clip-path="url(#pfd1093ddce)" style="fill: #fc8d62; stroke: #fc8d62; stroke-linejoin: miter"/>
   </g>
   <g id="patch_66">
    <path d="M 272.934454 25.653782 
L 291.388235 25.653782 
L 291.388235 7.2 
L 272.934454 7.2 
z
" clip-path="url(#pfd1093ddce)" style="fill: #fc8d62; stroke: #fc8d62; stroke-linejoin: miter"/>
   </g>
   <g id="patch_67">
    <path d="M 295.078992 114.231933 
L 313.532773 114.231933 
L 313.532773 95.778151 
L 295.078992 95.778151 
z
" clip-path="url(#pfd1093ddce)" style="fill: #fc8d62; stroke: #fc8d62; stroke-linejoin: miter"/>
   </g>
   <g id="patch_68">
    <path d="M 295.078992 92.087395 
L 313.532773 92.087395 
L 313.532773 73.633613 
L 295.078992 73.633613 
z
" clip-path="url(#pfd1093ddce)" style="fill: #fc8d62; stroke: #fc8d62; stroke-linejoin: miter"/>
   </g>
   <g id="patch_69">
    <path d="M 295.078992 69.942857 
L 313.532773 69.942857 
L 313.532773 51.489076 
L 295.078992 51.489076 
z
" clip-path="url(#pfd1093ddce)" style="fill: #fc8d62; stroke: #fc8d62; stroke-linejoin: miter"/>
   </g>
   <g id="patch_70">
    <path d="M 295.078992 47.798319 
L 313.532773 47.798319 
L 313.532773 29.344538 
L 295.078992 29.344538 
z
" clip-path="url(#pfd1093ddce)" style="fill: #fc8d62; stroke: #fc8d62; stroke-linejoin: miter"/>
   </g>
   <g id="patch_71">
    <path d="M 295.078992 25.653782 
L 313.532773 25.653782 
L 313.532773 7.2 
L 295.078992 7.2 
z
" clip-path="url(#pfd1093ddce)" style="fill: #fc8d62; stroke: #fc8d62; stroke-linejoin: miter"/>
   </g>
   <g id="patch_72">
    <path d="M 317.223529 114.231933 
L 335.677311 114.231933 
L 335.677311 95.778151 
L 317.223529 95.778151 
z
" clip-path="url(#pfd1093ddce)" style="fill: #fc8d62; stroke: #fc8d62; stroke-linejoin: miter"/>
   </g>
   <g id="patch_73">
    <path d="M 317.223529 92.087395 
L 335.677311 92.087395 
L 335.677311 73.633613 
L 317.223529 73.633613 
z
" clip-path="url(#pfd1093ddce)" style="fill: #fc8d62; stroke: #fc8d62; stroke-linejoin: miter"/>
   </g>
   <g id="patch_74">
    <path d="M 317.223529 69.942857 
L 335.677311 69.942857 
L 335.677311 51.489076 
L 317.223529 51.489076 
z
" clip-path="url(#pfd1093ddce)" style="fill: #fc8d62; stroke: #fc8d62; stroke-linejoin: miter"/>
   </g>
   <g id="patch_75">
    <path d="M 317.223529 47.798319 
L 335.677311 47.798319 
L 335.677311 29.344538 
L 317.223529 29.344538 
z
" clip-path="url(#pfd1093ddce)" style="fill: #fc8d62; stroke: #fc8d62; stroke-linejoin: miter"/>
   </g>
   <g id="patch_76">
    <path d="M 317.223529 25.653782 
L 335.677311 25.653782 
L 335.677311 7.2 
L 317.223529 7.2 
z
" clip-path="url(#pfd1093ddce)" style="fill: #fc8d62; stroke: #fc8d62; stroke-linejoin: miter"/>
   </g>
   <g id="patch_77">
    <path d="M 339.368067 114.231933 
L 357.821849 114.231933 
L 357.821849 95.778151 
L 339.368067 95.778151 
z
" clip-path="url(#pfd1093ddce)" style="fill: #fc8d62; stroke: #fc8d62; stroke-linejoin: miter"/>
   </g>
   <g id="patch_78">
    <path d="M 339.368067 92.087395 
L 357.821849 92.087395 
L 357.821849 73.633613 
L 339.368067 73.633613 
z
" clip-path="url(#pfd1093ddce)" style="fill: #fc8d62; stroke: #fc8d62; stroke-linejoin: miter"/>
   </g>
   <g id="patch_79">
    <path d="M 339.368067 69.942857 
L 357.821849 69.942857 
L 357.821849 51.489076 
L 339.368067 51.489076 
z
" clip-path="url(#pfd1093ddce)" style="fill: #fc8d62; stroke: #fc8d62; stroke-linejoin: miter"/>
   </g>
   <g id="patch_80">
    <path d="M 339.368067 47.798319 
L 357.821849 47.798319 
L 357.821849 29.344538 
L 339.368067 29.344538 
z
" clip-path="url(#pfd1093ddce)" style="fill: #fc8d62; stroke: #fc8d62; stroke-linejoin: miter"/>
   </g>
   <g id="patch_81">
    <path d="M 339.368067 25.653782 
L 357.821849 25.653782 
L 357.821849 7.2 
L 339.368067 7.2 
z
" clip-path="url(#pfd1093ddce)" style="fill: #fc8d62; stroke: #fc8d62; stroke-linejoin: miter"/>
   </g>
   <g id="patch_82">
    <path d="M 361.512605 114.231933 
L 379.966387 114.231933 
L 379.966387 95.778151 
L 361.512605 95.778151 
z
" clip-path="url(#pfd1093ddce)" style="fill: #fc8d62; stroke: #fc8d62; stroke-linejoin: miter"/>
   </g>
   <g id="patch_83">
    <path d="M 361.512605 92.087395 
L 379.966387 92.087395 
L 379.966387 73.633613 
L 361.512605 73.633613 
z
" clip-path="url(#pfd1093ddce)" style="fill: #fc8d62; stroke: #fc8d62; stroke-linejoin: miter"/>
   </g>
   <g id="patch_84">
    <path d="M 361.512605 69.942857 
L 379.966387 69.942857 
L 379.966387 51.489076 
L 361.512605 51.489076 
z
" clip-path="url(#pfd1093ddce)" style="fill: #fc8d62; stroke: #fc8d62; stroke-linejoin: miter"/>
   </g>
   <g id="patch_85">
    <path d="M 361.512605 47.798319 
L 379.966387 47.798319 
L 379.966387 29.344538 
L 361.512605 29.344538 
z
" clip-path="url(#pfd1093ddce)" style="fill: #fc8d62; stroke: #fc8d62; stroke-linejoin: miter"/>
   </g>
   <g id="patch_86">
    <path d="M 361.512605 25.653782 
L 379.966387 25.653782 
L 379.966387 7.2 
L 361.512605 7.2 
z
" clip-path="url(#pfd1093ddce)" style="fill: #fc8d62; stroke: #fc8d62; stroke-linejoin: miter"/>
   </g>
   <g id="patch_87">
    <path d="M 383.657143 114.231933 
L 402.110924 114.231933 
L 402.110924 95.778151 
L 383.657143 95.778151 
z
" clip-path="url(#pfd1093ddce)" style="fill: #fc8d62; stroke: #fc8d62; stroke-linejoin: miter"/>
   </g>
   <g id="patch_88">
    <path d="M 383.657143 92.087395 
L 402.110924 92.087395 
L 402.110924 73.633613 
L 383.657143 73.633613 
z
" clip-path="url(#pfd1093ddce)" style="fill: #fc8d62; stroke: #fc8d62; stroke-linejoin: miter"/>
   </g>
   <g id="patch_89">
    <path d="M 383.657143 69.942857 
L 402.110924 69.942857 
L 402.110924 51.489076 
L 383.657143 51.489076 
z
" clip-path="url(#pfd1093ddce)" style="fill: #fc8d62; stroke: #fc8d62; stroke-linejoin: miter"/>
   </g>
   <g id="patch_90">
    <path d="M 383.657143 47.798319 
L 402.110924 47.798319 
L 402.110924 29.344538 
L 383.657143 29.344538 
z
" clip-path="url(#pfd1093ddce)" style="fill: #fc8d62; stroke: #fc8d62; stroke-linejoin: miter"/>
   </g>
   <g id="patch_91">
    <path d="M 383.657143 25.653782 
L 402.110924 25.653782 
L 402.110924 7.2 
L 383.657143 7.2 
z
" clip-path="url(#pfd1093ddce)" style="fill: #fc8d62; stroke: #fc8d62; stroke-linejoin: miter"/>
   </g>
   <g id="patch_92">
    <path d="M 405.801681 114.231933 
L 424.255462 114.231933 
L 424.255462 95.778151 
L 405.801681 95.778151 
z
" clip-path="url(#pfd1093ddce)" style="fill: #fc8d62; stroke: #fc8d62; stroke-linejoin: miter"/>
   </g>
   <g id="patch_93">
    <path d="M 405.801681 92.087395 
L 424.255462 92.087395 
L 424.255462 73.633613 
L 405.801681 73.633613 
z
" clip-path="url(#pfd1093ddce)" style="fill: #fc8d62; stroke: #fc8d62; stroke-linejoin: miter"/>
   </g>
   <g id="patch_94">
    <path d="M 405.801681 69.942857 
L 424.255462 69.942857 
L 424.255462 51.489076 
L 405.801681 51.489076 
z
" clip-path="url(#pfd1093ddce)" style="fill: #fc8d62; stroke: #fc8d62; stroke-linejoin: miter"/>
   </g>
   <g id="patch_95">
    <path d="M 405.801681 47.798319 
L 424.255462 47.798319 
L 424.255462 29.344538 
L 405.801681 29.344538 
z
" clip-path="url(#pfd1093ddce)" style="fill: #fc8d62; stroke: #fc8d62; stroke-linejoin: miter"/>
   </g>
   <g id="patch_96">
    <path d="M 405.801681 25.653782 
L 424.255462 25.653782 
L 424.255462 7.2 
L 405.801681 7.2 
z
" clip-path="url(#pfd1093ddce)" style="fill: #8da0cb; stroke: #8da0cb; stroke-linejoin: miter"/>
   </g>
   <g id="patch_97">
    <path d="M 427.946218 114.231933 
L 446.4 114.231933 
L 446.4 95.778151 
L 427.946218 95.778151 
z
" clip-path="url(#pfd1093ddce)" style="fill: #8da0cb; stroke: #8da0cb; stroke-linejoin: miter"/>
   </g>
   <g id="patch_98">
    <path d="M 427.946218 92.087395 
L 446.4 92.087395 
L 446.4 73.633613 
L 427.946218 73.633613 
z
" clip-path="url(#pfd1093ddce)" style="fill: #8da0cb; stroke: #8da0cb; stroke-linejoin: miter"/>
   </g>
  </g>
 </g>
 <defs>
  <clipPath id="pfd1093ddce">
   <rect x="7.2" y="7.2" width="439.2" height="107.031933"/>
  </clipPath>
 </defs>
</svg>
