<?xml version="1.0" encoding="utf-8" standalone="no"?>
<!DOCTYPE svg PUBLIC "-//W3C//DTD SVG 1.1//EN"
  "http://www.w3.org/Graphics/SVG/1.1/DTD/svg11.dtd">
<!-- Created with matplotlib (https://matplotlib.org/) -->
<svg height="338.4pt" version="1.1" viewBox="0 0 338.4 338.4" width="338.4pt" xmlns="http://www.w3.org/2000/svg" xmlns:xlink="http://www.w3.org/1999/xlink">
 <defs>
  <style type="text/css">
*{stroke-linecap:butt;stroke-linejoin:round;}
  </style>
 </defs>
 <g id="figure_1">
  <g id="patch_1">
   <path d="M 0 338.4 
L 338.4 338.4 
L 338.4 0 
L 0 0 
z
" style="fill:#ffffff;"/>
  </g>
  <g id="axes_1">
   <g id="patch_2">
    <path clip-path="url(#p4d3bd073a0)" d="M 7.2 331.2 
L 34.657627 331.2 
L 34.657627 303.742373 
L 7.2 303.742373 
z
" style="fill:#66c2a5;stroke:#66c2a5;stroke-linejoin:miter;"/>
   </g>
   <g id="patch_3">
    <path clip-path="url(#p4d3bd073a0)" d="M 7.2 298.250847 
L 34.657627 298.250847 
L 34.657627 270.79322 
L 7.2 270.79322 
z
" style="fill:#66c2a5;stroke:#66c2a5;stroke-linejoin:miter;"/>
   </g>
   <g id="patch_4">
    <path clip-path="url(#p4d3bd073a0)" d="M 7.2 265.301695 
L 34.657627 265.301695 
L 34.657627 237.844068 
L 7.2 237.844068 
z
" style="fill:#66c2a5;stroke:#66c2a5;stroke-linejoin:miter;"/>
   </g>
   <g id="patch_5">
    <path clip-path="url(#p4d3bd073a0)" d="M 7.2 232.352542 
L 34.657627 232.352542 
L 34.657627 204.894915 
L 7.2 204.894915 
z
" style="fill:#66c2a5;stroke:#66c2a5;stroke-linejoin:miter;"/>
   </g>
   <g id="patch_6">
    <path clip-path="url(#p4d3bd073a0)" d="M 7.2 199.40339 
L 34.657627 199.40339 
L 34.657627 171.945763 
L 7.2 171.945763 
z
" style="fill:#66c2a5;stroke:#66c2a5;stroke-linejoin:miter;"/>
   </g>
   <g id="patch_7">
    <path clip-path="url(#p4d3bd073a0)" d="M 7.2 166.454237 
L 34.657627 166.454237 
L 34.657627 138.99661 
L 7.2 138.99661 
z
" style="fill:#66c2a5;stroke:#66c2a5;stroke-linejoin:miter;"/>
   </g>
   <g id="patch_8">
    <path clip-path="url(#p4d3bd073a0)" d="M 7.2 133.505085 
L 34.657627 133.505085 
L 34.657627 106.047458 
L 7.2 106.047458 
z
" style="fill:#66c2a5;stroke:#66c2a5;stroke-linejoin:miter;"/>
   </g>
   <g id="patch_9">
    <path clip-path="url(#p4d3bd073a0)" d="M 7.2 100.555932 
L 34.657627 100.555932 
L 34.657627 73.098305 
L 7.2 73.098305 
z
" style="fill:#66c2a5;stroke:#66c2a5;stroke-linejoin:miter;"/>
   </g>
   <g id="patch_10">
    <path clip-path="url(#p4d3bd073a0)" d="M 7.2 67.60678 
L 34.657627 67.60678 
L 34.657627 40.149153 
L 7.2 40.149153 
z
" style="fill:#66c2a5;stroke:#66c2a5;stroke-linejoin:miter;"/>
   </g>
   <g id="patch_11">
    <path clip-path="url(#p4d3bd073a0)" d="M 7.2 34.657627 
L 34.657627 34.657627 
L 34.657627 7.2 
L 7.2 7.2 
z
" style="fill:#66c2a5;stroke:#66c2a5;stroke-linejoin:miter;"/>
   </g>
   <g id="patch_12">
    <path clip-path="url(#p4d3bd073a0)" d="M 40.149153 331.2 
L 67.60678 331.2 
L 67.60678 303.742373 
L 40.149153 303.742373 
z
" style="fill:#66c2a5;stroke:#66c2a5;stroke-linejoin:miter;"/>
   </g>
   <g id="patch_13">
    <path clip-path="url(#p4d3bd073a0)" d="M 40.149153 298.250847 
L 67.60678 298.250847 
L 67.60678 270.79322 
L 40.149153 270.79322 
z
" style="fill:#66c2a5;stroke:#66c2a5;stroke-linejoin:miter;"/>
   </g>
   <g id="patch_14">
    <path clip-path="url(#p4d3bd073a0)" d="M 40.149153 265.301695 
L 67.60678 265.301695 
L 67.60678 237.844068 
L 40.149153 237.844068 
z
" style="fill:#66c2a5;stroke:#66c2a5;stroke-linejoin:miter;"/>
   </g>
   <g id="patch_15">
    <path clip-path="url(#p4d3bd073a0)" d="M 40.149153 232.352542 
L 67.60678 232.352542 
L 67.60678 204.894915 
L 40.149153 204.894915 
z
" style="fill:#66c2a5;stroke:#66c2a5;stroke-linejoin:miter;"/>
   </g>
   <g id="patch_16">
    <path clip-path="url(#p4d3bd073a0)" d="M 40.149153 199.40339 
L 67.60678 199.40339 
L 67.60678 171.945763 
L 40.149153 171.945763 
z
" style="fill:#66c2a5;stroke:#66c2a5;stroke-linejoin:miter;"/>
   </g>
   <g id="patch_17">
    <path clip-path="url(#p4d3bd073a0)" d="M 40.149153 166.454237 
L 67.60678 166.454237 
L 67.60678 138.99661 
L 40.149153 138.99661 
z
" style="fill:#66c2a5;stroke:#66c2a5;stroke-linejoin:miter;"/>
   </g>
   <g id="patch_18">
    <path clip-path="url(#p4d3bd073a0)" d="M 40.149153 133.505085 
L 67.60678 133.505085 
L 67.60678 106.047458 
L 40.149153 106.047458 
z
" style="fill:#66c2a5;stroke:#66c2a5;stroke-linejoin:miter;"/>
   </g>
   <g id="patch_19">
    <path clip-path="url(#p4d3bd073a0)" d="M 40.149153 100.555932 
L 67.60678 100.555932 
L 67.60678 73.098305 
L 40.149153 73.098305 
z
" style="fill:#66c2a5;stroke:#66c2a5;stroke-linejoin:miter;"/>
   </g>
   <g id="patch_20">
    <path clip-path="url(#p4d3bd073a0)" d="M 40.149153 67.60678 
L 67.60678 67.60678 
L 67.60678 40.149153 
L 40.149153 40.149153 
z
" style="fill:#66c2a5;stroke:#66c2a5;stroke-linejoin:miter;"/>
   </g>
   <g id="patch_21">
    <path clip-path="url(#p4d3bd073a0)" d="M 40.149153 34.657627 
L 67.60678 34.657627 
L 67.60678 7.2 
L 40.149153 7.2 
z
" style="fill:#66c2a5;stroke:#66c2a5;stroke-linejoin:miter;"/>
   </g>
   <g id="patch_22">
    <path clip-path="url(#p4d3bd073a0)" d="M 73.098305 331.2 
L 100.555932 331.2 
L 100.555932 303.742373 
L 73.098305 303.742373 
z
" style="fill:#66c2a5;stroke:#66c2a5;stroke-linejoin:miter;"/>
   </g>
   <g id="patch_23">
    <path clip-path="url(#p4d3bd073a0)" d="M 73.098305 298.250847 
L 100.555932 298.250847 
L 100.555932 270.79322 
L 73.098305 270.79322 
z
" style="fill:#66c2a5;stroke:#66c2a5;stroke-linejoin:miter;"/>
   </g>
   <g id="patch_24">
    <path clip-path="url(#p4d3bd073a0)" d="M 73.098305 265.301695 
L 100.555932 265.301695 
L 100.555932 237.844068 
L 73.098305 237.844068 
z
" style="fill:#66c2a5;stroke:#66c2a5;stroke-linejoin:miter;"/>
   </g>
   <g id="patch_25">
    <path clip-path="url(#p4d3bd073a0)" d="M 73.098305 232.352542 
L 100.555932 232.352542 
L 100.555932 204.894915 
L 73.098305 204.894915 
z
" style="fill:#66c2a5;stroke:#66c2a5;stroke-linejoin:miter;"/>
   </g>
   <g id="patch_26">
    <path clip-path="url(#p4d3bd073a0)" d="M 73.098305 199.40339 
L 100.555932 199.40339 
L 100.555932 171.945763 
L 73.098305 171.945763 
z
" style="fill:#66c2a5;stroke:#66c2a5;stroke-linejoin:miter;"/>
   </g>
   <g id="patch_27">
    <path clip-path="url(#p4d3bd073a0)" d="M 73.098305 166.454237 
L 100.555932 166.454237 
L 100.555932 138.99661 
L 73.098305 138.99661 
z
" style="fill:#66c2a5;stroke:#66c2a5;stroke-linejoin:miter;"/>
   </g>
   <g id="patch_28">
    <path clip-path="url(#p4d3bd073a0)" d="M 73.098305 133.505085 
L 100.555932 133.505085 
L 100.555932 106.047458 
L 73.098305 106.047458 
z
" style="fill:#66c2a5;stroke:#66c2a5;stroke-linejoin:miter;"/>
   </g>
   <g id="patch_29">
    <path clip-path="url(#p4d3bd073a0)" d="M 73.098305 100.555932 
L 100.555932 100.555932 
L 100.555932 73.098305 
L 73.098305 73.098305 
z
" style="fill:#66c2a5;stroke:#66c2a5;stroke-linejoin:miter;"/>
   </g>
   <g id="patch_30">
    <path clip-path="url(#p4d3bd073a0)" d="M 73.098305 67.60678 
L 100.555932 67.60678 
L 100.555932 40.149153 
L 73.098305 40.149153 
z
" style="fill:#66c2a5;stroke:#66c2a5;stroke-linejoin:miter;"/>
   </g>
   <g id="patch_31">
    <path clip-path="url(#p4d3bd073a0)" d="M 73.098305 34.657627 
L 100.555932 34.657627 
L 100.555932 7.2 
L 73.098305 7.2 
z
" style="fill:#66c2a5;stroke:#66c2a5;stroke-linejoin:miter;"/>
   </g>
   <g id="patch_32">
    <path clip-path="url(#p4d3bd073a0)" d="M 106.047458 331.2 
L 133.505085 331.2 
L 133.505085 303.742373 
L 106.047458 303.742373 
z
" style="fill:#66c2a5;stroke:#66c2a5;stroke-linejoin:miter;"/>
   </g>
   <g id="patch_33">
    <path clip-path="url(#p4d3bd073a0)" d="M 106.047458 298.250847 
L 133.505085 298.250847 
L 133.505085 270.79322 
L 106.047458 270.79322 
z
" style="fill:#66c2a5;stroke:#66c2a5;stroke-linejoin:miter;"/>
   </g>
   <g id="patch_34">
    <path clip-path="url(#p4d3bd073a0)" d="M 106.047458 265.301695 
L 133.505085 265.301695 
L 133.505085 237.844068 
L 106.047458 237.844068 
z
" style="fill:#66c2a5;stroke:#66c2a5;stroke-linejoin:miter;"/>
   </g>
   <g id="patch_35">
    <path clip-path="url(#p4d3bd073a0)" d="M 106.047458 232.352542 
L 133.505085 232.352542 
L 133.505085 204.894915 
L 106.047458 204.894915 
z
" style="fill:#66c2a5;stroke:#66c2a5;stroke-linejoin:miter;"/>
   </g>
   <g id="patch_36">
    <path clip-path="url(#p4d3bd073a0)" d="M 106.047458 199.40339 
L 133.505085 199.40339 
L 133.505085 171.945763 
L 106.047458 171.945763 
z
" style="fill:#66c2a5;stroke:#66c2a5;stroke-linejoin:miter;"/>
   </g>
   <g id="patch_37">
    <path clip-path="url(#p4d3bd073a0)" d="M 106.047458 166.454237 
L 133.505085 166.454237 
L 133.505085 138.99661 
L 106.047458 138.99661 
z
" style="fill:#66c2a5;stroke:#66c2a5;stroke-linejoin:miter;"/>
   </g>
   <g id="patch_38">
    <path clip-path="url(#p4d3bd073a0)" d="M 106.047458 133.505085 
L 133.505085 133.505085 
L 133.505085 106.047458 
L 106.047458 106.047458 
z
" style="fill:#66c2a5;stroke:#66c2a5;stroke-linejoin:miter;"/>
   </g>
   <g id="patch_39">
    <path clip-path="url(#p4d3bd073a0)" d="M 106.047458 100.555932 
L 133.505085 100.555932 
L 133.505085 73.098305 
L 106.047458 73.098305 
z
" style="fill:#66c2a5;stroke:#66c2a5;stroke-linejoin:miter;"/>
   </g>
   <g id="patch_40">
    <path clip-path="url(#p4d3bd073a0)" d="M 106.047458 67.60678 
L 133.505085 67.60678 
L 133.505085 40.149153 
L 106.047458 40.149153 
z
" style="fill:#66c2a5;stroke:#66c2a5;stroke-linejoin:miter;"/>
   </g>
   <g id="patch_41">
    <path clip-path="url(#p4d3bd073a0)" d="M 106.047458 34.657627 
L 133.505085 34.657627 
L 133.505085 7.2 
L 106.047458 7.2 
z
" style="fill:#66c2a5;stroke:#66c2a5;stroke-linejoin:miter;"/>
   </g>
   <g id="patch_42">
    <path clip-path="url(#p4d3bd073a0)" d="M 138.99661 331.2 
L 166.454237 331.2 
L 166.454237 303.742373 
L 138.99661 303.742373 
z
" style="fill:#66c2a5;stroke:#66c2a5;stroke-linejoin:miter;"/>
   </g>
   <g id="patch_43">
    <path clip-path="url(#p4d3bd073a0)" d="M 138.99661 298.250847 
L 166.454237 298.250847 
L 166.454237 270.79322 
L 138.99661 270.79322 
z
" style="fill:#66c2a5;stroke:#66c2a5;stroke-linejoin:miter;"/>
   </g>
   <g id="patch_44">
    <path clip-path="url(#p4d3bd073a0)" d="M 138.99661 265.301695 
L 166.454237 265.301695 
L 166.454237 237.844068 
L 138.99661 237.844068 
z
" style="fill:#66c2a5;stroke:#66c2a5;stroke-linejoin:miter;"/>
   </g>
   <g id="patch_45">
    <path clip-path="url(#p4d3bd073a0)" d="M 138.99661 232.352542 
L 166.454237 232.352542 
L 166.454237 204.894915 
L 138.99661 204.894915 
z
" style="fill:#66c2a5;stroke:#66c2a5;stroke-linejoin:miter;"/>
   </g>
   <g id="patch_46">
    <path clip-path="url(#p4d3bd073a0)" d="M 138.99661 199.40339 
L 166.454237 199.40339 
L 166.454237 171.945763 
L 138.99661 171.945763 
z
" style="fill:#66c2a5;stroke:#66c2a5;stroke-linejoin:miter;"/>
   </g>
   <g id="patch_47">
    <path clip-path="url(#p4d3bd073a0)" d="M 138.99661 166.454237 
L 166.454237 166.454237 
L 166.454237 138.99661 
L 138.99661 138.99661 
z
" style="fill:#66c2a5;stroke:#66c2a5;stroke-linejoin:miter;"/>
   </g>
   <g id="patch_48">
    <path clip-path="url(#p4d3bd073a0)" d="M 138.99661 133.505085 
L 166.454237 133.505085 
L 166.454237 106.047458 
L 138.99661 106.047458 
z
" style="fill:#66c2a5;stroke:#66c2a5;stroke-linejoin:miter;"/>
   </g>
   <g id="patch_49">
    <path clip-path="url(#p4d3bd073a0)" d="M 138.99661 100.555932 
L 166.454237 100.555932 
L 166.454237 73.098305 
L 138.99661 73.098305 
z
" style="fill:#66c2a5;stroke:#66c2a5;stroke-linejoin:miter;"/>
   </g>
   <g id="patch_50">
    <path clip-path="url(#p4d3bd073a0)" d="M 138.99661 67.60678 
L 166.454237 67.60678 
L 166.454237 40.149153 
L 138.99661 40.149153 
z
" style="fill:#fc8d62;stroke:#fc8d62;stroke-linejoin:miter;"/>
   </g>
   <g id="patch_51">
    <path clip-path="url(#p4d3bd073a0)" d="M 138.99661 34.657627 
L 166.454237 34.657627 
L 166.454237 7.2 
L 138.99661 7.2 
z
" style="fill:#fc8d62;stroke:#fc8d62;stroke-linejoin:miter;"/>
   </g>
   <g id="patch_52">
    <path clip-path="url(#p4d3bd073a0)" d="M 171.945763 331.2 
L 199.40339 331.2 
L 199.40339 303.742373 
L 171.945763 303.742373 
z
" style="fill:#fc8d62;stroke:#fc8d62;stroke-linejoin:miter;"/>
   </g>
   <g id="patch_53">
    <path clip-path="url(#p4d3bd073a0)" d="M 171.945763 298.250847 
L 199.40339 298.250847 
L 199.40339 270.79322 
L 171.945763 270.79322 
z
" style="fill:#fc8d62;stroke:#fc8d62;stroke-linejoin:miter;"/>
   </g>
   <g id="patch_54">
    <path clip-path="url(#p4d3bd073a0)" d="M 171.945763 265.301695 
L 199.40339 265.301695 
L 199.40339 237.844068 
L 171.945763 237.844068 
z
" style="fill:#fc8d62;stroke:#fc8d62;stroke-linejoin:miter;"/>
   </g>
   <g id="patch_55">
    <path clip-path="url(#p4d3bd073a0)" d="M 171.945763 232.352542 
L 199.40339 232.352542 
L 199.40339 204.894915 
L 171.945763 204.894915 
z
" style="fill:#fc8d62;stroke:#fc8d62;stroke-linejoin:miter;"/>
   </g>
   <g id="patch_56">
    <path clip-path="url(#p4d3bd073a0)" d="M 171.945763 199.40339 
L 199.40339 199.40339 
L 199.40339 171.945763 
L 171.945763 171.945763 
z
" style="fill:#fc8d62;stroke:#fc8d62;stroke-linejoin:miter;"/>
   </g>
   <g id="patch_57">
    <path clip-path="url(#p4d3bd073a0)" d="M 171.945763 166.454237 
L 199.40339 166.454237 
L 199.40339 138.99661 
L 171.945763 138.99661 
z
" style="fill:#fc8d62;stroke:#fc8d62;stroke-linejoin:miter;"/>
   </g>
   <g id="patch_58">
    <path clip-path="url(#p4d3bd073a0)" d="M 171.945763 133.505085 
L 199.40339 133.505085 
L 199.40339 106.047458 
L 171.945763 106.047458 
z
" style="fill:#fc8d62;stroke:#fc8d62;stroke-linejoin:miter;"/>
   </g>
   <g id="patch_59">
    <path clip-path="url(#p4d3bd073a0)" d="M 171.945763 100.555932 
L 199.40339 100.555932 
L 199.40339 73.098305 
L 171.945763 73.098305 
z
" style="fill:#fc8d62;stroke:#fc8d62;stroke-linejoin:miter;"/>
   </g>
   <g id="patch_60">
    <path clip-path="url(#p4d3bd073a0)" d="M 171.945763 67.60678 
L 199.40339 67.60678 
L 199.40339 40.149153 
L 171.945763 40.149153 
z
" style="fill:#fc8d62;stroke:#fc8d62;stroke-linejoin:miter;"/>
   </g>
   <g id="patch_61">
    <path clip-path="url(#p4d3bd073a0)" d="M 171.945763 34.657627 
L 199.40339 34.657627 
L 199.40339 7.2 
L 171.945763 7.2 
z
" style="fill:#fc8d62;stroke:#fc8d62;stroke-linejoin:miter;"/>
   </g>
   <g id="patch_62">
    <path clip-path="url(#p4d3bd073a0)" d="M 204.894915 331.2 
L 232.352542 331.2 
L 232.352542 303.742373 
L 204.894915 303.742373 
z
" style="fill:#fc8d62;stroke:#fc8d62;stroke-linejoin:miter;"/>
   </g>
   <g id="patch_63">
    <path clip-path="url(#p4d3bd073a0)" d="M 204.894915 298.250847 
L 232.352542 298.250847 
L 232.352542 270.79322 
L 204.894915 270.79322 
z
" style="fill:#fc8d62;stroke:#fc8d62;stroke-linejoin:miter;"/>
   </g>
   <g id="patch_64">
    <path clip-path="url(#p4d3bd073a0)" d="M 204.894915 265.301695 
L 232.352542 265.301695 
L 232.352542 237.844068 
L 204.894915 237.844068 
z
" style="fill:#fc8d62;stroke:#fc8d62;stroke-linejoin:miter;"/>
   </g>
   <g id="patch_65">
    <path clip-path="url(#p4d3bd073a0)" d="M 204.894915 232.352542 
L 232.352542 232.352542 
L 232.352542 204.894915 
L 204.894915 204.894915 
z
" style="fill:#fc8d62;stroke:#fc8d62;stroke-linejoin:miter;"/>
   </g>
   <g id="patch_66">
    <path clip-path="url(#p4d3bd073a0)" d="M 204.894915 199.40339 
L 232.352542 199.40339 
L 232.352542 171.945763 
L 204.894915 171.945763 
z
" style="fill:#fc8d62;stroke:#fc8d62;stroke-linejoin:miter;"/>
   </g>
   <g id="patch_67">
    <path clip-path="url(#p4d3bd073a0)" d="M 204.894915 166.454237 
L 232.352542 166.454237 
L 232.352542 138.99661 
L 204.894915 138.99661 
z
" style="fill:#fc8d62;stroke:#fc8d62;stroke-linejoin:miter;"/>
   </g>
   <g id="patch_68">
    <path clip-path="url(#p4d3bd073a0)" d="M 204.894915 133.505085 
L 232.352542 133.505085 
L 232.352542 106.047458 
L 204.894915 106.047458 
z
" style="fill:#fc8d62;stroke:#fc8d62;stroke-linejoin:miter;"/>
   </g>
   <g id="patch_69">
    <path clip-path="url(#p4d3bd073a0)" d="M 204.894915 100.555932 
L 232.352542 100.555932 
L 232.352542 73.098305 
L 204.894915 73.098305 
z
" style="fill:#fc8d62;stroke:#fc8d62;stroke-linejoin:miter;"/>
   </g>
   <g id="patch_70">
    <path clip-path="url(#p4d3bd073a0)" d="M 204.894915 67.60678 
L 232.352542 67.60678 
L 232.352542 40.149153 
L 204.894915 40.149153 
z
" style="fill:#fc8d62;stroke:#fc8d62;stroke-linejoin:miter;"/>
   </g>
   <g id="patch_71">
    <path clip-path="url(#p4d3bd073a0)" d="M 204.894915 34.657627 
L 232.352542 34.657627 
L 232.352542 7.2 
L 204.894915 7.2 
z
" style="fill:#fc8d62;stroke:#fc8d62;stroke-linejoin:miter;"/>
   </g>
   <g id="patch_72">
    <path clip-path="url(#p4d3bd073a0)" d="M 237.844068 331.2 
L 265.301695 331.2 
L 265.301695 303.742373 
L 237.844068 303.742373 
z
" style="fill:#fc8d62;stroke:#fc8d62;stroke-linejoin:miter;"/>
   </g>
   <g id="patch_73">
    <path clip-path="url(#p4d3bd073a0)" d="M 237.844068 298.250847 
L 265.301695 298.250847 
L 265.301695 270.79322 
L 237.844068 270.79322 
z
" style="fill:#fc8d62;stroke:#fc8d62;stroke-linejoin:miter;"/>
   </g>
   <g id="patch_74">
    <path clip-path="url(#p4d3bd073a0)" d="M 237.844068 265.301695 
L 265.301695 265.301695 
L 265.301695 237.844068 
L 237.844068 237.844068 
z
" style="fill:#fc8d62;stroke:#fc8d62;stroke-linejoin:miter;"/>
   </g>
   <g id="patch_75">
    <path clip-path="url(#p4d3bd073a0)" d="M 237.844068 232.352542 
L 265.301695 232.352542 
L 265.301695 204.894915 
L 237.844068 204.894915 
z
" style="fill:#fc8d62;stroke:#fc8d62;stroke-linejoin:miter;"/>
   </g>
   <g id="patch_76">
    <path clip-path="url(#p4d3bd073a0)" d="M 237.844068 199.40339 
L 265.301695 199.40339 
L 265.301695 171.945763 
L 237.844068 171.945763 
z
" style="fill:#fc8d62;stroke:#fc8d62;stroke-linejoin:miter;"/>
   </g>
   <g id="patch_77">
    <path clip-path="url(#p4d3bd073a0)" d="M 237.844068 166.454237 
L 265.301695 166.454237 
L 265.301695 138.99661 
L 237.844068 138.99661 
z
" style="fill:#fc8d62;stroke:#fc8d62;stroke-linejoin:miter;"/>
   </g>
   <g id="patch_78">
    <path clip-path="url(#p4d3bd073a0)" d="M 237.844068 133.505085 
L 265.301695 133.505085 
L 265.301695 106.047458 
L 237.844068 106.047458 
z
" style="fill:#fc8d62;stroke:#fc8d62;stroke-linejoin:miter;"/>
   </g>
   <g id="patch_79">
    <path clip-path="url(#p4d3bd073a0)" d="M 237.844068 100.555932 
L 265.301695 100.555932 
L 265.301695 73.098305 
L 237.844068 73.098305 
z
" style="fill:#fc8d62;stroke:#fc8d62;stroke-linejoin:miter;"/>
   </g>
   <g id="patch_80">
    <path clip-path="url(#p4d3bd073a0)" d="M 237.844068 67.60678 
L 265.301695 67.60678 
L 265.301695 40.149153 
L 237.844068 40.149153 
z
" style="fill:#fc8d62;stroke:#fc8d62;stroke-linejoin:miter;"/>
   </g>
   <g id="patch_81">
    <path clip-path="url(#p4d3bd073a0)" d="M 237.844068 34.657627 
L 265.301695 34.657627 
L 265.301695 7.2 
L 237.844068 7.2 
z
" style="fill:#fc8d62;stroke:#fc8d62;stroke-linejoin:miter;"/>
   </g>
   <g id="patch_82">
    <path clip-path="url(#p4d3bd073a0)" d="M 270.79322 331.2 
L 298.250847 331.2 
L 298.250847 303.742373 
L 270.79322 303.742373 
z
" style="fill:#fc8d62;stroke:#fc8d62;stroke-linejoin:miter;"/>
   </g>
   <g id="patch_83">
    <path clip-path="url(#p4d3bd073a0)" d="M 270.79322 298.250847 
L 298.250847 298.250847 
L 298.250847 270.79322 
L 270.79322 270.79322 
z
" style="fill:#fc8d62;stroke:#fc8d62;stroke-linejoin:miter;"/>
   </g>
   <g id="patch_84">
    <path clip-path="url(#p4d3bd073a0)" d="M 270.79322 265.301695 
L 298.250847 265.301695 
L 298.250847 237.844068 
L 270.79322 237.844068 
z
" style="fill:#fc8d62;stroke:#fc8d62;stroke-linejoin:miter;"/>
   </g>
   <g id="patch_85">
    <path clip-path="url(#p4d3bd073a0)" d="M 270.79322 232.352542 
L 298.250847 232.352542 
L 298.250847 204.894915 
L 270.79322 204.894915 
z
" style="fill:#fc8d62;stroke:#fc8d62;stroke-linejoin:miter;"/>
   </g>
   <g id="patch_86">
    <path clip-path="url(#p4d3bd073a0)" d="M 270.79322 199.40339 
L 298.250847 199.40339 
L 298.250847 171.945763 
L 270.79322 171.945763 
z
" style="fill:#fc8d62;stroke:#fc8d62;stroke-linejoin:miter;"/>
   </g>
   <g id="patch_87">
    <path clip-path="url(#p4d3bd073a0)" d="M 270.79322 166.454237 
L 298.250847 166.454237 
L 298.250847 138.99661 
L 270.79322 138.99661 
z
" style="fill:#fc8d62;stroke:#fc8d62;stroke-linejoin:miter;"/>
   </g>
   <g id="patch_88">
    <path clip-path="url(#p4d3bd073a0)" d="M 270.79322 133.505085 
L 298.250847 133.505085 
L 298.250847 106.047458 
L 270.79322 106.047458 
z
" style="fill:#fc8d62;stroke:#fc8d62;stroke-linejoin:miter;"/>
   </g>
   <g id="patch_89">
    <path clip-path="url(#p4d3bd073a0)" d="M 270.79322 100.555932 
L 298.250847 100.555932 
L 298.250847 73.098305 
L 270.79322 73.098305 
z
" style="fill:#fc8d62;stroke:#fc8d62;stroke-linejoin:miter;"/>
   </g>
   <g id="patch_90">
    <path clip-path="url(#p4d3bd073a0)" d="M 270.79322 67.60678 
L 298.250847 67.60678 
L 298.250847 40.149153 
L 270.79322 40.149153 
z
" style="fill:#fc8d62;stroke:#fc8d62;stroke-linejoin:miter;"/>
   </g>
   <g id="patch_91">
    <path clip-path="url(#p4d3bd073a0)" d="M 270.79322 34.657627 
L 298.250847 34.657627 
L 298.250847 7.2 
L 270.79322 7.2 
z
" style="fill:#fc8d62;stroke:#fc8d62;stroke-linejoin:miter;"/>
   </g>
   <g id="patch_92">
    <path clip-path="url(#p4d3bd073a0)" d="M 303.742373 331.2 
L 331.2 331.2 
L 331.2 303.742373 
L 303.742373 303.742373 
z
" style="fill:#fc8d62;stroke:#fc8d62;stroke-linejoin:miter;"/>
   </g>
   <g id="patch_93">
    <path clip-path="url(#p4d3bd073a0)" d="M 303.742373 298.250847 
L 331.2 298.250847 
L 331.2 270.79322 
L 303.742373 270.79322 
z
" style="fill:#fc8d62;stroke:#fc8d62;stroke-linejoin:miter;"/>
   </g>
   <g id="patch_94">
    <path clip-path="url(#p4d3bd073a0)" d="M 303.742373 265.301695 
L 331.2 265.301695 
L 331.2 237.844068 
L 303.742373 237.844068 
z
" style="fill:#fc8d62;stroke:#fc8d62;stroke-linejoin:miter;"/>
   </g>
   <g id="patch_95">
    <path clip-path="url(#p4d3bd073a0)" d="M 303.742373 232.352542 
L 331.2 232.352542 
L 331.2 204.894915 
L 303.742373 204.894915 
z
" style="fill:#fc8d62;stroke:#fc8d62;stroke-linejoin:miter;"/>
   </g>
   <g id="patch_96">
    <path clip-path="url(#p4d3bd073a0)" d="M 303.742373 199.40339 
L 331.2 199.40339 
L 331.2 171.945763 
L 303.742373 171.945763 
z
" style="fill:#8da0cb;stroke:#8da0cb;stroke-linejoin:miter;"/>
   </g>
   <g id="patch_97">
    <path clip-path="url(#p4d3bd073a0)" d="M 303.742373 166.454237 
L 331.2 166.454237 
L 331.2 138.99661 
L 303.742373 138.99661 
z
" style="fill:#8da0cb;stroke:#8da0cb;stroke-linejoin:miter;"/>
   </g>
   <g id="patch_98">
    <path clip-path="url(#p4d3bd073a0)" d="M 303.742373 133.505085 
L 331.2 133.505085 
L 331.2 106.047458 
L 303.742373 106.047458 
z
" style="fill:#8da0cb;stroke:#8da0cb;stroke-linejoin:miter;"/>
   </g>
  </g>
 </g>
 <defs>
  <clipPath id="p4d3bd073a0">
   <rect height="324" width="324" x="7.2" y="7.2"/>
  </clipPath>
 </defs>
</svg>
