<?xml version="1.0" encoding="utf-8" standalone="no"?>
<!DOCTYPE svg PUBLIC "-//W3C//DTD SVG 1.1//EN"
  "http://www.w3.org/Graphics/SVG/1.1/DTD/svg11.dtd">
<!-- Created with matplotlib (http://matplotlib.org/) -->
<svg height="102.034398pt" version="1.1" viewBox="0 0 439.08305 102.034398" width="439.08305pt" xmlns="http://www.w3.org/2000/svg" xmlns:xlink="http://www.w3.org/1999/xlink">
 <defs>
  <style type="text/css">
*{stroke-linecap:butt;stroke-linejoin:round;}
  </style>
 </defs>
 <g id="figure_1">
  <g id="patch_1">
   <path d="M 0 102.034398 
L 439.08305 102.034398 
L 439.08305 0 
L 0 0 
z
" style="fill:#ffffff;"/>
  </g>
  <g id="axes_1">
   <g id="patch_2">
    <path clip-path="url(#p1c4c87d73c)" d="M 30.103125 78.156273 
L 41.681928 78.156273 
L 41.681928 66.577471 
L 30.103125 66.577471 
z
" style="fill:#66c2a5;stroke:#66c2a5;stroke-linejoin:miter;"/>
   </g>
   <g id="patch_3">
    <path clip-path="url(#p1c4c87d73c)" d="M 30.103125 64.26171 
L 41.681928 64.26171 
L 41.681928 52.682908 
L 30.103125 52.682908 
z
" style="fill:#66c2a5;stroke:#66c2a5;stroke-linejoin:miter;"/>
   </g>
   <g id="patch_4">
    <path clip-path="url(#p1c4c87d73c)" d="M 30.103125 50.367147 
L 41.681928 50.367147 
L 41.681928 38.788345 
L 30.103125 38.788345 
z
" style="fill:#66c2a5;stroke:#66c2a5;stroke-linejoin:miter;"/>
   </g>
   <g id="patch_5">
    <path clip-path="url(#p1c4c87d73c)" d="M 30.103125 36.472584 
L 41.681928 36.472584 
L 41.681928 24.893782 
L 30.103125 24.893782 
z
" style="fill:#66c2a5;stroke:#66c2a5;stroke-linejoin:miter;"/>
   </g>
   <g id="patch_6">
    <path clip-path="url(#p1c4c87d73c)" d="M 30.103125 22.578021 
L 41.681928 22.578021 
L 41.681928 10.999219 
L 30.103125 10.999219 
z
" style="fill:#66c2a5;stroke:#66c2a5;stroke-linejoin:miter;"/>
   </g>
   <g id="patch_7">
    <path clip-path="url(#p1c4c87d73c)" d="M 43.997688 78.156273 
L 55.576491 78.156273 
L 55.576491 66.577471 
L 43.997688 66.577471 
z
" style="fill:#66c2a5;stroke:#66c2a5;stroke-linejoin:miter;"/>
   </g>
   <g id="patch_8">
    <path clip-path="url(#p1c4c87d73c)" d="M 43.997688 64.26171 
L 55.576491 64.26171 
L 55.576491 52.682908 
L 43.997688 52.682908 
z
" style="fill:#66c2a5;stroke:#66c2a5;stroke-linejoin:miter;"/>
   </g>
   <g id="patch_9">
    <path clip-path="url(#p1c4c87d73c)" d="M 43.997688 50.367147 
L 55.576491 50.367147 
L 55.576491 38.788345 
L 43.997688 38.788345 
z
" style="fill:#66c2a5;stroke:#66c2a5;stroke-linejoin:miter;"/>
   </g>
   <g id="patch_10">
    <path clip-path="url(#p1c4c87d73c)" d="M 43.997688 36.472584 
L 55.576491 36.472584 
L 55.576491 24.893782 
L 43.997688 24.893782 
z
" style="fill:#66c2a5;stroke:#66c2a5;stroke-linejoin:miter;"/>
   </g>
   <g id="patch_11">
    <path clip-path="url(#p1c4c87d73c)" d="M 43.997688 22.578021 
L 55.576491 22.578021 
L 55.576491 10.999219 
L 43.997688 10.999219 
z
" style="fill:#66c2a5;stroke:#66c2a5;stroke-linejoin:miter;"/>
   </g>
   <g id="patch_12">
    <path clip-path="url(#p1c4c87d73c)" d="M 57.892251 78.156273 
L 69.471054 78.156273 
L 69.471054 66.577471 
L 57.892251 66.577471 
z
" style="fill:#66c2a5;stroke:#66c2a5;stroke-linejoin:miter;"/>
   </g>
   <g id="patch_13">
    <path clip-path="url(#p1c4c87d73c)" d="M 57.892251 64.26171 
L 69.471054 64.26171 
L 69.471054 52.682908 
L 57.892251 52.682908 
z
" style="fill:#66c2a5;stroke:#66c2a5;stroke-linejoin:miter;"/>
   </g>
   <g id="patch_14">
    <path clip-path="url(#p1c4c87d73c)" d="M 57.892251 50.367147 
L 69.471054 50.367147 
L 69.471054 38.788345 
L 57.892251 38.788345 
z
" style="fill:#66c2a5;stroke:#66c2a5;stroke-linejoin:miter;"/>
   </g>
   <g id="patch_15">
    <path clip-path="url(#p1c4c87d73c)" d="M 57.892251 36.472584 
L 69.471054 36.472584 
L 69.471054 24.893782 
L 57.892251 24.893782 
z
" style="fill:#66c2a5;stroke:#66c2a5;stroke-linejoin:miter;"/>
   </g>
   <g id="patch_16">
    <path clip-path="url(#p1c4c87d73c)" d="M 57.892251 22.578021 
L 69.471054 22.578021 
L 69.471054 10.999219 
L 57.892251 10.999219 
z
" style="fill:#66c2a5;stroke:#66c2a5;stroke-linejoin:miter;"/>
   </g>
   <g id="patch_17">
    <path clip-path="url(#p1c4c87d73c)" d="M 71.786814 78.156273 
L 83.365617 78.156273 
L 83.365617 66.577471 
L 71.786814 66.577471 
z
" style="fill:#66c2a5;stroke:#66c2a5;stroke-linejoin:miter;"/>
   </g>
   <g id="patch_18">
    <path clip-path="url(#p1c4c87d73c)" d="M 71.786814 64.26171 
L 83.365617 64.26171 
L 83.365617 52.682908 
L 71.786814 52.682908 
z
" style="fill:#66c2a5;stroke:#66c2a5;stroke-linejoin:miter;"/>
   </g>
   <g id="patch_19">
    <path clip-path="url(#p1c4c87d73c)" d="M 71.786814 50.367147 
L 83.365617 50.367147 
L 83.365617 38.788345 
L 71.786814 38.788345 
z
" style="fill:#66c2a5;stroke:#66c2a5;stroke-linejoin:miter;"/>
   </g>
   <g id="patch_20">
    <path clip-path="url(#p1c4c87d73c)" d="M 71.786814 36.472584 
L 83.365617 36.472584 
L 83.365617 24.893782 
L 71.786814 24.893782 
z
" style="fill:#66c2a5;stroke:#66c2a5;stroke-linejoin:miter;"/>
   </g>
   <g id="patch_21">
    <path clip-path="url(#p1c4c87d73c)" d="M 71.786814 22.578021 
L 83.365617 22.578021 
L 83.365617 10.999219 
L 71.786814 10.999219 
z
" style="fill:#66c2a5;stroke:#66c2a5;stroke-linejoin:miter;"/>
   </g>
   <g id="patch_22">
    <path clip-path="url(#p1c4c87d73c)" d="M 85.681377 78.156273 
L 97.26018 78.156273 
L 97.26018 66.577471 
L 85.681377 66.577471 
z
" style="fill:#66c2a5;stroke:#66c2a5;stroke-linejoin:miter;"/>
   </g>
   <g id="patch_23">
    <path clip-path="url(#p1c4c87d73c)" d="M 85.681377 64.26171 
L 97.26018 64.26171 
L 97.26018 52.682908 
L 85.681377 52.682908 
z
" style="fill:#66c2a5;stroke:#66c2a5;stroke-linejoin:miter;"/>
   </g>
   <g id="patch_24">
    <path clip-path="url(#p1c4c87d73c)" d="M 85.681377 50.367147 
L 97.26018 50.367147 
L 97.26018 38.788345 
L 85.681377 38.788345 
z
" style="fill:#66c2a5;stroke:#66c2a5;stroke-linejoin:miter;"/>
   </g>
   <g id="patch_25">
    <path clip-path="url(#p1c4c87d73c)" d="M 85.681377 36.472584 
L 97.26018 36.472584 
L 97.26018 24.893782 
L 85.681377 24.893782 
z
" style="fill:#66c2a5;stroke:#66c2a5;stroke-linejoin:miter;"/>
   </g>
   <g id="patch_26">
    <path clip-path="url(#p1c4c87d73c)" d="M 85.681377 22.578021 
L 97.26018 22.578021 
L 97.26018 10.999219 
L 85.681377 10.999219 
z
" style="fill:#66c2a5;stroke:#66c2a5;stroke-linejoin:miter;"/>
   </g>
   <g id="patch_27">
    <path clip-path="url(#p1c4c87d73c)" d="M 99.57594 78.156273 
L 111.154743 78.156273 
L 111.154743 66.577471 
L 99.57594 66.577471 
z
" style="fill:#66c2a5;stroke:#66c2a5;stroke-linejoin:miter;"/>
   </g>
   <g id="patch_28">
    <path clip-path="url(#p1c4c87d73c)" d="M 99.57594 64.26171 
L 111.154743 64.26171 
L 111.154743 52.682908 
L 99.57594 52.682908 
z
" style="fill:#66c2a5;stroke:#66c2a5;stroke-linejoin:miter;"/>
   </g>
   <g id="patch_29">
    <path clip-path="url(#p1c4c87d73c)" d="M 99.57594 50.367147 
L 111.154743 50.367147 
L 111.154743 38.788345 
L 99.57594 38.788345 
z
" style="fill:#66c2a5;stroke:#66c2a5;stroke-linejoin:miter;"/>
   </g>
   <g id="patch_30">
    <path clip-path="url(#p1c4c87d73c)" d="M 99.57594 36.472584 
L 111.154743 36.472584 
L 111.154743 24.893782 
L 99.57594 24.893782 
z
" style="fill:#66c2a5;stroke:#66c2a5;stroke-linejoin:miter;"/>
   </g>
   <g id="patch_31">
    <path clip-path="url(#p1c4c87d73c)" d="M 99.57594 22.578021 
L 111.154743 22.578021 
L 111.154743 10.999219 
L 99.57594 10.999219 
z
" style="fill:#66c2a5;stroke:#66c2a5;stroke-linejoin:miter;"/>
   </g>
   <g id="patch_32">
    <path clip-path="url(#p1c4c87d73c)" d="M 113.470503 78.156273 
L 125.049306 78.156273 
L 125.049306 66.577471 
L 113.470503 66.577471 
z
" style="fill:#66c2a5;stroke:#66c2a5;stroke-linejoin:miter;"/>
   </g>
   <g id="patch_33">
    <path clip-path="url(#p1c4c87d73c)" d="M 113.470503 64.26171 
L 125.049306 64.26171 
L 125.049306 52.682908 
L 113.470503 52.682908 
z
" style="fill:#66c2a5;stroke:#66c2a5;stroke-linejoin:miter;"/>
   </g>
   <g id="patch_34">
    <path clip-path="url(#p1c4c87d73c)" d="M 113.470503 50.367147 
L 125.049306 50.367147 
L 125.049306 38.788345 
L 113.470503 38.788345 
z
" style="fill:#66c2a5;stroke:#66c2a5;stroke-linejoin:miter;"/>
   </g>
   <g id="patch_35">
    <path clip-path="url(#p1c4c87d73c)" d="M 113.470503 36.472584 
L 125.049306 36.472584 
L 125.049306 24.893782 
L 113.470503 24.893782 
z
" style="fill:#66c2a5;stroke:#66c2a5;stroke-linejoin:miter;"/>
   </g>
   <g id="patch_36">
    <path clip-path="url(#p1c4c87d73c)" d="M 113.470503 22.578021 
L 125.049306 22.578021 
L 125.049306 10.999219 
L 113.470503 10.999219 
z
" style="fill:#66c2a5;stroke:#66c2a5;stroke-linejoin:miter;"/>
   </g>
   <g id="patch_37">
    <path clip-path="url(#p1c4c87d73c)" d="M 127.365066 78.156273 
L 138.943869 78.156273 
L 138.943869 66.577471 
L 127.365066 66.577471 
z
" style="fill:#66c2a5;stroke:#66c2a5;stroke-linejoin:miter;"/>
   </g>
   <g id="patch_38">
    <path clip-path="url(#p1c4c87d73c)" d="M 127.365066 64.26171 
L 138.943869 64.26171 
L 138.943869 52.682908 
L 127.365066 52.682908 
z
" style="fill:#66c2a5;stroke:#66c2a5;stroke-linejoin:miter;"/>
   </g>
   <g id="patch_39">
    <path clip-path="url(#p1c4c87d73c)" d="M 127.365066 50.367147 
L 138.943869 50.367147 
L 138.943869 38.788345 
L 127.365066 38.788345 
z
" style="fill:#66c2a5;stroke:#66c2a5;stroke-linejoin:miter;"/>
   </g>
   <g id="patch_40">
    <path clip-path="url(#p1c4c87d73c)" d="M 127.365066 36.472584 
L 138.943869 36.472584 
L 138.943869 24.893782 
L 127.365066 24.893782 
z
" style="fill:#66c2a5;stroke:#66c2a5;stroke-linejoin:miter;"/>
   </g>
   <g id="patch_41">
    <path clip-path="url(#p1c4c87d73c)" d="M 127.365066 22.578021 
L 138.943869 22.578021 
L 138.943869 10.999219 
L 127.365066 10.999219 
z
" style="fill:#66c2a5;stroke:#66c2a5;stroke-linejoin:miter;"/>
   </g>
   <g id="patch_42">
    <path clip-path="url(#p1c4c87d73c)" d="M 141.259629 78.156273 
L 152.838432 78.156273 
L 152.838432 66.577471 
L 141.259629 66.577471 
z
" style="fill:#66c2a5;stroke:#66c2a5;stroke-linejoin:miter;"/>
   </g>
   <g id="patch_43">
    <path clip-path="url(#p1c4c87d73c)" d="M 141.259629 64.26171 
L 152.838432 64.26171 
L 152.838432 52.682908 
L 141.259629 52.682908 
z
" style="fill:#66c2a5;stroke:#66c2a5;stroke-linejoin:miter;"/>
   </g>
   <g id="patch_44">
    <path clip-path="url(#p1c4c87d73c)" d="M 141.259629 50.367147 
L 152.838432 50.367147 
L 152.838432 38.788345 
L 141.259629 38.788345 
z
" style="fill:#66c2a5;stroke:#66c2a5;stroke-linejoin:miter;"/>
   </g>
   <g id="patch_45">
    <path clip-path="url(#p1c4c87d73c)" d="M 141.259629 36.472584 
L 152.838432 36.472584 
L 152.838432 24.893782 
L 141.259629 24.893782 
z
" style="fill:#66c2a5;stroke:#66c2a5;stroke-linejoin:miter;"/>
   </g>
   <g id="patch_46">
    <path clip-path="url(#p1c4c87d73c)" d="M 141.259629 22.578021 
L 152.838432 22.578021 
L 152.838432 10.999219 
L 141.259629 10.999219 
z
" style="fill:#66c2a5;stroke:#66c2a5;stroke-linejoin:miter;"/>
   </g>
   <g id="patch_47">
    <path clip-path="url(#p1c4c87d73c)" d="M 155.154192 78.156273 
L 166.732995 78.156273 
L 166.732995 66.577471 
L 155.154192 66.577471 
z
" style="fill:#66c2a5;stroke:#66c2a5;stroke-linejoin:miter;"/>
   </g>
   <g id="patch_48">
    <path clip-path="url(#p1c4c87d73c)" d="M 155.154192 64.26171 
L 166.732995 64.26171 
L 166.732995 52.682908 
L 155.154192 52.682908 
z
" style="fill:#66c2a5;stroke:#66c2a5;stroke-linejoin:miter;"/>
   </g>
   <g id="patch_49">
    <path clip-path="url(#p1c4c87d73c)" d="M 155.154192 50.367147 
L 166.732995 50.367147 
L 166.732995 38.788345 
L 155.154192 38.788345 
z
" style="fill:#66c2a5;stroke:#66c2a5;stroke-linejoin:miter;"/>
   </g>
   <g id="patch_50">
    <path clip-path="url(#p1c4c87d73c)" d="M 155.154192 36.472584 
L 166.732995 36.472584 
L 166.732995 24.893782 
L 155.154192 24.893782 
z
" style="fill:#fc8d62;stroke:#fc8d62;stroke-linejoin:miter;"/>
   </g>
   <g id="patch_51">
    <path clip-path="url(#p1c4c87d73c)" d="M 155.154192 22.578021 
L 166.732995 22.578021 
L 166.732995 10.999219 
L 155.154192 10.999219 
z
" style="fill:#fc8d62;stroke:#fc8d62;stroke-linejoin:miter;"/>
   </g>
   <g id="patch_52">
    <path clip-path="url(#p1c4c87d73c)" d="M 169.048755 78.156273 
L 180.627558 78.156273 
L 180.627558 66.577471 
L 169.048755 66.577471 
z
" style="fill:#fc8d62;stroke:#fc8d62;stroke-linejoin:miter;"/>
   </g>
   <g id="patch_53">
    <path clip-path="url(#p1c4c87d73c)" d="M 169.048755 64.26171 
L 180.627558 64.26171 
L 180.627558 52.682908 
L 169.048755 52.682908 
z
" style="fill:#fc8d62;stroke:#fc8d62;stroke-linejoin:miter;"/>
   </g>
   <g id="patch_54">
    <path clip-path="url(#p1c4c87d73c)" d="M 169.048755 50.367147 
L 180.627558 50.367147 
L 180.627558 38.788345 
L 169.048755 38.788345 
z
" style="fill:#fc8d62;stroke:#fc8d62;stroke-linejoin:miter;"/>
   </g>
   <g id="patch_55">
    <path clip-path="url(#p1c4c87d73c)" d="M 169.048755 36.472584 
L 180.627558 36.472584 
L 180.627558 24.893782 
L 169.048755 24.893782 
z
" style="fill:#fc8d62;stroke:#fc8d62;stroke-linejoin:miter;"/>
   </g>
   <g id="patch_56">
    <path clip-path="url(#p1c4c87d73c)" d="M 169.048755 22.578021 
L 180.627558 22.578021 
L 180.627558 10.999219 
L 169.048755 10.999219 
z
" style="fill:#fc8d62;stroke:#fc8d62;stroke-linejoin:miter;"/>
   </g>
   <g id="patch_57">
    <path clip-path="url(#p1c4c87d73c)" d="M 182.943318 78.156273 
L 194.522121 78.156273 
L 194.522121 66.577471 
L 182.943318 66.577471 
z
" style="fill:#fc8d62;stroke:#fc8d62;stroke-linejoin:miter;"/>
   </g>
   <g id="patch_58">
    <path clip-path="url(#p1c4c87d73c)" d="M 182.943318 64.26171 
L 194.522121 64.26171 
L 194.522121 52.682908 
L 182.943318 52.682908 
z
" style="fill:#fc8d62;stroke:#fc8d62;stroke-linejoin:miter;"/>
   </g>
   <g id="patch_59">
    <path clip-path="url(#p1c4c87d73c)" d="M 182.943318 50.367147 
L 194.522121 50.367147 
L 194.522121 38.788345 
L 182.943318 38.788345 
z
" style="fill:#fc8d62;stroke:#fc8d62;stroke-linejoin:miter;"/>
   </g>
   <g id="patch_60">
    <path clip-path="url(#p1c4c87d73c)" d="M 182.943318 36.472584 
L 194.522121 36.472584 
L 194.522121 24.893782 
L 182.943318 24.893782 
z
" style="fill:#fc8d62;stroke:#fc8d62;stroke-linejoin:miter;"/>
   </g>
   <g id="patch_61">
    <path clip-path="url(#p1c4c87d73c)" d="M 182.943318 22.578021 
L 194.522121 22.578021 
L 194.522121 10.999219 
L 182.943318 10.999219 
z
" style="fill:#fc8d62;stroke:#fc8d62;stroke-linejoin:miter;"/>
   </g>
   <g id="patch_62">
    <path clip-path="url(#p1c4c87d73c)" d="M 196.837881 78.156273 
L 208.416684 78.156273 
L 208.416684 66.577471 
L 196.837881 66.577471 
z
" style="fill:#fc8d62;stroke:#fc8d62;stroke-linejoin:miter;"/>
   </g>
   <g id="patch_63">
    <path clip-path="url(#p1c4c87d73c)" d="M 196.837881 64.26171 
L 208.416684 64.26171 
L 208.416684 52.682908 
L 196.837881 52.682908 
z
" style="fill:#fc8d62;stroke:#fc8d62;stroke-linejoin:miter;"/>
   </g>
   <g id="patch_64">
    <path clip-path="url(#p1c4c87d73c)" d="M 196.837881 50.367147 
L 208.416684 50.367147 
L 208.416684 38.788345 
L 196.837881 38.788345 
z
" style="fill:#fc8d62;stroke:#fc8d62;stroke-linejoin:miter;"/>
   </g>
   <g id="patch_65">
    <path clip-path="url(#p1c4c87d73c)" d="M 196.837881 36.472584 
L 208.416684 36.472584 
L 208.416684 24.893782 
L 196.837881 24.893782 
z
" style="fill:#fc8d62;stroke:#fc8d62;stroke-linejoin:miter;"/>
   </g>
   <g id="patch_66">
    <path clip-path="url(#p1c4c87d73c)" d="M 196.837881 22.578021 
L 208.416684 22.578021 
L 208.416684 10.999219 
L 196.837881 10.999219 
z
" style="fill:#fc8d62;stroke:#fc8d62;stroke-linejoin:miter;"/>
   </g>
   <g id="patch_67">
    <path clip-path="url(#p1c4c87d73c)" d="M 210.732444 78.156273 
L 222.311247 78.156273 
L 222.311247 66.577471 
L 210.732444 66.577471 
z
" style="fill:#fc8d62;stroke:#fc8d62;stroke-linejoin:miter;"/>
   </g>
   <g id="patch_68">
    <path clip-path="url(#p1c4c87d73c)" d="M 210.732444 64.26171 
L 222.311247 64.26171 
L 222.311247 52.682908 
L 210.732444 52.682908 
z
" style="fill:#fc8d62;stroke:#fc8d62;stroke-linejoin:miter;"/>
   </g>
   <g id="patch_69">
    <path clip-path="url(#p1c4c87d73c)" d="M 210.732444 50.367147 
L 222.311247 50.367147 
L 222.311247 38.788345 
L 210.732444 38.788345 
z
" style="fill:#fc8d62;stroke:#fc8d62;stroke-linejoin:miter;"/>
   </g>
   <g id="patch_70">
    <path clip-path="url(#p1c4c87d73c)" d="M 210.732444 36.472584 
L 222.311247 36.472584 
L 222.311247 24.893782 
L 210.732444 24.893782 
z
" style="fill:#fc8d62;stroke:#fc8d62;stroke-linejoin:miter;"/>
   </g>
   <g id="patch_71">
    <path clip-path="url(#p1c4c87d73c)" d="M 210.732444 22.578021 
L 222.311247 22.578021 
L 222.311247 10.999219 
L 210.732444 10.999219 
z
" style="fill:#fc8d62;stroke:#fc8d62;stroke-linejoin:miter;"/>
   </g>
   <g id="patch_72">
    <path clip-path="url(#p1c4c87d73c)" d="M 224.627007 78.156273 
L 236.20581 78.156273 
L 236.20581 66.577471 
L 224.627007 66.577471 
z
" style="fill:#fc8d62;stroke:#fc8d62;stroke-linejoin:miter;"/>
   </g>
   <g id="patch_73">
    <path clip-path="url(#p1c4c87d73c)" d="M 224.627007 64.26171 
L 236.20581 64.26171 
L 236.20581 52.682908 
L 224.627007 52.682908 
z
" style="fill:#fc8d62;stroke:#fc8d62;stroke-linejoin:miter;"/>
   </g>
   <g id="patch_74">
    <path clip-path="url(#p1c4c87d73c)" d="M 224.627007 50.367147 
L 236.20581 50.367147 
L 236.20581 38.788345 
L 224.627007 38.788345 
z
" style="fill:#fc8d62;stroke:#fc8d62;stroke-linejoin:miter;"/>
   </g>
   <g id="patch_75">
    <path clip-path="url(#p1c4c87d73c)" d="M 224.627007 36.472584 
L 236.20581 36.472584 
L 236.20581 24.893782 
L 224.627007 24.893782 
z
" style="fill:#fc8d62;stroke:#fc8d62;stroke-linejoin:miter;"/>
   </g>
   <g id="patch_76">
    <path clip-path="url(#p1c4c87d73c)" d="M 224.627007 22.578021 
L 236.20581 22.578021 
L 236.20581 10.999219 
L 224.627007 10.999219 
z
" style="fill:#fc8d62;stroke:#fc8d62;stroke-linejoin:miter;"/>
   </g>
   <g id="patch_77">
    <path clip-path="url(#p1c4c87d73c)" d="M 238.52157 78.156273 
L 250.100373 78.156273 
L 250.100373 66.577471 
L 238.52157 66.577471 
z
" style="fill:#fc8d62;stroke:#fc8d62;stroke-linejoin:miter;"/>
   </g>
   <g id="patch_78">
    <path clip-path="url(#p1c4c87d73c)" d="M 238.52157 64.26171 
L 250.100373 64.26171 
L 250.100373 52.682908 
L 238.52157 52.682908 
z
" style="fill:#fc8d62;stroke:#fc8d62;stroke-linejoin:miter;"/>
   </g>
   <g id="patch_79">
    <path clip-path="url(#p1c4c87d73c)" d="M 238.52157 50.367147 
L 250.100373 50.367147 
L 250.100373 38.788345 
L 238.52157 38.788345 
z
" style="fill:#fc8d62;stroke:#fc8d62;stroke-linejoin:miter;"/>
   </g>
   <g id="patch_80">
    <path clip-path="url(#p1c4c87d73c)" d="M 238.52157 36.472584 
L 250.100373 36.472584 
L 250.100373 24.893782 
L 238.52157 24.893782 
z
" style="fill:#fc8d62;stroke:#fc8d62;stroke-linejoin:miter;"/>
   </g>
   <g id="patch_81">
    <path clip-path="url(#p1c4c87d73c)" d="M 238.52157 22.578021 
L 250.100373 22.578021 
L 250.100373 10.999219 
L 238.52157 10.999219 
z
" style="fill:#fc8d62;stroke:#fc8d62;stroke-linejoin:miter;"/>
   </g>
   <g id="patch_82">
    <path clip-path="url(#p1c4c87d73c)" d="M 252.416133 78.156273 
L 263.994936 78.156273 
L 263.994936 66.577471 
L 252.416133 66.577471 
z
" style="fill:#fc8d62;stroke:#fc8d62;stroke-linejoin:miter;"/>
   </g>
   <g id="patch_83">
    <path clip-path="url(#p1c4c87d73c)" d="M 252.416133 64.26171 
L 263.994936 64.26171 
L 263.994936 52.682908 
L 252.416133 52.682908 
z
" style="fill:#fc8d62;stroke:#fc8d62;stroke-linejoin:miter;"/>
   </g>
   <g id="patch_84">
    <path clip-path="url(#p1c4c87d73c)" d="M 252.416133 50.367147 
L 263.994936 50.367147 
L 263.994936 38.788345 
L 252.416133 38.788345 
z
" style="fill:#fc8d62;stroke:#fc8d62;stroke-linejoin:miter;"/>
   </g>
   <g id="patch_85">
    <path clip-path="url(#p1c4c87d73c)" d="M 252.416133 36.472584 
L 263.994936 36.472584 
L 263.994936 24.893782 
L 252.416133 24.893782 
z
" style="fill:#fc8d62;stroke:#fc8d62;stroke-linejoin:miter;"/>
   </g>
   <g id="patch_86">
    <path clip-path="url(#p1c4c87d73c)" d="M 252.416133 22.578021 
L 263.994936 22.578021 
L 263.994936 10.999219 
L 252.416133 10.999219 
z
" style="fill:#fc8d62;stroke:#fc8d62;stroke-linejoin:miter;"/>
   </g>
   <g id="patch_87">
    <path clip-path="url(#p1c4c87d73c)" d="M 266.310696 78.156273 
L 277.889499 78.156273 
L 277.889499 66.577471 
L 266.310696 66.577471 
z
" style="fill:#fc8d62;stroke:#fc8d62;stroke-linejoin:miter;"/>
   </g>
   <g id="patch_88">
    <path clip-path="url(#p1c4c87d73c)" d="M 266.310696 64.26171 
L 277.889499 64.26171 
L 277.889499 52.682908 
L 266.310696 52.682908 
z
" style="fill:#fc8d62;stroke:#fc8d62;stroke-linejoin:miter;"/>
   </g>
   <g id="patch_89">
    <path clip-path="url(#p1c4c87d73c)" d="M 266.310696 50.367147 
L 277.889499 50.367147 
L 277.889499 38.788345 
L 266.310696 38.788345 
z
" style="fill:#fc8d62;stroke:#fc8d62;stroke-linejoin:miter;"/>
   </g>
   <g id="patch_90">
    <path clip-path="url(#p1c4c87d73c)" d="M 266.310696 36.472584 
L 277.889499 36.472584 
L 277.889499 24.893782 
L 266.310696 24.893782 
z
" style="fill:#fc8d62;stroke:#fc8d62;stroke-linejoin:miter;"/>
   </g>
   <g id="patch_91">
    <path clip-path="url(#p1c4c87d73c)" d="M 266.310696 22.578021 
L 277.889499 22.578021 
L 277.889499 10.999219 
L 266.310696 10.999219 
z
" style="fill:#fc8d62;stroke:#fc8d62;stroke-linejoin:miter;"/>
   </g>
   <g id="patch_92">
    <path clip-path="url(#p1c4c87d73c)" d="M 280.205259 78.156273 
L 291.784062 78.156273 
L 291.784062 66.577471 
L 280.205259 66.577471 
z
" style="fill:#fc8d62;stroke:#fc8d62;stroke-linejoin:miter;"/>
   </g>
   <g id="patch_93">
    <path clip-path="url(#p1c4c87d73c)" d="M 280.205259 64.26171 
L 291.784062 64.26171 
L 291.784062 52.682908 
L 280.205259 52.682908 
z
" style="fill:#fc8d62;stroke:#fc8d62;stroke-linejoin:miter;"/>
   </g>
   <g id="patch_94">
    <path clip-path="url(#p1c4c87d73c)" d="M 280.205259 50.367147 
L 291.784062 50.367147 
L 291.784062 38.788345 
L 280.205259 38.788345 
z
" style="fill:#fc8d62;stroke:#fc8d62;stroke-linejoin:miter;"/>
   </g>
   <g id="patch_95">
    <path clip-path="url(#p1c4c87d73c)" d="M 280.205259 36.472584 
L 291.784062 36.472584 
L 291.784062 24.893782 
L 280.205259 24.893782 
z
" style="fill:#fc8d62;stroke:#fc8d62;stroke-linejoin:miter;"/>
   </g>
   <g id="patch_96">
    <path clip-path="url(#p1c4c87d73c)" d="M 280.205259 22.578021 
L 291.784062 22.578021 
L 291.784062 10.999219 
L 280.205259 10.999219 
z
" style="fill:#8da0cb;stroke:#8da0cb;stroke-linejoin:miter;"/>
   </g>
   <g id="patch_97">
    <path clip-path="url(#p1c4c87d73c)" d="M 294.099822 78.156273 
L 305.678625 78.156273 
L 305.678625 66.577471 
L 294.099822 66.577471 
z
" style="fill:#8da0cb;stroke:#8da0cb;stroke-linejoin:miter;"/>
   </g>
   <g id="patch_98">
    <path clip-path="url(#p1c4c87d73c)" d="M 294.099822 64.26171 
L 305.678625 64.26171 
L 305.678625 52.682908 
L 294.099822 52.682908 
z
" style="fill:#8da0cb;stroke:#8da0cb;stroke-linejoin:miter;"/>
   </g>
   <g id="legend_1">
    <g id="patch_99">
     <path d="M 340.236175 63.033594 
L 429.88305 63.033594 
Q 431.88305 63.033594 431.88305 61.033594 
L 431.88305 17.999219 
Q 431.88305 15.999219 429.88305 15.999219 
L 340.236175 15.999219 
Q 338.236175 15.999219 338.236175 17.999219 
L 338.236175 61.033594 
Q 338.236175 63.033594 340.236175 63.033594 
z
" style="fill:#ffffff;opacity:0.8;stroke:#cccccc;stroke-linejoin:miter;"/>
    </g>
    <g id="patch_100">
     <path d="M 342.236175 27.597656 
L 362.236175 27.597656 
L 362.236175 20.597656 
L 342.236175 20.597656 
z
" style="fill:#66c2a5;stroke:#66c2a5;stroke-linejoin:miter;"/>
    </g>
    <g id="text_1">
     <!-- Democratic -->
     <defs>
      <path d="M 19.671875 64.796875 
L 19.671875 8.109375 
L 31.59375 8.109375 
Q 46.6875 8.109375 53.6875 14.9375 
Q 60.6875 21.78125 60.6875 36.53125 
Q 60.6875 51.171875 53.6875 57.984375 
Q 46.6875 64.796875 31.59375 64.796875 
z
M 9.8125 72.90625 
L 30.078125 72.90625 
Q 51.265625 72.90625 61.171875 64.09375 
Q 71.09375 55.28125 71.09375 36.53125 
Q 71.09375 17.671875 61.125 8.828125 
Q 51.171875 0 30.078125 0 
L 9.8125 0 
z
" id="DejaVuSans-44"/>
      <path d="M 56.203125 29.59375 
L 56.203125 25.203125 
L 14.890625 25.203125 
Q 15.484375 15.921875 20.484375 11.0625 
Q 25.484375 6.203125 34.421875 6.203125 
Q 39.59375 6.203125 44.453125 7.46875 
Q 49.3125 8.734375 54.109375 11.28125 
L 54.109375 2.78125 
Q 49.265625 0.734375 44.1875 -0.34375 
Q 39.109375 -1.421875 33.890625 -1.421875 
Q 20.796875 -1.421875 13.15625 6.1875 
Q 5.515625 13.8125 5.515625 26.8125 
Q 5.515625 40.234375 12.765625 48.109375 
Q 20.015625 56 32.328125 56 
Q 43.359375 56 49.78125 48.890625 
Q 56.203125 41.796875 56.203125 29.59375 
z
M 47.21875 32.234375 
Q 47.125 39.59375 43.09375 43.984375 
Q 39.0625 48.390625 32.421875 48.390625 
Q 24.90625 48.390625 20.390625 44.140625 
Q 15.875 39.890625 15.1875 32.171875 
z
" id="DejaVuSans-65"/>
      <path d="M 52 44.1875 
Q 55.375 50.25 60.0625 53.125 
Q 64.75 56 71.09375 56 
Q 79.640625 56 84.28125 50.015625 
Q 88.921875 44.046875 88.921875 33.015625 
L 88.921875 0 
L 79.890625 0 
L 79.890625 32.71875 
Q 79.890625 40.578125 77.09375 44.375 
Q 74.3125 48.1875 68.609375 48.1875 
Q 61.625 48.1875 57.5625 43.546875 
Q 53.515625 38.921875 53.515625 30.90625 
L 53.515625 0 
L 44.484375 0 
L 44.484375 32.71875 
Q 44.484375 40.625 41.703125 44.40625 
Q 38.921875 48.1875 33.109375 48.1875 
Q 26.21875 48.1875 22.15625 43.53125 
Q 18.109375 38.875 18.109375 30.90625 
L 18.109375 0 
L 9.078125 0 
L 9.078125 54.6875 
L 18.109375 54.6875 
L 18.109375 46.1875 
Q 21.1875 51.21875 25.484375 53.609375 
Q 29.78125 56 35.6875 56 
Q 41.65625 56 45.828125 52.96875 
Q 50 49.953125 52 44.1875 
z
" id="DejaVuSans-6d"/>
      <path d="M 30.609375 48.390625 
Q 23.390625 48.390625 19.1875 42.75 
Q 14.984375 37.109375 14.984375 27.296875 
Q 14.984375 17.484375 19.15625 11.84375 
Q 23.34375 6.203125 30.609375 6.203125 
Q 37.796875 6.203125 41.984375 11.859375 
Q 46.1875 17.53125 46.1875 27.296875 
Q 46.1875 37.015625 41.984375 42.703125 
Q 37.796875 48.390625 30.609375 48.390625 
z
M 30.609375 56 
Q 42.328125 56 49.015625 48.375 
Q 55.71875 40.765625 55.71875 27.296875 
Q 55.71875 13.875 49.015625 6.21875 
Q 42.328125 -1.421875 30.609375 -1.421875 
Q 18.84375 -1.421875 12.171875 6.21875 
Q 5.515625 13.875 5.515625 27.296875 
Q 5.515625 40.765625 12.171875 48.375 
Q 18.84375 56 30.609375 56 
z
" id="DejaVuSans-6f"/>
      <path d="M 48.78125 52.59375 
L 48.78125 44.1875 
Q 44.96875 46.296875 41.140625 47.34375 
Q 37.3125 48.390625 33.40625 48.390625 
Q 24.65625 48.390625 19.8125 42.84375 
Q 14.984375 37.3125 14.984375 27.296875 
Q 14.984375 17.28125 19.8125 11.734375 
Q 24.65625 6.203125 33.40625 6.203125 
Q 37.3125 6.203125 41.140625 7.25 
Q 44.96875 8.296875 48.78125 10.40625 
L 48.78125 2.09375 
Q 45.015625 0.34375 40.984375 -0.53125 
Q 36.96875 -1.421875 32.421875 -1.421875 
Q 20.0625 -1.421875 12.78125 6.34375 
Q 5.515625 14.109375 5.515625 27.296875 
Q 5.515625 40.671875 12.859375 48.328125 
Q 20.21875 56 33.015625 56 
Q 37.15625 56 41.109375 55.140625 
Q 45.0625 54.296875 48.78125 52.59375 
z
" id="DejaVuSans-63"/>
      <path d="M 41.109375 46.296875 
Q 39.59375 47.171875 37.8125 47.578125 
Q 36.03125 48 33.890625 48 
Q 26.265625 48 22.1875 43.046875 
Q 18.109375 38.09375 18.109375 28.8125 
L 18.109375 0 
L 9.078125 0 
L 9.078125 54.6875 
L 18.109375 54.6875 
L 18.109375 46.1875 
Q 20.953125 51.171875 25.484375 53.578125 
Q 30.03125 56 36.53125 56 
Q 37.453125 56 38.578125 55.875 
Q 39.703125 55.765625 41.0625 55.515625 
z
" id="DejaVuSans-72"/>
      <path d="M 34.28125 27.484375 
Q 23.390625 27.484375 19.1875 25 
Q 14.984375 22.515625 14.984375 16.5 
Q 14.984375 11.71875 18.140625 8.90625 
Q 21.296875 6.109375 26.703125 6.109375 
Q 34.1875 6.109375 38.703125 11.40625 
Q 43.21875 16.703125 43.21875 25.484375 
L 43.21875 27.484375 
z
M 52.203125 31.203125 
L 52.203125 0 
L 43.21875 0 
L 43.21875 8.296875 
Q 40.140625 3.328125 35.546875 0.953125 
Q 30.953125 -1.421875 24.3125 -1.421875 
Q 15.921875 -1.421875 10.953125 3.296875 
Q 6 8.015625 6 15.921875 
Q 6 25.140625 12.171875 29.828125 
Q 18.359375 34.515625 30.609375 34.515625 
L 43.21875 34.515625 
L 43.21875 35.40625 
Q 43.21875 41.609375 39.140625 45 
Q 35.0625 48.390625 27.6875 48.390625 
Q 23 48.390625 18.546875 47.265625 
Q 14.109375 46.140625 10.015625 43.890625 
L 10.015625 52.203125 
Q 14.9375 54.109375 19.578125 55.046875 
Q 24.21875 56 28.609375 56 
Q 40.484375 56 46.34375 49.84375 
Q 52.203125 43.703125 52.203125 31.203125 
z
" id="DejaVuSans-61"/>
      <path d="M 18.3125 70.21875 
L 18.3125 54.6875 
L 36.8125 54.6875 
L 36.8125 47.703125 
L 18.3125 47.703125 
L 18.3125 18.015625 
Q 18.3125 11.328125 20.140625 9.421875 
Q 21.96875 7.515625 27.59375 7.515625 
L 36.8125 7.515625 
L 36.8125 0 
L 27.59375 0 
Q 17.1875 0 13.234375 3.875 
Q 9.28125 7.765625 9.28125 18.015625 
L 9.28125 47.703125 
L 2.6875 47.703125 
L 2.6875 54.6875 
L 9.28125 54.6875 
L 9.28125 70.21875 
z
" id="DejaVuSans-74"/>
      <path d="M 9.421875 54.6875 
L 18.40625 54.6875 
L 18.40625 0 
L 9.421875 0 
z
M 9.421875 75.984375 
L 18.40625 75.984375 
L 18.40625 64.59375 
L 9.421875 64.59375 
z
" id="DejaVuSans-69"/>
     </defs>
     <g transform="translate(370.236175 27.597656)scale(0.1 -0.1)">
      <use xlink:href="#DejaVuSans-44"/>
      <use x="77.001953" xlink:href="#DejaVuSans-65"/>
      <use x="138.525391" xlink:href="#DejaVuSans-6d"/>
      <use x="235.9375" xlink:href="#DejaVuSans-6f"/>
      <use x="297.119141" xlink:href="#DejaVuSans-63"/>
      <use x="352.099609" xlink:href="#DejaVuSans-72"/>
      <use x="393.212891" xlink:href="#DejaVuSans-61"/>
      <use x="454.492188" xlink:href="#DejaVuSans-74"/>
      <use x="493.701172" xlink:href="#DejaVuSans-69"/>
      <use x="521.484375" xlink:href="#DejaVuSans-63"/>
     </g>
    </g>
    <g id="patch_101">
     <path d="M 342.236175 42.275781 
L 362.236175 42.275781 
L 362.236175 35.275781 
L 342.236175 35.275781 
z
" style="fill:#fc8d62;stroke:#fc8d62;stroke-linejoin:miter;"/>
    </g>
    <g id="text_2">
     <!-- Republican -->
     <defs>
      <path d="M 44.390625 34.1875 
Q 47.5625 33.109375 50.5625 29.59375 
Q 53.5625 26.078125 56.59375 19.921875 
L 66.609375 0 
L 56 0 
L 46.6875 18.703125 
Q 43.0625 26.03125 39.671875 28.421875 
Q 36.28125 30.8125 30.421875 30.8125 
L 19.671875 30.8125 
L 19.671875 0 
L 9.8125 0 
L 9.8125 72.90625 
L 32.078125 72.90625 
Q 44.578125 72.90625 50.734375 67.671875 
Q 56.890625 62.453125 56.890625 51.90625 
Q 56.890625 45.015625 53.6875 40.46875 
Q 50.484375 35.9375 44.390625 34.1875 
z
M 19.671875 64.796875 
L 19.671875 38.921875 
L 32.078125 38.921875 
Q 39.203125 38.921875 42.84375 42.21875 
Q 46.484375 45.515625 46.484375 51.90625 
Q 46.484375 58.296875 42.84375 61.546875 
Q 39.203125 64.796875 32.078125 64.796875 
z
" id="DejaVuSans-52"/>
      <path d="M 18.109375 8.203125 
L 18.109375 -20.796875 
L 9.078125 -20.796875 
L 9.078125 54.6875 
L 18.109375 54.6875 
L 18.109375 46.390625 
Q 20.953125 51.265625 25.265625 53.625 
Q 29.59375 56 35.59375 56 
Q 45.5625 56 51.78125 48.09375 
Q 58.015625 40.1875 58.015625 27.296875 
Q 58.015625 14.40625 51.78125 6.484375 
Q 45.5625 -1.421875 35.59375 -1.421875 
Q 29.59375 -1.421875 25.265625 0.953125 
Q 20.953125 3.328125 18.109375 8.203125 
z
M 48.6875 27.296875 
Q 48.6875 37.203125 44.609375 42.84375 
Q 40.53125 48.484375 33.40625 48.484375 
Q 26.265625 48.484375 22.1875 42.84375 
Q 18.109375 37.203125 18.109375 27.296875 
Q 18.109375 17.390625 22.1875 11.75 
Q 26.265625 6.109375 33.40625 6.109375 
Q 40.53125 6.109375 44.609375 11.75 
Q 48.6875 17.390625 48.6875 27.296875 
z
" id="DejaVuSans-70"/>
      <path d="M 8.5 21.578125 
L 8.5 54.6875 
L 17.484375 54.6875 
L 17.484375 21.921875 
Q 17.484375 14.15625 20.5 10.265625 
Q 23.53125 6.390625 29.59375 6.390625 
Q 36.859375 6.390625 41.078125 11.03125 
Q 45.3125 15.671875 45.3125 23.6875 
L 45.3125 54.6875 
L 54.296875 54.6875 
L 54.296875 0 
L 45.3125 0 
L 45.3125 8.40625 
Q 42.046875 3.421875 37.71875 1 
Q 33.40625 -1.421875 27.6875 -1.421875 
Q 18.265625 -1.421875 13.375 4.4375 
Q 8.5 10.296875 8.5 21.578125 
z
M 31.109375 56 
z
" id="DejaVuSans-75"/>
      <path d="M 48.6875 27.296875 
Q 48.6875 37.203125 44.609375 42.84375 
Q 40.53125 48.484375 33.40625 48.484375 
Q 26.265625 48.484375 22.1875 42.84375 
Q 18.109375 37.203125 18.109375 27.296875 
Q 18.109375 17.390625 22.1875 11.75 
Q 26.265625 6.109375 33.40625 6.109375 
Q 40.53125 6.109375 44.609375 11.75 
Q 48.6875 17.390625 48.6875 27.296875 
z
M 18.109375 46.390625 
Q 20.953125 51.265625 25.265625 53.625 
Q 29.59375 56 35.59375 56 
Q 45.5625 56 51.78125 48.09375 
Q 58.015625 40.1875 58.015625 27.296875 
Q 58.015625 14.40625 51.78125 6.484375 
Q 45.5625 -1.421875 35.59375 -1.421875 
Q 29.59375 -1.421875 25.265625 0.953125 
Q 20.953125 3.328125 18.109375 8.203125 
L 18.109375 0 
L 9.078125 0 
L 9.078125 75.984375 
L 18.109375 75.984375 
z
" id="DejaVuSans-62"/>
      <path d="M 9.421875 75.984375 
L 18.40625 75.984375 
L 18.40625 0 
L 9.421875 0 
z
" id="DejaVuSans-6c"/>
      <path d="M 54.890625 33.015625 
L 54.890625 0 
L 45.90625 0 
L 45.90625 32.71875 
Q 45.90625 40.484375 42.875 44.328125 
Q 39.84375 48.1875 33.796875 48.1875 
Q 26.515625 48.1875 22.3125 43.546875 
Q 18.109375 38.921875 18.109375 30.90625 
L 18.109375 0 
L 9.078125 0 
L 9.078125 54.6875 
L 18.109375 54.6875 
L 18.109375 46.1875 
Q 21.34375 51.125 25.703125 53.5625 
Q 30.078125 56 35.796875 56 
Q 45.21875 56 50.046875 50.171875 
Q 54.890625 44.34375 54.890625 33.015625 
z
" id="DejaVuSans-6e"/>
     </defs>
     <g transform="translate(370.236175 42.275781)scale(0.1 -0.1)">
      <use xlink:href="#DejaVuSans-52"/>
      <use x="69.419922" xlink:href="#DejaVuSans-65"/>
      <use x="130.943359" xlink:href="#DejaVuSans-70"/>
      <use x="194.419922" xlink:href="#DejaVuSans-75"/>
      <use x="257.798828" xlink:href="#DejaVuSans-62"/>
      <use x="321.275391" xlink:href="#DejaVuSans-6c"/>
      <use x="349.058594" xlink:href="#DejaVuSans-69"/>
      <use x="376.841797" xlink:href="#DejaVuSans-63"/>
      <use x="431.822266" xlink:href="#DejaVuSans-61"/>
      <use x="493.101562" xlink:href="#DejaVuSans-6e"/>
     </g>
    </g>
    <g id="patch_102">
     <path d="M 342.236175 56.953906 
L 362.236175 56.953906 
L 362.236175 49.953906 
L 342.236175 49.953906 
z
" style="fill:#8da0cb;stroke:#8da0cb;stroke-linejoin:miter;"/>
    </g>
    <g id="text_3">
     <!-- Libertarian -->
     <defs>
      <path d="M 9.8125 72.90625 
L 19.671875 72.90625 
L 19.671875 8.296875 
L 55.171875 8.296875 
L 55.171875 0 
L 9.8125 0 
z
" id="DejaVuSans-4c"/>
     </defs>
     <g transform="translate(370.236175 56.953906)scale(0.1 -0.1)">
      <use xlink:href="#DejaVuSans-4c"/>
      <use x="55.712891" xlink:href="#DejaVuSans-69"/>
      <use x="83.496094" xlink:href="#DejaVuSans-62"/>
      <use x="146.972656" xlink:href="#DejaVuSans-65"/>
      <use x="208.496094" xlink:href="#DejaVuSans-72"/>
      <use x="249.609375" xlink:href="#DejaVuSans-74"/>
      <use x="288.818359" xlink:href="#DejaVuSans-61"/>
      <use x="350.097656" xlink:href="#DejaVuSans-72"/>
      <use x="391.210938" xlink:href="#DejaVuSans-69"/>
      <use x="418.994141" xlink:href="#DejaVuSans-61"/>
      <use x="480.273438" xlink:href="#DejaVuSans-6e"/>
     </g>
    </g>
   </g>
  </g>
 </g>
 <defs>
  <clipPath id="p1c4c87d73c">
   <rect height="67.157055" width="275.5755" x="30.103125" y="10.999219"/>
  </clipPath>
 </defs>
</svg>
