<?xml version="1.0" encoding="utf-8" standalone="no"?>
<!DOCTYPE svg PUBLIC "-//W3C//DTD SVG 1.1//EN"
  "http://www.w3.org/Graphics/SVG/1.1/DTD/svg11.dtd">
<!-- Created with matplotlib (http://matplotlib.org/) -->
<svg height="133pt" version="1.1" viewBox="0 0 589 133" width="589pt" xmlns="http://www.w3.org/2000/svg" xmlns:xlink="http://www.w3.org/1999/xlink">
 <defs>
  <style type="text/css">
*{stroke-linecap:butt;stroke-linejoin:round;}
  </style>
 </defs>
 <g id="figure_1">
  <g id="patch_1">
   <path d="M 0 133.924376 
L 589.390312 133.924376 
L 589.390312 0 
L 0 0 
z
" style="fill:#ffffff;"/>
  </g>
  <g id="axes_1">
   <g id="patch_2">
    <path clip-path="url(#pa00d441277)" d="M 36.465625 110.046251 
L 53.5427 110.046251 
L 53.5427 92.969177 
L 36.465625 92.969177 
z
" style="fill:#66c2a5;stroke:#66c2a5;stroke-linejoin:miter;"/>
   </g>
   <g id="patch_3">
    <path clip-path="url(#pa00d441277)" d="M 36.465625 89.553762 
L 53.5427 89.553762 
L 53.5427 72.476687 
L 36.465625 72.476687 
z
" style="fill:#66c2a5;stroke:#66c2a5;stroke-linejoin:miter;"/>
   </g>
   <g id="patch_4">
    <path clip-path="url(#pa00d441277)" d="M 36.465625 69.061272 
L 53.5427 69.061272 
L 53.5427 51.984198 
L 36.465625 51.984198 
z
" style="fill:#66c2a5;stroke:#66c2a5;stroke-linejoin:miter;"/>
   </g>
   <g id="patch_5">
    <path clip-path="url(#pa00d441277)" d="M 36.465625 48.568783 
L 53.5427 48.568783 
L 53.5427 31.491708 
L 36.465625 31.491708 
z
" style="fill:#66c2a5;stroke:#66c2a5;stroke-linejoin:miter;"/>
   </g>
   <g id="patch_6">
    <path clip-path="url(#pa00d441277)" d="M 36.465625 28.076293 
L 53.5427 28.076293 
L 53.5427 10.999219 
L 36.465625 10.999219 
z
" style="fill:#66c2a5;stroke:#66c2a5;stroke-linejoin:miter;"/>
   </g>
   <g id="patch_7">
    <path clip-path="url(#pa00d441277)" d="M 56.958114 110.046251 
L 74.035189 110.046251 
L 74.035189 92.969177 
L 56.958114 92.969177 
z
" style="fill:#66c2a5;stroke:#66c2a5;stroke-linejoin:miter;"/>
   </g>
   <g id="patch_8">
    <path clip-path="url(#pa00d441277)" d="M 56.958114 89.553762 
L 74.035189 89.553762 
L 74.035189 72.476687 
L 56.958114 72.476687 
z
" style="fill:#66c2a5;stroke:#66c2a5;stroke-linejoin:miter;"/>
   </g>
   <g id="patch_9">
    <path clip-path="url(#pa00d441277)" d="M 56.958114 69.061272 
L 74.035189 69.061272 
L 74.035189 51.984198 
L 56.958114 51.984198 
z
" style="fill:#66c2a5;stroke:#66c2a5;stroke-linejoin:miter;"/>
   </g>
   <g id="patch_10">
    <path clip-path="url(#pa00d441277)" d="M 56.958114 48.568783 
L 74.035189 48.568783 
L 74.035189 31.491708 
L 56.958114 31.491708 
z
" style="fill:#66c2a5;stroke:#66c2a5;stroke-linejoin:miter;"/>
   </g>
   <g id="patch_11">
    <path clip-path="url(#pa00d441277)" d="M 56.958114 28.076293 
L 74.035189 28.076293 
L 74.035189 10.999219 
L 56.958114 10.999219 
z
" style="fill:#66c2a5;stroke:#66c2a5;stroke-linejoin:miter;"/>
   </g>
   <g id="patch_12">
    <path clip-path="url(#pa00d441277)" d="M 77.450604 110.046251 
L 94.527679 110.046251 
L 94.527679 92.969177 
L 77.450604 92.969177 
z
" style="fill:#66c2a5;stroke:#66c2a5;stroke-linejoin:miter;"/>
   </g>
   <g id="patch_13">
    <path clip-path="url(#pa00d441277)" d="M 77.450604 89.553762 
L 94.527679 89.553762 
L 94.527679 72.476687 
L 77.450604 72.476687 
z
" style="fill:#66c2a5;stroke:#66c2a5;stroke-linejoin:miter;"/>
   </g>
   <g id="patch_14">
    <path clip-path="url(#pa00d441277)" d="M 77.450604 69.061272 
L 94.527679 69.061272 
L 94.527679 51.984198 
L 77.450604 51.984198 
z
" style="fill:#66c2a5;stroke:#66c2a5;stroke-linejoin:miter;"/>
   </g>
   <g id="patch_15">
    <path clip-path="url(#pa00d441277)" d="M 77.450604 48.568783 
L 94.527679 48.568783 
L 94.527679 31.491708 
L 77.450604 31.491708 
z
" style="fill:#66c2a5;stroke:#66c2a5;stroke-linejoin:miter;"/>
   </g>
   <g id="patch_16">
    <path clip-path="url(#pa00d441277)" d="M 77.450604 28.076293 
L 94.527679 28.076293 
L 94.527679 10.999219 
L 77.450604 10.999219 
z
" style="fill:#66c2a5;stroke:#66c2a5;stroke-linejoin:miter;"/>
   </g>
   <g id="patch_17">
    <path clip-path="url(#pa00d441277)" d="M 97.943093 110.046251 
L 115.020168 110.046251 
L 115.020168 92.969177 
L 97.943093 92.969177 
z
" style="fill:#66c2a5;stroke:#66c2a5;stroke-linejoin:miter;"/>
   </g>
   <g id="patch_18">
    <path clip-path="url(#pa00d441277)" d="M 97.943093 89.553762 
L 115.020168 89.553762 
L 115.020168 72.476687 
L 97.943093 72.476687 
z
" style="fill:#66c2a5;stroke:#66c2a5;stroke-linejoin:miter;"/>
   </g>
   <g id="patch_19">
    <path clip-path="url(#pa00d441277)" d="M 97.943093 69.061272 
L 115.020168 69.061272 
L 115.020168 51.984198 
L 97.943093 51.984198 
z
" style="fill:#66c2a5;stroke:#66c2a5;stroke-linejoin:miter;"/>
   </g>
   <g id="patch_20">
    <path clip-path="url(#pa00d441277)" d="M 97.943093 48.568783 
L 115.020168 48.568783 
L 115.020168 31.491708 
L 97.943093 31.491708 
z
" style="fill:#66c2a5;stroke:#66c2a5;stroke-linejoin:miter;"/>
   </g>
   <g id="patch_21">
    <path clip-path="url(#pa00d441277)" d="M 97.943093 28.076293 
L 115.020168 28.076293 
L 115.020168 10.999219 
L 97.943093 10.999219 
z
" style="fill:#66c2a5;stroke:#66c2a5;stroke-linejoin:miter;"/>
   </g>
   <g id="patch_22">
    <path clip-path="url(#pa00d441277)" d="M 118.435583 110.046251 
L 135.512658 110.046251 
L 135.512658 92.969177 
L 118.435583 92.969177 
z
" style="fill:#66c2a5;stroke:#66c2a5;stroke-linejoin:miter;"/>
   </g>
   <g id="patch_23">
    <path clip-path="url(#pa00d441277)" d="M 118.435583 89.553762 
L 135.512658 89.553762 
L 135.512658 72.476687 
L 118.435583 72.476687 
z
" style="fill:#66c2a5;stroke:#66c2a5;stroke-linejoin:miter;"/>
   </g>
   <g id="patch_24">
    <path clip-path="url(#pa00d441277)" d="M 118.435583 69.061272 
L 135.512658 69.061272 
L 135.512658 51.984198 
L 118.435583 51.984198 
z
" style="fill:#66c2a5;stroke:#66c2a5;stroke-linejoin:miter;"/>
   </g>
   <g id="patch_25">
    <path clip-path="url(#pa00d441277)" d="M 118.435583 48.568783 
L 135.512658 48.568783 
L 135.512658 31.491708 
L 118.435583 31.491708 
z
" style="fill:#66c2a5;stroke:#66c2a5;stroke-linejoin:miter;"/>
   </g>
   <g id="patch_26">
    <path clip-path="url(#pa00d441277)" d="M 118.435583 28.076293 
L 135.512658 28.076293 
L 135.512658 10.999219 
L 118.435583 10.999219 
z
" style="fill:#66c2a5;stroke:#66c2a5;stroke-linejoin:miter;"/>
   </g>
   <g id="patch_27">
    <path clip-path="url(#pa00d441277)" d="M 138.928072 110.046251 
L 156.005147 110.046251 
L 156.005147 92.969177 
L 138.928072 92.969177 
z
" style="fill:#66c2a5;stroke:#66c2a5;stroke-linejoin:miter;"/>
   </g>
   <g id="patch_28">
    <path clip-path="url(#pa00d441277)" d="M 138.928072 89.553762 
L 156.005147 89.553762 
L 156.005147 72.476687 
L 138.928072 72.476687 
z
" style="fill:#66c2a5;stroke:#66c2a5;stroke-linejoin:miter;"/>
   </g>
   <g id="patch_29">
    <path clip-path="url(#pa00d441277)" d="M 138.928072 69.061272 
L 156.005147 69.061272 
L 156.005147 51.984198 
L 138.928072 51.984198 
z
" style="fill:#66c2a5;stroke:#66c2a5;stroke-linejoin:miter;"/>
   </g>
   <g id="patch_30">
    <path clip-path="url(#pa00d441277)" d="M 138.928072 48.568783 
L 156.005147 48.568783 
L 156.005147 31.491708 
L 138.928072 31.491708 
z
" style="fill:#66c2a5;stroke:#66c2a5;stroke-linejoin:miter;"/>
   </g>
   <g id="patch_31">
    <path clip-path="url(#pa00d441277)" d="M 138.928072 28.076293 
L 156.005147 28.076293 
L 156.005147 10.999219 
L 138.928072 10.999219 
z
" style="fill:#66c2a5;stroke:#66c2a5;stroke-linejoin:miter;"/>
   </g>
   <g id="patch_32">
    <path clip-path="url(#pa00d441277)" d="M 159.420562 110.046251 
L 176.497637 110.046251 
L 176.497637 92.969177 
L 159.420562 92.969177 
z
" style="fill:#66c2a5;stroke:#66c2a5;stroke-linejoin:miter;"/>
   </g>
   <g id="patch_33">
    <path clip-path="url(#pa00d441277)" d="M 159.420562 89.553762 
L 176.497637 89.553762 
L 176.497637 72.476687 
L 159.420562 72.476687 
z
" style="fill:#66c2a5;stroke:#66c2a5;stroke-linejoin:miter;"/>
   </g>
   <g id="patch_34">
    <path clip-path="url(#pa00d441277)" d="M 159.420562 69.061272 
L 176.497637 69.061272 
L 176.497637 51.984198 
L 159.420562 51.984198 
z
" style="fill:#66c2a5;stroke:#66c2a5;stroke-linejoin:miter;"/>
   </g>
   <g id="patch_35">
    <path clip-path="url(#pa00d441277)" d="M 159.420562 48.568783 
L 176.497637 48.568783 
L 176.497637 31.491708 
L 159.420562 31.491708 
z
" style="fill:#66c2a5;stroke:#66c2a5;stroke-linejoin:miter;"/>
   </g>
   <g id="patch_36">
    <path clip-path="url(#pa00d441277)" d="M 159.420562 28.076293 
L 176.497637 28.076293 
L 176.497637 10.999219 
L 159.420562 10.999219 
z
" style="fill:#66c2a5;stroke:#66c2a5;stroke-linejoin:miter;"/>
   </g>
   <g id="patch_37">
    <path clip-path="url(#pa00d441277)" d="M 179.913051 110.046251 
L 196.990126 110.046251 
L 196.990126 92.969177 
L 179.913051 92.969177 
z
" style="fill:#66c2a5;stroke:#66c2a5;stroke-linejoin:miter;"/>
   </g>
   <g id="patch_38">
    <path clip-path="url(#pa00d441277)" d="M 179.913051 89.553762 
L 196.990126 89.553762 
L 196.990126 72.476687 
L 179.913051 72.476687 
z
" style="fill:#66c2a5;stroke:#66c2a5;stroke-linejoin:miter;"/>
   </g>
   <g id="patch_39">
    <path clip-path="url(#pa00d441277)" d="M 179.913051 69.061272 
L 196.990126 69.061272 
L 196.990126 51.984198 
L 179.913051 51.984198 
z
" style="fill:#66c2a5;stroke:#66c2a5;stroke-linejoin:miter;"/>
   </g>
   <g id="patch_40">
    <path clip-path="url(#pa00d441277)" d="M 179.913051 48.568783 
L 196.990126 48.568783 
L 196.990126 31.491708 
L 179.913051 31.491708 
z
" style="fill:#66c2a5;stroke:#66c2a5;stroke-linejoin:miter;"/>
   </g>
   <g id="patch_41">
    <path clip-path="url(#pa00d441277)" d="M 179.913051 28.076293 
L 196.990126 28.076293 
L 196.990126 10.999219 
L 179.913051 10.999219 
z
" style="fill:#66c2a5;stroke:#66c2a5;stroke-linejoin:miter;"/>
   </g>
   <g id="patch_42">
    <path clip-path="url(#pa00d441277)" d="M 200.405541 110.046251 
L 217.482616 110.046251 
L 217.482616 92.969177 
L 200.405541 92.969177 
z
" style="fill:#66c2a5;stroke:#66c2a5;stroke-linejoin:miter;"/>
   </g>
   <g id="patch_43">
    <path clip-path="url(#pa00d441277)" d="M 200.405541 89.553762 
L 217.482616 89.553762 
L 217.482616 72.476687 
L 200.405541 72.476687 
z
" style="fill:#66c2a5;stroke:#66c2a5;stroke-linejoin:miter;"/>
   </g>
   <g id="patch_44">
    <path clip-path="url(#pa00d441277)" d="M 200.405541 69.061272 
L 217.482616 69.061272 
L 217.482616 51.984198 
L 200.405541 51.984198 
z
" style="fill:#66c2a5;stroke:#66c2a5;stroke-linejoin:miter;"/>
   </g>
   <g id="patch_45">
    <path clip-path="url(#pa00d441277)" d="M 200.405541 48.568783 
L 217.482616 48.568783 
L 217.482616 31.491708 
L 200.405541 31.491708 
z
" style="fill:#66c2a5;stroke:#66c2a5;stroke-linejoin:miter;"/>
   </g>
   <g id="patch_46">
    <path clip-path="url(#pa00d441277)" d="M 200.405541 28.076293 
L 217.482616 28.076293 
L 217.482616 10.999219 
L 200.405541 10.999219 
z
" style="fill:#66c2a5;stroke:#66c2a5;stroke-linejoin:miter;"/>
   </g>
   <g id="patch_47">
    <path clip-path="url(#pa00d441277)" d="M 220.89803 110.046251 
L 237.975105 110.046251 
L 237.975105 92.969177 
L 220.89803 92.969177 
z
" style="fill:#66c2a5;stroke:#66c2a5;stroke-linejoin:miter;"/>
   </g>
   <g id="patch_48">
    <path clip-path="url(#pa00d441277)" d="M 220.89803 89.553762 
L 237.975105 89.553762 
L 237.975105 72.476687 
L 220.89803 72.476687 
z
" style="fill:#66c2a5;stroke:#66c2a5;stroke-linejoin:miter;"/>
   </g>
   <g id="patch_49">
    <path clip-path="url(#pa00d441277)" d="M 220.89803 69.061272 
L 237.975105 69.061272 
L 237.975105 51.984198 
L 220.89803 51.984198 
z
" style="fill:#66c2a5;stroke:#66c2a5;stroke-linejoin:miter;"/>
   </g>
   <g id="patch_50">
    <path clip-path="url(#pa00d441277)" d="M 220.89803 48.568783 
L 237.975105 48.568783 
L 237.975105 31.491708 
L 220.89803 31.491708 
z
" style="fill:#fc8d62;stroke:#fc8d62;stroke-linejoin:miter;"/>
   </g>
   <g id="patch_51">
    <path clip-path="url(#pa00d441277)" d="M 220.89803 28.076293 
L 237.975105 28.076293 
L 237.975105 10.999219 
L 220.89803 10.999219 
z
" style="fill:#fc8d62;stroke:#fc8d62;stroke-linejoin:miter;"/>
   </g>
   <g id="patch_52">
    <path clip-path="url(#pa00d441277)" d="M 241.39052 110.046251 
L 258.467595 110.046251 
L 258.467595 92.969177 
L 241.39052 92.969177 
z
" style="fill:#fc8d62;stroke:#fc8d62;stroke-linejoin:miter;"/>
   </g>
   <g id="patch_53">
    <path clip-path="url(#pa00d441277)" d="M 241.39052 89.553762 
L 258.467595 89.553762 
L 258.467595 72.476687 
L 241.39052 72.476687 
z
" style="fill:#fc8d62;stroke:#fc8d62;stroke-linejoin:miter;"/>
   </g>
   <g id="patch_54">
    <path clip-path="url(#pa00d441277)" d="M 241.39052 69.061272 
L 258.467595 69.061272 
L 258.467595 51.984198 
L 241.39052 51.984198 
z
" style="fill:#fc8d62;stroke:#fc8d62;stroke-linejoin:miter;"/>
   </g>
   <g id="patch_55">
    <path clip-path="url(#pa00d441277)" d="M 241.39052 48.568783 
L 258.467595 48.568783 
L 258.467595 31.491708 
L 241.39052 31.491708 
z
" style="fill:#fc8d62;stroke:#fc8d62;stroke-linejoin:miter;"/>
   </g>
   <g id="patch_56">
    <path clip-path="url(#pa00d441277)" d="M 241.39052 28.076293 
L 258.467595 28.076293 
L 258.467595 10.999219 
L 241.39052 10.999219 
z
" style="fill:#fc8d62;stroke:#fc8d62;stroke-linejoin:miter;"/>
   </g>
   <g id="patch_57">
    <path clip-path="url(#pa00d441277)" d="M 261.883009 110.046251 
L 278.960084 110.046251 
L 278.960084 92.969177 
L 261.883009 92.969177 
z
" style="fill:#fc8d62;stroke:#fc8d62;stroke-linejoin:miter;"/>
   </g>
   <g id="patch_58">
    <path clip-path="url(#pa00d441277)" d="M 261.883009 89.553762 
L 278.960084 89.553762 
L 278.960084 72.476687 
L 261.883009 72.476687 
z
" style="fill:#fc8d62;stroke:#fc8d62;stroke-linejoin:miter;"/>
   </g>
   <g id="patch_59">
    <path clip-path="url(#pa00d441277)" d="M 261.883009 69.061272 
L 278.960084 69.061272 
L 278.960084 51.984198 
L 261.883009 51.984198 
z
" style="fill:#fc8d62;stroke:#fc8d62;stroke-linejoin:miter;"/>
   </g>
   <g id="patch_60">
    <path clip-path="url(#pa00d441277)" d="M 261.883009 48.568783 
L 278.960084 48.568783 
L 278.960084 31.491708 
L 261.883009 31.491708 
z
" style="fill:#fc8d62;stroke:#fc8d62;stroke-linejoin:miter;"/>
   </g>
   <g id="patch_61">
    <path clip-path="url(#pa00d441277)" d="M 261.883009 28.076293 
L 278.960084 28.076293 
L 278.960084 10.999219 
L 261.883009 10.999219 
z
" style="fill:#fc8d62;stroke:#fc8d62;stroke-linejoin:miter;"/>
   </g>
   <g id="patch_62">
    <path clip-path="url(#pa00d441277)" d="M 282.375499 110.046251 
L 299.452574 110.046251 
L 299.452574 92.969177 
L 282.375499 92.969177 
z
" style="fill:#fc8d62;stroke:#fc8d62;stroke-linejoin:miter;"/>
   </g>
   <g id="patch_63">
    <path clip-path="url(#pa00d441277)" d="M 282.375499 89.553762 
L 299.452574 89.553762 
L 299.452574 72.476687 
L 282.375499 72.476687 
z
" style="fill:#fc8d62;stroke:#fc8d62;stroke-linejoin:miter;"/>
   </g>
   <g id="patch_64">
    <path clip-path="url(#pa00d441277)" d="M 282.375499 69.061272 
L 299.452574 69.061272 
L 299.452574 51.984198 
L 282.375499 51.984198 
z
" style="fill:#fc8d62;stroke:#fc8d62;stroke-linejoin:miter;"/>
   </g>
   <g id="patch_65">
    <path clip-path="url(#pa00d441277)" d="M 282.375499 48.568783 
L 299.452574 48.568783 
L 299.452574 31.491708 
L 282.375499 31.491708 
z
" style="fill:#fc8d62;stroke:#fc8d62;stroke-linejoin:miter;"/>
   </g>
   <g id="patch_66">
    <path clip-path="url(#pa00d441277)" d="M 282.375499 28.076293 
L 299.452574 28.076293 
L 299.452574 10.999219 
L 282.375499 10.999219 
z
" style="fill:#fc8d62;stroke:#fc8d62;stroke-linejoin:miter;"/>
   </g>
   <g id="patch_67">
    <path clip-path="url(#pa00d441277)" d="M 302.867988 110.046251 
L 319.945063 110.046251 
L 319.945063 92.969177 
L 302.867988 92.969177 
z
" style="fill:#fc8d62;stroke:#fc8d62;stroke-linejoin:miter;"/>
   </g>
   <g id="patch_68">
    <path clip-path="url(#pa00d441277)" d="M 302.867988 89.553762 
L 319.945063 89.553762 
L 319.945063 72.476687 
L 302.867988 72.476687 
z
" style="fill:#fc8d62;stroke:#fc8d62;stroke-linejoin:miter;"/>
   </g>
   <g id="patch_69">
    <path clip-path="url(#pa00d441277)" d="M 302.867988 69.061272 
L 319.945063 69.061272 
L 319.945063 51.984198 
L 302.867988 51.984198 
z
" style="fill:#fc8d62;stroke:#fc8d62;stroke-linejoin:miter;"/>
   </g>
   <g id="patch_70">
    <path clip-path="url(#pa00d441277)" d="M 302.867988 48.568783 
L 319.945063 48.568783 
L 319.945063 31.491708 
L 302.867988 31.491708 
z
" style="fill:#fc8d62;stroke:#fc8d62;stroke-linejoin:miter;"/>
   </g>
   <g id="patch_71">
    <path clip-path="url(#pa00d441277)" d="M 302.867988 28.076293 
L 319.945063 28.076293 
L 319.945063 10.999219 
L 302.867988 10.999219 
z
" style="fill:#fc8d62;stroke:#fc8d62;stroke-linejoin:miter;"/>
   </g>
   <g id="patch_72">
    <path clip-path="url(#pa00d441277)" d="M 323.360478 110.046251 
L 340.437553 110.046251 
L 340.437553 92.969177 
L 323.360478 92.969177 
z
" style="fill:#fc8d62;stroke:#fc8d62;stroke-linejoin:miter;"/>
   </g>
   <g id="patch_73">
    <path clip-path="url(#pa00d441277)" d="M 323.360478 89.553762 
L 340.437553 89.553762 
L 340.437553 72.476687 
L 323.360478 72.476687 
z
" style="fill:#fc8d62;stroke:#fc8d62;stroke-linejoin:miter;"/>
   </g>
   <g id="patch_74">
    <path clip-path="url(#pa00d441277)" d="M 323.360478 69.061272 
L 340.437553 69.061272 
L 340.437553 51.984198 
L 323.360478 51.984198 
z
" style="fill:#fc8d62;stroke:#fc8d62;stroke-linejoin:miter;"/>
   </g>
   <g id="patch_75">
    <path clip-path="url(#pa00d441277)" d="M 323.360478 48.568783 
L 340.437553 48.568783 
L 340.437553 31.491708 
L 323.360478 31.491708 
z
" style="fill:#fc8d62;stroke:#fc8d62;stroke-linejoin:miter;"/>
   </g>
   <g id="patch_76">
    <path clip-path="url(#pa00d441277)" d="M 323.360478 28.076293 
L 340.437553 28.076293 
L 340.437553 10.999219 
L 323.360478 10.999219 
z
" style="fill:#fc8d62;stroke:#fc8d62;stroke-linejoin:miter;"/>
   </g>
   <g id="patch_77">
    <path clip-path="url(#pa00d441277)" d="M 343.852967 110.046251 
L 360.930042 110.046251 
L 360.930042 92.969177 
L 343.852967 92.969177 
z
" style="fill:#fc8d62;stroke:#fc8d62;stroke-linejoin:miter;"/>
   </g>
   <g id="patch_78">
    <path clip-path="url(#pa00d441277)" d="M 343.852967 89.553762 
L 360.930042 89.553762 
L 360.930042 72.476687 
L 343.852967 72.476687 
z
" style="fill:#fc8d62;stroke:#fc8d62;stroke-linejoin:miter;"/>
   </g>
   <g id="patch_79">
    <path clip-path="url(#pa00d441277)" d="M 343.852967 69.061272 
L 360.930042 69.061272 
L 360.930042 51.984198 
L 343.852967 51.984198 
z
" style="fill:#fc8d62;stroke:#fc8d62;stroke-linejoin:miter;"/>
   </g>
   <g id="patch_80">
    <path clip-path="url(#pa00d441277)" d="M 343.852967 48.568783 
L 360.930042 48.568783 
L 360.930042 31.491708 
L 343.852967 31.491708 
z
" style="fill:#fc8d62;stroke:#fc8d62;stroke-linejoin:miter;"/>
   </g>
   <g id="patch_81">
    <path clip-path="url(#pa00d441277)" d="M 343.852967 28.076293 
L 360.930042 28.076293 
L 360.930042 10.999219 
L 343.852967 10.999219 
z
" style="fill:#fc8d62;stroke:#fc8d62;stroke-linejoin:miter;"/>
   </g>
   <g id="patch_82">
    <path clip-path="url(#pa00d441277)" d="M 364.345457 110.046251 
L 381.422532 110.046251 
L 381.422532 92.969177 
L 364.345457 92.969177 
z
" style="fill:#fc8d62;stroke:#fc8d62;stroke-linejoin:miter;"/>
   </g>
   <g id="patch_83">
    <path clip-path="url(#pa00d441277)" d="M 364.345457 89.553762 
L 381.422532 89.553762 
L 381.422532 72.476687 
L 364.345457 72.476687 
z
" style="fill:#fc8d62;stroke:#fc8d62;stroke-linejoin:miter;"/>
   </g>
   <g id="patch_84">
    <path clip-path="url(#pa00d441277)" d="M 364.345457 69.061272 
L 381.422532 69.061272 
L 381.422532 51.984198 
L 364.345457 51.984198 
z
" style="fill:#fc8d62;stroke:#fc8d62;stroke-linejoin:miter;"/>
   </g>
   <g id="patch_85">
    <path clip-path="url(#pa00d441277)" d="M 364.345457 48.568783 
L 381.422532 48.568783 
L 381.422532 31.491708 
L 364.345457 31.491708 
z
" style="fill:#fc8d62;stroke:#fc8d62;stroke-linejoin:miter;"/>
   </g>
   <g id="patch_86">
    <path clip-path="url(#pa00d441277)" d="M 364.345457 28.076293 
L 381.422532 28.076293 
L 381.422532 10.999219 
L 364.345457 10.999219 
z
" style="fill:#fc8d62;stroke:#fc8d62;stroke-linejoin:miter;"/>
   </g>
   <g id="patch_87">
    <path clip-path="url(#pa00d441277)" d="M 384.837946 110.046251 
L 401.915021 110.046251 
L 401.915021 92.969177 
L 384.837946 92.969177 
z
" style="fill:#fc8d62;stroke:#fc8d62;stroke-linejoin:miter;"/>
   </g>
   <g id="patch_88">
    <path clip-path="url(#pa00d441277)" d="M 384.837946 89.553762 
L 401.915021 89.553762 
L 401.915021 72.476687 
L 384.837946 72.476687 
z
" style="fill:#fc8d62;stroke:#fc8d62;stroke-linejoin:miter;"/>
   </g>
   <g id="patch_89">
    <path clip-path="url(#pa00d441277)" d="M 384.837946 69.061272 
L 401.915021 69.061272 
L 401.915021 51.984198 
L 384.837946 51.984198 
z
" style="fill:#fc8d62;stroke:#fc8d62;stroke-linejoin:miter;"/>
   </g>
   <g id="patch_90">
    <path clip-path="url(#pa00d441277)" d="M 384.837946 48.568783 
L 401.915021 48.568783 
L 401.915021 31.491708 
L 384.837946 31.491708 
z
" style="fill:#fc8d62;stroke:#fc8d62;stroke-linejoin:miter;"/>
   </g>
   <g id="patch_91">
    <path clip-path="url(#pa00d441277)" d="M 384.837946 28.076293 
L 401.915021 28.076293 
L 401.915021 10.999219 
L 384.837946 10.999219 
z
" style="fill:#fc8d62;stroke:#fc8d62;stroke-linejoin:miter;"/>
   </g>
   <g id="patch_92">
    <path clip-path="url(#pa00d441277)" d="M 405.330436 110.046251 
L 422.407511 110.046251 
L 422.407511 92.969177 
L 405.330436 92.969177 
z
" style="fill:#fc8d62;stroke:#fc8d62;stroke-linejoin:miter;"/>
   </g>
   <g id="patch_93">
    <path clip-path="url(#pa00d441277)" d="M 405.330436 89.553762 
L 422.407511 89.553762 
L 422.407511 72.476687 
L 405.330436 72.476687 
z
" style="fill:#fc8d62;stroke:#fc8d62;stroke-linejoin:miter;"/>
   </g>
   <g id="patch_94">
    <path clip-path="url(#pa00d441277)" d="M 405.330436 69.061272 
L 422.407511 69.061272 
L 422.407511 51.984198 
L 405.330436 51.984198 
z
" style="fill:#fc8d62;stroke:#fc8d62;stroke-linejoin:miter;"/>
   </g>
   <g id="patch_95">
    <path clip-path="url(#pa00d441277)" d="M 405.330436 48.568783 
L 422.407511 48.568783 
L 422.407511 31.491708 
L 405.330436 31.491708 
z
" style="fill:#fc8d62;stroke:#fc8d62;stroke-linejoin:miter;"/>
   </g>
   <g id="patch_96">
    <path clip-path="url(#pa00d441277)" d="M 405.330436 28.076293 
L 422.407511 28.076293 
L 422.407511 10.999219 
L 405.330436 10.999219 
z
" style="fill:#8da0cb;stroke:#8da0cb;stroke-linejoin:miter;"/>
   </g>
   <g id="patch_97">
    <path clip-path="url(#pa00d441277)" d="M 425.822925 110.046251 
L 442.9 110.046251 
L 442.9 92.969177 
L 425.822925 92.969177 
z
" style="fill:#8da0cb;stroke:#8da0cb;stroke-linejoin:miter;"/>
   </g>
   <g id="patch_98">
    <path clip-path="url(#pa00d441277)" d="M 425.822925 89.553762 
L 442.9 89.553762 
L 442.9 72.476687 
L 425.822925 72.476687 
z
" style="fill:#8da0cb;stroke:#8da0cb;stroke-linejoin:miter;"/>
   </g>
   <g id="legend_1">
    <g id="patch_99">
     <path d="M 490.543438 63.033594 
L 580.190313 63.033594 
Q 582.190313 63.033594 582.190313 61.033594 
L 582.190313 17.999219 
Q 582.190313 15.999219 580.190313 15.999219 
L 490.543438 15.999219 
Q 488.543438 15.999219 488.543438 17.999219 
L 488.543438 61.033594 
Q 488.543438 63.033594 490.543438 63.033594 
z
" style="fill:#ffffff;opacity:0.8;stroke:#cccccc;stroke-linejoin:miter;"/>
    </g>
    <g id="patch_100">
     <path d="M 492.543438 27.597656 
L 512.543437 27.597656 
L 512.543437 20.597656 
L 492.543438 20.597656 
z
" style="fill:#66c2a5;stroke:#66c2a5;stroke-linejoin:miter;"/>
    </g>
    <g id="text_1">
     <!-- Democratic -->
     <defs>
      <path d="M 19.671875 64.796875 
L 19.671875 8.109375 
L 31.59375 8.109375 
Q 46.6875 8.109375 53.6875 14.9375 
Q 60.6875 21.78125 60.6875 36.53125 
Q 60.6875 51.171875 53.6875 57.984375 
Q 46.6875 64.796875 31.59375 64.796875 
z
M 9.8125 72.90625 
L 30.078125 72.90625 
Q 51.265625 72.90625 61.171875 64.09375 
Q 71.09375 55.28125 71.09375 36.53125 
Q 71.09375 17.671875 61.125 8.828125 
Q 51.171875 0 30.078125 0 
L 9.8125 0 
z
" id="DejaVuSans-44"/>
      <path d="M 56.203125 29.59375 
L 56.203125 25.203125 
L 14.890625 25.203125 
Q 15.484375 15.921875 20.484375 11.0625 
Q 25.484375 6.203125 34.421875 6.203125 
Q 39.59375 6.203125 44.453125 7.46875 
Q 49.3125 8.734375 54.109375 11.28125 
L 54.109375 2.78125 
Q 49.265625 0.734375 44.1875 -0.34375 
Q 39.109375 -1.421875 33.890625 -1.421875 
Q 20.796875 -1.421875 13.15625 6.1875 
Q 5.515625 13.8125 5.515625 26.8125 
Q 5.515625 40.234375 12.765625 48.109375 
Q 20.015625 56 32.328125 56 
Q 43.359375 56 49.78125 48.890625 
Q 56.203125 41.796875 56.203125 29.59375 
z
M 47.21875 32.234375 
Q 47.125 39.59375 43.09375 43.984375 
Q 39.0625 48.390625 32.421875 48.390625 
Q 24.90625 48.390625 20.390625 44.140625 
Q 15.875 39.890625 15.1875 32.171875 
z
" id="DejaVuSans-65"/>
      <path d="M 52 44.1875 
Q 55.375 50.25 60.0625 53.125 
Q 64.75 56 71.09375 56 
Q 79.640625 56 84.28125 50.015625 
Q 88.921875 44.046875 88.921875 33.015625 
L 88.921875 0 
L 79.890625 0 
L 79.890625 32.71875 
Q 79.890625 40.578125 77.09375 44.375 
Q 74.3125 48.1875 68.609375 48.1875 
Q 61.625 48.1875 57.5625 43.546875 
Q 53.515625 38.921875 53.515625 30.90625 
L 53.515625 0 
L 44.484375 0 
L 44.484375 32.71875 
Q 44.484375 40.625 41.703125 44.40625 
Q 38.921875 48.1875 33.109375 48.1875 
Q 26.21875 48.1875 22.15625 43.53125 
Q 18.109375 38.875 18.109375 30.90625 
L 18.109375 0 
L 9.078125 0 
L 9.078125 54.6875 
L 18.109375 54.6875 
L 18.109375 46.1875 
Q 21.1875 51.21875 25.484375 53.609375 
Q 29.78125 56 35.6875 56 
Q 41.65625 56 45.828125 52.96875 
Q 50 49.953125 52 44.1875 
z
" id="DejaVuSans-6d"/>
      <path d="M 30.609375 48.390625 
Q 23.390625 48.390625 19.1875 42.75 
Q 14.984375 37.109375 14.984375 27.296875 
Q 14.984375 17.484375 19.15625 11.84375 
Q 23.34375 6.203125 30.609375 6.203125 
Q 37.796875 6.203125 41.984375 11.859375 
Q 46.1875 17.53125 46.1875 27.296875 
Q 46.1875 37.015625 41.984375 42.703125 
Q 37.796875 48.390625 30.609375 48.390625 
z
M 30.609375 56 
Q 42.328125 56 49.015625 48.375 
Q 55.71875 40.765625 55.71875 27.296875 
Q 55.71875 13.875 49.015625 6.21875 
Q 42.328125 -1.421875 30.609375 -1.421875 
Q 18.84375 -1.421875 12.171875 6.21875 
Q 5.515625 13.875 5.515625 27.296875 
Q 5.515625 40.765625 12.171875 48.375 
Q 18.84375 56 30.609375 56 
z
" id="DejaVuSans-6f"/>
      <path d="M 48.78125 52.59375 
L 48.78125 44.1875 
Q 44.96875 46.296875 41.140625 47.34375 
Q 37.3125 48.390625 33.40625 48.390625 
Q 24.65625 48.390625 19.8125 42.84375 
Q 14.984375 37.3125 14.984375 27.296875 
Q 14.984375 17.28125 19.8125 11.734375 
Q 24.65625 6.203125 33.40625 6.203125 
Q 37.3125 6.203125 41.140625 7.25 
Q 44.96875 8.296875 48.78125 10.40625 
L 48.78125 2.09375 
Q 45.015625 0.34375 40.984375 -0.53125 
Q 36.96875 -1.421875 32.421875 -1.421875 
Q 20.0625 -1.421875 12.78125 6.34375 
Q 5.515625 14.109375 5.515625 27.296875 
Q 5.515625 40.671875 12.859375 48.328125 
Q 20.21875 56 33.015625 56 
Q 37.15625 56 41.109375 55.140625 
Q 45.0625 54.296875 48.78125 52.59375 
z
" id="DejaVuSans-63"/>
      <path d="M 41.109375 46.296875 
Q 39.59375 47.171875 37.8125 47.578125 
Q 36.03125 48 33.890625 48 
Q 26.265625 48 22.1875 43.046875 
Q 18.109375 38.09375 18.109375 28.8125 
L 18.109375 0 
L 9.078125 0 
L 9.078125 54.6875 
L 18.109375 54.6875 
L 18.109375 46.1875 
Q 20.953125 51.171875 25.484375 53.578125 
Q 30.03125 56 36.53125 56 
Q 37.453125 56 38.578125 55.875 
Q 39.703125 55.765625 41.0625 55.515625 
z
" id="DejaVuSans-72"/>
      <path d="M 34.28125 27.484375 
Q 23.390625 27.484375 19.1875 25 
Q 14.984375 22.515625 14.984375 16.5 
Q 14.984375 11.71875 18.140625 8.90625 
Q 21.296875 6.109375 26.703125 6.109375 
Q 34.1875 6.109375 38.703125 11.40625 
Q 43.21875 16.703125 43.21875 25.484375 
L 43.21875 27.484375 
z
M 52.203125 31.203125 
L 52.203125 0 
L 43.21875 0 
L 43.21875 8.296875 
Q 40.140625 3.328125 35.546875 0.953125 
Q 30.953125 -1.421875 24.3125 -1.421875 
Q 15.921875 -1.421875 10.953125 3.296875 
Q 6 8.015625 6 15.921875 
Q 6 25.140625 12.171875 29.828125 
Q 18.359375 34.515625 30.609375 34.515625 
L 43.21875 34.515625 
L 43.21875 35.40625 
Q 43.21875 41.609375 39.140625 45 
Q 35.0625 48.390625 27.6875 48.390625 
Q 23 48.390625 18.546875 47.265625 
Q 14.109375 46.140625 10.015625 43.890625 
L 10.015625 52.203125 
Q 14.9375 54.109375 19.578125 55.046875 
Q 24.21875 56 28.609375 56 
Q 40.484375 56 46.34375 49.84375 
Q 52.203125 43.703125 52.203125 31.203125 
z
" id="DejaVuSans-61"/>
      <path d="M 18.3125 70.21875 
L 18.3125 54.6875 
L 36.8125 54.6875 
L 36.8125 47.703125 
L 18.3125 47.703125 
L 18.3125 18.015625 
Q 18.3125 11.328125 20.140625 9.421875 
Q 21.96875 7.515625 27.59375 7.515625 
L 36.8125 7.515625 
L 36.8125 0 
L 27.59375 0 
Q 17.1875 0 13.234375 3.875 
Q 9.28125 7.765625 9.28125 18.015625 
L 9.28125 47.703125 
L 2.6875 47.703125 
L 2.6875 54.6875 
L 9.28125 54.6875 
L 9.28125 70.21875 
z
" id="DejaVuSans-74"/>
      <path d="M 9.421875 54.6875 
L 18.40625 54.6875 
L 18.40625 0 
L 9.421875 0 
z
M 9.421875 75.984375 
L 18.40625 75.984375 
L 18.40625 64.59375 
L 9.421875 64.59375 
z
" id="DejaVuSans-69"/>
     </defs>
     <g transform="translate(520.543437 27.597656)scale(0.1 -0.1)">
      <use xlink:href="#DejaVuSans-44"/>
      <use x="77.001953" xlink:href="#DejaVuSans-65"/>
      <use x="138.525391" xlink:href="#DejaVuSans-6d"/>
      <use x="235.9375" xlink:href="#DejaVuSans-6f"/>
      <use x="297.119141" xlink:href="#DejaVuSans-63"/>
      <use x="352.099609" xlink:href="#DejaVuSans-72"/>
      <use x="393.212891" xlink:href="#DejaVuSans-61"/>
      <use x="454.492188" xlink:href="#DejaVuSans-74"/>
      <use x="493.701172" xlink:href="#DejaVuSans-69"/>
      <use x="521.484375" xlink:href="#DejaVuSans-63"/>
     </g>
    </g>
    <g id="patch_101">
     <path d="M 492.543438 42.275781 
L 512.543437 42.275781 
L 512.543437 35.275781 
L 492.543438 35.275781 
z
" style="fill:#fc8d62;stroke:#fc8d62;stroke-linejoin:miter;"/>
    </g>
    <g id="text_2">
     <!-- Republican -->
     <defs>
      <path d="M 44.390625 34.1875 
Q 47.5625 33.109375 50.5625 29.59375 
Q 53.5625 26.078125 56.59375 19.921875 
L 66.609375 0 
L 56 0 
L 46.6875 18.703125 
Q 43.0625 26.03125 39.671875 28.421875 
Q 36.28125 30.8125 30.421875 30.8125 
L 19.671875 30.8125 
L 19.671875 0 
L 9.8125 0 
L 9.8125 72.90625 
L 32.078125 72.90625 
Q 44.578125 72.90625 50.734375 67.671875 
Q 56.890625 62.453125 56.890625 51.90625 
Q 56.890625 45.015625 53.6875 40.46875 
Q 50.484375 35.9375 44.390625 34.1875 
z
M 19.671875 64.796875 
L 19.671875 38.921875 
L 32.078125 38.921875 
Q 39.203125 38.921875 42.84375 42.21875 
Q 46.484375 45.515625 46.484375 51.90625 
Q 46.484375 58.296875 42.84375 61.546875 
Q 39.203125 64.796875 32.078125 64.796875 
z
" id="DejaVuSans-52"/>
      <path d="M 18.109375 8.203125 
L 18.109375 -20.796875 
L 9.078125 -20.796875 
L 9.078125 54.6875 
L 18.109375 54.6875 
L 18.109375 46.390625 
Q 20.953125 51.265625 25.265625 53.625 
Q 29.59375 56 35.59375 56 
Q 45.5625 56 51.78125 48.09375 
Q 58.015625 40.1875 58.015625 27.296875 
Q 58.015625 14.40625 51.78125 6.484375 
Q 45.5625 -1.421875 35.59375 -1.421875 
Q 29.59375 -1.421875 25.265625 0.953125 
Q 20.953125 3.328125 18.109375 8.203125 
z
M 48.6875 27.296875 
Q 48.6875 37.203125 44.609375 42.84375 
Q 40.53125 48.484375 33.40625 48.484375 
Q 26.265625 48.484375 22.1875 42.84375 
Q 18.109375 37.203125 18.109375 27.296875 
Q 18.109375 17.390625 22.1875 11.75 
Q 26.265625 6.109375 33.40625 6.109375 
Q 40.53125 6.109375 44.609375 11.75 
Q 48.6875 17.390625 48.6875 27.296875 
z
" id="DejaVuSans-70"/>
      <path d="M 8.5 21.578125 
L 8.5 54.6875 
L 17.484375 54.6875 
L 17.484375 21.921875 
Q 17.484375 14.15625 20.5 10.265625 
Q 23.53125 6.390625 29.59375 6.390625 
Q 36.859375 6.390625 41.078125 11.03125 
Q 45.3125 15.671875 45.3125 23.6875 
L 45.3125 54.6875 
L 54.296875 54.6875 
L 54.296875 0 
L 45.3125 0 
L 45.3125 8.40625 
Q 42.046875 3.421875 37.71875 1 
Q 33.40625 -1.421875 27.6875 -1.421875 
Q 18.265625 -1.421875 13.375 4.4375 
Q 8.5 10.296875 8.5 21.578125 
z
M 31.109375 56 
z
" id="DejaVuSans-75"/>
      <path d="M 48.6875 27.296875 
Q 48.6875 37.203125 44.609375 42.84375 
Q 40.53125 48.484375 33.40625 48.484375 
Q 26.265625 48.484375 22.1875 42.84375 
Q 18.109375 37.203125 18.109375 27.296875 
Q 18.109375 17.390625 22.1875 11.75 
Q 26.265625 6.109375 33.40625 6.109375 
Q 40.53125 6.109375 44.609375 11.75 
Q 48.6875 17.390625 48.6875 27.296875 
z
M 18.109375 46.390625 
Q 20.953125 51.265625 25.265625 53.625 
Q 29.59375 56 35.59375 56 
Q 45.5625 56 51.78125 48.09375 
Q 58.015625 40.1875 58.015625 27.296875 
Q 58.015625 14.40625 51.78125 6.484375 
Q 45.5625 -1.421875 35.59375 -1.421875 
Q 29.59375 -1.421875 25.265625 0.953125 
Q 20.953125 3.328125 18.109375 8.203125 
L 18.109375 0 
L 9.078125 0 
L 9.078125 75.984375 
L 18.109375 75.984375 
z
" id="DejaVuSans-62"/>
      <path d="M 9.421875 75.984375 
L 18.40625 75.984375 
L 18.40625 0 
L 9.421875 0 
z
" id="DejaVuSans-6c"/>
      <path d="M 54.890625 33.015625 
L 54.890625 0 
L 45.90625 0 
L 45.90625 32.71875 
Q 45.90625 40.484375 42.875 44.328125 
Q 39.84375 48.1875 33.796875 48.1875 
Q 26.515625 48.1875 22.3125 43.546875 
Q 18.109375 38.921875 18.109375 30.90625 
L 18.109375 0 
L 9.078125 0 
L 9.078125 54.6875 
L 18.109375 54.6875 
L 18.109375 46.1875 
Q 21.34375 51.125 25.703125 53.5625 
Q 30.078125 56 35.796875 56 
Q 45.21875 56 50.046875 50.171875 
Q 54.890625 44.34375 54.890625 33.015625 
z
" id="DejaVuSans-6e"/>
     </defs>
     <g transform="translate(520.543437 42.275781)scale(0.1 -0.1)">
      <use xlink:href="#DejaVuSans-52"/>
      <use x="69.419922" xlink:href="#DejaVuSans-65"/>
      <use x="130.943359" xlink:href="#DejaVuSans-70"/>
      <use x="194.419922" xlink:href="#DejaVuSans-75"/>
      <use x="257.798828" xlink:href="#DejaVuSans-62"/>
      <use x="321.275391" xlink:href="#DejaVuSans-6c"/>
      <use x="349.058594" xlink:href="#DejaVuSans-69"/>
      <use x="376.841797" xlink:href="#DejaVuSans-63"/>
      <use x="431.822266" xlink:href="#DejaVuSans-61"/>
      <use x="493.101562" xlink:href="#DejaVuSans-6e"/>
     </g>
    </g>
    <g id="patch_102">
     <path d="M 492.543438 56.953906 
L 512.543437 56.953906 
L 512.543437 49.953906 
L 492.543438 49.953906 
z
" style="fill:#8da0cb;stroke:#8da0cb;stroke-linejoin:miter;"/>
    </g>
    <g id="text_3">
     <!-- Libertarian -->
     <defs>
      <path d="M 9.8125 72.90625 
L 19.671875 72.90625 
L 19.671875 8.296875 
L 55.171875 8.296875 
L 55.171875 0 
L 9.8125 0 
z
" id="DejaVuSans-4c"/>
     </defs>
     <g transform="translate(520.543437 56.953906)scale(0.1 -0.1)">
      <use xlink:href="#DejaVuSans-4c"/>
      <use x="55.712891" xlink:href="#DejaVuSans-69"/>
      <use x="83.496094" xlink:href="#DejaVuSans-62"/>
      <use x="146.972656" xlink:href="#DejaVuSans-65"/>
      <use x="208.496094" xlink:href="#DejaVuSans-72"/>
      <use x="249.609375" xlink:href="#DejaVuSans-74"/>
      <use x="288.818359" xlink:href="#DejaVuSans-61"/>
      <use x="350.097656" xlink:href="#DejaVuSans-72"/>
      <use x="391.210938" xlink:href="#DejaVuSans-69"/>
      <use x="418.994141" xlink:href="#DejaVuSans-61"/>
      <use x="480.273438" xlink:href="#DejaVuSans-6e"/>
     </g>
    </g>
   </g>
  </g>
 </g>
 <defs>
  <clipPath id="pa00d441277">
   <rect height="99.047033" width="406.434375" x="36.465625" y="10.999219"/>
  </clipPath>
 </defs>
</svg>
