<?xml version="1.0" encoding="utf-8" standalone="no"?>
<!DOCTYPE svg PUBLIC "-//W3C//DTD SVG 1.1//EN"
  "http://www.w3.org/Graphics/SVG/1.1/DTD/svg11.dtd">
<!-- Created with matplotlib (http://matplotlib.org/) -->
<svg height="237.000926pt" version="1.1" viewBox="0 0 452.683103 237.000926" width="452.683103pt" xmlns="http://www.w3.org/2000/svg" xmlns:xlink="http://www.w3.org/1999/xlink">
 <defs>
  <style type="text/css">
*{stroke-linecap:butt;stroke-linejoin:round;}
  </style>
 </defs>
 <g id="figure_1">
  <g id="patch_1">
   <path d="M 0 237.000926 
L 452.683103 237.000926 
L 452.683103 0 
L 0 0 
z
" style="fill:#ffffff;"/>
  </g>
  <g id="axes_1">
   <g id="patch_2">
    <path clip-path="url(#p89110e033f)" d="M 30.103125 213.122801 
L 64.952019 213.122801 
L 64.952019 178.273908 
L 30.103125 178.273908 
z
" style="fill:#66c2a5;stroke:#66c2a5;stroke-linejoin:miter;"/>
   </g>
   <g id="patch_3">
    <path clip-path="url(#p89110e033f)" d="M 30.103125 171.304129 
L 64.952019 171.304129 
L 64.952019 136.455236 
L 30.103125 136.455236 
z
" style="fill:#66c2a5;stroke:#66c2a5;stroke-linejoin:miter;"/>
   </g>
   <g id="patch_4">
    <path clip-path="url(#p89110e033f)" d="M 30.103125 129.485457 
L 64.952019 129.485457 
L 64.952019 94.636563 
L 30.103125 94.636563 
z
" style="fill:#66c2a5;stroke:#66c2a5;stroke-linejoin:miter;"/>
   </g>
   <g id="patch_5">
    <path clip-path="url(#p89110e033f)" d="M 30.103125 87.666785 
L 64.952019 87.666785 
L 64.952019 52.817891 
L 30.103125 52.817891 
z
" style="fill:#66c2a5;stroke:#66c2a5;stroke-linejoin:miter;"/>
   </g>
   <g id="patch_6">
    <path clip-path="url(#p89110e033f)" d="M 30.103125 45.848112 
L 64.952019 45.848112 
L 64.952019 10.999219 
L 30.103125 10.999219 
z
" style="fill:#66c2a5;stroke:#66c2a5;stroke-linejoin:miter;"/>
   </g>
   <g id="patch_7">
    <path clip-path="url(#p89110e033f)" d="M 71.921797 213.122801 
L 106.770691 213.122801 
L 106.770691 178.273908 
L 71.921797 178.273908 
z
" style="fill:#66c2a5;stroke:#66c2a5;stroke-linejoin:miter;"/>
   </g>
   <g id="patch_8">
    <path clip-path="url(#p89110e033f)" d="M 71.921797 171.304129 
L 106.770691 171.304129 
L 106.770691 136.455236 
L 71.921797 136.455236 
z
" style="fill:#66c2a5;stroke:#66c2a5;stroke-linejoin:miter;"/>
   </g>
   <g id="patch_9">
    <path clip-path="url(#p89110e033f)" d="M 71.921797 129.485457 
L 106.770691 129.485457 
L 106.770691 94.636563 
L 71.921797 94.636563 
z
" style="fill:#66c2a5;stroke:#66c2a5;stroke-linejoin:miter;"/>
   </g>
   <g id="patch_10">
    <path clip-path="url(#p89110e033f)" d="M 71.921797 87.666785 
L 106.770691 87.666785 
L 106.770691 52.817891 
L 71.921797 52.817891 
z
" style="fill:#66c2a5;stroke:#66c2a5;stroke-linejoin:miter;"/>
   </g>
   <g id="patch_11">
    <path clip-path="url(#p89110e033f)" d="M 71.921797 45.848112 
L 106.770691 45.848112 
L 106.770691 10.999219 
L 71.921797 10.999219 
z
" style="fill:#66c2a5;stroke:#66c2a5;stroke-linejoin:miter;"/>
   </g>
   <g id="patch_12">
    <path clip-path="url(#p89110e033f)" d="M 113.74047 213.122801 
L 148.589363 213.122801 
L 148.589363 178.273908 
L 113.74047 178.273908 
z
" style="fill:#66c2a5;stroke:#66c2a5;stroke-linejoin:miter;"/>
   </g>
   <g id="patch_13">
    <path clip-path="url(#p89110e033f)" d="M 113.74047 171.304129 
L 148.589363 171.304129 
L 148.589363 136.455236 
L 113.74047 136.455236 
z
" style="fill:#66c2a5;stroke:#66c2a5;stroke-linejoin:miter;"/>
   </g>
   <g id="patch_14">
    <path clip-path="url(#p89110e033f)" d="M 113.74047 129.485457 
L 148.589363 129.485457 
L 148.589363 94.636563 
L 113.74047 94.636563 
z
" style="fill:#66c2a5;stroke:#66c2a5;stroke-linejoin:miter;"/>
   </g>
   <g id="patch_15">
    <path clip-path="url(#p89110e033f)" d="M 113.74047 87.666785 
L 148.589363 87.666785 
L 148.589363 52.817891 
L 113.74047 52.817891 
z
" style="fill:#66c2a5;stroke:#66c2a5;stroke-linejoin:miter;"/>
   </g>
   <g id="patch_16">
    <path clip-path="url(#p89110e033f)" d="M 113.74047 45.848112 
L 148.589363 45.848112 
L 148.589363 10.999219 
L 113.74047 10.999219 
z
" style="fill:#66c2a5;stroke:#66c2a5;stroke-linejoin:miter;"/>
   </g>
   <g id="patch_17">
    <path clip-path="url(#p89110e033f)" d="M 155.559142 213.122801 
L 190.408035 213.122801 
L 190.408035 178.273908 
L 155.559142 178.273908 
z
" style="fill:#66c2a5;stroke:#66c2a5;stroke-linejoin:miter;"/>
   </g>
   <g id="patch_18">
    <path clip-path="url(#p89110e033f)" d="M 155.559142 171.304129 
L 190.408035 171.304129 
L 190.408035 136.455236 
L 155.559142 136.455236 
z
" style="fill:#66c2a5;stroke:#66c2a5;stroke-linejoin:miter;"/>
   </g>
   <g id="patch_19">
    <path clip-path="url(#p89110e033f)" d="M 155.559142 129.485457 
L 190.408035 129.485457 
L 190.408035 94.636563 
L 155.559142 94.636563 
z
" style="fill:#66c2a5;stroke:#66c2a5;stroke-linejoin:miter;"/>
   </g>
   <g id="patch_20">
    <path clip-path="url(#p89110e033f)" d="M 155.559142 87.666785 
L 190.408035 87.666785 
L 190.408035 52.817891 
L 155.559142 52.817891 
z
" style="fill:#66c2a5;stroke:#66c2a5;stroke-linejoin:miter;"/>
   </g>
   <g id="patch_21">
    <path clip-path="url(#p89110e033f)" d="M 155.559142 45.848112 
L 190.408035 45.848112 
L 190.408035 10.999219 
L 155.559142 10.999219 
z
" style="fill:#66c2a5;stroke:#66c2a5;stroke-linejoin:miter;"/>
   </g>
   <g id="patch_22">
    <path clip-path="url(#p89110e033f)" d="M 197.377814 213.122801 
L 232.226708 213.122801 
L 232.226708 178.273908 
L 197.377814 178.273908 
z
" style="fill:#66c2a5;stroke:#66c2a5;stroke-linejoin:miter;"/>
   </g>
   <g id="patch_23">
    <path clip-path="url(#p89110e033f)" d="M 197.377814 171.304129 
L 232.226708 171.304129 
L 232.226708 136.455236 
L 197.377814 136.455236 
z
" style="fill:#66c2a5;stroke:#66c2a5;stroke-linejoin:miter;"/>
   </g>
   <g id="patch_24">
    <path clip-path="url(#p89110e033f)" d="M 197.377814 129.485457 
L 232.226708 129.485457 
L 232.226708 94.636563 
L 197.377814 94.636563 
z
" style="fill:#66c2a5;stroke:#66c2a5;stroke-linejoin:miter;"/>
   </g>
   <g id="patch_25">
    <path clip-path="url(#p89110e033f)" d="M 197.377814 87.666785 
L 232.226708 87.666785 
L 232.226708 52.817891 
L 197.377814 52.817891 
z
" style="fill:#66c2a5;stroke:#66c2a5;stroke-linejoin:miter;"/>
   </g>
   <g id="patch_26">
    <path clip-path="url(#p89110e033f)" d="M 197.377814 45.848112 
L 232.226708 45.848112 
L 232.226708 10.999219 
L 197.377814 10.999219 
z
" style="fill:#66c2a5;stroke:#66c2a5;stroke-linejoin:miter;"/>
   </g>
   <g id="patch_27">
    <path clip-path="url(#p89110e033f)" d="M 239.196486 213.122801 
L 274.04538 213.122801 
L 274.04538 178.273908 
L 239.196486 178.273908 
z
" style="fill:#fc8d62;stroke:#fc8d62;stroke-linejoin:miter;"/>
   </g>
   <g id="patch_28">
    <path clip-path="url(#p89110e033f)" d="M 239.196486 171.304129 
L 274.04538 171.304129 
L 274.04538 136.455236 
L 239.196486 136.455236 
z
" style="fill:#fc8d62;stroke:#fc8d62;stroke-linejoin:miter;"/>
   </g>
   <g id="patch_29">
    <path clip-path="url(#p89110e033f)" d="M 239.196486 129.485457 
L 274.04538 129.485457 
L 274.04538 94.636563 
L 239.196486 94.636563 
z
" style="fill:#fc8d62;stroke:#fc8d62;stroke-linejoin:miter;"/>
   </g>
   <g id="patch_30">
    <path clip-path="url(#p89110e033f)" d="M 239.196486 87.666785 
L 274.04538 87.666785 
L 274.04538 52.817891 
L 239.196486 52.817891 
z
" style="fill:#fc8d62;stroke:#fc8d62;stroke-linejoin:miter;"/>
   </g>
   <g id="patch_31">
    <path clip-path="url(#p89110e033f)" d="M 239.196486 45.848112 
L 274.04538 45.848112 
L 274.04538 10.999219 
L 239.196486 10.999219 
z
" style="fill:#fc8d62;stroke:#fc8d62;stroke-linejoin:miter;"/>
   </g>
   <g id="patch_32">
    <path clip-path="url(#p89110e033f)" d="M 281.015159 213.122801 
L 315.864052 213.122801 
L 315.864052 178.273908 
L 281.015159 178.273908 
z
" style="fill:#fc8d62;stroke:#fc8d62;stroke-linejoin:miter;"/>
   </g>
   <g id="patch_33">
    <path clip-path="url(#p89110e033f)" d="M 281.015159 171.304129 
L 315.864052 171.304129 
L 315.864052 136.455236 
L 281.015159 136.455236 
z
" style="fill:#fc8d62;stroke:#fc8d62;stroke-linejoin:miter;"/>
   </g>
   <g id="patch_34">
    <path clip-path="url(#p89110e033f)" d="M 281.015159 129.485457 
L 315.864052 129.485457 
L 315.864052 94.636563 
L 281.015159 94.636563 
z
" style="fill:#fc8d62;stroke:#fc8d62;stroke-linejoin:miter;"/>
   </g>
   <g id="patch_35">
    <path clip-path="url(#p89110e033f)" d="M 281.015159 87.666785 
L 315.864052 87.666785 
L 315.864052 52.817891 
L 281.015159 52.817891 
z
" style="fill:#fc8d62;stroke:#fc8d62;stroke-linejoin:miter;"/>
   </g>
   <g id="patch_36">
    <path clip-path="url(#p89110e033f)" d="M 281.015159 45.848112 
L 315.864052 45.848112 
L 315.864052 10.999219 
L 281.015159 10.999219 
z
" style="fill:#fc8d62;stroke:#fc8d62;stroke-linejoin:miter;"/>
   </g>
   <g id="patch_37">
    <path clip-path="url(#p89110e033f)" d="M 322.833831 213.122801 
L 357.682724 213.122801 
L 357.682724 178.273908 
L 322.833831 178.273908 
z
" style="fill:#fc8d62;stroke:#fc8d62;stroke-linejoin:miter;"/>
   </g>
   <g id="patch_38">
    <path clip-path="url(#p89110e033f)" d="M 322.833831 171.304129 
L 357.682724 171.304129 
L 357.682724 136.455236 
L 322.833831 136.455236 
z
" style="fill:#fc8d62;stroke:#fc8d62;stroke-linejoin:miter;"/>
   </g>
   <g id="patch_39">
    <path clip-path="url(#p89110e033f)" d="M 322.833831 129.485457 
L 357.682724 129.485457 
L 357.682724 94.636563 
L 322.833831 94.636563 
z
" style="fill:#fc8d62;stroke:#fc8d62;stroke-linejoin:miter;"/>
   </g>
   <g id="patch_40">
    <path clip-path="url(#p89110e033f)" d="M 322.833831 87.666785 
L 357.682724 87.666785 
L 357.682724 52.817891 
L 322.833831 52.817891 
z
" style="fill:#fc8d62;stroke:#fc8d62;stroke-linejoin:miter;"/>
   </g>
   <g id="patch_41">
    <path clip-path="url(#p89110e033f)" d="M 322.833831 45.848112 
L 357.682724 45.848112 
L 357.682724 10.999219 
L 322.833831 10.999219 
z
" style="fill:#fc8d62;stroke:#fc8d62;stroke-linejoin:miter;"/>
   </g>
   <g id="patch_42">
    <path clip-path="url(#p89110e033f)" d="M 364.652503 213.122801 
L 399.501397 213.122801 
L 399.501397 178.273908 
L 364.652503 178.273908 
z
" style="fill:#fc8d62;stroke:#fc8d62;stroke-linejoin:miter;"/>
   </g>
   <g id="patch_43">
    <path clip-path="url(#p89110e033f)" d="M 364.652503 171.304129 
L 399.501397 171.304129 
L 399.501397 136.455236 
L 364.652503 136.455236 
z
" style="fill:#fc8d62;stroke:#fc8d62;stroke-linejoin:miter;"/>
   </g>
   <g id="patch_44">
    <path clip-path="url(#p89110e033f)" d="M 364.652503 129.485457 
L 399.501397 129.485457 
L 399.501397 94.636563 
L 364.652503 94.636563 
z
" style="fill:#fc8d62;stroke:#fc8d62;stroke-linejoin:miter;"/>
   </g>
   <g id="patch_45">
    <path clip-path="url(#p89110e033f)" d="M 364.652503 87.666785 
L 399.501397 87.666785 
L 399.501397 52.817891 
L 364.652503 52.817891 
z
" style="fill:#fc8d62;stroke:#fc8d62;stroke-linejoin:miter;"/>
   </g>
   <g id="patch_46">
    <path clip-path="url(#p89110e033f)" d="M 364.652503 45.848112 
L 399.501397 45.848112 
L 399.501397 10.999219 
L 364.652503 10.999219 
z
" style="fill:#fc8d62;stroke:#fc8d62;stroke-linejoin:miter;"/>
   </g>
   <g id="patch_47">
    <path clip-path="url(#p89110e033f)" d="M 406.471175 213.122801 
L 441.320069 213.122801 
L 441.320069 178.273908 
L 406.471175 178.273908 
z
" style="fill:#fc8d62;stroke:#fc8d62;stroke-linejoin:miter;"/>
   </g>
   <g id="patch_48">
    <path clip-path="url(#p89110e033f)" d="M 406.471175 171.304129 
L 441.320069 171.304129 
L 441.320069 136.455236 
L 406.471175 136.455236 
z
" style="fill:#fc8d62;stroke:#fc8d62;stroke-linejoin:miter;"/>
   </g>
   <g id="patch_49">
    <path clip-path="url(#p89110e033f)" d="M 406.471175 129.485457 
L 441.320069 129.485457 
L 441.320069 94.636563 
L 406.471175 94.636563 
z
" style="fill:#fc8d62;stroke:#fc8d62;stroke-linejoin:miter;"/>
   </g>
   <g id="patch_50">
    <path clip-path="url(#p89110e033f)" d="M 406.471175 87.666785 
L 441.320069 87.666785 
L 441.320069 52.817891 
L 406.471175 52.817891 
z
" style="fill:#fc8d62;stroke:#fc8d62;stroke-linejoin:miter;"/>
   </g>
   <g id="patch_51">
    <path clip-path="url(#p89110e033f)" d="M 406.471175 45.848112 
L 441.320069 45.848112 
L 441.320069 10.999219 
L 406.471175 10.999219 
z
" style="fill:#8da0cb;stroke:#8da0cb;stroke-linejoin:miter;"/>
   </g>
  </g>
 </g>
 <defs>
  <clipPath id="p89110e033f">
   <rect height="202.123583" width="411.216944" x="30.103125" y="10.999219"/>
  </clipPath>
 </defs>
</svg>
