<?xml version="1.0" encoding="utf-8" standalone="no"?>
<!DOCTYPE svg PUBLIC "-//W3C//DTD SVG 1.1//EN"
  "http://www.w3.org/Graphics/SVG/1.1/DTD/svg11.dtd">
<!-- Created with matplotlib (http://matplotlib.org/) -->
<svg height="110.737323pt" version="1.1" viewBox="0 0 447.2375 110.737323" width="447.2375pt" xmlns="http://www.w3.org/2000/svg" xmlns:xlink="http://www.w3.org/1999/xlink">
 <defs>
  <style type="text/css">
*{stroke-linecap:butt;stroke-linejoin:round;}
  </style>
 </defs>
 <g id="figure_1">
  <g id="patch_1">
   <path d="M 0 110.737323 
L 447.2375 110.737323 
L 447.2375 -0 
L 0 -0 
z
" style="fill:#ffffff;"/>
  </g>
  <g id="axes_1">
   <g id="text_1">
    <!--  -->
    <defs>
     <path d="M 66.296875 55.140625 
C 68.359375 57.25 68.359375 60.609375 66.296875 62.71875 
C 64.171875 64.78125 60.828125 64.78125 58.703125 62.71875 
L 45.984375 50 
L 25.453125 50 
L 12.71875 62.71875 
C 10.609375 64.78125 7.25 64.78125 5.140625 62.71875 
C 3.0625 60.609375 3.0625 57.25 5.140625 55.140625 
L 21.421875 38.84375 
L 21.421875 -7.140625 
C 21.421875 -10.609375 24.21875 -13.390625 27.671875 -13.390625 
C 31.140625 -13.390625 33.921875 -10.609375 33.921875 -7.140625 
L 33.921875 14.28125 
L 37.5 14.28125 
L 37.5 -7.140625 
C 37.5 -10.609375 40.296875 -13.390625 43.75 -13.390625 
C 47.203125 -13.390625 50 -10.609375 50 -7.140625 
L 50 38.84375 
z
M 48.21875 64.28125 
C 48.21875 71.203125 42.640625 76.78125 35.71875 76.78125 
C 28.796875 76.78125 23.21875 71.203125 23.21875 64.28125 
C 23.21875 57.359375 28.796875 51.78125 35.71875 51.78125 
C 42.640625 51.78125 48.21875 57.359375 48.21875 64.28125 
z
" id="FontAwesome-f1ae"/>
    </defs>
    <g style="fill:#232066;" transform="translate(30.103125 86.859198)scale(0.18 -0.18)">
     <use xlink:href="#FontAwesome-f1ae"/>
    </g>
   </g>
   <g id="text_2">
    <!--  -->
    <g style="fill:#232066;" transform="translate(30.103125 71.16403)scale(0.18 -0.18)">
     <use xlink:href="#FontAwesome-f1ae"/>
    </g>
   </g>
   <g id="text_3">
    <!--  -->
    <g style="fill:#232066;" transform="translate(30.103125 55.468862)scale(0.18 -0.18)">
     <use xlink:href="#FontAwesome-f1ae"/>
    </g>
   </g>
   <g id="text_4">
    <!--  -->
    <g style="fill:#232066;" transform="translate(30.103125 39.773694)scale(0.18 -0.18)">
     <use xlink:href="#FontAwesome-f1ae"/>
    </g>
   </g>
   <g id="text_5">
    <!--  -->
    <g style="fill:#232066;" transform="translate(30.103125 24.078525)scale(0.18 -0.18)">
     <use xlink:href="#FontAwesome-f1ae"/>
    </g>
   </g>
   <g id="text_6">
    <!--  -->
    <g style="fill:#232066;" transform="translate(45.798293 86.859198)scale(0.18 -0.18)">
     <use xlink:href="#FontAwesome-f1ae"/>
    </g>
   </g>
   <g id="text_7">
    <!--  -->
    <g style="fill:#232066;" transform="translate(45.798293 71.16403)scale(0.18 -0.18)">
     <use xlink:href="#FontAwesome-f1ae"/>
    </g>
   </g>
   <g id="text_8">
    <!--  -->
    <g style="fill:#232066;" transform="translate(45.798293 55.468862)scale(0.18 -0.18)">
     <use xlink:href="#FontAwesome-f1ae"/>
    </g>
   </g>
   <g id="text_9">
    <!--  -->
    <g style="fill:#232066;" transform="translate(45.798293 39.773694)scale(0.18 -0.18)">
     <use xlink:href="#FontAwesome-f1ae"/>
    </g>
   </g>
   <g id="text_10">
    <!--  -->
    <g style="fill:#232066;" transform="translate(45.798293 24.078525)scale(0.18 -0.18)">
     <use xlink:href="#FontAwesome-f1ae"/>
    </g>
   </g>
   <g id="text_11">
    <!--  -->
    <g style="fill:#232066;" transform="translate(61.493461 86.859198)scale(0.18 -0.18)">
     <use xlink:href="#FontAwesome-f1ae"/>
    </g>
   </g>
   <g id="text_12">
    <!--  -->
    <g style="fill:#232066;" transform="translate(61.493461 71.16403)scale(0.18 -0.18)">
     <use xlink:href="#FontAwesome-f1ae"/>
    </g>
   </g>
   <g id="text_13">
    <!--  -->
    <g style="fill:#232066;" transform="translate(61.493461 55.468862)scale(0.18 -0.18)">
     <use xlink:href="#FontAwesome-f1ae"/>
    </g>
   </g>
   <g id="text_14">
    <!--  -->
    <g style="fill:#232066;" transform="translate(61.493461 39.773694)scale(0.18 -0.18)">
     <use xlink:href="#FontAwesome-f1ae"/>
    </g>
   </g>
   <g id="text_15">
    <!--  -->
    <g style="fill:#232066;" transform="translate(61.493461 24.078525)scale(0.18 -0.18)">
     <use xlink:href="#FontAwesome-f1ae"/>
    </g>
   </g>
   <g id="text_16">
    <!--  -->
    <g style="fill:#232066;" transform="translate(77.188629 86.859198)scale(0.18 -0.18)">
     <use xlink:href="#FontAwesome-f1ae"/>
    </g>
   </g>
   <g id="text_17">
    <!--  -->
    <g style="fill:#232066;" transform="translate(77.188629 71.16403)scale(0.18 -0.18)">
     <use xlink:href="#FontAwesome-f1ae"/>
    </g>
   </g>
   <g id="text_18">
    <!--  -->
    <g style="fill:#232066;" transform="translate(77.188629 55.468862)scale(0.18 -0.18)">
     <use xlink:href="#FontAwesome-f1ae"/>
    </g>
   </g>
   <g id="text_19">
    <!--  -->
    <g style="fill:#232066;" transform="translate(77.188629 39.773694)scale(0.18 -0.18)">
     <use xlink:href="#FontAwesome-f1ae"/>
    </g>
   </g>
   <g id="text_20">
    <!--  -->
    <g style="fill:#232066;" transform="translate(77.188629 24.078525)scale(0.18 -0.18)">
     <use xlink:href="#FontAwesome-f1ae"/>
    </g>
   </g>
   <g id="text_21">
    <!--  -->
    <g style="fill:#232066;" transform="translate(92.883797 86.859198)scale(0.18 -0.18)">
     <use xlink:href="#FontAwesome-f1ae"/>
    </g>
   </g>
   <g id="text_22">
    <!--  -->
    <g style="fill:#232066;" transform="translate(92.883797 71.16403)scale(0.18 -0.18)">
     <use xlink:href="#FontAwesome-f1ae"/>
    </g>
   </g>
   <g id="text_23">
    <!--  -->
    <g style="fill:#232066;" transform="translate(92.883797 55.468862)scale(0.18 -0.18)">
     <use xlink:href="#FontAwesome-f1ae"/>
    </g>
   </g>
   <g id="text_24">
    <!--  -->
    <g style="fill:#232066;" transform="translate(92.883797 39.773694)scale(0.18 -0.18)">
     <use xlink:href="#FontAwesome-f1ae"/>
    </g>
   </g>
   <g id="text_25">
    <!--  -->
    <g style="fill:#232066;" transform="translate(92.883797 24.078525)scale(0.18 -0.18)">
     <use xlink:href="#FontAwesome-f1ae"/>
    </g>
   </g>
   <g id="text_26">
    <!--  -->
    <g style="fill:#232066;" transform="translate(108.578965 86.859198)scale(0.18 -0.18)">
     <use xlink:href="#FontAwesome-f1ae"/>
    </g>
   </g>
   <g id="text_27">
    <!--  -->
    <g style="fill:#232066;" transform="translate(108.578965 71.16403)scale(0.18 -0.18)">
     <use xlink:href="#FontAwesome-f1ae"/>
    </g>
   </g>
   <g id="text_28">
    <!--  -->
    <g style="fill:#232066;" transform="translate(108.578965 55.468862)scale(0.18 -0.18)">
     <use xlink:href="#FontAwesome-f1ae"/>
    </g>
   </g>
   <g id="text_29">
    <!--  -->
    <g style="fill:#232066;" transform="translate(108.578965 39.773694)scale(0.18 -0.18)">
     <use xlink:href="#FontAwesome-f1ae"/>
    </g>
   </g>
   <g id="text_30">
    <!--  -->
    <g style="fill:#232066;" transform="translate(108.578965 24.078525)scale(0.18 -0.18)">
     <use xlink:href="#FontAwesome-f1ae"/>
    </g>
   </g>
   <g id="text_31">
    <!--  -->
    <g style="fill:#232066;" transform="translate(124.274133 86.859198)scale(0.18 -0.18)">
     <use xlink:href="#FontAwesome-f1ae"/>
    </g>
   </g>
   <g id="text_32">
    <!--  -->
    <g style="fill:#232066;" transform="translate(124.274133 71.16403)scale(0.18 -0.18)">
     <use xlink:href="#FontAwesome-f1ae"/>
    </g>
   </g>
   <g id="text_33">
    <!--  -->
    <g style="fill:#232066;" transform="translate(124.274133 55.468862)scale(0.18 -0.18)">
     <use xlink:href="#FontAwesome-f1ae"/>
    </g>
   </g>
   <g id="text_34">
    <!--  -->
    <g style="fill:#232066;" transform="translate(124.274133 39.773694)scale(0.18 -0.18)">
     <use xlink:href="#FontAwesome-f1ae"/>
    </g>
   </g>
   <g id="text_35">
    <!--  -->
    <g style="fill:#232066;" transform="translate(124.274133 24.078525)scale(0.18 -0.18)">
     <use xlink:href="#FontAwesome-f1ae"/>
    </g>
   </g>
   <g id="text_36">
    <!--  -->
    <g style="fill:#232066;" transform="translate(139.969301 86.859198)scale(0.18 -0.18)">
     <use xlink:href="#FontAwesome-f1ae"/>
    </g>
   </g>
   <g id="text_37">
    <!--  -->
    <g style="fill:#232066;" transform="translate(139.969301 71.16403)scale(0.18 -0.18)">
     <use xlink:href="#FontAwesome-f1ae"/>
    </g>
   </g>
   <g id="text_38">
    <!--  -->
    <g style="fill:#232066;" transform="translate(139.969301 55.468862)scale(0.18 -0.18)">
     <use xlink:href="#FontAwesome-f1ae"/>
    </g>
   </g>
   <g id="text_39">
    <!--  -->
    <g style="fill:#232066;" transform="translate(139.969301 39.773694)scale(0.18 -0.18)">
     <use xlink:href="#FontAwesome-f1ae"/>
    </g>
   </g>
   <g id="text_40">
    <!--  -->
    <g style="fill:#232066;" transform="translate(139.969301 24.078525)scale(0.18 -0.18)">
     <use xlink:href="#FontAwesome-f1ae"/>
    </g>
   </g>
   <g id="text_41">
    <!--  -->
    <g style="fill:#232066;" transform="translate(155.66447 86.859198)scale(0.18 -0.18)">
     <use xlink:href="#FontAwesome-f1ae"/>
    </g>
   </g>
   <g id="text_42">
    <!--  -->
    <g style="fill:#232066;" transform="translate(155.66447 71.16403)scale(0.18 -0.18)">
     <use xlink:href="#FontAwesome-f1ae"/>
    </g>
   </g>
   <g id="text_43">
    <!--  -->
    <g style="fill:#232066;" transform="translate(155.66447 55.468862)scale(0.18 -0.18)">
     <use xlink:href="#FontAwesome-f1ae"/>
    </g>
   </g>
   <g id="text_44">
    <!--  -->
    <g style="fill:#232066;" transform="translate(155.66447 39.773694)scale(0.18 -0.18)">
     <use xlink:href="#FontAwesome-f1ae"/>
    </g>
   </g>
   <g id="text_45">
    <!--  -->
    <g style="fill:#232066;" transform="translate(155.66447 24.078525)scale(0.18 -0.18)">
     <use xlink:href="#FontAwesome-f1ae"/>
    </g>
   </g>
   <g id="text_46">
    <!--  -->
    <g style="fill:#232066;" transform="translate(171.359638 86.859198)scale(0.18 -0.18)">
     <use xlink:href="#FontAwesome-f1ae"/>
    </g>
   </g>
   <g id="text_47">
    <!--  -->
    <g style="fill:#232066;" transform="translate(171.359638 71.16403)scale(0.18 -0.18)">
     <use xlink:href="#FontAwesome-f1ae"/>
    </g>
   </g>
   <g id="text_48">
    <!--  -->
    <g style="fill:#232066;" transform="translate(171.359638 55.468862)scale(0.18 -0.18)">
     <use xlink:href="#FontAwesome-f1ae"/>
    </g>
   </g>
   <g id="text_49">
    <!--  -->
    <g style="fill:#983d3d;" transform="translate(171.359638 39.773694)scale(0.18 -0.18)">
     <use xlink:href="#FontAwesome-f1ae"/>
    </g>
   </g>
   <g id="text_50">
    <!--  -->
    <g style="fill:#983d3d;" transform="translate(171.359638 24.078525)scale(0.18 -0.18)">
     <use xlink:href="#FontAwesome-f1ae"/>
    </g>
   </g>
   <g id="text_51">
    <!--  -->
    <g style="fill:#983d3d;" transform="translate(187.054806 86.859198)scale(0.18 -0.18)">
     <use xlink:href="#FontAwesome-f1ae"/>
    </g>
   </g>
   <g id="text_52">
    <!--  -->
    <g style="fill:#983d3d;" transform="translate(187.054806 71.16403)scale(0.18 -0.18)">
     <use xlink:href="#FontAwesome-f1ae"/>
    </g>
   </g>
   <g id="text_53">
    <!--  -->
    <g style="fill:#983d3d;" transform="translate(187.054806 55.468862)scale(0.18 -0.18)">
     <use xlink:href="#FontAwesome-f1ae"/>
    </g>
   </g>
   <g id="text_54">
    <!--  -->
    <g style="fill:#983d3d;" transform="translate(187.054806 39.773694)scale(0.18 -0.18)">
     <use xlink:href="#FontAwesome-f1ae"/>
    </g>
   </g>
   <g id="text_55">
    <!--  -->
    <g style="fill:#983d3d;" transform="translate(187.054806 24.078525)scale(0.18 -0.18)">
     <use xlink:href="#FontAwesome-f1ae"/>
    </g>
   </g>
   <g id="text_56">
    <!--  -->
    <g style="fill:#983d3d;" transform="translate(202.749974 86.859198)scale(0.18 -0.18)">
     <use xlink:href="#FontAwesome-f1ae"/>
    </g>
   </g>
   <g id="text_57">
    <!--  -->
    <g style="fill:#983d3d;" transform="translate(202.749974 71.16403)scale(0.18 -0.18)">
     <use xlink:href="#FontAwesome-f1ae"/>
    </g>
   </g>
   <g id="text_58">
    <!--  -->
    <g style="fill:#983d3d;" transform="translate(202.749974 55.468862)scale(0.18 -0.18)">
     <use xlink:href="#FontAwesome-f1ae"/>
    </g>
   </g>
   <g id="text_59">
    <!--  -->
    <g style="fill:#983d3d;" transform="translate(202.749974 39.773694)scale(0.18 -0.18)">
     <use xlink:href="#FontAwesome-f1ae"/>
    </g>
   </g>
   <g id="text_60">
    <!--  -->
    <g style="fill:#983d3d;" transform="translate(202.749974 24.078525)scale(0.18 -0.18)">
     <use xlink:href="#FontAwesome-f1ae"/>
    </g>
   </g>
   <g id="text_61">
    <!--  -->
    <g style="fill:#983d3d;" transform="translate(218.445142 86.859198)scale(0.18 -0.18)">
     <use xlink:href="#FontAwesome-f1ae"/>
    </g>
   </g>
   <g id="text_62">
    <!--  -->
    <g style="fill:#983d3d;" transform="translate(218.445142 71.16403)scale(0.18 -0.18)">
     <use xlink:href="#FontAwesome-f1ae"/>
    </g>
   </g>
   <g id="text_63">
    <!--  -->
    <g style="fill:#983d3d;" transform="translate(218.445142 55.468862)scale(0.18 -0.18)">
     <use xlink:href="#FontAwesome-f1ae"/>
    </g>
   </g>
   <g id="text_64">
    <!--  -->
    <g style="fill:#983d3d;" transform="translate(218.445142 39.773694)scale(0.18 -0.18)">
     <use xlink:href="#FontAwesome-f1ae"/>
    </g>
   </g>
   <g id="text_65">
    <!--  -->
    <g style="fill:#983d3d;" transform="translate(218.445142 24.078525)scale(0.18 -0.18)">
     <use xlink:href="#FontAwesome-f1ae"/>
    </g>
   </g>
   <g id="text_66">
    <!--  -->
    <g style="fill:#983d3d;" transform="translate(234.14031 86.859198)scale(0.18 -0.18)">
     <use xlink:href="#FontAwesome-f1ae"/>
    </g>
   </g>
   <g id="text_67">
    <!--  -->
    <g style="fill:#983d3d;" transform="translate(234.14031 71.16403)scale(0.18 -0.18)">
     <use xlink:href="#FontAwesome-f1ae"/>
    </g>
   </g>
   <g id="text_68">
    <!--  -->
    <g style="fill:#983d3d;" transform="translate(234.14031 55.468862)scale(0.18 -0.18)">
     <use xlink:href="#FontAwesome-f1ae"/>
    </g>
   </g>
   <g id="text_69">
    <!--  -->
    <g style="fill:#983d3d;" transform="translate(234.14031 39.773694)scale(0.18 -0.18)">
     <use xlink:href="#FontAwesome-f1ae"/>
    </g>
   </g>
   <g id="text_70">
    <!--  -->
    <g style="fill:#983d3d;" transform="translate(234.14031 24.078525)scale(0.18 -0.18)">
     <use xlink:href="#FontAwesome-f1ae"/>
    </g>
   </g>
   <g id="text_71">
    <!--  -->
    <g style="fill:#983d3d;" transform="translate(249.835478 86.859198)scale(0.18 -0.18)">
     <use xlink:href="#FontAwesome-f1ae"/>
    </g>
   </g>
   <g id="text_72">
    <!--  -->
    <g style="fill:#983d3d;" transform="translate(249.835478 71.16403)scale(0.18 -0.18)">
     <use xlink:href="#FontAwesome-f1ae"/>
    </g>
   </g>
   <g id="text_73">
    <!--  -->
    <g style="fill:#983d3d;" transform="translate(249.835478 55.468862)scale(0.18 -0.18)">
     <use xlink:href="#FontAwesome-f1ae"/>
    </g>
   </g>
   <g id="text_74">
    <!--  -->
    <g style="fill:#983d3d;" transform="translate(249.835478 39.773694)scale(0.18 -0.18)">
     <use xlink:href="#FontAwesome-f1ae"/>
    </g>
   </g>
   <g id="text_75">
    <!--  -->
    <g style="fill:#983d3d;" transform="translate(249.835478 24.078525)scale(0.18 -0.18)">
     <use xlink:href="#FontAwesome-f1ae"/>
    </g>
   </g>
   <g id="text_76">
    <!--  -->
    <g style="fill:#983d3d;" transform="translate(265.530646 86.859198)scale(0.18 -0.18)">
     <use xlink:href="#FontAwesome-f1ae"/>
    </g>
   </g>
   <g id="text_77">
    <!--  -->
    <g style="fill:#983d3d;" transform="translate(265.530646 71.16403)scale(0.18 -0.18)">
     <use xlink:href="#FontAwesome-f1ae"/>
    </g>
   </g>
   <g id="text_78">
    <!--  -->
    <g style="fill:#983d3d;" transform="translate(265.530646 55.468862)scale(0.18 -0.18)">
     <use xlink:href="#FontAwesome-f1ae"/>
    </g>
   </g>
   <g id="text_79">
    <!--  -->
    <g style="fill:#983d3d;" transform="translate(265.530646 39.773694)scale(0.18 -0.18)">
     <use xlink:href="#FontAwesome-f1ae"/>
    </g>
   </g>
   <g id="text_80">
    <!--  -->
    <g style="fill:#983d3d;" transform="translate(265.530646 24.078525)scale(0.18 -0.18)">
     <use xlink:href="#FontAwesome-f1ae"/>
    </g>
   </g>
   <g id="text_81">
    <!--  -->
    <g style="fill:#983d3d;" transform="translate(281.225814 86.859198)scale(0.18 -0.18)">
     <use xlink:href="#FontAwesome-f1ae"/>
    </g>
   </g>
   <g id="text_82">
    <!--  -->
    <g style="fill:#983d3d;" transform="translate(281.225814 71.16403)scale(0.18 -0.18)">
     <use xlink:href="#FontAwesome-f1ae"/>
    </g>
   </g>
   <g id="text_83">
    <!--  -->
    <g style="fill:#983d3d;" transform="translate(281.225814 55.468862)scale(0.18 -0.18)">
     <use xlink:href="#FontAwesome-f1ae"/>
    </g>
   </g>
   <g id="text_84">
    <!--  -->
    <g style="fill:#983d3d;" transform="translate(281.225814 39.773694)scale(0.18 -0.18)">
     <use xlink:href="#FontAwesome-f1ae"/>
    </g>
   </g>
   <g id="text_85">
    <!--  -->
    <g style="fill:#983d3d;" transform="translate(281.225814 24.078525)scale(0.18 -0.18)">
     <use xlink:href="#FontAwesome-f1ae"/>
    </g>
   </g>
   <g id="text_86">
    <!--  -->
    <g style="fill:#983d3d;" transform="translate(296.920982 86.859198)scale(0.18 -0.18)">
     <use xlink:href="#FontAwesome-f1ae"/>
    </g>
   </g>
   <g id="text_87">
    <!--  -->
    <g style="fill:#983d3d;" transform="translate(296.920982 71.16403)scale(0.18 -0.18)">
     <use xlink:href="#FontAwesome-f1ae"/>
    </g>
   </g>
   <g id="text_88">
    <!--  -->
    <g style="fill:#983d3d;" transform="translate(296.920982 55.468862)scale(0.18 -0.18)">
     <use xlink:href="#FontAwesome-f1ae"/>
    </g>
   </g>
   <g id="text_89">
    <!--  -->
    <g style="fill:#983d3d;" transform="translate(296.920982 39.773694)scale(0.18 -0.18)">
     <use xlink:href="#FontAwesome-f1ae"/>
    </g>
   </g>
   <g id="text_90">
    <!--  -->
    <g style="fill:#983d3d;" transform="translate(296.920982 24.078525)scale(0.18 -0.18)">
     <use xlink:href="#FontAwesome-f1ae"/>
    </g>
   </g>
   <g id="text_91">
    <!--  -->
    <g style="fill:#983d3d;" transform="translate(312.61615 86.859198)scale(0.18 -0.18)">
     <use xlink:href="#FontAwesome-f1ae"/>
    </g>
   </g>
   <g id="text_92">
    <!--  -->
    <g style="fill:#983d3d;" transform="translate(312.61615 71.16403)scale(0.18 -0.18)">
     <use xlink:href="#FontAwesome-f1ae"/>
    </g>
   </g>
   <g id="text_93">
    <!--  -->
    <g style="fill:#983d3d;" transform="translate(312.61615 55.468862)scale(0.18 -0.18)">
     <use xlink:href="#FontAwesome-f1ae"/>
    </g>
   </g>
   <g id="text_94">
    <!--  -->
    <g style="fill:#983d3d;" transform="translate(312.61615 39.773694)scale(0.18 -0.18)">
     <use xlink:href="#FontAwesome-f1ae"/>
    </g>
   </g>
   <g id="text_95">
    <!--  -->
    <g style="fill:#dcb732;" transform="translate(312.61615 24.078525)scale(0.18 -0.18)">
     <use xlink:href="#FontAwesome-f1ae"/>
    </g>
   </g>
   <g id="text_96">
    <!--  -->
    <g style="fill:#dcb732;" transform="translate(328.311318 86.859198)scale(0.18 -0.18)">
     <use xlink:href="#FontAwesome-f1ae"/>
    </g>
   </g>
   <g id="text_97">
    <!--  -->
    <g style="fill:#dcb732;" transform="translate(328.311318 71.16403)scale(0.18 -0.18)">
     <use xlink:href="#FontAwesome-f1ae"/>
    </g>
   </g>
   <g id="legend_1">
    <g id="patch_2">
     <path d="M 348.390625 63.033594 
L 438.0375 63.033594 
Q 440.0375 63.033594 440.0375 61.033594 
L 440.0375 17.999219 
Q 440.0375 15.999219 438.0375 15.999219 
L 348.390625 15.999219 
Q 346.390625 15.999219 346.390625 17.999219 
L 346.390625 61.033594 
Q 346.390625 63.033594 348.390625 63.033594 
z
" style="fill:#ffffff;opacity:0.8;stroke:#cccccc;stroke-linejoin:miter;"/>
    </g>
    <g id="text_98">
     <!--  -->
     <g style="fill:#232066;" transform="translate(356.819531 27.267188)scale(0.1 -0.1)">
      <use xlink:href="#FontAwesome-f1ae"/>
     </g>
    </g>
    <g id="text_99">
     <!-- Democratic -->
     <defs>
      <path d="M 19.671875 64.796875 
L 19.671875 8.109375 
L 31.59375 8.109375 
Q 46.6875 8.109375 53.6875 14.9375 
Q 60.6875 21.78125 60.6875 36.53125 
Q 60.6875 51.171875 53.6875 57.984375 
Q 46.6875 64.796875 31.59375 64.796875 
z
M 9.8125 72.90625 
L 30.078125 72.90625 
Q 51.265625 72.90625 61.171875 64.09375 
Q 71.09375 55.28125 71.09375 36.53125 
Q 71.09375 17.671875 61.125 8.828125 
Q 51.171875 0 30.078125 0 
L 9.8125 0 
z
" id="DejaVuSans-44"/>
      <path d="M 56.203125 29.59375 
L 56.203125 25.203125 
L 14.890625 25.203125 
Q 15.484375 15.921875 20.484375 11.0625 
Q 25.484375 6.203125 34.421875 6.203125 
Q 39.59375 6.203125 44.453125 7.46875 
Q 49.3125 8.734375 54.109375 11.28125 
L 54.109375 2.78125 
Q 49.265625 0.734375 44.1875 -0.34375 
Q 39.109375 -1.421875 33.890625 -1.421875 
Q 20.796875 -1.421875 13.15625 6.1875 
Q 5.515625 13.8125 5.515625 26.8125 
Q 5.515625 40.234375 12.765625 48.109375 
Q 20.015625 56 32.328125 56 
Q 43.359375 56 49.78125 48.890625 
Q 56.203125 41.796875 56.203125 29.59375 
z
M 47.21875 32.234375 
Q 47.125 39.59375 43.09375 43.984375 
Q 39.0625 48.390625 32.421875 48.390625 
Q 24.90625 48.390625 20.390625 44.140625 
Q 15.875 39.890625 15.1875 32.171875 
z
" id="DejaVuSans-65"/>
      <path d="M 52 44.1875 
Q 55.375 50.25 60.0625 53.125 
Q 64.75 56 71.09375 56 
Q 79.640625 56 84.28125 50.015625 
Q 88.921875 44.046875 88.921875 33.015625 
L 88.921875 0 
L 79.890625 0 
L 79.890625 32.71875 
Q 79.890625 40.578125 77.09375 44.375 
Q 74.3125 48.1875 68.609375 48.1875 
Q 61.625 48.1875 57.5625 43.546875 
Q 53.515625 38.921875 53.515625 30.90625 
L 53.515625 0 
L 44.484375 0 
L 44.484375 32.71875 
Q 44.484375 40.625 41.703125 44.40625 
Q 38.921875 48.1875 33.109375 48.1875 
Q 26.21875 48.1875 22.15625 43.53125 
Q 18.109375 38.875 18.109375 30.90625 
L 18.109375 0 
L 9.078125 0 
L 9.078125 54.6875 
L 18.109375 54.6875 
L 18.109375 46.1875 
Q 21.1875 51.21875 25.484375 53.609375 
Q 29.78125 56 35.6875 56 
Q 41.65625 56 45.828125 52.96875 
Q 50 49.953125 52 44.1875 
z
" id="DejaVuSans-6d"/>
      <path d="M 30.609375 48.390625 
Q 23.390625 48.390625 19.1875 42.75 
Q 14.984375 37.109375 14.984375 27.296875 
Q 14.984375 17.484375 19.15625 11.84375 
Q 23.34375 6.203125 30.609375 6.203125 
Q 37.796875 6.203125 41.984375 11.859375 
Q 46.1875 17.53125 46.1875 27.296875 
Q 46.1875 37.015625 41.984375 42.703125 
Q 37.796875 48.390625 30.609375 48.390625 
z
M 30.609375 56 
Q 42.328125 56 49.015625 48.375 
Q 55.71875 40.765625 55.71875 27.296875 
Q 55.71875 13.875 49.015625 6.21875 
Q 42.328125 -1.421875 30.609375 -1.421875 
Q 18.84375 -1.421875 12.171875 6.21875 
Q 5.515625 13.875 5.515625 27.296875 
Q 5.515625 40.765625 12.171875 48.375 
Q 18.84375 56 30.609375 56 
z
" id="DejaVuSans-6f"/>
      <path d="M 48.78125 52.59375 
L 48.78125 44.1875 
Q 44.96875 46.296875 41.140625 47.34375 
Q 37.3125 48.390625 33.40625 48.390625 
Q 24.65625 48.390625 19.8125 42.84375 
Q 14.984375 37.3125 14.984375 27.296875 
Q 14.984375 17.28125 19.8125 11.734375 
Q 24.65625 6.203125 33.40625 6.203125 
Q 37.3125 6.203125 41.140625 7.25 
Q 44.96875 8.296875 48.78125 10.40625 
L 48.78125 2.09375 
Q 45.015625 0.34375 40.984375 -0.53125 
Q 36.96875 -1.421875 32.421875 -1.421875 
Q 20.0625 -1.421875 12.78125 6.34375 
Q 5.515625 14.109375 5.515625 27.296875 
Q 5.515625 40.671875 12.859375 48.328125 
Q 20.21875 56 33.015625 56 
Q 37.15625 56 41.109375 55.140625 
Q 45.0625 54.296875 48.78125 52.59375 
z
" id="DejaVuSans-63"/>
      <path d="M 41.109375 46.296875 
Q 39.59375 47.171875 37.8125 47.578125 
Q 36.03125 48 33.890625 48 
Q 26.265625 48 22.1875 43.046875 
Q 18.109375 38.09375 18.109375 28.8125 
L 18.109375 0 
L 9.078125 0 
L 9.078125 54.6875 
L 18.109375 54.6875 
L 18.109375 46.1875 
Q 20.953125 51.171875 25.484375 53.578125 
Q 30.03125 56 36.53125 56 
Q 37.453125 56 38.578125 55.875 
Q 39.703125 55.765625 41.0625 55.515625 
z
" id="DejaVuSans-72"/>
      <path d="M 34.28125 27.484375 
Q 23.390625 27.484375 19.1875 25 
Q 14.984375 22.515625 14.984375 16.5 
Q 14.984375 11.71875 18.140625 8.90625 
Q 21.296875 6.109375 26.703125 6.109375 
Q 34.1875 6.109375 38.703125 11.40625 
Q 43.21875 16.703125 43.21875 25.484375 
L 43.21875 27.484375 
z
M 52.203125 31.203125 
L 52.203125 0 
L 43.21875 0 
L 43.21875 8.296875 
Q 40.140625 3.328125 35.546875 0.953125 
Q 30.953125 -1.421875 24.3125 -1.421875 
Q 15.921875 -1.421875 10.953125 3.296875 
Q 6 8.015625 6 15.921875 
Q 6 25.140625 12.171875 29.828125 
Q 18.359375 34.515625 30.609375 34.515625 
L 43.21875 34.515625 
L 43.21875 35.40625 
Q 43.21875 41.609375 39.140625 45 
Q 35.0625 48.390625 27.6875 48.390625 
Q 23 48.390625 18.546875 47.265625 
Q 14.109375 46.140625 10.015625 43.890625 
L 10.015625 52.203125 
Q 14.9375 54.109375 19.578125 55.046875 
Q 24.21875 56 28.609375 56 
Q 40.484375 56 46.34375 49.84375 
Q 52.203125 43.703125 52.203125 31.203125 
z
" id="DejaVuSans-61"/>
      <path d="M 18.3125 70.21875 
L 18.3125 54.6875 
L 36.8125 54.6875 
L 36.8125 47.703125 
L 18.3125 47.703125 
L 18.3125 18.015625 
Q 18.3125 11.328125 20.140625 9.421875 
Q 21.96875 7.515625 27.59375 7.515625 
L 36.8125 7.515625 
L 36.8125 0 
L 27.59375 0 
Q 17.1875 0 13.234375 3.875 
Q 9.28125 7.765625 9.28125 18.015625 
L 9.28125 47.703125 
L 2.6875 47.703125 
L 2.6875 54.6875 
L 9.28125 54.6875 
L 9.28125 70.21875 
z
" id="DejaVuSans-74"/>
      <path d="M 9.421875 54.6875 
L 18.40625 54.6875 
L 18.40625 0 
L 9.421875 0 
z
M 9.421875 75.984375 
L 18.40625 75.984375 
L 18.40625 64.59375 
L 9.421875 64.59375 
z
" id="DejaVuSans-69"/>
     </defs>
     <g transform="translate(378.390625 27.597656)scale(0.1 -0.1)">
      <use xlink:href="#DejaVuSans-44"/>
      <use x="77.001953" xlink:href="#DejaVuSans-65"/>
      <use x="138.525391" xlink:href="#DejaVuSans-6d"/>
      <use x="235.9375" xlink:href="#DejaVuSans-6f"/>
      <use x="297.119141" xlink:href="#DejaVuSans-63"/>
      <use x="352.099609" xlink:href="#DejaVuSans-72"/>
      <use x="393.212891" xlink:href="#DejaVuSans-61"/>
      <use x="454.492188" xlink:href="#DejaVuSans-74"/>
      <use x="493.701172" xlink:href="#DejaVuSans-69"/>
      <use x="521.484375" xlink:href="#DejaVuSans-63"/>
     </g>
    </g>
    <g id="text_100">
     <!--  -->
     <g style="fill:#983d3d;" transform="translate(356.819531 41.945312)scale(0.1 -0.1)">
      <use xlink:href="#FontAwesome-f1ae"/>
     </g>
    </g>
    <g id="text_101">
     <!-- Republican -->
     <defs>
      <path d="M 44.390625 34.1875 
Q 47.5625 33.109375 50.5625 29.59375 
Q 53.5625 26.078125 56.59375 19.921875 
L 66.609375 0 
L 56 0 
L 46.6875 18.703125 
Q 43.0625 26.03125 39.671875 28.421875 
Q 36.28125 30.8125 30.421875 30.8125 
L 19.671875 30.8125 
L 19.671875 0 
L 9.8125 0 
L 9.8125 72.90625 
L 32.078125 72.90625 
Q 44.578125 72.90625 50.734375 67.671875 
Q 56.890625 62.453125 56.890625 51.90625 
Q 56.890625 45.015625 53.6875 40.46875 
Q 50.484375 35.9375 44.390625 34.1875 
z
M 19.671875 64.796875 
L 19.671875 38.921875 
L 32.078125 38.921875 
Q 39.203125 38.921875 42.84375 42.21875 
Q 46.484375 45.515625 46.484375 51.90625 
Q 46.484375 58.296875 42.84375 61.546875 
Q 39.203125 64.796875 32.078125 64.796875 
z
" id="DejaVuSans-52"/>
      <path d="M 18.109375 8.203125 
L 18.109375 -20.796875 
L 9.078125 -20.796875 
L 9.078125 54.6875 
L 18.109375 54.6875 
L 18.109375 46.390625 
Q 20.953125 51.265625 25.265625 53.625 
Q 29.59375 56 35.59375 56 
Q 45.5625 56 51.78125 48.09375 
Q 58.015625 40.1875 58.015625 27.296875 
Q 58.015625 14.40625 51.78125 6.484375 
Q 45.5625 -1.421875 35.59375 -1.421875 
Q 29.59375 -1.421875 25.265625 0.953125 
Q 20.953125 3.328125 18.109375 8.203125 
z
M 48.6875 27.296875 
Q 48.6875 37.203125 44.609375 42.84375 
Q 40.53125 48.484375 33.40625 48.484375 
Q 26.265625 48.484375 22.1875 42.84375 
Q 18.109375 37.203125 18.109375 27.296875 
Q 18.109375 17.390625 22.1875 11.75 
Q 26.265625 6.109375 33.40625 6.109375 
Q 40.53125 6.109375 44.609375 11.75 
Q 48.6875 17.390625 48.6875 27.296875 
z
" id="DejaVuSans-70"/>
      <path d="M 8.5 21.578125 
L 8.5 54.6875 
L 17.484375 54.6875 
L 17.484375 21.921875 
Q 17.484375 14.15625 20.5 10.265625 
Q 23.53125 6.390625 29.59375 6.390625 
Q 36.859375 6.390625 41.078125 11.03125 
Q 45.3125 15.671875 45.3125 23.6875 
L 45.3125 54.6875 
L 54.296875 54.6875 
L 54.296875 0 
L 45.3125 0 
L 45.3125 8.40625 
Q 42.046875 3.421875 37.71875 1 
Q 33.40625 -1.421875 27.6875 -1.421875 
Q 18.265625 -1.421875 13.375 4.4375 
Q 8.5 10.296875 8.5 21.578125 
z
M 31.109375 56 
z
" id="DejaVuSans-75"/>
      <path d="M 48.6875 27.296875 
Q 48.6875 37.203125 44.609375 42.84375 
Q 40.53125 48.484375 33.40625 48.484375 
Q 26.265625 48.484375 22.1875 42.84375 
Q 18.109375 37.203125 18.109375 27.296875 
Q 18.109375 17.390625 22.1875 11.75 
Q 26.265625 6.109375 33.40625 6.109375 
Q 40.53125 6.109375 44.609375 11.75 
Q 48.6875 17.390625 48.6875 27.296875 
z
M 18.109375 46.390625 
Q 20.953125 51.265625 25.265625 53.625 
Q 29.59375 56 35.59375 56 
Q 45.5625 56 51.78125 48.09375 
Q 58.015625 40.1875 58.015625 27.296875 
Q 58.015625 14.40625 51.78125 6.484375 
Q 45.5625 -1.421875 35.59375 -1.421875 
Q 29.59375 -1.421875 25.265625 0.953125 
Q 20.953125 3.328125 18.109375 8.203125 
L 18.109375 0 
L 9.078125 0 
L 9.078125 75.984375 
L 18.109375 75.984375 
z
" id="DejaVuSans-62"/>
      <path d="M 9.421875 75.984375 
L 18.40625 75.984375 
L 18.40625 0 
L 9.421875 0 
z
" id="DejaVuSans-6c"/>
      <path d="M 54.890625 33.015625 
L 54.890625 0 
L 45.90625 0 
L 45.90625 32.71875 
Q 45.90625 40.484375 42.875 44.328125 
Q 39.84375 48.1875 33.796875 48.1875 
Q 26.515625 48.1875 22.3125 43.546875 
Q 18.109375 38.921875 18.109375 30.90625 
L 18.109375 0 
L 9.078125 0 
L 9.078125 54.6875 
L 18.109375 54.6875 
L 18.109375 46.1875 
Q 21.34375 51.125 25.703125 53.5625 
Q 30.078125 56 35.796875 56 
Q 45.21875 56 50.046875 50.171875 
Q 54.890625 44.34375 54.890625 33.015625 
z
" id="DejaVuSans-6e"/>
     </defs>
     <g transform="translate(378.390625 42.275781)scale(0.1 -0.1)">
      <use xlink:href="#DejaVuSans-52"/>
      <use x="69.419922" xlink:href="#DejaVuSans-65"/>
      <use x="130.943359" xlink:href="#DejaVuSans-70"/>
      <use x="194.419922" xlink:href="#DejaVuSans-75"/>
      <use x="257.798828" xlink:href="#DejaVuSans-62"/>
      <use x="321.275391" xlink:href="#DejaVuSans-6c"/>
      <use x="349.058594" xlink:href="#DejaVuSans-69"/>
      <use x="376.841797" xlink:href="#DejaVuSans-63"/>
      <use x="431.822266" xlink:href="#DejaVuSans-61"/>
      <use x="493.101562" xlink:href="#DejaVuSans-6e"/>
     </g>
    </g>
    <g id="text_102">
     <!--  -->
     <g style="fill:#dcb732;" transform="translate(356.819531 56.623438)scale(0.1 -0.1)">
      <use xlink:href="#FontAwesome-f1ae"/>
     </g>
    </g>
    <g id="text_103">
     <!-- Libertarian -->
     <defs>
      <path d="M 9.8125 72.90625 
L 19.671875 72.90625 
L 19.671875 8.296875 
L 55.171875 8.296875 
L 55.171875 0 
L 9.8125 0 
z
" id="DejaVuSans-4c"/>
     </defs>
     <g transform="translate(378.390625 56.953906)scale(0.1 -0.1)">
      <use xlink:href="#DejaVuSans-4c"/>
      <use x="55.712891" xlink:href="#DejaVuSans-69"/>
      <use x="83.496094" xlink:href="#DejaVuSans-62"/>
      <use x="146.972656" xlink:href="#DejaVuSans-65"/>
      <use x="208.496094" xlink:href="#DejaVuSans-72"/>
      <use x="249.609375" xlink:href="#DejaVuSans-74"/>
      <use x="288.818359" xlink:href="#DejaVuSans-61"/>
      <use x="350.097656" xlink:href="#DejaVuSans-72"/>
      <use x="391.210938" xlink:href="#DejaVuSans-69"/>
      <use x="418.994141" xlink:href="#DejaVuSans-61"/>
      <use x="480.273438" xlink:href="#DejaVuSans-6e"/>
     </g>
    </g>
   </g>
  </g>
 </g>
</svg>
