<?xml version="1.0" encoding="utf-8" standalone="no"?>
<!DOCTYPE svg PUBLIC "-//W3C//DTD SVG 1.1//EN"
  "http://www.w3.org/Graphics/SVG/1.1/DTD/svg11.dtd">
<!-- Created with matplotlib (http://matplotlib.org/) -->
<svg height="300pt" version="1.1" viewBox="0 0 630 300" width="630pt" xmlns="http://www.w3.org/2000/svg" xmlns:xlink="http://www.w3.org/1999/xlink">
 <defs>
  <style type="text/css">
*{stroke-linecap:butt;stroke-linejoin:round;}
  </style>
 </defs>
 <g id="figure_1">
  <g id="patch_1">
   <path d="M 0 300.989344 
L 630.844138 300.989344 
L 630.844138 0 
L 0 0 
z
" style="fill:#ffffff;"/>
  </g>
  <g id="axes_1">
   <g id="patch_2">
    <path clip-path="url(#pa4035e86e5)" d="M 30.103125 68.849654 
L 40.077338 68.849654 
L 40.077338 58.875441 
L 30.103125 58.875441 
z
" style="fill:#66c2a5;stroke:#66c2a5;stroke-linejoin:miter;"/>
   </g>
   <g id="patch_3">
    <path clip-path="url(#pa4035e86e5)" d="M 30.103125 56.880598 
L 40.077338 56.880598 
L 40.077338 46.906385 
L 30.103125 46.906385 
z
" style="fill:#66c2a5;stroke:#66c2a5;stroke-linejoin:miter;"/>
   </g>
   <g id="patch_4">
    <path clip-path="url(#pa4035e86e5)" d="M 30.103125 44.911543 
L 40.077338 44.911543 
L 40.077338 34.93733 
L 30.103125 34.93733 
z
" style="fill:#66c2a5;stroke:#66c2a5;stroke-linejoin:miter;"/>
   </g>
   <g id="patch_5">
    <path clip-path="url(#pa4035e86e5)" d="M 30.103125 32.942487 
L 40.077338 32.942487 
L 40.077338 22.968274 
L 30.103125 22.968274 
z
" style="fill:#66c2a5;stroke:#66c2a5;stroke-linejoin:miter;"/>
   </g>
   <g id="patch_6">
    <path clip-path="url(#pa4035e86e5)" d="M 30.103125 20.973432 
L 40.077338 20.973432 
L 40.077338 10.999219 
L 30.103125 10.999219 
z
" style="fill:#66c2a5;stroke:#66c2a5;stroke-linejoin:miter;"/>
   </g>
   <g id="patch_7">
    <path clip-path="url(#pa4035e86e5)" d="M 42.07218 68.849654 
L 52.046393 68.849654 
L 52.046393 58.875441 
L 42.07218 58.875441 
z
" style="fill:#66c2a5;stroke:#66c2a5;stroke-linejoin:miter;"/>
   </g>
   <g id="patch_8">
    <path clip-path="url(#pa4035e86e5)" d="M 42.07218 56.880598 
L 52.046393 56.880598 
L 52.046393 46.906385 
L 42.07218 46.906385 
z
" style="fill:#66c2a5;stroke:#66c2a5;stroke-linejoin:miter;"/>
   </g>
   <g id="patch_9">
    <path clip-path="url(#pa4035e86e5)" d="M 42.07218 44.911543 
L 52.046393 44.911543 
L 52.046393 34.93733 
L 42.07218 34.93733 
z
" style="fill:#66c2a5;stroke:#66c2a5;stroke-linejoin:miter;"/>
   </g>
   <g id="patch_10">
    <path clip-path="url(#pa4035e86e5)" d="M 42.07218 32.942487 
L 52.046393 32.942487 
L 52.046393 22.968274 
L 42.07218 22.968274 
z
" style="fill:#66c2a5;stroke:#66c2a5;stroke-linejoin:miter;"/>
   </g>
   <g id="patch_11">
    <path clip-path="url(#pa4035e86e5)" d="M 42.07218 20.973432 
L 52.046393 20.973432 
L 52.046393 10.999219 
L 42.07218 10.999219 
z
" style="fill:#66c2a5;stroke:#66c2a5;stroke-linejoin:miter;"/>
   </g>
   <g id="patch_12">
    <path clip-path="url(#pa4035e86e5)" d="M 54.041236 68.849654 
L 64.015449 68.849654 
L 64.015449 58.875441 
L 54.041236 58.875441 
z
" style="fill:#66c2a5;stroke:#66c2a5;stroke-linejoin:miter;"/>
   </g>
   <g id="patch_13">
    <path clip-path="url(#pa4035e86e5)" d="M 54.041236 56.880598 
L 64.015449 56.880598 
L 64.015449 46.906385 
L 54.041236 46.906385 
z
" style="fill:#66c2a5;stroke:#66c2a5;stroke-linejoin:miter;"/>
   </g>
   <g id="patch_14">
    <path clip-path="url(#pa4035e86e5)" d="M 54.041236 44.911543 
L 64.015449 44.911543 
L 64.015449 34.93733 
L 54.041236 34.93733 
z
" style="fill:#66c2a5;stroke:#66c2a5;stroke-linejoin:miter;"/>
   </g>
   <g id="patch_15">
    <path clip-path="url(#pa4035e86e5)" d="M 54.041236 32.942487 
L 64.015449 32.942487 
L 64.015449 22.968274 
L 54.041236 22.968274 
z
" style="fill:#66c2a5;stroke:#66c2a5;stroke-linejoin:miter;"/>
   </g>
   <g id="patch_16">
    <path clip-path="url(#pa4035e86e5)" d="M 54.041236 20.973432 
L 64.015449 20.973432 
L 64.015449 10.999219 
L 54.041236 10.999219 
z
" style="fill:#66c2a5;stroke:#66c2a5;stroke-linejoin:miter;"/>
   </g>
   <g id="patch_17">
    <path clip-path="url(#pa4035e86e5)" d="M 66.010291 68.849654 
L 75.984504 68.849654 
L 75.984504 58.875441 
L 66.010291 58.875441 
z
" style="fill:#66c2a5;stroke:#66c2a5;stroke-linejoin:miter;"/>
   </g>
   <g id="patch_18">
    <path clip-path="url(#pa4035e86e5)" d="M 66.010291 56.880598 
L 75.984504 56.880598 
L 75.984504 46.906385 
L 66.010291 46.906385 
z
" style="fill:#66c2a5;stroke:#66c2a5;stroke-linejoin:miter;"/>
   </g>
   <g id="patch_19">
    <path clip-path="url(#pa4035e86e5)" d="M 66.010291 44.911543 
L 75.984504 44.911543 
L 75.984504 34.93733 
L 66.010291 34.93733 
z
" style="fill:#66c2a5;stroke:#66c2a5;stroke-linejoin:miter;"/>
   </g>
   <g id="patch_20">
    <path clip-path="url(#pa4035e86e5)" d="M 66.010291 32.942487 
L 75.984504 32.942487 
L 75.984504 22.968274 
L 66.010291 22.968274 
z
" style="fill:#66c2a5;stroke:#66c2a5;stroke-linejoin:miter;"/>
   </g>
   <g id="patch_21">
    <path clip-path="url(#pa4035e86e5)" d="M 66.010291 20.973432 
L 75.984504 20.973432 
L 75.984504 10.999219 
L 66.010291 10.999219 
z
" style="fill:#66c2a5;stroke:#66c2a5;stroke-linejoin:miter;"/>
   </g>
   <g id="patch_22">
    <path clip-path="url(#pa4035e86e5)" d="M 77.979347 68.849654 
L 87.95356 68.849654 
L 87.95356 58.875441 
L 77.979347 58.875441 
z
" style="fill:#66c2a5;stroke:#66c2a5;stroke-linejoin:miter;"/>
   </g>
   <g id="patch_23">
    <path clip-path="url(#pa4035e86e5)" d="M 77.979347 56.880598 
L 87.95356 56.880598 
L 87.95356 46.906385 
L 77.979347 46.906385 
z
" style="fill:#66c2a5;stroke:#66c2a5;stroke-linejoin:miter;"/>
   </g>
   <g id="patch_24">
    <path clip-path="url(#pa4035e86e5)" d="M 77.979347 44.911543 
L 87.95356 44.911543 
L 87.95356 34.93733 
L 77.979347 34.93733 
z
" style="fill:#66c2a5;stroke:#66c2a5;stroke-linejoin:miter;"/>
   </g>
   <g id="patch_25">
    <path clip-path="url(#pa4035e86e5)" d="M 77.979347 32.942487 
L 87.95356 32.942487 
L 87.95356 22.968274 
L 77.979347 22.968274 
z
" style="fill:#66c2a5;stroke:#66c2a5;stroke-linejoin:miter;"/>
   </g>
   <g id="patch_26">
    <path clip-path="url(#pa4035e86e5)" d="M 77.979347 20.973432 
L 87.95356 20.973432 
L 87.95356 10.999219 
L 77.979347 10.999219 
z
" style="fill:#66c2a5;stroke:#66c2a5;stroke-linejoin:miter;"/>
   </g>
   <g id="patch_27">
    <path clip-path="url(#pa4035e86e5)" d="M 89.948402 68.849654 
L 99.922615 68.849654 
L 99.922615 58.875441 
L 89.948402 58.875441 
z
" style="fill:#66c2a5;stroke:#66c2a5;stroke-linejoin:miter;"/>
   </g>
   <g id="patch_28">
    <path clip-path="url(#pa4035e86e5)" d="M 89.948402 56.880598 
L 99.922615 56.880598 
L 99.922615 46.906385 
L 89.948402 46.906385 
z
" style="fill:#66c2a5;stroke:#66c2a5;stroke-linejoin:miter;"/>
   </g>
   <g id="patch_29">
    <path clip-path="url(#pa4035e86e5)" d="M 89.948402 44.911543 
L 99.922615 44.911543 
L 99.922615 34.93733 
L 89.948402 34.93733 
z
" style="fill:#66c2a5;stroke:#66c2a5;stroke-linejoin:miter;"/>
   </g>
   <g id="patch_30">
    <path clip-path="url(#pa4035e86e5)" d="M 89.948402 32.942487 
L 99.922615 32.942487 
L 99.922615 22.968274 
L 89.948402 22.968274 
z
" style="fill:#66c2a5;stroke:#66c2a5;stroke-linejoin:miter;"/>
   </g>
   <g id="patch_31">
    <path clip-path="url(#pa4035e86e5)" d="M 89.948402 20.973432 
L 99.922615 20.973432 
L 99.922615 10.999219 
L 89.948402 10.999219 
z
" style="fill:#66c2a5;stroke:#66c2a5;stroke-linejoin:miter;"/>
   </g>
   <g id="patch_32">
    <path clip-path="url(#pa4035e86e5)" d="M 101.917458 68.849654 
L 111.891671 68.849654 
L 111.891671 58.875441 
L 101.917458 58.875441 
z
" style="fill:#66c2a5;stroke:#66c2a5;stroke-linejoin:miter;"/>
   </g>
   <g id="patch_33">
    <path clip-path="url(#pa4035e86e5)" d="M 101.917458 56.880598 
L 111.891671 56.880598 
L 111.891671 46.906385 
L 101.917458 46.906385 
z
" style="fill:#66c2a5;stroke:#66c2a5;stroke-linejoin:miter;"/>
   </g>
   <g id="patch_34">
    <path clip-path="url(#pa4035e86e5)" d="M 101.917458 44.911543 
L 111.891671 44.911543 
L 111.891671 34.93733 
L 101.917458 34.93733 
z
" style="fill:#66c2a5;stroke:#66c2a5;stroke-linejoin:miter;"/>
   </g>
   <g id="patch_35">
    <path clip-path="url(#pa4035e86e5)" d="M 101.917458 32.942487 
L 111.891671 32.942487 
L 111.891671 22.968274 
L 101.917458 22.968274 
z
" style="fill:#66c2a5;stroke:#66c2a5;stroke-linejoin:miter;"/>
   </g>
   <g id="patch_36">
    <path clip-path="url(#pa4035e86e5)" d="M 101.917458 20.973432 
L 111.891671 20.973432 
L 111.891671 10.999219 
L 101.917458 10.999219 
z
" style="fill:#66c2a5;stroke:#66c2a5;stroke-linejoin:miter;"/>
   </g>
   <g id="patch_37">
    <path clip-path="url(#pa4035e86e5)" d="M 113.886513 68.849654 
L 123.860726 68.849654 
L 123.860726 58.875441 
L 113.886513 58.875441 
z
" style="fill:#66c2a5;stroke:#66c2a5;stroke-linejoin:miter;"/>
   </g>
   <g id="patch_38">
    <path clip-path="url(#pa4035e86e5)" d="M 113.886513 56.880598 
L 123.860726 56.880598 
L 123.860726 46.906385 
L 113.886513 46.906385 
z
" style="fill:#66c2a5;stroke:#66c2a5;stroke-linejoin:miter;"/>
   </g>
   <g id="patch_39">
    <path clip-path="url(#pa4035e86e5)" d="M 113.886513 44.911543 
L 123.860726 44.911543 
L 123.860726 34.93733 
L 113.886513 34.93733 
z
" style="fill:#66c2a5;stroke:#66c2a5;stroke-linejoin:miter;"/>
   </g>
   <g id="patch_40">
    <path clip-path="url(#pa4035e86e5)" d="M 113.886513 32.942487 
L 123.860726 32.942487 
L 123.860726 22.968274 
L 113.886513 22.968274 
z
" style="fill:#66c2a5;stroke:#66c2a5;stroke-linejoin:miter;"/>
   </g>
   <g id="patch_41">
    <path clip-path="url(#pa4035e86e5)" d="M 113.886513 20.973432 
L 123.860726 20.973432 
L 123.860726 10.999219 
L 113.886513 10.999219 
z
" style="fill:#fc8d62;stroke:#fc8d62;stroke-linejoin:miter;"/>
   </g>
   <g id="patch_42">
    <path clip-path="url(#pa4035e86e5)" d="M 125.855569 68.849654 
L 135.829782 68.849654 
L 135.829782 58.875441 
L 125.855569 58.875441 
z
" style="fill:#fc8d62;stroke:#fc8d62;stroke-linejoin:miter;"/>
   </g>
   <g id="patch_43">
    <path clip-path="url(#pa4035e86e5)" d="M 125.855569 56.880598 
L 135.829782 56.880598 
L 135.829782 46.906385 
L 125.855569 46.906385 
z
" style="fill:#fc8d62;stroke:#fc8d62;stroke-linejoin:miter;"/>
   </g>
   <g id="patch_44">
    <path clip-path="url(#pa4035e86e5)" d="M 125.855569 44.911543 
L 135.829782 44.911543 
L 135.829782 34.93733 
L 125.855569 34.93733 
z
" style="fill:#fc8d62;stroke:#fc8d62;stroke-linejoin:miter;"/>
   </g>
   <g id="legend_1">
    <g id="patch_45">
     <path d="M 248.556438 48.355469 
L 430.139251 48.355469 
Q 432.139251 48.355469 432.139251 46.355469 
L 432.139251 17.999219 
Q 432.139251 15.999219 430.139251 15.999219 
L 248.556438 15.999219 
Q 246.556438 15.999219 246.556438 17.999219 
L 246.556438 46.355469 
Q 246.556438 48.355469 248.556438 48.355469 
z
" style="fill:#ffffff;opacity:0.8;stroke:#cccccc;stroke-linejoin:miter;"/>
    </g>
    <g id="patch_46">
     <path d="M 250.556438 27.597656 
L 270.556438 27.597656 
L 270.556438 20.597656 
L 250.556438 20.597656 
z
" style="fill:#66c2a5;stroke:#66c2a5;stroke-linejoin:miter;"/>
    </g>
    <g id="text_1">
     <!-- High school graduate or more -->
     <defs>
      <path d="M 9.8125 72.90625 
L 19.671875 72.90625 
L 19.671875 43.015625 
L 55.515625 43.015625 
L 55.515625 72.90625 
L 65.375 72.90625 
L 65.375 0 
L 55.515625 0 
L 55.515625 34.71875 
L 19.671875 34.71875 
L 19.671875 0 
L 9.8125 0 
z
" id="DejaVuSans-48"/>
      <path d="M 9.421875 54.6875 
L 18.40625 54.6875 
L 18.40625 0 
L 9.421875 0 
z
M 9.421875 75.984375 
L 18.40625 75.984375 
L 18.40625 64.59375 
L 9.421875 64.59375 
z
" id="DejaVuSans-69"/>
      <path d="M 45.40625 27.984375 
Q 45.40625 37.75 41.375 43.109375 
Q 37.359375 48.484375 30.078125 48.484375 
Q 22.859375 48.484375 18.828125 43.109375 
Q 14.796875 37.75 14.796875 27.984375 
Q 14.796875 18.265625 18.828125 12.890625 
Q 22.859375 7.515625 30.078125 7.515625 
Q 37.359375 7.515625 41.375 12.890625 
Q 45.40625 18.265625 45.40625 27.984375 
z
M 54.390625 6.78125 
Q 54.390625 -7.171875 48.1875 -13.984375 
Q 42 -20.796875 29.203125 -20.796875 
Q 24.46875 -20.796875 20.265625 -20.09375 
Q 16.0625 -19.390625 12.109375 -17.921875 
L 12.109375 -9.1875 
Q 16.0625 -11.328125 19.921875 -12.34375 
Q 23.78125 -13.375 27.78125 -13.375 
Q 36.625 -13.375 41.015625 -8.765625 
Q 45.40625 -4.15625 45.40625 5.171875 
L 45.40625 9.625 
Q 42.625 4.78125 38.28125 2.390625 
Q 33.9375 0 27.875 0 
Q 17.828125 0 11.671875 7.65625 
Q 5.515625 15.328125 5.515625 27.984375 
Q 5.515625 40.671875 11.671875 48.328125 
Q 17.828125 56 27.875 56 
Q 33.9375 56 38.28125 53.609375 
Q 42.625 51.21875 45.40625 46.390625 
L 45.40625 54.6875 
L 54.390625 54.6875 
z
" id="DejaVuSans-67"/>
      <path d="M 54.890625 33.015625 
L 54.890625 0 
L 45.90625 0 
L 45.90625 32.71875 
Q 45.90625 40.484375 42.875 44.328125 
Q 39.84375 48.1875 33.796875 48.1875 
Q 26.515625 48.1875 22.3125 43.546875 
Q 18.109375 38.921875 18.109375 30.90625 
L 18.109375 0 
L 9.078125 0 
L 9.078125 75.984375 
L 18.109375 75.984375 
L 18.109375 46.1875 
Q 21.34375 51.125 25.703125 53.5625 
Q 30.078125 56 35.796875 56 
Q 45.21875 56 50.046875 50.171875 
Q 54.890625 44.34375 54.890625 33.015625 
z
" id="DejaVuSans-68"/>
      <path id="DejaVuSans-20"/>
      <path d="M 44.28125 53.078125 
L 44.28125 44.578125 
Q 40.484375 46.53125 36.375 47.5 
Q 32.28125 48.484375 27.875 48.484375 
Q 21.1875 48.484375 17.84375 46.4375 
Q 14.5 44.390625 14.5 40.28125 
Q 14.5 37.15625 16.890625 35.375 
Q 19.28125 33.59375 26.515625 31.984375 
L 29.59375 31.296875 
Q 39.15625 29.25 43.1875 25.515625 
Q 47.21875 21.78125 47.21875 15.09375 
Q 47.21875 7.46875 41.1875 3.015625 
Q 35.15625 -1.421875 24.609375 -1.421875 
Q 20.21875 -1.421875 15.453125 -0.5625 
Q 10.6875 0.296875 5.421875 2 
L 5.421875 11.28125 
Q 10.40625 8.6875 15.234375 7.390625 
Q 20.0625 6.109375 24.8125 6.109375 
Q 31.15625 6.109375 34.5625 8.28125 
Q 37.984375 10.453125 37.984375 14.40625 
Q 37.984375 18.0625 35.515625 20.015625 
Q 33.0625 21.96875 24.703125 23.78125 
L 21.578125 24.515625 
Q 13.234375 26.265625 9.515625 29.90625 
Q 5.8125 33.546875 5.8125 39.890625 
Q 5.8125 47.609375 11.28125 51.796875 
Q 16.75 56 26.8125 56 
Q 31.78125 56 36.171875 55.265625 
Q 40.578125 54.546875 44.28125 53.078125 
z
" id="DejaVuSans-73"/>
      <path d="M 48.78125 52.59375 
L 48.78125 44.1875 
Q 44.96875 46.296875 41.140625 47.34375 
Q 37.3125 48.390625 33.40625 48.390625 
Q 24.65625 48.390625 19.8125 42.84375 
Q 14.984375 37.3125 14.984375 27.296875 
Q 14.984375 17.28125 19.8125 11.734375 
Q 24.65625 6.203125 33.40625 6.203125 
Q 37.3125 6.203125 41.140625 7.25 
Q 44.96875 8.296875 48.78125 10.40625 
L 48.78125 2.09375 
Q 45.015625 0.34375 40.984375 -0.53125 
Q 36.96875 -1.421875 32.421875 -1.421875 
Q 20.0625 -1.421875 12.78125 6.34375 
Q 5.515625 14.109375 5.515625 27.296875 
Q 5.515625 40.671875 12.859375 48.328125 
Q 20.21875 56 33.015625 56 
Q 37.15625 56 41.109375 55.140625 
Q 45.0625 54.296875 48.78125 52.59375 
z
" id="DejaVuSans-63"/>
      <path d="M 30.609375 48.390625 
Q 23.390625 48.390625 19.1875 42.75 
Q 14.984375 37.109375 14.984375 27.296875 
Q 14.984375 17.484375 19.15625 11.84375 
Q 23.34375 6.203125 30.609375 6.203125 
Q 37.796875 6.203125 41.984375 11.859375 
Q 46.1875 17.53125 46.1875 27.296875 
Q 46.1875 37.015625 41.984375 42.703125 
Q 37.796875 48.390625 30.609375 48.390625 
z
M 30.609375 56 
Q 42.328125 56 49.015625 48.375 
Q 55.71875 40.765625 55.71875 27.296875 
Q 55.71875 13.875 49.015625 6.21875 
Q 42.328125 -1.421875 30.609375 -1.421875 
Q 18.84375 -1.421875 12.171875 6.21875 
Q 5.515625 13.875 5.515625 27.296875 
Q 5.515625 40.765625 12.171875 48.375 
Q 18.84375 56 30.609375 56 
z
" id="DejaVuSans-6f"/>
      <path d="M 9.421875 75.984375 
L 18.40625 75.984375 
L 18.40625 0 
L 9.421875 0 
z
" id="DejaVuSans-6c"/>
      <path d="M 41.109375 46.296875 
Q 39.59375 47.171875 37.8125 47.578125 
Q 36.03125 48 33.890625 48 
Q 26.265625 48 22.1875 43.046875 
Q 18.109375 38.09375 18.109375 28.8125 
L 18.109375 0 
L 9.078125 0 
L 9.078125 54.6875 
L 18.109375 54.6875 
L 18.109375 46.1875 
Q 20.953125 51.171875 25.484375 53.578125 
Q 30.03125 56 36.53125 56 
Q 37.453125 56 38.578125 55.875 
Q 39.703125 55.765625 41.0625 55.515625 
z
" id="DejaVuSans-72"/>
      <path d="M 34.28125 27.484375 
Q 23.390625 27.484375 19.1875 25 
Q 14.984375 22.515625 14.984375 16.5 
Q 14.984375 11.71875 18.140625 8.90625 
Q 21.296875 6.109375 26.703125 6.109375 
Q 34.1875 6.109375 38.703125 11.40625 
Q 43.21875 16.703125 43.21875 25.484375 
L 43.21875 27.484375 
z
M 52.203125 31.203125 
L 52.203125 0 
L 43.21875 0 
L 43.21875 8.296875 
Q 40.140625 3.328125 35.546875 0.953125 
Q 30.953125 -1.421875 24.3125 -1.421875 
Q 15.921875 -1.421875 10.953125 3.296875 
Q 6 8.015625 6 15.921875 
Q 6 25.140625 12.171875 29.828125 
Q 18.359375 34.515625 30.609375 34.515625 
L 43.21875 34.515625 
L 43.21875 35.40625 
Q 43.21875 41.609375 39.140625 45 
Q 35.0625 48.390625 27.6875 48.390625 
Q 23 48.390625 18.546875 47.265625 
Q 14.109375 46.140625 10.015625 43.890625 
L 10.015625 52.203125 
Q 14.9375 54.109375 19.578125 55.046875 
Q 24.21875 56 28.609375 56 
Q 40.484375 56 46.34375 49.84375 
Q 52.203125 43.703125 52.203125 31.203125 
z
" id="DejaVuSans-61"/>
      <path d="M 45.40625 46.390625 
L 45.40625 75.984375 
L 54.390625 75.984375 
L 54.390625 0 
L 45.40625 0 
L 45.40625 8.203125 
Q 42.578125 3.328125 38.25 0.953125 
Q 33.9375 -1.421875 27.875 -1.421875 
Q 17.96875 -1.421875 11.734375 6.484375 
Q 5.515625 14.40625 5.515625 27.296875 
Q 5.515625 40.1875 11.734375 48.09375 
Q 17.96875 56 27.875 56 
Q 33.9375 56 38.25 53.625 
Q 42.578125 51.265625 45.40625 46.390625 
z
M 14.796875 27.296875 
Q 14.796875 17.390625 18.875 11.75 
Q 22.953125 6.109375 30.078125 6.109375 
Q 37.203125 6.109375 41.296875 11.75 
Q 45.40625 17.390625 45.40625 27.296875 
Q 45.40625 37.203125 41.296875 42.84375 
Q 37.203125 48.484375 30.078125 48.484375 
Q 22.953125 48.484375 18.875 42.84375 
Q 14.796875 37.203125 14.796875 27.296875 
z
" id="DejaVuSans-64"/>
      <path d="M 8.5 21.578125 
L 8.5 54.6875 
L 17.484375 54.6875 
L 17.484375 21.921875 
Q 17.484375 14.15625 20.5 10.265625 
Q 23.53125 6.390625 29.59375 6.390625 
Q 36.859375 6.390625 41.078125 11.03125 
Q 45.3125 15.671875 45.3125 23.6875 
L 45.3125 54.6875 
L 54.296875 54.6875 
L 54.296875 0 
L 45.3125 0 
L 45.3125 8.40625 
Q 42.046875 3.421875 37.71875 1 
Q 33.40625 -1.421875 27.6875 -1.421875 
Q 18.265625 -1.421875 13.375 4.4375 
Q 8.5 10.296875 8.5 21.578125 
z
M 31.109375 56 
z
" id="DejaVuSans-75"/>
      <path d="M 18.3125 70.21875 
L 18.3125 54.6875 
L 36.8125 54.6875 
L 36.8125 47.703125 
L 18.3125 47.703125 
L 18.3125 18.015625 
Q 18.3125 11.328125 20.140625 9.421875 
Q 21.96875 7.515625 27.59375 7.515625 
L 36.8125 7.515625 
L 36.8125 0 
L 27.59375 0 
Q 17.1875 0 13.234375 3.875 
Q 9.28125 7.765625 9.28125 18.015625 
L 9.28125 47.703125 
L 2.6875 47.703125 
L 2.6875 54.6875 
L 9.28125 54.6875 
L 9.28125 70.21875 
z
" id="DejaVuSans-74"/>
      <path d="M 56.203125 29.59375 
L 56.203125 25.203125 
L 14.890625 25.203125 
Q 15.484375 15.921875 20.484375 11.0625 
Q 25.484375 6.203125 34.421875 6.203125 
Q 39.59375 6.203125 44.453125 7.46875 
Q 49.3125 8.734375 54.109375 11.28125 
L 54.109375 2.78125 
Q 49.265625 0.734375 44.1875 -0.34375 
Q 39.109375 -1.421875 33.890625 -1.421875 
Q 20.796875 -1.421875 13.15625 6.1875 
Q 5.515625 13.8125 5.515625 26.8125 
Q 5.515625 40.234375 12.765625 48.109375 
Q 20.015625 56 32.328125 56 
Q 43.359375 56 49.78125 48.890625 
Q 56.203125 41.796875 56.203125 29.59375 
z
M 47.21875 32.234375 
Q 47.125 39.59375 43.09375 43.984375 
Q 39.0625 48.390625 32.421875 48.390625 
Q 24.90625 48.390625 20.390625 44.140625 
Q 15.875 39.890625 15.1875 32.171875 
z
" id="DejaVuSans-65"/>
      <path d="M 52 44.1875 
Q 55.375 50.25 60.0625 53.125 
Q 64.75 56 71.09375 56 
Q 79.640625 56 84.28125 50.015625 
Q 88.921875 44.046875 88.921875 33.015625 
L 88.921875 0 
L 79.890625 0 
L 79.890625 32.71875 
Q 79.890625 40.578125 77.09375 44.375 
Q 74.3125 48.1875 68.609375 48.1875 
Q 61.625 48.1875 57.5625 43.546875 
Q 53.515625 38.921875 53.515625 30.90625 
L 53.515625 0 
L 44.484375 0 
L 44.484375 32.71875 
Q 44.484375 40.625 41.703125 44.40625 
Q 38.921875 48.1875 33.109375 48.1875 
Q 26.21875 48.1875 22.15625 43.53125 
Q 18.109375 38.875 18.109375 30.90625 
L 18.109375 0 
L 9.078125 0 
L 9.078125 54.6875 
L 18.109375 54.6875 
L 18.109375 46.1875 
Q 21.1875 51.21875 25.484375 53.609375 
Q 29.78125 56 35.6875 56 
Q 41.65625 56 45.828125 52.96875 
Q 50 49.953125 52 44.1875 
z
" id="DejaVuSans-6d"/>
     </defs>
     <g transform="translate(278.556438 27.597656)scale(0.1 -0.1)">
      <use xlink:href="#DejaVuSans-48"/>
      <use x="75.195312" xlink:href="#DejaVuSans-69"/>
      <use x="102.978516" xlink:href="#DejaVuSans-67"/>
      <use x="166.455078" xlink:href="#DejaVuSans-68"/>
      <use x="229.833984" xlink:href="#DejaVuSans-20"/>
      <use x="261.621094" xlink:href="#DejaVuSans-73"/>
      <use x="313.720703" xlink:href="#DejaVuSans-63"/>
      <use x="368.701172" xlink:href="#DejaVuSans-68"/>
      <use x="432.080078" xlink:href="#DejaVuSans-6f"/>
      <use x="493.261719" xlink:href="#DejaVuSans-6f"/>
      <use x="554.443359" xlink:href="#DejaVuSans-6c"/>
      <use x="582.226562" xlink:href="#DejaVuSans-20"/>
      <use x="614.013672" xlink:href="#DejaVuSans-67"/>
      <use x="677.490234" xlink:href="#DejaVuSans-72"/>
      <use x="718.603516" xlink:href="#DejaVuSans-61"/>
      <use x="779.882812" xlink:href="#DejaVuSans-64"/>
      <use x="843.359375" xlink:href="#DejaVuSans-75"/>
      <use x="906.738281" xlink:href="#DejaVuSans-61"/>
      <use x="968.017578" xlink:href="#DejaVuSans-74"/>
      <use x="1007.226562" xlink:href="#DejaVuSans-65"/>
      <use x="1068.75" xlink:href="#DejaVuSans-20"/>
      <use x="1100.537109" xlink:href="#DejaVuSans-6f"/>
      <use x="1161.71875" xlink:href="#DejaVuSans-72"/>
      <use x="1202.832031" xlink:href="#DejaVuSans-20"/>
      <use x="1234.619141" xlink:href="#DejaVuSans-6d"/>
      <use x="1332.03125" xlink:href="#DejaVuSans-6f"/>
      <use x="1393.212891" xlink:href="#DejaVuSans-72"/>
      <use x="1434.294922" xlink:href="#DejaVuSans-65"/>
     </g>
    </g>
    <g id="patch_47">
     <path d="M 250.556438 42.275781 
L 270.556438 42.275781 
L 270.556438 35.275781 
L 250.556438 35.275781 
z
" style="fill:#fc8d62;stroke:#fc8d62;stroke-linejoin:miter;"/>
    </g>
    <g id="text_2">
     <!-- Below high school -->
     <defs>
      <path d="M 19.671875 34.8125 
L 19.671875 8.109375 
L 35.5 8.109375 
Q 43.453125 8.109375 47.28125 11.40625 
Q 51.125 14.703125 51.125 21.484375 
Q 51.125 28.328125 47.28125 31.5625 
Q 43.453125 34.8125 35.5 34.8125 
z
M 19.671875 64.796875 
L 19.671875 42.828125 
L 34.28125 42.828125 
Q 41.5 42.828125 45.03125 45.53125 
Q 48.578125 48.25 48.578125 53.8125 
Q 48.578125 59.328125 45.03125 62.0625 
Q 41.5 64.796875 34.28125 64.796875 
z
M 9.8125 72.90625 
L 35.015625 72.90625 
Q 46.296875 72.90625 52.390625 68.21875 
Q 58.5 63.53125 58.5 54.890625 
Q 58.5 48.1875 55.375 44.234375 
Q 52.25 40.28125 46.1875 39.3125 
Q 53.46875 37.75 57.5 32.78125 
Q 61.53125 27.828125 61.53125 20.40625 
Q 61.53125 10.640625 54.890625 5.3125 
Q 48.25 0 35.984375 0 
L 9.8125 0 
z
" id="DejaVuSans-42"/>
      <path d="M 4.203125 54.6875 
L 13.1875 54.6875 
L 24.421875 12.015625 
L 35.59375 54.6875 
L 46.1875 54.6875 
L 57.421875 12.015625 
L 68.609375 54.6875 
L 77.59375 54.6875 
L 63.28125 0 
L 52.6875 0 
L 40.921875 44.828125 
L 29.109375 0 
L 18.5 0 
z
" id="DejaVuSans-77"/>
     </defs>
     <g transform="translate(278.556438 42.275781)scale(0.1 -0.1)">
      <use xlink:href="#DejaVuSans-42"/>
      <use x="68.603516" xlink:href="#DejaVuSans-65"/>
      <use x="130.126953" xlink:href="#DejaVuSans-6c"/>
      <use x="157.910156" xlink:href="#DejaVuSans-6f"/>
      <use x="219.091797" xlink:href="#DejaVuSans-77"/>
      <use x="300.878906" xlink:href="#DejaVuSans-20"/>
      <use x="332.666016" xlink:href="#DejaVuSans-68"/>
      <use x="396.044922" xlink:href="#DejaVuSans-69"/>
      <use x="423.828125" xlink:href="#DejaVuSans-67"/>
      <use x="487.304688" xlink:href="#DejaVuSans-68"/>
      <use x="550.683594" xlink:href="#DejaVuSans-20"/>
      <use x="582.470703" xlink:href="#DejaVuSans-73"/>
      <use x="634.570312" xlink:href="#DejaVuSans-63"/>
      <use x="689.550781" xlink:href="#DejaVuSans-68"/>
      <use x="752.929688" xlink:href="#DejaVuSans-6f"/>
      <use x="814.111328" xlink:href="#DejaVuSans-6f"/>
      <use x="875.292969" xlink:href="#DejaVuSans-6c"/>
     </g>
    </g>
   </g>
  </g>
  <g id="axes_2">
   <g id="patch_48">
    <path clip-path="url(#p8f14a71fb7)" d="M 30.103125 138.270175 
L 40.077338 138.270175 
L 40.077338 128.295962 
L 30.103125 128.295962 
z
" style="fill:#66c2a5;stroke:#66c2a5;stroke-linejoin:miter;"/>
   </g>
   <g id="patch_49">
    <path clip-path="url(#p8f14a71fb7)" d="M 30.103125 126.30112 
L 40.077338 126.30112 
L 40.077338 116.326907 
L 30.103125 116.326907 
z
" style="fill:#66c2a5;stroke:#66c2a5;stroke-linejoin:miter;"/>
   </g>
   <g id="patch_50">
    <path clip-path="url(#p8f14a71fb7)" d="M 30.103125 114.332064 
L 40.077338 114.332064 
L 40.077338 104.357851 
L 30.103125 104.357851 
z
" style="fill:#66c2a5;stroke:#66c2a5;stroke-linejoin:miter;"/>
   </g>
   <g id="patch_51">
    <path clip-path="url(#p8f14a71fb7)" d="M 30.103125 102.363009 
L 40.077338 102.363009 
L 40.077338 92.388796 
L 30.103125 92.388796 
z
" style="fill:#66c2a5;stroke:#66c2a5;stroke-linejoin:miter;"/>
   </g>
   <g id="patch_52">
    <path clip-path="url(#p8f14a71fb7)" d="M 30.103125 90.393953 
L 40.077338 90.393953 
L 40.077338 80.41974 
L 30.103125 80.41974 
z
" style="fill:#66c2a5;stroke:#66c2a5;stroke-linejoin:miter;"/>
   </g>
   <g id="patch_53">
    <path clip-path="url(#p8f14a71fb7)" d="M 42.07218 138.270175 
L 52.046393 138.270175 
L 52.046393 128.295962 
L 42.07218 128.295962 
z
" style="fill:#66c2a5;stroke:#66c2a5;stroke-linejoin:miter;"/>
   </g>
   <g id="patch_54">
    <path clip-path="url(#p8f14a71fb7)" d="M 42.07218 126.30112 
L 52.046393 126.30112 
L 52.046393 116.326907 
L 42.07218 116.326907 
z
" style="fill:#66c2a5;stroke:#66c2a5;stroke-linejoin:miter;"/>
   </g>
   <g id="patch_55">
    <path clip-path="url(#p8f14a71fb7)" d="M 42.07218 114.332064 
L 52.046393 114.332064 
L 52.046393 104.357851 
L 42.07218 104.357851 
z
" style="fill:#66c2a5;stroke:#66c2a5;stroke-linejoin:miter;"/>
   </g>
   <g id="patch_56">
    <path clip-path="url(#p8f14a71fb7)" d="M 42.07218 102.363009 
L 52.046393 102.363009 
L 52.046393 92.388796 
L 42.07218 92.388796 
z
" style="fill:#66c2a5;stroke:#66c2a5;stroke-linejoin:miter;"/>
   </g>
   <g id="patch_57">
    <path clip-path="url(#p8f14a71fb7)" d="M 42.07218 90.393953 
L 52.046393 90.393953 
L 52.046393 80.41974 
L 42.07218 80.41974 
z
" style="fill:#66c2a5;stroke:#66c2a5;stroke-linejoin:miter;"/>
   </g>
   <g id="patch_58">
    <path clip-path="url(#p8f14a71fb7)" d="M 54.041236 138.270175 
L 64.015449 138.270175 
L 64.015449 128.295962 
L 54.041236 128.295962 
z
" style="fill:#66c2a5;stroke:#66c2a5;stroke-linejoin:miter;"/>
   </g>
   <g id="patch_59">
    <path clip-path="url(#p8f14a71fb7)" d="M 54.041236 126.30112 
L 64.015449 126.30112 
L 64.015449 116.326907 
L 54.041236 116.326907 
z
" style="fill:#66c2a5;stroke:#66c2a5;stroke-linejoin:miter;"/>
   </g>
   <g id="patch_60">
    <path clip-path="url(#p8f14a71fb7)" d="M 54.041236 114.332064 
L 64.015449 114.332064 
L 64.015449 104.357851 
L 54.041236 104.357851 
z
" style="fill:#66c2a5;stroke:#66c2a5;stroke-linejoin:miter;"/>
   </g>
   <g id="patch_61">
    <path clip-path="url(#p8f14a71fb7)" d="M 54.041236 102.363009 
L 64.015449 102.363009 
L 64.015449 92.388796 
L 54.041236 92.388796 
z
" style="fill:#66c2a5;stroke:#66c2a5;stroke-linejoin:miter;"/>
   </g>
   <g id="patch_62">
    <path clip-path="url(#p8f14a71fb7)" d="M 54.041236 90.393953 
L 64.015449 90.393953 
L 64.015449 80.41974 
L 54.041236 80.41974 
z
" style="fill:#66c2a5;stroke:#66c2a5;stroke-linejoin:miter;"/>
   </g>
   <g id="patch_63">
    <path clip-path="url(#p8f14a71fb7)" d="M 66.010291 138.270175 
L 75.984504 138.270175 
L 75.984504 128.295962 
L 66.010291 128.295962 
z
" style="fill:#66c2a5;stroke:#66c2a5;stroke-linejoin:miter;"/>
   </g>
   <g id="patch_64">
    <path clip-path="url(#p8f14a71fb7)" d="M 66.010291 126.30112 
L 75.984504 126.30112 
L 75.984504 116.326907 
L 66.010291 116.326907 
z
" style="fill:#66c2a5;stroke:#66c2a5;stroke-linejoin:miter;"/>
   </g>
   <g id="patch_65">
    <path clip-path="url(#p8f14a71fb7)" d="M 66.010291 114.332064 
L 75.984504 114.332064 
L 75.984504 104.357851 
L 66.010291 104.357851 
z
" style="fill:#66c2a5;stroke:#66c2a5;stroke-linejoin:miter;"/>
   </g>
   <g id="patch_66">
    <path clip-path="url(#p8f14a71fb7)" d="M 66.010291 102.363009 
L 75.984504 102.363009 
L 75.984504 92.388796 
L 66.010291 92.388796 
z
" style="fill:#66c2a5;stroke:#66c2a5;stroke-linejoin:miter;"/>
   </g>
   <g id="patch_67">
    <path clip-path="url(#p8f14a71fb7)" d="M 66.010291 90.393953 
L 75.984504 90.393953 
L 75.984504 80.41974 
L 66.010291 80.41974 
z
" style="fill:#66c2a5;stroke:#66c2a5;stroke-linejoin:miter;"/>
   </g>
   <g id="patch_68">
    <path clip-path="url(#p8f14a71fb7)" d="M 77.979347 138.270175 
L 87.95356 138.270175 
L 87.95356 128.295962 
L 77.979347 128.295962 
z
" style="fill:#66c2a5;stroke:#66c2a5;stroke-linejoin:miter;"/>
   </g>
   <g id="patch_69">
    <path clip-path="url(#p8f14a71fb7)" d="M 77.979347 126.30112 
L 87.95356 126.30112 
L 87.95356 116.326907 
L 77.979347 116.326907 
z
" style="fill:#66c2a5;stroke:#66c2a5;stroke-linejoin:miter;"/>
   </g>
   <g id="patch_70">
    <path clip-path="url(#p8f14a71fb7)" d="M 77.979347 114.332064 
L 87.95356 114.332064 
L 87.95356 104.357851 
L 77.979347 104.357851 
z
" style="fill:#66c2a5;stroke:#66c2a5;stroke-linejoin:miter;"/>
   </g>
   <g id="patch_71">
    <path clip-path="url(#p8f14a71fb7)" d="M 77.979347 102.363009 
L 87.95356 102.363009 
L 87.95356 92.388796 
L 77.979347 92.388796 
z
" style="fill:#66c2a5;stroke:#66c2a5;stroke-linejoin:miter;"/>
   </g>
   <g id="patch_72">
    <path clip-path="url(#p8f14a71fb7)" d="M 77.979347 90.393953 
L 87.95356 90.393953 
L 87.95356 80.41974 
L 77.979347 80.41974 
z
" style="fill:#66c2a5;stroke:#66c2a5;stroke-linejoin:miter;"/>
   </g>
   <g id="patch_73">
    <path clip-path="url(#p8f14a71fb7)" d="M 89.948402 138.270175 
L 99.922615 138.270175 
L 99.922615 128.295962 
L 89.948402 128.295962 
z
" style="fill:#66c2a5;stroke:#66c2a5;stroke-linejoin:miter;"/>
   </g>
   <g id="patch_74">
    <path clip-path="url(#p8f14a71fb7)" d="M 89.948402 126.30112 
L 99.922615 126.30112 
L 99.922615 116.326907 
L 89.948402 116.326907 
z
" style="fill:#66c2a5;stroke:#66c2a5;stroke-linejoin:miter;"/>
   </g>
   <g id="patch_75">
    <path clip-path="url(#p8f14a71fb7)" d="M 89.948402 114.332064 
L 99.922615 114.332064 
L 99.922615 104.357851 
L 89.948402 104.357851 
z
" style="fill:#66c2a5;stroke:#66c2a5;stroke-linejoin:miter;"/>
   </g>
   <g id="patch_76">
    <path clip-path="url(#p8f14a71fb7)" d="M 89.948402 102.363009 
L 99.922615 102.363009 
L 99.922615 92.388796 
L 89.948402 92.388796 
z
" style="fill:#66c2a5;stroke:#66c2a5;stroke-linejoin:miter;"/>
   </g>
   <g id="patch_77">
    <path clip-path="url(#p8f14a71fb7)" d="M 89.948402 90.393953 
L 99.922615 90.393953 
L 99.922615 80.41974 
L 89.948402 80.41974 
z
" style="fill:#66c2a5;stroke:#66c2a5;stroke-linejoin:miter;"/>
   </g>
   <g id="patch_78">
    <path clip-path="url(#p8f14a71fb7)" d="M 101.917458 138.270175 
L 111.891671 138.270175 
L 111.891671 128.295962 
L 101.917458 128.295962 
z
" style="fill:#66c2a5;stroke:#66c2a5;stroke-linejoin:miter;"/>
   </g>
   <g id="patch_79">
    <path clip-path="url(#p8f14a71fb7)" d="M 101.917458 126.30112 
L 111.891671 126.30112 
L 111.891671 116.326907 
L 101.917458 116.326907 
z
" style="fill:#66c2a5;stroke:#66c2a5;stroke-linejoin:miter;"/>
   </g>
   <g id="patch_80">
    <path clip-path="url(#p8f14a71fb7)" d="M 101.917458 114.332064 
L 111.891671 114.332064 
L 111.891671 104.357851 
L 101.917458 104.357851 
z
" style="fill:#66c2a5;stroke:#66c2a5;stroke-linejoin:miter;"/>
   </g>
   <g id="patch_81">
    <path clip-path="url(#p8f14a71fb7)" d="M 101.917458 102.363009 
L 111.891671 102.363009 
L 111.891671 92.388796 
L 101.917458 92.388796 
z
" style="fill:#66c2a5;stroke:#66c2a5;stroke-linejoin:miter;"/>
   </g>
   <g id="patch_82">
    <path clip-path="url(#p8f14a71fb7)" d="M 101.917458 90.393953 
L 111.891671 90.393953 
L 111.891671 80.41974 
L 101.917458 80.41974 
z
" style="fill:#66c2a5;stroke:#66c2a5;stroke-linejoin:miter;"/>
   </g>
   <g id="patch_83">
    <path clip-path="url(#p8f14a71fb7)" d="M 113.886513 138.270175 
L 123.860726 138.270175 
L 123.860726 128.295962 
L 113.886513 128.295962 
z
" style="fill:#66c2a5;stroke:#66c2a5;stroke-linejoin:miter;"/>
   </g>
   <g id="patch_84">
    <path clip-path="url(#p8f14a71fb7)" d="M 113.886513 126.30112 
L 123.860726 126.30112 
L 123.860726 116.326907 
L 113.886513 116.326907 
z
" style="fill:#fc8d62;stroke:#fc8d62;stroke-linejoin:miter;"/>
   </g>
   <g id="patch_85">
    <path clip-path="url(#p8f14a71fb7)" d="M 113.886513 114.332064 
L 123.860726 114.332064 
L 123.860726 104.357851 
L 113.886513 104.357851 
z
" style="fill:#fc8d62;stroke:#fc8d62;stroke-linejoin:miter;"/>
   </g>
   <g id="patch_86">
    <path clip-path="url(#p8f14a71fb7)" d="M 113.886513 102.363009 
L 123.860726 102.363009 
L 123.860726 92.388796 
L 113.886513 92.388796 
z
" style="fill:#fc8d62;stroke:#fc8d62;stroke-linejoin:miter;"/>
   </g>
   <g id="patch_87">
    <path clip-path="url(#p8f14a71fb7)" d="M 113.886513 90.393953 
L 123.860726 90.393953 
L 123.860726 80.41974 
L 113.886513 80.41974 
z
" style="fill:#fc8d62;stroke:#fc8d62;stroke-linejoin:miter;"/>
   </g>
   <g id="legend_2">
    <g id="patch_88">
     <path d="M 224.618327 117.77599 
L 406.20114 117.77599 
Q 408.20114 117.77599 408.20114 115.77599 
L 408.20114 87.41974 
Q 408.20114 85.41974 406.20114 85.41974 
L 224.618327 85.41974 
Q 222.618327 85.41974 222.618327 87.41974 
L 222.618327 115.77599 
Q 222.618327 117.77599 224.618327 117.77599 
z
" style="fill:#ffffff;opacity:0.8;stroke:#cccccc;stroke-linejoin:miter;"/>
    </g>
    <g id="patch_89">
     <path d="M 226.618327 97.018178 
L 246.618327 97.018178 
L 246.618327 90.018178 
L 226.618327 90.018178 
z
" style="fill:#66c2a5;stroke:#66c2a5;stroke-linejoin:miter;"/>
    </g>
    <g id="text_3">
     <!-- High school graduate or more -->
     <g transform="translate(254.618327 97.018178)scale(0.1 -0.1)">
      <use xlink:href="#DejaVuSans-48"/>
      <use x="75.195312" xlink:href="#DejaVuSans-69"/>
      <use x="102.978516" xlink:href="#DejaVuSans-67"/>
      <use x="166.455078" xlink:href="#DejaVuSans-68"/>
      <use x="229.833984" xlink:href="#DejaVuSans-20"/>
      <use x="261.621094" xlink:href="#DejaVuSans-73"/>
      <use x="313.720703" xlink:href="#DejaVuSans-63"/>
      <use x="368.701172" xlink:href="#DejaVuSans-68"/>
      <use x="432.080078" xlink:href="#DejaVuSans-6f"/>
      <use x="493.261719" xlink:href="#DejaVuSans-6f"/>
      <use x="554.443359" xlink:href="#DejaVuSans-6c"/>
      <use x="582.226562" xlink:href="#DejaVuSans-20"/>
      <use x="614.013672" xlink:href="#DejaVuSans-67"/>
      <use x="677.490234" xlink:href="#DejaVuSans-72"/>
      <use x="718.603516" xlink:href="#DejaVuSans-61"/>
      <use x="779.882812" xlink:href="#DejaVuSans-64"/>
      <use x="843.359375" xlink:href="#DejaVuSans-75"/>
      <use x="906.738281" xlink:href="#DejaVuSans-61"/>
      <use x="968.017578" xlink:href="#DejaVuSans-74"/>
      <use x="1007.226562" xlink:href="#DejaVuSans-65"/>
      <use x="1068.75" xlink:href="#DejaVuSans-20"/>
      <use x="1100.537109" xlink:href="#DejaVuSans-6f"/>
      <use x="1161.71875" xlink:href="#DejaVuSans-72"/>
      <use x="1202.832031" xlink:href="#DejaVuSans-20"/>
      <use x="1234.619141" xlink:href="#DejaVuSans-6d"/>
      <use x="1332.03125" xlink:href="#DejaVuSans-6f"/>
      <use x="1393.212891" xlink:href="#DejaVuSans-72"/>
      <use x="1434.294922" xlink:href="#DejaVuSans-65"/>
     </g>
    </g>
    <g id="patch_90">
     <path d="M 226.618327 111.696303 
L 246.618327 111.696303 
L 246.618327 104.696303 
L 226.618327 104.696303 
z
" style="fill:#fc8d62;stroke:#fc8d62;stroke-linejoin:miter;"/>
    </g>
    <g id="text_4">
     <!-- Below high school -->
     <g transform="translate(254.618327 111.696303)scale(0.1 -0.1)">
      <use xlink:href="#DejaVuSans-42"/>
      <use x="68.603516" xlink:href="#DejaVuSans-65"/>
      <use x="130.126953" xlink:href="#DejaVuSans-6c"/>
      <use x="157.910156" xlink:href="#DejaVuSans-6f"/>
      <use x="219.091797" xlink:href="#DejaVuSans-77"/>
      <use x="300.878906" xlink:href="#DejaVuSans-20"/>
      <use x="332.666016" xlink:href="#DejaVuSans-68"/>
      <use x="396.044922" xlink:href="#DejaVuSans-69"/>
      <use x="423.828125" xlink:href="#DejaVuSans-67"/>
      <use x="487.304688" xlink:href="#DejaVuSans-68"/>
      <use x="550.683594" xlink:href="#DejaVuSans-20"/>
      <use x="582.470703" xlink:href="#DejaVuSans-73"/>
      <use x="634.570312" xlink:href="#DejaVuSans-63"/>
      <use x="689.550781" xlink:href="#DejaVuSans-68"/>
      <use x="752.929688" xlink:href="#DejaVuSans-6f"/>
      <use x="814.111328" xlink:href="#DejaVuSans-6f"/>
      <use x="875.292969" xlink:href="#DejaVuSans-6c"/>
     </g>
    </g>
   </g>
  </g>
  <g id="axes_3">
   <g id="patch_91">
    <path clip-path="url(#p5279fa12b6)" d="M 30.103125 207.690697 
L 40.077338 207.690697 
L 40.077338 197.716484 
L 30.103125 197.716484 
z
" style="fill:#66c2a5;stroke:#66c2a5;stroke-linejoin:miter;"/>
   </g>
   <g id="patch_92">
    <path clip-path="url(#p5279fa12b6)" d="M 30.103125 195.721642 
L 40.077338 195.721642 
L 40.077338 185.747429 
L 30.103125 185.747429 
z
" style="fill:#66c2a5;stroke:#66c2a5;stroke-linejoin:miter;"/>
   </g>
   <g id="patch_93">
    <path clip-path="url(#p5279fa12b6)" d="M 30.103125 183.752586 
L 40.077338 183.752586 
L 40.077338 173.778373 
L 30.103125 173.778373 
z
" style="fill:#66c2a5;stroke:#66c2a5;stroke-linejoin:miter;"/>
   </g>
   <g id="patch_94">
    <path clip-path="url(#p5279fa12b6)" d="M 30.103125 171.783531 
L 40.077338 171.783531 
L 40.077338 161.809318 
L 30.103125 161.809318 
z
" style="fill:#66c2a5;stroke:#66c2a5;stroke-linejoin:miter;"/>
   </g>
   <g id="patch_95">
    <path clip-path="url(#p5279fa12b6)" d="M 30.103125 159.814475 
L 40.077338 159.814475 
L 40.077338 149.840262 
L 30.103125 149.840262 
z
" style="fill:#66c2a5;stroke:#66c2a5;stroke-linejoin:miter;"/>
   </g>
   <g id="patch_96">
    <path clip-path="url(#p5279fa12b6)" d="M 42.07218 207.690697 
L 52.046393 207.690697 
L 52.046393 197.716484 
L 42.07218 197.716484 
z
" style="fill:#66c2a5;stroke:#66c2a5;stroke-linejoin:miter;"/>
   </g>
   <g id="patch_97">
    <path clip-path="url(#p5279fa12b6)" d="M 42.07218 195.721642 
L 52.046393 195.721642 
L 52.046393 185.747429 
L 42.07218 185.747429 
z
" style="fill:#66c2a5;stroke:#66c2a5;stroke-linejoin:miter;"/>
   </g>
   <g id="patch_98">
    <path clip-path="url(#p5279fa12b6)" d="M 42.07218 183.752586 
L 52.046393 183.752586 
L 52.046393 173.778373 
L 42.07218 173.778373 
z
" style="fill:#66c2a5;stroke:#66c2a5;stroke-linejoin:miter;"/>
   </g>
   <g id="patch_99">
    <path clip-path="url(#p5279fa12b6)" d="M 42.07218 171.783531 
L 52.046393 171.783531 
L 52.046393 161.809318 
L 42.07218 161.809318 
z
" style="fill:#66c2a5;stroke:#66c2a5;stroke-linejoin:miter;"/>
   </g>
   <g id="patch_100">
    <path clip-path="url(#p5279fa12b6)" d="M 42.07218 159.814475 
L 52.046393 159.814475 
L 52.046393 149.840262 
L 42.07218 149.840262 
z
" style="fill:#66c2a5;stroke:#66c2a5;stroke-linejoin:miter;"/>
   </g>
   <g id="patch_101">
    <path clip-path="url(#p5279fa12b6)" d="M 54.041236 207.690697 
L 64.015449 207.690697 
L 64.015449 197.716484 
L 54.041236 197.716484 
z
" style="fill:#66c2a5;stroke:#66c2a5;stroke-linejoin:miter;"/>
   </g>
   <g id="patch_102">
    <path clip-path="url(#p5279fa12b6)" d="M 54.041236 195.721642 
L 64.015449 195.721642 
L 64.015449 185.747429 
L 54.041236 185.747429 
z
" style="fill:#66c2a5;stroke:#66c2a5;stroke-linejoin:miter;"/>
   </g>
   <g id="patch_103">
    <path clip-path="url(#p5279fa12b6)" d="M 54.041236 183.752586 
L 64.015449 183.752586 
L 64.015449 173.778373 
L 54.041236 173.778373 
z
" style="fill:#66c2a5;stroke:#66c2a5;stroke-linejoin:miter;"/>
   </g>
   <g id="patch_104">
    <path clip-path="url(#p5279fa12b6)" d="M 54.041236 171.783531 
L 64.015449 171.783531 
L 64.015449 161.809318 
L 54.041236 161.809318 
z
" style="fill:#66c2a5;stroke:#66c2a5;stroke-linejoin:miter;"/>
   </g>
   <g id="patch_105">
    <path clip-path="url(#p5279fa12b6)" d="M 54.041236 159.814475 
L 64.015449 159.814475 
L 64.015449 149.840262 
L 54.041236 149.840262 
z
" style="fill:#66c2a5;stroke:#66c2a5;stroke-linejoin:miter;"/>
   </g>
   <g id="patch_106">
    <path clip-path="url(#p5279fa12b6)" d="M 66.010291 207.690697 
L 75.984504 207.690697 
L 75.984504 197.716484 
L 66.010291 197.716484 
z
" style="fill:#66c2a5;stroke:#66c2a5;stroke-linejoin:miter;"/>
   </g>
   <g id="patch_107">
    <path clip-path="url(#p5279fa12b6)" d="M 66.010291 195.721642 
L 75.984504 195.721642 
L 75.984504 185.747429 
L 66.010291 185.747429 
z
" style="fill:#66c2a5;stroke:#66c2a5;stroke-linejoin:miter;"/>
   </g>
   <g id="patch_108">
    <path clip-path="url(#p5279fa12b6)" d="M 66.010291 183.752586 
L 75.984504 183.752586 
L 75.984504 173.778373 
L 66.010291 173.778373 
z
" style="fill:#66c2a5;stroke:#66c2a5;stroke-linejoin:miter;"/>
   </g>
   <g id="patch_109">
    <path clip-path="url(#p5279fa12b6)" d="M 66.010291 171.783531 
L 75.984504 171.783531 
L 75.984504 161.809318 
L 66.010291 161.809318 
z
" style="fill:#66c2a5;stroke:#66c2a5;stroke-linejoin:miter;"/>
   </g>
   <g id="patch_110">
    <path clip-path="url(#p5279fa12b6)" d="M 66.010291 159.814475 
L 75.984504 159.814475 
L 75.984504 149.840262 
L 66.010291 149.840262 
z
" style="fill:#66c2a5;stroke:#66c2a5;stroke-linejoin:miter;"/>
   </g>
   <g id="patch_111">
    <path clip-path="url(#p5279fa12b6)" d="M 77.979347 207.690697 
L 87.95356 207.690697 
L 87.95356 197.716484 
L 77.979347 197.716484 
z
" style="fill:#66c2a5;stroke:#66c2a5;stroke-linejoin:miter;"/>
   </g>
   <g id="patch_112">
    <path clip-path="url(#p5279fa12b6)" d="M 77.979347 195.721642 
L 87.95356 195.721642 
L 87.95356 185.747429 
L 77.979347 185.747429 
z
" style="fill:#66c2a5;stroke:#66c2a5;stroke-linejoin:miter;"/>
   </g>
   <g id="patch_113">
    <path clip-path="url(#p5279fa12b6)" d="M 77.979347 183.752586 
L 87.95356 183.752586 
L 87.95356 173.778373 
L 77.979347 173.778373 
z
" style="fill:#66c2a5;stroke:#66c2a5;stroke-linejoin:miter;"/>
   </g>
   <g id="patch_114">
    <path clip-path="url(#p5279fa12b6)" d="M 77.979347 171.783531 
L 87.95356 171.783531 
L 87.95356 161.809318 
L 77.979347 161.809318 
z
" style="fill:#66c2a5;stroke:#66c2a5;stroke-linejoin:miter;"/>
   </g>
   <g id="patch_115">
    <path clip-path="url(#p5279fa12b6)" d="M 77.979347 159.814475 
L 87.95356 159.814475 
L 87.95356 149.840262 
L 77.979347 149.840262 
z
" style="fill:#66c2a5;stroke:#66c2a5;stroke-linejoin:miter;"/>
   </g>
   <g id="patch_116">
    <path clip-path="url(#p5279fa12b6)" d="M 89.948402 207.690697 
L 99.922615 207.690697 
L 99.922615 197.716484 
L 89.948402 197.716484 
z
" style="fill:#66c2a5;stroke:#66c2a5;stroke-linejoin:miter;"/>
   </g>
   <g id="patch_117">
    <path clip-path="url(#p5279fa12b6)" d="M 89.948402 195.721642 
L 99.922615 195.721642 
L 99.922615 185.747429 
L 89.948402 185.747429 
z
" style="fill:#66c2a5;stroke:#66c2a5;stroke-linejoin:miter;"/>
   </g>
   <g id="patch_118">
    <path clip-path="url(#p5279fa12b6)" d="M 89.948402 183.752586 
L 99.922615 183.752586 
L 99.922615 173.778373 
L 89.948402 173.778373 
z
" style="fill:#66c2a5;stroke:#66c2a5;stroke-linejoin:miter;"/>
   </g>
   <g id="patch_119">
    <path clip-path="url(#p5279fa12b6)" d="M 89.948402 171.783531 
L 99.922615 171.783531 
L 99.922615 161.809318 
L 89.948402 161.809318 
z
" style="fill:#66c2a5;stroke:#66c2a5;stroke-linejoin:miter;"/>
   </g>
   <g id="patch_120">
    <path clip-path="url(#p5279fa12b6)" d="M 89.948402 159.814475 
L 99.922615 159.814475 
L 99.922615 149.840262 
L 89.948402 149.840262 
z
" style="fill:#66c2a5;stroke:#66c2a5;stroke-linejoin:miter;"/>
   </g>
   <g id="patch_121">
    <path clip-path="url(#p5279fa12b6)" d="M 101.917458 207.690697 
L 111.891671 207.690697 
L 111.891671 197.716484 
L 101.917458 197.716484 
z
" style="fill:#66c2a5;stroke:#66c2a5;stroke-linejoin:miter;"/>
   </g>
   <g id="patch_122">
    <path clip-path="url(#p5279fa12b6)" d="M 101.917458 195.721642 
L 111.891671 195.721642 
L 111.891671 185.747429 
L 101.917458 185.747429 
z
" style="fill:#66c2a5;stroke:#66c2a5;stroke-linejoin:miter;"/>
   </g>
   <g id="patch_123">
    <path clip-path="url(#p5279fa12b6)" d="M 101.917458 183.752586 
L 111.891671 183.752586 
L 111.891671 173.778373 
L 101.917458 173.778373 
z
" style="fill:#66c2a5;stroke:#66c2a5;stroke-linejoin:miter;"/>
   </g>
   <g id="patch_124">
    <path clip-path="url(#p5279fa12b6)" d="M 101.917458 171.783531 
L 111.891671 171.783531 
L 111.891671 161.809318 
L 101.917458 161.809318 
z
" style="fill:#66c2a5;stroke:#66c2a5;stroke-linejoin:miter;"/>
   </g>
   <g id="patch_125">
    <path clip-path="url(#p5279fa12b6)" d="M 101.917458 159.814475 
L 111.891671 159.814475 
L 111.891671 149.840262 
L 101.917458 149.840262 
z
" style="fill:#66c2a5;stroke:#66c2a5;stroke-linejoin:miter;"/>
   </g>
   <g id="patch_126">
    <path clip-path="url(#p5279fa12b6)" d="M 113.886513 207.690697 
L 123.860726 207.690697 
L 123.860726 197.716484 
L 113.886513 197.716484 
z
" style="fill:#66c2a5;stroke:#66c2a5;stroke-linejoin:miter;"/>
   </g>
   <g id="patch_127">
    <path clip-path="url(#p5279fa12b6)" d="M 113.886513 195.721642 
L 123.860726 195.721642 
L 123.860726 185.747429 
L 113.886513 185.747429 
z
" style="fill:#66c2a5;stroke:#66c2a5;stroke-linejoin:miter;"/>
   </g>
   <g id="patch_128">
    <path clip-path="url(#p5279fa12b6)" d="M 113.886513 183.752586 
L 123.860726 183.752586 
L 123.860726 173.778373 
L 113.886513 173.778373 
z
" style="fill:#66c2a5;stroke:#66c2a5;stroke-linejoin:miter;"/>
   </g>
   <g id="patch_129">
    <path clip-path="url(#p5279fa12b6)" d="M 113.886513 171.783531 
L 123.860726 171.783531 
L 123.860726 161.809318 
L 113.886513 161.809318 
z
" style="fill:#66c2a5;stroke:#66c2a5;stroke-linejoin:miter;"/>
   </g>
   <g id="patch_130">
    <path clip-path="url(#p5279fa12b6)" d="M 113.886513 159.814475 
L 123.860726 159.814475 
L 123.860726 149.840262 
L 113.886513 149.840262 
z
" style="fill:#66c2a5;stroke:#66c2a5;stroke-linejoin:miter;"/>
   </g>
   <g id="patch_131">
    <path clip-path="url(#p5279fa12b6)" d="M 125.855569 207.690697 
L 135.829782 207.690697 
L 135.829782 197.716484 
L 125.855569 197.716484 
z
" style="fill:#66c2a5;stroke:#66c2a5;stroke-linejoin:miter;"/>
   </g>
   <g id="patch_132">
    <path clip-path="url(#p5279fa12b6)" d="M 125.855569 195.721642 
L 135.829782 195.721642 
L 135.829782 185.747429 
L 125.855569 185.747429 
z
" style="fill:#66c2a5;stroke:#66c2a5;stroke-linejoin:miter;"/>
   </g>
   <g id="patch_133">
    <path clip-path="url(#p5279fa12b6)" d="M 125.855569 183.752586 
L 135.829782 183.752586 
L 135.829782 173.778373 
L 125.855569 173.778373 
z
" style="fill:#66c2a5;stroke:#66c2a5;stroke-linejoin:miter;"/>
   </g>
   <g id="patch_134">
    <path clip-path="url(#p5279fa12b6)" d="M 125.855569 171.783531 
L 135.829782 171.783531 
L 135.829782 161.809318 
L 125.855569 161.809318 
z
" style="fill:#66c2a5;stroke:#66c2a5;stroke-linejoin:miter;"/>
   </g>
   <g id="patch_135">
    <path clip-path="url(#p5279fa12b6)" d="M 125.855569 159.814475 
L 135.829782 159.814475 
L 135.829782 149.840262 
L 125.855569 149.840262 
z
" style="fill:#66c2a5;stroke:#66c2a5;stroke-linejoin:miter;"/>
   </g>
   <g id="patch_136">
    <path clip-path="url(#p5279fa12b6)" d="M 137.824624 207.690697 
L 147.798837 207.690697 
L 147.798837 197.716484 
L 137.824624 197.716484 
z
" style="fill:#66c2a5;stroke:#66c2a5;stroke-linejoin:miter;"/>
   </g>
   <g id="patch_137">
    <path clip-path="url(#p5279fa12b6)" d="M 137.824624 195.721642 
L 147.798837 195.721642 
L 147.798837 185.747429 
L 137.824624 185.747429 
z
" style="fill:#66c2a5;stroke:#66c2a5;stroke-linejoin:miter;"/>
   </g>
   <g id="patch_138">
    <path clip-path="url(#p5279fa12b6)" d="M 137.824624 183.752586 
L 147.798837 183.752586 
L 147.798837 173.778373 
L 137.824624 173.778373 
z
" style="fill:#66c2a5;stroke:#66c2a5;stroke-linejoin:miter;"/>
   </g>
   <g id="patch_139">
    <path clip-path="url(#p5279fa12b6)" d="M 137.824624 171.783531 
L 147.798837 171.783531 
L 147.798837 161.809318 
L 137.824624 161.809318 
z
" style="fill:#66c2a5;stroke:#66c2a5;stroke-linejoin:miter;"/>
   </g>
   <g id="patch_140">
    <path clip-path="url(#p5279fa12b6)" d="M 137.824624 159.814475 
L 147.798837 159.814475 
L 147.798837 149.840262 
L 137.824624 149.840262 
z
" style="fill:#66c2a5;stroke:#66c2a5;stroke-linejoin:miter;"/>
   </g>
   <g id="patch_141">
    <path clip-path="url(#p5279fa12b6)" d="M 149.79368 207.690697 
L 159.767893 207.690697 
L 159.767893 197.716484 
L 149.79368 197.716484 
z
" style="fill:#66c2a5;stroke:#66c2a5;stroke-linejoin:miter;"/>
   </g>
   <g id="patch_142">
    <path clip-path="url(#p5279fa12b6)" d="M 149.79368 195.721642 
L 159.767893 195.721642 
L 159.767893 185.747429 
L 149.79368 185.747429 
z
" style="fill:#66c2a5;stroke:#66c2a5;stroke-linejoin:miter;"/>
   </g>
   <g id="patch_143">
    <path clip-path="url(#p5279fa12b6)" d="M 149.79368 183.752586 
L 159.767893 183.752586 
L 159.767893 173.778373 
L 149.79368 173.778373 
z
" style="fill:#66c2a5;stroke:#66c2a5;stroke-linejoin:miter;"/>
   </g>
   <g id="patch_144">
    <path clip-path="url(#p5279fa12b6)" d="M 149.79368 171.783531 
L 159.767893 171.783531 
L 159.767893 161.809318 
L 149.79368 161.809318 
z
" style="fill:#66c2a5;stroke:#66c2a5;stroke-linejoin:miter;"/>
   </g>
   <g id="patch_145">
    <path clip-path="url(#p5279fa12b6)" d="M 149.79368 159.814475 
L 159.767893 159.814475 
L 159.767893 149.840262 
L 149.79368 149.840262 
z
" style="fill:#66c2a5;stroke:#66c2a5;stroke-linejoin:miter;"/>
   </g>
   <g id="patch_146">
    <path clip-path="url(#p5279fa12b6)" d="M 161.762735 207.690697 
L 171.736948 207.690697 
L 171.736948 197.716484 
L 161.762735 197.716484 
z
" style="fill:#66c2a5;stroke:#66c2a5;stroke-linejoin:miter;"/>
   </g>
   <g id="patch_147">
    <path clip-path="url(#p5279fa12b6)" d="M 161.762735 195.721642 
L 171.736948 195.721642 
L 171.736948 185.747429 
L 161.762735 185.747429 
z
" style="fill:#66c2a5;stroke:#66c2a5;stroke-linejoin:miter;"/>
   </g>
   <g id="patch_148">
    <path clip-path="url(#p5279fa12b6)" d="M 161.762735 183.752586 
L 171.736948 183.752586 
L 171.736948 173.778373 
L 161.762735 173.778373 
z
" style="fill:#66c2a5;stroke:#66c2a5;stroke-linejoin:miter;"/>
   </g>
   <g id="patch_149">
    <path clip-path="url(#p5279fa12b6)" d="M 161.762735 171.783531 
L 171.736948 171.783531 
L 171.736948 161.809318 
L 161.762735 161.809318 
z
" style="fill:#66c2a5;stroke:#66c2a5;stroke-linejoin:miter;"/>
   </g>
   <g id="patch_150">
    <path clip-path="url(#p5279fa12b6)" d="M 161.762735 159.814475 
L 171.736948 159.814475 
L 171.736948 149.840262 
L 161.762735 149.840262 
z
" style="fill:#66c2a5;stroke:#66c2a5;stroke-linejoin:miter;"/>
   </g>
   <g id="patch_151">
    <path clip-path="url(#p5279fa12b6)" d="M 173.731791 207.690697 
L 183.706004 207.690697 
L 183.706004 197.716484 
L 173.731791 197.716484 
z
" style="fill:#66c2a5;stroke:#66c2a5;stroke-linejoin:miter;"/>
   </g>
   <g id="patch_152">
    <path clip-path="url(#p5279fa12b6)" d="M 173.731791 195.721642 
L 183.706004 195.721642 
L 183.706004 185.747429 
L 173.731791 185.747429 
z
" style="fill:#66c2a5;stroke:#66c2a5;stroke-linejoin:miter;"/>
   </g>
   <g id="patch_153">
    <path clip-path="url(#p5279fa12b6)" d="M 173.731791 183.752586 
L 183.706004 183.752586 
L 183.706004 173.778373 
L 173.731791 173.778373 
z
" style="fill:#66c2a5;stroke:#66c2a5;stroke-linejoin:miter;"/>
   </g>
   <g id="patch_154">
    <path clip-path="url(#p5279fa12b6)" d="M 173.731791 171.783531 
L 183.706004 171.783531 
L 183.706004 161.809318 
L 173.731791 161.809318 
z
" style="fill:#66c2a5;stroke:#66c2a5;stroke-linejoin:miter;"/>
   </g>
   <g id="patch_155">
    <path clip-path="url(#p5279fa12b6)" d="M 173.731791 159.814475 
L 183.706004 159.814475 
L 183.706004 149.840262 
L 173.731791 149.840262 
z
" style="fill:#66c2a5;stroke:#66c2a5;stroke-linejoin:miter;"/>
   </g>
   <g id="patch_156">
    <path clip-path="url(#p5279fa12b6)" d="M 185.700846 207.690697 
L 195.675059 207.690697 
L 195.675059 197.716484 
L 185.700846 197.716484 
z
" style="fill:#66c2a5;stroke:#66c2a5;stroke-linejoin:miter;"/>
   </g>
   <g id="patch_157">
    <path clip-path="url(#p5279fa12b6)" d="M 185.700846 195.721642 
L 195.675059 195.721642 
L 195.675059 185.747429 
L 185.700846 185.747429 
z
" style="fill:#66c2a5;stroke:#66c2a5;stroke-linejoin:miter;"/>
   </g>
   <g id="patch_158">
    <path clip-path="url(#p5279fa12b6)" d="M 185.700846 183.752586 
L 195.675059 183.752586 
L 195.675059 173.778373 
L 185.700846 173.778373 
z
" style="fill:#66c2a5;stroke:#66c2a5;stroke-linejoin:miter;"/>
   </g>
   <g id="patch_159">
    <path clip-path="url(#p5279fa12b6)" d="M 185.700846 171.783531 
L 195.675059 171.783531 
L 195.675059 161.809318 
L 185.700846 161.809318 
z
" style="fill:#66c2a5;stroke:#66c2a5;stroke-linejoin:miter;"/>
   </g>
   <g id="patch_160">
    <path clip-path="url(#p5279fa12b6)" d="M 185.700846 159.814475 
L 195.675059 159.814475 
L 195.675059 149.840262 
L 185.700846 149.840262 
z
" style="fill:#66c2a5;stroke:#66c2a5;stroke-linejoin:miter;"/>
   </g>
   <g id="patch_161">
    <path clip-path="url(#p5279fa12b6)" d="M 197.669902 207.690697 
L 207.644115 207.690697 
L 207.644115 197.716484 
L 197.669902 197.716484 
z
" style="fill:#66c2a5;stroke:#66c2a5;stroke-linejoin:miter;"/>
   </g>
   <g id="patch_162">
    <path clip-path="url(#p5279fa12b6)" d="M 197.669902 195.721642 
L 207.644115 195.721642 
L 207.644115 185.747429 
L 197.669902 185.747429 
z
" style="fill:#66c2a5;stroke:#66c2a5;stroke-linejoin:miter;"/>
   </g>
   <g id="patch_163">
    <path clip-path="url(#p5279fa12b6)" d="M 197.669902 183.752586 
L 207.644115 183.752586 
L 207.644115 173.778373 
L 197.669902 173.778373 
z
" style="fill:#66c2a5;stroke:#66c2a5;stroke-linejoin:miter;"/>
   </g>
   <g id="patch_164">
    <path clip-path="url(#p5279fa12b6)" d="M 197.669902 171.783531 
L 207.644115 171.783531 
L 207.644115 161.809318 
L 197.669902 161.809318 
z
" style="fill:#66c2a5;stroke:#66c2a5;stroke-linejoin:miter;"/>
   </g>
   <g id="patch_165">
    <path clip-path="url(#p5279fa12b6)" d="M 197.669902 159.814475 
L 207.644115 159.814475 
L 207.644115 149.840262 
L 197.669902 149.840262 
z
" style="fill:#fc8d62;stroke:#fc8d62;stroke-linejoin:miter;"/>
   </g>
   <g id="patch_166">
    <path clip-path="url(#p5279fa12b6)" d="M 209.638957 207.690697 
L 219.61317 207.690697 
L 219.61317 197.716484 
L 209.638957 197.716484 
z
" style="fill:#fc8d62;stroke:#fc8d62;stroke-linejoin:miter;"/>
   </g>
   <g id="patch_167">
    <path clip-path="url(#p5279fa12b6)" d="M 209.638957 195.721642 
L 219.61317 195.721642 
L 219.61317 185.747429 
L 209.638957 185.747429 
z
" style="fill:#fc8d62;stroke:#fc8d62;stroke-linejoin:miter;"/>
   </g>
   <g id="patch_168">
    <path clip-path="url(#p5279fa12b6)" d="M 209.638957 183.752586 
L 219.61317 183.752586 
L 219.61317 173.778373 
L 209.638957 173.778373 
z
" style="fill:#fc8d62;stroke:#fc8d62;stroke-linejoin:miter;"/>
   </g>
   <g id="patch_169">
    <path clip-path="url(#p5279fa12b6)" d="M 209.638957 171.783531 
L 219.61317 171.783531 
L 219.61317 161.809318 
L 209.638957 161.809318 
z
" style="fill:#fc8d62;stroke:#fc8d62;stroke-linejoin:miter;"/>
   </g>
   <g id="patch_170">
    <path clip-path="url(#p5279fa12b6)" d="M 209.638957 159.814475 
L 219.61317 159.814475 
L 219.61317 149.840262 
L 209.638957 149.840262 
z
" style="fill:#fc8d62;stroke:#fc8d62;stroke-linejoin:miter;"/>
   </g>
   <g id="patch_171">
    <path clip-path="url(#p5279fa12b6)" d="M 221.608013 207.690697 
L 231.582225 207.690697 
L 231.582225 197.716484 
L 221.608013 197.716484 
z
" style="fill:#fc8d62;stroke:#fc8d62;stroke-linejoin:miter;"/>
   </g>
   <g id="patch_172">
    <path clip-path="url(#p5279fa12b6)" d="M 221.608013 195.721642 
L 231.582225 195.721642 
L 231.582225 185.747429 
L 221.608013 185.747429 
z
" style="fill:#fc8d62;stroke:#fc8d62;stroke-linejoin:miter;"/>
   </g>
   <g id="patch_173">
    <path clip-path="url(#p5279fa12b6)" d="M 221.608013 183.752586 
L 231.582225 183.752586 
L 231.582225 173.778373 
L 221.608013 173.778373 
z
" style="fill:#fc8d62;stroke:#fc8d62;stroke-linejoin:miter;"/>
   </g>
   <g id="legend_3">
    <g id="patch_174">
     <path d="M 440.061326 187.196512 
L 621.644138 187.196512 
Q 623.644138 187.196512 623.644138 185.196512 
L 623.644138 156.840262 
Q 623.644138 154.840262 621.644138 154.840262 
L 440.061326 154.840262 
Q 438.061326 154.840262 438.061326 156.840262 
L 438.061326 185.196512 
Q 438.061326 187.196512 440.061326 187.196512 
z
" style="fill:#ffffff;opacity:0.8;stroke:#cccccc;stroke-linejoin:miter;"/>
    </g>
    <g id="patch_175">
     <path d="M 442.061326 166.4387 
L 462.061326 166.4387 
L 462.061326 159.4387 
L 442.061326 159.4387 
z
" style="fill:#66c2a5;stroke:#66c2a5;stroke-linejoin:miter;"/>
    </g>
    <g id="text_5">
     <!-- High school graduate or more -->
     <g transform="translate(470.061326 166.4387)scale(0.1 -0.1)">
      <use xlink:href="#DejaVuSans-48"/>
      <use x="75.195312" xlink:href="#DejaVuSans-69"/>
      <use x="102.978516" xlink:href="#DejaVuSans-67"/>
      <use x="166.455078" xlink:href="#DejaVuSans-68"/>
      <use x="229.833984" xlink:href="#DejaVuSans-20"/>
      <use x="261.621094" xlink:href="#DejaVuSans-73"/>
      <use x="313.720703" xlink:href="#DejaVuSans-63"/>
      <use x="368.701172" xlink:href="#DejaVuSans-68"/>
      <use x="432.080078" xlink:href="#DejaVuSans-6f"/>
      <use x="493.261719" xlink:href="#DejaVuSans-6f"/>
      <use x="554.443359" xlink:href="#DejaVuSans-6c"/>
      <use x="582.226562" xlink:href="#DejaVuSans-20"/>
      <use x="614.013672" xlink:href="#DejaVuSans-67"/>
      <use x="677.490234" xlink:href="#DejaVuSans-72"/>
      <use x="718.603516" xlink:href="#DejaVuSans-61"/>
      <use x="779.882812" xlink:href="#DejaVuSans-64"/>
      <use x="843.359375" xlink:href="#DejaVuSans-75"/>
      <use x="906.738281" xlink:href="#DejaVuSans-61"/>
      <use x="968.017578" xlink:href="#DejaVuSans-74"/>
      <use x="1007.226562" xlink:href="#DejaVuSans-65"/>
      <use x="1068.75" xlink:href="#DejaVuSans-20"/>
      <use x="1100.537109" xlink:href="#DejaVuSans-6f"/>
      <use x="1161.71875" xlink:href="#DejaVuSans-72"/>
      <use x="1202.832031" xlink:href="#DejaVuSans-20"/>
      <use x="1234.619141" xlink:href="#DejaVuSans-6d"/>
      <use x="1332.03125" xlink:href="#DejaVuSans-6f"/>
      <use x="1393.212891" xlink:href="#DejaVuSans-72"/>
      <use x="1434.294922" xlink:href="#DejaVuSans-65"/>
     </g>
    </g>
    <g id="patch_176">
     <path d="M 442.061326 181.116825 
L 462.061326 181.116825 
L 462.061326 174.116825 
L 442.061326 174.116825 
z
" style="fill:#fc8d62;stroke:#fc8d62;stroke-linejoin:miter;"/>
    </g>
    <g id="text_6">
     <!-- Below high school -->
     <g transform="translate(470.061326 181.116825)scale(0.1 -0.1)">
      <use xlink:href="#DejaVuSans-42"/>
      <use x="68.603516" xlink:href="#DejaVuSans-65"/>
      <use x="130.126953" xlink:href="#DejaVuSans-6c"/>
      <use x="157.910156" xlink:href="#DejaVuSans-6f"/>
      <use x="219.091797" xlink:href="#DejaVuSans-77"/>
      <use x="300.878906" xlink:href="#DejaVuSans-20"/>
      <use x="332.666016" xlink:href="#DejaVuSans-68"/>
      <use x="396.044922" xlink:href="#DejaVuSans-69"/>
      <use x="423.828125" xlink:href="#DejaVuSans-67"/>
      <use x="487.304688" xlink:href="#DejaVuSans-68"/>
      <use x="550.683594" xlink:href="#DejaVuSans-20"/>
      <use x="582.470703" xlink:href="#DejaVuSans-73"/>
      <use x="634.570312" xlink:href="#DejaVuSans-63"/>
      <use x="689.550781" xlink:href="#DejaVuSans-68"/>
      <use x="752.929688" xlink:href="#DejaVuSans-6f"/>
      <use x="814.111328" xlink:href="#DejaVuSans-6f"/>
      <use x="875.292969" xlink:href="#DejaVuSans-6c"/>
     </g>
    </g>
   </g>
  </g>
  <g id="axes_4">
   <g id="patch_177">
    <path clip-path="url(#pc18f966290)" d="M 30.103125 277.111219 
L 40.077338 277.111219 
L 40.077338 267.137006 
L 30.103125 267.137006 
z
" style="fill:#66c2a5;stroke:#66c2a5;stroke-linejoin:miter;"/>
   </g>
   <g id="patch_178">
    <path clip-path="url(#pc18f966290)" d="M 30.103125 265.142163 
L 40.077338 265.142163 
L 40.077338 255.16795 
L 30.103125 255.16795 
z
" style="fill:#66c2a5;stroke:#66c2a5;stroke-linejoin:miter;"/>
   </g>
   <g id="patch_179">
    <path clip-path="url(#pc18f966290)" d="M 30.103125 253.173108 
L 40.077338 253.173108 
L 40.077338 243.198895 
L 30.103125 243.198895 
z
" style="fill:#66c2a5;stroke:#66c2a5;stroke-linejoin:miter;"/>
   </g>
   <g id="patch_180">
    <path clip-path="url(#pc18f966290)" d="M 30.103125 241.204052 
L 40.077338 241.204052 
L 40.077338 231.229839 
L 30.103125 231.229839 
z
" style="fill:#66c2a5;stroke:#66c2a5;stroke-linejoin:miter;"/>
   </g>
   <g id="patch_181">
    <path clip-path="url(#pc18f966290)" d="M 30.103125 229.234997 
L 40.077338 229.234997 
L 40.077338 219.260784 
L 30.103125 219.260784 
z
" style="fill:#66c2a5;stroke:#66c2a5;stroke-linejoin:miter;"/>
   </g>
   <g id="patch_182">
    <path clip-path="url(#pc18f966290)" d="M 42.07218 277.111219 
L 52.046393 277.111219 
L 52.046393 267.137006 
L 42.07218 267.137006 
z
" style="fill:#66c2a5;stroke:#66c2a5;stroke-linejoin:miter;"/>
   </g>
   <g id="patch_183">
    <path clip-path="url(#pc18f966290)" d="M 42.07218 265.142163 
L 52.046393 265.142163 
L 52.046393 255.16795 
L 42.07218 255.16795 
z
" style="fill:#66c2a5;stroke:#66c2a5;stroke-linejoin:miter;"/>
   </g>
   <g id="patch_184">
    <path clip-path="url(#pc18f966290)" d="M 42.07218 253.173108 
L 52.046393 253.173108 
L 52.046393 243.198895 
L 42.07218 243.198895 
z
" style="fill:#66c2a5;stroke:#66c2a5;stroke-linejoin:miter;"/>
   </g>
   <g id="patch_185">
    <path clip-path="url(#pc18f966290)" d="M 42.07218 241.204052 
L 52.046393 241.204052 
L 52.046393 231.229839 
L 42.07218 231.229839 
z
" style="fill:#66c2a5;stroke:#66c2a5;stroke-linejoin:miter;"/>
   </g>
   <g id="patch_186">
    <path clip-path="url(#pc18f966290)" d="M 42.07218 229.234997 
L 52.046393 229.234997 
L 52.046393 219.260784 
L 42.07218 219.260784 
z
" style="fill:#66c2a5;stroke:#66c2a5;stroke-linejoin:miter;"/>
   </g>
   <g id="patch_187">
    <path clip-path="url(#pc18f966290)" d="M 54.041236 277.111219 
L 64.015449 277.111219 
L 64.015449 267.137006 
L 54.041236 267.137006 
z
" style="fill:#66c2a5;stroke:#66c2a5;stroke-linejoin:miter;"/>
   </g>
   <g id="patch_188">
    <path clip-path="url(#pc18f966290)" d="M 54.041236 265.142163 
L 64.015449 265.142163 
L 64.015449 255.16795 
L 54.041236 255.16795 
z
" style="fill:#66c2a5;stroke:#66c2a5;stroke-linejoin:miter;"/>
   </g>
   <g id="patch_189">
    <path clip-path="url(#pc18f966290)" d="M 54.041236 253.173108 
L 64.015449 253.173108 
L 64.015449 243.198895 
L 54.041236 243.198895 
z
" style="fill:#66c2a5;stroke:#66c2a5;stroke-linejoin:miter;"/>
   </g>
   <g id="patch_190">
    <path clip-path="url(#pc18f966290)" d="M 54.041236 241.204052 
L 64.015449 241.204052 
L 64.015449 231.229839 
L 54.041236 231.229839 
z
" style="fill:#66c2a5;stroke:#66c2a5;stroke-linejoin:miter;"/>
   </g>
   <g id="patch_191">
    <path clip-path="url(#pc18f966290)" d="M 54.041236 229.234997 
L 64.015449 229.234997 
L 64.015449 219.260784 
L 54.041236 219.260784 
z
" style="fill:#66c2a5;stroke:#66c2a5;stroke-linejoin:miter;"/>
   </g>
   <g id="patch_192">
    <path clip-path="url(#pc18f966290)" d="M 66.010291 277.111219 
L 75.984504 277.111219 
L 75.984504 267.137006 
L 66.010291 267.137006 
z
" style="fill:#66c2a5;stroke:#66c2a5;stroke-linejoin:miter;"/>
   </g>
   <g id="patch_193">
    <path clip-path="url(#pc18f966290)" d="M 66.010291 265.142163 
L 75.984504 265.142163 
L 75.984504 255.16795 
L 66.010291 255.16795 
z
" style="fill:#66c2a5;stroke:#66c2a5;stroke-linejoin:miter;"/>
   </g>
   <g id="patch_194">
    <path clip-path="url(#pc18f966290)" d="M 66.010291 253.173108 
L 75.984504 253.173108 
L 75.984504 243.198895 
L 66.010291 243.198895 
z
" style="fill:#66c2a5;stroke:#66c2a5;stroke-linejoin:miter;"/>
   </g>
   <g id="patch_195">
    <path clip-path="url(#pc18f966290)" d="M 66.010291 241.204052 
L 75.984504 241.204052 
L 75.984504 231.229839 
L 66.010291 231.229839 
z
" style="fill:#66c2a5;stroke:#66c2a5;stroke-linejoin:miter;"/>
   </g>
   <g id="patch_196">
    <path clip-path="url(#pc18f966290)" d="M 66.010291 229.234997 
L 75.984504 229.234997 
L 75.984504 219.260784 
L 66.010291 219.260784 
z
" style="fill:#66c2a5;stroke:#66c2a5;stroke-linejoin:miter;"/>
   </g>
   <g id="patch_197">
    <path clip-path="url(#pc18f966290)" d="M 77.979347 277.111219 
L 87.95356 277.111219 
L 87.95356 267.137006 
L 77.979347 267.137006 
z
" style="fill:#66c2a5;stroke:#66c2a5;stroke-linejoin:miter;"/>
   </g>
   <g id="patch_198">
    <path clip-path="url(#pc18f966290)" d="M 77.979347 265.142163 
L 87.95356 265.142163 
L 87.95356 255.16795 
L 77.979347 255.16795 
z
" style="fill:#66c2a5;stroke:#66c2a5;stroke-linejoin:miter;"/>
   </g>
   <g id="patch_199">
    <path clip-path="url(#pc18f966290)" d="M 77.979347 253.173108 
L 87.95356 253.173108 
L 87.95356 243.198895 
L 77.979347 243.198895 
z
" style="fill:#66c2a5;stroke:#66c2a5;stroke-linejoin:miter;"/>
   </g>
   <g id="patch_200">
    <path clip-path="url(#pc18f966290)" d="M 77.979347 241.204052 
L 87.95356 241.204052 
L 87.95356 231.229839 
L 77.979347 231.229839 
z
" style="fill:#66c2a5;stroke:#66c2a5;stroke-linejoin:miter;"/>
   </g>
   <g id="patch_201">
    <path clip-path="url(#pc18f966290)" d="M 77.979347 229.234997 
L 87.95356 229.234997 
L 87.95356 219.260784 
L 77.979347 219.260784 
z
" style="fill:#66c2a5;stroke:#66c2a5;stroke-linejoin:miter;"/>
   </g>
   <g id="patch_202">
    <path clip-path="url(#pc18f966290)" d="M 89.948402 277.111219 
L 99.922615 277.111219 
L 99.922615 267.137006 
L 89.948402 267.137006 
z
" style="fill:#66c2a5;stroke:#66c2a5;stroke-linejoin:miter;"/>
   </g>
   <g id="patch_203">
    <path clip-path="url(#pc18f966290)" d="M 89.948402 265.142163 
L 99.922615 265.142163 
L 99.922615 255.16795 
L 89.948402 255.16795 
z
" style="fill:#66c2a5;stroke:#66c2a5;stroke-linejoin:miter;"/>
   </g>
   <g id="patch_204">
    <path clip-path="url(#pc18f966290)" d="M 89.948402 253.173108 
L 99.922615 253.173108 
L 99.922615 243.198895 
L 89.948402 243.198895 
z
" style="fill:#66c2a5;stroke:#66c2a5;stroke-linejoin:miter;"/>
   </g>
   <g id="patch_205">
    <path clip-path="url(#pc18f966290)" d="M 89.948402 241.204052 
L 99.922615 241.204052 
L 99.922615 231.229839 
L 89.948402 231.229839 
z
" style="fill:#66c2a5;stroke:#66c2a5;stroke-linejoin:miter;"/>
   </g>
   <g id="patch_206">
    <path clip-path="url(#pc18f966290)" d="M 89.948402 229.234997 
L 99.922615 229.234997 
L 99.922615 219.260784 
L 89.948402 219.260784 
z
" style="fill:#66c2a5;stroke:#66c2a5;stroke-linejoin:miter;"/>
   </g>
   <g id="patch_207">
    <path clip-path="url(#pc18f966290)" d="M 101.917458 277.111219 
L 111.891671 277.111219 
L 111.891671 267.137006 
L 101.917458 267.137006 
z
" style="fill:#66c2a5;stroke:#66c2a5;stroke-linejoin:miter;"/>
   </g>
   <g id="patch_208">
    <path clip-path="url(#pc18f966290)" d="M 101.917458 265.142163 
L 111.891671 265.142163 
L 111.891671 255.16795 
L 101.917458 255.16795 
z
" style="fill:#66c2a5;stroke:#66c2a5;stroke-linejoin:miter;"/>
   </g>
   <g id="patch_209">
    <path clip-path="url(#pc18f966290)" d="M 101.917458 253.173108 
L 111.891671 253.173108 
L 111.891671 243.198895 
L 101.917458 243.198895 
z
" style="fill:#66c2a5;stroke:#66c2a5;stroke-linejoin:miter;"/>
   </g>
   <g id="patch_210">
    <path clip-path="url(#pc18f966290)" d="M 101.917458 241.204052 
L 111.891671 241.204052 
L 111.891671 231.229839 
L 101.917458 231.229839 
z
" style="fill:#66c2a5;stroke:#66c2a5;stroke-linejoin:miter;"/>
   </g>
   <g id="patch_211">
    <path clip-path="url(#pc18f966290)" d="M 101.917458 229.234997 
L 111.891671 229.234997 
L 111.891671 219.260784 
L 101.917458 219.260784 
z
" style="fill:#66c2a5;stroke:#66c2a5;stroke-linejoin:miter;"/>
   </g>
   <g id="patch_212">
    <path clip-path="url(#pc18f966290)" d="M 113.886513 277.111219 
L 123.860726 277.111219 
L 123.860726 267.137006 
L 113.886513 267.137006 
z
" style="fill:#66c2a5;stroke:#66c2a5;stroke-linejoin:miter;"/>
   </g>
   <g id="patch_213">
    <path clip-path="url(#pc18f966290)" d="M 113.886513 265.142163 
L 123.860726 265.142163 
L 123.860726 255.16795 
L 113.886513 255.16795 
z
" style="fill:#66c2a5;stroke:#66c2a5;stroke-linejoin:miter;"/>
   </g>
   <g id="patch_214">
    <path clip-path="url(#pc18f966290)" d="M 113.886513 253.173108 
L 123.860726 253.173108 
L 123.860726 243.198895 
L 113.886513 243.198895 
z
" style="fill:#66c2a5;stroke:#66c2a5;stroke-linejoin:miter;"/>
   </g>
   <g id="patch_215">
    <path clip-path="url(#pc18f966290)" d="M 113.886513 241.204052 
L 123.860726 241.204052 
L 123.860726 231.229839 
L 113.886513 231.229839 
z
" style="fill:#66c2a5;stroke:#66c2a5;stroke-linejoin:miter;"/>
   </g>
   <g id="patch_216">
    <path clip-path="url(#pc18f966290)" d="M 113.886513 229.234997 
L 123.860726 229.234997 
L 123.860726 219.260784 
L 113.886513 219.260784 
z
" style="fill:#66c2a5;stroke:#66c2a5;stroke-linejoin:miter;"/>
   </g>
   <g id="patch_217">
    <path clip-path="url(#pc18f966290)" d="M 125.855569 277.111219 
L 135.829782 277.111219 
L 135.829782 267.137006 
L 125.855569 267.137006 
z
" style="fill:#66c2a5;stroke:#66c2a5;stroke-linejoin:miter;"/>
   </g>
   <g id="patch_218">
    <path clip-path="url(#pc18f966290)" d="M 125.855569 265.142163 
L 135.829782 265.142163 
L 135.829782 255.16795 
L 125.855569 255.16795 
z
" style="fill:#fc8d62;stroke:#fc8d62;stroke-linejoin:miter;"/>
   </g>
   <g id="patch_219">
    <path clip-path="url(#pc18f966290)" d="M 125.855569 253.173108 
L 135.829782 253.173108 
L 135.829782 243.198895 
L 125.855569 243.198895 
z
" style="fill:#fc8d62;stroke:#fc8d62;stroke-linejoin:miter;"/>
   </g>
   <g id="patch_220">
    <path clip-path="url(#pc18f966290)" d="M 125.855569 241.204052 
L 135.829782 241.204052 
L 135.829782 231.229839 
L 125.855569 231.229839 
z
" style="fill:#fc8d62;stroke:#fc8d62;stroke-linejoin:miter;"/>
   </g>
   <g id="patch_221">
    <path clip-path="url(#pc18f966290)" d="M 125.855569 229.234997 
L 135.829782 229.234997 
L 135.829782 219.260784 
L 125.855569 219.260784 
z
" style="fill:#fc8d62;stroke:#fc8d62;stroke-linejoin:miter;"/>
   </g>
   <g id="patch_222">
    <path clip-path="url(#pc18f966290)" d="M 137.824624 277.111219 
L 147.798837 277.111219 
L 147.798837 267.137006 
L 137.824624 267.137006 
z
" style="fill:#fc8d62;stroke:#fc8d62;stroke-linejoin:miter;"/>
   </g>
   <g id="legend_4">
    <g id="patch_223">
     <path d="M 272.494549 256.617034 
L 454.077362 256.617034 
Q 456.077362 256.617034 456.077362 254.617034 
L 456.077362 226.260784 
Q 456.077362 224.260784 454.077362 224.260784 
L 272.494549 224.260784 
Q 270.494549 224.260784 270.494549 226.260784 
L 270.494549 254.617034 
Q 270.494549 256.617034 272.494549 256.617034 
z
" style="fill:#ffffff;opacity:0.8;stroke:#cccccc;stroke-linejoin:miter;"/>
    </g>
    <g id="patch_224">
     <path d="M 274.494549 235.859221 
L 294.494549 235.859221 
L 294.494549 228.859221 
L 274.494549 228.859221 
z
" style="fill:#66c2a5;stroke:#66c2a5;stroke-linejoin:miter;"/>
    </g>
    <g id="text_7">
     <!-- High school graduate or more -->
     <g transform="translate(302.494549 235.859221)scale(0.1 -0.1)">
      <use xlink:href="#DejaVuSans-48"/>
      <use x="75.195312" xlink:href="#DejaVuSans-69"/>
      <use x="102.978516" xlink:href="#DejaVuSans-67"/>
      <use x="166.455078" xlink:href="#DejaVuSans-68"/>
      <use x="229.833984" xlink:href="#DejaVuSans-20"/>
      <use x="261.621094" xlink:href="#DejaVuSans-73"/>
      <use x="313.720703" xlink:href="#DejaVuSans-63"/>
      <use x="368.701172" xlink:href="#DejaVuSans-68"/>
      <use x="432.080078" xlink:href="#DejaVuSans-6f"/>
      <use x="493.261719" xlink:href="#DejaVuSans-6f"/>
      <use x="554.443359" xlink:href="#DejaVuSans-6c"/>
      <use x="582.226562" xlink:href="#DejaVuSans-20"/>
      <use x="614.013672" xlink:href="#DejaVuSans-67"/>
      <use x="677.490234" xlink:href="#DejaVuSans-72"/>
      <use x="718.603516" xlink:href="#DejaVuSans-61"/>
      <use x="779.882812" xlink:href="#DejaVuSans-64"/>
      <use x="843.359375" xlink:href="#DejaVuSans-75"/>
      <use x="906.738281" xlink:href="#DejaVuSans-61"/>
      <use x="968.017578" xlink:href="#DejaVuSans-74"/>
      <use x="1007.226562" xlink:href="#DejaVuSans-65"/>
      <use x="1068.75" xlink:href="#DejaVuSans-20"/>
      <use x="1100.537109" xlink:href="#DejaVuSans-6f"/>
      <use x="1161.71875" xlink:href="#DejaVuSans-72"/>
      <use x="1202.832031" xlink:href="#DejaVuSans-20"/>
      <use x="1234.619141" xlink:href="#DejaVuSans-6d"/>
      <use x="1332.03125" xlink:href="#DejaVuSans-6f"/>
      <use x="1393.212891" xlink:href="#DejaVuSans-72"/>
      <use x="1434.294922" xlink:href="#DejaVuSans-65"/>
     </g>
    </g>
    <g id="patch_225">
     <path d="M 274.494549 250.537346 
L 294.494549 250.537346 
L 294.494549 243.537346 
L 274.494549 243.537346 
z
" style="fill:#fc8d62;stroke:#fc8d62;stroke-linejoin:miter;"/>
    </g>
    <g id="text_8">
     <!-- Below high school -->
     <g transform="translate(302.494549 250.537346)scale(0.1 -0.1)">
      <use xlink:href="#DejaVuSans-42"/>
      <use x="68.603516" xlink:href="#DejaVuSans-65"/>
      <use x="130.126953" xlink:href="#DejaVuSans-6c"/>
      <use x="157.910156" xlink:href="#DejaVuSans-6f"/>
      <use x="219.091797" xlink:href="#DejaVuSans-77"/>
      <use x="300.878906" xlink:href="#DejaVuSans-20"/>
      <use x="332.666016" xlink:href="#DejaVuSans-68"/>
      <use x="396.044922" xlink:href="#DejaVuSans-69"/>
      <use x="423.828125" xlink:href="#DejaVuSans-67"/>
      <use x="487.304688" xlink:href="#DejaVuSans-68"/>
      <use x="550.683594" xlink:href="#DejaVuSans-20"/>
      <use x="582.470703" xlink:href="#DejaVuSans-73"/>
      <use x="634.570312" xlink:href="#DejaVuSans-63"/>
      <use x="689.550781" xlink:href="#DejaVuSans-68"/>
      <use x="752.929688" xlink:href="#DejaVuSans-6f"/>
      <use x="814.111328" xlink:href="#DejaVuSans-6f"/>
      <use x="875.292969" xlink:href="#DejaVuSans-6c"/>
     </g>
    </g>
   </g>
  </g>
 </g>
 <defs>
  <clipPath id="pa4035e86e5">
   <rect height="57.850435" width="105.726657" x="30.103125" y="10.999219"/>
  </clipPath>
  <clipPath id="p8f14a71fb7">
   <rect height="57.850435" width="93.757601" x="30.103125" y="80.41974"/>
  </clipPath>
  <clipPath id="p5279fa12b6">
   <rect height="57.850435" width="201.4791" x="30.103125" y="149.840262"/>
  </clipPath>
  <clipPath id="pc18f966290">
   <rect height="57.850435" width="117.695712" x="30.103125" y="219.260784"/>
  </clipPath>
 </defs>
</svg>
