<?xml version="1.0" encoding="utf-8" standalone="no"?>
<!DOCTYPE svg PUBLIC "-//W3C//DTD SVG 1.1//EN"
  "http://www.w3.org/Graphics/SVG/1.1/DTD/svg11.dtd">
<!-- Created with matplotlib (http://matplotlib.org/) -->
<svg height="300pt" version="1.1" viewBox="0 0 262 300" width="262pt" xmlns="http://www.w3.org/2000/svg" xmlns:xlink="http://www.w3.org/1999/xlink">
 <defs>
  <style type="text/css">
*{stroke-linecap:butt;stroke-linejoin:round;}
  </style>
 </defs>
 <g id="figure_1">
  <g id="patch_1">
   <path d="M 0 300.989344 
L 262.343562 300.989344 
L 262.343562 0 
L 0 0 
z
" style="fill:#ffffff;"/>
  </g>
  <g id="axes_1">
   <g id="patch_2">
    <path clip-path="url(#p2e891713a4)" d="M 98.040684 68.849654 
L 108.014896 68.849654 
L 108.014896 58.875441 
L 98.040684 58.875441 
z
" style="fill:#66c2a5;stroke:#66c2a5;stroke-linejoin:miter;"/>
   </g>
   <g id="patch_3">
    <path clip-path="url(#p2e891713a4)" d="M 98.040684 56.880598 
L 108.014896 56.880598 
L 108.014896 46.906385 
L 98.040684 46.906385 
z
" style="fill:#66c2a5;stroke:#66c2a5;stroke-linejoin:miter;"/>
   </g>
   <g id="patch_4">
    <path clip-path="url(#p2e891713a4)" d="M 98.040684 44.911543 
L 108.014896 44.911543 
L 108.014896 34.93733 
L 98.040684 34.93733 
z
" style="fill:#66c2a5;stroke:#66c2a5;stroke-linejoin:miter;"/>
   </g>
   <g id="patch_5">
    <path clip-path="url(#p2e891713a4)" d="M 98.040684 32.942487 
L 108.014896 32.942487 
L 108.014896 22.968274 
L 98.040684 22.968274 
z
" style="fill:#66c2a5;stroke:#66c2a5;stroke-linejoin:miter;"/>
   </g>
   <g id="patch_6">
    <path clip-path="url(#p2e891713a4)" d="M 98.040684 20.973432 
L 108.014896 20.973432 
L 108.014896 10.999219 
L 98.040684 10.999219 
z
" style="fill:#66c2a5;stroke:#66c2a5;stroke-linejoin:miter;"/>
   </g>
   <g id="patch_7">
    <path clip-path="url(#p2e891713a4)" d="M 110.009739 68.849654 
L 119.983952 68.849654 
L 119.983952 58.875441 
L 110.009739 58.875441 
z
" style="fill:#66c2a5;stroke:#66c2a5;stroke-linejoin:miter;"/>
   </g>
   <g id="patch_8">
    <path clip-path="url(#p2e891713a4)" d="M 110.009739 56.880598 
L 119.983952 56.880598 
L 119.983952 46.906385 
L 110.009739 46.906385 
z
" style="fill:#66c2a5;stroke:#66c2a5;stroke-linejoin:miter;"/>
   </g>
   <g id="patch_9">
    <path clip-path="url(#p2e891713a4)" d="M 110.009739 44.911543 
L 119.983952 44.911543 
L 119.983952 34.93733 
L 110.009739 34.93733 
z
" style="fill:#66c2a5;stroke:#66c2a5;stroke-linejoin:miter;"/>
   </g>
   <g id="patch_10">
    <path clip-path="url(#p2e891713a4)" d="M 110.009739 32.942487 
L 119.983952 32.942487 
L 119.983952 22.968274 
L 110.009739 22.968274 
z
" style="fill:#66c2a5;stroke:#66c2a5;stroke-linejoin:miter;"/>
   </g>
   <g id="patch_11">
    <path clip-path="url(#p2e891713a4)" d="M 110.009739 20.973432 
L 119.983952 20.973432 
L 119.983952 10.999219 
L 110.009739 10.999219 
z
" style="fill:#66c2a5;stroke:#66c2a5;stroke-linejoin:miter;"/>
   </g>
   <g id="patch_12">
    <path clip-path="url(#p2e891713a4)" d="M 121.978795 68.849654 
L 131.953007 68.849654 
L 131.953007 58.875441 
L 121.978795 58.875441 
z
" style="fill:#66c2a5;stroke:#66c2a5;stroke-linejoin:miter;"/>
   </g>
   <g id="patch_13">
    <path clip-path="url(#p2e891713a4)" d="M 121.978795 56.880598 
L 131.953007 56.880598 
L 131.953007 46.906385 
L 121.978795 46.906385 
z
" style="fill:#66c2a5;stroke:#66c2a5;stroke-linejoin:miter;"/>
   </g>
   <g id="patch_14">
    <path clip-path="url(#p2e891713a4)" d="M 121.978795 44.911543 
L 131.953007 44.911543 
L 131.953007 34.93733 
L 121.978795 34.93733 
z
" style="fill:#66c2a5;stroke:#66c2a5;stroke-linejoin:miter;"/>
   </g>
   <g id="patch_15">
    <path clip-path="url(#p2e891713a4)" d="M 121.978795 32.942487 
L 131.953007 32.942487 
L 131.953007 22.968274 
L 121.978795 22.968274 
z
" style="fill:#66c2a5;stroke:#66c2a5;stroke-linejoin:miter;"/>
   </g>
   <g id="patch_16">
    <path clip-path="url(#p2e891713a4)" d="M 121.978795 20.973432 
L 131.953007 20.973432 
L 131.953007 10.999219 
L 121.978795 10.999219 
z
" style="fill:#66c2a5;stroke:#66c2a5;stroke-linejoin:miter;"/>
   </g>
   <g id="patch_17">
    <path clip-path="url(#p2e891713a4)" d="M 133.94785 68.849654 
L 143.922063 68.849654 
L 143.922063 58.875441 
L 133.94785 58.875441 
z
" style="fill:#66c2a5;stroke:#66c2a5;stroke-linejoin:miter;"/>
   </g>
   <g id="patch_18">
    <path clip-path="url(#p2e891713a4)" d="M 133.94785 56.880598 
L 143.922063 56.880598 
L 143.922063 46.906385 
L 133.94785 46.906385 
z
" style="fill:#66c2a5;stroke:#66c2a5;stroke-linejoin:miter;"/>
   </g>
   <g id="patch_19">
    <path clip-path="url(#p2e891713a4)" d="M 133.94785 44.911543 
L 143.922063 44.911543 
L 143.922063 34.93733 
L 133.94785 34.93733 
z
" style="fill:#66c2a5;stroke:#66c2a5;stroke-linejoin:miter;"/>
   </g>
   <g id="patch_20">
    <path clip-path="url(#p2e891713a4)" d="M 133.94785 32.942487 
L 143.922063 32.942487 
L 143.922063 22.968274 
L 133.94785 22.968274 
z
" style="fill:#66c2a5;stroke:#66c2a5;stroke-linejoin:miter;"/>
   </g>
   <g id="patch_21">
    <path clip-path="url(#p2e891713a4)" d="M 133.94785 20.973432 
L 143.922063 20.973432 
L 143.922063 10.999219 
L 133.94785 10.999219 
z
" style="fill:#66c2a5;stroke:#66c2a5;stroke-linejoin:miter;"/>
   </g>
   <g id="patch_22">
    <path clip-path="url(#p2e891713a4)" d="M 145.916905 68.849654 
L 155.891118 68.849654 
L 155.891118 58.875441 
L 145.916905 58.875441 
z
" style="fill:#66c2a5;stroke:#66c2a5;stroke-linejoin:miter;"/>
   </g>
   <g id="patch_23">
    <path clip-path="url(#p2e891713a4)" d="M 145.916905 56.880598 
L 155.891118 56.880598 
L 155.891118 46.906385 
L 145.916905 46.906385 
z
" style="fill:#66c2a5;stroke:#66c2a5;stroke-linejoin:miter;"/>
   </g>
   <g id="patch_24">
    <path clip-path="url(#p2e891713a4)" d="M 145.916905 44.911543 
L 155.891118 44.911543 
L 155.891118 34.93733 
L 145.916905 34.93733 
z
" style="fill:#66c2a5;stroke:#66c2a5;stroke-linejoin:miter;"/>
   </g>
   <g id="patch_25">
    <path clip-path="url(#p2e891713a4)" d="M 145.916905 32.942487 
L 155.891118 32.942487 
L 155.891118 22.968274 
L 145.916905 22.968274 
z
" style="fill:#66c2a5;stroke:#66c2a5;stroke-linejoin:miter;"/>
   </g>
   <g id="patch_26">
    <path clip-path="url(#p2e891713a4)" d="M 145.916905 20.973432 
L 155.891118 20.973432 
L 155.891118 10.999219 
L 145.916905 10.999219 
z
" style="fill:#66c2a5;stroke:#66c2a5;stroke-linejoin:miter;"/>
   </g>
   <g id="patch_27">
    <path clip-path="url(#p2e891713a4)" d="M 157.885961 68.849654 
L 167.860174 68.849654 
L 167.860174 58.875441 
L 157.885961 58.875441 
z
" style="fill:#66c2a5;stroke:#66c2a5;stroke-linejoin:miter;"/>
   </g>
   <g id="patch_28">
    <path clip-path="url(#p2e891713a4)" d="M 157.885961 56.880598 
L 167.860174 56.880598 
L 167.860174 46.906385 
L 157.885961 46.906385 
z
" style="fill:#66c2a5;stroke:#66c2a5;stroke-linejoin:miter;"/>
   </g>
   <g id="patch_29">
    <path clip-path="url(#p2e891713a4)" d="M 157.885961 44.911543 
L 167.860174 44.911543 
L 167.860174 34.93733 
L 157.885961 34.93733 
z
" style="fill:#66c2a5;stroke:#66c2a5;stroke-linejoin:miter;"/>
   </g>
   <g id="patch_30">
    <path clip-path="url(#p2e891713a4)" d="M 157.885961 32.942487 
L 167.860174 32.942487 
L 167.860174 22.968274 
L 157.885961 22.968274 
z
" style="fill:#66c2a5;stroke:#66c2a5;stroke-linejoin:miter;"/>
   </g>
   <g id="patch_31">
    <path clip-path="url(#p2e891713a4)" d="M 157.885961 20.973432 
L 167.860174 20.973432 
L 167.860174 10.999219 
L 157.885961 10.999219 
z
" style="fill:#66c2a5;stroke:#66c2a5;stroke-linejoin:miter;"/>
   </g>
   <g id="patch_32">
    <path clip-path="url(#p2e891713a4)" d="M 169.855016 68.849654 
L 179.829229 68.849654 
L 179.829229 58.875441 
L 169.855016 58.875441 
z
" style="fill:#66c2a5;stroke:#66c2a5;stroke-linejoin:miter;"/>
   </g>
   <g id="patch_33">
    <path clip-path="url(#p2e891713a4)" d="M 169.855016 56.880598 
L 179.829229 56.880598 
L 179.829229 46.906385 
L 169.855016 46.906385 
z
" style="fill:#66c2a5;stroke:#66c2a5;stroke-linejoin:miter;"/>
   </g>
   <g id="patch_34">
    <path clip-path="url(#p2e891713a4)" d="M 169.855016 44.911543 
L 179.829229 44.911543 
L 179.829229 34.93733 
L 169.855016 34.93733 
z
" style="fill:#66c2a5;stroke:#66c2a5;stroke-linejoin:miter;"/>
   </g>
   <g id="patch_35">
    <path clip-path="url(#p2e891713a4)" d="M 169.855016 32.942487 
L 179.829229 32.942487 
L 179.829229 22.968274 
L 169.855016 22.968274 
z
" style="fill:#66c2a5;stroke:#66c2a5;stroke-linejoin:miter;"/>
   </g>
   <g id="patch_36">
    <path clip-path="url(#p2e891713a4)" d="M 169.855016 20.973432 
L 179.829229 20.973432 
L 179.829229 10.999219 
L 169.855016 10.999219 
z
" style="fill:#66c2a5;stroke:#66c2a5;stroke-linejoin:miter;"/>
   </g>
   <g id="patch_37">
    <path clip-path="url(#p2e891713a4)" d="M 181.824072 68.849654 
L 191.798285 68.849654 
L 191.798285 58.875441 
L 181.824072 58.875441 
z
" style="fill:#66c2a5;stroke:#66c2a5;stroke-linejoin:miter;"/>
   </g>
   <g id="patch_38">
    <path clip-path="url(#p2e891713a4)" d="M 181.824072 56.880598 
L 191.798285 56.880598 
L 191.798285 46.906385 
L 181.824072 46.906385 
z
" style="fill:#66c2a5;stroke:#66c2a5;stroke-linejoin:miter;"/>
   </g>
   <g id="patch_39">
    <path clip-path="url(#p2e891713a4)" d="M 181.824072 44.911543 
L 191.798285 44.911543 
L 191.798285 34.93733 
L 181.824072 34.93733 
z
" style="fill:#66c2a5;stroke:#66c2a5;stroke-linejoin:miter;"/>
   </g>
   <g id="patch_40">
    <path clip-path="url(#p2e891713a4)" d="M 181.824072 32.942487 
L 191.798285 32.942487 
L 191.798285 22.968274 
L 181.824072 22.968274 
z
" style="fill:#66c2a5;stroke:#66c2a5;stroke-linejoin:miter;"/>
   </g>
   <g id="patch_41">
    <path clip-path="url(#p2e891713a4)" d="M 181.824072 20.973432 
L 191.798285 20.973432 
L 191.798285 10.999219 
L 181.824072 10.999219 
z
" style="fill:#fc8d62;stroke:#fc8d62;stroke-linejoin:miter;"/>
   </g>
   <g id="patch_42">
    <path clip-path="url(#p2e891713a4)" d="M 193.793127 68.849654 
L 203.76734 68.849654 
L 203.76734 58.875441 
L 193.793127 58.875441 
z
" style="fill:#fc8d62;stroke:#fc8d62;stroke-linejoin:miter;"/>
   </g>
   <g id="patch_43">
    <path clip-path="url(#p2e891713a4)" d="M 193.793127 56.880598 
L 203.76734 56.880598 
L 203.76734 46.906385 
L 193.793127 46.906385 
z
" style="fill:#fc8d62;stroke:#fc8d62;stroke-linejoin:miter;"/>
   </g>
   <g id="patch_44">
    <path clip-path="url(#p2e891713a4)" d="M 193.793127 44.911543 
L 203.76734 44.911543 
L 203.76734 34.93733 
L 193.793127 34.93733 
z
" style="fill:#fc8d62;stroke:#fc8d62;stroke-linejoin:miter;"/>
   </g>
   <g id="legend_1">
    <g id="patch_45">
     <path d="M 15.184528 48.355469 
L 196.76734 48.355469 
Q 198.76734 48.355469 198.76734 46.355469 
L 198.76734 17.999219 
Q 198.76734 15.999219 196.76734 15.999219 
L 15.184528 15.999219 
Q 13.184528 15.999219 13.184528 17.999219 
L 13.184528 46.355469 
Q 13.184528 48.355469 15.184528 48.355469 
z
" style="fill:#ffffff;opacity:0.8;stroke:#cccccc;stroke-linejoin:miter;"/>
    </g>
    <g id="patch_46">
     <path d="M 17.184528 27.597656 
L 37.184528 27.597656 
L 37.184528 20.597656 
L 17.184528 20.597656 
z
" style="fill:#66c2a5;stroke:#66c2a5;stroke-linejoin:miter;"/>
    </g>
    <g id="text_1">
     <!-- High school graduate or more -->
     <defs>
      <path d="M 9.8125 72.90625 
L 19.671875 72.90625 
L 19.671875 43.015625 
L 55.515625 43.015625 
L 55.515625 72.90625 
L 65.375 72.90625 
L 65.375 0 
L 55.515625 0 
L 55.515625 34.71875 
L 19.671875 34.71875 
L 19.671875 0 
L 9.8125 0 
z
" id="DejaVuSans-48"/>
      <path d="M 9.421875 54.6875 
L 18.40625 54.6875 
L 18.40625 0 
L 9.421875 0 
z
M 9.421875 75.984375 
L 18.40625 75.984375 
L 18.40625 64.59375 
L 9.421875 64.59375 
z
" id="DejaVuSans-69"/>
      <path d="M 45.40625 27.984375 
Q 45.40625 37.75 41.375 43.109375 
Q 37.359375 48.484375 30.078125 48.484375 
Q 22.859375 48.484375 18.828125 43.109375 
Q 14.796875 37.75 14.796875 27.984375 
Q 14.796875 18.265625 18.828125 12.890625 
Q 22.859375 7.515625 30.078125 7.515625 
Q 37.359375 7.515625 41.375 12.890625 
Q 45.40625 18.265625 45.40625 27.984375 
z
M 54.390625 6.78125 
Q 54.390625 -7.171875 48.1875 -13.984375 
Q 42 -20.796875 29.203125 -20.796875 
Q 24.46875 -20.796875 20.265625 -20.09375 
Q 16.0625 -19.390625 12.109375 -17.921875 
L 12.109375 -9.1875 
Q 16.0625 -11.328125 19.921875 -12.34375 
Q 23.78125 -13.375 27.78125 -13.375 
Q 36.625 -13.375 41.015625 -8.765625 
Q 45.40625 -4.15625 45.40625 5.171875 
L 45.40625 9.625 
Q 42.625 4.78125 38.28125 2.390625 
Q 33.9375 0 27.875 0 
Q 17.828125 0 11.671875 7.65625 
Q 5.515625 15.328125 5.515625 27.984375 
Q 5.515625 40.671875 11.671875 48.328125 
Q 17.828125 56 27.875 56 
Q 33.9375 56 38.28125 53.609375 
Q 42.625 51.21875 45.40625 46.390625 
L 45.40625 54.6875 
L 54.390625 54.6875 
z
" id="DejaVuSans-67"/>
      <path d="M 54.890625 33.015625 
L 54.890625 0 
L 45.90625 0 
L 45.90625 32.71875 
Q 45.90625 40.484375 42.875 44.328125 
Q 39.84375 48.1875 33.796875 48.1875 
Q 26.515625 48.1875 22.3125 43.546875 
Q 18.109375 38.921875 18.109375 30.90625 
L 18.109375 0 
L 9.078125 0 
L 9.078125 75.984375 
L 18.109375 75.984375 
L 18.109375 46.1875 
Q 21.34375 51.125 25.703125 53.5625 
Q 30.078125 56 35.796875 56 
Q 45.21875 56 50.046875 50.171875 
Q 54.890625 44.34375 54.890625 33.015625 
z
" id="DejaVuSans-68"/>
      <path id="DejaVuSans-20"/>
      <path d="M 44.28125 53.078125 
L 44.28125 44.578125 
Q 40.484375 46.53125 36.375 47.5 
Q 32.28125 48.484375 27.875 48.484375 
Q 21.1875 48.484375 17.84375 46.4375 
Q 14.5 44.390625 14.5 40.28125 
Q 14.5 37.15625 16.890625 35.375 
Q 19.28125 33.59375 26.515625 31.984375 
L 29.59375 31.296875 
Q 39.15625 29.25 43.1875 25.515625 
Q 47.21875 21.78125 47.21875 15.09375 
Q 47.21875 7.46875 41.1875 3.015625 
Q 35.15625 -1.421875 24.609375 -1.421875 
Q 20.21875 -1.421875 15.453125 -0.5625 
Q 10.6875 0.296875 5.421875 2 
L 5.421875 11.28125 
Q 10.40625 8.6875 15.234375 7.390625 
Q 20.0625 6.109375 24.8125 6.109375 
Q 31.15625 6.109375 34.5625 8.28125 
Q 37.984375 10.453125 37.984375 14.40625 
Q 37.984375 18.0625 35.515625 20.015625 
Q 33.0625 21.96875 24.703125 23.78125 
L 21.578125 24.515625 
Q 13.234375 26.265625 9.515625 29.90625 
Q 5.8125 33.546875 5.8125 39.890625 
Q 5.8125 47.609375 11.28125 51.796875 
Q 16.75 56 26.8125 56 
Q 31.78125 56 36.171875 55.265625 
Q 40.578125 54.546875 44.28125 53.078125 
z
" id="DejaVuSans-73"/>
      <path d="M 48.78125 52.59375 
L 48.78125 44.1875 
Q 44.96875 46.296875 41.140625 47.34375 
Q 37.3125 48.390625 33.40625 48.390625 
Q 24.65625 48.390625 19.8125 42.84375 
Q 14.984375 37.3125 14.984375 27.296875 
Q 14.984375 17.28125 19.8125 11.734375 
Q 24.65625 6.203125 33.40625 6.203125 
Q 37.3125 6.203125 41.140625 7.25 
Q 44.96875 8.296875 48.78125 10.40625 
L 48.78125 2.09375 
Q 45.015625 0.34375 40.984375 -0.53125 
Q 36.96875 -1.421875 32.421875 -1.421875 
Q 20.0625 -1.421875 12.78125 6.34375 
Q 5.515625 14.109375 5.515625 27.296875 
Q 5.515625 40.671875 12.859375 48.328125 
Q 20.21875 56 33.015625 56 
Q 37.15625 56 41.109375 55.140625 
Q 45.0625 54.296875 48.78125 52.59375 
z
" id="DejaVuSans-63"/>
      <path d="M 30.609375 48.390625 
Q 23.390625 48.390625 19.1875 42.75 
Q 14.984375 37.109375 14.984375 27.296875 
Q 14.984375 17.484375 19.15625 11.84375 
Q 23.34375 6.203125 30.609375 6.203125 
Q 37.796875 6.203125 41.984375 11.859375 
Q 46.1875 17.53125 46.1875 27.296875 
Q 46.1875 37.015625 41.984375 42.703125 
Q 37.796875 48.390625 30.609375 48.390625 
z
M 30.609375 56 
Q 42.328125 56 49.015625 48.375 
Q 55.71875 40.765625 55.71875 27.296875 
Q 55.71875 13.875 49.015625 6.21875 
Q 42.328125 -1.421875 30.609375 -1.421875 
Q 18.84375 -1.421875 12.171875 6.21875 
Q 5.515625 13.875 5.515625 27.296875 
Q 5.515625 40.765625 12.171875 48.375 
Q 18.84375 56 30.609375 56 
z
" id="DejaVuSans-6f"/>
      <path d="M 9.421875 75.984375 
L 18.40625 75.984375 
L 18.40625 0 
L 9.421875 0 
z
" id="DejaVuSans-6c"/>
      <path d="M 41.109375 46.296875 
Q 39.59375 47.171875 37.8125 47.578125 
Q 36.03125 48 33.890625 48 
Q 26.265625 48 22.1875 43.046875 
Q 18.109375 38.09375 18.109375 28.8125 
L 18.109375 0 
L 9.078125 0 
L 9.078125 54.6875 
L 18.109375 54.6875 
L 18.109375 46.1875 
Q 20.953125 51.171875 25.484375 53.578125 
Q 30.03125 56 36.53125 56 
Q 37.453125 56 38.578125 55.875 
Q 39.703125 55.765625 41.0625 55.515625 
z
" id="DejaVuSans-72"/>
      <path d="M 34.28125 27.484375 
Q 23.390625 27.484375 19.1875 25 
Q 14.984375 22.515625 14.984375 16.5 
Q 14.984375 11.71875 18.140625 8.90625 
Q 21.296875 6.109375 26.703125 6.109375 
Q 34.1875 6.109375 38.703125 11.40625 
Q 43.21875 16.703125 43.21875 25.484375 
L 43.21875 27.484375 
z
M 52.203125 31.203125 
L 52.203125 0 
L 43.21875 0 
L 43.21875 8.296875 
Q 40.140625 3.328125 35.546875 0.953125 
Q 30.953125 -1.421875 24.3125 -1.421875 
Q 15.921875 -1.421875 10.953125 3.296875 
Q 6 8.015625 6 15.921875 
Q 6 25.140625 12.171875 29.828125 
Q 18.359375 34.515625 30.609375 34.515625 
L 43.21875 34.515625 
L 43.21875 35.40625 
Q 43.21875 41.609375 39.140625 45 
Q 35.0625 48.390625 27.6875 48.390625 
Q 23 48.390625 18.546875 47.265625 
Q 14.109375 46.140625 10.015625 43.890625 
L 10.015625 52.203125 
Q 14.9375 54.109375 19.578125 55.046875 
Q 24.21875 56 28.609375 56 
Q 40.484375 56 46.34375 49.84375 
Q 52.203125 43.703125 52.203125 31.203125 
z
" id="DejaVuSans-61"/>
      <path d="M 45.40625 46.390625 
L 45.40625 75.984375 
L 54.390625 75.984375 
L 54.390625 0 
L 45.40625 0 
L 45.40625 8.203125 
Q 42.578125 3.328125 38.25 0.953125 
Q 33.9375 -1.421875 27.875 -1.421875 
Q 17.96875 -1.421875 11.734375 6.484375 
Q 5.515625 14.40625 5.515625 27.296875 
Q 5.515625 40.1875 11.734375 48.09375 
Q 17.96875 56 27.875 56 
Q 33.9375 56 38.25 53.625 
Q 42.578125 51.265625 45.40625 46.390625 
z
M 14.796875 27.296875 
Q 14.796875 17.390625 18.875 11.75 
Q 22.953125 6.109375 30.078125 6.109375 
Q 37.203125 6.109375 41.296875 11.75 
Q 45.40625 17.390625 45.40625 27.296875 
Q 45.40625 37.203125 41.296875 42.84375 
Q 37.203125 48.484375 30.078125 48.484375 
Q 22.953125 48.484375 18.875 42.84375 
Q 14.796875 37.203125 14.796875 27.296875 
z
" id="DejaVuSans-64"/>
      <path d="M 8.5 21.578125 
L 8.5 54.6875 
L 17.484375 54.6875 
L 17.484375 21.921875 
Q 17.484375 14.15625 20.5 10.265625 
Q 23.53125 6.390625 29.59375 6.390625 
Q 36.859375 6.390625 41.078125 11.03125 
Q 45.3125 15.671875 45.3125 23.6875 
L 45.3125 54.6875 
L 54.296875 54.6875 
L 54.296875 0 
L 45.3125 0 
L 45.3125 8.40625 
Q 42.046875 3.421875 37.71875 1 
Q 33.40625 -1.421875 27.6875 -1.421875 
Q 18.265625 -1.421875 13.375 4.4375 
Q 8.5 10.296875 8.5 21.578125 
z
M 31.109375 56 
z
" id="DejaVuSans-75"/>
      <path d="M 18.3125 70.21875 
L 18.3125 54.6875 
L 36.8125 54.6875 
L 36.8125 47.703125 
L 18.3125 47.703125 
L 18.3125 18.015625 
Q 18.3125 11.328125 20.140625 9.421875 
Q 21.96875 7.515625 27.59375 7.515625 
L 36.8125 7.515625 
L 36.8125 0 
L 27.59375 0 
Q 17.1875 0 13.234375 3.875 
Q 9.28125 7.765625 9.28125 18.015625 
L 9.28125 47.703125 
L 2.6875 47.703125 
L 2.6875 54.6875 
L 9.28125 54.6875 
L 9.28125 70.21875 
z
" id="DejaVuSans-74"/>
      <path d="M 56.203125 29.59375 
L 56.203125 25.203125 
L 14.890625 25.203125 
Q 15.484375 15.921875 20.484375 11.0625 
Q 25.484375 6.203125 34.421875 6.203125 
Q 39.59375 6.203125 44.453125 7.46875 
Q 49.3125 8.734375 54.109375 11.28125 
L 54.109375 2.78125 
Q 49.265625 0.734375 44.1875 -0.34375 
Q 39.109375 -1.421875 33.890625 -1.421875 
Q 20.796875 -1.421875 13.15625 6.1875 
Q 5.515625 13.8125 5.515625 26.8125 
Q 5.515625 40.234375 12.765625 48.109375 
Q 20.015625 56 32.328125 56 
Q 43.359375 56 49.78125 48.890625 
Q 56.203125 41.796875 56.203125 29.59375 
z
M 47.21875 32.234375 
Q 47.125 39.59375 43.09375 43.984375 
Q 39.0625 48.390625 32.421875 48.390625 
Q 24.90625 48.390625 20.390625 44.140625 
Q 15.875 39.890625 15.1875 32.171875 
z
" id="DejaVuSans-65"/>
      <path d="M 52 44.1875 
Q 55.375 50.25 60.0625 53.125 
Q 64.75 56 71.09375 56 
Q 79.640625 56 84.28125 50.015625 
Q 88.921875 44.046875 88.921875 33.015625 
L 88.921875 0 
L 79.890625 0 
L 79.890625 32.71875 
Q 79.890625 40.578125 77.09375 44.375 
Q 74.3125 48.1875 68.609375 48.1875 
Q 61.625 48.1875 57.5625 43.546875 
Q 53.515625 38.921875 53.515625 30.90625 
L 53.515625 0 
L 44.484375 0 
L 44.484375 32.71875 
Q 44.484375 40.625 41.703125 44.40625 
Q 38.921875 48.1875 33.109375 48.1875 
Q 26.21875 48.1875 22.15625 43.53125 
Q 18.109375 38.875 18.109375 30.90625 
L 18.109375 0 
L 9.078125 0 
L 9.078125 54.6875 
L 18.109375 54.6875 
L 18.109375 46.1875 
Q 21.1875 51.21875 25.484375 53.609375 
Q 29.78125 56 35.6875 56 
Q 41.65625 56 45.828125 52.96875 
Q 50 49.953125 52 44.1875 
z
" id="DejaVuSans-6d"/>
     </defs>
     <g transform="translate(45.184528 27.597656)scale(0.1 -0.1)">
      <use xlink:href="#DejaVuSans-48"/>
      <use x="75.195312" xlink:href="#DejaVuSans-69"/>
      <use x="102.978516" xlink:href="#DejaVuSans-67"/>
      <use x="166.455078" xlink:href="#DejaVuSans-68"/>
      <use x="229.833984" xlink:href="#DejaVuSans-20"/>
      <use x="261.621094" xlink:href="#DejaVuSans-73"/>
      <use x="313.720703" xlink:href="#DejaVuSans-63"/>
      <use x="368.701172" xlink:href="#DejaVuSans-68"/>
      <use x="432.080078" xlink:href="#DejaVuSans-6f"/>
      <use x="493.261719" xlink:href="#DejaVuSans-6f"/>
      <use x="554.443359" xlink:href="#DejaVuSans-6c"/>
      <use x="582.226562" xlink:href="#DejaVuSans-20"/>
      <use x="614.013672" xlink:href="#DejaVuSans-67"/>
      <use x="677.490234" xlink:href="#DejaVuSans-72"/>
      <use x="718.603516" xlink:href="#DejaVuSans-61"/>
      <use x="779.882812" xlink:href="#DejaVuSans-64"/>
      <use x="843.359375" xlink:href="#DejaVuSans-75"/>
      <use x="906.738281" xlink:href="#DejaVuSans-61"/>
      <use x="968.017578" xlink:href="#DejaVuSans-74"/>
      <use x="1007.226562" xlink:href="#DejaVuSans-65"/>
      <use x="1068.75" xlink:href="#DejaVuSans-20"/>
      <use x="1100.537109" xlink:href="#DejaVuSans-6f"/>
      <use x="1161.71875" xlink:href="#DejaVuSans-72"/>
      <use x="1202.832031" xlink:href="#DejaVuSans-20"/>
      <use x="1234.619141" xlink:href="#DejaVuSans-6d"/>
      <use x="1332.03125" xlink:href="#DejaVuSans-6f"/>
      <use x="1393.212891" xlink:href="#DejaVuSans-72"/>
      <use x="1434.294922" xlink:href="#DejaVuSans-65"/>
     </g>
    </g>
    <g id="patch_47">
     <path d="M 17.184528 42.275781 
L 37.184528 42.275781 
L 37.184528 35.275781 
L 17.184528 35.275781 
z
" style="fill:#fc8d62;stroke:#fc8d62;stroke-linejoin:miter;"/>
    </g>
    <g id="text_2">
     <!-- Other -->
     <defs>
      <path d="M 39.40625 66.21875 
Q 28.65625 66.21875 22.328125 58.203125 
Q 16.015625 50.203125 16.015625 36.375 
Q 16.015625 22.609375 22.328125 14.59375 
Q 28.65625 6.59375 39.40625 6.59375 
Q 50.140625 6.59375 56.421875 14.59375 
Q 62.703125 22.609375 62.703125 36.375 
Q 62.703125 50.203125 56.421875 58.203125 
Q 50.140625 66.21875 39.40625 66.21875 
z
M 39.40625 74.21875 
Q 54.734375 74.21875 63.90625 63.9375 
Q 73.09375 53.65625 73.09375 36.375 
Q 73.09375 19.140625 63.90625 8.859375 
Q 54.734375 -1.421875 39.40625 -1.421875 
Q 24.03125 -1.421875 14.8125 8.828125 
Q 5.609375 19.09375 5.609375 36.375 
Q 5.609375 53.65625 14.8125 63.9375 
Q 24.03125 74.21875 39.40625 74.21875 
z
" id="DejaVuSans-4f"/>
     </defs>
     <g transform="translate(45.184528 42.275781)scale(0.1 -0.1)">
      <use xlink:href="#DejaVuSans-4f"/>
      <use x="78.710938" xlink:href="#DejaVuSans-74"/>
      <use x="117.919922" xlink:href="#DejaVuSans-68"/>
      <use x="181.298828" xlink:href="#DejaVuSans-65"/>
      <use x="242.822266" xlink:href="#DejaVuSans-72"/>
     </g>
    </g>
   </g>
  </g>
  <g id="axes_2">
   <g id="patch_48">
    <path clip-path="url(#p1ff676cfd3)" d="M 104.025211 138.270175 
L 113.999424 138.270175 
L 113.999424 128.295962 
L 104.025211 128.295962 
z
" style="fill:#66c2a5;stroke:#66c2a5;stroke-linejoin:miter;"/>
   </g>
   <g id="patch_49">
    <path clip-path="url(#p1ff676cfd3)" d="M 104.025211 126.30112 
L 113.999424 126.30112 
L 113.999424 116.326907 
L 104.025211 116.326907 
z
" style="fill:#66c2a5;stroke:#66c2a5;stroke-linejoin:miter;"/>
   </g>
   <g id="patch_50">
    <path clip-path="url(#p1ff676cfd3)" d="M 104.025211 114.332064 
L 113.999424 114.332064 
L 113.999424 104.357851 
L 104.025211 104.357851 
z
" style="fill:#66c2a5;stroke:#66c2a5;stroke-linejoin:miter;"/>
   </g>
   <g id="patch_51">
    <path clip-path="url(#p1ff676cfd3)" d="M 104.025211 102.363009 
L 113.999424 102.363009 
L 113.999424 92.388796 
L 104.025211 92.388796 
z
" style="fill:#66c2a5;stroke:#66c2a5;stroke-linejoin:miter;"/>
   </g>
   <g id="patch_52">
    <path clip-path="url(#p1ff676cfd3)" d="M 104.025211 90.393953 
L 113.999424 90.393953 
L 113.999424 80.41974 
L 104.025211 80.41974 
z
" style="fill:#66c2a5;stroke:#66c2a5;stroke-linejoin:miter;"/>
   </g>
   <g id="patch_53">
    <path clip-path="url(#p1ff676cfd3)" d="M 115.994267 138.270175 
L 125.96848 138.270175 
L 125.96848 128.295962 
L 115.994267 128.295962 
z
" style="fill:#66c2a5;stroke:#66c2a5;stroke-linejoin:miter;"/>
   </g>
   <g id="patch_54">
    <path clip-path="url(#p1ff676cfd3)" d="M 115.994267 126.30112 
L 125.96848 126.30112 
L 125.96848 116.326907 
L 115.994267 116.326907 
z
" style="fill:#66c2a5;stroke:#66c2a5;stroke-linejoin:miter;"/>
   </g>
   <g id="patch_55">
    <path clip-path="url(#p1ff676cfd3)" d="M 115.994267 114.332064 
L 125.96848 114.332064 
L 125.96848 104.357851 
L 115.994267 104.357851 
z
" style="fill:#66c2a5;stroke:#66c2a5;stroke-linejoin:miter;"/>
   </g>
   <g id="patch_56">
    <path clip-path="url(#p1ff676cfd3)" d="M 115.994267 102.363009 
L 125.96848 102.363009 
L 125.96848 92.388796 
L 115.994267 92.388796 
z
" style="fill:#66c2a5;stroke:#66c2a5;stroke-linejoin:miter;"/>
   </g>
   <g id="patch_57">
    <path clip-path="url(#p1ff676cfd3)" d="M 115.994267 90.393953 
L 125.96848 90.393953 
L 125.96848 80.41974 
L 115.994267 80.41974 
z
" style="fill:#66c2a5;stroke:#66c2a5;stroke-linejoin:miter;"/>
   </g>
   <g id="patch_58">
    <path clip-path="url(#p1ff676cfd3)" d="M 127.963322 138.270175 
L 137.937535 138.270175 
L 137.937535 128.295962 
L 127.963322 128.295962 
z
" style="fill:#66c2a5;stroke:#66c2a5;stroke-linejoin:miter;"/>
   </g>
   <g id="patch_59">
    <path clip-path="url(#p1ff676cfd3)" d="M 127.963322 126.30112 
L 137.937535 126.30112 
L 137.937535 116.326907 
L 127.963322 116.326907 
z
" style="fill:#66c2a5;stroke:#66c2a5;stroke-linejoin:miter;"/>
   </g>
   <g id="patch_60">
    <path clip-path="url(#p1ff676cfd3)" d="M 127.963322 114.332064 
L 137.937535 114.332064 
L 137.937535 104.357851 
L 127.963322 104.357851 
z
" style="fill:#66c2a5;stroke:#66c2a5;stroke-linejoin:miter;"/>
   </g>
   <g id="patch_61">
    <path clip-path="url(#p1ff676cfd3)" d="M 127.963322 102.363009 
L 137.937535 102.363009 
L 137.937535 92.388796 
L 127.963322 92.388796 
z
" style="fill:#66c2a5;stroke:#66c2a5;stroke-linejoin:miter;"/>
   </g>
   <g id="patch_62">
    <path clip-path="url(#p1ff676cfd3)" d="M 127.963322 90.393953 
L 137.937535 90.393953 
L 137.937535 80.41974 
L 127.963322 80.41974 
z
" style="fill:#66c2a5;stroke:#66c2a5;stroke-linejoin:miter;"/>
   </g>
   <g id="patch_63">
    <path clip-path="url(#p1ff676cfd3)" d="M 139.932378 138.270175 
L 149.906591 138.270175 
L 149.906591 128.295962 
L 139.932378 128.295962 
z
" style="fill:#66c2a5;stroke:#66c2a5;stroke-linejoin:miter;"/>
   </g>
   <g id="patch_64">
    <path clip-path="url(#p1ff676cfd3)" d="M 139.932378 126.30112 
L 149.906591 126.30112 
L 149.906591 116.326907 
L 139.932378 116.326907 
z
" style="fill:#66c2a5;stroke:#66c2a5;stroke-linejoin:miter;"/>
   </g>
   <g id="patch_65">
    <path clip-path="url(#p1ff676cfd3)" d="M 139.932378 114.332064 
L 149.906591 114.332064 
L 149.906591 104.357851 
L 139.932378 104.357851 
z
" style="fill:#66c2a5;stroke:#66c2a5;stroke-linejoin:miter;"/>
   </g>
   <g id="patch_66">
    <path clip-path="url(#p1ff676cfd3)" d="M 139.932378 102.363009 
L 149.906591 102.363009 
L 149.906591 92.388796 
L 139.932378 92.388796 
z
" style="fill:#66c2a5;stroke:#66c2a5;stroke-linejoin:miter;"/>
   </g>
   <g id="patch_67">
    <path clip-path="url(#p1ff676cfd3)" d="M 139.932378 90.393953 
L 149.906591 90.393953 
L 149.906591 80.41974 
L 139.932378 80.41974 
z
" style="fill:#66c2a5;stroke:#66c2a5;stroke-linejoin:miter;"/>
   </g>
   <g id="patch_68">
    <path clip-path="url(#p1ff676cfd3)" d="M 151.901433 138.270175 
L 161.875646 138.270175 
L 161.875646 128.295962 
L 151.901433 128.295962 
z
" style="fill:#66c2a5;stroke:#66c2a5;stroke-linejoin:miter;"/>
   </g>
   <g id="patch_69">
    <path clip-path="url(#p1ff676cfd3)" d="M 151.901433 126.30112 
L 161.875646 126.30112 
L 161.875646 116.326907 
L 151.901433 116.326907 
z
" style="fill:#66c2a5;stroke:#66c2a5;stroke-linejoin:miter;"/>
   </g>
   <g id="patch_70">
    <path clip-path="url(#p1ff676cfd3)" d="M 151.901433 114.332064 
L 161.875646 114.332064 
L 161.875646 104.357851 
L 151.901433 104.357851 
z
" style="fill:#66c2a5;stroke:#66c2a5;stroke-linejoin:miter;"/>
   </g>
   <g id="patch_71">
    <path clip-path="url(#p1ff676cfd3)" d="M 151.901433 102.363009 
L 161.875646 102.363009 
L 161.875646 92.388796 
L 151.901433 92.388796 
z
" style="fill:#66c2a5;stroke:#66c2a5;stroke-linejoin:miter;"/>
   </g>
   <g id="patch_72">
    <path clip-path="url(#p1ff676cfd3)" d="M 151.901433 90.393953 
L 161.875646 90.393953 
L 161.875646 80.41974 
L 151.901433 80.41974 
z
" style="fill:#66c2a5;stroke:#66c2a5;stroke-linejoin:miter;"/>
   </g>
   <g id="patch_73">
    <path clip-path="url(#p1ff676cfd3)" d="M 163.870489 138.270175 
L 173.844702 138.270175 
L 173.844702 128.295962 
L 163.870489 128.295962 
z
" style="fill:#66c2a5;stroke:#66c2a5;stroke-linejoin:miter;"/>
   </g>
   <g id="patch_74">
    <path clip-path="url(#p1ff676cfd3)" d="M 163.870489 126.30112 
L 173.844702 126.30112 
L 173.844702 116.326907 
L 163.870489 116.326907 
z
" style="fill:#66c2a5;stroke:#66c2a5;stroke-linejoin:miter;"/>
   </g>
   <g id="patch_75">
    <path clip-path="url(#p1ff676cfd3)" d="M 163.870489 114.332064 
L 173.844702 114.332064 
L 173.844702 104.357851 
L 163.870489 104.357851 
z
" style="fill:#66c2a5;stroke:#66c2a5;stroke-linejoin:miter;"/>
   </g>
   <g id="patch_76">
    <path clip-path="url(#p1ff676cfd3)" d="M 163.870489 102.363009 
L 173.844702 102.363009 
L 173.844702 92.388796 
L 163.870489 92.388796 
z
" style="fill:#66c2a5;stroke:#66c2a5;stroke-linejoin:miter;"/>
   </g>
   <g id="patch_77">
    <path clip-path="url(#p1ff676cfd3)" d="M 163.870489 90.393953 
L 173.844702 90.393953 
L 173.844702 80.41974 
L 163.870489 80.41974 
z
" style="fill:#66c2a5;stroke:#66c2a5;stroke-linejoin:miter;"/>
   </g>
   <g id="patch_78">
    <path clip-path="url(#p1ff676cfd3)" d="M 175.839544 138.270175 
L 185.813757 138.270175 
L 185.813757 128.295962 
L 175.839544 128.295962 
z
" style="fill:#66c2a5;stroke:#66c2a5;stroke-linejoin:miter;"/>
   </g>
   <g id="patch_79">
    <path clip-path="url(#p1ff676cfd3)" d="M 175.839544 126.30112 
L 185.813757 126.30112 
L 185.813757 116.326907 
L 175.839544 116.326907 
z
" style="fill:#66c2a5;stroke:#66c2a5;stroke-linejoin:miter;"/>
   </g>
   <g id="patch_80">
    <path clip-path="url(#p1ff676cfd3)" d="M 175.839544 114.332064 
L 185.813757 114.332064 
L 185.813757 104.357851 
L 175.839544 104.357851 
z
" style="fill:#66c2a5;stroke:#66c2a5;stroke-linejoin:miter;"/>
   </g>
   <g id="patch_81">
    <path clip-path="url(#p1ff676cfd3)" d="M 175.839544 102.363009 
L 185.813757 102.363009 
L 185.813757 92.388796 
L 175.839544 92.388796 
z
" style="fill:#66c2a5;stroke:#66c2a5;stroke-linejoin:miter;"/>
   </g>
   <g id="patch_82">
    <path clip-path="url(#p1ff676cfd3)" d="M 175.839544 90.393953 
L 185.813757 90.393953 
L 185.813757 80.41974 
L 175.839544 80.41974 
z
" style="fill:#66c2a5;stroke:#66c2a5;stroke-linejoin:miter;"/>
   </g>
   <g id="patch_83">
    <path clip-path="url(#p1ff676cfd3)" d="M 187.8086 138.270175 
L 197.782813 138.270175 
L 197.782813 128.295962 
L 187.8086 128.295962 
z
" style="fill:#66c2a5;stroke:#66c2a5;stroke-linejoin:miter;"/>
   </g>
   <g id="patch_84">
    <path clip-path="url(#p1ff676cfd3)" d="M 187.8086 126.30112 
L 197.782813 126.30112 
L 197.782813 116.326907 
L 187.8086 116.326907 
z
" style="fill:#fc8d62;stroke:#fc8d62;stroke-linejoin:miter;"/>
   </g>
   <g id="patch_85">
    <path clip-path="url(#p1ff676cfd3)" d="M 187.8086 114.332064 
L 197.782813 114.332064 
L 197.782813 104.357851 
L 187.8086 104.357851 
z
" style="fill:#fc8d62;stroke:#fc8d62;stroke-linejoin:miter;"/>
   </g>
   <g id="patch_86">
    <path clip-path="url(#p1ff676cfd3)" d="M 187.8086 102.363009 
L 197.782813 102.363009 
L 197.782813 92.388796 
L 187.8086 92.388796 
z
" style="fill:#fc8d62;stroke:#fc8d62;stroke-linejoin:miter;"/>
   </g>
   <g id="patch_87">
    <path clip-path="url(#p1ff676cfd3)" d="M 187.8086 90.393953 
L 197.782813 90.393953 
L 197.782813 80.41974 
L 187.8086 80.41974 
z
" style="fill:#fc8d62;stroke:#fc8d62;stroke-linejoin:miter;"/>
   </g>
   <g id="legend_2">
    <g id="patch_88">
     <path d="M 9.2 117.77599 
L 190.782813 117.77599 
Q 192.782813 117.77599 192.782813 115.77599 
L 192.782813 87.41974 
Q 192.782813 85.41974 190.782813 85.41974 
L 9.2 85.41974 
Q 7.2 85.41974 7.2 87.41974 
L 7.2 115.77599 
Q 7.2 117.77599 9.2 117.77599 
z
" style="fill:#ffffff;opacity:0.8;stroke:#cccccc;stroke-linejoin:miter;"/>
    </g>
    <g id="patch_89">
     <path d="M 11.2 97.018178 
L 31.2 97.018178 
L 31.2 90.018178 
L 11.2 90.018178 
z
" style="fill:#66c2a5;stroke:#66c2a5;stroke-linejoin:miter;"/>
    </g>
    <g id="text_3">
     <!-- High school graduate or more -->
     <g transform="translate(39.2 97.018178)scale(0.1 -0.1)">
      <use xlink:href="#DejaVuSans-48"/>
      <use x="75.195312" xlink:href="#DejaVuSans-69"/>
      <use x="102.978516" xlink:href="#DejaVuSans-67"/>
      <use x="166.455078" xlink:href="#DejaVuSans-68"/>
      <use x="229.833984" xlink:href="#DejaVuSans-20"/>
      <use x="261.621094" xlink:href="#DejaVuSans-73"/>
      <use x="313.720703" xlink:href="#DejaVuSans-63"/>
      <use x="368.701172" xlink:href="#DejaVuSans-68"/>
      <use x="432.080078" xlink:href="#DejaVuSans-6f"/>
      <use x="493.261719" xlink:href="#DejaVuSans-6f"/>
      <use x="554.443359" xlink:href="#DejaVuSans-6c"/>
      <use x="582.226562" xlink:href="#DejaVuSans-20"/>
      <use x="614.013672" xlink:href="#DejaVuSans-67"/>
      <use x="677.490234" xlink:href="#DejaVuSans-72"/>
      <use x="718.603516" xlink:href="#DejaVuSans-61"/>
      <use x="779.882812" xlink:href="#DejaVuSans-64"/>
      <use x="843.359375" xlink:href="#DejaVuSans-75"/>
      <use x="906.738281" xlink:href="#DejaVuSans-61"/>
      <use x="968.017578" xlink:href="#DejaVuSans-74"/>
      <use x="1007.226562" xlink:href="#DejaVuSans-65"/>
      <use x="1068.75" xlink:href="#DejaVuSans-20"/>
      <use x="1100.537109" xlink:href="#DejaVuSans-6f"/>
      <use x="1161.71875" xlink:href="#DejaVuSans-72"/>
      <use x="1202.832031" xlink:href="#DejaVuSans-20"/>
      <use x="1234.619141" xlink:href="#DejaVuSans-6d"/>
      <use x="1332.03125" xlink:href="#DejaVuSans-6f"/>
      <use x="1393.212891" xlink:href="#DejaVuSans-72"/>
      <use x="1434.294922" xlink:href="#DejaVuSans-65"/>
     </g>
    </g>
    <g id="patch_90">
     <path d="M 11.2 111.696303 
L 31.2 111.696303 
L 31.2 104.696303 
L 11.2 104.696303 
z
" style="fill:#fc8d62;stroke:#fc8d62;stroke-linejoin:miter;"/>
    </g>
    <g id="text_4">
     <!-- Other -->
     <g transform="translate(39.2 111.696303)scale(0.1 -0.1)">
      <use xlink:href="#DejaVuSans-4f"/>
      <use x="78.710938" xlink:href="#DejaVuSans-74"/>
      <use x="117.919922" xlink:href="#DejaVuSans-68"/>
      <use x="181.298828" xlink:href="#DejaVuSans-65"/>
      <use x="242.822266" xlink:href="#DejaVuSans-72"/>
     </g>
    </g>
   </g>
  </g>
  <g id="axes_3">
   <g id="patch_91">
    <path clip-path="url(#pbc5086b05f)" d="M 50.164462 207.690697 
L 60.138675 207.690697 
L 60.138675 197.716484 
L 50.164462 197.716484 
z
" style="fill:#66c2a5;stroke:#66c2a5;stroke-linejoin:miter;"/>
   </g>
   <g id="patch_92">
    <path clip-path="url(#pbc5086b05f)" d="M 50.164462 195.721642 
L 60.138675 195.721642 
L 60.138675 185.747429 
L 50.164462 185.747429 
z
" style="fill:#66c2a5;stroke:#66c2a5;stroke-linejoin:miter;"/>
   </g>
   <g id="patch_93">
    <path clip-path="url(#pbc5086b05f)" d="M 50.164462 183.752586 
L 60.138675 183.752586 
L 60.138675 173.778373 
L 50.164462 173.778373 
z
" style="fill:#66c2a5;stroke:#66c2a5;stroke-linejoin:miter;"/>
   </g>
   <g id="patch_94">
    <path clip-path="url(#pbc5086b05f)" d="M 50.164462 171.783531 
L 60.138675 171.783531 
L 60.138675 161.809318 
L 50.164462 161.809318 
z
" style="fill:#66c2a5;stroke:#66c2a5;stroke-linejoin:miter;"/>
   </g>
   <g id="patch_95">
    <path clip-path="url(#pbc5086b05f)" d="M 50.164462 159.814475 
L 60.138675 159.814475 
L 60.138675 149.840262 
L 50.164462 149.840262 
z
" style="fill:#66c2a5;stroke:#66c2a5;stroke-linejoin:miter;"/>
   </g>
   <g id="patch_96">
    <path clip-path="url(#pbc5086b05f)" d="M 62.133517 207.690697 
L 72.10773 207.690697 
L 72.10773 197.716484 
L 62.133517 197.716484 
z
" style="fill:#66c2a5;stroke:#66c2a5;stroke-linejoin:miter;"/>
   </g>
   <g id="patch_97">
    <path clip-path="url(#pbc5086b05f)" d="M 62.133517 195.721642 
L 72.10773 195.721642 
L 72.10773 185.747429 
L 62.133517 185.747429 
z
" style="fill:#66c2a5;stroke:#66c2a5;stroke-linejoin:miter;"/>
   </g>
   <g id="patch_98">
    <path clip-path="url(#pbc5086b05f)" d="M 62.133517 183.752586 
L 72.10773 183.752586 
L 72.10773 173.778373 
L 62.133517 173.778373 
z
" style="fill:#66c2a5;stroke:#66c2a5;stroke-linejoin:miter;"/>
   </g>
   <g id="patch_99">
    <path clip-path="url(#pbc5086b05f)" d="M 62.133517 171.783531 
L 72.10773 171.783531 
L 72.10773 161.809318 
L 62.133517 161.809318 
z
" style="fill:#66c2a5;stroke:#66c2a5;stroke-linejoin:miter;"/>
   </g>
   <g id="patch_100">
    <path clip-path="url(#pbc5086b05f)" d="M 62.133517 159.814475 
L 72.10773 159.814475 
L 72.10773 149.840262 
L 62.133517 149.840262 
z
" style="fill:#66c2a5;stroke:#66c2a5;stroke-linejoin:miter;"/>
   </g>
   <g id="patch_101">
    <path clip-path="url(#pbc5086b05f)" d="M 74.102573 207.690697 
L 84.076786 207.690697 
L 84.076786 197.716484 
L 74.102573 197.716484 
z
" style="fill:#66c2a5;stroke:#66c2a5;stroke-linejoin:miter;"/>
   </g>
   <g id="patch_102">
    <path clip-path="url(#pbc5086b05f)" d="M 74.102573 195.721642 
L 84.076786 195.721642 
L 84.076786 185.747429 
L 74.102573 185.747429 
z
" style="fill:#66c2a5;stroke:#66c2a5;stroke-linejoin:miter;"/>
   </g>
   <g id="patch_103">
    <path clip-path="url(#pbc5086b05f)" d="M 74.102573 183.752586 
L 84.076786 183.752586 
L 84.076786 173.778373 
L 74.102573 173.778373 
z
" style="fill:#66c2a5;stroke:#66c2a5;stroke-linejoin:miter;"/>
   </g>
   <g id="patch_104">
    <path clip-path="url(#pbc5086b05f)" d="M 74.102573 171.783531 
L 84.076786 171.783531 
L 84.076786 161.809318 
L 74.102573 161.809318 
z
" style="fill:#66c2a5;stroke:#66c2a5;stroke-linejoin:miter;"/>
   </g>
   <g id="patch_105">
    <path clip-path="url(#pbc5086b05f)" d="M 74.102573 159.814475 
L 84.076786 159.814475 
L 84.076786 149.840262 
L 74.102573 149.840262 
z
" style="fill:#66c2a5;stroke:#66c2a5;stroke-linejoin:miter;"/>
   </g>
   <g id="patch_106">
    <path clip-path="url(#pbc5086b05f)" d="M 86.071628 207.690697 
L 96.045841 207.690697 
L 96.045841 197.716484 
L 86.071628 197.716484 
z
" style="fill:#66c2a5;stroke:#66c2a5;stroke-linejoin:miter;"/>
   </g>
   <g id="patch_107">
    <path clip-path="url(#pbc5086b05f)" d="M 86.071628 195.721642 
L 96.045841 195.721642 
L 96.045841 185.747429 
L 86.071628 185.747429 
z
" style="fill:#66c2a5;stroke:#66c2a5;stroke-linejoin:miter;"/>
   </g>
   <g id="patch_108">
    <path clip-path="url(#pbc5086b05f)" d="M 86.071628 183.752586 
L 96.045841 183.752586 
L 96.045841 173.778373 
L 86.071628 173.778373 
z
" style="fill:#66c2a5;stroke:#66c2a5;stroke-linejoin:miter;"/>
   </g>
   <g id="patch_109">
    <path clip-path="url(#pbc5086b05f)" d="M 86.071628 171.783531 
L 96.045841 171.783531 
L 96.045841 161.809318 
L 86.071628 161.809318 
z
" style="fill:#66c2a5;stroke:#66c2a5;stroke-linejoin:miter;"/>
   </g>
   <g id="patch_110">
    <path clip-path="url(#pbc5086b05f)" d="M 86.071628 159.814475 
L 96.045841 159.814475 
L 96.045841 149.840262 
L 86.071628 149.840262 
z
" style="fill:#66c2a5;stroke:#66c2a5;stroke-linejoin:miter;"/>
   </g>
   <g id="patch_111">
    <path clip-path="url(#pbc5086b05f)" d="M 98.040684 207.690697 
L 108.014896 207.690697 
L 108.014896 197.716484 
L 98.040684 197.716484 
z
" style="fill:#66c2a5;stroke:#66c2a5;stroke-linejoin:miter;"/>
   </g>
   <g id="patch_112">
    <path clip-path="url(#pbc5086b05f)" d="M 98.040684 195.721642 
L 108.014896 195.721642 
L 108.014896 185.747429 
L 98.040684 185.747429 
z
" style="fill:#66c2a5;stroke:#66c2a5;stroke-linejoin:miter;"/>
   </g>
   <g id="patch_113">
    <path clip-path="url(#pbc5086b05f)" d="M 98.040684 183.752586 
L 108.014896 183.752586 
L 108.014896 173.778373 
L 98.040684 173.778373 
z
" style="fill:#66c2a5;stroke:#66c2a5;stroke-linejoin:miter;"/>
   </g>
   <g id="patch_114">
    <path clip-path="url(#pbc5086b05f)" d="M 98.040684 171.783531 
L 108.014896 171.783531 
L 108.014896 161.809318 
L 98.040684 161.809318 
z
" style="fill:#66c2a5;stroke:#66c2a5;stroke-linejoin:miter;"/>
   </g>
   <g id="patch_115">
    <path clip-path="url(#pbc5086b05f)" d="M 98.040684 159.814475 
L 108.014896 159.814475 
L 108.014896 149.840262 
L 98.040684 149.840262 
z
" style="fill:#66c2a5;stroke:#66c2a5;stroke-linejoin:miter;"/>
   </g>
   <g id="patch_116">
    <path clip-path="url(#pbc5086b05f)" d="M 110.009739 207.690697 
L 119.983952 207.690697 
L 119.983952 197.716484 
L 110.009739 197.716484 
z
" style="fill:#66c2a5;stroke:#66c2a5;stroke-linejoin:miter;"/>
   </g>
   <g id="patch_117">
    <path clip-path="url(#pbc5086b05f)" d="M 110.009739 195.721642 
L 119.983952 195.721642 
L 119.983952 185.747429 
L 110.009739 185.747429 
z
" style="fill:#66c2a5;stroke:#66c2a5;stroke-linejoin:miter;"/>
   </g>
   <g id="patch_118">
    <path clip-path="url(#pbc5086b05f)" d="M 110.009739 183.752586 
L 119.983952 183.752586 
L 119.983952 173.778373 
L 110.009739 173.778373 
z
" style="fill:#66c2a5;stroke:#66c2a5;stroke-linejoin:miter;"/>
   </g>
   <g id="patch_119">
    <path clip-path="url(#pbc5086b05f)" d="M 110.009739 171.783531 
L 119.983952 171.783531 
L 119.983952 161.809318 
L 110.009739 161.809318 
z
" style="fill:#66c2a5;stroke:#66c2a5;stroke-linejoin:miter;"/>
   </g>
   <g id="patch_120">
    <path clip-path="url(#pbc5086b05f)" d="M 110.009739 159.814475 
L 119.983952 159.814475 
L 119.983952 149.840262 
L 110.009739 149.840262 
z
" style="fill:#66c2a5;stroke:#66c2a5;stroke-linejoin:miter;"/>
   </g>
   <g id="patch_121">
    <path clip-path="url(#pbc5086b05f)" d="M 121.978795 207.690697 
L 131.953007 207.690697 
L 131.953007 197.716484 
L 121.978795 197.716484 
z
" style="fill:#66c2a5;stroke:#66c2a5;stroke-linejoin:miter;"/>
   </g>
   <g id="patch_122">
    <path clip-path="url(#pbc5086b05f)" d="M 121.978795 195.721642 
L 131.953007 195.721642 
L 131.953007 185.747429 
L 121.978795 185.747429 
z
" style="fill:#66c2a5;stroke:#66c2a5;stroke-linejoin:miter;"/>
   </g>
   <g id="patch_123">
    <path clip-path="url(#pbc5086b05f)" d="M 121.978795 183.752586 
L 131.953007 183.752586 
L 131.953007 173.778373 
L 121.978795 173.778373 
z
" style="fill:#66c2a5;stroke:#66c2a5;stroke-linejoin:miter;"/>
   </g>
   <g id="patch_124">
    <path clip-path="url(#pbc5086b05f)" d="M 121.978795 171.783531 
L 131.953007 171.783531 
L 131.953007 161.809318 
L 121.978795 161.809318 
z
" style="fill:#66c2a5;stroke:#66c2a5;stroke-linejoin:miter;"/>
   </g>
   <g id="patch_125">
    <path clip-path="url(#pbc5086b05f)" d="M 121.978795 159.814475 
L 131.953007 159.814475 
L 131.953007 149.840262 
L 121.978795 149.840262 
z
" style="fill:#66c2a5;stroke:#66c2a5;stroke-linejoin:miter;"/>
   </g>
   <g id="patch_126">
    <path clip-path="url(#pbc5086b05f)" d="M 133.94785 207.690697 
L 143.922063 207.690697 
L 143.922063 197.716484 
L 133.94785 197.716484 
z
" style="fill:#66c2a5;stroke:#66c2a5;stroke-linejoin:miter;"/>
   </g>
   <g id="patch_127">
    <path clip-path="url(#pbc5086b05f)" d="M 133.94785 195.721642 
L 143.922063 195.721642 
L 143.922063 185.747429 
L 133.94785 185.747429 
z
" style="fill:#66c2a5;stroke:#66c2a5;stroke-linejoin:miter;"/>
   </g>
   <g id="patch_128">
    <path clip-path="url(#pbc5086b05f)" d="M 133.94785 183.752586 
L 143.922063 183.752586 
L 143.922063 173.778373 
L 133.94785 173.778373 
z
" style="fill:#66c2a5;stroke:#66c2a5;stroke-linejoin:miter;"/>
   </g>
   <g id="patch_129">
    <path clip-path="url(#pbc5086b05f)" d="M 133.94785 171.783531 
L 143.922063 171.783531 
L 143.922063 161.809318 
L 133.94785 161.809318 
z
" style="fill:#66c2a5;stroke:#66c2a5;stroke-linejoin:miter;"/>
   </g>
   <g id="patch_130">
    <path clip-path="url(#pbc5086b05f)" d="M 133.94785 159.814475 
L 143.922063 159.814475 
L 143.922063 149.840262 
L 133.94785 149.840262 
z
" style="fill:#66c2a5;stroke:#66c2a5;stroke-linejoin:miter;"/>
   </g>
   <g id="patch_131">
    <path clip-path="url(#pbc5086b05f)" d="M 145.916905 207.690697 
L 155.891118 207.690697 
L 155.891118 197.716484 
L 145.916905 197.716484 
z
" style="fill:#66c2a5;stroke:#66c2a5;stroke-linejoin:miter;"/>
   </g>
   <g id="patch_132">
    <path clip-path="url(#pbc5086b05f)" d="M 145.916905 195.721642 
L 155.891118 195.721642 
L 155.891118 185.747429 
L 145.916905 185.747429 
z
" style="fill:#66c2a5;stroke:#66c2a5;stroke-linejoin:miter;"/>
   </g>
   <g id="patch_133">
    <path clip-path="url(#pbc5086b05f)" d="M 145.916905 183.752586 
L 155.891118 183.752586 
L 155.891118 173.778373 
L 145.916905 173.778373 
z
" style="fill:#66c2a5;stroke:#66c2a5;stroke-linejoin:miter;"/>
   </g>
   <g id="patch_134">
    <path clip-path="url(#pbc5086b05f)" d="M 145.916905 171.783531 
L 155.891118 171.783531 
L 155.891118 161.809318 
L 145.916905 161.809318 
z
" style="fill:#66c2a5;stroke:#66c2a5;stroke-linejoin:miter;"/>
   </g>
   <g id="patch_135">
    <path clip-path="url(#pbc5086b05f)" d="M 145.916905 159.814475 
L 155.891118 159.814475 
L 155.891118 149.840262 
L 145.916905 149.840262 
z
" style="fill:#66c2a5;stroke:#66c2a5;stroke-linejoin:miter;"/>
   </g>
   <g id="patch_136">
    <path clip-path="url(#pbc5086b05f)" d="M 157.885961 207.690697 
L 167.860174 207.690697 
L 167.860174 197.716484 
L 157.885961 197.716484 
z
" style="fill:#66c2a5;stroke:#66c2a5;stroke-linejoin:miter;"/>
   </g>
   <g id="patch_137">
    <path clip-path="url(#pbc5086b05f)" d="M 157.885961 195.721642 
L 167.860174 195.721642 
L 167.860174 185.747429 
L 157.885961 185.747429 
z
" style="fill:#66c2a5;stroke:#66c2a5;stroke-linejoin:miter;"/>
   </g>
   <g id="patch_138">
    <path clip-path="url(#pbc5086b05f)" d="M 157.885961 183.752586 
L 167.860174 183.752586 
L 167.860174 173.778373 
L 157.885961 173.778373 
z
" style="fill:#66c2a5;stroke:#66c2a5;stroke-linejoin:miter;"/>
   </g>
   <g id="patch_139">
    <path clip-path="url(#pbc5086b05f)" d="M 157.885961 171.783531 
L 167.860174 171.783531 
L 167.860174 161.809318 
L 157.885961 161.809318 
z
" style="fill:#66c2a5;stroke:#66c2a5;stroke-linejoin:miter;"/>
   </g>
   <g id="patch_140">
    <path clip-path="url(#pbc5086b05f)" d="M 157.885961 159.814475 
L 167.860174 159.814475 
L 167.860174 149.840262 
L 157.885961 149.840262 
z
" style="fill:#66c2a5;stroke:#66c2a5;stroke-linejoin:miter;"/>
   </g>
   <g id="patch_141">
    <path clip-path="url(#pbc5086b05f)" d="M 169.855016 207.690697 
L 179.829229 207.690697 
L 179.829229 197.716484 
L 169.855016 197.716484 
z
" style="fill:#66c2a5;stroke:#66c2a5;stroke-linejoin:miter;"/>
   </g>
   <g id="patch_142">
    <path clip-path="url(#pbc5086b05f)" d="M 169.855016 195.721642 
L 179.829229 195.721642 
L 179.829229 185.747429 
L 169.855016 185.747429 
z
" style="fill:#66c2a5;stroke:#66c2a5;stroke-linejoin:miter;"/>
   </g>
   <g id="patch_143">
    <path clip-path="url(#pbc5086b05f)" d="M 169.855016 183.752586 
L 179.829229 183.752586 
L 179.829229 173.778373 
L 169.855016 173.778373 
z
" style="fill:#66c2a5;stroke:#66c2a5;stroke-linejoin:miter;"/>
   </g>
   <g id="patch_144">
    <path clip-path="url(#pbc5086b05f)" d="M 169.855016 171.783531 
L 179.829229 171.783531 
L 179.829229 161.809318 
L 169.855016 161.809318 
z
" style="fill:#66c2a5;stroke:#66c2a5;stroke-linejoin:miter;"/>
   </g>
   <g id="patch_145">
    <path clip-path="url(#pbc5086b05f)" d="M 169.855016 159.814475 
L 179.829229 159.814475 
L 179.829229 149.840262 
L 169.855016 149.840262 
z
" style="fill:#66c2a5;stroke:#66c2a5;stroke-linejoin:miter;"/>
   </g>
   <g id="patch_146">
    <path clip-path="url(#pbc5086b05f)" d="M 181.824072 207.690697 
L 191.798285 207.690697 
L 191.798285 197.716484 
L 181.824072 197.716484 
z
" style="fill:#66c2a5;stroke:#66c2a5;stroke-linejoin:miter;"/>
   </g>
   <g id="patch_147">
    <path clip-path="url(#pbc5086b05f)" d="M 181.824072 195.721642 
L 191.798285 195.721642 
L 191.798285 185.747429 
L 181.824072 185.747429 
z
" style="fill:#66c2a5;stroke:#66c2a5;stroke-linejoin:miter;"/>
   </g>
   <g id="patch_148">
    <path clip-path="url(#pbc5086b05f)" d="M 181.824072 183.752586 
L 191.798285 183.752586 
L 191.798285 173.778373 
L 181.824072 173.778373 
z
" style="fill:#66c2a5;stroke:#66c2a5;stroke-linejoin:miter;"/>
   </g>
   <g id="patch_149">
    <path clip-path="url(#pbc5086b05f)" d="M 181.824072 171.783531 
L 191.798285 171.783531 
L 191.798285 161.809318 
L 181.824072 161.809318 
z
" style="fill:#66c2a5;stroke:#66c2a5;stroke-linejoin:miter;"/>
   </g>
   <g id="patch_150">
    <path clip-path="url(#pbc5086b05f)" d="M 181.824072 159.814475 
L 191.798285 159.814475 
L 191.798285 149.840262 
L 181.824072 149.840262 
z
" style="fill:#66c2a5;stroke:#66c2a5;stroke-linejoin:miter;"/>
   </g>
   <g id="patch_151">
    <path clip-path="url(#pbc5086b05f)" d="M 193.793127 207.690697 
L 203.76734 207.690697 
L 203.76734 197.716484 
L 193.793127 197.716484 
z
" style="fill:#66c2a5;stroke:#66c2a5;stroke-linejoin:miter;"/>
   </g>
   <g id="patch_152">
    <path clip-path="url(#pbc5086b05f)" d="M 193.793127 195.721642 
L 203.76734 195.721642 
L 203.76734 185.747429 
L 193.793127 185.747429 
z
" style="fill:#66c2a5;stroke:#66c2a5;stroke-linejoin:miter;"/>
   </g>
   <g id="patch_153">
    <path clip-path="url(#pbc5086b05f)" d="M 193.793127 183.752586 
L 203.76734 183.752586 
L 203.76734 173.778373 
L 193.793127 173.778373 
z
" style="fill:#66c2a5;stroke:#66c2a5;stroke-linejoin:miter;"/>
   </g>
   <g id="patch_154">
    <path clip-path="url(#pbc5086b05f)" d="M 193.793127 171.783531 
L 203.76734 171.783531 
L 203.76734 161.809318 
L 193.793127 161.809318 
z
" style="fill:#66c2a5;stroke:#66c2a5;stroke-linejoin:miter;"/>
   </g>
   <g id="patch_155">
    <path clip-path="url(#pbc5086b05f)" d="M 193.793127 159.814475 
L 203.76734 159.814475 
L 203.76734 149.840262 
L 193.793127 149.840262 
z
" style="fill:#66c2a5;stroke:#66c2a5;stroke-linejoin:miter;"/>
   </g>
   <g id="patch_156">
    <path clip-path="url(#pbc5086b05f)" d="M 205.762183 207.690697 
L 215.736396 207.690697 
L 215.736396 197.716484 
L 205.762183 197.716484 
z
" style="fill:#66c2a5;stroke:#66c2a5;stroke-linejoin:miter;"/>
   </g>
   <g id="patch_157">
    <path clip-path="url(#pbc5086b05f)" d="M 205.762183 195.721642 
L 215.736396 195.721642 
L 215.736396 185.747429 
L 205.762183 185.747429 
z
" style="fill:#66c2a5;stroke:#66c2a5;stroke-linejoin:miter;"/>
   </g>
   <g id="patch_158">
    <path clip-path="url(#pbc5086b05f)" d="M 205.762183 183.752586 
L 215.736396 183.752586 
L 215.736396 173.778373 
L 205.762183 173.778373 
z
" style="fill:#66c2a5;stroke:#66c2a5;stroke-linejoin:miter;"/>
   </g>
   <g id="patch_159">
    <path clip-path="url(#pbc5086b05f)" d="M 205.762183 171.783531 
L 215.736396 171.783531 
L 215.736396 161.809318 
L 205.762183 161.809318 
z
" style="fill:#66c2a5;stroke:#66c2a5;stroke-linejoin:miter;"/>
   </g>
   <g id="patch_160">
    <path clip-path="url(#pbc5086b05f)" d="M 205.762183 159.814475 
L 215.736396 159.814475 
L 215.736396 149.840262 
L 205.762183 149.840262 
z
" style="fill:#66c2a5;stroke:#66c2a5;stroke-linejoin:miter;"/>
   </g>
   <g id="patch_161">
    <path clip-path="url(#pbc5086b05f)" d="M 217.731238 207.690697 
L 227.705451 207.690697 
L 227.705451 197.716484 
L 217.731238 197.716484 
z
" style="fill:#66c2a5;stroke:#66c2a5;stroke-linejoin:miter;"/>
   </g>
   <g id="patch_162">
    <path clip-path="url(#pbc5086b05f)" d="M 217.731238 195.721642 
L 227.705451 195.721642 
L 227.705451 185.747429 
L 217.731238 185.747429 
z
" style="fill:#66c2a5;stroke:#66c2a5;stroke-linejoin:miter;"/>
   </g>
   <g id="patch_163">
    <path clip-path="url(#pbc5086b05f)" d="M 217.731238 183.752586 
L 227.705451 183.752586 
L 227.705451 173.778373 
L 217.731238 173.778373 
z
" style="fill:#66c2a5;stroke:#66c2a5;stroke-linejoin:miter;"/>
   </g>
   <g id="patch_164">
    <path clip-path="url(#pbc5086b05f)" d="M 217.731238 171.783531 
L 227.705451 171.783531 
L 227.705451 161.809318 
L 217.731238 161.809318 
z
" style="fill:#66c2a5;stroke:#66c2a5;stroke-linejoin:miter;"/>
   </g>
   <g id="patch_165">
    <path clip-path="url(#pbc5086b05f)" d="M 217.731238 159.814475 
L 227.705451 159.814475 
L 227.705451 149.840262 
L 217.731238 149.840262 
z
" style="fill:#fc8d62;stroke:#fc8d62;stroke-linejoin:miter;"/>
   </g>
   <g id="patch_166">
    <path clip-path="url(#pbc5086b05f)" d="M 229.700294 207.690697 
L 239.674507 207.690697 
L 239.674507 197.716484 
L 229.700294 197.716484 
z
" style="fill:#fc8d62;stroke:#fc8d62;stroke-linejoin:miter;"/>
   </g>
   <g id="patch_167">
    <path clip-path="url(#pbc5086b05f)" d="M 229.700294 195.721642 
L 239.674507 195.721642 
L 239.674507 185.747429 
L 229.700294 185.747429 
z
" style="fill:#fc8d62;stroke:#fc8d62;stroke-linejoin:miter;"/>
   </g>
   <g id="patch_168">
    <path clip-path="url(#pbc5086b05f)" d="M 229.700294 183.752586 
L 239.674507 183.752586 
L 239.674507 173.778373 
L 229.700294 173.778373 
z
" style="fill:#fc8d62;stroke:#fc8d62;stroke-linejoin:miter;"/>
   </g>
   <g id="patch_169">
    <path clip-path="url(#pbc5086b05f)" d="M 229.700294 171.783531 
L 239.674507 171.783531 
L 239.674507 161.809318 
L 229.700294 161.809318 
z
" style="fill:#fc8d62;stroke:#fc8d62;stroke-linejoin:miter;"/>
   </g>
   <g id="patch_170">
    <path clip-path="url(#pbc5086b05f)" d="M 229.700294 159.814475 
L 239.674507 159.814475 
L 239.674507 149.840262 
L 229.700294 149.840262 
z
" style="fill:#fc8d62;stroke:#fc8d62;stroke-linejoin:miter;"/>
   </g>
   <g id="patch_171">
    <path clip-path="url(#pbc5086b05f)" d="M 241.669349 207.690697 
L 251.643562 207.690697 
L 251.643562 197.716484 
L 241.669349 197.716484 
z
" style="fill:#fc8d62;stroke:#fc8d62;stroke-linejoin:miter;"/>
   </g>
   <g id="patch_172">
    <path clip-path="url(#pbc5086b05f)" d="M 241.669349 195.721642 
L 251.643562 195.721642 
L 251.643562 185.747429 
L 241.669349 185.747429 
z
" style="fill:#fc8d62;stroke:#fc8d62;stroke-linejoin:miter;"/>
   </g>
   <g id="patch_173">
    <path clip-path="url(#pbc5086b05f)" d="M 241.669349 183.752586 
L 251.643562 183.752586 
L 251.643562 173.778373 
L 241.669349 173.778373 
z
" style="fill:#fc8d62;stroke:#fc8d62;stroke-linejoin:miter;"/>
   </g>
   <g id="legend_3">
    <g id="patch_174">
     <path d="M 63.06075 187.196512 
L 244.643562 187.196512 
Q 246.643562 187.196512 246.643562 185.196512 
L 246.643562 156.840262 
Q 246.643562 154.840262 244.643562 154.840262 
L 63.06075 154.840262 
Q 61.06075 154.840262 61.06075 156.840262 
L 61.06075 185.196512 
Q 61.06075 187.196512 63.06075 187.196512 
z
" style="fill:#ffffff;opacity:0.8;stroke:#cccccc;stroke-linejoin:miter;"/>
    </g>
    <g id="patch_175">
     <path d="M 65.06075 166.4387 
L 85.06075 166.4387 
L 85.06075 159.4387 
L 65.06075 159.4387 
z
" style="fill:#66c2a5;stroke:#66c2a5;stroke-linejoin:miter;"/>
    </g>
    <g id="text_5">
     <!-- High school graduate or more -->
     <g transform="translate(93.06075 166.4387)scale(0.1 -0.1)">
      <use xlink:href="#DejaVuSans-48"/>
      <use x="75.195312" xlink:href="#DejaVuSans-69"/>
      <use x="102.978516" xlink:href="#DejaVuSans-67"/>
      <use x="166.455078" xlink:href="#DejaVuSans-68"/>
      <use x="229.833984" xlink:href="#DejaVuSans-20"/>
      <use x="261.621094" xlink:href="#DejaVuSans-73"/>
      <use x="313.720703" xlink:href="#DejaVuSans-63"/>
      <use x="368.701172" xlink:href="#DejaVuSans-68"/>
      <use x="432.080078" xlink:href="#DejaVuSans-6f"/>
      <use x="493.261719" xlink:href="#DejaVuSans-6f"/>
      <use x="554.443359" xlink:href="#DejaVuSans-6c"/>
      <use x="582.226562" xlink:href="#DejaVuSans-20"/>
      <use x="614.013672" xlink:href="#DejaVuSans-67"/>
      <use x="677.490234" xlink:href="#DejaVuSans-72"/>
      <use x="718.603516" xlink:href="#DejaVuSans-61"/>
      <use x="779.882812" xlink:href="#DejaVuSans-64"/>
      <use x="843.359375" xlink:href="#DejaVuSans-75"/>
      <use x="906.738281" xlink:href="#DejaVuSans-61"/>
      <use x="968.017578" xlink:href="#DejaVuSans-74"/>
      <use x="1007.226562" xlink:href="#DejaVuSans-65"/>
      <use x="1068.75" xlink:href="#DejaVuSans-20"/>
      <use x="1100.537109" xlink:href="#DejaVuSans-6f"/>
      <use x="1161.71875" xlink:href="#DejaVuSans-72"/>
      <use x="1202.832031" xlink:href="#DejaVuSans-20"/>
      <use x="1234.619141" xlink:href="#DejaVuSans-6d"/>
      <use x="1332.03125" xlink:href="#DejaVuSans-6f"/>
      <use x="1393.212891" xlink:href="#DejaVuSans-72"/>
      <use x="1434.294922" xlink:href="#DejaVuSans-65"/>
     </g>
    </g>
    <g id="patch_176">
     <path d="M 65.06075 181.116825 
L 85.06075 181.116825 
L 85.06075 174.116825 
L 65.06075 174.116825 
z
" style="fill:#fc8d62;stroke:#fc8d62;stroke-linejoin:miter;"/>
    </g>
    <g id="text_6">
     <!-- Other -->
     <g transform="translate(93.06075 181.116825)scale(0.1 -0.1)">
      <use xlink:href="#DejaVuSans-4f"/>
      <use x="78.710938" xlink:href="#DejaVuSans-74"/>
      <use x="117.919922" xlink:href="#DejaVuSans-68"/>
      <use x="181.298828" xlink:href="#DejaVuSans-65"/>
      <use x="242.822266" xlink:href="#DejaVuSans-72"/>
     </g>
    </g>
   </g>
  </g>
  <g id="axes_4">
   <g id="patch_177">
    <path clip-path="url(#p5220076758)" d="M 92.056156 277.111219 
L 102.030369 277.111219 
L 102.030369 267.137006 
L 92.056156 267.137006 
z
" style="fill:#66c2a5;stroke:#66c2a5;stroke-linejoin:miter;"/>
   </g>
   <g id="patch_178">
    <path clip-path="url(#p5220076758)" d="M 92.056156 265.142163 
L 102.030369 265.142163 
L 102.030369 255.16795 
L 92.056156 255.16795 
z
" style="fill:#66c2a5;stroke:#66c2a5;stroke-linejoin:miter;"/>
   </g>
   <g id="patch_179">
    <path clip-path="url(#p5220076758)" d="M 92.056156 253.173108 
L 102.030369 253.173108 
L 102.030369 243.198895 
L 92.056156 243.198895 
z
" style="fill:#66c2a5;stroke:#66c2a5;stroke-linejoin:miter;"/>
   </g>
   <g id="patch_180">
    <path clip-path="url(#p5220076758)" d="M 92.056156 241.204052 
L 102.030369 241.204052 
L 102.030369 231.229839 
L 92.056156 231.229839 
z
" style="fill:#66c2a5;stroke:#66c2a5;stroke-linejoin:miter;"/>
   </g>
   <g id="patch_181">
    <path clip-path="url(#p5220076758)" d="M 92.056156 229.234997 
L 102.030369 229.234997 
L 102.030369 219.260784 
L 92.056156 219.260784 
z
" style="fill:#66c2a5;stroke:#66c2a5;stroke-linejoin:miter;"/>
   </g>
   <g id="patch_182">
    <path clip-path="url(#p5220076758)" d="M 104.025211 277.111219 
L 113.999424 277.111219 
L 113.999424 267.137006 
L 104.025211 267.137006 
z
" style="fill:#66c2a5;stroke:#66c2a5;stroke-linejoin:miter;"/>
   </g>
   <g id="patch_183">
    <path clip-path="url(#p5220076758)" d="M 104.025211 265.142163 
L 113.999424 265.142163 
L 113.999424 255.16795 
L 104.025211 255.16795 
z
" style="fill:#66c2a5;stroke:#66c2a5;stroke-linejoin:miter;"/>
   </g>
   <g id="patch_184">
    <path clip-path="url(#p5220076758)" d="M 104.025211 253.173108 
L 113.999424 253.173108 
L 113.999424 243.198895 
L 104.025211 243.198895 
z
" style="fill:#66c2a5;stroke:#66c2a5;stroke-linejoin:miter;"/>
   </g>
   <g id="patch_185">
    <path clip-path="url(#p5220076758)" d="M 104.025211 241.204052 
L 113.999424 241.204052 
L 113.999424 231.229839 
L 104.025211 231.229839 
z
" style="fill:#66c2a5;stroke:#66c2a5;stroke-linejoin:miter;"/>
   </g>
   <g id="patch_186">
    <path clip-path="url(#p5220076758)" d="M 104.025211 229.234997 
L 113.999424 229.234997 
L 113.999424 219.260784 
L 104.025211 219.260784 
z
" style="fill:#66c2a5;stroke:#66c2a5;stroke-linejoin:miter;"/>
   </g>
   <g id="patch_187">
    <path clip-path="url(#p5220076758)" d="M 115.994267 277.111219 
L 125.96848 277.111219 
L 125.96848 267.137006 
L 115.994267 267.137006 
z
" style="fill:#66c2a5;stroke:#66c2a5;stroke-linejoin:miter;"/>
   </g>
   <g id="patch_188">
    <path clip-path="url(#p5220076758)" d="M 115.994267 265.142163 
L 125.96848 265.142163 
L 125.96848 255.16795 
L 115.994267 255.16795 
z
" style="fill:#66c2a5;stroke:#66c2a5;stroke-linejoin:miter;"/>
   </g>
   <g id="patch_189">
    <path clip-path="url(#p5220076758)" d="M 115.994267 253.173108 
L 125.96848 253.173108 
L 125.96848 243.198895 
L 115.994267 243.198895 
z
" style="fill:#66c2a5;stroke:#66c2a5;stroke-linejoin:miter;"/>
   </g>
   <g id="patch_190">
    <path clip-path="url(#p5220076758)" d="M 115.994267 241.204052 
L 125.96848 241.204052 
L 125.96848 231.229839 
L 115.994267 231.229839 
z
" style="fill:#66c2a5;stroke:#66c2a5;stroke-linejoin:miter;"/>
   </g>
   <g id="patch_191">
    <path clip-path="url(#p5220076758)" d="M 115.994267 229.234997 
L 125.96848 229.234997 
L 125.96848 219.260784 
L 115.994267 219.260784 
z
" style="fill:#66c2a5;stroke:#66c2a5;stroke-linejoin:miter;"/>
   </g>
   <g id="patch_192">
    <path clip-path="url(#p5220076758)" d="M 127.963322 277.111219 
L 137.937535 277.111219 
L 137.937535 267.137006 
L 127.963322 267.137006 
z
" style="fill:#66c2a5;stroke:#66c2a5;stroke-linejoin:miter;"/>
   </g>
   <g id="patch_193">
    <path clip-path="url(#p5220076758)" d="M 127.963322 265.142163 
L 137.937535 265.142163 
L 137.937535 255.16795 
L 127.963322 255.16795 
z
" style="fill:#66c2a5;stroke:#66c2a5;stroke-linejoin:miter;"/>
   </g>
   <g id="patch_194">
    <path clip-path="url(#p5220076758)" d="M 127.963322 253.173108 
L 137.937535 253.173108 
L 137.937535 243.198895 
L 127.963322 243.198895 
z
" style="fill:#66c2a5;stroke:#66c2a5;stroke-linejoin:miter;"/>
   </g>
   <g id="patch_195">
    <path clip-path="url(#p5220076758)" d="M 127.963322 241.204052 
L 137.937535 241.204052 
L 137.937535 231.229839 
L 127.963322 231.229839 
z
" style="fill:#66c2a5;stroke:#66c2a5;stroke-linejoin:miter;"/>
   </g>
   <g id="patch_196">
    <path clip-path="url(#p5220076758)" d="M 127.963322 229.234997 
L 137.937535 229.234997 
L 137.937535 219.260784 
L 127.963322 219.260784 
z
" style="fill:#66c2a5;stroke:#66c2a5;stroke-linejoin:miter;"/>
   </g>
   <g id="patch_197">
    <path clip-path="url(#p5220076758)" d="M 139.932378 277.111219 
L 149.906591 277.111219 
L 149.906591 267.137006 
L 139.932378 267.137006 
z
" style="fill:#66c2a5;stroke:#66c2a5;stroke-linejoin:miter;"/>
   </g>
   <g id="patch_198">
    <path clip-path="url(#p5220076758)" d="M 139.932378 265.142163 
L 149.906591 265.142163 
L 149.906591 255.16795 
L 139.932378 255.16795 
z
" style="fill:#66c2a5;stroke:#66c2a5;stroke-linejoin:miter;"/>
   </g>
   <g id="patch_199">
    <path clip-path="url(#p5220076758)" d="M 139.932378 253.173108 
L 149.906591 253.173108 
L 149.906591 243.198895 
L 139.932378 243.198895 
z
" style="fill:#66c2a5;stroke:#66c2a5;stroke-linejoin:miter;"/>
   </g>
   <g id="patch_200">
    <path clip-path="url(#p5220076758)" d="M 139.932378 241.204052 
L 149.906591 241.204052 
L 149.906591 231.229839 
L 139.932378 231.229839 
z
" style="fill:#66c2a5;stroke:#66c2a5;stroke-linejoin:miter;"/>
   </g>
   <g id="patch_201">
    <path clip-path="url(#p5220076758)" d="M 139.932378 229.234997 
L 149.906591 229.234997 
L 149.906591 219.260784 
L 139.932378 219.260784 
z
" style="fill:#66c2a5;stroke:#66c2a5;stroke-linejoin:miter;"/>
   </g>
   <g id="patch_202">
    <path clip-path="url(#p5220076758)" d="M 151.901433 277.111219 
L 161.875646 277.111219 
L 161.875646 267.137006 
L 151.901433 267.137006 
z
" style="fill:#66c2a5;stroke:#66c2a5;stroke-linejoin:miter;"/>
   </g>
   <g id="patch_203">
    <path clip-path="url(#p5220076758)" d="M 151.901433 265.142163 
L 161.875646 265.142163 
L 161.875646 255.16795 
L 151.901433 255.16795 
z
" style="fill:#66c2a5;stroke:#66c2a5;stroke-linejoin:miter;"/>
   </g>
   <g id="patch_204">
    <path clip-path="url(#p5220076758)" d="M 151.901433 253.173108 
L 161.875646 253.173108 
L 161.875646 243.198895 
L 151.901433 243.198895 
z
" style="fill:#66c2a5;stroke:#66c2a5;stroke-linejoin:miter;"/>
   </g>
   <g id="patch_205">
    <path clip-path="url(#p5220076758)" d="M 151.901433 241.204052 
L 161.875646 241.204052 
L 161.875646 231.229839 
L 151.901433 231.229839 
z
" style="fill:#66c2a5;stroke:#66c2a5;stroke-linejoin:miter;"/>
   </g>
   <g id="patch_206">
    <path clip-path="url(#p5220076758)" d="M 151.901433 229.234997 
L 161.875646 229.234997 
L 161.875646 219.260784 
L 151.901433 219.260784 
z
" style="fill:#66c2a5;stroke:#66c2a5;stroke-linejoin:miter;"/>
   </g>
   <g id="patch_207">
    <path clip-path="url(#p5220076758)" d="M 163.870489 277.111219 
L 173.844702 277.111219 
L 173.844702 267.137006 
L 163.870489 267.137006 
z
" style="fill:#66c2a5;stroke:#66c2a5;stroke-linejoin:miter;"/>
   </g>
   <g id="patch_208">
    <path clip-path="url(#p5220076758)" d="M 163.870489 265.142163 
L 173.844702 265.142163 
L 173.844702 255.16795 
L 163.870489 255.16795 
z
" style="fill:#66c2a5;stroke:#66c2a5;stroke-linejoin:miter;"/>
   </g>
   <g id="patch_209">
    <path clip-path="url(#p5220076758)" d="M 163.870489 253.173108 
L 173.844702 253.173108 
L 173.844702 243.198895 
L 163.870489 243.198895 
z
" style="fill:#66c2a5;stroke:#66c2a5;stroke-linejoin:miter;"/>
   </g>
   <g id="patch_210">
    <path clip-path="url(#p5220076758)" d="M 163.870489 241.204052 
L 173.844702 241.204052 
L 173.844702 231.229839 
L 163.870489 231.229839 
z
" style="fill:#66c2a5;stroke:#66c2a5;stroke-linejoin:miter;"/>
   </g>
   <g id="patch_211">
    <path clip-path="url(#p5220076758)" d="M 163.870489 229.234997 
L 173.844702 229.234997 
L 173.844702 219.260784 
L 163.870489 219.260784 
z
" style="fill:#66c2a5;stroke:#66c2a5;stroke-linejoin:miter;"/>
   </g>
   <g id="patch_212">
    <path clip-path="url(#p5220076758)" d="M 175.839544 277.111219 
L 185.813757 277.111219 
L 185.813757 267.137006 
L 175.839544 267.137006 
z
" style="fill:#66c2a5;stroke:#66c2a5;stroke-linejoin:miter;"/>
   </g>
   <g id="patch_213">
    <path clip-path="url(#p5220076758)" d="M 175.839544 265.142163 
L 185.813757 265.142163 
L 185.813757 255.16795 
L 175.839544 255.16795 
z
" style="fill:#66c2a5;stroke:#66c2a5;stroke-linejoin:miter;"/>
   </g>
   <g id="patch_214">
    <path clip-path="url(#p5220076758)" d="M 175.839544 253.173108 
L 185.813757 253.173108 
L 185.813757 243.198895 
L 175.839544 243.198895 
z
" style="fill:#66c2a5;stroke:#66c2a5;stroke-linejoin:miter;"/>
   </g>
   <g id="patch_215">
    <path clip-path="url(#p5220076758)" d="M 175.839544 241.204052 
L 185.813757 241.204052 
L 185.813757 231.229839 
L 175.839544 231.229839 
z
" style="fill:#66c2a5;stroke:#66c2a5;stroke-linejoin:miter;"/>
   </g>
   <g id="patch_216">
    <path clip-path="url(#p5220076758)" d="M 175.839544 229.234997 
L 185.813757 229.234997 
L 185.813757 219.260784 
L 175.839544 219.260784 
z
" style="fill:#66c2a5;stroke:#66c2a5;stroke-linejoin:miter;"/>
   </g>
   <g id="patch_217">
    <path clip-path="url(#p5220076758)" d="M 187.8086 277.111219 
L 197.782813 277.111219 
L 197.782813 267.137006 
L 187.8086 267.137006 
z
" style="fill:#66c2a5;stroke:#66c2a5;stroke-linejoin:miter;"/>
   </g>
   <g id="patch_218">
    <path clip-path="url(#p5220076758)" d="M 187.8086 265.142163 
L 197.782813 265.142163 
L 197.782813 255.16795 
L 187.8086 255.16795 
z
" style="fill:#fc8d62;stroke:#fc8d62;stroke-linejoin:miter;"/>
   </g>
   <g id="patch_219">
    <path clip-path="url(#p5220076758)" d="M 187.8086 253.173108 
L 197.782813 253.173108 
L 197.782813 243.198895 
L 187.8086 243.198895 
z
" style="fill:#fc8d62;stroke:#fc8d62;stroke-linejoin:miter;"/>
   </g>
   <g id="patch_220">
    <path clip-path="url(#p5220076758)" d="M 187.8086 241.204052 
L 197.782813 241.204052 
L 197.782813 231.229839 
L 187.8086 231.229839 
z
" style="fill:#fc8d62;stroke:#fc8d62;stroke-linejoin:miter;"/>
   </g>
   <g id="patch_221">
    <path clip-path="url(#p5220076758)" d="M 187.8086 229.234997 
L 197.782813 229.234997 
L 197.782813 219.260784 
L 187.8086 219.260784 
z
" style="fill:#fc8d62;stroke:#fc8d62;stroke-linejoin:miter;"/>
   </g>
   <g id="patch_222">
    <path clip-path="url(#p5220076758)" d="M 199.777655 277.111219 
L 209.751868 277.111219 
L 209.751868 267.137006 
L 199.777655 267.137006 
z
" style="fill:#fc8d62;stroke:#fc8d62;stroke-linejoin:miter;"/>
   </g>
   <g id="legend_4">
    <g id="patch_223">
     <path d="M 21.169055 256.617034 
L 202.751868 256.617034 
Q 204.751868 256.617034 204.751868 254.617034 
L 204.751868 226.260784 
Q 204.751868 224.260784 202.751868 224.260784 
L 21.169055 224.260784 
Q 19.169055 224.260784 19.169055 226.260784 
L 19.169055 254.617034 
Q 19.169055 256.617034 21.169055 256.617034 
z
" style="fill:#ffffff;opacity:0.8;stroke:#cccccc;stroke-linejoin:miter;"/>
    </g>
    <g id="patch_224">
     <path d="M 23.169055 235.859221 
L 43.169055 235.859221 
L 43.169055 228.859221 
L 23.169055 228.859221 
z
" style="fill:#66c2a5;stroke:#66c2a5;stroke-linejoin:miter;"/>
    </g>
    <g id="text_7">
     <!-- High school graduate or more -->
     <g transform="translate(51.169055 235.859221)scale(0.1 -0.1)">
      <use xlink:href="#DejaVuSans-48"/>
      <use x="75.195312" xlink:href="#DejaVuSans-69"/>
      <use x="102.978516" xlink:href="#DejaVuSans-67"/>
      <use x="166.455078" xlink:href="#DejaVuSans-68"/>
      <use x="229.833984" xlink:href="#DejaVuSans-20"/>
      <use x="261.621094" xlink:href="#DejaVuSans-73"/>
      <use x="313.720703" xlink:href="#DejaVuSans-63"/>
      <use x="368.701172" xlink:href="#DejaVuSans-68"/>
      <use x="432.080078" xlink:href="#DejaVuSans-6f"/>
      <use x="493.261719" xlink:href="#DejaVuSans-6f"/>
      <use x="554.443359" xlink:href="#DejaVuSans-6c"/>
      <use x="582.226562" xlink:href="#DejaVuSans-20"/>
      <use x="614.013672" xlink:href="#DejaVuSans-67"/>
      <use x="677.490234" xlink:href="#DejaVuSans-72"/>
      <use x="718.603516" xlink:href="#DejaVuSans-61"/>
      <use x="779.882812" xlink:href="#DejaVuSans-64"/>
      <use x="843.359375" xlink:href="#DejaVuSans-75"/>
      <use x="906.738281" xlink:href="#DejaVuSans-61"/>
      <use x="968.017578" xlink:href="#DejaVuSans-74"/>
      <use x="1007.226562" xlink:href="#DejaVuSans-65"/>
      <use x="1068.75" xlink:href="#DejaVuSans-20"/>
      <use x="1100.537109" xlink:href="#DejaVuSans-6f"/>
      <use x="1161.71875" xlink:href="#DejaVuSans-72"/>
      <use x="1202.832031" xlink:href="#DejaVuSans-20"/>
      <use x="1234.619141" xlink:href="#DejaVuSans-6d"/>
      <use x="1332.03125" xlink:href="#DejaVuSans-6f"/>
      <use x="1393.212891" xlink:href="#DejaVuSans-72"/>
      <use x="1434.294922" xlink:href="#DejaVuSans-65"/>
     </g>
    </g>
    <g id="patch_225">
     <path d="M 23.169055 250.537346 
L 43.169055 250.537346 
L 43.169055 243.537346 
L 23.169055 243.537346 
z
" style="fill:#fc8d62;stroke:#fc8d62;stroke-linejoin:miter;"/>
    </g>
    <g id="text_8">
     <!-- Other -->
     <g transform="translate(51.169055 250.537346)scale(0.1 -0.1)">
      <use xlink:href="#DejaVuSans-4f"/>
      <use x="78.710938" xlink:href="#DejaVuSans-74"/>
      <use x="117.919922" xlink:href="#DejaVuSans-68"/>
      <use x="181.298828" xlink:href="#DejaVuSans-65"/>
      <use x="242.822266" xlink:href="#DejaVuSans-72"/>
     </g>
    </g>
   </g>
  </g>
 </g>
 <defs>
  <clipPath id="p2e891713a4">
   <rect height="57.850435" width="105.726657" x="98.040684" y="10.999219"/>
  </clipPath>
  <clipPath id="p1ff676cfd3">
   <rect height="57.850435" width="93.757601" x="104.025211" y="80.41974"/>
  </clipPath>
  <clipPath id="pbc5086b05f">
   <rect height="57.850435" width="201.4791" x="50.164462" y="149.840262"/>
  </clipPath>
  <clipPath id="p5220076758">
   <rect height="57.850435" width="117.695712" x="92.056156" y="219.260784"/>
  </clipPath>
 </defs>
</svg>
