<?xml version="1.0" encoding="utf-8" standalone="no"?>
<!DOCTYPE svg PUBLIC "-//W3C//DTD SVG 1.1//EN"
  "http://www.w3.org/Graphics/SVG/1.1/DTD/svg11.dtd">
<!-- Created with matplotlib (http://matplotlib.org/) -->
<svg height="163pt" version="1.1" viewBox="0 0 453 163" width="453pt" xmlns="http://www.w3.org/2000/svg" xmlns:xlink="http://www.w3.org/1999/xlink">
 <defs>
  <style type="text/css">
*{stroke-linecap:butt;stroke-linejoin:round;}
  </style>
 </defs>
 <g id="figure_1">
  <g id="patch_1">
   <path d="M 0 163.183971 
L 453.6 163.183971 
L 453.6 0 
L 0 0 
z
" style="fill:#eeeeee;"/>
  </g>
  <g id="axes_1">
   <g id="patch_2">
    <path clip-path="url(#pb9c59d63b4)" d="M 36.465625 121.365158 
L 53.5427 121.365158 
L 53.5427 104.288083 
L 36.465625 104.288083 
z
" style="fill:#983d3d;stroke:#983d3d;stroke-linejoin:miter;"/>
   </g>
   <g id="patch_3">
    <path clip-path="url(#pb9c59d63b4)" d="M 36.465625 100.872668 
L 53.5427 100.872668 
L 53.5427 83.795593 
L 36.465625 83.795593 
z
" style="fill:#983d3d;stroke:#983d3d;stroke-linejoin:miter;"/>
   </g>
   <g id="patch_4">
    <path clip-path="url(#pb9c59d63b4)" d="M 36.465625 80.380179 
L 53.5427 80.380179 
L 53.5427 63.303104 
L 36.465625 63.303104 
z
" style="fill:#983d3d;stroke:#983d3d;stroke-linejoin:miter;"/>
   </g>
   <g id="patch_5">
    <path clip-path="url(#pb9c59d63b4)" d="M 36.465625 59.887689 
L 53.5427 59.887689 
L 53.5427 42.810614 
L 36.465625 42.810614 
z
" style="fill:#983d3d;stroke:#983d3d;stroke-linejoin:miter;"/>
   </g>
   <g id="patch_6">
    <path clip-path="url(#pb9c59d63b4)" d="M 36.465625 39.3952 
L 53.5427 39.3952 
L 53.5427 22.318125 
L 36.465625 22.318125 
z
" style="fill:#983d3d;stroke:#983d3d;stroke-linejoin:miter;"/>
   </g>
   <g id="patch_7">
    <path clip-path="url(#pb9c59d63b4)" d="M 56.958114 121.365158 
L 74.035189 121.365158 
L 74.035189 104.288083 
L 56.958114 104.288083 
z
" style="fill:#983d3d;stroke:#983d3d;stroke-linejoin:miter;"/>
   </g>
   <g id="patch_8">
    <path clip-path="url(#pb9c59d63b4)" d="M 56.958114 100.872668 
L 74.035189 100.872668 
L 74.035189 83.795593 
L 56.958114 83.795593 
z
" style="fill:#983d3d;stroke:#983d3d;stroke-linejoin:miter;"/>
   </g>
   <g id="patch_9">
    <path clip-path="url(#pb9c59d63b4)" d="M 56.958114 80.380179 
L 74.035189 80.380179 
L 74.035189 63.303104 
L 56.958114 63.303104 
z
" style="fill:#983d3d;stroke:#983d3d;stroke-linejoin:miter;"/>
   </g>
   <g id="patch_10">
    <path clip-path="url(#pb9c59d63b4)" d="M 56.958114 59.887689 
L 74.035189 59.887689 
L 74.035189 42.810614 
L 56.958114 42.810614 
z
" style="fill:#983d3d;stroke:#983d3d;stroke-linejoin:miter;"/>
   </g>
   <g id="patch_11">
    <path clip-path="url(#pb9c59d63b4)" d="M 56.958114 39.3952 
L 74.035189 39.3952 
L 74.035189 22.318125 
L 56.958114 22.318125 
z
" style="fill:#983d3d;stroke:#983d3d;stroke-linejoin:miter;"/>
   </g>
   <g id="patch_12">
    <path clip-path="url(#pb9c59d63b4)" d="M 77.450604 121.365158 
L 94.527679 121.365158 
L 94.527679 104.288083 
L 77.450604 104.288083 
z
" style="fill:#983d3d;stroke:#983d3d;stroke-linejoin:miter;"/>
   </g>
   <g id="patch_13">
    <path clip-path="url(#pb9c59d63b4)" d="M 77.450604 100.872668 
L 94.527679 100.872668 
L 94.527679 83.795593 
L 77.450604 83.795593 
z
" style="fill:#983d3d;stroke:#983d3d;stroke-linejoin:miter;"/>
   </g>
   <g id="patch_14">
    <path clip-path="url(#pb9c59d63b4)" d="M 77.450604 80.380179 
L 94.527679 80.380179 
L 94.527679 63.303104 
L 77.450604 63.303104 
z
" style="fill:#983d3d;stroke:#983d3d;stroke-linejoin:miter;"/>
   </g>
   <g id="patch_15">
    <path clip-path="url(#pb9c59d63b4)" d="M 77.450604 59.887689 
L 94.527679 59.887689 
L 94.527679 42.810614 
L 77.450604 42.810614 
z
" style="fill:#983d3d;stroke:#983d3d;stroke-linejoin:miter;"/>
   </g>
   <g id="patch_16">
    <path clip-path="url(#pb9c59d63b4)" d="M 77.450604 39.3952 
L 94.527679 39.3952 
L 94.527679 22.318125 
L 77.450604 22.318125 
z
" style="fill:#983d3d;stroke:#983d3d;stroke-linejoin:miter;"/>
   </g>
   <g id="patch_17">
    <path clip-path="url(#pb9c59d63b4)" d="M 97.943093 121.365158 
L 115.020168 121.365158 
L 115.020168 104.288083 
L 97.943093 104.288083 
z
" style="fill:#983d3d;stroke:#983d3d;stroke-linejoin:miter;"/>
   </g>
   <g id="patch_18">
    <path clip-path="url(#pb9c59d63b4)" d="M 97.943093 100.872668 
L 115.020168 100.872668 
L 115.020168 83.795593 
L 97.943093 83.795593 
z
" style="fill:#983d3d;stroke:#983d3d;stroke-linejoin:miter;"/>
   </g>
   <g id="patch_19">
    <path clip-path="url(#pb9c59d63b4)" d="M 97.943093 80.380179 
L 115.020168 80.380179 
L 115.020168 63.303104 
L 97.943093 63.303104 
z
" style="fill:#983d3d;stroke:#983d3d;stroke-linejoin:miter;"/>
   </g>
   <g id="patch_20">
    <path clip-path="url(#pb9c59d63b4)" d="M 97.943093 59.887689 
L 115.020168 59.887689 
L 115.020168 42.810614 
L 97.943093 42.810614 
z
" style="fill:#983d3d;stroke:#983d3d;stroke-linejoin:miter;"/>
   </g>
   <g id="patch_21">
    <path clip-path="url(#pb9c59d63b4)" d="M 97.943093 39.3952 
L 115.020168 39.3952 
L 115.020168 22.318125 
L 97.943093 22.318125 
z
" style="fill:#983d3d;stroke:#983d3d;stroke-linejoin:miter;"/>
   </g>
   <g id="patch_22">
    <path clip-path="url(#pb9c59d63b4)" d="M 118.435583 121.365158 
L 135.512658 121.365158 
L 135.512658 104.288083 
L 118.435583 104.288083 
z
" style="fill:#983d3d;stroke:#983d3d;stroke-linejoin:miter;"/>
   </g>
   <g id="patch_23">
    <path clip-path="url(#pb9c59d63b4)" d="M 118.435583 100.872668 
L 135.512658 100.872668 
L 135.512658 83.795593 
L 118.435583 83.795593 
z
" style="fill:#983d3d;stroke:#983d3d;stroke-linejoin:miter;"/>
   </g>
   <g id="patch_24">
    <path clip-path="url(#pb9c59d63b4)" d="M 118.435583 80.380179 
L 135.512658 80.380179 
L 135.512658 63.303104 
L 118.435583 63.303104 
z
" style="fill:#983d3d;stroke:#983d3d;stroke-linejoin:miter;"/>
   </g>
   <g id="patch_25">
    <path clip-path="url(#pb9c59d63b4)" d="M 118.435583 59.887689 
L 135.512658 59.887689 
L 135.512658 42.810614 
L 118.435583 42.810614 
z
" style="fill:#983d3d;stroke:#983d3d;stroke-linejoin:miter;"/>
   </g>
   <g id="patch_26">
    <path clip-path="url(#pb9c59d63b4)" d="M 118.435583 39.3952 
L 135.512658 39.3952 
L 135.512658 22.318125 
L 118.435583 22.318125 
z
" style="fill:#983d3d;stroke:#983d3d;stroke-linejoin:miter;"/>
   </g>
   <g id="patch_27">
    <path clip-path="url(#pb9c59d63b4)" d="M 138.928072 121.365158 
L 156.005147 121.365158 
L 156.005147 104.288083 
L 138.928072 104.288083 
z
" style="fill:#983d3d;stroke:#983d3d;stroke-linejoin:miter;"/>
   </g>
   <g id="patch_28">
    <path clip-path="url(#pb9c59d63b4)" d="M 138.928072 100.872668 
L 156.005147 100.872668 
L 156.005147 83.795593 
L 138.928072 83.795593 
z
" style="fill:#983d3d;stroke:#983d3d;stroke-linejoin:miter;"/>
   </g>
   <g id="patch_29">
    <path clip-path="url(#pb9c59d63b4)" d="M 138.928072 80.380179 
L 156.005147 80.380179 
L 156.005147 63.303104 
L 138.928072 63.303104 
z
" style="fill:#983d3d;stroke:#983d3d;stroke-linejoin:miter;"/>
   </g>
   <g id="patch_30">
    <path clip-path="url(#pb9c59d63b4)" d="M 138.928072 59.887689 
L 156.005147 59.887689 
L 156.005147 42.810614 
L 138.928072 42.810614 
z
" style="fill:#983d3d;stroke:#983d3d;stroke-linejoin:miter;"/>
   </g>
   <g id="patch_31">
    <path clip-path="url(#pb9c59d63b4)" d="M 138.928072 39.3952 
L 156.005147 39.3952 
L 156.005147 22.318125 
L 138.928072 22.318125 
z
" style="fill:#983d3d;stroke:#983d3d;stroke-linejoin:miter;"/>
   </g>
   <g id="patch_32">
    <path clip-path="url(#pb9c59d63b4)" d="M 159.420562 121.365158 
L 176.497637 121.365158 
L 176.497637 104.288083 
L 159.420562 104.288083 
z
" style="fill:#983d3d;stroke:#983d3d;stroke-linejoin:miter;"/>
   </g>
   <g id="patch_33">
    <path clip-path="url(#pb9c59d63b4)" d="M 159.420562 100.872668 
L 176.497637 100.872668 
L 176.497637 83.795593 
L 159.420562 83.795593 
z
" style="fill:#983d3d;stroke:#983d3d;stroke-linejoin:miter;"/>
   </g>
   <g id="patch_34">
    <path clip-path="url(#pb9c59d63b4)" d="M 159.420562 80.380179 
L 176.497637 80.380179 
L 176.497637 63.303104 
L 159.420562 63.303104 
z
" style="fill:#983d3d;stroke:#983d3d;stroke-linejoin:miter;"/>
   </g>
   <g id="patch_35">
    <path clip-path="url(#pb9c59d63b4)" d="M 159.420562 59.887689 
L 176.497637 59.887689 
L 176.497637 42.810614 
L 159.420562 42.810614 
z
" style="fill:#983d3d;stroke:#983d3d;stroke-linejoin:miter;"/>
   </g>
   <g id="patch_36">
    <path clip-path="url(#pb9c59d63b4)" d="M 159.420562 39.3952 
L 176.497637 39.3952 
L 176.497637 22.318125 
L 159.420562 22.318125 
z
" style="fill:#983d3d;stroke:#983d3d;stroke-linejoin:miter;"/>
   </g>
   <g id="patch_37">
    <path clip-path="url(#pb9c59d63b4)" d="M 179.913051 121.365158 
L 196.990126 121.365158 
L 196.990126 104.288083 
L 179.913051 104.288083 
z
" style="fill:#983d3d;stroke:#983d3d;stroke-linejoin:miter;"/>
   </g>
   <g id="patch_38">
    <path clip-path="url(#pb9c59d63b4)" d="M 179.913051 100.872668 
L 196.990126 100.872668 
L 196.990126 83.795593 
L 179.913051 83.795593 
z
" style="fill:#983d3d;stroke:#983d3d;stroke-linejoin:miter;"/>
   </g>
   <g id="patch_39">
    <path clip-path="url(#pb9c59d63b4)" d="M 179.913051 80.380179 
L 196.990126 80.380179 
L 196.990126 63.303104 
L 179.913051 63.303104 
z
" style="fill:#983d3d;stroke:#983d3d;stroke-linejoin:miter;"/>
   </g>
   <g id="patch_40">
    <path clip-path="url(#pb9c59d63b4)" d="M 179.913051 59.887689 
L 196.990126 59.887689 
L 196.990126 42.810614 
L 179.913051 42.810614 
z
" style="fill:#983d3d;stroke:#983d3d;stroke-linejoin:miter;"/>
   </g>
   <g id="patch_41">
    <path clip-path="url(#pb9c59d63b4)" d="M 179.913051 39.3952 
L 196.990126 39.3952 
L 196.990126 22.318125 
L 179.913051 22.318125 
z
" style="fill:#983d3d;stroke:#983d3d;stroke-linejoin:miter;"/>
   </g>
   <g id="patch_42">
    <path clip-path="url(#pb9c59d63b4)" d="M 200.405541 121.365158 
L 217.482616 121.365158 
L 217.482616 104.288083 
L 200.405541 104.288083 
z
" style="fill:#983d3d;stroke:#983d3d;stroke-linejoin:miter;"/>
   </g>
   <g id="patch_43">
    <path clip-path="url(#pb9c59d63b4)" d="M 200.405541 100.872668 
L 217.482616 100.872668 
L 217.482616 83.795593 
L 200.405541 83.795593 
z
" style="fill:#983d3d;stroke:#983d3d;stroke-linejoin:miter;"/>
   </g>
   <g id="patch_44">
    <path clip-path="url(#pb9c59d63b4)" d="M 200.405541 80.380179 
L 217.482616 80.380179 
L 217.482616 63.303104 
L 200.405541 63.303104 
z
" style="fill:#983d3d;stroke:#983d3d;stroke-linejoin:miter;"/>
   </g>
   <g id="patch_45">
    <path clip-path="url(#pb9c59d63b4)" d="M 200.405541 59.887689 
L 217.482616 59.887689 
L 217.482616 42.810614 
L 200.405541 42.810614 
z
" style="fill:#983d3d;stroke:#983d3d;stroke-linejoin:miter;"/>
   </g>
   <g id="patch_46">
    <path clip-path="url(#pb9c59d63b4)" d="M 200.405541 39.3952 
L 217.482616 39.3952 
L 217.482616 22.318125 
L 200.405541 22.318125 
z
" style="fill:#983d3d;stroke:#983d3d;stroke-linejoin:miter;"/>
   </g>
   <g id="patch_47">
    <path clip-path="url(#pb9c59d63b4)" d="M 220.89803 121.365158 
L 237.975105 121.365158 
L 237.975105 104.288083 
L 220.89803 104.288083 
z
" style="fill:#983d3d;stroke:#983d3d;stroke-linejoin:miter;"/>
   </g>
   <g id="patch_48">
    <path clip-path="url(#pb9c59d63b4)" d="M 220.89803 100.872668 
L 237.975105 100.872668 
L 237.975105 83.795593 
L 220.89803 83.795593 
z
" style="fill:#983d3d;stroke:#983d3d;stroke-linejoin:miter;"/>
   </g>
   <g id="patch_49">
    <path clip-path="url(#pb9c59d63b4)" d="M 220.89803 80.380179 
L 237.975105 80.380179 
L 237.975105 63.303104 
L 220.89803 63.303104 
z
" style="fill:#983d3d;stroke:#983d3d;stroke-linejoin:miter;"/>
   </g>
   <g id="patch_50">
    <path clip-path="url(#pb9c59d63b4)" d="M 220.89803 59.887689 
L 237.975105 59.887689 
L 237.975105 42.810614 
L 220.89803 42.810614 
z
" style="fill:#232066;stroke:#232066;stroke-linejoin:miter;"/>
   </g>
   <g id="patch_51">
    <path clip-path="url(#pb9c59d63b4)" d="M 220.89803 39.3952 
L 237.975105 39.3952 
L 237.975105 22.318125 
L 220.89803 22.318125 
z
" style="fill:#232066;stroke:#232066;stroke-linejoin:miter;"/>
   </g>
   <g id="patch_52">
    <path clip-path="url(#pb9c59d63b4)" d="M 241.39052 121.365158 
L 258.467595 121.365158 
L 258.467595 104.288083 
L 241.39052 104.288083 
z
" style="fill:#232066;stroke:#232066;stroke-linejoin:miter;"/>
   </g>
   <g id="patch_53">
    <path clip-path="url(#pb9c59d63b4)" d="M 241.39052 100.872668 
L 258.467595 100.872668 
L 258.467595 83.795593 
L 241.39052 83.795593 
z
" style="fill:#232066;stroke:#232066;stroke-linejoin:miter;"/>
   </g>
   <g id="patch_54">
    <path clip-path="url(#pb9c59d63b4)" d="M 241.39052 80.380179 
L 258.467595 80.380179 
L 258.467595 63.303104 
L 241.39052 63.303104 
z
" style="fill:#232066;stroke:#232066;stroke-linejoin:miter;"/>
   </g>
   <g id="patch_55">
    <path clip-path="url(#pb9c59d63b4)" d="M 241.39052 59.887689 
L 258.467595 59.887689 
L 258.467595 42.810614 
L 241.39052 42.810614 
z
" style="fill:#232066;stroke:#232066;stroke-linejoin:miter;"/>
   </g>
   <g id="patch_56">
    <path clip-path="url(#pb9c59d63b4)" d="M 241.39052 39.3952 
L 258.467595 39.3952 
L 258.467595 22.318125 
L 241.39052 22.318125 
z
" style="fill:#232066;stroke:#232066;stroke-linejoin:miter;"/>
   </g>
   <g id="patch_57">
    <path clip-path="url(#pb9c59d63b4)" d="M 261.883009 121.365158 
L 278.960084 121.365158 
L 278.960084 104.288083 
L 261.883009 104.288083 
z
" style="fill:#232066;stroke:#232066;stroke-linejoin:miter;"/>
   </g>
   <g id="patch_58">
    <path clip-path="url(#pb9c59d63b4)" d="M 261.883009 100.872668 
L 278.960084 100.872668 
L 278.960084 83.795593 
L 261.883009 83.795593 
z
" style="fill:#232066;stroke:#232066;stroke-linejoin:miter;"/>
   </g>
   <g id="patch_59">
    <path clip-path="url(#pb9c59d63b4)" d="M 261.883009 80.380179 
L 278.960084 80.380179 
L 278.960084 63.303104 
L 261.883009 63.303104 
z
" style="fill:#232066;stroke:#232066;stroke-linejoin:miter;"/>
   </g>
   <g id="patch_60">
    <path clip-path="url(#pb9c59d63b4)" d="M 261.883009 59.887689 
L 278.960084 59.887689 
L 278.960084 42.810614 
L 261.883009 42.810614 
z
" style="fill:#232066;stroke:#232066;stroke-linejoin:miter;"/>
   </g>
   <g id="patch_61">
    <path clip-path="url(#pb9c59d63b4)" d="M 261.883009 39.3952 
L 278.960084 39.3952 
L 278.960084 22.318125 
L 261.883009 22.318125 
z
" style="fill:#232066;stroke:#232066;stroke-linejoin:miter;"/>
   </g>
   <g id="patch_62">
    <path clip-path="url(#pb9c59d63b4)" d="M 282.375499 121.365158 
L 299.452574 121.365158 
L 299.452574 104.288083 
L 282.375499 104.288083 
z
" style="fill:#232066;stroke:#232066;stroke-linejoin:miter;"/>
   </g>
   <g id="patch_63">
    <path clip-path="url(#pb9c59d63b4)" d="M 282.375499 100.872668 
L 299.452574 100.872668 
L 299.452574 83.795593 
L 282.375499 83.795593 
z
" style="fill:#232066;stroke:#232066;stroke-linejoin:miter;"/>
   </g>
   <g id="patch_64">
    <path clip-path="url(#pb9c59d63b4)" d="M 282.375499 80.380179 
L 299.452574 80.380179 
L 299.452574 63.303104 
L 282.375499 63.303104 
z
" style="fill:#232066;stroke:#232066;stroke-linejoin:miter;"/>
   </g>
   <g id="patch_65">
    <path clip-path="url(#pb9c59d63b4)" d="M 282.375499 59.887689 
L 299.452574 59.887689 
L 299.452574 42.810614 
L 282.375499 42.810614 
z
" style="fill:#232066;stroke:#232066;stroke-linejoin:miter;"/>
   </g>
   <g id="patch_66">
    <path clip-path="url(#pb9c59d63b4)" d="M 282.375499 39.3952 
L 299.452574 39.3952 
L 299.452574 22.318125 
L 282.375499 22.318125 
z
" style="fill:#232066;stroke:#232066;stroke-linejoin:miter;"/>
   </g>
   <g id="patch_67">
    <path clip-path="url(#pb9c59d63b4)" d="M 302.867988 121.365158 
L 319.945063 121.365158 
L 319.945063 104.288083 
L 302.867988 104.288083 
z
" style="fill:#232066;stroke:#232066;stroke-linejoin:miter;"/>
   </g>
   <g id="patch_68">
    <path clip-path="url(#pb9c59d63b4)" d="M 302.867988 100.872668 
L 319.945063 100.872668 
L 319.945063 83.795593 
L 302.867988 83.795593 
z
" style="fill:#232066;stroke:#232066;stroke-linejoin:miter;"/>
   </g>
   <g id="patch_69">
    <path clip-path="url(#pb9c59d63b4)" d="M 302.867988 80.380179 
L 319.945063 80.380179 
L 319.945063 63.303104 
L 302.867988 63.303104 
z
" style="fill:#232066;stroke:#232066;stroke-linejoin:miter;"/>
   </g>
   <g id="patch_70">
    <path clip-path="url(#pb9c59d63b4)" d="M 302.867988 59.887689 
L 319.945063 59.887689 
L 319.945063 42.810614 
L 302.867988 42.810614 
z
" style="fill:#232066;stroke:#232066;stroke-linejoin:miter;"/>
   </g>
   <g id="patch_71">
    <path clip-path="url(#pb9c59d63b4)" d="M 302.867988 39.3952 
L 319.945063 39.3952 
L 319.945063 22.318125 
L 302.867988 22.318125 
z
" style="fill:#232066;stroke:#232066;stroke-linejoin:miter;"/>
   </g>
   <g id="patch_72">
    <path clip-path="url(#pb9c59d63b4)" d="M 323.360478 121.365158 
L 340.437553 121.365158 
L 340.437553 104.288083 
L 323.360478 104.288083 
z
" style="fill:#232066;stroke:#232066;stroke-linejoin:miter;"/>
   </g>
   <g id="patch_73">
    <path clip-path="url(#pb9c59d63b4)" d="M 323.360478 100.872668 
L 340.437553 100.872668 
L 340.437553 83.795593 
L 323.360478 83.795593 
z
" style="fill:#232066;stroke:#232066;stroke-linejoin:miter;"/>
   </g>
   <g id="patch_74">
    <path clip-path="url(#pb9c59d63b4)" d="M 323.360478 80.380179 
L 340.437553 80.380179 
L 340.437553 63.303104 
L 323.360478 63.303104 
z
" style="fill:#232066;stroke:#232066;stroke-linejoin:miter;"/>
   </g>
   <g id="patch_75">
    <path clip-path="url(#pb9c59d63b4)" d="M 323.360478 59.887689 
L 340.437553 59.887689 
L 340.437553 42.810614 
L 323.360478 42.810614 
z
" style="fill:#232066;stroke:#232066;stroke-linejoin:miter;"/>
   </g>
   <g id="patch_76">
    <path clip-path="url(#pb9c59d63b4)" d="M 323.360478 39.3952 
L 340.437553 39.3952 
L 340.437553 22.318125 
L 323.360478 22.318125 
z
" style="fill:#232066;stroke:#232066;stroke-linejoin:miter;"/>
   </g>
   <g id="patch_77">
    <path clip-path="url(#pb9c59d63b4)" d="M 343.852967 121.365158 
L 360.930042 121.365158 
L 360.930042 104.288083 
L 343.852967 104.288083 
z
" style="fill:#232066;stroke:#232066;stroke-linejoin:miter;"/>
   </g>
   <g id="patch_78">
    <path clip-path="url(#pb9c59d63b4)" d="M 343.852967 100.872668 
L 360.930042 100.872668 
L 360.930042 83.795593 
L 343.852967 83.795593 
z
" style="fill:#232066;stroke:#232066;stroke-linejoin:miter;"/>
   </g>
   <g id="patch_79">
    <path clip-path="url(#pb9c59d63b4)" d="M 343.852967 80.380179 
L 360.930042 80.380179 
L 360.930042 63.303104 
L 343.852967 63.303104 
z
" style="fill:#232066;stroke:#232066;stroke-linejoin:miter;"/>
   </g>
   <g id="patch_80">
    <path clip-path="url(#pb9c59d63b4)" d="M 343.852967 59.887689 
L 360.930042 59.887689 
L 360.930042 42.810614 
L 343.852967 42.810614 
z
" style="fill:#232066;stroke:#232066;stroke-linejoin:miter;"/>
   </g>
   <g id="patch_81">
    <path clip-path="url(#pb9c59d63b4)" d="M 343.852967 39.3952 
L 360.930042 39.3952 
L 360.930042 22.318125 
L 343.852967 22.318125 
z
" style="fill:#232066;stroke:#232066;stroke-linejoin:miter;"/>
   </g>
   <g id="patch_82">
    <path clip-path="url(#pb9c59d63b4)" d="M 364.345457 121.365158 
L 381.422532 121.365158 
L 381.422532 104.288083 
L 364.345457 104.288083 
z
" style="fill:#232066;stroke:#232066;stroke-linejoin:miter;"/>
   </g>
   <g id="patch_83">
    <path clip-path="url(#pb9c59d63b4)" d="M 364.345457 100.872668 
L 381.422532 100.872668 
L 381.422532 83.795593 
L 364.345457 83.795593 
z
" style="fill:#232066;stroke:#232066;stroke-linejoin:miter;"/>
   </g>
   <g id="patch_84">
    <path clip-path="url(#pb9c59d63b4)" d="M 364.345457 80.380179 
L 381.422532 80.380179 
L 381.422532 63.303104 
L 364.345457 63.303104 
z
" style="fill:#232066;stroke:#232066;stroke-linejoin:miter;"/>
   </g>
   <g id="patch_85">
    <path clip-path="url(#pb9c59d63b4)" d="M 364.345457 59.887689 
L 381.422532 59.887689 
L 381.422532 42.810614 
L 364.345457 42.810614 
z
" style="fill:#232066;stroke:#232066;stroke-linejoin:miter;"/>
   </g>
   <g id="patch_86">
    <path clip-path="url(#pb9c59d63b4)" d="M 364.345457 39.3952 
L 381.422532 39.3952 
L 381.422532 22.318125 
L 364.345457 22.318125 
z
" style="fill:#232066;stroke:#232066;stroke-linejoin:miter;"/>
   </g>
   <g id="patch_87">
    <path clip-path="url(#pb9c59d63b4)" d="M 384.837946 121.365158 
L 401.915021 121.365158 
L 401.915021 104.288083 
L 384.837946 104.288083 
z
" style="fill:#232066;stroke:#232066;stroke-linejoin:miter;"/>
   </g>
   <g id="patch_88">
    <path clip-path="url(#pb9c59d63b4)" d="M 384.837946 100.872668 
L 401.915021 100.872668 
L 401.915021 83.795593 
L 384.837946 83.795593 
z
" style="fill:#232066;stroke:#232066;stroke-linejoin:miter;"/>
   </g>
   <g id="patch_89">
    <path clip-path="url(#pb9c59d63b4)" d="M 384.837946 80.380179 
L 401.915021 80.380179 
L 401.915021 63.303104 
L 384.837946 63.303104 
z
" style="fill:#232066;stroke:#232066;stroke-linejoin:miter;"/>
   </g>
   <g id="patch_90">
    <path clip-path="url(#pb9c59d63b4)" d="M 384.837946 59.887689 
L 401.915021 59.887689 
L 401.915021 42.810614 
L 384.837946 42.810614 
z
" style="fill:#232066;stroke:#232066;stroke-linejoin:miter;"/>
   </g>
   <g id="patch_91">
    <path clip-path="url(#pb9c59d63b4)" d="M 384.837946 39.3952 
L 401.915021 39.3952 
L 401.915021 22.318125 
L 384.837946 22.318125 
z
" style="fill:#232066;stroke:#232066;stroke-linejoin:miter;"/>
   </g>
   <g id="patch_92">
    <path clip-path="url(#pb9c59d63b4)" d="M 405.330436 121.365158 
L 422.407511 121.365158 
L 422.407511 104.288083 
L 405.330436 104.288083 
z
" style="fill:#232066;stroke:#232066;stroke-linejoin:miter;"/>
   </g>
   <g id="patch_93">
    <path clip-path="url(#pb9c59d63b4)" d="M 405.330436 100.872668 
L 422.407511 100.872668 
L 422.407511 83.795593 
L 405.330436 83.795593 
z
" style="fill:#232066;stroke:#232066;stroke-linejoin:miter;"/>
   </g>
   <g id="patch_94">
    <path clip-path="url(#pb9c59d63b4)" d="M 405.330436 80.380179 
L 422.407511 80.380179 
L 422.407511 63.303104 
L 405.330436 63.303104 
z
" style="fill:#232066;stroke:#232066;stroke-linejoin:miter;"/>
   </g>
   <g id="patch_95">
    <path clip-path="url(#pb9c59d63b4)" d="M 405.330436 59.887689 
L 422.407511 59.887689 
L 422.407511 42.810614 
L 405.330436 42.810614 
z
" style="fill:#232066;stroke:#232066;stroke-linejoin:miter;"/>
   </g>
   <g id="patch_96">
    <path clip-path="url(#pb9c59d63b4)" d="M 405.330436 39.3952 
L 422.407511 39.3952 
L 422.407511 22.318125 
L 405.330436 22.318125 
z
" style="fill:#dcb732;stroke:#dcb732;stroke-linejoin:miter;"/>
   </g>
   <g id="patch_97">
    <path clip-path="url(#pb9c59d63b4)" d="M 425.822925 121.365158 
L 442.9 121.365158 
L 442.9 104.288083 
L 425.822925 104.288083 
z
" style="fill:#dcb732;stroke:#dcb732;stroke-linejoin:miter;"/>
   </g>
   <g id="patch_98">
    <path clip-path="url(#pb9c59d63b4)" d="M 425.822925 100.872668 
L 442.9 100.872668 
L 442.9 83.795593 
L 425.822925 83.795593 
z
" style="fill:#dcb732;stroke:#dcb732;stroke-linejoin:miter;"/>
   </g>
   <g id="text_1">
    <!-- Vote Percentage in 2016 US Presidential Election -->
    <defs>
     <path d="M 28.609375 0 
L 0.78125 72.90625 
L 11.078125 72.90625 
L 34.1875 11.53125 
L 57.328125 72.90625 
L 67.578125 72.90625 
L 39.796875 0 
z
" id="DejaVuSans-56"/>
     <path d="M 30.609375 48.390625 
Q 23.390625 48.390625 19.1875 42.75 
Q 14.984375 37.109375 14.984375 27.296875 
Q 14.984375 17.484375 19.15625 11.84375 
Q 23.34375 6.203125 30.609375 6.203125 
Q 37.796875 6.203125 41.984375 11.859375 
Q 46.1875 17.53125 46.1875 27.296875 
Q 46.1875 37.015625 41.984375 42.703125 
Q 37.796875 48.390625 30.609375 48.390625 
z
M 30.609375 56 
Q 42.328125 56 49.015625 48.375 
Q 55.71875 40.765625 55.71875 27.296875 
Q 55.71875 13.875 49.015625 6.21875 
Q 42.328125 -1.421875 30.609375 -1.421875 
Q 18.84375 -1.421875 12.171875 6.21875 
Q 5.515625 13.875 5.515625 27.296875 
Q 5.515625 40.765625 12.171875 48.375 
Q 18.84375 56 30.609375 56 
z
" id="DejaVuSans-6f"/>
     <path d="M 18.3125 70.21875 
L 18.3125 54.6875 
L 36.8125 54.6875 
L 36.8125 47.703125 
L 18.3125 47.703125 
L 18.3125 18.015625 
Q 18.3125 11.328125 20.140625 9.421875 
Q 21.96875 7.515625 27.59375 7.515625 
L 36.8125 7.515625 
L 36.8125 0 
L 27.59375 0 
Q 17.1875 0 13.234375 3.875 
Q 9.28125 7.765625 9.28125 18.015625 
L 9.28125 47.703125 
L 2.6875 47.703125 
L 2.6875 54.6875 
L 9.28125 54.6875 
L 9.28125 70.21875 
z
" id="DejaVuSans-74"/>
     <path d="M 56.203125 29.59375 
L 56.203125 25.203125 
L 14.890625 25.203125 
Q 15.484375 15.921875 20.484375 11.0625 
Q 25.484375 6.203125 34.421875 6.203125 
Q 39.59375 6.203125 44.453125 7.46875 
Q 49.3125 8.734375 54.109375 11.28125 
L 54.109375 2.78125 
Q 49.265625 0.734375 44.1875 -0.34375 
Q 39.109375 -1.421875 33.890625 -1.421875 
Q 20.796875 -1.421875 13.15625 6.1875 
Q 5.515625 13.8125 5.515625 26.8125 
Q 5.515625 40.234375 12.765625 48.109375 
Q 20.015625 56 32.328125 56 
Q 43.359375 56 49.78125 48.890625 
Q 56.203125 41.796875 56.203125 29.59375 
z
M 47.21875 32.234375 
Q 47.125 39.59375 43.09375 43.984375 
Q 39.0625 48.390625 32.421875 48.390625 
Q 24.90625 48.390625 20.390625 44.140625 
Q 15.875 39.890625 15.1875 32.171875 
z
" id="DejaVuSans-65"/>
     <path id="DejaVuSans-20"/>
     <path d="M 19.671875 64.796875 
L 19.671875 37.40625 
L 32.078125 37.40625 
Q 38.96875 37.40625 42.71875 40.96875 
Q 46.484375 44.53125 46.484375 51.125 
Q 46.484375 57.671875 42.71875 61.234375 
Q 38.96875 64.796875 32.078125 64.796875 
z
M 9.8125 72.90625 
L 32.078125 72.90625 
Q 44.34375 72.90625 50.609375 67.359375 
Q 56.890625 61.8125 56.890625 51.125 
Q 56.890625 40.328125 50.609375 34.8125 
Q 44.34375 29.296875 32.078125 29.296875 
L 19.671875 29.296875 
L 19.671875 0 
L 9.8125 0 
z
" id="DejaVuSans-50"/>
     <path d="M 41.109375 46.296875 
Q 39.59375 47.171875 37.8125 47.578125 
Q 36.03125 48 33.890625 48 
Q 26.265625 48 22.1875 43.046875 
Q 18.109375 38.09375 18.109375 28.8125 
L 18.109375 0 
L 9.078125 0 
L 9.078125 54.6875 
L 18.109375 54.6875 
L 18.109375 46.1875 
Q 20.953125 51.171875 25.484375 53.578125 
Q 30.03125 56 36.53125 56 
Q 37.453125 56 38.578125 55.875 
Q 39.703125 55.765625 41.0625 55.515625 
z
" id="DejaVuSans-72"/>
     <path d="M 48.78125 52.59375 
L 48.78125 44.1875 
Q 44.96875 46.296875 41.140625 47.34375 
Q 37.3125 48.390625 33.40625 48.390625 
Q 24.65625 48.390625 19.8125 42.84375 
Q 14.984375 37.3125 14.984375 27.296875 
Q 14.984375 17.28125 19.8125 11.734375 
Q 24.65625 6.203125 33.40625 6.203125 
Q 37.3125 6.203125 41.140625 7.25 
Q 44.96875 8.296875 48.78125 10.40625 
L 48.78125 2.09375 
Q 45.015625 0.34375 40.984375 -0.53125 
Q 36.96875 -1.421875 32.421875 -1.421875 
Q 20.0625 -1.421875 12.78125 6.34375 
Q 5.515625 14.109375 5.515625 27.296875 
Q 5.515625 40.671875 12.859375 48.328125 
Q 20.21875 56 33.015625 56 
Q 37.15625 56 41.109375 55.140625 
Q 45.0625 54.296875 48.78125 52.59375 
z
" id="DejaVuSans-63"/>
     <path d="M 54.890625 33.015625 
L 54.890625 0 
L 45.90625 0 
L 45.90625 32.71875 
Q 45.90625 40.484375 42.875 44.328125 
Q 39.84375 48.1875 33.796875 48.1875 
Q 26.515625 48.1875 22.3125 43.546875 
Q 18.109375 38.921875 18.109375 30.90625 
L 18.109375 0 
L 9.078125 0 
L 9.078125 54.6875 
L 18.109375 54.6875 
L 18.109375 46.1875 
Q 21.34375 51.125 25.703125 53.5625 
Q 30.078125 56 35.796875 56 
Q 45.21875 56 50.046875 50.171875 
Q 54.890625 44.34375 54.890625 33.015625 
z
" id="DejaVuSans-6e"/>
     <path d="M 34.28125 27.484375 
Q 23.390625 27.484375 19.1875 25 
Q 14.984375 22.515625 14.984375 16.5 
Q 14.984375 11.71875 18.140625 8.90625 
Q 21.296875 6.109375 26.703125 6.109375 
Q 34.1875 6.109375 38.703125 11.40625 
Q 43.21875 16.703125 43.21875 25.484375 
L 43.21875 27.484375 
z
M 52.203125 31.203125 
L 52.203125 0 
L 43.21875 0 
L 43.21875 8.296875 
Q 40.140625 3.328125 35.546875 0.953125 
Q 30.953125 -1.421875 24.3125 -1.421875 
Q 15.921875 -1.421875 10.953125 3.296875 
Q 6 8.015625 6 15.921875 
Q 6 25.140625 12.171875 29.828125 
Q 18.359375 34.515625 30.609375 34.515625 
L 43.21875 34.515625 
L 43.21875 35.40625 
Q 43.21875 41.609375 39.140625 45 
Q 35.0625 48.390625 27.6875 48.390625 
Q 23 48.390625 18.546875 47.265625 
Q 14.109375 46.140625 10.015625 43.890625 
L 10.015625 52.203125 
Q 14.9375 54.109375 19.578125 55.046875 
Q 24.21875 56 28.609375 56 
Q 40.484375 56 46.34375 49.84375 
Q 52.203125 43.703125 52.203125 31.203125 
z
" id="DejaVuSans-61"/>
     <path d="M 45.40625 27.984375 
Q 45.40625 37.75 41.375 43.109375 
Q 37.359375 48.484375 30.078125 48.484375 
Q 22.859375 48.484375 18.828125 43.109375 
Q 14.796875 37.75 14.796875 27.984375 
Q 14.796875 18.265625 18.828125 12.890625 
Q 22.859375 7.515625 30.078125 7.515625 
Q 37.359375 7.515625 41.375 12.890625 
Q 45.40625 18.265625 45.40625 27.984375 
z
M 54.390625 6.78125 
Q 54.390625 -7.171875 48.1875 -13.984375 
Q 42 -20.796875 29.203125 -20.796875 
Q 24.46875 -20.796875 20.265625 -20.09375 
Q 16.0625 -19.390625 12.109375 -17.921875 
L 12.109375 -9.1875 
Q 16.0625 -11.328125 19.921875 -12.34375 
Q 23.78125 -13.375 27.78125 -13.375 
Q 36.625 -13.375 41.015625 -8.765625 
Q 45.40625 -4.15625 45.40625 5.171875 
L 45.40625 9.625 
Q 42.625 4.78125 38.28125 2.390625 
Q 33.9375 0 27.875 0 
Q 17.828125 0 11.671875 7.65625 
Q 5.515625 15.328125 5.515625 27.984375 
Q 5.515625 40.671875 11.671875 48.328125 
Q 17.828125 56 27.875 56 
Q 33.9375 56 38.28125 53.609375 
Q 42.625 51.21875 45.40625 46.390625 
L 45.40625 54.6875 
L 54.390625 54.6875 
z
" id="DejaVuSans-67"/>
     <path d="M 9.421875 54.6875 
L 18.40625 54.6875 
L 18.40625 0 
L 9.421875 0 
z
M 9.421875 75.984375 
L 18.40625 75.984375 
L 18.40625 64.59375 
L 9.421875 64.59375 
z
" id="DejaVuSans-69"/>
     <path d="M 19.1875 8.296875 
L 53.609375 8.296875 
L 53.609375 0 
L 7.328125 0 
L 7.328125 8.296875 
Q 12.9375 14.109375 22.625 23.890625 
Q 32.328125 33.6875 34.8125 36.53125 
Q 39.546875 41.84375 41.421875 45.53125 
Q 43.3125 49.21875 43.3125 52.78125 
Q 43.3125 58.59375 39.234375 62.25 
Q 35.15625 65.921875 28.609375 65.921875 
Q 23.96875 65.921875 18.8125 64.3125 
Q 13.671875 62.703125 7.8125 59.421875 
L 7.8125 69.390625 
Q 13.765625 71.78125 18.9375 73 
Q 24.125 74.21875 28.421875 74.21875 
Q 39.75 74.21875 46.484375 68.546875 
Q 53.21875 62.890625 53.21875 53.421875 
Q 53.21875 48.921875 51.53125 44.890625 
Q 49.859375 40.875 45.40625 35.40625 
Q 44.1875 33.984375 37.640625 27.21875 
Q 31.109375 20.453125 19.1875 8.296875 
z
" id="DejaVuSans-32"/>
     <path d="M 31.78125 66.40625 
Q 24.171875 66.40625 20.328125 58.90625 
Q 16.5 51.421875 16.5 36.375 
Q 16.5 21.390625 20.328125 13.890625 
Q 24.171875 6.390625 31.78125 6.390625 
Q 39.453125 6.390625 43.28125 13.890625 
Q 47.125 21.390625 47.125 36.375 
Q 47.125 51.421875 43.28125 58.90625 
Q 39.453125 66.40625 31.78125 66.40625 
z
M 31.78125 74.21875 
Q 44.046875 74.21875 50.515625 64.515625 
Q 56.984375 54.828125 56.984375 36.375 
Q 56.984375 17.96875 50.515625 8.265625 
Q 44.046875 -1.421875 31.78125 -1.421875 
Q 19.53125 -1.421875 13.0625 8.265625 
Q 6.59375 17.96875 6.59375 36.375 
Q 6.59375 54.828125 13.0625 64.515625 
Q 19.53125 74.21875 31.78125 74.21875 
z
" id="DejaVuSans-30"/>
     <path d="M 12.40625 8.296875 
L 28.515625 8.296875 
L 28.515625 63.921875 
L 10.984375 60.40625 
L 10.984375 69.390625 
L 28.421875 72.90625 
L 38.28125 72.90625 
L 38.28125 8.296875 
L 54.390625 8.296875 
L 54.390625 0 
L 12.40625 0 
z
" id="DejaVuSans-31"/>
     <path d="M 33.015625 40.375 
Q 26.375 40.375 22.484375 35.828125 
Q 18.609375 31.296875 18.609375 23.390625 
Q 18.609375 15.53125 22.484375 10.953125 
Q 26.375 6.390625 33.015625 6.390625 
Q 39.65625 6.390625 43.53125 10.953125 
Q 47.40625 15.53125 47.40625 23.390625 
Q 47.40625 31.296875 43.53125 35.828125 
Q 39.65625 40.375 33.015625 40.375 
z
M 52.59375 71.296875 
L 52.59375 62.3125 
Q 48.875 64.0625 45.09375 64.984375 
Q 41.3125 65.921875 37.59375 65.921875 
Q 27.828125 65.921875 22.671875 59.328125 
Q 17.53125 52.734375 16.796875 39.40625 
Q 19.671875 43.65625 24.015625 45.921875 
Q 28.375 48.1875 33.59375 48.1875 
Q 44.578125 48.1875 50.953125 41.515625 
Q 57.328125 34.859375 57.328125 23.390625 
Q 57.328125 12.15625 50.6875 5.359375 
Q 44.046875 -1.421875 33.015625 -1.421875 
Q 20.359375 -1.421875 13.671875 8.265625 
Q 6.984375 17.96875 6.984375 36.375 
Q 6.984375 53.65625 15.1875 63.9375 
Q 23.390625 74.21875 37.203125 74.21875 
Q 40.921875 74.21875 44.703125 73.484375 
Q 48.484375 72.75 52.59375 71.296875 
z
" id="DejaVuSans-36"/>
     <path d="M 8.6875 72.90625 
L 18.609375 72.90625 
L 18.609375 28.609375 
Q 18.609375 16.890625 22.84375 11.734375 
Q 27.09375 6.59375 36.625 6.59375 
Q 46.09375 6.59375 50.34375 11.734375 
Q 54.59375 16.890625 54.59375 28.609375 
L 54.59375 72.90625 
L 64.5 72.90625 
L 64.5 27.390625 
Q 64.5 13.140625 57.4375 5.859375 
Q 50.390625 -1.421875 36.625 -1.421875 
Q 22.796875 -1.421875 15.734375 5.859375 
Q 8.6875 13.140625 8.6875 27.390625 
z
" id="DejaVuSans-55"/>
     <path d="M 53.515625 70.515625 
L 53.515625 60.890625 
Q 47.90625 63.578125 42.921875 64.890625 
Q 37.9375 66.21875 33.296875 66.21875 
Q 25.25 66.21875 20.875 63.09375 
Q 16.5 59.96875 16.5 54.203125 
Q 16.5 49.359375 19.40625 46.890625 
Q 22.3125 44.4375 30.421875 42.921875 
L 36.375 41.703125 
Q 47.40625 39.59375 52.65625 34.296875 
Q 57.90625 29 57.90625 20.125 
Q 57.90625 9.515625 50.796875 4.046875 
Q 43.703125 -1.421875 29.984375 -1.421875 
Q 24.8125 -1.421875 18.96875 -0.25 
Q 13.140625 0.921875 6.890625 3.21875 
L 6.890625 13.375 
Q 12.890625 10.015625 18.65625 8.296875 
Q 24.421875 6.59375 29.984375 6.59375 
Q 38.421875 6.59375 43.015625 9.90625 
Q 47.609375 13.234375 47.609375 19.390625 
Q 47.609375 24.75 44.3125 27.78125 
Q 41.015625 30.8125 33.5 32.328125 
L 27.484375 33.5 
Q 16.453125 35.6875 11.515625 40.375 
Q 6.59375 45.0625 6.59375 53.421875 
Q 6.59375 63.09375 13.40625 68.65625 
Q 20.21875 74.21875 32.171875 74.21875 
Q 37.3125 74.21875 42.625 73.28125 
Q 47.953125 72.359375 53.515625 70.515625 
z
" id="DejaVuSans-53"/>
     <path d="M 44.28125 53.078125 
L 44.28125 44.578125 
Q 40.484375 46.53125 36.375 47.5 
Q 32.28125 48.484375 27.875 48.484375 
Q 21.1875 48.484375 17.84375 46.4375 
Q 14.5 44.390625 14.5 40.28125 
Q 14.5 37.15625 16.890625 35.375 
Q 19.28125 33.59375 26.515625 31.984375 
L 29.59375 31.296875 
Q 39.15625 29.25 43.1875 25.515625 
Q 47.21875 21.78125 47.21875 15.09375 
Q 47.21875 7.46875 41.1875 3.015625 
Q 35.15625 -1.421875 24.609375 -1.421875 
Q 20.21875 -1.421875 15.453125 -0.5625 
Q 10.6875 0.296875 5.421875 2 
L 5.421875 11.28125 
Q 10.40625 8.6875 15.234375 7.390625 
Q 20.0625 6.109375 24.8125 6.109375 
Q 31.15625 6.109375 34.5625 8.28125 
Q 37.984375 10.453125 37.984375 14.40625 
Q 37.984375 18.0625 35.515625 20.015625 
Q 33.0625 21.96875 24.703125 23.78125 
L 21.578125 24.515625 
Q 13.234375 26.265625 9.515625 29.90625 
Q 5.8125 33.546875 5.8125 39.890625 
Q 5.8125 47.609375 11.28125 51.796875 
Q 16.75 56 26.8125 56 
Q 31.78125 56 36.171875 55.265625 
Q 40.578125 54.546875 44.28125 53.078125 
z
" id="DejaVuSans-73"/>
     <path d="M 45.40625 46.390625 
L 45.40625 75.984375 
L 54.390625 75.984375 
L 54.390625 0 
L 45.40625 0 
L 45.40625 8.203125 
Q 42.578125 3.328125 38.25 0.953125 
Q 33.9375 -1.421875 27.875 -1.421875 
Q 17.96875 -1.421875 11.734375 6.484375 
Q 5.515625 14.40625 5.515625 27.296875 
Q 5.515625 40.1875 11.734375 48.09375 
Q 17.96875 56 27.875 56 
Q 33.9375 56 38.25 53.625 
Q 42.578125 51.265625 45.40625 46.390625 
z
M 14.796875 27.296875 
Q 14.796875 17.390625 18.875 11.75 
Q 22.953125 6.109375 30.078125 6.109375 
Q 37.203125 6.109375 41.296875 11.75 
Q 45.40625 17.390625 45.40625 27.296875 
Q 45.40625 37.203125 41.296875 42.84375 
Q 37.203125 48.484375 30.078125 48.484375 
Q 22.953125 48.484375 18.875 42.84375 
Q 14.796875 37.203125 14.796875 27.296875 
z
" id="DejaVuSans-64"/>
     <path d="M 9.421875 75.984375 
L 18.40625 75.984375 
L 18.40625 0 
L 9.421875 0 
z
" id="DejaVuSans-6c"/>
     <path d="M 9.8125 72.90625 
L 55.90625 72.90625 
L 55.90625 64.59375 
L 19.671875 64.59375 
L 19.671875 43.015625 
L 54.390625 43.015625 
L 54.390625 34.71875 
L 19.671875 34.71875 
L 19.671875 8.296875 
L 56.78125 8.296875 
L 56.78125 0 
L 9.8125 0 
z
" id="DejaVuSans-45"/>
    </defs>
    <g transform="translate(36.465625 16.318125)scale(0.12 -0.12)">
     <use xlink:href="#DejaVuSans-56"/>
     <use x="68.298828" xlink:href="#DejaVuSans-6f"/>
     <use x="129.480469" xlink:href="#DejaVuSans-74"/>
     <use x="168.689453" xlink:href="#DejaVuSans-65"/>
     <use x="230.212891" xlink:href="#DejaVuSans-20"/>
     <use x="262" xlink:href="#DejaVuSans-50"/>
     <use x="322.255859" xlink:href="#DejaVuSans-65"/>
     <use x="383.779297" xlink:href="#DejaVuSans-72"/>
     <use x="424.861328" xlink:href="#DejaVuSans-63"/>
     <use x="479.841797" xlink:href="#DejaVuSans-65"/>
     <use x="541.365234" xlink:href="#DejaVuSans-6e"/>
     <use x="604.744141" xlink:href="#DejaVuSans-74"/>
     <use x="643.953125" xlink:href="#DejaVuSans-61"/>
     <use x="705.232422" xlink:href="#DejaVuSans-67"/>
     <use x="768.708984" xlink:href="#DejaVuSans-65"/>
     <use x="830.232422" xlink:href="#DejaVuSans-20"/>
     <use x="862.019531" xlink:href="#DejaVuSans-69"/>
     <use x="889.802734" xlink:href="#DejaVuSans-6e"/>
     <use x="953.181641" xlink:href="#DejaVuSans-20"/>
     <use x="984.96875" xlink:href="#DejaVuSans-32"/>
     <use x="1048.591797" xlink:href="#DejaVuSans-30"/>
     <use x="1112.214844" xlink:href="#DejaVuSans-31"/>
     <use x="1175.837891" xlink:href="#DejaVuSans-36"/>
     <use x="1239.460938" xlink:href="#DejaVuSans-20"/>
     <use x="1271.248047" xlink:href="#DejaVuSans-55"/>
     <use x="1344.441406" xlink:href="#DejaVuSans-53"/>
     <use x="1407.917969" xlink:href="#DejaVuSans-20"/>
     <use x="1439.705078" xlink:href="#DejaVuSans-50"/>
     <use x="1499.992188" xlink:href="#DejaVuSans-72"/>
     <use x="1541.074219" xlink:href="#DejaVuSans-65"/>
     <use x="1602.597656" xlink:href="#DejaVuSans-73"/>
     <use x="1654.697266" xlink:href="#DejaVuSans-69"/>
     <use x="1682.480469" xlink:href="#DejaVuSans-64"/>
     <use x="1745.957031" xlink:href="#DejaVuSans-65"/>
     <use x="1807.480469" xlink:href="#DejaVuSans-6e"/>
     <use x="1870.859375" xlink:href="#DejaVuSans-74"/>
     <use x="1910.068359" xlink:href="#DejaVuSans-69"/>
     <use x="1937.851562" xlink:href="#DejaVuSans-61"/>
     <use x="1999.130859" xlink:href="#DejaVuSans-6c"/>
     <use x="2026.914062" xlink:href="#DejaVuSans-20"/>
     <use x="2058.701172" xlink:href="#DejaVuSans-45"/>
     <use x="2121.884766" xlink:href="#DejaVuSans-6c"/>
     <use x="2149.667969" xlink:href="#DejaVuSans-65"/>
     <use x="2211.191406" xlink:href="#DejaVuSans-63"/>
     <use x="2266.171875" xlink:href="#DejaVuSans-74"/>
     <use x="2305.380859" xlink:href="#DejaVuSans-69"/>
     <use x="2333.164062" xlink:href="#DejaVuSans-6f"/>
     <use x="2394.345703" xlink:href="#DejaVuSans-6e"/>
    </g>
   </g>
   <g id="legend_1">
    <g id="patch_99">
     <path d="M 43.465625 155.983971 
L 432.389063 155.983971 
Q 434.389063 155.983971 434.389063 153.983971 
L 434.389063 140.305846 
Q 434.389063 138.305846 432.389063 138.305846 
L 43.465625 138.305846 
Q 41.465625 138.305846 41.465625 140.305846 
L 41.465625 153.983971 
Q 41.465625 155.983971 43.465625 155.983971 
z
" style="fill:none;opacity:0;"/>
    </g>
    <g id="patch_100">
     <path d="M 45.465625 149.904283 
L 65.465625 149.904283 
L 65.465625 142.904283 
L 45.465625 142.904283 
z
" style="fill:#983d3d;stroke:#983d3d;stroke-linejoin:miter;"/>
    </g>
    <g id="text_2">
     <!-- Democratic (48%) -->
     <defs>
      <path d="M 19.671875 64.796875 
L 19.671875 8.109375 
L 31.59375 8.109375 
Q 46.6875 8.109375 53.6875 14.9375 
Q 60.6875 21.78125 60.6875 36.53125 
Q 60.6875 51.171875 53.6875 57.984375 
Q 46.6875 64.796875 31.59375 64.796875 
z
M 9.8125 72.90625 
L 30.078125 72.90625 
Q 51.265625 72.90625 61.171875 64.09375 
Q 71.09375 55.28125 71.09375 36.53125 
Q 71.09375 17.671875 61.125 8.828125 
Q 51.171875 0 30.078125 0 
L 9.8125 0 
z
" id="DejaVuSans-44"/>
      <path d="M 52 44.1875 
Q 55.375 50.25 60.0625 53.125 
Q 64.75 56 71.09375 56 
Q 79.640625 56 84.28125 50.015625 
Q 88.921875 44.046875 88.921875 33.015625 
L 88.921875 0 
L 79.890625 0 
L 79.890625 32.71875 
Q 79.890625 40.578125 77.09375 44.375 
Q 74.3125 48.1875 68.609375 48.1875 
Q 61.625 48.1875 57.5625 43.546875 
Q 53.515625 38.921875 53.515625 30.90625 
L 53.515625 0 
L 44.484375 0 
L 44.484375 32.71875 
Q 44.484375 40.625 41.703125 44.40625 
Q 38.921875 48.1875 33.109375 48.1875 
Q 26.21875 48.1875 22.15625 43.53125 
Q 18.109375 38.875 18.109375 30.90625 
L 18.109375 0 
L 9.078125 0 
L 9.078125 54.6875 
L 18.109375 54.6875 
L 18.109375 46.1875 
Q 21.1875 51.21875 25.484375 53.609375 
Q 29.78125 56 35.6875 56 
Q 41.65625 56 45.828125 52.96875 
Q 50 49.953125 52 44.1875 
z
" id="DejaVuSans-6d"/>
      <path d="M 31 75.875 
Q 24.46875 64.65625 21.28125 53.65625 
Q 18.109375 42.671875 18.109375 31.390625 
Q 18.109375 20.125 21.3125 9.0625 
Q 24.515625 -2 31 -13.1875 
L 23.1875 -13.1875 
Q 15.875 -1.703125 12.234375 9.375 
Q 8.59375 20.453125 8.59375 31.390625 
Q 8.59375 42.28125 12.203125 53.3125 
Q 15.828125 64.359375 23.1875 75.875 
z
" id="DejaVuSans-28"/>
      <path d="M 37.796875 64.3125 
L 12.890625 25.390625 
L 37.796875 25.390625 
z
M 35.203125 72.90625 
L 47.609375 72.90625 
L 47.609375 25.390625 
L 58.015625 25.390625 
L 58.015625 17.1875 
L 47.609375 17.1875 
L 47.609375 0 
L 37.796875 0 
L 37.796875 17.1875 
L 4.890625 17.1875 
L 4.890625 26.703125 
z
" id="DejaVuSans-34"/>
      <path d="M 31.78125 34.625 
Q 24.75 34.625 20.71875 30.859375 
Q 16.703125 27.09375 16.703125 20.515625 
Q 16.703125 13.921875 20.71875 10.15625 
Q 24.75 6.390625 31.78125 6.390625 
Q 38.8125 6.390625 42.859375 10.171875 
Q 46.921875 13.96875 46.921875 20.515625 
Q 46.921875 27.09375 42.890625 30.859375 
Q 38.875 34.625 31.78125 34.625 
z
M 21.921875 38.8125 
Q 15.578125 40.375 12.03125 44.71875 
Q 8.5 49.078125 8.5 55.328125 
Q 8.5 64.0625 14.71875 69.140625 
Q 20.953125 74.21875 31.78125 74.21875 
Q 42.671875 74.21875 48.875 69.140625 
Q 55.078125 64.0625 55.078125 55.328125 
Q 55.078125 49.078125 51.53125 44.71875 
Q 48 40.375 41.703125 38.8125 
Q 48.828125 37.15625 52.796875 32.3125 
Q 56.78125 27.484375 56.78125 20.515625 
Q 56.78125 9.90625 50.3125 4.234375 
Q 43.84375 -1.421875 31.78125 -1.421875 
Q 19.734375 -1.421875 13.25 4.234375 
Q 6.78125 9.90625 6.78125 20.515625 
Q 6.78125 27.484375 10.78125 32.3125 
Q 14.796875 37.15625 21.921875 38.8125 
z
M 18.3125 54.390625 
Q 18.3125 48.734375 21.84375 45.5625 
Q 25.390625 42.390625 31.78125 42.390625 
Q 38.140625 42.390625 41.71875 45.5625 
Q 45.3125 48.734375 45.3125 54.390625 
Q 45.3125 60.0625 41.71875 63.234375 
Q 38.140625 66.40625 31.78125 66.40625 
Q 25.390625 66.40625 21.84375 63.234375 
Q 18.3125 60.0625 18.3125 54.390625 
z
" id="DejaVuSans-38"/>
      <path d="M 72.703125 32.078125 
Q 68.453125 32.078125 66.03125 28.46875 
Q 63.625 24.859375 63.625 18.40625 
Q 63.625 12.0625 66.03125 8.421875 
Q 68.453125 4.78125 72.703125 4.78125 
Q 76.859375 4.78125 79.265625 8.421875 
Q 81.6875 12.0625 81.6875 18.40625 
Q 81.6875 24.8125 79.265625 28.4375 
Q 76.859375 32.078125 72.703125 32.078125 
z
M 72.703125 38.28125 
Q 80.421875 38.28125 84.953125 32.90625 
Q 89.5 27.546875 89.5 18.40625 
Q 89.5 9.28125 84.9375 3.921875 
Q 80.375 -1.421875 72.703125 -1.421875 
Q 64.890625 -1.421875 60.34375 3.921875 
Q 55.8125 9.28125 55.8125 18.40625 
Q 55.8125 27.59375 60.375 32.9375 
Q 64.9375 38.28125 72.703125 38.28125 
z
M 22.3125 68.015625 
Q 18.109375 68.015625 15.6875 64.375 
Q 13.28125 60.75 13.28125 54.390625 
Q 13.28125 47.953125 15.671875 44.328125 
Q 18.0625 40.71875 22.3125 40.71875 
Q 26.5625 40.71875 28.96875 44.328125 
Q 31.390625 47.953125 31.390625 54.390625 
Q 31.390625 60.6875 28.953125 64.34375 
Q 26.515625 68.015625 22.3125 68.015625 
z
M 66.40625 74.21875 
L 74.21875 74.21875 
L 28.609375 -1.421875 
L 20.796875 -1.421875 
z
M 22.3125 74.21875 
Q 30.03125 74.21875 34.609375 68.875 
Q 39.203125 63.53125 39.203125 54.390625 
Q 39.203125 45.171875 34.640625 39.84375 
Q 30.078125 34.515625 22.3125 34.515625 
Q 14.546875 34.515625 10.03125 39.859375 
Q 5.515625 45.21875 5.515625 54.390625 
Q 5.515625 63.484375 10.046875 68.84375 
Q 14.59375 74.21875 22.3125 74.21875 
z
" id="DejaVuSans-25"/>
      <path d="M 8.015625 75.875 
L 15.828125 75.875 
Q 23.140625 64.359375 26.78125 53.3125 
Q 30.421875 42.28125 30.421875 31.390625 
Q 30.421875 20.453125 26.78125 9.375 
Q 23.140625 -1.703125 15.828125 -13.1875 
L 8.015625 -13.1875 
Q 14.5 -2 17.703125 9.0625 
Q 20.90625 20.125 20.90625 31.390625 
Q 20.90625 42.671875 17.703125 53.65625 
Q 14.5 64.65625 8.015625 75.875 
z
" id="DejaVuSans-29"/>
     </defs>
     <g transform="translate(73.465625 149.904283)scale(0.1 -0.1)">
      <use xlink:href="#DejaVuSans-44"/>
      <use x="77.001953" xlink:href="#DejaVuSans-65"/>
      <use x="138.525391" xlink:href="#DejaVuSans-6d"/>
      <use x="235.9375" xlink:href="#DejaVuSans-6f"/>
      <use x="297.119141" xlink:href="#DejaVuSans-63"/>
      <use x="352.099609" xlink:href="#DejaVuSans-72"/>
      <use x="393.212891" xlink:href="#DejaVuSans-61"/>
      <use x="454.492188" xlink:href="#DejaVuSans-74"/>
      <use x="493.701172" xlink:href="#DejaVuSans-69"/>
      <use x="521.484375" xlink:href="#DejaVuSans-63"/>
      <use x="576.464844" xlink:href="#DejaVuSans-20"/>
      <use x="608.251953" xlink:href="#DejaVuSans-28"/>
      <use x="647.265625" xlink:href="#DejaVuSans-34"/>
      <use x="710.888672" xlink:href="#DejaVuSans-38"/>
      <use x="774.511719" xlink:href="#DejaVuSans-25"/>
      <use x="869.53125" xlink:href="#DejaVuSans-29"/>
     </g>
    </g>
    <g id="patch_101">
     <path d="M 184.320312 149.904283 
L 204.320312 149.904283 
L 204.320312 142.904283 
L 184.320312 142.904283 
z
" style="fill:#232066;stroke:#232066;stroke-linejoin:miter;"/>
    </g>
    <g id="text_3">
     <!-- Republican (46%) -->
     <defs>
      <path d="M 44.390625 34.1875 
Q 47.5625 33.109375 50.5625 29.59375 
Q 53.5625 26.078125 56.59375 19.921875 
L 66.609375 0 
L 56 0 
L 46.6875 18.703125 
Q 43.0625 26.03125 39.671875 28.421875 
Q 36.28125 30.8125 30.421875 30.8125 
L 19.671875 30.8125 
L 19.671875 0 
L 9.8125 0 
L 9.8125 72.90625 
L 32.078125 72.90625 
Q 44.578125 72.90625 50.734375 67.671875 
Q 56.890625 62.453125 56.890625 51.90625 
Q 56.890625 45.015625 53.6875 40.46875 
Q 50.484375 35.9375 44.390625 34.1875 
z
M 19.671875 64.796875 
L 19.671875 38.921875 
L 32.078125 38.921875 
Q 39.203125 38.921875 42.84375 42.21875 
Q 46.484375 45.515625 46.484375 51.90625 
Q 46.484375 58.296875 42.84375 61.546875 
Q 39.203125 64.796875 32.078125 64.796875 
z
" id="DejaVuSans-52"/>
      <path d="M 18.109375 8.203125 
L 18.109375 -20.796875 
L 9.078125 -20.796875 
L 9.078125 54.6875 
L 18.109375 54.6875 
L 18.109375 46.390625 
Q 20.953125 51.265625 25.265625 53.625 
Q 29.59375 56 35.59375 56 
Q 45.5625 56 51.78125 48.09375 
Q 58.015625 40.1875 58.015625 27.296875 
Q 58.015625 14.40625 51.78125 6.484375 
Q 45.5625 -1.421875 35.59375 -1.421875 
Q 29.59375 -1.421875 25.265625 0.953125 
Q 20.953125 3.328125 18.109375 8.203125 
z
M 48.6875 27.296875 
Q 48.6875 37.203125 44.609375 42.84375 
Q 40.53125 48.484375 33.40625 48.484375 
Q 26.265625 48.484375 22.1875 42.84375 
Q 18.109375 37.203125 18.109375 27.296875 
Q 18.109375 17.390625 22.1875 11.75 
Q 26.265625 6.109375 33.40625 6.109375 
Q 40.53125 6.109375 44.609375 11.75 
Q 48.6875 17.390625 48.6875 27.296875 
z
" id="DejaVuSans-70"/>
      <path d="M 8.5 21.578125 
L 8.5 54.6875 
L 17.484375 54.6875 
L 17.484375 21.921875 
Q 17.484375 14.15625 20.5 10.265625 
Q 23.53125 6.390625 29.59375 6.390625 
Q 36.859375 6.390625 41.078125 11.03125 
Q 45.3125 15.671875 45.3125 23.6875 
L 45.3125 54.6875 
L 54.296875 54.6875 
L 54.296875 0 
L 45.3125 0 
L 45.3125 8.40625 
Q 42.046875 3.421875 37.71875 1 
Q 33.40625 -1.421875 27.6875 -1.421875 
Q 18.265625 -1.421875 13.375 4.4375 
Q 8.5 10.296875 8.5 21.578125 
z
M 31.109375 56 
z
" id="DejaVuSans-75"/>
      <path d="M 48.6875 27.296875 
Q 48.6875 37.203125 44.609375 42.84375 
Q 40.53125 48.484375 33.40625 48.484375 
Q 26.265625 48.484375 22.1875 42.84375 
Q 18.109375 37.203125 18.109375 27.296875 
Q 18.109375 17.390625 22.1875 11.75 
Q 26.265625 6.109375 33.40625 6.109375 
Q 40.53125 6.109375 44.609375 11.75 
Q 48.6875 17.390625 48.6875 27.296875 
z
M 18.109375 46.390625 
Q 20.953125 51.265625 25.265625 53.625 
Q 29.59375 56 35.59375 56 
Q 45.5625 56 51.78125 48.09375 
Q 58.015625 40.1875 58.015625 27.296875 
Q 58.015625 14.40625 51.78125 6.484375 
Q 45.5625 -1.421875 35.59375 -1.421875 
Q 29.59375 -1.421875 25.265625 0.953125 
Q 20.953125 3.328125 18.109375 8.203125 
L 18.109375 0 
L 9.078125 0 
L 9.078125 75.984375 
L 18.109375 75.984375 
z
" id="DejaVuSans-62"/>
     </defs>
     <g transform="translate(212.320312 149.904283)scale(0.1 -0.1)">
      <use xlink:href="#DejaVuSans-52"/>
      <use x="69.419922" xlink:href="#DejaVuSans-65"/>
      <use x="130.943359" xlink:href="#DejaVuSans-70"/>
      <use x="194.419922" xlink:href="#DejaVuSans-75"/>
      <use x="257.798828" xlink:href="#DejaVuSans-62"/>
      <use x="321.275391" xlink:href="#DejaVuSans-6c"/>
      <use x="349.058594" xlink:href="#DejaVuSans-69"/>
      <use x="376.841797" xlink:href="#DejaVuSans-63"/>
      <use x="431.822266" xlink:href="#DejaVuSans-61"/>
      <use x="493.101562" xlink:href="#DejaVuSans-6e"/>
      <use x="556.480469" xlink:href="#DejaVuSans-20"/>
      <use x="588.267578" xlink:href="#DejaVuSans-28"/>
      <use x="627.28125" xlink:href="#DejaVuSans-34"/>
      <use x="690.904297" xlink:href="#DejaVuSans-36"/>
      <use x="754.527344" xlink:href="#DejaVuSans-25"/>
      <use x="849.546875" xlink:href="#DejaVuSans-29"/>
     </g>
    </g>
    <g id="patch_102">
     <path d="M 321.178125 149.904283 
L 341.178125 149.904283 
L 341.178125 142.904283 
L 321.178125 142.904283 
z
" style="fill:#dcb732;stroke:#dcb732;stroke-linejoin:miter;"/>
    </g>
    <g id="text_4">
     <!-- Libertarian (3%) -->
     <defs>
      <path d="M 9.8125 72.90625 
L 19.671875 72.90625 
L 19.671875 8.296875 
L 55.171875 8.296875 
L 55.171875 0 
L 9.8125 0 
z
" id="DejaVuSans-4c"/>
      <path d="M 40.578125 39.3125 
Q 47.65625 37.796875 51.625 33 
Q 55.609375 28.21875 55.609375 21.1875 
Q 55.609375 10.40625 48.1875 4.484375 
Q 40.765625 -1.421875 27.09375 -1.421875 
Q 22.515625 -1.421875 17.65625 -0.515625 
Q 12.796875 0.390625 7.625 2.203125 
L 7.625 11.71875 
Q 11.71875 9.328125 16.59375 8.109375 
Q 21.484375 6.890625 26.8125 6.890625 
Q 36.078125 6.890625 40.9375 10.546875 
Q 45.796875 14.203125 45.796875 21.1875 
Q 45.796875 27.640625 41.28125 31.265625 
Q 36.765625 34.90625 28.71875 34.90625 
L 20.21875 34.90625 
L 20.21875 43.015625 
L 29.109375 43.015625 
Q 36.375 43.015625 40.234375 45.921875 
Q 44.09375 48.828125 44.09375 54.296875 
Q 44.09375 59.90625 40.109375 62.90625 
Q 36.140625 65.921875 28.71875 65.921875 
Q 24.65625 65.921875 20.015625 65.03125 
Q 15.375 64.15625 9.8125 62.3125 
L 9.8125 71.09375 
Q 15.4375 72.65625 20.34375 73.4375 
Q 25.25 74.21875 29.59375 74.21875 
Q 40.828125 74.21875 47.359375 69.109375 
Q 53.90625 64.015625 53.90625 55.328125 
Q 53.90625 49.265625 50.4375 45.09375 
Q 46.96875 40.921875 40.578125 39.3125 
z
" id="DejaVuSans-33"/>
     </defs>
     <g transform="translate(349.178125 149.904283)scale(0.1 -0.1)">
      <use xlink:href="#DejaVuSans-4c"/>
      <use x="55.712891" xlink:href="#DejaVuSans-69"/>
      <use x="83.496094" xlink:href="#DejaVuSans-62"/>
      <use x="146.972656" xlink:href="#DejaVuSans-65"/>
      <use x="208.496094" xlink:href="#DejaVuSans-72"/>
      <use x="249.609375" xlink:href="#DejaVuSans-74"/>
      <use x="288.818359" xlink:href="#DejaVuSans-61"/>
      <use x="350.097656" xlink:href="#DejaVuSans-72"/>
      <use x="391.210938" xlink:href="#DejaVuSans-69"/>
      <use x="418.994141" xlink:href="#DejaVuSans-61"/>
      <use x="480.273438" xlink:href="#DejaVuSans-6e"/>
      <use x="543.652344" xlink:href="#DejaVuSans-20"/>
      <use x="575.439453" xlink:href="#DejaVuSans-28"/>
      <use x="614.453125" xlink:href="#DejaVuSans-33"/>
      <use x="678.076172" xlink:href="#DejaVuSans-25"/>
      <use x="773.095703" xlink:href="#DejaVuSans-29"/>
     </g>
    </g>
   </g>
  </g>
 </g>
 <defs>
  <clipPath id="pb9c59d63b4">
   <rect height="99.047033" width="406.434375" x="36.465625" y="22.318125"/>
  </clipPath>
 </defs>
</svg>
