<?xml version="1.0" encoding="utf-8" standalone="no"?>
<!DOCTYPE svg PUBLIC "-//W3C//DTD SVG 1.1//EN"
  "http://www.w3.org/Graphics/SVG/1.1/DTD/svg11.dtd">
<!-- Created with matplotlib (http://matplotlib.org/) -->
<svg height="131pt" version="1.1" viewBox="0 0 378 131" width="378pt" xmlns="http://www.w3.org/2000/svg" xmlns:xlink="http://www.w3.org/1999/xlink">
 <defs>
  <style type="text/css">
*{stroke-linecap:butt;stroke-linejoin:round;}
  </style>
 </defs>
 <g id="figure_1">
  <g id="patch_1">
   <path d="M 0 131.038017 
L 378.52 131.038017 
L 378.52 0 
L 0 0 
z
" style="fill:#ffffff;"/>
  </g>
  <g id="axes_1">
   <g id="patch_2">
    <path d="M 10.7 97.729244 
L 367.82 97.729244 
L 367.82 10.7 
L 10.7 10.7 
z
" style="fill:#ffffff;"/>
   </g>
   <g id="patch_3">
    <path clip-path="url(#p3e510cecef)" d="M 10.7 97.729244 
L 25.705042 97.729244 
L 25.705042 82.724202 
L 10.7 82.724202 
z
" style="fill:#66c2a5;stroke:#66c2a5;stroke-linejoin:miter;"/>
   </g>
   <g id="patch_4">
    <path clip-path="url(#p3e510cecef)" d="M 10.7 79.723193 
L 25.705042 79.723193 
L 25.705042 64.718151 
L 10.7 64.718151 
z
" style="fill:#66c2a5;stroke:#66c2a5;stroke-linejoin:miter;"/>
   </g>
   <g id="patch_5">
    <path clip-path="url(#p3e510cecef)" d="M 10.7 61.717143 
L 25.705042 61.717143 
L 25.705042 46.712101 
L 10.7 46.712101 
z
" style="fill:#66c2a5;stroke:#66c2a5;stroke-linejoin:miter;"/>
   </g>
   <g id="patch_6">
    <path clip-path="url(#p3e510cecef)" d="M 10.7 43.711092 
L 25.705042 43.711092 
L 25.705042 28.70605 
L 10.7 28.70605 
z
" style="fill:#66c2a5;stroke:#66c2a5;stroke-linejoin:miter;"/>
   </g>
   <g id="patch_7">
    <path clip-path="url(#p3e510cecef)" d="M 10.7 25.705042 
L 25.705042 25.705042 
L 25.705042 10.7 
L 10.7 10.7 
z
" style="fill:#66c2a5;stroke:#66c2a5;stroke-linejoin:miter;"/>
   </g>
   <g id="patch_8">
    <path clip-path="url(#p3e510cecef)" d="M 28.70605 97.729244 
L 43.711092 97.729244 
L 43.711092 82.724202 
L 28.70605 82.724202 
z
" style="fill:#66c2a5;stroke:#66c2a5;stroke-linejoin:miter;"/>
   </g>
   <g id="patch_9">
    <path clip-path="url(#p3e510cecef)" d="M 28.70605 79.723193 
L 43.711092 79.723193 
L 43.711092 64.718151 
L 28.70605 64.718151 
z
" style="fill:#66c2a5;stroke:#66c2a5;stroke-linejoin:miter;"/>
   </g>
   <g id="patch_10">
    <path clip-path="url(#p3e510cecef)" d="M 28.70605 61.717143 
L 43.711092 61.717143 
L 43.711092 46.712101 
L 28.70605 46.712101 
z
" style="fill:#66c2a5;stroke:#66c2a5;stroke-linejoin:miter;"/>
   </g>
   <g id="patch_11">
    <path clip-path="url(#p3e510cecef)" d="M 28.70605 43.711092 
L 43.711092 43.711092 
L 43.711092 28.70605 
L 28.70605 28.70605 
z
" style="fill:#66c2a5;stroke:#66c2a5;stroke-linejoin:miter;"/>
   </g>
   <g id="patch_12">
    <path clip-path="url(#p3e510cecef)" d="M 28.70605 25.705042 
L 43.711092 25.705042 
L 43.711092 10.7 
L 28.70605 10.7 
z
" style="fill:#66c2a5;stroke:#66c2a5;stroke-linejoin:miter;"/>
   </g>
   <g id="patch_13">
    <path clip-path="url(#p3e510cecef)" d="M 46.712101 97.729244 
L 61.717143 97.729244 
L 61.717143 82.724202 
L 46.712101 82.724202 
z
" style="fill:#66c2a5;stroke:#66c2a5;stroke-linejoin:miter;"/>
   </g>
   <g id="patch_14">
    <path clip-path="url(#p3e510cecef)" d="M 46.712101 79.723193 
L 61.717143 79.723193 
L 61.717143 64.718151 
L 46.712101 64.718151 
z
" style="fill:#66c2a5;stroke:#66c2a5;stroke-linejoin:miter;"/>
   </g>
   <g id="patch_15">
    <path clip-path="url(#p3e510cecef)" d="M 46.712101 61.717143 
L 61.717143 61.717143 
L 61.717143 46.712101 
L 46.712101 46.712101 
z
" style="fill:#66c2a5;stroke:#66c2a5;stroke-linejoin:miter;"/>
   </g>
   <g id="patch_16">
    <path clip-path="url(#p3e510cecef)" d="M 46.712101 43.711092 
L 61.717143 43.711092 
L 61.717143 28.70605 
L 46.712101 28.70605 
z
" style="fill:#66c2a5;stroke:#66c2a5;stroke-linejoin:miter;"/>
   </g>
   <g id="patch_17">
    <path clip-path="url(#p3e510cecef)" d="M 46.712101 25.705042 
L 61.717143 25.705042 
L 61.717143 10.7 
L 46.712101 10.7 
z
" style="fill:#66c2a5;stroke:#66c2a5;stroke-linejoin:miter;"/>
   </g>
   <g id="patch_18">
    <path clip-path="url(#p3e510cecef)" d="M 64.718151 97.729244 
L 79.723193 97.729244 
L 79.723193 82.724202 
L 64.718151 82.724202 
z
" style="fill:#66c2a5;stroke:#66c2a5;stroke-linejoin:miter;"/>
   </g>
   <g id="patch_19">
    <path clip-path="url(#p3e510cecef)" d="M 64.718151 79.723193 
L 79.723193 79.723193 
L 79.723193 64.718151 
L 64.718151 64.718151 
z
" style="fill:#66c2a5;stroke:#66c2a5;stroke-linejoin:miter;"/>
   </g>
   <g id="patch_20">
    <path clip-path="url(#p3e510cecef)" d="M 64.718151 61.717143 
L 79.723193 61.717143 
L 79.723193 46.712101 
L 64.718151 46.712101 
z
" style="fill:#66c2a5;stroke:#66c2a5;stroke-linejoin:miter;"/>
   </g>
   <g id="patch_21">
    <path clip-path="url(#p3e510cecef)" d="M 64.718151 43.711092 
L 79.723193 43.711092 
L 79.723193 28.70605 
L 64.718151 28.70605 
z
" style="fill:#66c2a5;stroke:#66c2a5;stroke-linejoin:miter;"/>
   </g>
   <g id="patch_22">
    <path clip-path="url(#p3e510cecef)" d="M 64.718151 25.705042 
L 79.723193 25.705042 
L 79.723193 10.7 
L 64.718151 10.7 
z
" style="fill:#66c2a5;stroke:#66c2a5;stroke-linejoin:miter;"/>
   </g>
   <g id="patch_23">
    <path clip-path="url(#p3e510cecef)" d="M 82.724202 97.729244 
L 97.729244 97.729244 
L 97.729244 82.724202 
L 82.724202 82.724202 
z
" style="fill:#66c2a5;stroke:#66c2a5;stroke-linejoin:miter;"/>
   </g>
   <g id="patch_24">
    <path clip-path="url(#p3e510cecef)" d="M 82.724202 79.723193 
L 97.729244 79.723193 
L 97.729244 64.718151 
L 82.724202 64.718151 
z
" style="fill:#66c2a5;stroke:#66c2a5;stroke-linejoin:miter;"/>
   </g>
   <g id="patch_25">
    <path clip-path="url(#p3e510cecef)" d="M 82.724202 61.717143 
L 97.729244 61.717143 
L 97.729244 46.712101 
L 82.724202 46.712101 
z
" style="fill:#66c2a5;stroke:#66c2a5;stroke-linejoin:miter;"/>
   </g>
   <g id="patch_26">
    <path clip-path="url(#p3e510cecef)" d="M 82.724202 43.711092 
L 97.729244 43.711092 
L 97.729244 28.70605 
L 82.724202 28.70605 
z
" style="fill:#66c2a5;stroke:#66c2a5;stroke-linejoin:miter;"/>
   </g>
   <g id="patch_27">
    <path clip-path="url(#p3e510cecef)" d="M 82.724202 25.705042 
L 97.729244 25.705042 
L 97.729244 10.7 
L 82.724202 10.7 
z
" style="fill:#66c2a5;stroke:#66c2a5;stroke-linejoin:miter;"/>
   </g>
   <g id="patch_28">
    <path clip-path="url(#p3e510cecef)" d="M 100.730252 97.729244 
L 115.735294 97.729244 
L 115.735294 82.724202 
L 100.730252 82.724202 
z
" style="fill:#66c2a5;stroke:#66c2a5;stroke-linejoin:miter;"/>
   </g>
   <g id="patch_29">
    <path clip-path="url(#p3e510cecef)" d="M 100.730252 79.723193 
L 115.735294 79.723193 
L 115.735294 64.718151 
L 100.730252 64.718151 
z
" style="fill:#66c2a5;stroke:#66c2a5;stroke-linejoin:miter;"/>
   </g>
   <g id="patch_30">
    <path clip-path="url(#p3e510cecef)" d="M 100.730252 61.717143 
L 115.735294 61.717143 
L 115.735294 46.712101 
L 100.730252 46.712101 
z
" style="fill:#66c2a5;stroke:#66c2a5;stroke-linejoin:miter;"/>
   </g>
   <g id="patch_31">
    <path clip-path="url(#p3e510cecef)" d="M 100.730252 43.711092 
L 115.735294 43.711092 
L 115.735294 28.70605 
L 100.730252 28.70605 
z
" style="fill:#66c2a5;stroke:#66c2a5;stroke-linejoin:miter;"/>
   </g>
   <g id="patch_32">
    <path clip-path="url(#p3e510cecef)" d="M 100.730252 25.705042 
L 115.735294 25.705042 
L 115.735294 10.7 
L 100.730252 10.7 
z
" style="fill:#66c2a5;stroke:#66c2a5;stroke-linejoin:miter;"/>
   </g>
   <g id="patch_33">
    <path clip-path="url(#p3e510cecef)" d="M 118.736303 97.729244 
L 133.741345 97.729244 
L 133.741345 82.724202 
L 118.736303 82.724202 
z
" style="fill:#66c2a5;stroke:#66c2a5;stroke-linejoin:miter;"/>
   </g>
   <g id="patch_34">
    <path clip-path="url(#p3e510cecef)" d="M 118.736303 79.723193 
L 133.741345 79.723193 
L 133.741345 64.718151 
L 118.736303 64.718151 
z
" style="fill:#66c2a5;stroke:#66c2a5;stroke-linejoin:miter;"/>
   </g>
   <g id="patch_35">
    <path clip-path="url(#p3e510cecef)" d="M 118.736303 61.717143 
L 133.741345 61.717143 
L 133.741345 46.712101 
L 118.736303 46.712101 
z
" style="fill:#66c2a5;stroke:#66c2a5;stroke-linejoin:miter;"/>
   </g>
   <g id="patch_36">
    <path clip-path="url(#p3e510cecef)" d="M 118.736303 43.711092 
L 133.741345 43.711092 
L 133.741345 28.70605 
L 118.736303 28.70605 
z
" style="fill:#66c2a5;stroke:#66c2a5;stroke-linejoin:miter;"/>
   </g>
   <g id="patch_37">
    <path clip-path="url(#p3e510cecef)" d="M 118.736303 25.705042 
L 133.741345 25.705042 
L 133.741345 10.7 
L 118.736303 10.7 
z
" style="fill:#66c2a5;stroke:#66c2a5;stroke-linejoin:miter;"/>
   </g>
   <g id="patch_38">
    <path clip-path="url(#p3e510cecef)" d="M 136.742353 97.729244 
L 151.747395 97.729244 
L 151.747395 82.724202 
L 136.742353 82.724202 
z
" style="fill:#66c2a5;stroke:#66c2a5;stroke-linejoin:miter;"/>
   </g>
   <g id="patch_39">
    <path clip-path="url(#p3e510cecef)" d="M 136.742353 79.723193 
L 151.747395 79.723193 
L 151.747395 64.718151 
L 136.742353 64.718151 
z
" style="fill:#66c2a5;stroke:#66c2a5;stroke-linejoin:miter;"/>
   </g>
   <g id="patch_40">
    <path clip-path="url(#p3e510cecef)" d="M 136.742353 61.717143 
L 151.747395 61.717143 
L 151.747395 46.712101 
L 136.742353 46.712101 
z
" style="fill:#66c2a5;stroke:#66c2a5;stroke-linejoin:miter;"/>
   </g>
   <g id="patch_41">
    <path clip-path="url(#p3e510cecef)" d="M 136.742353 43.711092 
L 151.747395 43.711092 
L 151.747395 28.70605 
L 136.742353 28.70605 
z
" style="fill:#66c2a5;stroke:#66c2a5;stroke-linejoin:miter;"/>
   </g>
   <g id="patch_42">
    <path clip-path="url(#p3e510cecef)" d="M 136.742353 25.705042 
L 151.747395 25.705042 
L 151.747395 10.7 
L 136.742353 10.7 
z
" style="fill:#66c2a5;stroke:#66c2a5;stroke-linejoin:miter;"/>
   </g>
   <g id="patch_43">
    <path clip-path="url(#p3e510cecef)" d="M 154.748403 97.729244 
L 169.753445 97.729244 
L 169.753445 82.724202 
L 154.748403 82.724202 
z
" style="fill:#66c2a5;stroke:#66c2a5;stroke-linejoin:miter;"/>
   </g>
   <g id="patch_44">
    <path clip-path="url(#p3e510cecef)" d="M 154.748403 79.723193 
L 169.753445 79.723193 
L 169.753445 64.718151 
L 154.748403 64.718151 
z
" style="fill:#66c2a5;stroke:#66c2a5;stroke-linejoin:miter;"/>
   </g>
   <g id="patch_45">
    <path clip-path="url(#p3e510cecef)" d="M 154.748403 61.717143 
L 169.753445 61.717143 
L 169.753445 46.712101 
L 154.748403 46.712101 
z
" style="fill:#66c2a5;stroke:#66c2a5;stroke-linejoin:miter;"/>
   </g>
   <g id="patch_46">
    <path clip-path="url(#p3e510cecef)" d="M 154.748403 43.711092 
L 169.753445 43.711092 
L 169.753445 28.70605 
L 154.748403 28.70605 
z
" style="fill:#66c2a5;stroke:#66c2a5;stroke-linejoin:miter;"/>
   </g>
   <g id="patch_47">
    <path clip-path="url(#p3e510cecef)" d="M 154.748403 25.705042 
L 169.753445 25.705042 
L 169.753445 10.7 
L 154.748403 10.7 
z
" style="fill:#66c2a5;stroke:#66c2a5;stroke-linejoin:miter;"/>
   </g>
   <g id="patch_48">
    <path clip-path="url(#p3e510cecef)" d="M 172.754454 97.729244 
L 187.759496 97.729244 
L 187.759496 82.724202 
L 172.754454 82.724202 
z
" style="fill:#66c2a5;stroke:#66c2a5;stroke-linejoin:miter;"/>
   </g>
   <g id="patch_49">
    <path clip-path="url(#p3e510cecef)" d="M 172.754454 79.723193 
L 187.759496 79.723193 
L 187.759496 64.718151 
L 172.754454 64.718151 
z
" style="fill:#66c2a5;stroke:#66c2a5;stroke-linejoin:miter;"/>
   </g>
   <g id="patch_50">
    <path clip-path="url(#p3e510cecef)" d="M 172.754454 61.717143 
L 187.759496 61.717143 
L 187.759496 46.712101 
L 172.754454 46.712101 
z
" style="fill:#66c2a5;stroke:#66c2a5;stroke-linejoin:miter;"/>
   </g>
   <g id="patch_51">
    <path clip-path="url(#p3e510cecef)" d="M 172.754454 43.711092 
L 187.759496 43.711092 
L 187.759496 28.70605 
L 172.754454 28.70605 
z
" style="fill:#fc8d62;stroke:#fc8d62;stroke-linejoin:miter;"/>
   </g>
   <g id="patch_52">
    <path clip-path="url(#p3e510cecef)" d="M 172.754454 25.705042 
L 187.759496 25.705042 
L 187.759496 10.7 
L 172.754454 10.7 
z
" style="fill:#fc8d62;stroke:#fc8d62;stroke-linejoin:miter;"/>
   </g>
   <g id="patch_53">
    <path clip-path="url(#p3e510cecef)" d="M 190.760504 97.729244 
L 205.765546 97.729244 
L 205.765546 82.724202 
L 190.760504 82.724202 
z
" style="fill:#fc8d62;stroke:#fc8d62;stroke-linejoin:miter;"/>
   </g>
   <g id="patch_54">
    <path clip-path="url(#p3e510cecef)" d="M 190.760504 79.723193 
L 205.765546 79.723193 
L 205.765546 64.718151 
L 190.760504 64.718151 
z
" style="fill:#fc8d62;stroke:#fc8d62;stroke-linejoin:miter;"/>
   </g>
   <g id="patch_55">
    <path clip-path="url(#p3e510cecef)" d="M 190.760504 61.717143 
L 205.765546 61.717143 
L 205.765546 46.712101 
L 190.760504 46.712101 
z
" style="fill:#fc8d62;stroke:#fc8d62;stroke-linejoin:miter;"/>
   </g>
   <g id="patch_56">
    <path clip-path="url(#p3e510cecef)" d="M 190.760504 43.711092 
L 205.765546 43.711092 
L 205.765546 28.70605 
L 190.760504 28.70605 
z
" style="fill:#fc8d62;stroke:#fc8d62;stroke-linejoin:miter;"/>
   </g>
   <g id="patch_57">
    <path clip-path="url(#p3e510cecef)" d="M 190.760504 25.705042 
L 205.765546 25.705042 
L 205.765546 10.7 
L 190.760504 10.7 
z
" style="fill:#fc8d62;stroke:#fc8d62;stroke-linejoin:miter;"/>
   </g>
   <g id="patch_58">
    <path clip-path="url(#p3e510cecef)" d="M 208.766555 97.729244 
L 223.771597 97.729244 
L 223.771597 82.724202 
L 208.766555 82.724202 
z
" style="fill:#fc8d62;stroke:#fc8d62;stroke-linejoin:miter;"/>
   </g>
   <g id="patch_59">
    <path clip-path="url(#p3e510cecef)" d="M 208.766555 79.723193 
L 223.771597 79.723193 
L 223.771597 64.718151 
L 208.766555 64.718151 
z
" style="fill:#fc8d62;stroke:#fc8d62;stroke-linejoin:miter;"/>
   </g>
   <g id="patch_60">
    <path clip-path="url(#p3e510cecef)" d="M 208.766555 61.717143 
L 223.771597 61.717143 
L 223.771597 46.712101 
L 208.766555 46.712101 
z
" style="fill:#fc8d62;stroke:#fc8d62;stroke-linejoin:miter;"/>
   </g>
   <g id="patch_61">
    <path clip-path="url(#p3e510cecef)" d="M 208.766555 43.711092 
L 223.771597 43.711092 
L 223.771597 28.70605 
L 208.766555 28.70605 
z
" style="fill:#fc8d62;stroke:#fc8d62;stroke-linejoin:miter;"/>
   </g>
   <g id="patch_62">
    <path clip-path="url(#p3e510cecef)" d="M 208.766555 25.705042 
L 223.771597 25.705042 
L 223.771597 10.7 
L 208.766555 10.7 
z
" style="fill:#fc8d62;stroke:#fc8d62;stroke-linejoin:miter;"/>
   </g>
   <g id="patch_63">
    <path clip-path="url(#p3e510cecef)" d="M 226.772605 97.729244 
L 241.777647 97.729244 
L 241.777647 82.724202 
L 226.772605 82.724202 
z
" style="fill:#fc8d62;stroke:#fc8d62;stroke-linejoin:miter;"/>
   </g>
   <g id="patch_64">
    <path clip-path="url(#p3e510cecef)" d="M 226.772605 79.723193 
L 241.777647 79.723193 
L 241.777647 64.718151 
L 226.772605 64.718151 
z
" style="fill:#fc8d62;stroke:#fc8d62;stroke-linejoin:miter;"/>
   </g>
   <g id="patch_65">
    <path clip-path="url(#p3e510cecef)" d="M 226.772605 61.717143 
L 241.777647 61.717143 
L 241.777647 46.712101 
L 226.772605 46.712101 
z
" style="fill:#fc8d62;stroke:#fc8d62;stroke-linejoin:miter;"/>
   </g>
   <g id="patch_66">
    <path clip-path="url(#p3e510cecef)" d="M 226.772605 43.711092 
L 241.777647 43.711092 
L 241.777647 28.70605 
L 226.772605 28.70605 
z
" style="fill:#fc8d62;stroke:#fc8d62;stroke-linejoin:miter;"/>
   </g>
   <g id="patch_67">
    <path clip-path="url(#p3e510cecef)" d="M 226.772605 25.705042 
L 241.777647 25.705042 
L 241.777647 10.7 
L 226.772605 10.7 
z
" style="fill:#fc8d62;stroke:#fc8d62;stroke-linejoin:miter;"/>
   </g>
   <g id="patch_68">
    <path clip-path="url(#p3e510cecef)" d="M 244.778655 97.729244 
L 259.783697 97.729244 
L 259.783697 82.724202 
L 244.778655 82.724202 
z
" style="fill:#fc8d62;stroke:#fc8d62;stroke-linejoin:miter;"/>
   </g>
   <g id="patch_69">
    <path clip-path="url(#p3e510cecef)" d="M 244.778655 79.723193 
L 259.783697 79.723193 
L 259.783697 64.718151 
L 244.778655 64.718151 
z
" style="fill:#fc8d62;stroke:#fc8d62;stroke-linejoin:miter;"/>
   </g>
   <g id="patch_70">
    <path clip-path="url(#p3e510cecef)" d="M 244.778655 61.717143 
L 259.783697 61.717143 
L 259.783697 46.712101 
L 244.778655 46.712101 
z
" style="fill:#fc8d62;stroke:#fc8d62;stroke-linejoin:miter;"/>
   </g>
   <g id="patch_71">
    <path clip-path="url(#p3e510cecef)" d="M 244.778655 43.711092 
L 259.783697 43.711092 
L 259.783697 28.70605 
L 244.778655 28.70605 
z
" style="fill:#fc8d62;stroke:#fc8d62;stroke-linejoin:miter;"/>
   </g>
   <g id="patch_72">
    <path clip-path="url(#p3e510cecef)" d="M 244.778655 25.705042 
L 259.783697 25.705042 
L 259.783697 10.7 
L 244.778655 10.7 
z
" style="fill:#fc8d62;stroke:#fc8d62;stroke-linejoin:miter;"/>
   </g>
   <g id="patch_73">
    <path clip-path="url(#p3e510cecef)" d="M 262.784706 97.729244 
L 277.789748 97.729244 
L 277.789748 82.724202 
L 262.784706 82.724202 
z
" style="fill:#fc8d62;stroke:#fc8d62;stroke-linejoin:miter;"/>
   </g>
   <g id="patch_74">
    <path clip-path="url(#p3e510cecef)" d="M 262.784706 79.723193 
L 277.789748 79.723193 
L 277.789748 64.718151 
L 262.784706 64.718151 
z
" style="fill:#fc8d62;stroke:#fc8d62;stroke-linejoin:miter;"/>
   </g>
   <g id="patch_75">
    <path clip-path="url(#p3e510cecef)" d="M 262.784706 61.717143 
L 277.789748 61.717143 
L 277.789748 46.712101 
L 262.784706 46.712101 
z
" style="fill:#fc8d62;stroke:#fc8d62;stroke-linejoin:miter;"/>
   </g>
   <g id="patch_76">
    <path clip-path="url(#p3e510cecef)" d="M 262.784706 43.711092 
L 277.789748 43.711092 
L 277.789748 28.70605 
L 262.784706 28.70605 
z
" style="fill:#fc8d62;stroke:#fc8d62;stroke-linejoin:miter;"/>
   </g>
   <g id="patch_77">
    <path clip-path="url(#p3e510cecef)" d="M 262.784706 25.705042 
L 277.789748 25.705042 
L 277.789748 10.7 
L 262.784706 10.7 
z
" style="fill:#fc8d62;stroke:#fc8d62;stroke-linejoin:miter;"/>
   </g>
   <g id="patch_78">
    <path clip-path="url(#p3e510cecef)" d="M 280.790756 97.729244 
L 295.795798 97.729244 
L 295.795798 82.724202 
L 280.790756 82.724202 
z
" style="fill:#fc8d62;stroke:#fc8d62;stroke-linejoin:miter;"/>
   </g>
   <g id="patch_79">
    <path clip-path="url(#p3e510cecef)" d="M 280.790756 79.723193 
L 295.795798 79.723193 
L 295.795798 64.718151 
L 280.790756 64.718151 
z
" style="fill:#fc8d62;stroke:#fc8d62;stroke-linejoin:miter;"/>
   </g>
   <g id="patch_80">
    <path clip-path="url(#p3e510cecef)" d="M 280.790756 61.717143 
L 295.795798 61.717143 
L 295.795798 46.712101 
L 280.790756 46.712101 
z
" style="fill:#fc8d62;stroke:#fc8d62;stroke-linejoin:miter;"/>
   </g>
   <g id="patch_81">
    <path clip-path="url(#p3e510cecef)" d="M 280.790756 43.711092 
L 295.795798 43.711092 
L 295.795798 28.70605 
L 280.790756 28.70605 
z
" style="fill:#fc8d62;stroke:#fc8d62;stroke-linejoin:miter;"/>
   </g>
   <g id="patch_82">
    <path clip-path="url(#p3e510cecef)" d="M 280.790756 25.705042 
L 295.795798 25.705042 
L 295.795798 10.7 
L 280.790756 10.7 
z
" style="fill:#fc8d62;stroke:#fc8d62;stroke-linejoin:miter;"/>
   </g>
   <g id="patch_83">
    <path clip-path="url(#p3e510cecef)" d="M 298.796807 97.729244 
L 313.801849 97.729244 
L 313.801849 82.724202 
L 298.796807 82.724202 
z
" style="fill:#fc8d62;stroke:#fc8d62;stroke-linejoin:miter;"/>
   </g>
   <g id="patch_84">
    <path clip-path="url(#p3e510cecef)" d="M 298.796807 79.723193 
L 313.801849 79.723193 
L 313.801849 64.718151 
L 298.796807 64.718151 
z
" style="fill:#fc8d62;stroke:#fc8d62;stroke-linejoin:miter;"/>
   </g>
   <g id="patch_85">
    <path clip-path="url(#p3e510cecef)" d="M 298.796807 61.717143 
L 313.801849 61.717143 
L 313.801849 46.712101 
L 298.796807 46.712101 
z
" style="fill:#fc8d62;stroke:#fc8d62;stroke-linejoin:miter;"/>
   </g>
   <g id="patch_86">
    <path clip-path="url(#p3e510cecef)" d="M 298.796807 43.711092 
L 313.801849 43.711092 
L 313.801849 28.70605 
L 298.796807 28.70605 
z
" style="fill:#fc8d62;stroke:#fc8d62;stroke-linejoin:miter;"/>
   </g>
   <g id="patch_87">
    <path clip-path="url(#p3e510cecef)" d="M 298.796807 25.705042 
L 313.801849 25.705042 
L 313.801849 10.7 
L 298.796807 10.7 
z
" style="fill:#fc8d62;stroke:#fc8d62;stroke-linejoin:miter;"/>
   </g>
   <g id="patch_88">
    <path clip-path="url(#p3e510cecef)" d="M 316.802857 97.729244 
L 331.807899 97.729244 
L 331.807899 82.724202 
L 316.802857 82.724202 
z
" style="fill:#fc8d62;stroke:#fc8d62;stroke-linejoin:miter;"/>
   </g>
   <g id="patch_89">
    <path clip-path="url(#p3e510cecef)" d="M 316.802857 79.723193 
L 331.807899 79.723193 
L 331.807899 64.718151 
L 316.802857 64.718151 
z
" style="fill:#fc8d62;stroke:#fc8d62;stroke-linejoin:miter;"/>
   </g>
   <g id="patch_90">
    <path clip-path="url(#p3e510cecef)" d="M 316.802857 61.717143 
L 331.807899 61.717143 
L 331.807899 46.712101 
L 316.802857 46.712101 
z
" style="fill:#fc8d62;stroke:#fc8d62;stroke-linejoin:miter;"/>
   </g>
   <g id="patch_91">
    <path clip-path="url(#p3e510cecef)" d="M 316.802857 43.711092 
L 331.807899 43.711092 
L 331.807899 28.70605 
L 316.802857 28.70605 
z
" style="fill:#fc8d62;stroke:#fc8d62;stroke-linejoin:miter;"/>
   </g>
   <g id="patch_92">
    <path clip-path="url(#p3e510cecef)" d="M 316.802857 25.705042 
L 331.807899 25.705042 
L 331.807899 10.7 
L 316.802857 10.7 
z
" style="fill:#fc8d62;stroke:#fc8d62;stroke-linejoin:miter;"/>
   </g>
   <g id="patch_93">
    <path clip-path="url(#p3e510cecef)" d="M 334.808908 97.729244 
L 349.81395 97.729244 
L 349.81395 82.724202 
L 334.808908 82.724202 
z
" style="fill:#fc8d62;stroke:#fc8d62;stroke-linejoin:miter;"/>
   </g>
   <g id="patch_94">
    <path clip-path="url(#p3e510cecef)" d="M 334.808908 79.723193 
L 349.81395 79.723193 
L 349.81395 64.718151 
L 334.808908 64.718151 
z
" style="fill:#fc8d62;stroke:#fc8d62;stroke-linejoin:miter;"/>
   </g>
   <g id="patch_95">
    <path clip-path="url(#p3e510cecef)" d="M 334.808908 61.717143 
L 349.81395 61.717143 
L 349.81395 46.712101 
L 334.808908 46.712101 
z
" style="fill:#fc8d62;stroke:#fc8d62;stroke-linejoin:miter;"/>
   </g>
   <g id="patch_96">
    <path clip-path="url(#p3e510cecef)" d="M 334.808908 43.711092 
L 349.81395 43.711092 
L 349.81395 28.70605 
L 334.808908 28.70605 
z
" style="fill:#fc8d62;stroke:#fc8d62;stroke-linejoin:miter;"/>
   </g>
   <g id="patch_97">
    <path clip-path="url(#p3e510cecef)" d="M 334.808908 25.705042 
L 349.81395 25.705042 
L 349.81395 10.7 
L 334.808908 10.7 
z
" style="fill:#8da0cb;stroke:#8da0cb;stroke-linejoin:miter;"/>
   </g>
   <g id="patch_98">
    <path clip-path="url(#p3e510cecef)" d="M 352.814958 97.729244 
L 367.82 97.729244 
L 367.82 82.724202 
L 352.814958 82.724202 
z
" style="fill:#8da0cb;stroke:#8da0cb;stroke-linejoin:miter;"/>
   </g>
   <g id="patch_99">
    <path clip-path="url(#p3e510cecef)" d="M 352.814958 79.723193 
L 367.82 79.723193 
L 367.82 64.718151 
L 352.814958 64.718151 
z
" style="fill:#8da0cb;stroke:#8da0cb;stroke-linejoin:miter;"/>
   </g>
   <g id="matplotlib.axis_1">
    <g id="xtick_1"/>
    <g id="xtick_2"/>
    <g id="xtick_3"/>
    <g id="xtick_4"/>
    <g id="xtick_5"/>
    <g id="xtick_6"/>
    <g id="xtick_7"/>
    <g id="xtick_8"/>
    <g id="xtick_9"/>
   </g>
   <g id="matplotlib.axis_2">
    <g id="ytick_1"/>
    <g id="ytick_2"/>
    <g id="ytick_3"/>
    <g id="ytick_4"/>
    <g id="ytick_5"/>
   </g>
   <g id="legend_1">
    <g id="patch_100">
     <path d="M 12.7 123.838017 
L 308.3625 123.838017 
Q 310.3625 123.838017 310.3625 121.838017 
L 310.3625 108.159892 
Q 310.3625 106.159892 308.3625 106.159892 
L 12.7 106.159892 
Q 10.7 106.159892 10.7 108.159892 
L 10.7 121.838017 
Q 10.7 123.838017 12.7 123.838017 
z
" style="fill:#ffffff;opacity:0.8;stroke:#cccccc;stroke-linejoin:miter;"/>
    </g>
    <g id="patch_101">
     <path d="M 14.7 117.758329 
L 34.7 117.758329 
L 34.7 110.758329 
L 14.7 110.758329 
z
" style="fill:#66c2a5;stroke:#66c2a5;stroke-linejoin:miter;"/>
    </g>
    <g id="text_1">
     <!-- Democratic -->
     <defs>
      <path d="M 19.671875 64.796875 
L 19.671875 8.109375 
L 31.59375 8.109375 
Q 46.6875 8.109375 53.6875 14.9375 
Q 60.6875 21.78125 60.6875 36.53125 
Q 60.6875 51.171875 53.6875 57.984375 
Q 46.6875 64.796875 31.59375 64.796875 
z
M 9.8125 72.90625 
L 30.078125 72.90625 
Q 51.265625 72.90625 61.171875 64.09375 
Q 71.09375 55.28125 71.09375 36.53125 
Q 71.09375 17.671875 61.125 8.828125 
Q 51.171875 0 30.078125 0 
L 9.8125 0 
z
" id="DejaVuSans-44"/>
      <path d="M 56.203125 29.59375 
L 56.203125 25.203125 
L 14.890625 25.203125 
Q 15.484375 15.921875 20.484375 11.0625 
Q 25.484375 6.203125 34.421875 6.203125 
Q 39.59375 6.203125 44.453125 7.46875 
Q 49.3125 8.734375 54.109375 11.28125 
L 54.109375 2.78125 
Q 49.265625 0.734375 44.1875 -0.34375 
Q 39.109375 -1.421875 33.890625 -1.421875 
Q 20.796875 -1.421875 13.15625 6.1875 
Q 5.515625 13.8125 5.515625 26.8125 
Q 5.515625 40.234375 12.765625 48.109375 
Q 20.015625 56 32.328125 56 
Q 43.359375 56 49.78125 48.890625 
Q 56.203125 41.796875 56.203125 29.59375 
z
M 47.21875 32.234375 
Q 47.125 39.59375 43.09375 43.984375 
Q 39.0625 48.390625 32.421875 48.390625 
Q 24.90625 48.390625 20.390625 44.140625 
Q 15.875 39.890625 15.1875 32.171875 
z
" id="DejaVuSans-65"/>
      <path d="M 52 44.1875 
Q 55.375 50.25 60.0625 53.125 
Q 64.75 56 71.09375 56 
Q 79.640625 56 84.28125 50.015625 
Q 88.921875 44.046875 88.921875 33.015625 
L 88.921875 0 
L 79.890625 0 
L 79.890625 32.71875 
Q 79.890625 40.578125 77.09375 44.375 
Q 74.3125 48.1875 68.609375 48.1875 
Q 61.625 48.1875 57.5625 43.546875 
Q 53.515625 38.921875 53.515625 30.90625 
L 53.515625 0 
L 44.484375 0 
L 44.484375 32.71875 
Q 44.484375 40.625 41.703125 44.40625 
Q 38.921875 48.1875 33.109375 48.1875 
Q 26.21875 48.1875 22.15625 43.53125 
Q 18.109375 38.875 18.109375 30.90625 
L 18.109375 0 
L 9.078125 0 
L 9.078125 54.6875 
L 18.109375 54.6875 
L 18.109375 46.1875 
Q 21.1875 51.21875 25.484375 53.609375 
Q 29.78125 56 35.6875 56 
Q 41.65625 56 45.828125 52.96875 
Q 50 49.953125 52 44.1875 
z
" id="DejaVuSans-6d"/>
      <path d="M 30.609375 48.390625 
Q 23.390625 48.390625 19.1875 42.75 
Q 14.984375 37.109375 14.984375 27.296875 
Q 14.984375 17.484375 19.15625 11.84375 
Q 23.34375 6.203125 30.609375 6.203125 
Q 37.796875 6.203125 41.984375 11.859375 
Q 46.1875 17.53125 46.1875 27.296875 
Q 46.1875 37.015625 41.984375 42.703125 
Q 37.796875 48.390625 30.609375 48.390625 
z
M 30.609375 56 
Q 42.328125 56 49.015625 48.375 
Q 55.71875 40.765625 55.71875 27.296875 
Q 55.71875 13.875 49.015625 6.21875 
Q 42.328125 -1.421875 30.609375 -1.421875 
Q 18.84375 -1.421875 12.171875 6.21875 
Q 5.515625 13.875 5.515625 27.296875 
Q 5.515625 40.765625 12.171875 48.375 
Q 18.84375 56 30.609375 56 
z
" id="DejaVuSans-6f"/>
      <path d="M 48.78125 52.59375 
L 48.78125 44.1875 
Q 44.96875 46.296875 41.140625 47.34375 
Q 37.3125 48.390625 33.40625 48.390625 
Q 24.65625 48.390625 19.8125 42.84375 
Q 14.984375 37.3125 14.984375 27.296875 
Q 14.984375 17.28125 19.8125 11.734375 
Q 24.65625 6.203125 33.40625 6.203125 
Q 37.3125 6.203125 41.140625 7.25 
Q 44.96875 8.296875 48.78125 10.40625 
L 48.78125 2.09375 
Q 45.015625 0.34375 40.984375 -0.53125 
Q 36.96875 -1.421875 32.421875 -1.421875 
Q 20.0625 -1.421875 12.78125 6.34375 
Q 5.515625 14.109375 5.515625 27.296875 
Q 5.515625 40.671875 12.859375 48.328125 
Q 20.21875 56 33.015625 56 
Q 37.15625 56 41.109375 55.140625 
Q 45.0625 54.296875 48.78125 52.59375 
z
" id="DejaVuSans-63"/>
      <path d="M 41.109375 46.296875 
Q 39.59375 47.171875 37.8125 47.578125 
Q 36.03125 48 33.890625 48 
Q 26.265625 48 22.1875 43.046875 
Q 18.109375 38.09375 18.109375 28.8125 
L 18.109375 0 
L 9.078125 0 
L 9.078125 54.6875 
L 18.109375 54.6875 
L 18.109375 46.1875 
Q 20.953125 51.171875 25.484375 53.578125 
Q 30.03125 56 36.53125 56 
Q 37.453125 56 38.578125 55.875 
Q 39.703125 55.765625 41.0625 55.515625 
z
" id="DejaVuSans-72"/>
      <path d="M 34.28125 27.484375 
Q 23.390625 27.484375 19.1875 25 
Q 14.984375 22.515625 14.984375 16.5 
Q 14.984375 11.71875 18.140625 8.90625 
Q 21.296875 6.109375 26.703125 6.109375 
Q 34.1875 6.109375 38.703125 11.40625 
Q 43.21875 16.703125 43.21875 25.484375 
L 43.21875 27.484375 
z
M 52.203125 31.203125 
L 52.203125 0 
L 43.21875 0 
L 43.21875 8.296875 
Q 40.140625 3.328125 35.546875 0.953125 
Q 30.953125 -1.421875 24.3125 -1.421875 
Q 15.921875 -1.421875 10.953125 3.296875 
Q 6 8.015625 6 15.921875 
Q 6 25.140625 12.171875 29.828125 
Q 18.359375 34.515625 30.609375 34.515625 
L 43.21875 34.515625 
L 43.21875 35.40625 
Q 43.21875 41.609375 39.140625 45 
Q 35.0625 48.390625 27.6875 48.390625 
Q 23 48.390625 18.546875 47.265625 
Q 14.109375 46.140625 10.015625 43.890625 
L 10.015625 52.203125 
Q 14.9375 54.109375 19.578125 55.046875 
Q 24.21875 56 28.609375 56 
Q 40.484375 56 46.34375 49.84375 
Q 52.203125 43.703125 52.203125 31.203125 
z
" id="DejaVuSans-61"/>
      <path d="M 18.3125 70.21875 
L 18.3125 54.6875 
L 36.8125 54.6875 
L 36.8125 47.703125 
L 18.3125 47.703125 
L 18.3125 18.015625 
Q 18.3125 11.328125 20.140625 9.421875 
Q 21.96875 7.515625 27.59375 7.515625 
L 36.8125 7.515625 
L 36.8125 0 
L 27.59375 0 
Q 17.1875 0 13.234375 3.875 
Q 9.28125 7.765625 9.28125 18.015625 
L 9.28125 47.703125 
L 2.6875 47.703125 
L 2.6875 54.6875 
L 9.28125 54.6875 
L 9.28125 70.21875 
z
" id="DejaVuSans-74"/>
      <path d="M 9.421875 54.6875 
L 18.40625 54.6875 
L 18.40625 0 
L 9.421875 0 
z
M 9.421875 75.984375 
L 18.40625 75.984375 
L 18.40625 64.59375 
L 9.421875 64.59375 
z
" id="DejaVuSans-69"/>
     </defs>
     <g transform="translate(42.7 117.758329)scale(0.1 -0.1)">
      <use xlink:href="#DejaVuSans-44"/>
      <use x="77.001953" xlink:href="#DejaVuSans-65"/>
      <use x="138.525391" xlink:href="#DejaVuSans-6d"/>
      <use x="235.9375" xlink:href="#DejaVuSans-6f"/>
      <use x="297.119141" xlink:href="#DejaVuSans-63"/>
      <use x="352.099609" xlink:href="#DejaVuSans-72"/>
      <use x="393.212891" xlink:href="#DejaVuSans-61"/>
      <use x="454.492188" xlink:href="#DejaVuSans-74"/>
      <use x="493.701172" xlink:href="#DejaVuSans-69"/>
      <use x="521.484375" xlink:href="#DejaVuSans-63"/>
     </g>
    </g>
    <g id="patch_102">
     <path d="M 120.346875 117.758329 
L 140.346875 117.758329 
L 140.346875 110.758329 
L 120.346875 110.758329 
z
" style="fill:#fc8d62;stroke:#fc8d62;stroke-linejoin:miter;"/>
    </g>
    <g id="text_2">
     <!-- Republican -->
     <defs>
      <path d="M 44.390625 34.1875 
Q 47.5625 33.109375 50.5625 29.59375 
Q 53.5625 26.078125 56.59375 19.921875 
L 66.609375 0 
L 56 0 
L 46.6875 18.703125 
Q 43.0625 26.03125 39.671875 28.421875 
Q 36.28125 30.8125 30.421875 30.8125 
L 19.671875 30.8125 
L 19.671875 0 
L 9.8125 0 
L 9.8125 72.90625 
L 32.078125 72.90625 
Q 44.578125 72.90625 50.734375 67.671875 
Q 56.890625 62.453125 56.890625 51.90625 
Q 56.890625 45.015625 53.6875 40.46875 
Q 50.484375 35.9375 44.390625 34.1875 
z
M 19.671875 64.796875 
L 19.671875 38.921875 
L 32.078125 38.921875 
Q 39.203125 38.921875 42.84375 42.21875 
Q 46.484375 45.515625 46.484375 51.90625 
Q 46.484375 58.296875 42.84375 61.546875 
Q 39.203125 64.796875 32.078125 64.796875 
z
" id="DejaVuSans-52"/>
      <path d="M 18.109375 8.203125 
L 18.109375 -20.796875 
L 9.078125 -20.796875 
L 9.078125 54.6875 
L 18.109375 54.6875 
L 18.109375 46.390625 
Q 20.953125 51.265625 25.265625 53.625 
Q 29.59375 56 35.59375 56 
Q 45.5625 56 51.78125 48.09375 
Q 58.015625 40.1875 58.015625 27.296875 
Q 58.015625 14.40625 51.78125 6.484375 
Q 45.5625 -1.421875 35.59375 -1.421875 
Q 29.59375 -1.421875 25.265625 0.953125 
Q 20.953125 3.328125 18.109375 8.203125 
z
M 48.6875 27.296875 
Q 48.6875 37.203125 44.609375 42.84375 
Q 40.53125 48.484375 33.40625 48.484375 
Q 26.265625 48.484375 22.1875 42.84375 
Q 18.109375 37.203125 18.109375 27.296875 
Q 18.109375 17.390625 22.1875 11.75 
Q 26.265625 6.109375 33.40625 6.109375 
Q 40.53125 6.109375 44.609375 11.75 
Q 48.6875 17.390625 48.6875 27.296875 
z
" id="DejaVuSans-70"/>
      <path d="M 8.5 21.578125 
L 8.5 54.6875 
L 17.484375 54.6875 
L 17.484375 21.921875 
Q 17.484375 14.15625 20.5 10.265625 
Q 23.53125 6.390625 29.59375 6.390625 
Q 36.859375 6.390625 41.078125 11.03125 
Q 45.3125 15.671875 45.3125 23.6875 
L 45.3125 54.6875 
L 54.296875 54.6875 
L 54.296875 0 
L 45.3125 0 
L 45.3125 8.40625 
Q 42.046875 3.421875 37.71875 1 
Q 33.40625 -1.421875 27.6875 -1.421875 
Q 18.265625 -1.421875 13.375 4.4375 
Q 8.5 10.296875 8.5 21.578125 
z
M 31.109375 56 
z
" id="DejaVuSans-75"/>
      <path d="M 48.6875 27.296875 
Q 48.6875 37.203125 44.609375 42.84375 
Q 40.53125 48.484375 33.40625 48.484375 
Q 26.265625 48.484375 22.1875 42.84375 
Q 18.109375 37.203125 18.109375 27.296875 
Q 18.109375 17.390625 22.1875 11.75 
Q 26.265625 6.109375 33.40625 6.109375 
Q 40.53125 6.109375 44.609375 11.75 
Q 48.6875 17.390625 48.6875 27.296875 
z
M 18.109375 46.390625 
Q 20.953125 51.265625 25.265625 53.625 
Q 29.59375 56 35.59375 56 
Q 45.5625 56 51.78125 48.09375 
Q 58.015625 40.1875 58.015625 27.296875 
Q 58.015625 14.40625 51.78125 6.484375 
Q 45.5625 -1.421875 35.59375 -1.421875 
Q 29.59375 -1.421875 25.265625 0.953125 
Q 20.953125 3.328125 18.109375 8.203125 
L 18.109375 0 
L 9.078125 0 
L 9.078125 75.984375 
L 18.109375 75.984375 
z
" id="DejaVuSans-62"/>
      <path d="M 9.421875 75.984375 
L 18.40625 75.984375 
L 18.40625 0 
L 9.421875 0 
z
" id="DejaVuSans-6c"/>
      <path d="M 54.890625 33.015625 
L 54.890625 0 
L 45.90625 0 
L 45.90625 32.71875 
Q 45.90625 40.484375 42.875 44.328125 
Q 39.84375 48.1875 33.796875 48.1875 
Q 26.515625 48.1875 22.3125 43.546875 
Q 18.109375 38.921875 18.109375 30.90625 
L 18.109375 0 
L 9.078125 0 
L 9.078125 54.6875 
L 18.109375 54.6875 
L 18.109375 46.1875 
Q 21.34375 51.125 25.703125 53.5625 
Q 30.078125 56 35.796875 56 
Q 45.21875 56 50.046875 50.171875 
Q 54.890625 44.34375 54.890625 33.015625 
z
" id="DejaVuSans-6e"/>
     </defs>
     <g transform="translate(148.346875 117.758329)scale(0.1 -0.1)">
      <use xlink:href="#DejaVuSans-52"/>
      <use x="69.419922" xlink:href="#DejaVuSans-65"/>
      <use x="130.943359" xlink:href="#DejaVuSans-70"/>
      <use x="194.419922" xlink:href="#DejaVuSans-75"/>
      <use x="257.798828" xlink:href="#DejaVuSans-62"/>
      <use x="321.275391" xlink:href="#DejaVuSans-6c"/>
      <use x="349.058594" xlink:href="#DejaVuSans-69"/>
      <use x="376.841797" xlink:href="#DejaVuSans-63"/>
      <use x="431.822266" xlink:href="#DejaVuSans-61"/>
      <use x="493.101562" xlink:href="#DejaVuSans-6e"/>
     </g>
    </g>
    <g id="patch_103">
     <path d="M 223.996875 117.758329 
L 243.996875 117.758329 
L 243.996875 110.758329 
L 223.996875 110.758329 
z
" style="fill:#8da0cb;stroke:#8da0cb;stroke-linejoin:miter;"/>
    </g>
    <g id="text_3">
     <!-- Libertarian -->
     <defs>
      <path d="M 9.8125 72.90625 
L 19.671875 72.90625 
L 19.671875 8.296875 
L 55.171875 8.296875 
L 55.171875 0 
L 9.8125 0 
z
" id="DejaVuSans-4c"/>
     </defs>
     <g transform="translate(251.996875 117.758329)scale(0.1 -0.1)">
      <use xlink:href="#DejaVuSans-4c"/>
      <use x="55.712891" xlink:href="#DejaVuSans-69"/>
      <use x="83.496094" xlink:href="#DejaVuSans-62"/>
      <use x="146.972656" xlink:href="#DejaVuSans-65"/>
      <use x="208.496094" xlink:href="#DejaVuSans-72"/>
      <use x="249.609375" xlink:href="#DejaVuSans-74"/>
      <use x="288.818359" xlink:href="#DejaVuSans-61"/>
      <use x="350.097656" xlink:href="#DejaVuSans-72"/>
      <use x="391.210938" xlink:href="#DejaVuSans-69"/>
      <use x="418.994141" xlink:href="#DejaVuSans-61"/>
      <use x="480.273438" xlink:href="#DejaVuSans-6e"/>
     </g>
    </g>
   </g>
  </g>
 </g>
 <defs>
  <clipPath id="p3e510cecef">
   <rect height="87.029244" width="357.12" x="10.7" y="10.7"/>
  </clipPath>
 </defs>
</svg>
