<?xml version="1.0" encoding="utf-8" standalone="no"?>
<!DOCTYPE svg PUBLIC "-//W3C//DTD SVG 1.1//EN"
  "http://www.w3.org/Graphics/SVG/1.1/DTD/svg11.dtd">
<!-- Created with matplotlib (http://matplotlib.org/) -->
<svg height="210pt" version="1.1" viewBox="0 0 399 210" width="399pt" xmlns="http://www.w3.org/2000/svg" xmlns:xlink="http://www.w3.org/1999/xlink">
 <defs>
  <style type="text/css">
*{stroke-linecap:butt;stroke-linejoin:round;}
  </style>
 </defs>
 <g id="figure_1">
  <g id="patch_1">
   <path d="M 0 210.410903 
L 399.503056 210.410903 
L 399.503056 0 
L 0 0 
z
" style="fill:#ffffff;"/>
  </g>
  <g id="axes_1">
   <g id="patch_2">
    <path clip-path="url(#p3a923cdbee)" d="M 30.103125 186.532778 
L 60.367532 186.532778 
L 60.367532 156.268371 
L 30.103125 156.268371 
z
" style="fill:#66c2a5;stroke:#66c2a5;stroke-linejoin:miter;"/>
   </g>
   <g id="patch_3">
    <path clip-path="url(#p3a923cdbee)" d="M 30.103125 150.21549 
L 60.367532 150.21549 
L 60.367532 119.951083 
L 30.103125 119.951083 
z
" style="fill:#66c2a5;stroke:#66c2a5;stroke-linejoin:miter;"/>
   </g>
   <g id="patch_4">
    <path clip-path="url(#p3a923cdbee)" d="M 30.103125 113.898202 
L 60.367532 113.898202 
L 60.367532 83.633795 
L 30.103125 83.633795 
z
" style="fill:#66c2a5;stroke:#66c2a5;stroke-linejoin:miter;"/>
   </g>
   <g id="patch_5">
    <path clip-path="url(#p3a923cdbee)" d="M 30.103125 77.580914 
L 60.367532 77.580914 
L 60.367532 47.316507 
L 30.103125 47.316507 
z
" style="fill:#66c2a5;stroke:#66c2a5;stroke-linejoin:miter;"/>
   </g>
   <g id="patch_6">
    <path clip-path="url(#p3a923cdbee)" d="M 30.103125 41.263626 
L 60.367532 41.263626 
L 60.367532 10.999219 
L 30.103125 10.999219 
z
" style="fill:#66c2a5;stroke:#66c2a5;stroke-linejoin:miter;"/>
   </g>
   <g id="patch_7">
    <path clip-path="url(#p3a923cdbee)" d="M 66.420413 186.532778 
L 96.68482 186.532778 
L 96.68482 156.268371 
L 66.420413 156.268371 
z
" style="fill:#66c2a5;stroke:#66c2a5;stroke-linejoin:miter;"/>
   </g>
   <g id="patch_8">
    <path clip-path="url(#p3a923cdbee)" d="M 66.420413 150.21549 
L 96.68482 150.21549 
L 96.68482 119.951083 
L 66.420413 119.951083 
z
" style="fill:#66c2a5;stroke:#66c2a5;stroke-linejoin:miter;"/>
   </g>
   <g id="patch_9">
    <path clip-path="url(#p3a923cdbee)" d="M 66.420413 113.898202 
L 96.68482 113.898202 
L 96.68482 83.633795 
L 66.420413 83.633795 
z
" style="fill:#66c2a5;stroke:#66c2a5;stroke-linejoin:miter;"/>
   </g>
   <g id="patch_10">
    <path clip-path="url(#p3a923cdbee)" d="M 66.420413 77.580914 
L 96.68482 77.580914 
L 96.68482 47.316507 
L 66.420413 47.316507 
z
" style="fill:#66c2a5;stroke:#66c2a5;stroke-linejoin:miter;"/>
   </g>
   <g id="patch_11">
    <path clip-path="url(#p3a923cdbee)" d="M 66.420413 41.263626 
L 96.68482 41.263626 
L 96.68482 10.999219 
L 66.420413 10.999219 
z
" style="fill:#66c2a5;stroke:#66c2a5;stroke-linejoin:miter;"/>
   </g>
   <g id="patch_12">
    <path clip-path="url(#p3a923cdbee)" d="M 102.737701 186.532778 
L 133.002108 186.532778 
L 133.002108 156.268371 
L 102.737701 156.268371 
z
" style="fill:#66c2a5;stroke:#66c2a5;stroke-linejoin:miter;"/>
   </g>
   <g id="patch_13">
    <path clip-path="url(#p3a923cdbee)" d="M 102.737701 150.21549 
L 133.002108 150.21549 
L 133.002108 119.951083 
L 102.737701 119.951083 
z
" style="fill:#66c2a5;stroke:#66c2a5;stroke-linejoin:miter;"/>
   </g>
   <g id="patch_14">
    <path clip-path="url(#p3a923cdbee)" d="M 102.737701 113.898202 
L 133.002108 113.898202 
L 133.002108 83.633795 
L 102.737701 83.633795 
z
" style="fill:#66c2a5;stroke:#66c2a5;stroke-linejoin:miter;"/>
   </g>
   <g id="patch_15">
    <path clip-path="url(#p3a923cdbee)" d="M 102.737701 77.580914 
L 133.002108 77.580914 
L 133.002108 47.316507 
L 102.737701 47.316507 
z
" style="fill:#66c2a5;stroke:#66c2a5;stroke-linejoin:miter;"/>
   </g>
   <g id="patch_16">
    <path clip-path="url(#p3a923cdbee)" d="M 102.737701 41.263626 
L 133.002108 41.263626 
L 133.002108 10.999219 
L 102.737701 10.999219 
z
" style="fill:#66c2a5;stroke:#66c2a5;stroke-linejoin:miter;"/>
   </g>
   <g id="patch_17">
    <path clip-path="url(#p3a923cdbee)" d="M 139.054989 186.532778 
L 169.319396 186.532778 
L 169.319396 156.268371 
L 139.054989 156.268371 
z
" style="fill:#66c2a5;stroke:#66c2a5;stroke-linejoin:miter;"/>
   </g>
   <g id="patch_18">
    <path clip-path="url(#p3a923cdbee)" d="M 139.054989 150.21549 
L 169.319396 150.21549 
L 169.319396 119.951083 
L 139.054989 119.951083 
z
" style="fill:#66c2a5;stroke:#66c2a5;stroke-linejoin:miter;"/>
   </g>
   <g id="patch_19">
    <path clip-path="url(#p3a923cdbee)" d="M 139.054989 113.898202 
L 169.319396 113.898202 
L 169.319396 83.633795 
L 139.054989 83.633795 
z
" style="fill:#66c2a5;stroke:#66c2a5;stroke-linejoin:miter;"/>
   </g>
   <g id="patch_20">
    <path clip-path="url(#p3a923cdbee)" d="M 139.054989 77.580914 
L 169.319396 77.580914 
L 169.319396 47.316507 
L 139.054989 47.316507 
z
" style="fill:#66c2a5;stroke:#66c2a5;stroke-linejoin:miter;"/>
   </g>
   <g id="patch_21">
    <path clip-path="url(#p3a923cdbee)" d="M 139.054989 41.263626 
L 169.319396 41.263626 
L 169.319396 10.999219 
L 139.054989 10.999219 
z
" style="fill:#66c2a5;stroke:#66c2a5;stroke-linejoin:miter;"/>
   </g>
   <g id="patch_22">
    <path clip-path="url(#p3a923cdbee)" d="M 175.372278 186.532778 
L 205.636684 186.532778 
L 205.636684 156.268371 
L 175.372278 156.268371 
z
" style="fill:#66c2a5;stroke:#66c2a5;stroke-linejoin:miter;"/>
   </g>
   <g id="patch_23">
    <path clip-path="url(#p3a923cdbee)" d="M 175.372278 150.21549 
L 205.636684 150.21549 
L 205.636684 119.951083 
L 175.372278 119.951083 
z
" style="fill:#66c2a5;stroke:#66c2a5;stroke-linejoin:miter;"/>
   </g>
   <g id="patch_24">
    <path clip-path="url(#p3a923cdbee)" d="M 175.372278 113.898202 
L 205.636684 113.898202 
L 205.636684 83.633795 
L 175.372278 83.633795 
z
" style="fill:#66c2a5;stroke:#66c2a5;stroke-linejoin:miter;"/>
   </g>
   <g id="patch_25">
    <path clip-path="url(#p3a923cdbee)" d="M 175.372278 77.580914 
L 205.636684 77.580914 
L 205.636684 47.316507 
L 175.372278 47.316507 
z
" style="fill:#66c2a5;stroke:#66c2a5;stroke-linejoin:miter;"/>
   </g>
   <g id="patch_26">
    <path clip-path="url(#p3a923cdbee)" d="M 175.372278 41.263626 
L 205.636684 41.263626 
L 205.636684 10.999219 
L 175.372278 10.999219 
z
" style="fill:#66c2a5;stroke:#66c2a5;stroke-linejoin:miter;"/>
   </g>
   <g id="patch_27">
    <path clip-path="url(#p3a923cdbee)" d="M 211.689566 186.532778 
L 241.953972 186.532778 
L 241.953972 156.268371 
L 211.689566 156.268371 
z
" style="fill:#fc8d62;stroke:#fc8d62;stroke-linejoin:miter;"/>
   </g>
   <g id="patch_28">
    <path clip-path="url(#p3a923cdbee)" d="M 211.689566 150.21549 
L 241.953972 150.21549 
L 241.953972 119.951083 
L 211.689566 119.951083 
z
" style="fill:#fc8d62;stroke:#fc8d62;stroke-linejoin:miter;"/>
   </g>
   <g id="patch_29">
    <path clip-path="url(#p3a923cdbee)" d="M 211.689566 113.898202 
L 241.953972 113.898202 
L 241.953972 83.633795 
L 211.689566 83.633795 
z
" style="fill:#fc8d62;stroke:#fc8d62;stroke-linejoin:miter;"/>
   </g>
   <g id="patch_30">
    <path clip-path="url(#p3a923cdbee)" d="M 211.689566 77.580914 
L 241.953972 77.580914 
L 241.953972 47.316507 
L 211.689566 47.316507 
z
" style="fill:#fc8d62;stroke:#fc8d62;stroke-linejoin:miter;"/>
   </g>
   <g id="patch_31">
    <path clip-path="url(#p3a923cdbee)" d="M 211.689566 41.263626 
L 241.953972 41.263626 
L 241.953972 10.999219 
L 211.689566 10.999219 
z
" style="fill:#fc8d62;stroke:#fc8d62;stroke-linejoin:miter;"/>
   </g>
   <g id="patch_32">
    <path clip-path="url(#p3a923cdbee)" d="M 248.006854 186.532778 
L 278.271261 186.532778 
L 278.271261 156.268371 
L 248.006854 156.268371 
z
" style="fill:#fc8d62;stroke:#fc8d62;stroke-linejoin:miter;"/>
   </g>
   <g id="patch_33">
    <path clip-path="url(#p3a923cdbee)" d="M 248.006854 150.21549 
L 278.271261 150.21549 
L 278.271261 119.951083 
L 248.006854 119.951083 
z
" style="fill:#fc8d62;stroke:#fc8d62;stroke-linejoin:miter;"/>
   </g>
   <g id="patch_34">
    <path clip-path="url(#p3a923cdbee)" d="M 248.006854 113.898202 
L 278.271261 113.898202 
L 278.271261 83.633795 
L 248.006854 83.633795 
z
" style="fill:#fc8d62;stroke:#fc8d62;stroke-linejoin:miter;"/>
   </g>
   <g id="patch_35">
    <path clip-path="url(#p3a923cdbee)" d="M 248.006854 77.580914 
L 278.271261 77.580914 
L 278.271261 47.316507 
L 248.006854 47.316507 
z
" style="fill:#fc8d62;stroke:#fc8d62;stroke-linejoin:miter;"/>
   </g>
   <g id="patch_36">
    <path clip-path="url(#p3a923cdbee)" d="M 248.006854 41.263626 
L 278.271261 41.263626 
L 278.271261 10.999219 
L 248.006854 10.999219 
z
" style="fill:#fc8d62;stroke:#fc8d62;stroke-linejoin:miter;"/>
   </g>
   <g id="patch_37">
    <path clip-path="url(#p3a923cdbee)" d="M 284.324142 186.532778 
L 314.588549 186.532778 
L 314.588549 156.268371 
L 284.324142 156.268371 
z
" style="fill:#fc8d62;stroke:#fc8d62;stroke-linejoin:miter;"/>
   </g>
   <g id="patch_38">
    <path clip-path="url(#p3a923cdbee)" d="M 284.324142 150.21549 
L 314.588549 150.21549 
L 314.588549 119.951083 
L 284.324142 119.951083 
z
" style="fill:#fc8d62;stroke:#fc8d62;stroke-linejoin:miter;"/>
   </g>
   <g id="patch_39">
    <path clip-path="url(#p3a923cdbee)" d="M 284.324142 113.898202 
L 314.588549 113.898202 
L 314.588549 83.633795 
L 284.324142 83.633795 
z
" style="fill:#fc8d62;stroke:#fc8d62;stroke-linejoin:miter;"/>
   </g>
   <g id="patch_40">
    <path clip-path="url(#p3a923cdbee)" d="M 284.324142 77.580914 
L 314.588549 77.580914 
L 314.588549 47.316507 
L 284.324142 47.316507 
z
" style="fill:#fc8d62;stroke:#fc8d62;stroke-linejoin:miter;"/>
   </g>
   <g id="patch_41">
    <path clip-path="url(#p3a923cdbee)" d="M 284.324142 41.263626 
L 314.588549 41.263626 
L 314.588549 10.999219 
L 284.324142 10.999219 
z
" style="fill:#fc8d62;stroke:#fc8d62;stroke-linejoin:miter;"/>
   </g>
   <g id="patch_42">
    <path clip-path="url(#p3a923cdbee)" d="M 320.64143 186.532778 
L 350.905837 186.532778 
L 350.905837 156.268371 
L 320.64143 156.268371 
z
" style="fill:#fc8d62;stroke:#fc8d62;stroke-linejoin:miter;"/>
   </g>
   <g id="patch_43">
    <path clip-path="url(#p3a923cdbee)" d="M 320.64143 150.21549 
L 350.905837 150.21549 
L 350.905837 119.951083 
L 320.64143 119.951083 
z
" style="fill:#fc8d62;stroke:#fc8d62;stroke-linejoin:miter;"/>
   </g>
   <g id="patch_44">
    <path clip-path="url(#p3a923cdbee)" d="M 320.64143 113.898202 
L 350.905837 113.898202 
L 350.905837 83.633795 
L 320.64143 83.633795 
z
" style="fill:#fc8d62;stroke:#fc8d62;stroke-linejoin:miter;"/>
   </g>
   <g id="patch_45">
    <path clip-path="url(#p3a923cdbee)" d="M 320.64143 77.580914 
L 350.905837 77.580914 
L 350.905837 47.316507 
L 320.64143 47.316507 
z
" style="fill:#fc8d62;stroke:#fc8d62;stroke-linejoin:miter;"/>
   </g>
   <g id="patch_46">
    <path clip-path="url(#p3a923cdbee)" d="M 320.64143 41.263626 
L 350.905837 41.263626 
L 350.905837 10.999219 
L 320.64143 10.999219 
z
" style="fill:#fc8d62;stroke:#fc8d62;stroke-linejoin:miter;"/>
   </g>
   <g id="patch_47">
    <path clip-path="url(#p3a923cdbee)" d="M 356.958718 186.532778 
L 387.223125 186.532778 
L 387.223125 156.268371 
L 356.958718 156.268371 
z
" style="fill:#fc8d62;stroke:#fc8d62;stroke-linejoin:miter;"/>
   </g>
   <g id="patch_48">
    <path clip-path="url(#p3a923cdbee)" d="M 356.958718 150.21549 
L 387.223125 150.21549 
L 387.223125 119.951083 
L 356.958718 119.951083 
z
" style="fill:#fc8d62;stroke:#fc8d62;stroke-linejoin:miter;"/>
   </g>
   <g id="patch_49">
    <path clip-path="url(#p3a923cdbee)" d="M 356.958718 113.898202 
L 387.223125 113.898202 
L 387.223125 83.633795 
L 356.958718 83.633795 
z
" style="fill:#fc8d62;stroke:#fc8d62;stroke-linejoin:miter;"/>
   </g>
   <g id="patch_50">
    <path clip-path="url(#p3a923cdbee)" d="M 356.958718 77.580914 
L 387.223125 77.580914 
L 387.223125 47.316507 
L 356.958718 47.316507 
z
" style="fill:#fc8d62;stroke:#fc8d62;stroke-linejoin:miter;"/>
   </g>
   <g id="patch_51">
    <path clip-path="url(#p3a923cdbee)" d="M 356.958718 41.263626 
L 387.223125 41.263626 
L 387.223125 10.999219 
L 356.958718 10.999219 
z
" style="fill:#8da0cb;stroke:#8da0cb;stroke-linejoin:miter;"/>
   </g>
  </g>
 </g>
 <defs>
  <clipPath id="p3a923cdbee">
   <rect height="175.533559" width="357.12" x="30.103125" y="10.999219"/>
  </clipPath>
 </defs>
</svg>
