<?xml version="1.0" encoding="utf-8" standalone="no"?>
<!DOCTYPE svg PUBLIC "-//W3C//DTD SVG 1.1//EN"
  "http://www.w3.org/Graphics/SVG/1.1/DTD/svg11.dtd">
<!-- Created with matplotlib (http://matplotlib.org/) -->
<svg height="196pt" version="1.1" viewBox="0 0 378 196" width="378pt" xmlns="http://www.w3.org/2000/svg" xmlns:xlink="http://www.w3.org/1999/xlink">
 <defs>
  <style type="text/css">
*{stroke-linecap:butt;stroke-linejoin:round;}
  </style>
 </defs>
 <g id="figure_1">
  <g id="patch_1">
   <path d="M 0 196.933559 
L 378.52 196.933559 
L 378.52 -0 
L 0 -0 
z
" style="fill:#ffffff;"/>
  </g>
  <g id="axes_1">
   <g id="patch_2">
    <path d="M 10.7 186.233559 
L 367.82 186.233559 
L 367.82 10.7 
L 10.7 10.7 
z
" style="fill:#ffffff;"/>
   </g>
   <g id="patch_3">
    <path clip-path="url(#pd2c8659b05)" d="M 10.7 186.233559 
L 40.964407 186.233559 
L 40.964407 155.969153 
L 10.7 155.969153 
z
" style="fill:#66c2a5;stroke:#66c2a5;stroke-linejoin:miter;"/>
   </g>
   <g id="patch_4">
    <path clip-path="url(#pd2c8659b05)" d="M 10.7 149.916271 
L 40.964407 149.916271 
L 40.964407 119.651864 
L 10.7 119.651864 
z
" style="fill:#66c2a5;stroke:#66c2a5;stroke-linejoin:miter;"/>
   </g>
   <g id="patch_5">
    <path clip-path="url(#pd2c8659b05)" d="M 10.7 113.598983 
L 40.964407 113.598983 
L 40.964407 83.334576 
L 10.7 83.334576 
z
" style="fill:#66c2a5;stroke:#66c2a5;stroke-linejoin:miter;"/>
   </g>
   <g id="patch_6">
    <path clip-path="url(#pd2c8659b05)" d="M 10.7 77.281695 
L 40.964407 77.281695 
L 40.964407 47.017288 
L 10.7 47.017288 
z
" style="fill:#66c2a5;stroke:#66c2a5;stroke-linejoin:miter;"/>
   </g>
   <g id="patch_7">
    <path clip-path="url(#pd2c8659b05)" d="M 10.7 40.964407 
L 40.964407 40.964407 
L 40.964407 10.7 
L 10.7 10.7 
z
" style="fill:#66c2a5;stroke:#66c2a5;stroke-linejoin:miter;"/>
   </g>
   <g id="patch_8">
    <path clip-path="url(#pd2c8659b05)" d="M 47.017288 186.233559 
L 77.281695 186.233559 
L 77.281695 155.969153 
L 47.017288 155.969153 
z
" style="fill:#66c2a5;stroke:#66c2a5;stroke-linejoin:miter;"/>
   </g>
   <g id="patch_9">
    <path clip-path="url(#pd2c8659b05)" d="M 47.017288 149.916271 
L 77.281695 149.916271 
L 77.281695 119.651864 
L 47.017288 119.651864 
z
" style="fill:#66c2a5;stroke:#66c2a5;stroke-linejoin:miter;"/>
   </g>
   <g id="patch_10">
    <path clip-path="url(#pd2c8659b05)" d="M 47.017288 113.598983 
L 77.281695 113.598983 
L 77.281695 83.334576 
L 47.017288 83.334576 
z
" style="fill:#66c2a5;stroke:#66c2a5;stroke-linejoin:miter;"/>
   </g>
   <g id="patch_11">
    <path clip-path="url(#pd2c8659b05)" d="M 47.017288 77.281695 
L 77.281695 77.281695 
L 77.281695 47.017288 
L 47.017288 47.017288 
z
" style="fill:#66c2a5;stroke:#66c2a5;stroke-linejoin:miter;"/>
   </g>
   <g id="patch_12">
    <path clip-path="url(#pd2c8659b05)" d="M 47.017288 40.964407 
L 77.281695 40.964407 
L 77.281695 10.7 
L 47.017288 10.7 
z
" style="fill:#66c2a5;stroke:#66c2a5;stroke-linejoin:miter;"/>
   </g>
   <g id="patch_13">
    <path clip-path="url(#pd2c8659b05)" d="M 83.334576 186.233559 
L 113.598983 186.233559 
L 113.598983 155.969153 
L 83.334576 155.969153 
z
" style="fill:#66c2a5;stroke:#66c2a5;stroke-linejoin:miter;"/>
   </g>
   <g id="patch_14">
    <path clip-path="url(#pd2c8659b05)" d="M 83.334576 149.916271 
L 113.598983 149.916271 
L 113.598983 119.651864 
L 83.334576 119.651864 
z
" style="fill:#66c2a5;stroke:#66c2a5;stroke-linejoin:miter;"/>
   </g>
   <g id="patch_15">
    <path clip-path="url(#pd2c8659b05)" d="M 83.334576 113.598983 
L 113.598983 113.598983 
L 113.598983 83.334576 
L 83.334576 83.334576 
z
" style="fill:#66c2a5;stroke:#66c2a5;stroke-linejoin:miter;"/>
   </g>
   <g id="patch_16">
    <path clip-path="url(#pd2c8659b05)" d="M 83.334576 77.281695 
L 113.598983 77.281695 
L 113.598983 47.017288 
L 83.334576 47.017288 
z
" style="fill:#66c2a5;stroke:#66c2a5;stroke-linejoin:miter;"/>
   </g>
   <g id="patch_17">
    <path clip-path="url(#pd2c8659b05)" d="M 83.334576 40.964407 
L 113.598983 40.964407 
L 113.598983 10.7 
L 83.334576 10.7 
z
" style="fill:#66c2a5;stroke:#66c2a5;stroke-linejoin:miter;"/>
   </g>
   <g id="patch_18">
    <path clip-path="url(#pd2c8659b05)" d="M 119.651864 186.233559 
L 149.916271 186.233559 
L 149.916271 155.969153 
L 119.651864 155.969153 
z
" style="fill:#66c2a5;stroke:#66c2a5;stroke-linejoin:miter;"/>
   </g>
   <g id="patch_19">
    <path clip-path="url(#pd2c8659b05)" d="M 119.651864 149.916271 
L 149.916271 149.916271 
L 149.916271 119.651864 
L 119.651864 119.651864 
z
" style="fill:#66c2a5;stroke:#66c2a5;stroke-linejoin:miter;"/>
   </g>
   <g id="patch_20">
    <path clip-path="url(#pd2c8659b05)" d="M 119.651864 113.598983 
L 149.916271 113.598983 
L 149.916271 83.334576 
L 119.651864 83.334576 
z
" style="fill:#66c2a5;stroke:#66c2a5;stroke-linejoin:miter;"/>
   </g>
   <g id="patch_21">
    <path clip-path="url(#pd2c8659b05)" d="M 119.651864 77.281695 
L 149.916271 77.281695 
L 149.916271 47.017288 
L 119.651864 47.017288 
z
" style="fill:#66c2a5;stroke:#66c2a5;stroke-linejoin:miter;"/>
   </g>
   <g id="patch_22">
    <path clip-path="url(#pd2c8659b05)" d="M 119.651864 40.964407 
L 149.916271 40.964407 
L 149.916271 10.7 
L 119.651864 10.7 
z
" style="fill:#66c2a5;stroke:#66c2a5;stroke-linejoin:miter;"/>
   </g>
   <g id="patch_23">
    <path clip-path="url(#pd2c8659b05)" d="M 155.969153 186.233559 
L 186.233559 186.233559 
L 186.233559 155.969153 
L 155.969153 155.969153 
z
" style="fill:#66c2a5;stroke:#66c2a5;stroke-linejoin:miter;"/>
   </g>
   <g id="patch_24">
    <path clip-path="url(#pd2c8659b05)" d="M 155.969153 149.916271 
L 186.233559 149.916271 
L 186.233559 119.651864 
L 155.969153 119.651864 
z
" style="fill:#66c2a5;stroke:#66c2a5;stroke-linejoin:miter;"/>
   </g>
   <g id="patch_25">
    <path clip-path="url(#pd2c8659b05)" d="M 155.969153 113.598983 
L 186.233559 113.598983 
L 186.233559 83.334576 
L 155.969153 83.334576 
z
" style="fill:#66c2a5;stroke:#66c2a5;stroke-linejoin:miter;"/>
   </g>
   <g id="patch_26">
    <path clip-path="url(#pd2c8659b05)" d="M 155.969153 77.281695 
L 186.233559 77.281695 
L 186.233559 47.017288 
L 155.969153 47.017288 
z
" style="fill:#66c2a5;stroke:#66c2a5;stroke-linejoin:miter;"/>
   </g>
   <g id="patch_27">
    <path clip-path="url(#pd2c8659b05)" d="M 155.969153 40.964407 
L 186.233559 40.964407 
L 186.233559 10.7 
L 155.969153 10.7 
z
" style="fill:#66c2a5;stroke:#66c2a5;stroke-linejoin:miter;"/>
   </g>
   <g id="patch_28">
    <path clip-path="url(#pd2c8659b05)" d="M 192.286441 186.233559 
L 222.550847 186.233559 
L 222.550847 155.969153 
L 192.286441 155.969153 
z
" style="fill:#fc8d62;stroke:#fc8d62;stroke-linejoin:miter;"/>
   </g>
   <g id="patch_29">
    <path clip-path="url(#pd2c8659b05)" d="M 192.286441 149.916271 
L 222.550847 149.916271 
L 222.550847 119.651864 
L 192.286441 119.651864 
z
" style="fill:#fc8d62;stroke:#fc8d62;stroke-linejoin:miter;"/>
   </g>
   <g id="patch_30">
    <path clip-path="url(#pd2c8659b05)" d="M 192.286441 113.598983 
L 222.550847 113.598983 
L 222.550847 83.334576 
L 192.286441 83.334576 
z
" style="fill:#fc8d62;stroke:#fc8d62;stroke-linejoin:miter;"/>
   </g>
   <g id="patch_31">
    <path clip-path="url(#pd2c8659b05)" d="M 192.286441 77.281695 
L 222.550847 77.281695 
L 222.550847 47.017288 
L 192.286441 47.017288 
z
" style="fill:#fc8d62;stroke:#fc8d62;stroke-linejoin:miter;"/>
   </g>
   <g id="patch_32">
    <path clip-path="url(#pd2c8659b05)" d="M 192.286441 40.964407 
L 222.550847 40.964407 
L 222.550847 10.7 
L 192.286441 10.7 
z
" style="fill:#fc8d62;stroke:#fc8d62;stroke-linejoin:miter;"/>
   </g>
   <g id="patch_33">
    <path clip-path="url(#pd2c8659b05)" d="M 228.603729 186.233559 
L 258.868136 186.233559 
L 258.868136 155.969153 
L 228.603729 155.969153 
z
" style="fill:#fc8d62;stroke:#fc8d62;stroke-linejoin:miter;"/>
   </g>
   <g id="patch_34">
    <path clip-path="url(#pd2c8659b05)" d="M 228.603729 149.916271 
L 258.868136 149.916271 
L 258.868136 119.651864 
L 228.603729 119.651864 
z
" style="fill:#fc8d62;stroke:#fc8d62;stroke-linejoin:miter;"/>
   </g>
   <g id="patch_35">
    <path clip-path="url(#pd2c8659b05)" d="M 228.603729 113.598983 
L 258.868136 113.598983 
L 258.868136 83.334576 
L 228.603729 83.334576 
z
" style="fill:#fc8d62;stroke:#fc8d62;stroke-linejoin:miter;"/>
   </g>
   <g id="patch_36">
    <path clip-path="url(#pd2c8659b05)" d="M 228.603729 77.281695 
L 258.868136 77.281695 
L 258.868136 47.017288 
L 228.603729 47.017288 
z
" style="fill:#fc8d62;stroke:#fc8d62;stroke-linejoin:miter;"/>
   </g>
   <g id="patch_37">
    <path clip-path="url(#pd2c8659b05)" d="M 228.603729 40.964407 
L 258.868136 40.964407 
L 258.868136 10.7 
L 228.603729 10.7 
z
" style="fill:#fc8d62;stroke:#fc8d62;stroke-linejoin:miter;"/>
   </g>
   <g id="patch_38">
    <path clip-path="url(#pd2c8659b05)" d="M 264.921017 186.233559 
L 295.185424 186.233559 
L 295.185424 155.969153 
L 264.921017 155.969153 
z
" style="fill:#fc8d62;stroke:#fc8d62;stroke-linejoin:miter;"/>
   </g>
   <g id="patch_39">
    <path clip-path="url(#pd2c8659b05)" d="M 264.921017 149.916271 
L 295.185424 149.916271 
L 295.185424 119.651864 
L 264.921017 119.651864 
z
" style="fill:#fc8d62;stroke:#fc8d62;stroke-linejoin:miter;"/>
   </g>
   <g id="patch_40">
    <path clip-path="url(#pd2c8659b05)" d="M 264.921017 113.598983 
L 295.185424 113.598983 
L 295.185424 83.334576 
L 264.921017 83.334576 
z
" style="fill:#fc8d62;stroke:#fc8d62;stroke-linejoin:miter;"/>
   </g>
   <g id="patch_41">
    <path clip-path="url(#pd2c8659b05)" d="M 264.921017 77.281695 
L 295.185424 77.281695 
L 295.185424 47.017288 
L 264.921017 47.017288 
z
" style="fill:#fc8d62;stroke:#fc8d62;stroke-linejoin:miter;"/>
   </g>
   <g id="patch_42">
    <path clip-path="url(#pd2c8659b05)" d="M 264.921017 40.964407 
L 295.185424 40.964407 
L 295.185424 10.7 
L 264.921017 10.7 
z
" style="fill:#fc8d62;stroke:#fc8d62;stroke-linejoin:miter;"/>
   </g>
   <g id="patch_43">
    <path clip-path="url(#pd2c8659b05)" d="M 301.238305 186.233559 
L 331.502712 186.233559 
L 331.502712 155.969153 
L 301.238305 155.969153 
z
" style="fill:#fc8d62;stroke:#fc8d62;stroke-linejoin:miter;"/>
   </g>
   <g id="patch_44">
    <path clip-path="url(#pd2c8659b05)" d="M 301.238305 149.916271 
L 331.502712 149.916271 
L 331.502712 119.651864 
L 301.238305 119.651864 
z
" style="fill:#fc8d62;stroke:#fc8d62;stroke-linejoin:miter;"/>
   </g>
   <g id="patch_45">
    <path clip-path="url(#pd2c8659b05)" d="M 301.238305 113.598983 
L 331.502712 113.598983 
L 331.502712 83.334576 
L 301.238305 83.334576 
z
" style="fill:#fc8d62;stroke:#fc8d62;stroke-linejoin:miter;"/>
   </g>
   <g id="patch_46">
    <path clip-path="url(#pd2c8659b05)" d="M 301.238305 77.281695 
L 331.502712 77.281695 
L 331.502712 47.017288 
L 301.238305 47.017288 
z
" style="fill:#fc8d62;stroke:#fc8d62;stroke-linejoin:miter;"/>
   </g>
   <g id="patch_47">
    <path clip-path="url(#pd2c8659b05)" d="M 301.238305 40.964407 
L 331.502712 40.964407 
L 331.502712 10.7 
L 301.238305 10.7 
z
" style="fill:#fc8d62;stroke:#fc8d62;stroke-linejoin:miter;"/>
   </g>
   <g id="patch_48">
    <path clip-path="url(#pd2c8659b05)" d="M 337.555593 186.233559 
L 367.82 186.233559 
L 367.82 155.969153 
L 337.555593 155.969153 
z
" style="fill:#fc8d62;stroke:#fc8d62;stroke-linejoin:miter;"/>
   </g>
   <g id="patch_49">
    <path clip-path="url(#pd2c8659b05)" d="M 337.555593 149.916271 
L 367.82 149.916271 
L 367.82 119.651864 
L 337.555593 119.651864 
z
" style="fill:#fc8d62;stroke:#fc8d62;stroke-linejoin:miter;"/>
   </g>
   <g id="patch_50">
    <path clip-path="url(#pd2c8659b05)" d="M 337.555593 113.598983 
L 367.82 113.598983 
L 367.82 83.334576 
L 337.555593 83.334576 
z
" style="fill:#fc8d62;stroke:#fc8d62;stroke-linejoin:miter;"/>
   </g>
   <g id="patch_51">
    <path clip-path="url(#pd2c8659b05)" d="M 337.555593 77.281695 
L 367.82 77.281695 
L 367.82 47.017288 
L 337.555593 47.017288 
z
" style="fill:#fc8d62;stroke:#fc8d62;stroke-linejoin:miter;"/>
   </g>
   <g id="patch_52">
    <path clip-path="url(#pd2c8659b05)" d="M 337.555593 40.964407 
L 367.82 40.964407 
L 367.82 10.7 
L 337.555593 10.7 
z
" style="fill:#8da0cb;stroke:#8da0cb;stroke-linejoin:miter;"/>
   </g>
   <g id="matplotlib.axis_1">
    <g id="xtick_1"/>
    <g id="xtick_2"/>
    <g id="xtick_3"/>
    <g id="xtick_4"/>
    <g id="xtick_5"/>
    <g id="xtick_6"/>
    <g id="xtick_7"/>
    <g id="xtick_8"/>
    <g id="xtick_9"/>
   </g>
   <g id="matplotlib.axis_2">
    <g id="ytick_1"/>
    <g id="ytick_2"/>
    <g id="ytick_3"/>
    <g id="ytick_4"/>
    <g id="ytick_5"/>
    <g id="ytick_6"/>
   </g>
  </g>
 </g>
 <defs>
  <clipPath id="pd2c8659b05">
   <rect height="175.533559" width="357.12" x="10.7" y="10.7"/>
  </clipPath>
 </defs>
</svg>
