<?xml version="1.0" encoding="utf-8" standalone="no"?>
<!DOCTYPE svg PUBLIC "-//W3C//DTD SVG 1.1//EN"
  "http://www.w3.org/Graphics/SVG/1.1/DTD/svg11.dtd">
<svg xmlns:xlink="http://www.w3.org/1999/xlink" width="453.6pt" height="148.471579pt" viewBox="0 0 453.6 148.471579" xmlns="http://www.w3.org/2000/svg" version="1.1">
 <metadata>
  <rdf:RDF xmlns:dc="http://purl.org/dc/elements/1.1/" xmlns:cc="http://creativecommons.org/ns#" xmlns:rdf="http://www.w3.org/1999/02/22-rdf-syntax-ns#">
   <cc:Work>
    <dc:type rdf:resource="http://purl.org/dc/dcmitype/StillImage"/>
    <dc:date>2022-06-05T10:43:34.235978</dc:date>
    <dc:format>image/svg+xml</dc:format>
    <dc:creator>
     <cc:Agent>
      <dc:title>Matplotlib v3.5.2, https://matplotlib.org/</dc:title>
     </cc:Agent>
    </dc:creator>
   </cc:Work>
  </rdf:RDF>
 </metadata>
 <defs>
  <style type="text/css">*{stroke-linejoin: round; stroke-linecap: butt}</style>
 </defs>
 <g id="figure_1">
  <g id="patch_1">
   <path d="M 0 148.471579 
L 453.6 148.471579 
L 453.6 0 
L 0 0 
z
" style="fill: #ffffff"/>
  </g>
  <g id="axes_1">
   <g id="patch_2">
    <path d="M 7.2 141.271579 
L 30.315789 141.271579 
L 30.315789 118.155789 
L 7.2 118.155789 
z
" clip-path="url(#pc288635b00)" style="fill: #66c2a5; stroke: #66c2a5; stroke-linejoin: miter"/>
   </g>
   <g id="patch_3">
    <path d="M 7.2 113.532632 
L 30.315789 113.532632 
L 30.315789 90.416842 
L 7.2 90.416842 
z
" clip-path="url(#pc288635b00)" style="fill: #66c2a5; stroke: #66c2a5; stroke-linejoin: miter"/>
   </g>
   <g id="patch_4">
    <path d="M 7.2 85.793684 
L 30.315789 85.793684 
L 30.315789 62.677895 
L 7.2 62.677895 
z
" clip-path="url(#pc288635b00)" style="fill: #66c2a5; stroke: #66c2a5; stroke-linejoin: miter"/>
   </g>
   <g id="patch_5">
    <path d="M 7.2 58.054737 
L 30.315789 58.054737 
L 30.315789 34.938947 
L 7.2 34.938947 
z
" clip-path="url(#pc288635b00)" style="fill: #66c2a5; stroke: #66c2a5; stroke-linejoin: miter"/>
   </g>
   <g id="patch_6">
    <path d="M 7.2 30.315789 
L 30.315789 30.315789 
L 30.315789 7.2 
L 7.2 7.2 
z
" clip-path="url(#pc288635b00)" style="fill: #66c2a5; stroke: #66c2a5; stroke-linejoin: miter"/>
   </g>
   <g id="patch_7">
    <path d="M 34.938947 141.271579 
L 58.054737 141.271579 
L 58.054737 118.155789 
L 34.938947 118.155789 
z
" clip-path="url(#pc288635b00)" style="fill: #66c2a5; stroke: #66c2a5; stroke-linejoin: miter"/>
   </g>
   <g id="patch_8">
    <path d="M 34.938947 113.532632 
L 58.054737 113.532632 
L 58.054737 90.416842 
L 34.938947 90.416842 
z
" clip-path="url(#pc288635b00)" style="fill: #66c2a5; stroke: #66c2a5; stroke-linejoin: miter"/>
   </g>
   <g id="patch_9">
    <path d="M 34.938947 85.793684 
L 58.054737 85.793684 
L 58.054737 62.677895 
L 34.938947 62.677895 
z
" clip-path="url(#pc288635b00)" style="fill: #66c2a5; stroke: #66c2a5; stroke-linejoin: miter"/>
   </g>
   <g id="patch_10">
    <path d="M 34.938947 58.054737 
L 58.054737 58.054737 
L 58.054737 34.938947 
L 34.938947 34.938947 
z
" clip-path="url(#pc288635b00)" style="fill: #66c2a5; stroke: #66c2a5; stroke-linejoin: miter"/>
   </g>
   <g id="patch_11">
    <path d="M 34.938947 30.315789 
L 58.054737 30.315789 
L 58.054737 7.2 
L 34.938947 7.2 
z
" clip-path="url(#pc288635b00)" style="fill: #66c2a5; stroke: #66c2a5; stroke-linejoin: miter"/>
   </g>
   <g id="patch_12">
    <path d="M 62.677895 141.271579 
L 85.793684 141.271579 
L 85.793684 118.155789 
L 62.677895 118.155789 
z
" clip-path="url(#pc288635b00)" style="fill: #66c2a5; stroke: #66c2a5; stroke-linejoin: miter"/>
   </g>
   <g id="patch_13">
    <path d="M 62.677895 113.532632 
L 85.793684 113.532632 
L 85.793684 90.416842 
L 62.677895 90.416842 
z
" clip-path="url(#pc288635b00)" style="fill: #66c2a5; stroke: #66c2a5; stroke-linejoin: miter"/>
   </g>
   <g id="patch_14">
    <path d="M 62.677895 85.793684 
L 85.793684 85.793684 
L 85.793684 62.677895 
L 62.677895 62.677895 
z
" clip-path="url(#pc288635b00)" style="fill: #66c2a5; stroke: #66c2a5; stroke-linejoin: miter"/>
   </g>
   <g id="patch_15">
    <path d="M 62.677895 58.054737 
L 85.793684 58.054737 
L 85.793684 34.938947 
L 62.677895 34.938947 
z
" clip-path="url(#pc288635b00)" style="fill: #66c2a5; stroke: #66c2a5; stroke-linejoin: miter"/>
   </g>
   <g id="patch_16">
    <path d="M 62.677895 30.315789 
L 85.793684 30.315789 
L 85.793684 7.2 
L 62.677895 7.2 
z
" clip-path="url(#pc288635b00)" style="fill: #66c2a5; stroke: #66c2a5; stroke-linejoin: miter"/>
   </g>
   <g id="patch_17">
    <path d="M 90.416842 141.271579 
L 113.532632 141.271579 
L 113.532632 118.155789 
L 90.416842 118.155789 
z
" clip-path="url(#pc288635b00)" style="fill: #66c2a5; stroke: #66c2a5; stroke-linejoin: miter"/>
   </g>
   <g id="patch_18">
    <path d="M 90.416842 113.532632 
L 113.532632 113.532632 
L 113.532632 90.416842 
L 90.416842 90.416842 
z
" clip-path="url(#pc288635b00)" style="fill: #66c2a5; stroke: #66c2a5; stroke-linejoin: miter"/>
   </g>
   <g id="patch_19">
    <path d="M 90.416842 85.793684 
L 113.532632 85.793684 
L 113.532632 62.677895 
L 90.416842 62.677895 
z
" clip-path="url(#pc288635b00)" style="fill: #66c2a5; stroke: #66c2a5; stroke-linejoin: miter"/>
   </g>
   <g id="patch_20">
    <path d="M 90.416842 58.054737 
L 113.532632 58.054737 
L 113.532632 34.938947 
L 90.416842 34.938947 
z
" clip-path="url(#pc288635b00)" style="fill: #66c2a5; stroke: #66c2a5; stroke-linejoin: miter"/>
   </g>
   <g id="patch_21">
    <path d="M 90.416842 30.315789 
L 113.532632 30.315789 
L 113.532632 7.2 
L 90.416842 7.2 
z
" clip-path="url(#pc288635b00)" style="fill: #66c2a5; stroke: #66c2a5; stroke-linejoin: miter"/>
   </g>
   <g id="patch_22">
    <path d="M 118.155789 141.271579 
L 141.271579 141.271579 
L 141.271579 118.155789 
L 118.155789 118.155789 
z
" clip-path="url(#pc288635b00)" style="fill: #66c2a5; stroke: #66c2a5; stroke-linejoin: miter"/>
   </g>
   <g id="patch_23">
    <path d="M 118.155789 113.532632 
L 141.271579 113.532632 
L 141.271579 90.416842 
L 118.155789 90.416842 
z
" clip-path="url(#pc288635b00)" style="fill: #66c2a5; stroke: #66c2a5; stroke-linejoin: miter"/>
   </g>
   <g id="patch_24">
    <path d="M 118.155789 85.793684 
L 141.271579 85.793684 
L 141.271579 62.677895 
L 118.155789 62.677895 
z
" clip-path="url(#pc288635b00)" style="fill: #66c2a5; stroke: #66c2a5; stroke-linejoin: miter"/>
   </g>
   <g id="patch_25">
    <path d="M 118.155789 58.054737 
L 141.271579 58.054737 
L 141.271579 34.938947 
L 118.155789 34.938947 
z
" clip-path="url(#pc288635b00)" style="fill: #66c2a5; stroke: #66c2a5; stroke-linejoin: miter"/>
   </g>
   <g id="patch_26">
    <path d="M 118.155789 30.315789 
L 141.271579 30.315789 
L 141.271579 7.2 
L 118.155789 7.2 
z
" clip-path="url(#pc288635b00)" style="fill: #66c2a5; stroke: #66c2a5; stroke-linejoin: miter"/>
   </g>
   <g id="patch_27">
    <path d="M 145.894737 141.271579 
L 169.010526 141.271579 
L 169.010526 118.155789 
L 145.894737 118.155789 
z
" clip-path="url(#pc288635b00)" style="fill: #66c2a5; stroke: #66c2a5; stroke-linejoin: miter"/>
   </g>
   <g id="patch_28">
    <path d="M 145.894737 113.532632 
L 169.010526 113.532632 
L 169.010526 90.416842 
L 145.894737 90.416842 
z
" clip-path="url(#pc288635b00)" style="fill: #66c2a5; stroke: #66c2a5; stroke-linejoin: miter"/>
   </g>
   <g id="patch_29">
    <path d="M 145.894737 85.793684 
L 169.010526 85.793684 
L 169.010526 62.677895 
L 145.894737 62.677895 
z
" clip-path="url(#pc288635b00)" style="fill: #66c2a5; stroke: #66c2a5; stroke-linejoin: miter"/>
   </g>
   <g id="patch_30">
    <path d="M 145.894737 58.054737 
L 169.010526 58.054737 
L 169.010526 34.938947 
L 145.894737 34.938947 
z
" clip-path="url(#pc288635b00)" style="fill: #66c2a5; stroke: #66c2a5; stroke-linejoin: miter"/>
   </g>
   <g id="patch_31">
    <path d="M 145.894737 30.315789 
L 169.010526 30.315789 
L 169.010526 7.2 
L 145.894737 7.2 
z
" clip-path="url(#pc288635b00)" style="fill: #66c2a5; stroke: #66c2a5; stroke-linejoin: miter"/>
   </g>
   <g id="patch_32">
    <path d="M 173.633684 141.271579 
L 196.749474 141.271579 
L 196.749474 118.155789 
L 173.633684 118.155789 
z
" clip-path="url(#pc288635b00)" style="fill: #66c2a5; stroke: #66c2a5; stroke-linejoin: miter"/>
   </g>
   <g id="patch_33">
    <path d="M 173.633684 113.532632 
L 196.749474 113.532632 
L 196.749474 90.416842 
L 173.633684 90.416842 
z
" clip-path="url(#pc288635b00)" style="fill: #66c2a5; stroke: #66c2a5; stroke-linejoin: miter"/>
   </g>
   <g id="patch_34">
    <path d="M 173.633684 85.793684 
L 196.749474 85.793684 
L 196.749474 62.677895 
L 173.633684 62.677895 
z
" clip-path="url(#pc288635b00)" style="fill: #66c2a5; stroke: #66c2a5; stroke-linejoin: miter"/>
   </g>
   <g id="patch_35">
    <path d="M 173.633684 58.054737 
L 196.749474 58.054737 
L 196.749474 34.938947 
L 173.633684 34.938947 
z
" clip-path="url(#pc288635b00)" style="fill: #66c2a5; stroke: #66c2a5; stroke-linejoin: miter"/>
   </g>
   <g id="patch_36">
    <path d="M 173.633684 30.315789 
L 196.749474 30.315789 
L 196.749474 7.2 
L 173.633684 7.2 
z
" clip-path="url(#pc288635b00)" style="fill: #66c2a5; stroke: #66c2a5; stroke-linejoin: miter"/>
   </g>
   <g id="patch_37">
    <path d="M 201.372632 141.271579 
L 224.488421 141.271579 
L 224.488421 118.155789 
L 201.372632 118.155789 
z
" clip-path="url(#pc288635b00)" style="fill: #66c2a5; stroke: #66c2a5; stroke-linejoin: miter"/>
   </g>
   <g id="patch_38">
    <path d="M 201.372632 113.532632 
L 224.488421 113.532632 
L 224.488421 90.416842 
L 201.372632 90.416842 
z
" clip-path="url(#pc288635b00)" style="fill: #66c2a5; stroke: #66c2a5; stroke-linejoin: miter"/>
   </g>
   <g id="patch_39">
    <path d="M 201.372632 85.793684 
L 224.488421 85.793684 
L 224.488421 62.677895 
L 201.372632 62.677895 
z
" clip-path="url(#pc288635b00)" style="fill: #66c2a5; stroke: #66c2a5; stroke-linejoin: miter"/>
   </g>
   <g id="patch_40">
    <path d="M 201.372632 58.054737 
L 224.488421 58.054737 
L 224.488421 34.938947 
L 201.372632 34.938947 
z
" clip-path="url(#pc288635b00)" style="fill: #66c2a5; stroke: #66c2a5; stroke-linejoin: miter"/>
   </g>
   <g id="patch_41">
    <path d="M 201.372632 30.315789 
L 224.488421 30.315789 
L 224.488421 7.2 
L 201.372632 7.2 
z
" clip-path="url(#pc288635b00)" style="fill: #66c2a5; stroke: #66c2a5; stroke-linejoin: miter"/>
   </g>
   <g id="patch_42">
    <path d="M 229.111579 141.271579 
L 252.227368 141.271579 
L 252.227368 118.155789 
L 229.111579 118.155789 
z
" clip-path="url(#pc288635b00)" style="fill: #fc8d62; stroke: #fc8d62; stroke-linejoin: miter"/>
   </g>
   <g id="patch_43">
    <path d="M 229.111579 113.532632 
L 252.227368 113.532632 
L 252.227368 90.416842 
L 229.111579 90.416842 
z
" clip-path="url(#pc288635b00)" style="fill: #fc8d62; stroke: #fc8d62; stroke-linejoin: miter"/>
   </g>
   <g id="patch_44">
    <path d="M 229.111579 85.793684 
L 252.227368 85.793684 
L 252.227368 62.677895 
L 229.111579 62.677895 
z
" clip-path="url(#pc288635b00)" style="fill: #fc8d62; stroke: #fc8d62; stroke-linejoin: miter"/>
   </g>
   <g id="patch_45">
    <path d="M 229.111579 58.054737 
L 252.227368 58.054737 
L 252.227368 34.938947 
L 229.111579 34.938947 
z
" clip-path="url(#pc288635b00)" style="fill: #fc8d62; stroke: #fc8d62; stroke-linejoin: miter"/>
   </g>
   <g id="patch_46">
    <path d="M 229.111579 30.315789 
L 252.227368 30.315789 
L 252.227368 7.2 
L 229.111579 7.2 
z
" clip-path="url(#pc288635b00)" style="fill: #fc8d62; stroke: #fc8d62; stroke-linejoin: miter"/>
   </g>
   <g id="patch_47">
    <path d="M 256.850526 141.271579 
L 279.966316 141.271579 
L 279.966316 118.155789 
L 256.850526 118.155789 
z
" clip-path="url(#pc288635b00)" style="fill: #fc8d62; stroke: #fc8d62; stroke-linejoin: miter"/>
   </g>
   <g id="patch_48">
    <path d="M 256.850526 113.532632 
L 279.966316 113.532632 
L 279.966316 90.416842 
L 256.850526 90.416842 
z
" clip-path="url(#pc288635b00)" style="fill: #fc8d62; stroke: #fc8d62; stroke-linejoin: miter"/>
   </g>
   <g id="patch_49">
    <path d="M 256.850526 85.793684 
L 279.966316 85.793684 
L 279.966316 62.677895 
L 256.850526 62.677895 
z
" clip-path="url(#pc288635b00)" style="fill: #fc8d62; stroke: #fc8d62; stroke-linejoin: miter"/>
   </g>
   <g id="patch_50">
    <path d="M 256.850526 58.054737 
L 279.966316 58.054737 
L 279.966316 34.938947 
L 256.850526 34.938947 
z
" clip-path="url(#pc288635b00)" style="fill: #fc8d62; stroke: #fc8d62; stroke-linejoin: miter"/>
   </g>
   <g id="patch_51">
    <path d="M 256.850526 30.315789 
L 279.966316 30.315789 
L 279.966316 7.2 
L 256.850526 7.2 
z
" clip-path="url(#pc288635b00)" style="fill: #fc8d62; stroke: #fc8d62; stroke-linejoin: miter"/>
   </g>
   <g id="patch_52">
    <path d="M 284.589474 141.271579 
L 307.705263 141.271579 
L 307.705263 118.155789 
L 284.589474 118.155789 
z
" clip-path="url(#pc288635b00)" style="fill: #fc8d62; stroke: #fc8d62; stroke-linejoin: miter"/>
   </g>
   <g id="patch_53">
    <path d="M 284.589474 113.532632 
L 307.705263 113.532632 
L 307.705263 90.416842 
L 284.589474 90.416842 
z
" clip-path="url(#pc288635b00)" style="fill: #fc8d62; stroke: #fc8d62; stroke-linejoin: miter"/>
   </g>
   <g id="patch_54">
    <path d="M 284.589474 85.793684 
L 307.705263 85.793684 
L 307.705263 62.677895 
L 284.589474 62.677895 
z
" clip-path="url(#pc288635b00)" style="fill: #fc8d62; stroke: #fc8d62; stroke-linejoin: miter"/>
   </g>
   <g id="patch_55">
    <path d="M 284.589474 58.054737 
L 307.705263 58.054737 
L 307.705263 34.938947 
L 284.589474 34.938947 
z
" clip-path="url(#pc288635b00)" style="fill: #fc8d62; stroke: #fc8d62; stroke-linejoin: miter"/>
   </g>
   <g id="patch_56">
    <path d="M 284.589474 30.315789 
L 307.705263 30.315789 
L 307.705263 7.2 
L 284.589474 7.2 
z
" clip-path="url(#pc288635b00)" style="fill: #fc8d62; stroke: #fc8d62; stroke-linejoin: miter"/>
   </g>
   <g id="patch_57">
    <path d="M 312.328421 141.271579 
L 335.444211 141.271579 
L 335.444211 118.155789 
L 312.328421 118.155789 
z
" clip-path="url(#pc288635b00)" style="fill: #fc8d62; stroke: #fc8d62; stroke-linejoin: miter"/>
   </g>
   <g id="patch_58">
    <path d="M 312.328421 113.532632 
L 335.444211 113.532632 
L 335.444211 90.416842 
L 312.328421 90.416842 
z
" clip-path="url(#pc288635b00)" style="fill: #fc8d62; stroke: #fc8d62; stroke-linejoin: miter"/>
   </g>
   <g id="patch_59">
    <path d="M 312.328421 85.793684 
L 335.444211 85.793684 
L 335.444211 62.677895 
L 312.328421 62.677895 
z
" clip-path="url(#pc288635b00)" style="fill: #fc8d62; stroke: #fc8d62; stroke-linejoin: miter"/>
   </g>
   <g id="patch_60">
    <path d="M 312.328421 58.054737 
L 335.444211 58.054737 
L 335.444211 34.938947 
L 312.328421 34.938947 
z
" clip-path="url(#pc288635b00)" style="fill: #fc8d62; stroke: #fc8d62; stroke-linejoin: miter"/>
   </g>
   <g id="patch_61">
    <path d="M 312.328421 30.315789 
L 335.444211 30.315789 
L 335.444211 7.2 
L 312.328421 7.2 
z
" clip-path="url(#pc288635b00)" style="fill: #fc8d62; stroke: #fc8d62; stroke-linejoin: miter"/>
   </g>
   <g id="patch_62">
    <path d="M 340.067368 141.271579 
L 363.183158 141.271579 
L 363.183158 118.155789 
L 340.067368 118.155789 
z
" clip-path="url(#pc288635b00)" style="fill: #fc8d62; stroke: #fc8d62; stroke-linejoin: miter"/>
   </g>
   <g id="patch_63">
    <path d="M 340.067368 113.532632 
L 363.183158 113.532632 
L 363.183158 90.416842 
L 340.067368 90.416842 
z
" clip-path="url(#pc288635b00)" style="fill: #fc8d62; stroke: #fc8d62; stroke-linejoin: miter"/>
   </g>
   <g id="patch_64">
    <path d="M 340.067368 85.793684 
L 363.183158 85.793684 
L 363.183158 62.677895 
L 340.067368 62.677895 
z
" clip-path="url(#pc288635b00)" style="fill: #fc8d62; stroke: #fc8d62; stroke-linejoin: miter"/>
   </g>
   <g id="patch_65">
    <path d="M 340.067368 58.054737 
L 363.183158 58.054737 
L 363.183158 34.938947 
L 340.067368 34.938947 
z
" clip-path="url(#pc288635b00)" style="fill: #fc8d62; stroke: #fc8d62; stroke-linejoin: miter"/>
   </g>
   <g id="patch_66">
    <path d="M 340.067368 30.315789 
L 363.183158 30.315789 
L 363.183158 7.2 
L 340.067368 7.2 
z
" clip-path="url(#pc288635b00)" style="fill: #fc8d62; stroke: #fc8d62; stroke-linejoin: miter"/>
   </g>
   <g id="patch_67">
    <path d="M 367.806316 141.271579 
L 390.922105 141.271579 
L 390.922105 118.155789 
L 367.806316 118.155789 
z
" clip-path="url(#pc288635b00)" style="fill: #fc8d62; stroke: #fc8d62; stroke-linejoin: miter"/>
   </g>
   <g id="patch_68">
    <path d="M 367.806316 113.532632 
L 390.922105 113.532632 
L 390.922105 90.416842 
L 367.806316 90.416842 
z
" clip-path="url(#pc288635b00)" style="fill: #fc8d62; stroke: #fc8d62; stroke-linejoin: miter"/>
   </g>
   <g id="patch_69">
    <path d="M 367.806316 85.793684 
L 390.922105 85.793684 
L 390.922105 62.677895 
L 367.806316 62.677895 
z
" clip-path="url(#pc288635b00)" style="fill: #8da0cb; stroke: #8da0cb; stroke-linejoin: miter"/>
   </g>
   <g id="patch_70">
    <path d="M 367.806316 58.054737 
L 390.922105 58.054737 
L 390.922105 34.938947 
L 367.806316 34.938947 
z
" clip-path="url(#pc288635b00)" style="fill: #8da0cb; stroke: #8da0cb; stroke-linejoin: miter"/>
   </g>
   <g id="patch_71">
    <path d="M 367.806316 30.315789 
L 390.922105 30.315789 
L 390.922105 7.2 
L 367.806316 7.2 
z
" clip-path="url(#pc288635b00)" style="fill: #8da0cb; stroke: #8da0cb; stroke-linejoin: miter"/>
   </g>
   <g id="patch_72">
    <path d="M 395.545263 141.271579 
L 418.661053 141.271579 
L 418.661053 118.155789 
L 395.545263 118.155789 
z
" clip-path="url(#pc288635b00)" style="fill: #8da0cb; stroke: #8da0cb; stroke-linejoin: miter"/>
   </g>
   <g id="patch_73">
    <path d="M 395.545263 113.532632 
L 418.661053 113.532632 
L 418.661053 90.416842 
L 395.545263 90.416842 
z
" clip-path="url(#pc288635b00)" style="fill: #8da0cb; stroke: #8da0cb; stroke-linejoin: miter"/>
   </g>
   <g id="patch_74">
    <path d="M 395.545263 85.793684 
L 418.661053 85.793684 
L 418.661053 62.677895 
L 395.545263 62.677895 
z
" clip-path="url(#pc288635b00)" style="fill: #8da0cb; stroke: #8da0cb; stroke-linejoin: miter"/>
   </g>
   <g id="patch_75">
    <path d="M 395.545263 58.054737 
L 418.661053 58.054737 
L 418.661053 34.938947 
L 395.545263 34.938947 
z
" clip-path="url(#pc288635b00)" style="fill: #8da0cb; stroke: #8da0cb; stroke-linejoin: miter"/>
   </g>
   <g id="patch_76">
    <path d="M 395.545263 30.315789 
L 418.661053 30.315789 
L 418.661053 7.2 
L 395.545263 7.2 
z
" clip-path="url(#pc288635b00)" style="fill: #8da0cb; stroke: #8da0cb; stroke-linejoin: miter"/>
   </g>
   <g id="patch_77">
    <path d="M 423.284211 141.271579 
L 446.4 141.271579 
L 446.4 118.155789 
L 423.284211 118.155789 
z
" clip-path="url(#pc288635b00)" style="fill: #8da0cb; stroke: #8da0cb; stroke-linejoin: miter"/>
   </g>
   <g id="legend_1">
    <g id="patch_78">
     <path d="M 384.00625 59.234375 
L 439.4 59.234375 
Q 441.4 59.234375 441.4 57.234375 
L 441.4 14.2 
Q 441.4 12.2 439.4 12.2 
L 384.00625 12.2 
Q 382.00625 12.2 382.00625 14.2 
L 382.00625 57.234375 
Q 382.00625 59.234375 384.00625 59.234375 
z
" style="fill: #ffffff; opacity: 0.8; stroke: #cccccc; stroke-linejoin: miter"/>
    </g>
    <g id="patch_79">
     <path d="M 386.00625 23.798438 
L 406.00625 23.798438 
L 406.00625 16.798438 
L 386.00625 16.798438 
z
" style="fill: #66c2a5; stroke: #66c2a5; stroke-linejoin: miter"/>
    </g>
    <g id="text_1">
     <!-- Cat1 -->
     <g transform="translate(414.00625 23.798438)scale(0.1 -0.1)">
      <defs>
       <path id="DejaVuSans-43" d="M 4122 4306 
L 4122 3641 
Q 3803 3938 3442 4084 
Q 3081 4231 2675 4231 
Q 1875 4231 1450 3742 
Q 1025 3253 1025 2328 
Q 1025 1406 1450 917 
Q 1875 428 2675 428 
Q 3081 428 3442 575 
Q 3803 722 4122 1019 
L 4122 359 
Q 3791 134 3420 21 
Q 3050 -91 2638 -91 
Q 1578 -91 968 557 
Q 359 1206 359 2328 
Q 359 3453 968 4101 
Q 1578 4750 2638 4750 
Q 3056 4750 3426 4639 
Q 3797 4528 4122 4306 
z
" transform="scale(0.015625)"/>
       <path id="DejaVuSans-61" d="M 2194 1759 
Q 1497 1759 1228 1600 
Q 959 1441 959 1056 
Q 959 750 1161 570 
Q 1363 391 1709 391 
Q 2188 391 2477 730 
Q 2766 1069 2766 1631 
L 2766 1759 
L 2194 1759 
z
M 3341 1997 
L 3341 0 
L 2766 0 
L 2766 531 
Q 2569 213 2275 61 
Q 1981 -91 1556 -91 
Q 1019 -91 701 211 
Q 384 513 384 1019 
Q 384 1609 779 1909 
Q 1175 2209 1959 2209 
L 2766 2209 
L 2766 2266 
Q 2766 2663 2505 2880 
Q 2244 3097 1772 3097 
Q 1472 3097 1187 3025 
Q 903 2953 641 2809 
L 641 3341 
Q 956 3463 1253 3523 
Q 1550 3584 1831 3584 
Q 2591 3584 2966 3190 
Q 3341 2797 3341 1997 
z
" transform="scale(0.015625)"/>
       <path id="DejaVuSans-74" d="M 1172 4494 
L 1172 3500 
L 2356 3500 
L 2356 3053 
L 1172 3053 
L 1172 1153 
Q 1172 725 1289 603 
Q 1406 481 1766 481 
L 2356 481 
L 2356 0 
L 1766 0 
Q 1100 0 847 248 
Q 594 497 594 1153 
L 594 3053 
L 172 3053 
L 172 3500 
L 594 3500 
L 594 4494 
L 1172 4494 
z
" transform="scale(0.015625)"/>
       <path id="DejaVuSans-31" d="M 794 531 
L 1825 531 
L 1825 4091 
L 703 3866 
L 703 4441 
L 1819 4666 
L 2450 4666 
L 2450 531 
L 3481 531 
L 3481 0 
L 794 0 
L 794 531 
z
" transform="scale(0.015625)"/>
      </defs>
      <use xlink:href="#DejaVuSans-43"/>
      <use xlink:href="#DejaVuSans-61" x="69.824219"/>
      <use xlink:href="#DejaVuSans-74" x="131.103516"/>
      <use xlink:href="#DejaVuSans-31" x="170.3125"/>
     </g>
    </g>
    <g id="patch_80">
     <path d="M 386.00625 38.476563 
L 406.00625 38.476563 
L 406.00625 31.476563 
L 386.00625 31.476563 
z
" style="fill: #fc8d62; stroke: #fc8d62; stroke-linejoin: miter"/>
    </g>
    <g id="text_2">
     <!-- Cat2 -->
     <g transform="translate(414.00625 38.476563)scale(0.1 -0.1)">
      <defs>
       <path id="DejaVuSans-32" d="M 1228 531 
L 3431 531 
L 3431 0 
L 469 0 
L 469 531 
Q 828 903 1448 1529 
Q 2069 2156 2228 2338 
Q 2531 2678 2651 2914 
Q 2772 3150 2772 3378 
Q 2772 3750 2511 3984 
Q 2250 4219 1831 4219 
Q 1534 4219 1204 4116 
Q 875 4013 500 3803 
L 500 4441 
Q 881 4594 1212 4672 
Q 1544 4750 1819 4750 
Q 2544 4750 2975 4387 
Q 3406 4025 3406 3419 
Q 3406 3131 3298 2873 
Q 3191 2616 2906 2266 
Q 2828 2175 2409 1742 
Q 1991 1309 1228 531 
z
" transform="scale(0.015625)"/>
      </defs>
      <use xlink:href="#DejaVuSans-43"/>
      <use xlink:href="#DejaVuSans-61" x="69.824219"/>
      <use xlink:href="#DejaVuSans-74" x="131.103516"/>
      <use xlink:href="#DejaVuSans-32" x="170.3125"/>
     </g>
    </g>
    <g id="patch_81">
     <path d="M 386.00625 53.154688 
L 406.00625 53.154688 
L 406.00625 46.154688 
L 386.00625 46.154688 
z
" style="fill: #8da0cb; stroke: #8da0cb; stroke-linejoin: miter"/>
    </g>
    <g id="text_3">
     <!-- Cat3 -->
     <g transform="translate(414.00625 53.154688)scale(0.1 -0.1)">
      <defs>
       <path id="DejaVuSans-33" d="M 2597 2516 
Q 3050 2419 3304 2112 
Q 3559 1806 3559 1356 
Q 3559 666 3084 287 
Q 2609 -91 1734 -91 
Q 1441 -91 1130 -33 
Q 819 25 488 141 
L 488 750 
Q 750 597 1062 519 
Q 1375 441 1716 441 
Q 2309 441 2620 675 
Q 2931 909 2931 1356 
Q 2931 1769 2642 2001 
Q 2353 2234 1838 2234 
L 1294 2234 
L 1294 2753 
L 1863 2753 
Q 2328 2753 2575 2939 
Q 2822 3125 2822 3475 
Q 2822 3834 2567 4026 
Q 2313 4219 1838 4219 
Q 1578 4219 1281 4162 
Q 984 4106 628 3988 
L 628 4550 
Q 988 4650 1302 4700 
Q 1616 4750 1894 4750 
Q 2613 4750 3031 4423 
Q 3450 4097 3450 3541 
Q 3450 3153 3228 2886 
Q 3006 2619 2597 2516 
z
" transform="scale(0.015625)"/>
      </defs>
      <use xlink:href="#DejaVuSans-43"/>
      <use xlink:href="#DejaVuSans-61" x="69.824219"/>
      <use xlink:href="#DejaVuSans-74" x="131.103516"/>
      <use xlink:href="#DejaVuSans-33" x="170.3125"/>
     </g>
    </g>
   </g>
  </g>
 </g>
 <defs>
  <clipPath id="pc288635b00">
   <rect x="7.2" y="7.2" width="439.2" height="134.071579"/>
  </clipPath>
 </defs>
</svg>
