<?xml version="1.0" encoding="utf-8" standalone="no"?>
<!DOCTYPE svg PUBLIC "-//W3C//DTD SVG 1.1//EN"
  "http://www.w3.org/Graphics/SVG/1.1/DTD/svg11.dtd">
<svg height="88.689014pt" version="1.1" viewBox="0 0 448.372112 88.689014" width="448.372112pt" xmlns="http://www.w3.org/2000/svg" xmlns:xlink="http://www.w3.org/1999/xlink">
 <metadata>
  <rdf:RDF xmlns:cc="http://creativecommons.org/ns#" xmlns:dc="http://purl.org/dc/elements/1.1/" xmlns:rdf="http://www.w3.org/1999/02/22-rdf-syntax-ns#">
   <cc:Work>
    <dc:type rdf:resource="http://purl.org/dc/dcmitype/StillImage"/>
    <dc:date>2021-07-27T21:11:02.776983</dc:date>
    <dc:format>image/svg+xml</dc:format>
    <dc:creator>
     <cc:Agent>
      <dc:title>Matplotlib v3.4.2, https://matplotlib.org/</dc:title>
     </cc:Agent>
    </dc:creator>
   </cc:Work>
  </rdf:RDF>
 </metadata>
 <defs>
  <style type="text/css">*{stroke-linecap:butt;stroke-linejoin:round;}</style>
 </defs>
 <g id="figure_1">
  <g id="patch_1">
   <path d="M 0 88.689014 
L 448.372112 88.689014 
L 448.372112 -0 
L 0 -0 
z
" style="fill:#ffffff;"/>
  </g>
  <g id="axes_1">
   <g id="patch_2">
    <path clip-path="url(#pdbcd0dbda7)" d="M 7.2 81.489014 
L 20.008451 81.489014 
L 20.008451 68.680563 
L 7.2 68.680563 
z
" style="fill:#66c2a5;stroke:#66c2a5;stroke-linejoin:miter;"/>
   </g>
   <g id="patch_3">
    <path clip-path="url(#pdbcd0dbda7)" d="M 7.2 66.118873 
L 20.008451 66.118873 
L 20.008451 53.310422 
L 7.2 53.310422 
z
" style="fill:#66c2a5;stroke:#66c2a5;stroke-linejoin:miter;"/>
   </g>
   <g id="patch_4">
    <path clip-path="url(#pdbcd0dbda7)" d="M 7.2 50.748732 
L 20.008451 50.748732 
L 20.008451 37.940282 
L 7.2 37.940282 
z
" style="fill:#66c2a5;stroke:#66c2a5;stroke-linejoin:miter;"/>
   </g>
   <g id="patch_5">
    <path clip-path="url(#pdbcd0dbda7)" d="M 7.2 35.378591 
L 20.008451 35.378591 
L 20.008451 22.570141 
L 7.2 22.570141 
z
" style="fill:#66c2a5;stroke:#66c2a5;stroke-linejoin:miter;"/>
   </g>
   <g id="patch_6">
    <path clip-path="url(#pdbcd0dbda7)" d="M 7.2 20.008451 
L 20.008451 20.008451 
L 20.008451 7.2 
L 7.2 7.2 
z
" style="fill:#66c2a5;stroke:#66c2a5;stroke-linejoin:miter;"/>
   </g>
   <g id="patch_7">
    <path clip-path="url(#pdbcd0dbda7)" d="M 22.570141 81.489014 
L 35.378591 81.489014 
L 35.378591 68.680563 
L 22.570141 68.680563 
z
" style="fill:#66c2a5;stroke:#66c2a5;stroke-linejoin:miter;"/>
   </g>
   <g id="patch_8">
    <path clip-path="url(#pdbcd0dbda7)" d="M 22.570141 66.118873 
L 35.378591 66.118873 
L 35.378591 53.310422 
L 22.570141 53.310422 
z
" style="fill:#66c2a5;stroke:#66c2a5;stroke-linejoin:miter;"/>
   </g>
   <g id="patch_9">
    <path clip-path="url(#pdbcd0dbda7)" d="M 22.570141 50.748732 
L 35.378591 50.748732 
L 35.378591 37.940282 
L 22.570141 37.940282 
z
" style="fill:#66c2a5;stroke:#66c2a5;stroke-linejoin:miter;"/>
   </g>
   <g id="patch_10">
    <path clip-path="url(#pdbcd0dbda7)" d="M 22.570141 35.378591 
L 35.378591 35.378591 
L 35.378591 22.570141 
L 22.570141 22.570141 
z
" style="fill:#66c2a5;stroke:#66c2a5;stroke-linejoin:miter;"/>
   </g>
   <g id="patch_11">
    <path clip-path="url(#pdbcd0dbda7)" d="M 22.570141 20.008451 
L 35.378591 20.008451 
L 35.378591 7.2 
L 22.570141 7.2 
z
" style="fill:#66c2a5;stroke:#66c2a5;stroke-linejoin:miter;"/>
   </g>
   <g id="patch_12">
    <path clip-path="url(#pdbcd0dbda7)" d="M 37.940282 81.489014 
L 50.748732 81.489014 
L 50.748732 68.680563 
L 37.940282 68.680563 
z
" style="fill:#66c2a5;stroke:#66c2a5;stroke-linejoin:miter;"/>
   </g>
   <g id="patch_13">
    <path clip-path="url(#pdbcd0dbda7)" d="M 37.940282 66.118873 
L 50.748732 66.118873 
L 50.748732 53.310422 
L 37.940282 53.310422 
z
" style="fill:#66c2a5;stroke:#66c2a5;stroke-linejoin:miter;"/>
   </g>
   <g id="patch_14">
    <path clip-path="url(#pdbcd0dbda7)" d="M 37.940282 50.748732 
L 50.748732 50.748732 
L 50.748732 37.940282 
L 37.940282 37.940282 
z
" style="fill:#66c2a5;stroke:#66c2a5;stroke-linejoin:miter;"/>
   </g>
   <g id="patch_15">
    <path clip-path="url(#pdbcd0dbda7)" d="M 37.940282 35.378591 
L 50.748732 35.378591 
L 50.748732 22.570141 
L 37.940282 22.570141 
z
" style="fill:#66c2a5;stroke:#66c2a5;stroke-linejoin:miter;"/>
   </g>
   <g id="patch_16">
    <path clip-path="url(#pdbcd0dbda7)" d="M 37.940282 20.008451 
L 50.748732 20.008451 
L 50.748732 7.2 
L 37.940282 7.2 
z
" style="fill:#66c2a5;stroke:#66c2a5;stroke-linejoin:miter;"/>
   </g>
   <g id="patch_17">
    <path clip-path="url(#pdbcd0dbda7)" d="M 53.310422 81.489014 
L 66.118873 81.489014 
L 66.118873 68.680563 
L 53.310422 68.680563 
z
" style="fill:#66c2a5;stroke:#66c2a5;stroke-linejoin:miter;"/>
   </g>
   <g id="patch_18">
    <path clip-path="url(#pdbcd0dbda7)" d="M 53.310422 66.118873 
L 66.118873 66.118873 
L 66.118873 53.310422 
L 53.310422 53.310422 
z
" style="fill:#66c2a5;stroke:#66c2a5;stroke-linejoin:miter;"/>
   </g>
   <g id="patch_19">
    <path clip-path="url(#pdbcd0dbda7)" d="M 53.310422 50.748732 
L 66.118873 50.748732 
L 66.118873 37.940282 
L 53.310422 37.940282 
z
" style="fill:#66c2a5;stroke:#66c2a5;stroke-linejoin:miter;"/>
   </g>
   <g id="patch_20">
    <path clip-path="url(#pdbcd0dbda7)" d="M 53.310422 35.378591 
L 66.118873 35.378591 
L 66.118873 22.570141 
L 53.310422 22.570141 
z
" style="fill:#66c2a5;stroke:#66c2a5;stroke-linejoin:miter;"/>
   </g>
   <g id="patch_21">
    <path clip-path="url(#pdbcd0dbda7)" d="M 53.310422 20.008451 
L 66.118873 20.008451 
L 66.118873 7.2 
L 53.310422 7.2 
z
" style="fill:#66c2a5;stroke:#66c2a5;stroke-linejoin:miter;"/>
   </g>
   <g id="patch_22">
    <path clip-path="url(#pdbcd0dbda7)" d="M 68.680563 81.489014 
L 81.489014 81.489014 
L 81.489014 68.680563 
L 68.680563 68.680563 
z
" style="fill:#66c2a5;stroke:#66c2a5;stroke-linejoin:miter;"/>
   </g>
   <g id="patch_23">
    <path clip-path="url(#pdbcd0dbda7)" d="M 68.680563 66.118873 
L 81.489014 66.118873 
L 81.489014 53.310422 
L 68.680563 53.310422 
z
" style="fill:#66c2a5;stroke:#66c2a5;stroke-linejoin:miter;"/>
   </g>
   <g id="patch_24">
    <path clip-path="url(#pdbcd0dbda7)" d="M 68.680563 50.748732 
L 81.489014 50.748732 
L 81.489014 37.940282 
L 68.680563 37.940282 
z
" style="fill:#66c2a5;stroke:#66c2a5;stroke-linejoin:miter;"/>
   </g>
   <g id="patch_25">
    <path clip-path="url(#pdbcd0dbda7)" d="M 68.680563 35.378591 
L 81.489014 35.378591 
L 81.489014 22.570141 
L 68.680563 22.570141 
z
" style="fill:#66c2a5;stroke:#66c2a5;stroke-linejoin:miter;"/>
   </g>
   <g id="patch_26">
    <path clip-path="url(#pdbcd0dbda7)" d="M 68.680563 20.008451 
L 81.489014 20.008451 
L 81.489014 7.2 
L 68.680563 7.2 
z
" style="fill:#66c2a5;stroke:#66c2a5;stroke-linejoin:miter;"/>
   </g>
   <g id="patch_27">
    <path clip-path="url(#pdbcd0dbda7)" d="M 84.050704 81.489014 
L 96.859154 81.489014 
L 96.859154 68.680563 
L 84.050704 68.680563 
z
" style="fill:#66c2a5;stroke:#66c2a5;stroke-linejoin:miter;"/>
   </g>
   <g id="patch_28">
    <path clip-path="url(#pdbcd0dbda7)" d="M 84.050704 66.118873 
L 96.859154 66.118873 
L 96.859154 53.310422 
L 84.050704 53.310422 
z
" style="fill:#66c2a5;stroke:#66c2a5;stroke-linejoin:miter;"/>
   </g>
   <g id="patch_29">
    <path clip-path="url(#pdbcd0dbda7)" d="M 84.050704 50.748732 
L 96.859154 50.748732 
L 96.859154 37.940282 
L 84.050704 37.940282 
z
" style="fill:#66c2a5;stroke:#66c2a5;stroke-linejoin:miter;"/>
   </g>
   <g id="patch_30">
    <path clip-path="url(#pdbcd0dbda7)" d="M 84.050704 35.378591 
L 96.859154 35.378591 
L 96.859154 22.570141 
L 84.050704 22.570141 
z
" style="fill:#66c2a5;stroke:#66c2a5;stroke-linejoin:miter;"/>
   </g>
   <g id="patch_31">
    <path clip-path="url(#pdbcd0dbda7)" d="M 84.050704 20.008451 
L 96.859154 20.008451 
L 96.859154 7.2 
L 84.050704 7.2 
z
" style="fill:#66c2a5;stroke:#66c2a5;stroke-linejoin:miter;"/>
   </g>
   <g id="patch_32">
    <path clip-path="url(#pdbcd0dbda7)" d="M 99.420845 81.489014 
L 112.229295 81.489014 
L 112.229295 68.680563 
L 99.420845 68.680563 
z
" style="fill:#66c2a5;stroke:#66c2a5;stroke-linejoin:miter;"/>
   </g>
   <g id="patch_33">
    <path clip-path="url(#pdbcd0dbda7)" d="M 99.420845 66.118873 
L 112.229295 66.118873 
L 112.229295 53.310422 
L 99.420845 53.310422 
z
" style="fill:#66c2a5;stroke:#66c2a5;stroke-linejoin:miter;"/>
   </g>
   <g id="patch_34">
    <path clip-path="url(#pdbcd0dbda7)" d="M 99.420845 50.748732 
L 112.229295 50.748732 
L 112.229295 37.940282 
L 99.420845 37.940282 
z
" style="fill:#66c2a5;stroke:#66c2a5;stroke-linejoin:miter;"/>
   </g>
   <g id="patch_35">
    <path clip-path="url(#pdbcd0dbda7)" d="M 99.420845 35.378591 
L 112.229295 35.378591 
L 112.229295 22.570141 
L 99.420845 22.570141 
z
" style="fill:#66c2a5;stroke:#66c2a5;stroke-linejoin:miter;"/>
   </g>
   <g id="patch_36">
    <path clip-path="url(#pdbcd0dbda7)" d="M 99.420845 20.008451 
L 112.229295 20.008451 
L 112.229295 7.2 
L 99.420845 7.2 
z
" style="fill:#66c2a5;stroke:#66c2a5;stroke-linejoin:miter;"/>
   </g>
   <g id="patch_37">
    <path clip-path="url(#pdbcd0dbda7)" d="M 114.790985 81.489014 
L 127.599436 81.489014 
L 127.599436 68.680563 
L 114.790985 68.680563 
z
" style="fill:#66c2a5;stroke:#66c2a5;stroke-linejoin:miter;"/>
   </g>
   <g id="patch_38">
    <path clip-path="url(#pdbcd0dbda7)" d="M 114.790985 66.118873 
L 127.599436 66.118873 
L 127.599436 53.310422 
L 114.790985 53.310422 
z
" style="fill:#66c2a5;stroke:#66c2a5;stroke-linejoin:miter;"/>
   </g>
   <g id="patch_39">
    <path clip-path="url(#pdbcd0dbda7)" d="M 114.790985 50.748732 
L 127.599436 50.748732 
L 127.599436 37.940282 
L 114.790985 37.940282 
z
" style="fill:#66c2a5;stroke:#66c2a5;stroke-linejoin:miter;"/>
   </g>
   <g id="patch_40">
    <path clip-path="url(#pdbcd0dbda7)" d="M 114.790985 35.378591 
L 127.599436 35.378591 
L 127.599436 22.570141 
L 114.790985 22.570141 
z
" style="fill:#66c2a5;stroke:#66c2a5;stroke-linejoin:miter;"/>
   </g>
   <g id="patch_41">
    <path clip-path="url(#pdbcd0dbda7)" d="M 114.790985 20.008451 
L 127.599436 20.008451 
L 127.599436 7.2 
L 114.790985 7.2 
z
" style="fill:#66c2a5;stroke:#66c2a5;stroke-linejoin:miter;"/>
   </g>
   <g id="patch_42">
    <path clip-path="url(#pdbcd0dbda7)" d="M 130.161126 81.489014 
L 142.969577 81.489014 
L 142.969577 68.680563 
L 130.161126 68.680563 
z
" style="fill:#66c2a5;stroke:#66c2a5;stroke-linejoin:miter;"/>
   </g>
   <g id="patch_43">
    <path clip-path="url(#pdbcd0dbda7)" d="M 130.161126 66.118873 
L 142.969577 66.118873 
L 142.969577 53.310422 
L 130.161126 53.310422 
z
" style="fill:#66c2a5;stroke:#66c2a5;stroke-linejoin:miter;"/>
   </g>
   <g id="patch_44">
    <path clip-path="url(#pdbcd0dbda7)" d="M 130.161126 50.748732 
L 142.969577 50.748732 
L 142.969577 37.940282 
L 130.161126 37.940282 
z
" style="fill:#66c2a5;stroke:#66c2a5;stroke-linejoin:miter;"/>
   </g>
   <g id="patch_45">
    <path clip-path="url(#pdbcd0dbda7)" d="M 130.161126 35.378591 
L 142.969577 35.378591 
L 142.969577 22.570141 
L 130.161126 22.570141 
z
" style="fill:#66c2a5;stroke:#66c2a5;stroke-linejoin:miter;"/>
   </g>
   <g id="patch_46">
    <path clip-path="url(#pdbcd0dbda7)" d="M 130.161126 20.008451 
L 142.969577 20.008451 
L 142.969577 7.2 
L 130.161126 7.2 
z
" style="fill:#66c2a5;stroke:#66c2a5;stroke-linejoin:miter;"/>
   </g>
   <g id="patch_47">
    <path clip-path="url(#pdbcd0dbda7)" d="M 145.531267 81.489014 
L 158.339717 81.489014 
L 158.339717 68.680563 
L 145.531267 68.680563 
z
" style="fill:#66c2a5;stroke:#66c2a5;stroke-linejoin:miter;"/>
   </g>
   <g id="patch_48">
    <path clip-path="url(#pdbcd0dbda7)" d="M 145.531267 66.118873 
L 158.339717 66.118873 
L 158.339717 53.310422 
L 145.531267 53.310422 
z
" style="fill:#66c2a5;stroke:#66c2a5;stroke-linejoin:miter;"/>
   </g>
   <g id="patch_49">
    <path clip-path="url(#pdbcd0dbda7)" d="M 145.531267 50.748732 
L 158.339717 50.748732 
L 158.339717 37.940282 
L 145.531267 37.940282 
z
" style="fill:#66c2a5;stroke:#66c2a5;stroke-linejoin:miter;"/>
   </g>
   <g id="patch_50">
    <path clip-path="url(#pdbcd0dbda7)" d="M 145.531267 35.378591 
L 158.339717 35.378591 
L 158.339717 22.570141 
L 145.531267 22.570141 
z
" style="fill:#fc8d62;stroke:#fc8d62;stroke-linejoin:miter;"/>
   </g>
   <g id="patch_51">
    <path clip-path="url(#pdbcd0dbda7)" d="M 145.531267 20.008451 
L 158.339717 20.008451 
L 158.339717 7.2 
L 145.531267 7.2 
z
" style="fill:#fc8d62;stroke:#fc8d62;stroke-linejoin:miter;"/>
   </g>
   <g id="patch_52">
    <path clip-path="url(#pdbcd0dbda7)" d="M 160.901408 81.489014 
L 173.709858 81.489014 
L 173.709858 68.680563 
L 160.901408 68.680563 
z
" style="fill:#fc8d62;stroke:#fc8d62;stroke-linejoin:miter;"/>
   </g>
   <g id="patch_53">
    <path clip-path="url(#pdbcd0dbda7)" d="M 160.901408 66.118873 
L 173.709858 66.118873 
L 173.709858 53.310422 
L 160.901408 53.310422 
z
" style="fill:#fc8d62;stroke:#fc8d62;stroke-linejoin:miter;"/>
   </g>
   <g id="patch_54">
    <path clip-path="url(#pdbcd0dbda7)" d="M 160.901408 50.748732 
L 173.709858 50.748732 
L 173.709858 37.940282 
L 160.901408 37.940282 
z
" style="fill:#fc8d62;stroke:#fc8d62;stroke-linejoin:miter;"/>
   </g>
   <g id="patch_55">
    <path clip-path="url(#pdbcd0dbda7)" d="M 160.901408 35.378591 
L 173.709858 35.378591 
L 173.709858 22.570141 
L 160.901408 22.570141 
z
" style="fill:#fc8d62;stroke:#fc8d62;stroke-linejoin:miter;"/>
   </g>
   <g id="patch_56">
    <path clip-path="url(#pdbcd0dbda7)" d="M 160.901408 20.008451 
L 173.709858 20.008451 
L 173.709858 7.2 
L 160.901408 7.2 
z
" style="fill:#fc8d62;stroke:#fc8d62;stroke-linejoin:miter;"/>
   </g>
   <g id="patch_57">
    <path clip-path="url(#pdbcd0dbda7)" d="M 176.271548 81.489014 
L 189.079999 81.489014 
L 189.079999 68.680563 
L 176.271548 68.680563 
z
" style="fill:#fc8d62;stroke:#fc8d62;stroke-linejoin:miter;"/>
   </g>
   <g id="patch_58">
    <path clip-path="url(#pdbcd0dbda7)" d="M 176.271548 66.118873 
L 189.079999 66.118873 
L 189.079999 53.310422 
L 176.271548 53.310422 
z
" style="fill:#fc8d62;stroke:#fc8d62;stroke-linejoin:miter;"/>
   </g>
   <g id="patch_59">
    <path clip-path="url(#pdbcd0dbda7)" d="M 176.271548 50.748732 
L 189.079999 50.748732 
L 189.079999 37.940282 
L 176.271548 37.940282 
z
" style="fill:#fc8d62;stroke:#fc8d62;stroke-linejoin:miter;"/>
   </g>
   <g id="patch_60">
    <path clip-path="url(#pdbcd0dbda7)" d="M 176.271548 35.378591 
L 189.079999 35.378591 
L 189.079999 22.570141 
L 176.271548 22.570141 
z
" style="fill:#fc8d62;stroke:#fc8d62;stroke-linejoin:miter;"/>
   </g>
   <g id="patch_61">
    <path clip-path="url(#pdbcd0dbda7)" d="M 176.271548 20.008451 
L 189.079999 20.008451 
L 189.079999 7.2 
L 176.271548 7.2 
z
" style="fill:#fc8d62;stroke:#fc8d62;stroke-linejoin:miter;"/>
   </g>
   <g id="patch_62">
    <path clip-path="url(#pdbcd0dbda7)" d="M 191.641689 81.489014 
L 204.45014 81.489014 
L 204.45014 68.680563 
L 191.641689 68.680563 
z
" style="fill:#fc8d62;stroke:#fc8d62;stroke-linejoin:miter;"/>
   </g>
   <g id="patch_63">
    <path clip-path="url(#pdbcd0dbda7)" d="M 191.641689 66.118873 
L 204.45014 66.118873 
L 204.45014 53.310422 
L 191.641689 53.310422 
z
" style="fill:#fc8d62;stroke:#fc8d62;stroke-linejoin:miter;"/>
   </g>
   <g id="patch_64">
    <path clip-path="url(#pdbcd0dbda7)" d="M 191.641689 50.748732 
L 204.45014 50.748732 
L 204.45014 37.940282 
L 191.641689 37.940282 
z
" style="fill:#fc8d62;stroke:#fc8d62;stroke-linejoin:miter;"/>
   </g>
   <g id="patch_65">
    <path clip-path="url(#pdbcd0dbda7)" d="M 191.641689 35.378591 
L 204.45014 35.378591 
L 204.45014 22.570141 
L 191.641689 22.570141 
z
" style="fill:#fc8d62;stroke:#fc8d62;stroke-linejoin:miter;"/>
   </g>
   <g id="patch_66">
    <path clip-path="url(#pdbcd0dbda7)" d="M 191.641689 20.008451 
L 204.45014 20.008451 
L 204.45014 7.2 
L 191.641689 7.2 
z
" style="fill:#fc8d62;stroke:#fc8d62;stroke-linejoin:miter;"/>
   </g>
   <g id="patch_67">
    <path clip-path="url(#pdbcd0dbda7)" d="M 207.01183 81.489014 
L 219.82028 81.489014 
L 219.82028 68.680563 
L 207.01183 68.680563 
z
" style="fill:#fc8d62;stroke:#fc8d62;stroke-linejoin:miter;"/>
   </g>
   <g id="patch_68">
    <path clip-path="url(#pdbcd0dbda7)" d="M 207.01183 66.118873 
L 219.82028 66.118873 
L 219.82028 53.310422 
L 207.01183 53.310422 
z
" style="fill:#fc8d62;stroke:#fc8d62;stroke-linejoin:miter;"/>
   </g>
   <g id="patch_69">
    <path clip-path="url(#pdbcd0dbda7)" d="M 207.01183 50.748732 
L 219.82028 50.748732 
L 219.82028 37.940282 
L 207.01183 37.940282 
z
" style="fill:#fc8d62;stroke:#fc8d62;stroke-linejoin:miter;"/>
   </g>
   <g id="patch_70">
    <path clip-path="url(#pdbcd0dbda7)" d="M 207.01183 35.378591 
L 219.82028 35.378591 
L 219.82028 22.570141 
L 207.01183 22.570141 
z
" style="fill:#fc8d62;stroke:#fc8d62;stroke-linejoin:miter;"/>
   </g>
   <g id="patch_71">
    <path clip-path="url(#pdbcd0dbda7)" d="M 207.01183 20.008451 
L 219.82028 20.008451 
L 219.82028 7.2 
L 207.01183 7.2 
z
" style="fill:#fc8d62;stroke:#fc8d62;stroke-linejoin:miter;"/>
   </g>
   <g id="patch_72">
    <path clip-path="url(#pdbcd0dbda7)" d="M 222.381971 81.489014 
L 235.190421 81.489014 
L 235.190421 68.680563 
L 222.381971 68.680563 
z
" style="fill:#fc8d62;stroke:#fc8d62;stroke-linejoin:miter;"/>
   </g>
   <g id="patch_73">
    <path clip-path="url(#pdbcd0dbda7)" d="M 222.381971 66.118873 
L 235.190421 66.118873 
L 235.190421 53.310422 
L 222.381971 53.310422 
z
" style="fill:#fc8d62;stroke:#fc8d62;stroke-linejoin:miter;"/>
   </g>
   <g id="patch_74">
    <path clip-path="url(#pdbcd0dbda7)" d="M 222.381971 50.748732 
L 235.190421 50.748732 
L 235.190421 37.940282 
L 222.381971 37.940282 
z
" style="fill:#fc8d62;stroke:#fc8d62;stroke-linejoin:miter;"/>
   </g>
   <g id="patch_75">
    <path clip-path="url(#pdbcd0dbda7)" d="M 222.381971 35.378591 
L 235.190421 35.378591 
L 235.190421 22.570141 
L 222.381971 22.570141 
z
" style="fill:#fc8d62;stroke:#fc8d62;stroke-linejoin:miter;"/>
   </g>
   <g id="patch_76">
    <path clip-path="url(#pdbcd0dbda7)" d="M 222.381971 20.008451 
L 235.190421 20.008451 
L 235.190421 7.2 
L 222.381971 7.2 
z
" style="fill:#fc8d62;stroke:#fc8d62;stroke-linejoin:miter;"/>
   </g>
   <g id="patch_77">
    <path clip-path="url(#pdbcd0dbda7)" d="M 237.752111 81.489014 
L 250.560562 81.489014 
L 250.560562 68.680563 
L 237.752111 68.680563 
z
" style="fill:#fc8d62;stroke:#fc8d62;stroke-linejoin:miter;"/>
   </g>
   <g id="patch_78">
    <path clip-path="url(#pdbcd0dbda7)" d="M 237.752111 66.118873 
L 250.560562 66.118873 
L 250.560562 53.310422 
L 237.752111 53.310422 
z
" style="fill:#fc8d62;stroke:#fc8d62;stroke-linejoin:miter;"/>
   </g>
   <g id="patch_79">
    <path clip-path="url(#pdbcd0dbda7)" d="M 237.752111 50.748732 
L 250.560562 50.748732 
L 250.560562 37.940282 
L 237.752111 37.940282 
z
" style="fill:#fc8d62;stroke:#fc8d62;stroke-linejoin:miter;"/>
   </g>
   <g id="patch_80">
    <path clip-path="url(#pdbcd0dbda7)" d="M 237.752111 35.378591 
L 250.560562 35.378591 
L 250.560562 22.570141 
L 237.752111 22.570141 
z
" style="fill:#fc8d62;stroke:#fc8d62;stroke-linejoin:miter;"/>
   </g>
   <g id="patch_81">
    <path clip-path="url(#pdbcd0dbda7)" d="M 237.752111 20.008451 
L 250.560562 20.008451 
L 250.560562 7.2 
L 237.752111 7.2 
z
" style="fill:#fc8d62;stroke:#fc8d62;stroke-linejoin:miter;"/>
   </g>
   <g id="patch_82">
    <path clip-path="url(#pdbcd0dbda7)" d="M 253.122252 81.489014 
L 265.930703 81.489014 
L 265.930703 68.680563 
L 253.122252 68.680563 
z
" style="fill:#fc8d62;stroke:#fc8d62;stroke-linejoin:miter;"/>
   </g>
   <g id="patch_83">
    <path clip-path="url(#pdbcd0dbda7)" d="M 253.122252 66.118873 
L 265.930703 66.118873 
L 265.930703 53.310422 
L 253.122252 53.310422 
z
" style="fill:#fc8d62;stroke:#fc8d62;stroke-linejoin:miter;"/>
   </g>
   <g id="patch_84">
    <path clip-path="url(#pdbcd0dbda7)" d="M 253.122252 50.748732 
L 265.930703 50.748732 
L 265.930703 37.940282 
L 253.122252 37.940282 
z
" style="fill:#fc8d62;stroke:#fc8d62;stroke-linejoin:miter;"/>
   </g>
   <g id="patch_85">
    <path clip-path="url(#pdbcd0dbda7)" d="M 253.122252 35.378591 
L 265.930703 35.378591 
L 265.930703 22.570141 
L 253.122252 22.570141 
z
" style="fill:#fc8d62;stroke:#fc8d62;stroke-linejoin:miter;"/>
   </g>
   <g id="patch_86">
    <path clip-path="url(#pdbcd0dbda7)" d="M 253.122252 20.008451 
L 265.930703 20.008451 
L 265.930703 7.2 
L 253.122252 7.2 
z
" style="fill:#fc8d62;stroke:#fc8d62;stroke-linejoin:miter;"/>
   </g>
   <g id="patch_87">
    <path clip-path="url(#pdbcd0dbda7)" d="M 268.492393 81.489014 
L 281.300843 81.489014 
L 281.300843 68.680563 
L 268.492393 68.680563 
z
" style="fill:#fc8d62;stroke:#fc8d62;stroke-linejoin:miter;"/>
   </g>
   <g id="patch_88">
    <path clip-path="url(#pdbcd0dbda7)" d="M 268.492393 66.118873 
L 281.300843 66.118873 
L 281.300843 53.310422 
L 268.492393 53.310422 
z
" style="fill:#fc8d62;stroke:#fc8d62;stroke-linejoin:miter;"/>
   </g>
   <g id="patch_89">
    <path clip-path="url(#pdbcd0dbda7)" d="M 268.492393 50.748732 
L 281.300843 50.748732 
L 281.300843 37.940282 
L 268.492393 37.940282 
z
" style="fill:#fc8d62;stroke:#fc8d62;stroke-linejoin:miter;"/>
   </g>
   <g id="patch_90">
    <path clip-path="url(#pdbcd0dbda7)" d="M 268.492393 35.378591 
L 281.300843 35.378591 
L 281.300843 22.570141 
L 268.492393 22.570141 
z
" style="fill:#fc8d62;stroke:#fc8d62;stroke-linejoin:miter;"/>
   </g>
   <g id="patch_91">
    <path clip-path="url(#pdbcd0dbda7)" d="M 268.492393 20.008451 
L 281.300843 20.008451 
L 281.300843 7.2 
L 268.492393 7.2 
z
" style="fill:#fc8d62;stroke:#fc8d62;stroke-linejoin:miter;"/>
   </g>
   <g id="patch_92">
    <path clip-path="url(#pdbcd0dbda7)" d="M 283.862534 81.489014 
L 296.670984 81.489014 
L 296.670984 68.680563 
L 283.862534 68.680563 
z
" style="fill:#fc8d62;stroke:#fc8d62;stroke-linejoin:miter;"/>
   </g>
   <g id="patch_93">
    <path clip-path="url(#pdbcd0dbda7)" d="M 283.862534 66.118873 
L 296.670984 66.118873 
L 296.670984 53.310422 
L 283.862534 53.310422 
z
" style="fill:#fc8d62;stroke:#fc8d62;stroke-linejoin:miter;"/>
   </g>
   <g id="patch_94">
    <path clip-path="url(#pdbcd0dbda7)" d="M 283.862534 50.748732 
L 296.670984 50.748732 
L 296.670984 37.940282 
L 283.862534 37.940282 
z
" style="fill:#fc8d62;stroke:#fc8d62;stroke-linejoin:miter;"/>
   </g>
   <g id="patch_95">
    <path clip-path="url(#pdbcd0dbda7)" d="M 283.862534 35.378591 
L 296.670984 35.378591 
L 296.670984 22.570141 
L 283.862534 22.570141 
z
" style="fill:#fc8d62;stroke:#fc8d62;stroke-linejoin:miter;"/>
   </g>
   <g id="patch_96">
    <path clip-path="url(#pdbcd0dbda7)" d="M 283.862534 20.008451 
L 296.670984 20.008451 
L 296.670984 7.2 
L 283.862534 7.2 
z
" style="fill:#8da0cb;stroke:#8da0cb;stroke-linejoin:miter;"/>
   </g>
   <g id="patch_97">
    <path clip-path="url(#pdbcd0dbda7)" d="M 299.232674 81.489014 
L 312.041125 81.489014 
L 312.041125 68.680563 
L 299.232674 68.680563 
z
" style="fill:#8da0cb;stroke:#8da0cb;stroke-linejoin:miter;"/>
   </g>
   <g id="patch_98">
    <path clip-path="url(#pdbcd0dbda7)" d="M 299.232674 66.118873 
L 312.041125 66.118873 
L 312.041125 53.310422 
L 299.232674 53.310422 
z
" style="fill:#8da0cb;stroke:#8da0cb;stroke-linejoin:miter;"/>
   </g>
   <g id="legend_1">
    <g id="patch_99">
     <path d="M 349.525238 59.234375 
L 439.172113 59.234375 
Q 441.172113 59.234375 441.172113 57.234375 
L 441.172113 14.2 
Q 441.172113 12.2 439.172113 12.2 
L 349.525238 12.2 
Q 347.525238 12.2 347.525238 14.2 
L 347.525238 57.234375 
Q 347.525238 59.234375 349.525238 59.234375 
z
" style="fill:#ffffff;opacity:0.8;stroke:#cccccc;stroke-linejoin:miter;"/>
    </g>
    <g id="patch_100">
     <path d="M 351.525238 23.798437 
L 371.525238 23.798437 
L 371.525238 16.798437 
L 351.525238 16.798437 
z
" style="fill:#66c2a5;stroke:#66c2a5;stroke-linejoin:miter;"/>
    </g>
    <g id="text_1">
     <!-- Democratic -->
     <g transform="translate(379.525238 23.798437)scale(0.1 -0.1)">
      <defs>
       <path d="M 1259 4147 
L 1259 519 
L 2022 519 
Q 2988 519 3436 956 
Q 3884 1394 3884 2338 
Q 3884 3275 3436 3711 
Q 2988 4147 2022 4147 
L 1259 4147 
z
M 628 4666 
L 1925 4666 
Q 3281 4666 3915 4102 
Q 4550 3538 4550 2338 
Q 4550 1131 3912 565 
Q 3275 0 1925 0 
L 628 0 
L 628 4666 
z
" id="DejaVuSans-44" transform="scale(0.015625)"/>
       <path d="M 3597 1894 
L 3597 1613 
L 953 1613 
Q 991 1019 1311 708 
Q 1631 397 2203 397 
Q 2534 397 2845 478 
Q 3156 559 3463 722 
L 3463 178 
Q 3153 47 2828 -22 
Q 2503 -91 2169 -91 
Q 1331 -91 842 396 
Q 353 884 353 1716 
Q 353 2575 817 3079 
Q 1281 3584 2069 3584 
Q 2775 3584 3186 3129 
Q 3597 2675 3597 1894 
z
M 3022 2063 
Q 3016 2534 2758 2815 
Q 2500 3097 2075 3097 
Q 1594 3097 1305 2825 
Q 1016 2553 972 2059 
L 3022 2063 
z
" id="DejaVuSans-65" transform="scale(0.015625)"/>
       <path d="M 3328 2828 
Q 3544 3216 3844 3400 
Q 4144 3584 4550 3584 
Q 5097 3584 5394 3201 
Q 5691 2819 5691 2113 
L 5691 0 
L 5113 0 
L 5113 2094 
Q 5113 2597 4934 2840 
Q 4756 3084 4391 3084 
Q 3944 3084 3684 2787 
Q 3425 2491 3425 1978 
L 3425 0 
L 2847 0 
L 2847 2094 
Q 2847 2600 2669 2842 
Q 2491 3084 2119 3084 
Q 1678 3084 1418 2786 
Q 1159 2488 1159 1978 
L 1159 0 
L 581 0 
L 581 3500 
L 1159 3500 
L 1159 2956 
Q 1356 3278 1631 3431 
Q 1906 3584 2284 3584 
Q 2666 3584 2933 3390 
Q 3200 3197 3328 2828 
z
" id="DejaVuSans-6d" transform="scale(0.015625)"/>
       <path d="M 1959 3097 
Q 1497 3097 1228 2736 
Q 959 2375 959 1747 
Q 959 1119 1226 758 
Q 1494 397 1959 397 
Q 2419 397 2687 759 
Q 2956 1122 2956 1747 
Q 2956 2369 2687 2733 
Q 2419 3097 1959 3097 
z
M 1959 3584 
Q 2709 3584 3137 3096 
Q 3566 2609 3566 1747 
Q 3566 888 3137 398 
Q 2709 -91 1959 -91 
Q 1206 -91 779 398 
Q 353 888 353 1747 
Q 353 2609 779 3096 
Q 1206 3584 1959 3584 
z
" id="DejaVuSans-6f" transform="scale(0.015625)"/>
       <path d="M 3122 3366 
L 3122 2828 
Q 2878 2963 2633 3030 
Q 2388 3097 2138 3097 
Q 1578 3097 1268 2742 
Q 959 2388 959 1747 
Q 959 1106 1268 751 
Q 1578 397 2138 397 
Q 2388 397 2633 464 
Q 2878 531 3122 666 
L 3122 134 
Q 2881 22 2623 -34 
Q 2366 -91 2075 -91 
Q 1284 -91 818 406 
Q 353 903 353 1747 
Q 353 2603 823 3093 
Q 1294 3584 2113 3584 
Q 2378 3584 2631 3529 
Q 2884 3475 3122 3366 
z
" id="DejaVuSans-63" transform="scale(0.015625)"/>
       <path d="M 2631 2963 
Q 2534 3019 2420 3045 
Q 2306 3072 2169 3072 
Q 1681 3072 1420 2755 
Q 1159 2438 1159 1844 
L 1159 0 
L 581 0 
L 581 3500 
L 1159 3500 
L 1159 2956 
Q 1341 3275 1631 3429 
Q 1922 3584 2338 3584 
Q 2397 3584 2469 3576 
Q 2541 3569 2628 3553 
L 2631 2963 
z
" id="DejaVuSans-72" transform="scale(0.015625)"/>
       <path d="M 2194 1759 
Q 1497 1759 1228 1600 
Q 959 1441 959 1056 
Q 959 750 1161 570 
Q 1363 391 1709 391 
Q 2188 391 2477 730 
Q 2766 1069 2766 1631 
L 2766 1759 
L 2194 1759 
z
M 3341 1997 
L 3341 0 
L 2766 0 
L 2766 531 
Q 2569 213 2275 61 
Q 1981 -91 1556 -91 
Q 1019 -91 701 211 
Q 384 513 384 1019 
Q 384 1609 779 1909 
Q 1175 2209 1959 2209 
L 2766 2209 
L 2766 2266 
Q 2766 2663 2505 2880 
Q 2244 3097 1772 3097 
Q 1472 3097 1187 3025 
Q 903 2953 641 2809 
L 641 3341 
Q 956 3463 1253 3523 
Q 1550 3584 1831 3584 
Q 2591 3584 2966 3190 
Q 3341 2797 3341 1997 
z
" id="DejaVuSans-61" transform="scale(0.015625)"/>
       <path d="M 1172 4494 
L 1172 3500 
L 2356 3500 
L 2356 3053 
L 1172 3053 
L 1172 1153 
Q 1172 725 1289 603 
Q 1406 481 1766 481 
L 2356 481 
L 2356 0 
L 1766 0 
Q 1100 0 847 248 
Q 594 497 594 1153 
L 594 3053 
L 172 3053 
L 172 3500 
L 594 3500 
L 594 4494 
L 1172 4494 
z
" id="DejaVuSans-74" transform="scale(0.015625)"/>
       <path d="M 603 3500 
L 1178 3500 
L 1178 0 
L 603 0 
L 603 3500 
z
M 603 4863 
L 1178 4863 
L 1178 4134 
L 603 4134 
L 603 4863 
z
" id="DejaVuSans-69" transform="scale(0.015625)"/>
      </defs>
      <use xlink:href="#DejaVuSans-44"/>
      <use x="77.001953" xlink:href="#DejaVuSans-65"/>
      <use x="138.525391" xlink:href="#DejaVuSans-6d"/>
      <use x="235.9375" xlink:href="#DejaVuSans-6f"/>
      <use x="297.119141" xlink:href="#DejaVuSans-63"/>
      <use x="352.099609" xlink:href="#DejaVuSans-72"/>
      <use x="393.212891" xlink:href="#DejaVuSans-61"/>
      <use x="454.492188" xlink:href="#DejaVuSans-74"/>
      <use x="493.701172" xlink:href="#DejaVuSans-69"/>
      <use x="521.484375" xlink:href="#DejaVuSans-63"/>
     </g>
    </g>
    <g id="patch_101">
     <path d="M 351.525238 38.476562 
L 371.525238 38.476562 
L 371.525238 31.476562 
L 351.525238 31.476562 
z
" style="fill:#fc8d62;stroke:#fc8d62;stroke-linejoin:miter;"/>
    </g>
    <g id="text_2">
     <!-- Republican -->
     <g transform="translate(379.525238 38.476562)scale(0.1 -0.1)">
      <defs>
       <path d="M 2841 2188 
Q 3044 2119 3236 1894 
Q 3428 1669 3622 1275 
L 4263 0 
L 3584 0 
L 2988 1197 
Q 2756 1666 2539 1819 
Q 2322 1972 1947 1972 
L 1259 1972 
L 1259 0 
L 628 0 
L 628 4666 
L 2053 4666 
Q 2853 4666 3247 4331 
Q 3641 3997 3641 3322 
Q 3641 2881 3436 2590 
Q 3231 2300 2841 2188 
z
M 1259 4147 
L 1259 2491 
L 2053 2491 
Q 2509 2491 2742 2702 
Q 2975 2913 2975 3322 
Q 2975 3731 2742 3939 
Q 2509 4147 2053 4147 
L 1259 4147 
z
" id="DejaVuSans-52" transform="scale(0.015625)"/>
       <path d="M 1159 525 
L 1159 -1331 
L 581 -1331 
L 581 3500 
L 1159 3500 
L 1159 2969 
Q 1341 3281 1617 3432 
Q 1894 3584 2278 3584 
Q 2916 3584 3314 3078 
Q 3713 2572 3713 1747 
Q 3713 922 3314 415 
Q 2916 -91 2278 -91 
Q 1894 -91 1617 61 
Q 1341 213 1159 525 
z
M 3116 1747 
Q 3116 2381 2855 2742 
Q 2594 3103 2138 3103 
Q 1681 3103 1420 2742 
Q 1159 2381 1159 1747 
Q 1159 1113 1420 752 
Q 1681 391 2138 391 
Q 2594 391 2855 752 
Q 3116 1113 3116 1747 
z
" id="DejaVuSans-70" transform="scale(0.015625)"/>
       <path d="M 544 1381 
L 544 3500 
L 1119 3500 
L 1119 1403 
Q 1119 906 1312 657 
Q 1506 409 1894 409 
Q 2359 409 2629 706 
Q 2900 1003 2900 1516 
L 2900 3500 
L 3475 3500 
L 3475 0 
L 2900 0 
L 2900 538 
Q 2691 219 2414 64 
Q 2138 -91 1772 -91 
Q 1169 -91 856 284 
Q 544 659 544 1381 
z
M 1991 3584 
L 1991 3584 
z
" id="DejaVuSans-75" transform="scale(0.015625)"/>
       <path d="M 3116 1747 
Q 3116 2381 2855 2742 
Q 2594 3103 2138 3103 
Q 1681 3103 1420 2742 
Q 1159 2381 1159 1747 
Q 1159 1113 1420 752 
Q 1681 391 2138 391 
Q 2594 391 2855 752 
Q 3116 1113 3116 1747 
z
M 1159 2969 
Q 1341 3281 1617 3432 
Q 1894 3584 2278 3584 
Q 2916 3584 3314 3078 
Q 3713 2572 3713 1747 
Q 3713 922 3314 415 
Q 2916 -91 2278 -91 
Q 1894 -91 1617 61 
Q 1341 213 1159 525 
L 1159 0 
L 581 0 
L 581 4863 
L 1159 4863 
L 1159 2969 
z
" id="DejaVuSans-62" transform="scale(0.015625)"/>
       <path d="M 603 4863 
L 1178 4863 
L 1178 0 
L 603 0 
L 603 4863 
z
" id="DejaVuSans-6c" transform="scale(0.015625)"/>
       <path d="M 3513 2113 
L 3513 0 
L 2938 0 
L 2938 2094 
Q 2938 2591 2744 2837 
Q 2550 3084 2163 3084 
Q 1697 3084 1428 2787 
Q 1159 2491 1159 1978 
L 1159 0 
L 581 0 
L 581 3500 
L 1159 3500 
L 1159 2956 
Q 1366 3272 1645 3428 
Q 1925 3584 2291 3584 
Q 2894 3584 3203 3211 
Q 3513 2838 3513 2113 
z
" id="DejaVuSans-6e" transform="scale(0.015625)"/>
      </defs>
      <use xlink:href="#DejaVuSans-52"/>
      <use x="64.982422" xlink:href="#DejaVuSans-65"/>
      <use x="126.505859" xlink:href="#DejaVuSans-70"/>
      <use x="189.982422" xlink:href="#DejaVuSans-75"/>
      <use x="253.361328" xlink:href="#DejaVuSans-62"/>
      <use x="316.837891" xlink:href="#DejaVuSans-6c"/>
      <use x="344.621094" xlink:href="#DejaVuSans-69"/>
      <use x="372.404297" xlink:href="#DejaVuSans-63"/>
      <use x="427.384766" xlink:href="#DejaVuSans-61"/>
      <use x="488.664062" xlink:href="#DejaVuSans-6e"/>
     </g>
    </g>
    <g id="patch_102">
     <path d="M 351.525238 53.154687 
L 371.525238 53.154687 
L 371.525238 46.154687 
L 351.525238 46.154687 
z
" style="fill:#8da0cb;stroke:#8da0cb;stroke-linejoin:miter;"/>
    </g>
    <g id="text_3">
     <!-- Libertarian -->
     <g transform="translate(379.525238 53.154687)scale(0.1 -0.1)">
      <defs>
       <path d="M 628 4666 
L 1259 4666 
L 1259 531 
L 3531 531 
L 3531 0 
L 628 0 
L 628 4666 
z
" id="DejaVuSans-4c" transform="scale(0.015625)"/>
      </defs>
      <use xlink:href="#DejaVuSans-4c"/>
      <use x="55.712891" xlink:href="#DejaVuSans-69"/>
      <use x="83.496094" xlink:href="#DejaVuSans-62"/>
      <use x="146.972656" xlink:href="#DejaVuSans-65"/>
      <use x="208.496094" xlink:href="#DejaVuSans-72"/>
      <use x="249.609375" xlink:href="#DejaVuSans-74"/>
      <use x="288.818359" xlink:href="#DejaVuSans-61"/>
      <use x="350.097656" xlink:href="#DejaVuSans-72"/>
      <use x="391.210938" xlink:href="#DejaVuSans-69"/>
      <use x="418.994141" xlink:href="#DejaVuSans-61"/>
      <use x="480.273438" xlink:href="#DejaVuSans-6e"/>
     </g>
    </g>
   </g>
  </g>
 </g>
 <defs>
  <clipPath id="pdbcd0dbda7">
   <rect height="74.289014" width="304.841125" x="7.2" y="7.2"/>
  </clipPath>
 </defs>
</svg>
