<?xml version="1.0" encoding="utf-8" standalone="no"?>
<!DOCTYPE svg PUBLIC "-//W3C//DTD SVG 1.1//EN"
  "http://www.w3.org/Graphics/SVG/1.1/DTD/svg11.dtd">
<svg xmlns:xlink="http://www.w3.org/1999/xlink" width="405.434483pt" height="338.4pt" viewBox="0 0 405.434483 338.4" xmlns="http://www.w3.org/2000/svg" version="1.1">
 <metadata>
  <rdf:RDF xmlns:dc="http://purl.org/dc/elements/1.1/" xmlns:cc="http://creativecommons.org/ns#" xmlns:rdf="http://www.w3.org/1999/02/22-rdf-syntax-ns#">
   <cc:Work>
    <dc:type rdf:resource="http://purl.org/dc/dcmitype/StillImage"/>
    <dc:date>2022-06-05T10:10:32.814547</dc:date>
    <dc:format>image/svg+xml</dc:format>
    <dc:creator>
     <cc:Agent>
      <dc:title>Matplotlib v3.5.2, https://matplotlib.org/</dc:title>
     </cc:Agent>
    </dc:creator>
   </cc:Work>
  </rdf:RDF>
 </metadata>
 <defs>
  <style type="text/css">*{stroke-linejoin: round; stroke-linecap: butt}</style>
 </defs>
 <g id="figure_1">
  <g id="patch_1">
   <path d="M 0 338.4 
L 405.434483 338.4 
L 405.434483 0 
L 0 0 
z
" style="fill: #ffffff"/>
  </g>
  <g id="axes_1">
   <g id="patch_2">
    <path d="M 7.2 331.2 
L 63.062069 331.2 
L 63.062069 275.337931 
L 7.2 275.337931 
z
" clip-path="url(#p29ff667758)" style="fill: #66c2a5; stroke: #66c2a5; stroke-linejoin: miter"/>
   </g>
   <g id="patch_3">
    <path d="M 7.2 264.165517 
L 63.062069 264.165517 
L 63.062069 208.303448 
L 7.2 208.303448 
z
" clip-path="url(#p29ff667758)" style="fill: #66c2a5; stroke: #66c2a5; stroke-linejoin: miter"/>
   </g>
   <g id="patch_4">
    <path d="M 7.2 197.131034 
L 63.062069 197.131034 
L 63.062069 141.268966 
L 7.2 141.268966 
z
" clip-path="url(#p29ff667758)" style="fill: #66c2a5; stroke: #66c2a5; stroke-linejoin: miter"/>
   </g>
   <g id="patch_5">
    <path d="M 7.2 130.096552 
L 63.062069 130.096552 
L 63.062069 74.234483 
L 7.2 74.234483 
z
" clip-path="url(#p29ff667758)" style="fill: #66c2a5; stroke: #66c2a5; stroke-linejoin: miter"/>
   </g>
   <g id="patch_6">
    <path d="M 7.2 63.062069 
L 63.062069 63.062069 
L 63.062069 7.2 
L 7.2 7.2 
z
" clip-path="url(#p29ff667758)" style="fill: #66c2a5; stroke: #66c2a5; stroke-linejoin: miter"/>
   </g>
   <g id="patch_7">
    <path d="M 74.234483 331.2 
L 130.096552 331.2 
L 130.096552 275.337931 
L 74.234483 275.337931 
z
" clip-path="url(#p29ff667758)" style="fill: #66c2a5; stroke: #66c2a5; stroke-linejoin: miter"/>
   </g>
   <g id="patch_8">
    <path d="M 74.234483 264.165517 
L 130.096552 264.165517 
L 130.096552 208.303448 
L 74.234483 208.303448 
z
" clip-path="url(#p29ff667758)" style="fill: #66c2a5; stroke: #66c2a5; stroke-linejoin: miter"/>
   </g>
   <g id="patch_9">
    <path d="M 74.234483 197.131034 
L 130.096552 197.131034 
L 130.096552 141.268966 
L 74.234483 141.268966 
z
" clip-path="url(#p29ff667758)" style="fill: #66c2a5; stroke: #66c2a5; stroke-linejoin: miter"/>
   </g>
   <g id="patch_10">
    <path d="M 74.234483 130.096552 
L 130.096552 130.096552 
L 130.096552 74.234483 
L 74.234483 74.234483 
z
" clip-path="url(#p29ff667758)" style="fill: #66c2a5; stroke: #66c2a5; stroke-linejoin: miter"/>
   </g>
   <g id="patch_11">
    <path d="M 74.234483 63.062069 
L 130.096552 63.062069 
L 130.096552 7.2 
L 74.234483 7.2 
z
" clip-path="url(#p29ff667758)" style="fill: #66c2a5; stroke: #66c2a5; stroke-linejoin: miter"/>
   </g>
   <g id="patch_12">
    <path d="M 141.268966 331.2 
L 197.131034 331.2 
L 197.131034 275.337931 
L 141.268966 275.337931 
z
" clip-path="url(#p29ff667758)" style="fill: #fc8d62; stroke: #fc8d62; stroke-linejoin: miter"/>
   </g>
   <g id="patch_13">
    <path d="M 141.268966 264.165517 
L 197.131034 264.165517 
L 197.131034 208.303448 
L 141.268966 208.303448 
z
" clip-path="url(#p29ff667758)" style="fill: #fc8d62; stroke: #fc8d62; stroke-linejoin: miter"/>
   </g>
   <g id="patch_14">
    <path d="M 141.268966 197.131034 
L 197.131034 197.131034 
L 197.131034 141.268966 
L 141.268966 141.268966 
z
" clip-path="url(#p29ff667758)" style="fill: #fc8d62; stroke: #fc8d62; stroke-linejoin: miter"/>
   </g>
   <g id="patch_15">
    <path d="M 141.268966 130.096552 
L 197.131034 130.096552 
L 197.131034 74.234483 
L 141.268966 74.234483 
z
" clip-path="url(#p29ff667758)" style="fill: #fc8d62; stroke: #fc8d62; stroke-linejoin: miter"/>
   </g>
   <g id="patch_16">
    <path d="M 141.268966 63.062069 
L 197.131034 63.062069 
L 197.131034 7.2 
L 141.268966 7.2 
z
" clip-path="url(#p29ff667758)" style="fill: #fc8d62; stroke: #fc8d62; stroke-linejoin: miter"/>
   </g>
   <g id="patch_17">
    <path d="M 208.303448 331.2 
L 264.165517 331.2 
L 264.165517 275.337931 
L 208.303448 275.337931 
z
" clip-path="url(#p29ff667758)" style="fill: #fc8d62; stroke: #fc8d62; stroke-linejoin: miter"/>
   </g>
   <g id="patch_18">
    <path d="M 208.303448 264.165517 
L 264.165517 264.165517 
L 264.165517 208.303448 
L 208.303448 208.303448 
z
" clip-path="url(#p29ff667758)" style="fill: #fc8d62; stroke: #fc8d62; stroke-linejoin: miter"/>
   </g>
   <g id="patch_19">
    <path d="M 208.303448 197.131034 
L 264.165517 197.131034 
L 264.165517 141.268966 
L 208.303448 141.268966 
z
" clip-path="url(#p29ff667758)" style="fill: #8da0cb; stroke: #8da0cb; stroke-linejoin: miter"/>
   </g>
   <g id="patch_20">
    <path d="M 208.303448 130.096552 
L 264.165517 130.096552 
L 264.165517 74.234483 
L 208.303448 74.234483 
z
" clip-path="url(#p29ff667758)" style="fill: #8da0cb; stroke: #8da0cb; stroke-linejoin: miter"/>
   </g>
   <g id="patch_21">
    <path d="M 208.303448 63.062069 
L 264.165517 63.062069 
L 264.165517 7.2 
L 208.303448 7.2 
z
" clip-path="url(#p29ff667758)" style="fill: #8da0cb; stroke: #8da0cb; stroke-linejoin: miter"/>
   </g>
   <g id="patch_22">
    <path d="M 275.337931 331.2 
L 331.2 331.2 
L 331.2 275.337931 
L 275.337931 275.337931 
z
" clip-path="url(#p29ff667758)" style="fill: #8da0cb; stroke: #8da0cb; stroke-linejoin: miter"/>
   </g>
   <g id="patch_23">
    <path d="M 275.337931 264.165517 
L 331.2 264.165517 
L 331.2 208.303448 
L 275.337931 208.303448 
z
" clip-path="url(#p29ff667758)" style="fill: #8da0cb; stroke: #8da0cb; stroke-linejoin: miter"/>
   </g>
   <g id="patch_24">
    <path d="M 275.337931 197.131034 
L 331.2 197.131034 
L 331.2 141.268966 
L 275.337931 141.268966 
z
" clip-path="url(#p29ff667758)" style="fill: #8da0cb; stroke: #8da0cb; stroke-linejoin: miter"/>
   </g>
   <g id="patch_25">
    <path d="M 275.337931 130.096552 
L 331.2 130.096552 
L 331.2 74.234483 
L 275.337931 74.234483 
z
" clip-path="url(#p29ff667758)" style="fill: #8da0cb; stroke: #8da0cb; stroke-linejoin: miter"/>
   </g>
   <g id="patch_26">
    <path d="M 275.337931 63.062069 
L 331.2 63.062069 
L 331.2 7.2 
L 275.337931 7.2 
z
" clip-path="url(#p29ff667758)" style="fill: #8da0cb; stroke: #8da0cb; stroke-linejoin: miter"/>
   </g>
   <g id="patch_27">
    <path d="M 342.372414 331.2 
L 398.234483 331.2 
L 398.234483 275.337931 
L 342.372414 275.337931 
z
" clip-path="url(#p29ff667758)" style="fill: #8da0cb; stroke: #8da0cb; stroke-linejoin: miter"/>
   </g>
   <g id="legend_1">
    <g id="patch_28">
     <path d="M 335.840733 59.234375 
L 391.234483 59.234375 
Q 393.234483 59.234375 393.234483 57.234375 
L 393.234483 14.2 
Q 393.234483 12.2 391.234483 12.2 
L 335.840733 12.2 
Q 333.840733 12.2 333.840733 14.2 
L 333.840733 57.234375 
Q 333.840733 59.234375 335.840733 59.234375 
z
" style="fill: #ffffff; opacity: 0.8; stroke: #cccccc; stroke-linejoin: miter"/>
    </g>
    <g id="patch_29">
     <path d="M 337.840733 23.798438 
L 357.840733 23.798438 
L 357.840733 16.798438 
L 337.840733 16.798438 
z
" style="fill: #66c2a5; stroke: #66c2a5; stroke-linejoin: miter"/>
    </g>
    <g id="text_1">
     <!-- Cat1 -->
     <g transform="translate(365.840733 23.798438)scale(0.1 -0.1)">
      <defs>
       <path id="DejaVuSans-43" d="M 4122 4306 
L 4122 3641 
Q 3803 3938 3442 4084 
Q 3081 4231 2675 4231 
Q 1875 4231 1450 3742 
Q 1025 3253 1025 2328 
Q 1025 1406 1450 917 
Q 1875 428 2675 428 
Q 3081 428 3442 575 
Q 3803 722 4122 1019 
L 4122 359 
Q 3791 134 3420 21 
Q 3050 -91 2638 -91 
Q 1578 -91 968 557 
Q 359 1206 359 2328 
Q 359 3453 968 4101 
Q 1578 4750 2638 4750 
Q 3056 4750 3426 4639 
Q 3797 4528 4122 4306 
z
" transform="scale(0.015625)"/>
       <path id="DejaVuSans-61" d="M 2194 1759 
Q 1497 1759 1228 1600 
Q 959 1441 959 1056 
Q 959 750 1161 570 
Q 1363 391 1709 391 
Q 2188 391 2477 730 
Q 2766 1069 2766 1631 
L 2766 1759 
L 2194 1759 
z
M 3341 1997 
L 3341 0 
L 2766 0 
L 2766 531 
Q 2569 213 2275 61 
Q 1981 -91 1556 -91 
Q 1019 -91 701 211 
Q 384 513 384 1019 
Q 384 1609 779 1909 
Q 1175 2209 1959 2209 
L 2766 2209 
L 2766 2266 
Q 2766 2663 2505 2880 
Q 2244 3097 1772 3097 
Q 1472 3097 1187 3025 
Q 903 2953 641 2809 
L 641 3341 
Q 956 3463 1253 3523 
Q 1550 3584 1831 3584 
Q 2591 3584 2966 3190 
Q 3341 2797 3341 1997 
z
" transform="scale(0.015625)"/>
       <path id="DejaVuSans-74" d="M 1172 4494 
L 1172 3500 
L 2356 3500 
L 2356 3053 
L 1172 3053 
L 1172 1153 
Q 1172 725 1289 603 
Q 1406 481 1766 481 
L 2356 481 
L 2356 0 
L 1766 0 
Q 1100 0 847 248 
Q 594 497 594 1153 
L 594 3053 
L 172 3053 
L 172 3500 
L 594 3500 
L 594 4494 
L 1172 4494 
z
" transform="scale(0.015625)"/>
       <path id="DejaVuSans-31" d="M 794 531 
L 1825 531 
L 1825 4091 
L 703 3866 
L 703 4441 
L 1819 4666 
L 2450 4666 
L 2450 531 
L 3481 531 
L 3481 0 
L 794 0 
L 794 531 
z
" transform="scale(0.015625)"/>
      </defs>
      <use xlink:href="#DejaVuSans-43"/>
      <use xlink:href="#DejaVuSans-61" x="69.824219"/>
      <use xlink:href="#DejaVuSans-74" x="131.103516"/>
      <use xlink:href="#DejaVuSans-31" x="170.3125"/>
     </g>
    </g>
    <g id="patch_30">
     <path d="M 337.840733 38.476563 
L 357.840733 38.476563 
L 357.840733 31.476563 
L 337.840733 31.476563 
z
" style="fill: #fc8d62; stroke: #fc8d62; stroke-linejoin: miter"/>
    </g>
    <g id="text_2">
     <!-- Cat2 -->
     <g transform="translate(365.840733 38.476563)scale(0.1 -0.1)">
      <defs>
       <path id="DejaVuSans-32" d="M 1228 531 
L 3431 531 
L 3431 0 
L 469 0 
L 469 531 
Q 828 903 1448 1529 
Q 2069 2156 2228 2338 
Q 2531 2678 2651 2914 
Q 2772 3150 2772 3378 
Q 2772 3750 2511 3984 
Q 2250 4219 1831 4219 
Q 1534 4219 1204 4116 
Q 875 4013 500 3803 
L 500 4441 
Q 881 4594 1212 4672 
Q 1544 4750 1819 4750 
Q 2544 4750 2975 4387 
Q 3406 4025 3406 3419 
Q 3406 3131 3298 2873 
Q 3191 2616 2906 2266 
Q 2828 2175 2409 1742 
Q 1991 1309 1228 531 
z
" transform="scale(0.015625)"/>
      </defs>
      <use xlink:href="#DejaVuSans-43"/>
      <use xlink:href="#DejaVuSans-61" x="69.824219"/>
      <use xlink:href="#DejaVuSans-74" x="131.103516"/>
      <use xlink:href="#DejaVuSans-32" x="170.3125"/>
     </g>
    </g>
    <g id="patch_31">
     <path d="M 337.840733 53.154688 
L 357.840733 53.154688 
L 357.840733 46.154688 
L 337.840733 46.154688 
z
" style="fill: #8da0cb; stroke: #8da0cb; stroke-linejoin: miter"/>
    </g>
    <g id="text_3">
     <!-- Cat3 -->
     <g transform="translate(365.840733 53.154688)scale(0.1 -0.1)">
      <defs>
       <path id="DejaVuSans-33" d="M 2597 2516 
Q 3050 2419 3304 2112 
Q 3559 1806 3559 1356 
Q 3559 666 3084 287 
Q 2609 -91 1734 -91 
Q 1441 -91 1130 -33 
Q 819 25 488 141 
L 488 750 
Q 750 597 1062 519 
Q 1375 441 1716 441 
Q 2309 441 2620 675 
Q 2931 909 2931 1356 
Q 2931 1769 2642 2001 
Q 2353 2234 1838 2234 
L 1294 2234 
L 1294 2753 
L 1863 2753 
Q 2328 2753 2575 2939 
Q 2822 3125 2822 3475 
Q 2822 3834 2567 4026 
Q 2313 4219 1838 4219 
Q 1578 4219 1281 4162 
Q 984 4106 628 3988 
L 628 4550 
Q 988 4650 1302 4700 
Q 1616 4750 1894 4750 
Q 2613 4750 3031 4423 
Q 3450 4097 3450 3541 
Q 3450 3153 3228 2886 
Q 3006 2619 2597 2516 
z
" transform="scale(0.015625)"/>
      </defs>
      <use xlink:href="#DejaVuSans-43"/>
      <use xlink:href="#DejaVuSans-61" x="69.824219"/>
      <use xlink:href="#DejaVuSans-74" x="131.103516"/>
      <use xlink:href="#DejaVuSans-33" x="170.3125"/>
     </g>
    </g>
   </g>
  </g>
 </g>
 <defs>
  <clipPath id="p29ff667758">
   <rect x="7.2" y="7.2" width="391.034483" height="324"/>
  </clipPath>
 </defs>
</svg>
