<?xml version="1.0" encoding="utf-8" standalone="no"?>
<!DOCTYPE svg PUBLIC "-//W3C//DTD SVG 1.1//EN"
  "http://www.w3.org/Graphics/SVG/1.1/DTD/svg11.dtd">
<!-- Created with matplotlib (https://matplotlib.org/) -->
<svg height="88.689014pt" version="1.1" viewBox="0 0 448.372112 88.689014" width="448.372112pt" xmlns="http://www.w3.org/2000/svg" xmlns:xlink="http://www.w3.org/1999/xlink">
 <defs>
  <style type="text/css">
*{stroke-linecap:butt;stroke-linejoin:round;}
  </style>
 </defs>
 <g id="figure_1">
  <g id="patch_1">
   <path d="M 0 88.689014 
L 448.372112 88.689014 
L 448.372112 -0 
L 0 -0 
z
" style="fill:#ffffff;"/>
  </g>
  <g id="axes_1">
   <g id="patch_2">
    <path clip-path="url(#p3b9f1bfbac)" d="M 7.2 81.489014 
L 20.008451 81.489014 
L 20.008451 68.680563 
L 7.2 68.680563 
z
" style="fill:#66c2a5;stroke:#66c2a5;stroke-linejoin:miter;"/>
   </g>
   <g id="patch_3">
    <path clip-path="url(#p3b9f1bfbac)" d="M 7.2 66.118873 
L 20.008451 66.118873 
L 20.008451 53.310422 
L 7.2 53.310422 
z
" style="fill:#66c2a5;stroke:#66c2a5;stroke-linejoin:miter;"/>
   </g>
   <g id="patch_4">
    <path clip-path="url(#p3b9f1bfbac)" d="M 7.2 50.748732 
L 20.008451 50.748732 
L 20.008451 37.940282 
L 7.2 37.940282 
z
" style="fill:#66c2a5;stroke:#66c2a5;stroke-linejoin:miter;"/>
   </g>
   <g id="patch_5">
    <path clip-path="url(#p3b9f1bfbac)" d="M 7.2 35.378591 
L 20.008451 35.378591 
L 20.008451 22.570141 
L 7.2 22.570141 
z
" style="fill:#66c2a5;stroke:#66c2a5;stroke-linejoin:miter;"/>
   </g>
   <g id="patch_6">
    <path clip-path="url(#p3b9f1bfbac)" d="M 7.2 20.008451 
L 20.008451 20.008451 
L 20.008451 7.2 
L 7.2 7.2 
z
" style="fill:#66c2a5;stroke:#66c2a5;stroke-linejoin:miter;"/>
   </g>
   <g id="patch_7">
    <path clip-path="url(#p3b9f1bfbac)" d="M 22.570141 81.489014 
L 35.378591 81.489014 
L 35.378591 68.680563 
L 22.570141 68.680563 
z
" style="fill:#66c2a5;stroke:#66c2a5;stroke-linejoin:miter;"/>
   </g>
   <g id="patch_8">
    <path clip-path="url(#p3b9f1bfbac)" d="M 22.570141 66.118873 
L 35.378591 66.118873 
L 35.378591 53.310422 
L 22.570141 53.310422 
z
" style="fill:#66c2a5;stroke:#66c2a5;stroke-linejoin:miter;"/>
   </g>
   <g id="patch_9">
    <path clip-path="url(#p3b9f1bfbac)" d="M 22.570141 50.748732 
L 35.378591 50.748732 
L 35.378591 37.940282 
L 22.570141 37.940282 
z
" style="fill:#66c2a5;stroke:#66c2a5;stroke-linejoin:miter;"/>
   </g>
   <g id="patch_10">
    <path clip-path="url(#p3b9f1bfbac)" d="M 22.570141 35.378591 
L 35.378591 35.378591 
L 35.378591 22.570141 
L 22.570141 22.570141 
z
" style="fill:#66c2a5;stroke:#66c2a5;stroke-linejoin:miter;"/>
   </g>
   <g id="patch_11">
    <path clip-path="url(#p3b9f1bfbac)" d="M 22.570141 20.008451 
L 35.378591 20.008451 
L 35.378591 7.2 
L 22.570141 7.2 
z
" style="fill:#66c2a5;stroke:#66c2a5;stroke-linejoin:miter;"/>
   </g>
   <g id="patch_12">
    <path clip-path="url(#p3b9f1bfbac)" d="M 37.940282 81.489014 
L 50.748732 81.489014 
L 50.748732 68.680563 
L 37.940282 68.680563 
z
" style="fill:#66c2a5;stroke:#66c2a5;stroke-linejoin:miter;"/>
   </g>
   <g id="patch_13">
    <path clip-path="url(#p3b9f1bfbac)" d="M 37.940282 66.118873 
L 50.748732 66.118873 
L 50.748732 53.310422 
L 37.940282 53.310422 
z
" style="fill:#66c2a5;stroke:#66c2a5;stroke-linejoin:miter;"/>
   </g>
   <g id="patch_14">
    <path clip-path="url(#p3b9f1bfbac)" d="M 37.940282 50.748732 
L 50.748732 50.748732 
L 50.748732 37.940282 
L 37.940282 37.940282 
z
" style="fill:#66c2a5;stroke:#66c2a5;stroke-linejoin:miter;"/>
   </g>
   <g id="patch_15">
    <path clip-path="url(#p3b9f1bfbac)" d="M 37.940282 35.378591 
L 50.748732 35.378591 
L 50.748732 22.570141 
L 37.940282 22.570141 
z
" style="fill:#66c2a5;stroke:#66c2a5;stroke-linejoin:miter;"/>
   </g>
   <g id="patch_16">
    <path clip-path="url(#p3b9f1bfbac)" d="M 37.940282 20.008451 
L 50.748732 20.008451 
L 50.748732 7.2 
L 37.940282 7.2 
z
" style="fill:#66c2a5;stroke:#66c2a5;stroke-linejoin:miter;"/>
   </g>
   <g id="patch_17">
    <path clip-path="url(#p3b9f1bfbac)" d="M 53.310422 81.489014 
L 66.118873 81.489014 
L 66.118873 68.680563 
L 53.310422 68.680563 
z
" style="fill:#66c2a5;stroke:#66c2a5;stroke-linejoin:miter;"/>
   </g>
   <g id="patch_18">
    <path clip-path="url(#p3b9f1bfbac)" d="M 53.310422 66.118873 
L 66.118873 66.118873 
L 66.118873 53.310422 
L 53.310422 53.310422 
z
" style="fill:#66c2a5;stroke:#66c2a5;stroke-linejoin:miter;"/>
   </g>
   <g id="patch_19">
    <path clip-path="url(#p3b9f1bfbac)" d="M 53.310422 50.748732 
L 66.118873 50.748732 
L 66.118873 37.940282 
L 53.310422 37.940282 
z
" style="fill:#66c2a5;stroke:#66c2a5;stroke-linejoin:miter;"/>
   </g>
   <g id="patch_20">
    <path clip-path="url(#p3b9f1bfbac)" d="M 53.310422 35.378591 
L 66.118873 35.378591 
L 66.118873 22.570141 
L 53.310422 22.570141 
z
" style="fill:#66c2a5;stroke:#66c2a5;stroke-linejoin:miter;"/>
   </g>
   <g id="patch_21">
    <path clip-path="url(#p3b9f1bfbac)" d="M 53.310422 20.008451 
L 66.118873 20.008451 
L 66.118873 7.2 
L 53.310422 7.2 
z
" style="fill:#66c2a5;stroke:#66c2a5;stroke-linejoin:miter;"/>
   </g>
   <g id="patch_22">
    <path clip-path="url(#p3b9f1bfbac)" d="M 68.680563 81.489014 
L 81.489014 81.489014 
L 81.489014 68.680563 
L 68.680563 68.680563 
z
" style="fill:#66c2a5;stroke:#66c2a5;stroke-linejoin:miter;"/>
   </g>
   <g id="patch_23">
    <path clip-path="url(#p3b9f1bfbac)" d="M 68.680563 66.118873 
L 81.489014 66.118873 
L 81.489014 53.310422 
L 68.680563 53.310422 
z
" style="fill:#66c2a5;stroke:#66c2a5;stroke-linejoin:miter;"/>
   </g>
   <g id="patch_24">
    <path clip-path="url(#p3b9f1bfbac)" d="M 68.680563 50.748732 
L 81.489014 50.748732 
L 81.489014 37.940282 
L 68.680563 37.940282 
z
" style="fill:#66c2a5;stroke:#66c2a5;stroke-linejoin:miter;"/>
   </g>
   <g id="patch_25">
    <path clip-path="url(#p3b9f1bfbac)" d="M 68.680563 35.378591 
L 81.489014 35.378591 
L 81.489014 22.570141 
L 68.680563 22.570141 
z
" style="fill:#66c2a5;stroke:#66c2a5;stroke-linejoin:miter;"/>
   </g>
   <g id="patch_26">
    <path clip-path="url(#p3b9f1bfbac)" d="M 68.680563 20.008451 
L 81.489014 20.008451 
L 81.489014 7.2 
L 68.680563 7.2 
z
" style="fill:#66c2a5;stroke:#66c2a5;stroke-linejoin:miter;"/>
   </g>
   <g id="patch_27">
    <path clip-path="url(#p3b9f1bfbac)" d="M 84.050704 81.489014 
L 96.859154 81.489014 
L 96.859154 68.680563 
L 84.050704 68.680563 
z
" style="fill:#66c2a5;stroke:#66c2a5;stroke-linejoin:miter;"/>
   </g>
   <g id="patch_28">
    <path clip-path="url(#p3b9f1bfbac)" d="M 84.050704 66.118873 
L 96.859154 66.118873 
L 96.859154 53.310422 
L 84.050704 53.310422 
z
" style="fill:#66c2a5;stroke:#66c2a5;stroke-linejoin:miter;"/>
   </g>
   <g id="patch_29">
    <path clip-path="url(#p3b9f1bfbac)" d="M 84.050704 50.748732 
L 96.859154 50.748732 
L 96.859154 37.940282 
L 84.050704 37.940282 
z
" style="fill:#66c2a5;stroke:#66c2a5;stroke-linejoin:miter;"/>
   </g>
   <g id="patch_30">
    <path clip-path="url(#p3b9f1bfbac)" d="M 84.050704 35.378591 
L 96.859154 35.378591 
L 96.859154 22.570141 
L 84.050704 22.570141 
z
" style="fill:#66c2a5;stroke:#66c2a5;stroke-linejoin:miter;"/>
   </g>
   <g id="patch_31">
    <path clip-path="url(#p3b9f1bfbac)" d="M 84.050704 20.008451 
L 96.859154 20.008451 
L 96.859154 7.2 
L 84.050704 7.2 
z
" style="fill:#66c2a5;stroke:#66c2a5;stroke-linejoin:miter;"/>
   </g>
   <g id="patch_32">
    <path clip-path="url(#p3b9f1bfbac)" d="M 99.420845 81.489014 
L 112.229295 81.489014 
L 112.229295 68.680563 
L 99.420845 68.680563 
z
" style="fill:#66c2a5;stroke:#66c2a5;stroke-linejoin:miter;"/>
   </g>
   <g id="patch_33">
    <path clip-path="url(#p3b9f1bfbac)" d="M 99.420845 66.118873 
L 112.229295 66.118873 
L 112.229295 53.310422 
L 99.420845 53.310422 
z
" style="fill:#66c2a5;stroke:#66c2a5;stroke-linejoin:miter;"/>
   </g>
   <g id="patch_34">
    <path clip-path="url(#p3b9f1bfbac)" d="M 99.420845 50.748732 
L 112.229295 50.748732 
L 112.229295 37.940282 
L 99.420845 37.940282 
z
" style="fill:#66c2a5;stroke:#66c2a5;stroke-linejoin:miter;"/>
   </g>
   <g id="patch_35">
    <path clip-path="url(#p3b9f1bfbac)" d="M 99.420845 35.378591 
L 112.229295 35.378591 
L 112.229295 22.570141 
L 99.420845 22.570141 
z
" style="fill:#66c2a5;stroke:#66c2a5;stroke-linejoin:miter;"/>
   </g>
   <g id="patch_36">
    <path clip-path="url(#p3b9f1bfbac)" d="M 99.420845 20.008451 
L 112.229295 20.008451 
L 112.229295 7.2 
L 99.420845 7.2 
z
" style="fill:#66c2a5;stroke:#66c2a5;stroke-linejoin:miter;"/>
   </g>
   <g id="patch_37">
    <path clip-path="url(#p3b9f1bfbac)" d="M 114.790985 81.489014 
L 127.599436 81.489014 
L 127.599436 68.680563 
L 114.790985 68.680563 
z
" style="fill:#66c2a5;stroke:#66c2a5;stroke-linejoin:miter;"/>
   </g>
   <g id="patch_38">
    <path clip-path="url(#p3b9f1bfbac)" d="M 114.790985 66.118873 
L 127.599436 66.118873 
L 127.599436 53.310422 
L 114.790985 53.310422 
z
" style="fill:#66c2a5;stroke:#66c2a5;stroke-linejoin:miter;"/>
   </g>
   <g id="patch_39">
    <path clip-path="url(#p3b9f1bfbac)" d="M 114.790985 50.748732 
L 127.599436 50.748732 
L 127.599436 37.940282 
L 114.790985 37.940282 
z
" style="fill:#66c2a5;stroke:#66c2a5;stroke-linejoin:miter;"/>
   </g>
   <g id="patch_40">
    <path clip-path="url(#p3b9f1bfbac)" d="M 114.790985 35.378591 
L 127.599436 35.378591 
L 127.599436 22.570141 
L 114.790985 22.570141 
z
" style="fill:#66c2a5;stroke:#66c2a5;stroke-linejoin:miter;"/>
   </g>
   <g id="patch_41">
    <path clip-path="url(#p3b9f1bfbac)" d="M 114.790985 20.008451 
L 127.599436 20.008451 
L 127.599436 7.2 
L 114.790985 7.2 
z
" style="fill:#66c2a5;stroke:#66c2a5;stroke-linejoin:miter;"/>
   </g>
   <g id="patch_42">
    <path clip-path="url(#p3b9f1bfbac)" d="M 130.161126 81.489014 
L 142.969577 81.489014 
L 142.969577 68.680563 
L 130.161126 68.680563 
z
" style="fill:#66c2a5;stroke:#66c2a5;stroke-linejoin:miter;"/>
   </g>
   <g id="patch_43">
    <path clip-path="url(#p3b9f1bfbac)" d="M 130.161126 66.118873 
L 142.969577 66.118873 
L 142.969577 53.310422 
L 130.161126 53.310422 
z
" style="fill:#66c2a5;stroke:#66c2a5;stroke-linejoin:miter;"/>
   </g>
   <g id="patch_44">
    <path clip-path="url(#p3b9f1bfbac)" d="M 130.161126 50.748732 
L 142.969577 50.748732 
L 142.969577 37.940282 
L 130.161126 37.940282 
z
" style="fill:#66c2a5;stroke:#66c2a5;stroke-linejoin:miter;"/>
   </g>
   <g id="patch_45">
    <path clip-path="url(#p3b9f1bfbac)" d="M 130.161126 35.378591 
L 142.969577 35.378591 
L 142.969577 22.570141 
L 130.161126 22.570141 
z
" style="fill:#66c2a5;stroke:#66c2a5;stroke-linejoin:miter;"/>
   </g>
   <g id="patch_46">
    <path clip-path="url(#p3b9f1bfbac)" d="M 130.161126 20.008451 
L 142.969577 20.008451 
L 142.969577 7.2 
L 130.161126 7.2 
z
" style="fill:#66c2a5;stroke:#66c2a5;stroke-linejoin:miter;"/>
   </g>
   <g id="patch_47">
    <path clip-path="url(#p3b9f1bfbac)" d="M 145.531267 81.489014 
L 158.339717 81.489014 
L 158.339717 68.680563 
L 145.531267 68.680563 
z
" style="fill:#66c2a5;stroke:#66c2a5;stroke-linejoin:miter;"/>
   </g>
   <g id="patch_48">
    <path clip-path="url(#p3b9f1bfbac)" d="M 145.531267 66.118873 
L 158.339717 66.118873 
L 158.339717 53.310422 
L 145.531267 53.310422 
z
" style="fill:#66c2a5;stroke:#66c2a5;stroke-linejoin:miter;"/>
   </g>
   <g id="patch_49">
    <path clip-path="url(#p3b9f1bfbac)" d="M 145.531267 50.748732 
L 158.339717 50.748732 
L 158.339717 37.940282 
L 145.531267 37.940282 
z
" style="fill:#66c2a5;stroke:#66c2a5;stroke-linejoin:miter;"/>
   </g>
   <g id="patch_50">
    <path clip-path="url(#p3b9f1bfbac)" d="M 145.531267 35.378591 
L 158.339717 35.378591 
L 158.339717 22.570141 
L 145.531267 22.570141 
z
" style="fill:#fc8d62;stroke:#fc8d62;stroke-linejoin:miter;"/>
   </g>
   <g id="patch_51">
    <path clip-path="url(#p3b9f1bfbac)" d="M 145.531267 20.008451 
L 158.339717 20.008451 
L 158.339717 7.2 
L 145.531267 7.2 
z
" style="fill:#fc8d62;stroke:#fc8d62;stroke-linejoin:miter;"/>
   </g>
   <g id="patch_52">
    <path clip-path="url(#p3b9f1bfbac)" d="M 160.901408 81.489014 
L 173.709858 81.489014 
L 173.709858 68.680563 
L 160.901408 68.680563 
z
" style="fill:#fc8d62;stroke:#fc8d62;stroke-linejoin:miter;"/>
   </g>
   <g id="patch_53">
    <path clip-path="url(#p3b9f1bfbac)" d="M 160.901408 66.118873 
L 173.709858 66.118873 
L 173.709858 53.310422 
L 160.901408 53.310422 
z
" style="fill:#fc8d62;stroke:#fc8d62;stroke-linejoin:miter;"/>
   </g>
   <g id="patch_54">
    <path clip-path="url(#p3b9f1bfbac)" d="M 160.901408 50.748732 
L 173.709858 50.748732 
L 173.709858 37.940282 
L 160.901408 37.940282 
z
" style="fill:#fc8d62;stroke:#fc8d62;stroke-linejoin:miter;"/>
   </g>
   <g id="patch_55">
    <path clip-path="url(#p3b9f1bfbac)" d="M 160.901408 35.378591 
L 173.709858 35.378591 
L 173.709858 22.570141 
L 160.901408 22.570141 
z
" style="fill:#fc8d62;stroke:#fc8d62;stroke-linejoin:miter;"/>
   </g>
   <g id="patch_56">
    <path clip-path="url(#p3b9f1bfbac)" d="M 160.901408 20.008451 
L 173.709858 20.008451 
L 173.709858 7.2 
L 160.901408 7.2 
z
" style="fill:#fc8d62;stroke:#fc8d62;stroke-linejoin:miter;"/>
   </g>
   <g id="patch_57">
    <path clip-path="url(#p3b9f1bfbac)" d="M 176.271548 81.489014 
L 189.079999 81.489014 
L 189.079999 68.680563 
L 176.271548 68.680563 
z
" style="fill:#fc8d62;stroke:#fc8d62;stroke-linejoin:miter;"/>
   </g>
   <g id="patch_58">
    <path clip-path="url(#p3b9f1bfbac)" d="M 176.271548 66.118873 
L 189.079999 66.118873 
L 189.079999 53.310422 
L 176.271548 53.310422 
z
" style="fill:#fc8d62;stroke:#fc8d62;stroke-linejoin:miter;"/>
   </g>
   <g id="patch_59">
    <path clip-path="url(#p3b9f1bfbac)" d="M 176.271548 50.748732 
L 189.079999 50.748732 
L 189.079999 37.940282 
L 176.271548 37.940282 
z
" style="fill:#fc8d62;stroke:#fc8d62;stroke-linejoin:miter;"/>
   </g>
   <g id="patch_60">
    <path clip-path="url(#p3b9f1bfbac)" d="M 176.271548 35.378591 
L 189.079999 35.378591 
L 189.079999 22.570141 
L 176.271548 22.570141 
z
" style="fill:#fc8d62;stroke:#fc8d62;stroke-linejoin:miter;"/>
   </g>
   <g id="patch_61">
    <path clip-path="url(#p3b9f1bfbac)" d="M 176.271548 20.008451 
L 189.079999 20.008451 
L 189.079999 7.2 
L 176.271548 7.2 
z
" style="fill:#fc8d62;stroke:#fc8d62;stroke-linejoin:miter;"/>
   </g>
   <g id="patch_62">
    <path clip-path="url(#p3b9f1bfbac)" d="M 191.641689 81.489014 
L 204.45014 81.489014 
L 204.45014 68.680563 
L 191.641689 68.680563 
z
" style="fill:#fc8d62;stroke:#fc8d62;stroke-linejoin:miter;"/>
   </g>
   <g id="patch_63">
    <path clip-path="url(#p3b9f1bfbac)" d="M 191.641689 66.118873 
L 204.45014 66.118873 
L 204.45014 53.310422 
L 191.641689 53.310422 
z
" style="fill:#fc8d62;stroke:#fc8d62;stroke-linejoin:miter;"/>
   </g>
   <g id="patch_64">
    <path clip-path="url(#p3b9f1bfbac)" d="M 191.641689 50.748732 
L 204.45014 50.748732 
L 204.45014 37.940282 
L 191.641689 37.940282 
z
" style="fill:#fc8d62;stroke:#fc8d62;stroke-linejoin:miter;"/>
   </g>
   <g id="patch_65">
    <path clip-path="url(#p3b9f1bfbac)" d="M 191.641689 35.378591 
L 204.45014 35.378591 
L 204.45014 22.570141 
L 191.641689 22.570141 
z
" style="fill:#fc8d62;stroke:#fc8d62;stroke-linejoin:miter;"/>
   </g>
   <g id="patch_66">
    <path clip-path="url(#p3b9f1bfbac)" d="M 191.641689 20.008451 
L 204.45014 20.008451 
L 204.45014 7.2 
L 191.641689 7.2 
z
" style="fill:#fc8d62;stroke:#fc8d62;stroke-linejoin:miter;"/>
   </g>
   <g id="patch_67">
    <path clip-path="url(#p3b9f1bfbac)" d="M 207.01183 81.489014 
L 219.82028 81.489014 
L 219.82028 68.680563 
L 207.01183 68.680563 
z
" style="fill:#fc8d62;stroke:#fc8d62;stroke-linejoin:miter;"/>
   </g>
   <g id="patch_68">
    <path clip-path="url(#p3b9f1bfbac)" d="M 207.01183 66.118873 
L 219.82028 66.118873 
L 219.82028 53.310422 
L 207.01183 53.310422 
z
" style="fill:#fc8d62;stroke:#fc8d62;stroke-linejoin:miter;"/>
   </g>
   <g id="patch_69">
    <path clip-path="url(#p3b9f1bfbac)" d="M 207.01183 50.748732 
L 219.82028 50.748732 
L 219.82028 37.940282 
L 207.01183 37.940282 
z
" style="fill:#fc8d62;stroke:#fc8d62;stroke-linejoin:miter;"/>
   </g>
   <g id="patch_70">
    <path clip-path="url(#p3b9f1bfbac)" d="M 207.01183 35.378591 
L 219.82028 35.378591 
L 219.82028 22.570141 
L 207.01183 22.570141 
z
" style="fill:#fc8d62;stroke:#fc8d62;stroke-linejoin:miter;"/>
   </g>
   <g id="patch_71">
    <path clip-path="url(#p3b9f1bfbac)" d="M 207.01183 20.008451 
L 219.82028 20.008451 
L 219.82028 7.2 
L 207.01183 7.2 
z
" style="fill:#fc8d62;stroke:#fc8d62;stroke-linejoin:miter;"/>
   </g>
   <g id="patch_72">
    <path clip-path="url(#p3b9f1bfbac)" d="M 222.381971 81.489014 
L 235.190421 81.489014 
L 235.190421 68.680563 
L 222.381971 68.680563 
z
" style="fill:#fc8d62;stroke:#fc8d62;stroke-linejoin:miter;"/>
   </g>
   <g id="patch_73">
    <path clip-path="url(#p3b9f1bfbac)" d="M 222.381971 66.118873 
L 235.190421 66.118873 
L 235.190421 53.310422 
L 222.381971 53.310422 
z
" style="fill:#fc8d62;stroke:#fc8d62;stroke-linejoin:miter;"/>
   </g>
   <g id="patch_74">
    <path clip-path="url(#p3b9f1bfbac)" d="M 222.381971 50.748732 
L 235.190421 50.748732 
L 235.190421 37.940282 
L 222.381971 37.940282 
z
" style="fill:#fc8d62;stroke:#fc8d62;stroke-linejoin:miter;"/>
   </g>
   <g id="patch_75">
    <path clip-path="url(#p3b9f1bfbac)" d="M 222.381971 35.378591 
L 235.190421 35.378591 
L 235.190421 22.570141 
L 222.381971 22.570141 
z
" style="fill:#fc8d62;stroke:#fc8d62;stroke-linejoin:miter;"/>
   </g>
   <g id="patch_76">
    <path clip-path="url(#p3b9f1bfbac)" d="M 222.381971 20.008451 
L 235.190421 20.008451 
L 235.190421 7.2 
L 222.381971 7.2 
z
" style="fill:#fc8d62;stroke:#fc8d62;stroke-linejoin:miter;"/>
   </g>
   <g id="patch_77">
    <path clip-path="url(#p3b9f1bfbac)" d="M 237.752111 81.489014 
L 250.560562 81.489014 
L 250.560562 68.680563 
L 237.752111 68.680563 
z
" style="fill:#fc8d62;stroke:#fc8d62;stroke-linejoin:miter;"/>
   </g>
   <g id="patch_78">
    <path clip-path="url(#p3b9f1bfbac)" d="M 237.752111 66.118873 
L 250.560562 66.118873 
L 250.560562 53.310422 
L 237.752111 53.310422 
z
" style="fill:#fc8d62;stroke:#fc8d62;stroke-linejoin:miter;"/>
   </g>
   <g id="patch_79">
    <path clip-path="url(#p3b9f1bfbac)" d="M 237.752111 50.748732 
L 250.560562 50.748732 
L 250.560562 37.940282 
L 237.752111 37.940282 
z
" style="fill:#fc8d62;stroke:#fc8d62;stroke-linejoin:miter;"/>
   </g>
   <g id="patch_80">
    <path clip-path="url(#p3b9f1bfbac)" d="M 237.752111 35.378591 
L 250.560562 35.378591 
L 250.560562 22.570141 
L 237.752111 22.570141 
z
" style="fill:#fc8d62;stroke:#fc8d62;stroke-linejoin:miter;"/>
   </g>
   <g id="patch_81">
    <path clip-path="url(#p3b9f1bfbac)" d="M 237.752111 20.008451 
L 250.560562 20.008451 
L 250.560562 7.2 
L 237.752111 7.2 
z
" style="fill:#fc8d62;stroke:#fc8d62;stroke-linejoin:miter;"/>
   </g>
   <g id="patch_82">
    <path clip-path="url(#p3b9f1bfbac)" d="M 253.122252 81.489014 
L 265.930703 81.489014 
L 265.930703 68.680563 
L 253.122252 68.680563 
z
" style="fill:#fc8d62;stroke:#fc8d62;stroke-linejoin:miter;"/>
   </g>
   <g id="patch_83">
    <path clip-path="url(#p3b9f1bfbac)" d="M 253.122252 66.118873 
L 265.930703 66.118873 
L 265.930703 53.310422 
L 253.122252 53.310422 
z
" style="fill:#fc8d62;stroke:#fc8d62;stroke-linejoin:miter;"/>
   </g>
   <g id="patch_84">
    <path clip-path="url(#p3b9f1bfbac)" d="M 253.122252 50.748732 
L 265.930703 50.748732 
L 265.930703 37.940282 
L 253.122252 37.940282 
z
" style="fill:#fc8d62;stroke:#fc8d62;stroke-linejoin:miter;"/>
   </g>
   <g id="patch_85">
    <path clip-path="url(#p3b9f1bfbac)" d="M 253.122252 35.378591 
L 265.930703 35.378591 
L 265.930703 22.570141 
L 253.122252 22.570141 
z
" style="fill:#fc8d62;stroke:#fc8d62;stroke-linejoin:miter;"/>
   </g>
   <g id="patch_86">
    <path clip-path="url(#p3b9f1bfbac)" d="M 253.122252 20.008451 
L 265.930703 20.008451 
L 265.930703 7.2 
L 253.122252 7.2 
z
" style="fill:#fc8d62;stroke:#fc8d62;stroke-linejoin:miter;"/>
   </g>
   <g id="patch_87">
    <path clip-path="url(#p3b9f1bfbac)" d="M 268.492393 81.489014 
L 281.300843 81.489014 
L 281.300843 68.680563 
L 268.492393 68.680563 
z
" style="fill:#fc8d62;stroke:#fc8d62;stroke-linejoin:miter;"/>
   </g>
   <g id="patch_88">
    <path clip-path="url(#p3b9f1bfbac)" d="M 268.492393 66.118873 
L 281.300843 66.118873 
L 281.300843 53.310422 
L 268.492393 53.310422 
z
" style="fill:#fc8d62;stroke:#fc8d62;stroke-linejoin:miter;"/>
   </g>
   <g id="patch_89">
    <path clip-path="url(#p3b9f1bfbac)" d="M 268.492393 50.748732 
L 281.300843 50.748732 
L 281.300843 37.940282 
L 268.492393 37.940282 
z
" style="fill:#fc8d62;stroke:#fc8d62;stroke-linejoin:miter;"/>
   </g>
   <g id="patch_90">
    <path clip-path="url(#p3b9f1bfbac)" d="M 268.492393 35.378591 
L 281.300843 35.378591 
L 281.300843 22.570141 
L 268.492393 22.570141 
z
" style="fill:#fc8d62;stroke:#fc8d62;stroke-linejoin:miter;"/>
   </g>
   <g id="patch_91">
    <path clip-path="url(#p3b9f1bfbac)" d="M 268.492393 20.008451 
L 281.300843 20.008451 
L 281.300843 7.2 
L 268.492393 7.2 
z
" style="fill:#fc8d62;stroke:#fc8d62;stroke-linejoin:miter;"/>
   </g>
   <g id="patch_92">
    <path clip-path="url(#p3b9f1bfbac)" d="M 283.862534 81.489014 
L 296.670984 81.489014 
L 296.670984 68.680563 
L 283.862534 68.680563 
z
" style="fill:#fc8d62;stroke:#fc8d62;stroke-linejoin:miter;"/>
   </g>
   <g id="patch_93">
    <path clip-path="url(#p3b9f1bfbac)" d="M 283.862534 66.118873 
L 296.670984 66.118873 
L 296.670984 53.310422 
L 283.862534 53.310422 
z
" style="fill:#fc8d62;stroke:#fc8d62;stroke-linejoin:miter;"/>
   </g>
   <g id="patch_94">
    <path clip-path="url(#p3b9f1bfbac)" d="M 283.862534 50.748732 
L 296.670984 50.748732 
L 296.670984 37.940282 
L 283.862534 37.940282 
z
" style="fill:#fc8d62;stroke:#fc8d62;stroke-linejoin:miter;"/>
   </g>
   <g id="patch_95">
    <path clip-path="url(#p3b9f1bfbac)" d="M 283.862534 35.378591 
L 296.670984 35.378591 
L 296.670984 22.570141 
L 283.862534 22.570141 
z
" style="fill:#fc8d62;stroke:#fc8d62;stroke-linejoin:miter;"/>
   </g>
   <g id="patch_96">
    <path clip-path="url(#p3b9f1bfbac)" d="M 283.862534 20.008451 
L 296.670984 20.008451 
L 296.670984 7.2 
L 283.862534 7.2 
z
" style="fill:#8da0cb;stroke:#8da0cb;stroke-linejoin:miter;"/>
   </g>
   <g id="patch_97">
    <path clip-path="url(#p3b9f1bfbac)" d="M 299.232674 81.489014 
L 312.041125 81.489014 
L 312.041125 68.680563 
L 299.232674 68.680563 
z
" style="fill:#8da0cb;stroke:#8da0cb;stroke-linejoin:miter;"/>
   </g>
   <g id="patch_98">
    <path clip-path="url(#p3b9f1bfbac)" d="M 299.232674 66.118873 
L 312.041125 66.118873 
L 312.041125 53.310422 
L 299.232674 53.310422 
z
" style="fill:#8da0cb;stroke:#8da0cb;stroke-linejoin:miter;"/>
   </g>
   <g id="legend_1">
    <g id="patch_99">
     <path d="M 349.525238 59.234375 
L 439.172113 59.234375 
Q 441.172113 59.234375 441.172113 57.234375 
L 441.172113 14.2 
Q 441.172113 12.2 439.172113 12.2 
L 349.525238 12.2 
Q 347.525238 12.2 347.525238 14.2 
L 347.525238 57.234375 
Q 347.525238 59.234375 349.525238 59.234375 
z
" style="fill:#ffffff;opacity:0.8;stroke:#cccccc;stroke-linejoin:miter;"/>
    </g>
    <g id="patch_100">
     <path d="M 351.525238 23.798437 
L 371.525238 23.798437 
L 371.525238 16.798437 
L 351.525238 16.798437 
z
" style="fill:#66c2a5;stroke:#66c2a5;stroke-linejoin:miter;"/>
    </g>
    <g id="text_1">
     <!-- Democratic -->
     <defs>
      <path d="M 19.671875 64.796875 
L 19.671875 8.109375 
L 31.59375 8.109375 
Q 46.6875 8.109375 53.6875 14.9375 
Q 60.6875 21.78125 60.6875 36.53125 
Q 60.6875 51.171875 53.6875 57.984375 
Q 46.6875 64.796875 31.59375 64.796875 
z
M 9.8125 72.90625 
L 30.078125 72.90625 
Q 51.265625 72.90625 61.171875 64.09375 
Q 71.09375 55.28125 71.09375 36.53125 
Q 71.09375 17.671875 61.125 8.828125 
Q 51.171875 0 30.078125 0 
L 9.8125 0 
z
" id="DejaVuSans-68"/>
      <path d="M 56.203125 29.59375 
L 56.203125 25.203125 
L 14.890625 25.203125 
Q 15.484375 15.921875 20.484375 11.0625 
Q 25.484375 6.203125 34.421875 6.203125 
Q 39.59375 6.203125 44.453125 7.46875 
Q 49.3125 8.734375 54.109375 11.28125 
L 54.109375 2.78125 
Q 49.265625 0.734375 44.1875 -0.34375 
Q 39.109375 -1.421875 33.890625 -1.421875 
Q 20.796875 -1.421875 13.15625 6.1875 
Q 5.515625 13.8125 5.515625 26.8125 
Q 5.515625 40.234375 12.765625 48.109375 
Q 20.015625 56 32.328125 56 
Q 43.359375 56 49.78125 48.890625 
Q 56.203125 41.796875 56.203125 29.59375 
z
M 47.21875 32.234375 
Q 47.125 39.59375 43.09375 43.984375 
Q 39.0625 48.390625 32.421875 48.390625 
Q 24.90625 48.390625 20.390625 44.140625 
Q 15.875 39.890625 15.1875 32.171875 
z
" id="DejaVuSans-101"/>
      <path d="M 52 44.1875 
Q 55.375 50.25 60.0625 53.125 
Q 64.75 56 71.09375 56 
Q 79.640625 56 84.28125 50.015625 
Q 88.921875 44.046875 88.921875 33.015625 
L 88.921875 0 
L 79.890625 0 
L 79.890625 32.71875 
Q 79.890625 40.578125 77.09375 44.375 
Q 74.3125 48.1875 68.609375 48.1875 
Q 61.625 48.1875 57.5625 43.546875 
Q 53.515625 38.921875 53.515625 30.90625 
L 53.515625 0 
L 44.484375 0 
L 44.484375 32.71875 
Q 44.484375 40.625 41.703125 44.40625 
Q 38.921875 48.1875 33.109375 48.1875 
Q 26.21875 48.1875 22.15625 43.53125 
Q 18.109375 38.875 18.109375 30.90625 
L 18.109375 0 
L 9.078125 0 
L 9.078125 54.6875 
L 18.109375 54.6875 
L 18.109375 46.1875 
Q 21.1875 51.21875 25.484375 53.609375 
Q 29.78125 56 35.6875 56 
Q 41.65625 56 45.828125 52.96875 
Q 50 49.953125 52 44.1875 
z
" id="DejaVuSans-109"/>
      <path d="M 30.609375 48.390625 
Q 23.390625 48.390625 19.1875 42.75 
Q 14.984375 37.109375 14.984375 27.296875 
Q 14.984375 17.484375 19.15625 11.84375 
Q 23.34375 6.203125 30.609375 6.203125 
Q 37.796875 6.203125 41.984375 11.859375 
Q 46.1875 17.53125 46.1875 27.296875 
Q 46.1875 37.015625 41.984375 42.703125 
Q 37.796875 48.390625 30.609375 48.390625 
z
M 30.609375 56 
Q 42.328125 56 49.015625 48.375 
Q 55.71875 40.765625 55.71875 27.296875 
Q 55.71875 13.875 49.015625 6.21875 
Q 42.328125 -1.421875 30.609375 -1.421875 
Q 18.84375 -1.421875 12.171875 6.21875 
Q 5.515625 13.875 5.515625 27.296875 
Q 5.515625 40.765625 12.171875 48.375 
Q 18.84375 56 30.609375 56 
z
" id="DejaVuSans-111"/>
      <path d="M 48.78125 52.59375 
L 48.78125 44.1875 
Q 44.96875 46.296875 41.140625 47.34375 
Q 37.3125 48.390625 33.40625 48.390625 
Q 24.65625 48.390625 19.8125 42.84375 
Q 14.984375 37.3125 14.984375 27.296875 
Q 14.984375 17.28125 19.8125 11.734375 
Q 24.65625 6.203125 33.40625 6.203125 
Q 37.3125 6.203125 41.140625 7.25 
Q 44.96875 8.296875 48.78125 10.40625 
L 48.78125 2.09375 
Q 45.015625 0.34375 40.984375 -0.53125 
Q 36.96875 -1.421875 32.421875 -1.421875 
Q 20.0625 -1.421875 12.78125 6.34375 
Q 5.515625 14.109375 5.515625 27.296875 
Q 5.515625 40.671875 12.859375 48.328125 
Q 20.21875 56 33.015625 56 
Q 37.15625 56 41.109375 55.140625 
Q 45.0625 54.296875 48.78125 52.59375 
z
" id="DejaVuSans-99"/>
      <path d="M 41.109375 46.296875 
Q 39.59375 47.171875 37.8125 47.578125 
Q 36.03125 48 33.890625 48 
Q 26.265625 48 22.1875 43.046875 
Q 18.109375 38.09375 18.109375 28.8125 
L 18.109375 0 
L 9.078125 0 
L 9.078125 54.6875 
L 18.109375 54.6875 
L 18.109375 46.1875 
Q 20.953125 51.171875 25.484375 53.578125 
Q 30.03125 56 36.53125 56 
Q 37.453125 56 38.578125 55.875 
Q 39.703125 55.765625 41.0625 55.515625 
z
" id="DejaVuSans-114"/>
      <path d="M 34.28125 27.484375 
Q 23.390625 27.484375 19.1875 25 
Q 14.984375 22.515625 14.984375 16.5 
Q 14.984375 11.71875 18.140625 8.90625 
Q 21.296875 6.109375 26.703125 6.109375 
Q 34.1875 6.109375 38.703125 11.40625 
Q 43.21875 16.703125 43.21875 25.484375 
L 43.21875 27.484375 
z
M 52.203125 31.203125 
L 52.203125 0 
L 43.21875 0 
L 43.21875 8.296875 
Q 40.140625 3.328125 35.546875 0.953125 
Q 30.953125 -1.421875 24.3125 -1.421875 
Q 15.921875 -1.421875 10.953125 3.296875 
Q 6 8.015625 6 15.921875 
Q 6 25.140625 12.171875 29.828125 
Q 18.359375 34.515625 30.609375 34.515625 
L 43.21875 34.515625 
L 43.21875 35.40625 
Q 43.21875 41.609375 39.140625 45 
Q 35.0625 48.390625 27.6875 48.390625 
Q 23 48.390625 18.546875 47.265625 
Q 14.109375 46.140625 10.015625 43.890625 
L 10.015625 52.203125 
Q 14.9375 54.109375 19.578125 55.046875 
Q 24.21875 56 28.609375 56 
Q 40.484375 56 46.34375 49.84375 
Q 52.203125 43.703125 52.203125 31.203125 
z
" id="DejaVuSans-97"/>
      <path d="M 18.3125 70.21875 
L 18.3125 54.6875 
L 36.8125 54.6875 
L 36.8125 47.703125 
L 18.3125 47.703125 
L 18.3125 18.015625 
Q 18.3125 11.328125 20.140625 9.421875 
Q 21.96875 7.515625 27.59375 7.515625 
L 36.8125 7.515625 
L 36.8125 0 
L 27.59375 0 
Q 17.1875 0 13.234375 3.875 
Q 9.28125 7.765625 9.28125 18.015625 
L 9.28125 47.703125 
L 2.6875 47.703125 
L 2.6875 54.6875 
L 9.28125 54.6875 
L 9.28125 70.21875 
z
" id="DejaVuSans-116"/>
      <path d="M 9.421875 54.6875 
L 18.40625 54.6875 
L 18.40625 0 
L 9.421875 0 
z
M 9.421875 75.984375 
L 18.40625 75.984375 
L 18.40625 64.59375 
L 9.421875 64.59375 
z
" id="DejaVuSans-105"/>
     </defs>
     <g transform="translate(379.525238 23.798437)scale(0.1 -0.1)">
      <use xlink:href="#DejaVuSans-68"/>
      <use x="77.001953" xlink:href="#DejaVuSans-101"/>
      <use x="138.525391" xlink:href="#DejaVuSans-109"/>
      <use x="235.9375" xlink:href="#DejaVuSans-111"/>
      <use x="297.119141" xlink:href="#DejaVuSans-99"/>
      <use x="352.099609" xlink:href="#DejaVuSans-114"/>
      <use x="393.212891" xlink:href="#DejaVuSans-97"/>
      <use x="454.492188" xlink:href="#DejaVuSans-116"/>
      <use x="493.701172" xlink:href="#DejaVuSans-105"/>
      <use x="521.484375" xlink:href="#DejaVuSans-99"/>
     </g>
    </g>
    <g id="patch_101">
     <path d="M 351.525238 38.476562 
L 371.525238 38.476562 
L 371.525238 31.476562 
L 351.525238 31.476562 
z
" style="fill:#fc8d62;stroke:#fc8d62;stroke-linejoin:miter;"/>
    </g>
    <g id="text_2">
     <!-- Republican -->
     <defs>
      <path d="M 44.390625 34.1875 
Q 47.5625 33.109375 50.5625 29.59375 
Q 53.5625 26.078125 56.59375 19.921875 
L 66.609375 0 
L 56 0 
L 46.6875 18.703125 
Q 43.0625 26.03125 39.671875 28.421875 
Q 36.28125 30.8125 30.421875 30.8125 
L 19.671875 30.8125 
L 19.671875 0 
L 9.8125 0 
L 9.8125 72.90625 
L 32.078125 72.90625 
Q 44.578125 72.90625 50.734375 67.671875 
Q 56.890625 62.453125 56.890625 51.90625 
Q 56.890625 45.015625 53.6875 40.46875 
Q 50.484375 35.9375 44.390625 34.1875 
z
M 19.671875 64.796875 
L 19.671875 38.921875 
L 32.078125 38.921875 
Q 39.203125 38.921875 42.84375 42.21875 
Q 46.484375 45.515625 46.484375 51.90625 
Q 46.484375 58.296875 42.84375 61.546875 
Q 39.203125 64.796875 32.078125 64.796875 
z
" id="DejaVuSans-82"/>
      <path d="M 18.109375 8.203125 
L 18.109375 -20.796875 
L 9.078125 -20.796875 
L 9.078125 54.6875 
L 18.109375 54.6875 
L 18.109375 46.390625 
Q 20.953125 51.265625 25.265625 53.625 
Q 29.59375 56 35.59375 56 
Q 45.5625 56 51.78125 48.09375 
Q 58.015625 40.1875 58.015625 27.296875 
Q 58.015625 14.40625 51.78125 6.484375 
Q 45.5625 -1.421875 35.59375 -1.421875 
Q 29.59375 -1.421875 25.265625 0.953125 
Q 20.953125 3.328125 18.109375 8.203125 
z
M 48.6875 27.296875 
Q 48.6875 37.203125 44.609375 42.84375 
Q 40.53125 48.484375 33.40625 48.484375 
Q 26.265625 48.484375 22.1875 42.84375 
Q 18.109375 37.203125 18.109375 27.296875 
Q 18.109375 17.390625 22.1875 11.75 
Q 26.265625 6.109375 33.40625 6.109375 
Q 40.53125 6.109375 44.609375 11.75 
Q 48.6875 17.390625 48.6875 27.296875 
z
" id="DejaVuSans-112"/>
      <path d="M 8.5 21.578125 
L 8.5 54.6875 
L 17.484375 54.6875 
L 17.484375 21.921875 
Q 17.484375 14.15625 20.5 10.265625 
Q 23.53125 6.390625 29.59375 6.390625 
Q 36.859375 6.390625 41.078125 11.03125 
Q 45.3125 15.671875 45.3125 23.6875 
L 45.3125 54.6875 
L 54.296875 54.6875 
L 54.296875 0 
L 45.3125 0 
L 45.3125 8.40625 
Q 42.046875 3.421875 37.71875 1 
Q 33.40625 -1.421875 27.6875 -1.421875 
Q 18.265625 -1.421875 13.375 4.4375 
Q 8.5 10.296875 8.5 21.578125 
z
M 31.109375 56 
z
" id="DejaVuSans-117"/>
      <path d="M 48.6875 27.296875 
Q 48.6875 37.203125 44.609375 42.84375 
Q 40.53125 48.484375 33.40625 48.484375 
Q 26.265625 48.484375 22.1875 42.84375 
Q 18.109375 37.203125 18.109375 27.296875 
Q 18.109375 17.390625 22.1875 11.75 
Q 26.265625 6.109375 33.40625 6.109375 
Q 40.53125 6.109375 44.609375 11.75 
Q 48.6875 17.390625 48.6875 27.296875 
z
M 18.109375 46.390625 
Q 20.953125 51.265625 25.265625 53.625 
Q 29.59375 56 35.59375 56 
Q 45.5625 56 51.78125 48.09375 
Q 58.015625 40.1875 58.015625 27.296875 
Q 58.015625 14.40625 51.78125 6.484375 
Q 45.5625 -1.421875 35.59375 -1.421875 
Q 29.59375 -1.421875 25.265625 0.953125 
Q 20.953125 3.328125 18.109375 8.203125 
L 18.109375 0 
L 9.078125 0 
L 9.078125 75.984375 
L 18.109375 75.984375 
z
" id="DejaVuSans-98"/>
      <path d="M 9.421875 75.984375 
L 18.40625 75.984375 
L 18.40625 0 
L 9.421875 0 
z
" id="DejaVuSans-108"/>
      <path d="M 54.890625 33.015625 
L 54.890625 0 
L 45.90625 0 
L 45.90625 32.71875 
Q 45.90625 40.484375 42.875 44.328125 
Q 39.84375 48.1875 33.796875 48.1875 
Q 26.515625 48.1875 22.3125 43.546875 
Q 18.109375 38.921875 18.109375 30.90625 
L 18.109375 0 
L 9.078125 0 
L 9.078125 54.6875 
L 18.109375 54.6875 
L 18.109375 46.1875 
Q 21.34375 51.125 25.703125 53.5625 
Q 30.078125 56 35.796875 56 
Q 45.21875 56 50.046875 50.171875 
Q 54.890625 44.34375 54.890625 33.015625 
z
" id="DejaVuSans-110"/>
     </defs>
     <g transform="translate(379.525238 38.476562)scale(0.1 -0.1)">
      <use xlink:href="#DejaVuSans-82"/>
      <use x="69.419922" xlink:href="#DejaVuSans-101"/>
      <use x="130.943359" xlink:href="#DejaVuSans-112"/>
      <use x="194.419922" xlink:href="#DejaVuSans-117"/>
      <use x="257.798828" xlink:href="#DejaVuSans-98"/>
      <use x="321.275391" xlink:href="#DejaVuSans-108"/>
      <use x="349.058594" xlink:href="#DejaVuSans-105"/>
      <use x="376.841797" xlink:href="#DejaVuSans-99"/>
      <use x="431.822266" xlink:href="#DejaVuSans-97"/>
      <use x="493.101562" xlink:href="#DejaVuSans-110"/>
     </g>
    </g>
    <g id="patch_102">
     <path d="M 351.525238 53.154687 
L 371.525238 53.154687 
L 371.525238 46.154687 
L 351.525238 46.154687 
z
" style="fill:#8da0cb;stroke:#8da0cb;stroke-linejoin:miter;"/>
    </g>
    <g id="text_3">
     <!-- Libertarian -->
     <defs>
      <path d="M 9.8125 72.90625 
L 19.671875 72.90625 
L 19.671875 8.296875 
L 55.171875 8.296875 
L 55.171875 0 
L 9.8125 0 
z
" id="DejaVuSans-76"/>
     </defs>
     <g transform="translate(379.525238 53.154687)scale(0.1 -0.1)">
      <use xlink:href="#DejaVuSans-76"/>
      <use x="55.712891" xlink:href="#DejaVuSans-105"/>
      <use x="83.496094" xlink:href="#DejaVuSans-98"/>
      <use x="146.972656" xlink:href="#DejaVuSans-101"/>
      <use x="208.496094" xlink:href="#DejaVuSans-114"/>
      <use x="249.609375" xlink:href="#DejaVuSans-116"/>
      <use x="288.818359" xlink:href="#DejaVuSans-97"/>
      <use x="350.097656" xlink:href="#DejaVuSans-114"/>
      <use x="391.210938" xlink:href="#DejaVuSans-105"/>
      <use x="418.994141" xlink:href="#DejaVuSans-97"/>
      <use x="480.273438" xlink:href="#DejaVuSans-110"/>
     </g>
    </g>
   </g>
  </g>
 </g>
 <defs>
  <clipPath id="p3b9f1bfbac">
   <rect height="74.289014" width="304.841125" x="7.2" y="7.2"/>
  </clipPath>
 </defs>
</svg>
