<?xml version="1.0" encoding="utf-8" standalone="no"?>
<!DOCTYPE svg PUBLIC "-//W3C//DTD SVG 1.1//EN"
  "http://www.w3.org/Graphics/SVG/1.1/DTD/svg11.dtd">
<svg xmlns:xlink="http://www.w3.org/1999/xlink" width="453.591512pt" height="123.363761pt" viewBox="0 0 453.591512 123.363761" xmlns="http://www.w3.org/2000/svg" version="1.1">
 <metadata>
  <rdf:RDF xmlns:dc="http://purl.org/dc/elements/1.1/" xmlns:cc="http://creativecommons.org/ns#" xmlns:rdf="http://www.w3.org/1999/02/22-rdf-syntax-ns#">
   <cc:Work>
    <dc:type rdf:resource="http://purl.org/dc/dcmitype/StillImage"/>
    <dc:date>2022-06-05T10:50:25.314998</dc:date>
    <dc:format>image/svg+xml</dc:format>
    <dc:creator>
     <cc:Agent>
      <dc:title>Matplotlib v3.5.2, https://matplotlib.org/</dc:title>
     </cc:Agent>
    </dc:creator>
   </cc:Work>
  </rdf:RDF>
 </metadata>
 <defs>
  <style type="text/css">*{stroke-linejoin: round; stroke-linecap: butt}</style>
 </defs>
 <g id="figure_1">
  <g id="patch_1">
   <path d="M 0 123.363761 
L 453.591512 123.363761 
L 453.591512 0 
L 0 0 
z
" style="fill: #ffffff"/>
  </g>
  <g id="axes_1">
   <g id="patch_2">
    <path d="M 7.2 116.163761 
L 25.986855 116.163761 
L 25.986855 97.376905 
L 7.2 97.376905 
z
" clip-path="url(#pdaf4f6273a)" style="fill: #66c2a5; stroke: #66c2a5; stroke-linejoin: miter"/>
   </g>
   <g id="patch_3">
    <path d="M 7.2 93.619534 
L 25.986855 93.619534 
L 25.986855 74.832679 
L 7.2 74.832679 
z
" clip-path="url(#pdaf4f6273a)" style="fill: #66c2a5; stroke: #66c2a5; stroke-linejoin: miter"/>
   </g>
   <g id="patch_4">
    <path d="M 7.2 71.075308 
L 25.986855 71.075308 
L 25.986855 52.288453 
L 7.2 52.288453 
z
" clip-path="url(#pdaf4f6273a)" style="fill: #66c2a5; stroke: #66c2a5; stroke-linejoin: miter"/>
   </g>
   <g id="patch_5">
    <path d="M 7.2 48.531082 
L 25.986855 48.531082 
L 25.986855 29.744226 
L 7.2 29.744226 
z
" clip-path="url(#pdaf4f6273a)" style="fill: #66c2a5; stroke: #66c2a5; stroke-linejoin: miter"/>
   </g>
   <g id="patch_6">
    <path d="M 7.2 25.986855 
L 25.986855 25.986855 
L 25.986855 7.2 
L 7.2 7.2 
z
" clip-path="url(#pdaf4f6273a)" style="fill: #66c2a5; stroke: #66c2a5; stroke-linejoin: miter"/>
   </g>
   <g id="patch_7">
    <path d="M 29.744226 116.163761 
L 48.531082 116.163761 
L 48.531082 97.376905 
L 29.744226 97.376905 
z
" clip-path="url(#pdaf4f6273a)" style="fill: #66c2a5; stroke: #66c2a5; stroke-linejoin: miter"/>
   </g>
   <g id="patch_8">
    <path d="M 29.744226 93.619534 
L 48.531082 93.619534 
L 48.531082 74.832679 
L 29.744226 74.832679 
z
" clip-path="url(#pdaf4f6273a)" style="fill: #66c2a5; stroke: #66c2a5; stroke-linejoin: miter"/>
   </g>
   <g id="patch_9">
    <path d="M 29.744226 71.075308 
L 48.531082 71.075308 
L 48.531082 52.288453 
L 29.744226 52.288453 
z
" clip-path="url(#pdaf4f6273a)" style="fill: #66c2a5; stroke: #66c2a5; stroke-linejoin: miter"/>
   </g>
   <g id="patch_10">
    <path d="M 29.744226 48.531082 
L 48.531082 48.531082 
L 48.531082 29.744226 
L 29.744226 29.744226 
z
" clip-path="url(#pdaf4f6273a)" style="fill: #66c2a5; stroke: #66c2a5; stroke-linejoin: miter"/>
   </g>
   <g id="patch_11">
    <path d="M 29.744226 25.986855 
L 48.531082 25.986855 
L 48.531082 7.2 
L 29.744226 7.2 
z
" clip-path="url(#pdaf4f6273a)" style="fill: #66c2a5; stroke: #66c2a5; stroke-linejoin: miter"/>
   </g>
   <g id="patch_12">
    <path d="M 52.288453 116.163761 
L 71.075308 116.163761 
L 71.075308 97.376905 
L 52.288453 97.376905 
z
" clip-path="url(#pdaf4f6273a)" style="fill: #66c2a5; stroke: #66c2a5; stroke-linejoin: miter"/>
   </g>
   <g id="patch_13">
    <path d="M 52.288453 93.619534 
L 71.075308 93.619534 
L 71.075308 74.832679 
L 52.288453 74.832679 
z
" clip-path="url(#pdaf4f6273a)" style="fill: #66c2a5; stroke: #66c2a5; stroke-linejoin: miter"/>
   </g>
   <g id="patch_14">
    <path d="M 52.288453 71.075308 
L 71.075308 71.075308 
L 71.075308 52.288453 
L 52.288453 52.288453 
z
" clip-path="url(#pdaf4f6273a)" style="fill: #66c2a5; stroke: #66c2a5; stroke-linejoin: miter"/>
   </g>
   <g id="patch_15">
    <path d="M 52.288453 48.531082 
L 71.075308 48.531082 
L 71.075308 29.744226 
L 52.288453 29.744226 
z
" clip-path="url(#pdaf4f6273a)" style="fill: #66c2a5; stroke: #66c2a5; stroke-linejoin: miter"/>
   </g>
   <g id="patch_16">
    <path d="M 52.288453 25.986855 
L 71.075308 25.986855 
L 71.075308 7.2 
L 52.288453 7.2 
z
" clip-path="url(#pdaf4f6273a)" style="fill: #66c2a5; stroke: #66c2a5; stroke-linejoin: miter"/>
   </g>
   <g id="patch_17">
    <path d="M 74.832679 116.163761 
L 93.619534 116.163761 
L 93.619534 97.376905 
L 74.832679 97.376905 
z
" clip-path="url(#pdaf4f6273a)" style="fill: #66c2a5; stroke: #66c2a5; stroke-linejoin: miter"/>
   </g>
   <g id="patch_18">
    <path d="M 74.832679 93.619534 
L 93.619534 93.619534 
L 93.619534 74.832679 
L 74.832679 74.832679 
z
" clip-path="url(#pdaf4f6273a)" style="fill: #66c2a5; stroke: #66c2a5; stroke-linejoin: miter"/>
   </g>
   <g id="patch_19">
    <path d="M 74.832679 71.075308 
L 93.619534 71.075308 
L 93.619534 52.288453 
L 74.832679 52.288453 
z
" clip-path="url(#pdaf4f6273a)" style="fill: #66c2a5; stroke: #66c2a5; stroke-linejoin: miter"/>
   </g>
   <g id="patch_20">
    <path d="M 74.832679 48.531082 
L 93.619534 48.531082 
L 93.619534 29.744226 
L 74.832679 29.744226 
z
" clip-path="url(#pdaf4f6273a)" style="fill: #66c2a5; stroke: #66c2a5; stroke-linejoin: miter"/>
   </g>
   <g id="patch_21">
    <path d="M 74.832679 25.986855 
L 93.619534 25.986855 
L 93.619534 7.2 
L 74.832679 7.2 
z
" clip-path="url(#pdaf4f6273a)" style="fill: #66c2a5; stroke: #66c2a5; stroke-linejoin: miter"/>
   </g>
   <g id="patch_22">
    <path d="M 97.376905 116.163761 
L 116.163761 116.163761 
L 116.163761 97.376905 
L 97.376905 97.376905 
z
" clip-path="url(#pdaf4f6273a)" style="fill: #66c2a5; stroke: #66c2a5; stroke-linejoin: miter"/>
   </g>
   <g id="patch_23">
    <path d="M 97.376905 93.619534 
L 116.163761 93.619534 
L 116.163761 74.832679 
L 97.376905 74.832679 
z
" clip-path="url(#pdaf4f6273a)" style="fill: #66c2a5; stroke: #66c2a5; stroke-linejoin: miter"/>
   </g>
   <g id="patch_24">
    <path d="M 97.376905 71.075308 
L 116.163761 71.075308 
L 116.163761 52.288453 
L 97.376905 52.288453 
z
" clip-path="url(#pdaf4f6273a)" style="fill: #66c2a5; stroke: #66c2a5; stroke-linejoin: miter"/>
   </g>
   <g id="patch_25">
    <path d="M 97.376905 48.531082 
L 116.163761 48.531082 
L 116.163761 29.744226 
L 97.376905 29.744226 
z
" clip-path="url(#pdaf4f6273a)" style="fill: #66c2a5; stroke: #66c2a5; stroke-linejoin: miter"/>
   </g>
   <g id="patch_26">
    <path d="M 97.376905 25.986855 
L 116.163761 25.986855 
L 116.163761 7.2 
L 97.376905 7.2 
z
" clip-path="url(#pdaf4f6273a)" style="fill: #66c2a5; stroke: #66c2a5; stroke-linejoin: miter"/>
   </g>
   <g id="patch_27">
    <path d="M 119.921132 116.163761 
L 138.707987 116.163761 
L 138.707987 97.376905 
L 119.921132 97.376905 
z
" clip-path="url(#pdaf4f6273a)" style="fill: #66c2a5; stroke: #66c2a5; stroke-linejoin: miter"/>
   </g>
   <g id="patch_28">
    <path d="M 119.921132 93.619534 
L 138.707987 93.619534 
L 138.707987 74.832679 
L 119.921132 74.832679 
z
" clip-path="url(#pdaf4f6273a)" style="fill: #66c2a5; stroke: #66c2a5; stroke-linejoin: miter"/>
   </g>
   <g id="patch_29">
    <path d="M 119.921132 71.075308 
L 138.707987 71.075308 
L 138.707987 52.288453 
L 119.921132 52.288453 
z
" clip-path="url(#pdaf4f6273a)" style="fill: #66c2a5; stroke: #66c2a5; stroke-linejoin: miter"/>
   </g>
   <g id="patch_30">
    <path d="M 119.921132 48.531082 
L 138.707987 48.531082 
L 138.707987 29.744226 
L 119.921132 29.744226 
z
" clip-path="url(#pdaf4f6273a)" style="fill: #66c2a5; stroke: #66c2a5; stroke-linejoin: miter"/>
   </g>
   <g id="patch_31">
    <path d="M 119.921132 25.986855 
L 138.707987 25.986855 
L 138.707987 7.2 
L 119.921132 7.2 
z
" clip-path="url(#pdaf4f6273a)" style="fill: #66c2a5; stroke: #66c2a5; stroke-linejoin: miter"/>
   </g>
   <g id="patch_32">
    <path d="M 142.465358 116.163761 
L 161.252213 116.163761 
L 161.252213 97.376905 
L 142.465358 97.376905 
z
" clip-path="url(#pdaf4f6273a)" style="fill: #66c2a5; stroke: #66c2a5; stroke-linejoin: miter"/>
   </g>
   <g id="patch_33">
    <path d="M 142.465358 93.619534 
L 161.252213 93.619534 
L 161.252213 74.832679 
L 142.465358 74.832679 
z
" clip-path="url(#pdaf4f6273a)" style="fill: #66c2a5; stroke: #66c2a5; stroke-linejoin: miter"/>
   </g>
   <g id="patch_34">
    <path d="M 142.465358 71.075308 
L 161.252213 71.075308 
L 161.252213 52.288453 
L 142.465358 52.288453 
z
" clip-path="url(#pdaf4f6273a)" style="fill: #66c2a5; stroke: #66c2a5; stroke-linejoin: miter"/>
   </g>
   <g id="patch_35">
    <path d="M 142.465358 48.531082 
L 161.252213 48.531082 
L 161.252213 29.744226 
L 142.465358 29.744226 
z
" clip-path="url(#pdaf4f6273a)" style="fill: #66c2a5; stroke: #66c2a5; stroke-linejoin: miter"/>
   </g>
   <g id="patch_36">
    <path d="M 142.465358 25.986855 
L 161.252213 25.986855 
L 161.252213 7.2 
L 142.465358 7.2 
z
" clip-path="url(#pdaf4f6273a)" style="fill: #66c2a5; stroke: #66c2a5; stroke-linejoin: miter"/>
   </g>
   <g id="patch_37">
    <path d="M 165.009584 116.163761 
L 183.796439 116.163761 
L 183.796439 97.376905 
L 165.009584 97.376905 
z
" clip-path="url(#pdaf4f6273a)" style="fill: #66c2a5; stroke: #66c2a5; stroke-linejoin: miter"/>
   </g>
   <g id="patch_38">
    <path d="M 165.009584 93.619534 
L 183.796439 93.619534 
L 183.796439 74.832679 
L 165.009584 74.832679 
z
" clip-path="url(#pdaf4f6273a)" style="fill: #66c2a5; stroke: #66c2a5; stroke-linejoin: miter"/>
   </g>
   <g id="patch_39">
    <path d="M 165.009584 71.075308 
L 183.796439 71.075308 
L 183.796439 52.288453 
L 165.009584 52.288453 
z
" clip-path="url(#pdaf4f6273a)" style="fill: #66c2a5; stroke: #66c2a5; stroke-linejoin: miter"/>
   </g>
   <g id="patch_40">
    <path d="M 165.009584 48.531082 
L 183.796439 48.531082 
L 183.796439 29.744226 
L 165.009584 29.744226 
z
" clip-path="url(#pdaf4f6273a)" style="fill: #66c2a5; stroke: #66c2a5; stroke-linejoin: miter"/>
   </g>
   <g id="patch_41">
    <path d="M 165.009584 25.986855 
L 183.796439 25.986855 
L 183.796439 7.2 
L 165.009584 7.2 
z
" clip-path="url(#pdaf4f6273a)" style="fill: #66c2a5; stroke: #66c2a5; stroke-linejoin: miter"/>
   </g>
   <g id="patch_42">
    <path d="M 187.553811 116.163761 
L 206.340666 116.163761 
L 206.340666 97.376905 
L 187.553811 97.376905 
z
" clip-path="url(#pdaf4f6273a)" style="fill: #fc8d62; stroke: #fc8d62; stroke-linejoin: miter"/>
   </g>
   <g id="patch_43">
    <path d="M 187.553811 93.619534 
L 206.340666 93.619534 
L 206.340666 74.832679 
L 187.553811 74.832679 
z
" clip-path="url(#pdaf4f6273a)" style="fill: #fc8d62; stroke: #fc8d62; stroke-linejoin: miter"/>
   </g>
   <g id="patch_44">
    <path d="M 187.553811 71.075308 
L 206.340666 71.075308 
L 206.340666 52.288453 
L 187.553811 52.288453 
z
" clip-path="url(#pdaf4f6273a)" style="fill: #fc8d62; stroke: #fc8d62; stroke-linejoin: miter"/>
   </g>
   <g id="patch_45">
    <path d="M 187.553811 48.531082 
L 206.340666 48.531082 
L 206.340666 29.744226 
L 187.553811 29.744226 
z
" clip-path="url(#pdaf4f6273a)" style="fill: #fc8d62; stroke: #fc8d62; stroke-linejoin: miter"/>
   </g>
   <g id="patch_46">
    <path d="M 187.553811 25.986855 
L 206.340666 25.986855 
L 206.340666 7.2 
L 187.553811 7.2 
z
" clip-path="url(#pdaf4f6273a)" style="fill: #fc8d62; stroke: #fc8d62; stroke-linejoin: miter"/>
   </g>
   <g id="patch_47">
    <path d="M 210.098037 116.163761 
L 228.884892 116.163761 
L 228.884892 97.376905 
L 210.098037 97.376905 
z
" clip-path="url(#pdaf4f6273a)" style="fill: #fc8d62; stroke: #fc8d62; stroke-linejoin: miter"/>
   </g>
   <g id="patch_48">
    <path d="M 210.098037 93.619534 
L 228.884892 93.619534 
L 228.884892 74.832679 
L 210.098037 74.832679 
z
" clip-path="url(#pdaf4f6273a)" style="fill: #fc8d62; stroke: #fc8d62; stroke-linejoin: miter"/>
   </g>
   <g id="patch_49">
    <path d="M 210.098037 71.075308 
L 228.884892 71.075308 
L 228.884892 52.288453 
L 210.098037 52.288453 
z
" clip-path="url(#pdaf4f6273a)" style="fill: #fc8d62; stroke: #fc8d62; stroke-linejoin: miter"/>
   </g>
   <g id="patch_50">
    <path d="M 210.098037 48.531082 
L 228.884892 48.531082 
L 228.884892 29.744226 
L 210.098037 29.744226 
z
" clip-path="url(#pdaf4f6273a)" style="fill: #fc8d62; stroke: #fc8d62; stroke-linejoin: miter"/>
   </g>
   <g id="patch_51">
    <path d="M 210.098037 25.986855 
L 228.884892 25.986855 
L 228.884892 7.2 
L 210.098037 7.2 
z
" clip-path="url(#pdaf4f6273a)" style="fill: #fc8d62; stroke: #fc8d62; stroke-linejoin: miter"/>
   </g>
   <g id="patch_52">
    <path d="M 232.642263 116.163761 
L 251.429118 116.163761 
L 251.429118 97.376905 
L 232.642263 97.376905 
z
" clip-path="url(#pdaf4f6273a)" style="fill: #fc8d62; stroke: #fc8d62; stroke-linejoin: miter"/>
   </g>
   <g id="patch_53">
    <path d="M 232.642263 93.619534 
L 251.429118 93.619534 
L 251.429118 74.832679 
L 232.642263 74.832679 
z
" clip-path="url(#pdaf4f6273a)" style="fill: #fc8d62; stroke: #fc8d62; stroke-linejoin: miter"/>
   </g>
   <g id="patch_54">
    <path d="M 232.642263 71.075308 
L 251.429118 71.075308 
L 251.429118 52.288453 
L 232.642263 52.288453 
z
" clip-path="url(#pdaf4f6273a)" style="fill: #fc8d62; stroke: #fc8d62; stroke-linejoin: miter"/>
   </g>
   <g id="patch_55">
    <path d="M 232.642263 48.531082 
L 251.429118 48.531082 
L 251.429118 29.744226 
L 232.642263 29.744226 
z
" clip-path="url(#pdaf4f6273a)" style="fill: #fc8d62; stroke: #fc8d62; stroke-linejoin: miter"/>
   </g>
   <g id="patch_56">
    <path d="M 232.642263 25.986855 
L 251.429118 25.986855 
L 251.429118 7.2 
L 232.642263 7.2 
z
" clip-path="url(#pdaf4f6273a)" style="fill: #fc8d62; stroke: #fc8d62; stroke-linejoin: miter"/>
   </g>
   <g id="patch_57">
    <path d="M 255.186489 116.163761 
L 273.973345 116.163761 
L 273.973345 97.376905 
L 255.186489 97.376905 
z
" clip-path="url(#pdaf4f6273a)" style="fill: #fc8d62; stroke: #fc8d62; stroke-linejoin: miter"/>
   </g>
   <g id="patch_58">
    <path d="M 255.186489 93.619534 
L 273.973345 93.619534 
L 273.973345 74.832679 
L 255.186489 74.832679 
z
" clip-path="url(#pdaf4f6273a)" style="fill: #fc8d62; stroke: #fc8d62; stroke-linejoin: miter"/>
   </g>
   <g id="patch_59">
    <path d="M 255.186489 71.075308 
L 273.973345 71.075308 
L 273.973345 52.288453 
L 255.186489 52.288453 
z
" clip-path="url(#pdaf4f6273a)" style="fill: #fc8d62; stroke: #fc8d62; stroke-linejoin: miter"/>
   </g>
   <g id="patch_60">
    <path d="M 255.186489 48.531082 
L 273.973345 48.531082 
L 273.973345 29.744226 
L 255.186489 29.744226 
z
" clip-path="url(#pdaf4f6273a)" style="fill: #fc8d62; stroke: #fc8d62; stroke-linejoin: miter"/>
   </g>
   <g id="patch_61">
    <path d="M 255.186489 25.986855 
L 273.973345 25.986855 
L 273.973345 7.2 
L 255.186489 7.2 
z
" clip-path="url(#pdaf4f6273a)" style="fill: #fc8d62; stroke: #fc8d62; stroke-linejoin: miter"/>
   </g>
   <g id="patch_62">
    <path d="M 277.730716 116.163761 
L 296.517571 116.163761 
L 296.517571 97.376905 
L 277.730716 97.376905 
z
" clip-path="url(#pdaf4f6273a)" style="fill: #fc8d62; stroke: #fc8d62; stroke-linejoin: miter"/>
   </g>
   <g id="patch_63">
    <path d="M 277.730716 93.619534 
L 296.517571 93.619534 
L 296.517571 74.832679 
L 277.730716 74.832679 
z
" clip-path="url(#pdaf4f6273a)" style="fill: #fc8d62; stroke: #fc8d62; stroke-linejoin: miter"/>
   </g>
   <g id="patch_64">
    <path d="M 277.730716 71.075308 
L 296.517571 71.075308 
L 296.517571 52.288453 
L 277.730716 52.288453 
z
" clip-path="url(#pdaf4f6273a)" style="fill: #fc8d62; stroke: #fc8d62; stroke-linejoin: miter"/>
   </g>
   <g id="patch_65">
    <path d="M 277.730716 48.531082 
L 296.517571 48.531082 
L 296.517571 29.744226 
L 277.730716 29.744226 
z
" clip-path="url(#pdaf4f6273a)" style="fill: #fc8d62; stroke: #fc8d62; stroke-linejoin: miter"/>
   </g>
   <g id="patch_66">
    <path d="M 277.730716 25.986855 
L 296.517571 25.986855 
L 296.517571 7.2 
L 277.730716 7.2 
z
" clip-path="url(#pdaf4f6273a)" style="fill: #fc8d62; stroke: #fc8d62; stroke-linejoin: miter"/>
   </g>
   <g id="patch_67">
    <path d="M 300.274942 116.163761 
L 319.061797 116.163761 
L 319.061797 97.376905 
L 300.274942 97.376905 
z
" clip-path="url(#pdaf4f6273a)" style="fill: #fc8d62; stroke: #fc8d62; stroke-linejoin: miter"/>
   </g>
   <g id="patch_68">
    <path d="M 300.274942 93.619534 
L 319.061797 93.619534 
L 319.061797 74.832679 
L 300.274942 74.832679 
z
" clip-path="url(#pdaf4f6273a)" style="fill: #fc8d62; stroke: #fc8d62; stroke-linejoin: miter"/>
   </g>
   <g id="patch_69">
    <path d="M 300.274942 71.075308 
L 319.061797 71.075308 
L 319.061797 52.288453 
L 300.274942 52.288453 
z
" clip-path="url(#pdaf4f6273a)" style="fill: #8da0cb; stroke: #8da0cb; stroke-linejoin: miter"/>
   </g>
   <g id="patch_70">
    <path d="M 300.274942 48.531082 
L 319.061797 48.531082 
L 319.061797 29.744226 
L 300.274942 29.744226 
z
" clip-path="url(#pdaf4f6273a)" style="fill: #8da0cb; stroke: #8da0cb; stroke-linejoin: miter"/>
   </g>
   <g id="patch_71">
    <path d="M 300.274942 25.986855 
L 319.061797 25.986855 
L 319.061797 7.2 
L 300.274942 7.2 
z
" clip-path="url(#pdaf4f6273a)" style="fill: #8da0cb; stroke: #8da0cb; stroke-linejoin: miter"/>
   </g>
   <g id="patch_72">
    <path d="M 322.819168 116.163761 
L 341.606024 116.163761 
L 341.606024 97.376905 
L 322.819168 97.376905 
z
" clip-path="url(#pdaf4f6273a)" style="fill: #8da0cb; stroke: #8da0cb; stroke-linejoin: miter"/>
   </g>
   <g id="patch_73">
    <path d="M 322.819168 93.619534 
L 341.606024 93.619534 
L 341.606024 74.832679 
L 322.819168 74.832679 
z
" clip-path="url(#pdaf4f6273a)" style="fill: #8da0cb; stroke: #8da0cb; stroke-linejoin: miter"/>
   </g>
   <g id="patch_74">
    <path d="M 322.819168 71.075308 
L 341.606024 71.075308 
L 341.606024 52.288453 
L 322.819168 52.288453 
z
" clip-path="url(#pdaf4f6273a)" style="fill: #8da0cb; stroke: #8da0cb; stroke-linejoin: miter"/>
   </g>
   <g id="patch_75">
    <path d="M 322.819168 48.531082 
L 341.606024 48.531082 
L 341.606024 29.744226 
L 322.819168 29.744226 
z
" clip-path="url(#pdaf4f6273a)" style="fill: #8da0cb; stroke: #8da0cb; stroke-linejoin: miter"/>
   </g>
   <g id="patch_76">
    <path d="M 322.819168 25.986855 
L 341.606024 25.986855 
L 341.606024 7.2 
L 322.819168 7.2 
z
" clip-path="url(#pdaf4f6273a)" style="fill: #8da0cb; stroke: #8da0cb; stroke-linejoin: miter"/>
   </g>
   <g id="patch_77">
    <path d="M 345.363395 116.163761 
L 364.15025 116.163761 
L 364.15025 97.376905 
L 345.363395 97.376905 
z
" clip-path="url(#pdaf4f6273a)" style="fill: #8da0cb; stroke: #8da0cb; stroke-linejoin: miter"/>
   </g>
   <g id="legend_1">
    <g id="patch_78">
     <path d="M 388.997762 59.234375 
L 444.391512 59.234375 
Q 446.391512 59.234375 446.391512 57.234375 
L 446.391512 14.2 
Q 446.391512 12.2 444.391512 12.2 
L 388.997762 12.2 
Q 386.997762 12.2 386.997762 14.2 
L 386.997762 57.234375 
Q 386.997762 59.234375 388.997762 59.234375 
z
" style="fill: #ffffff; opacity: 0.8; stroke: #cccccc; stroke-linejoin: miter"/>
    </g>
    <g id="patch_79">
     <path d="M 390.997762 23.798438 
L 410.997762 23.798438 
L 410.997762 16.798438 
L 390.997762 16.798438 
z
" style="fill: #66c2a5; stroke: #66c2a5; stroke-linejoin: miter"/>
    </g>
    <g id="text_1">
     <!-- Cat1 -->
     <g transform="translate(418.997762 23.798438)scale(0.1 -0.1)">
      <defs>
       <path id="DejaVuSans-43" d="M 4122 4306 
L 4122 3641 
Q 3803 3938 3442 4084 
Q 3081 4231 2675 4231 
Q 1875 4231 1450 3742 
Q 1025 3253 1025 2328 
Q 1025 1406 1450 917 
Q 1875 428 2675 428 
Q 3081 428 3442 575 
Q 3803 722 4122 1019 
L 4122 359 
Q 3791 134 3420 21 
Q 3050 -91 2638 -91 
Q 1578 -91 968 557 
Q 359 1206 359 2328 
Q 359 3453 968 4101 
Q 1578 4750 2638 4750 
Q 3056 4750 3426 4639 
Q 3797 4528 4122 4306 
z
" transform="scale(0.015625)"/>
       <path id="DejaVuSans-61" d="M 2194 1759 
Q 1497 1759 1228 1600 
Q 959 1441 959 1056 
Q 959 750 1161 570 
Q 1363 391 1709 391 
Q 2188 391 2477 730 
Q 2766 1069 2766 1631 
L 2766 1759 
L 2194 1759 
z
M 3341 1997 
L 3341 0 
L 2766 0 
L 2766 531 
Q 2569 213 2275 61 
Q 1981 -91 1556 -91 
Q 1019 -91 701 211 
Q 384 513 384 1019 
Q 384 1609 779 1909 
Q 1175 2209 1959 2209 
L 2766 2209 
L 2766 2266 
Q 2766 2663 2505 2880 
Q 2244 3097 1772 3097 
Q 1472 3097 1187 3025 
Q 903 2953 641 2809 
L 641 3341 
Q 956 3463 1253 3523 
Q 1550 3584 1831 3584 
Q 2591 3584 2966 3190 
Q 3341 2797 3341 1997 
z
" transform="scale(0.015625)"/>
       <path id="DejaVuSans-74" d="M 1172 4494 
L 1172 3500 
L 2356 3500 
L 2356 3053 
L 1172 3053 
L 1172 1153 
Q 1172 725 1289 603 
Q 1406 481 1766 481 
L 2356 481 
L 2356 0 
L 1766 0 
Q 1100 0 847 248 
Q 594 497 594 1153 
L 594 3053 
L 172 3053 
L 172 3500 
L 594 3500 
L 594 4494 
L 1172 4494 
z
" transform="scale(0.015625)"/>
       <path id="DejaVuSans-31" d="M 794 531 
L 1825 531 
L 1825 4091 
L 703 3866 
L 703 4441 
L 1819 4666 
L 2450 4666 
L 2450 531 
L 3481 531 
L 3481 0 
L 794 0 
L 794 531 
z
" transform="scale(0.015625)"/>
      </defs>
      <use xlink:href="#DejaVuSans-43"/>
      <use xlink:href="#DejaVuSans-61" x="69.824219"/>
      <use xlink:href="#DejaVuSans-74" x="131.103516"/>
      <use xlink:href="#DejaVuSans-31" x="170.3125"/>
     </g>
    </g>
    <g id="patch_80">
     <path d="M 390.997762 38.476563 
L 410.997762 38.476563 
L 410.997762 31.476563 
L 390.997762 31.476563 
z
" style="fill: #fc8d62; stroke: #fc8d62; stroke-linejoin: miter"/>
    </g>
    <g id="text_2">
     <!-- Cat2 -->
     <g transform="translate(418.997762 38.476563)scale(0.1 -0.1)">
      <defs>
       <path id="DejaVuSans-32" d="M 1228 531 
L 3431 531 
L 3431 0 
L 469 0 
L 469 531 
Q 828 903 1448 1529 
Q 2069 2156 2228 2338 
Q 2531 2678 2651 2914 
Q 2772 3150 2772 3378 
Q 2772 3750 2511 3984 
Q 2250 4219 1831 4219 
Q 1534 4219 1204 4116 
Q 875 4013 500 3803 
L 500 4441 
Q 881 4594 1212 4672 
Q 1544 4750 1819 4750 
Q 2544 4750 2975 4387 
Q 3406 4025 3406 3419 
Q 3406 3131 3298 2873 
Q 3191 2616 2906 2266 
Q 2828 2175 2409 1742 
Q 1991 1309 1228 531 
z
" transform="scale(0.015625)"/>
      </defs>
      <use xlink:href="#DejaVuSans-43"/>
      <use xlink:href="#DejaVuSans-61" x="69.824219"/>
      <use xlink:href="#DejaVuSans-74" x="131.103516"/>
      <use xlink:href="#DejaVuSans-32" x="170.3125"/>
     </g>
    </g>
    <g id="patch_81">
     <path d="M 390.997762 53.154688 
L 410.997762 53.154688 
L 410.997762 46.154688 
L 390.997762 46.154688 
z
" style="fill: #8da0cb; stroke: #8da0cb; stroke-linejoin: miter"/>
    </g>
    <g id="text_3">
     <!-- Cat3 -->
     <g transform="translate(418.997762 53.154688)scale(0.1 -0.1)">
      <defs>
       <path id="DejaVuSans-33" d="M 2597 2516 
Q 3050 2419 3304 2112 
Q 3559 1806 3559 1356 
Q 3559 666 3084 287 
Q 2609 -91 1734 -91 
Q 1441 -91 1130 -33 
Q 819 25 488 141 
L 488 750 
Q 750 597 1062 519 
Q 1375 441 1716 441 
Q 2309 441 2620 675 
Q 2931 909 2931 1356 
Q 2931 1769 2642 2001 
Q 2353 2234 1838 2234 
L 1294 2234 
L 1294 2753 
L 1863 2753 
Q 2328 2753 2575 2939 
Q 2822 3125 2822 3475 
Q 2822 3834 2567 4026 
Q 2313 4219 1838 4219 
Q 1578 4219 1281 4162 
Q 984 4106 628 3988 
L 628 4550 
Q 988 4650 1302 4700 
Q 1616 4750 1894 4750 
Q 2613 4750 3031 4423 
Q 3450 4097 3450 3541 
Q 3450 3153 3228 2886 
Q 3006 2619 2597 2516 
z
" transform="scale(0.015625)"/>
      </defs>
      <use xlink:href="#DejaVuSans-43"/>
      <use xlink:href="#DejaVuSans-61" x="69.824219"/>
      <use xlink:href="#DejaVuSans-74" x="131.103516"/>
      <use xlink:href="#DejaVuSans-33" x="170.3125"/>
     </g>
    </g>
   </g>
  </g>
 </g>
 <defs>
  <clipPath id="pdaf4f6273a">
   <rect x="7.2" y="7.2" width="356.95025" height="108.963761"/>
  </clipPath>
 </defs>
</svg>
