<?xml version="1.0" encoding="utf-8" standalone="no"?>
<!DOCTYPE svg PUBLIC "-//W3C//DTD SVG 1.1//EN"
  "http://www.w3.org/Graphics/SVG/1.1/DTD/svg11.dtd">
<!-- Created with matplotlib (https://matplotlib.org/) -->
<svg height="180.732203pt" version="1.1" viewBox="0 0 352.8 180.732203" width="352.8pt" xmlns="http://www.w3.org/2000/svg" xmlns:xlink="http://www.w3.org/1999/xlink">
 <defs>
  <style type="text/css">
*{stroke-linecap:butt;stroke-linejoin:round;}
  </style>
 </defs>
 <g id="figure_1">
  <g id="patch_1">
   <path d="M 0 180.732203 
L 352.8 180.732203 
L 352.8 -0 
L 0 -0 
z
" style="fill:#ffffff;"/>
  </g>
  <g id="axes_1">
   <g id="patch_2">
    <path clip-path="url(#p445a60ead6)" d="M 7.2 173.532203 
L 35.877966 173.532203 
L 35.877966 144.854237 
L 7.2 144.854237 
z
" style="fill:#66c2a5;stroke:#66c2a5;stroke-linejoin:miter;"/>
   </g>
   <g id="patch_3">
    <path clip-path="url(#p445a60ead6)" d="M 7.2 139.118644 
L 35.877966 139.118644 
L 35.877966 110.440678 
L 7.2 110.440678 
z
" style="fill:#66c2a5;stroke:#66c2a5;stroke-linejoin:miter;"/>
   </g>
   <g id="patch_4">
    <path clip-path="url(#p445a60ead6)" d="M 7.2 104.705085 
L 35.877966 104.705085 
L 35.877966 76.027119 
L 7.2 76.027119 
z
" style="fill:#66c2a5;stroke:#66c2a5;stroke-linejoin:miter;"/>
   </g>
   <g id="patch_5">
    <path clip-path="url(#p445a60ead6)" d="M 7.2 70.291525 
L 35.877966 70.291525 
L 35.877966 41.613559 
L 7.2 41.613559 
z
" style="fill:#66c2a5;stroke:#66c2a5;stroke-linejoin:miter;"/>
   </g>
   <g id="patch_6">
    <path clip-path="url(#p445a60ead6)" d="M 7.2 35.877966 
L 35.877966 35.877966 
L 35.877966 7.2 
L 7.2 7.2 
z
" style="fill:#66c2a5;stroke:#66c2a5;stroke-linejoin:miter;"/>
   </g>
   <g id="patch_7">
    <path clip-path="url(#p445a60ead6)" d="M 41.613559 173.532203 
L 70.291525 173.532203 
L 70.291525 144.854237 
L 41.613559 144.854237 
z
" style="fill:#66c2a5;stroke:#66c2a5;stroke-linejoin:miter;"/>
   </g>
   <g id="patch_8">
    <path clip-path="url(#p445a60ead6)" d="M 41.613559 139.118644 
L 70.291525 139.118644 
L 70.291525 110.440678 
L 41.613559 110.440678 
z
" style="fill:#66c2a5;stroke:#66c2a5;stroke-linejoin:miter;"/>
   </g>
   <g id="patch_9">
    <path clip-path="url(#p445a60ead6)" d="M 41.613559 104.705085 
L 70.291525 104.705085 
L 70.291525 76.027119 
L 41.613559 76.027119 
z
" style="fill:#66c2a5;stroke:#66c2a5;stroke-linejoin:miter;"/>
   </g>
   <g id="patch_10">
    <path clip-path="url(#p445a60ead6)" d="M 41.613559 70.291525 
L 70.291525 70.291525 
L 70.291525 41.613559 
L 41.613559 41.613559 
z
" style="fill:#66c2a5;stroke:#66c2a5;stroke-linejoin:miter;"/>
   </g>
   <g id="patch_11">
    <path clip-path="url(#p445a60ead6)" d="M 41.613559 35.877966 
L 70.291525 35.877966 
L 70.291525 7.2 
L 41.613559 7.2 
z
" style="fill:#66c2a5;stroke:#66c2a5;stroke-linejoin:miter;"/>
   </g>
   <g id="patch_12">
    <path clip-path="url(#p445a60ead6)" d="M 76.027119 173.532203 
L 104.705085 173.532203 
L 104.705085 144.854237 
L 76.027119 144.854237 
z
" style="fill:#66c2a5;stroke:#66c2a5;stroke-linejoin:miter;"/>
   </g>
   <g id="patch_13">
    <path clip-path="url(#p445a60ead6)" d="M 76.027119 139.118644 
L 104.705085 139.118644 
L 104.705085 110.440678 
L 76.027119 110.440678 
z
" style="fill:#66c2a5;stroke:#66c2a5;stroke-linejoin:miter;"/>
   </g>
   <g id="patch_14">
    <path clip-path="url(#p445a60ead6)" d="M 76.027119 104.705085 
L 104.705085 104.705085 
L 104.705085 76.027119 
L 76.027119 76.027119 
z
" style="fill:#66c2a5;stroke:#66c2a5;stroke-linejoin:miter;"/>
   </g>
   <g id="patch_15">
    <path clip-path="url(#p445a60ead6)" d="M 76.027119 70.291525 
L 104.705085 70.291525 
L 104.705085 41.613559 
L 76.027119 41.613559 
z
" style="fill:#66c2a5;stroke:#66c2a5;stroke-linejoin:miter;"/>
   </g>
   <g id="patch_16">
    <path clip-path="url(#p445a60ead6)" d="M 76.027119 35.877966 
L 104.705085 35.877966 
L 104.705085 7.2 
L 76.027119 7.2 
z
" style="fill:#66c2a5;stroke:#66c2a5;stroke-linejoin:miter;"/>
   </g>
   <g id="patch_17">
    <path clip-path="url(#p445a60ead6)" d="M 110.440678 173.532203 
L 139.118644 173.532203 
L 139.118644 144.854237 
L 110.440678 144.854237 
z
" style="fill:#66c2a5;stroke:#66c2a5;stroke-linejoin:miter;"/>
   </g>
   <g id="patch_18">
    <path clip-path="url(#p445a60ead6)" d="M 110.440678 139.118644 
L 139.118644 139.118644 
L 139.118644 110.440678 
L 110.440678 110.440678 
z
" style="fill:#66c2a5;stroke:#66c2a5;stroke-linejoin:miter;"/>
   </g>
   <g id="patch_19">
    <path clip-path="url(#p445a60ead6)" d="M 110.440678 104.705085 
L 139.118644 104.705085 
L 139.118644 76.027119 
L 110.440678 76.027119 
z
" style="fill:#66c2a5;stroke:#66c2a5;stroke-linejoin:miter;"/>
   </g>
   <g id="patch_20">
    <path clip-path="url(#p445a60ead6)" d="M 110.440678 70.291525 
L 139.118644 70.291525 
L 139.118644 41.613559 
L 110.440678 41.613559 
z
" style="fill:#66c2a5;stroke:#66c2a5;stroke-linejoin:miter;"/>
   </g>
   <g id="patch_21">
    <path clip-path="url(#p445a60ead6)" d="M 110.440678 35.877966 
L 139.118644 35.877966 
L 139.118644 7.2 
L 110.440678 7.2 
z
" style="fill:#66c2a5;stroke:#66c2a5;stroke-linejoin:miter;"/>
   </g>
   <g id="patch_22">
    <path clip-path="url(#p445a60ead6)" d="M 144.854237 173.532203 
L 173.532203 173.532203 
L 173.532203 144.854237 
L 144.854237 144.854237 
z
" style="fill:#66c2a5;stroke:#66c2a5;stroke-linejoin:miter;"/>
   </g>
   <g id="patch_23">
    <path clip-path="url(#p445a60ead6)" d="M 144.854237 139.118644 
L 173.532203 139.118644 
L 173.532203 110.440678 
L 144.854237 110.440678 
z
" style="fill:#66c2a5;stroke:#66c2a5;stroke-linejoin:miter;"/>
   </g>
   <g id="patch_24">
    <path clip-path="url(#p445a60ead6)" d="M 144.854237 104.705085 
L 173.532203 104.705085 
L 173.532203 76.027119 
L 144.854237 76.027119 
z
" style="fill:#66c2a5;stroke:#66c2a5;stroke-linejoin:miter;"/>
   </g>
   <g id="patch_25">
    <path clip-path="url(#p445a60ead6)" d="M 144.854237 70.291525 
L 173.532203 70.291525 
L 173.532203 41.613559 
L 144.854237 41.613559 
z
" style="fill:#66c2a5;stroke:#66c2a5;stroke-linejoin:miter;"/>
   </g>
   <g id="patch_26">
    <path clip-path="url(#p445a60ead6)" d="M 144.854237 35.877966 
L 173.532203 35.877966 
L 173.532203 7.2 
L 144.854237 7.2 
z
" style="fill:#fc8d62;stroke:#fc8d62;stroke-linejoin:miter;"/>
   </g>
   <g id="patch_27">
    <path clip-path="url(#p445a60ead6)" d="M 179.267797 173.532203 
L 207.945763 173.532203 
L 207.945763 144.854237 
L 179.267797 144.854237 
z
" style="fill:#fc8d62;stroke:#fc8d62;stroke-linejoin:miter;"/>
   </g>
   <g id="patch_28">
    <path clip-path="url(#p445a60ead6)" d="M 179.267797 139.118644 
L 207.945763 139.118644 
L 207.945763 110.440678 
L 179.267797 110.440678 
z
" style="fill:#fc8d62;stroke:#fc8d62;stroke-linejoin:miter;"/>
   </g>
   <g id="patch_29">
    <path clip-path="url(#p445a60ead6)" d="M 179.267797 104.705085 
L 207.945763 104.705085 
L 207.945763 76.027119 
L 179.267797 76.027119 
z
" style="fill:#fc8d62;stroke:#fc8d62;stroke-linejoin:miter;"/>
   </g>
   <g id="patch_30">
    <path clip-path="url(#p445a60ead6)" d="M 179.267797 70.291525 
L 207.945763 70.291525 
L 207.945763 41.613559 
L 179.267797 41.613559 
z
" style="fill:#fc8d62;stroke:#fc8d62;stroke-linejoin:miter;"/>
   </g>
   <g id="patch_31">
    <path clip-path="url(#p445a60ead6)" d="M 179.267797 35.877966 
L 207.945763 35.877966 
L 207.945763 7.2 
L 179.267797 7.2 
z
" style="fill:#fc8d62;stroke:#fc8d62;stroke-linejoin:miter;"/>
   </g>
   <g id="patch_32">
    <path clip-path="url(#p445a60ead6)" d="M 213.681356 173.532203 
L 242.359322 173.532203 
L 242.359322 144.854237 
L 213.681356 144.854237 
z
" style="fill:#fc8d62;stroke:#fc8d62;stroke-linejoin:miter;"/>
   </g>
   <g id="patch_33">
    <path clip-path="url(#p445a60ead6)" d="M 213.681356 139.118644 
L 242.359322 139.118644 
L 242.359322 110.440678 
L 213.681356 110.440678 
z
" style="fill:#fc8d62;stroke:#fc8d62;stroke-linejoin:miter;"/>
   </g>
   <g id="patch_34">
    <path clip-path="url(#p445a60ead6)" d="M 213.681356 104.705085 
L 242.359322 104.705085 
L 242.359322 76.027119 
L 213.681356 76.027119 
z
" style="fill:#fc8d62;stroke:#fc8d62;stroke-linejoin:miter;"/>
   </g>
   <g id="patch_35">
    <path clip-path="url(#p445a60ead6)" d="M 213.681356 70.291525 
L 242.359322 70.291525 
L 242.359322 41.613559 
L 213.681356 41.613559 
z
" style="fill:#fc8d62;stroke:#fc8d62;stroke-linejoin:miter;"/>
   </g>
   <g id="patch_36">
    <path clip-path="url(#p445a60ead6)" d="M 213.681356 35.877966 
L 242.359322 35.877966 
L 242.359322 7.2 
L 213.681356 7.2 
z
" style="fill:#fc8d62;stroke:#fc8d62;stroke-linejoin:miter;"/>
   </g>
   <g id="patch_37">
    <path clip-path="url(#p445a60ead6)" d="M 248.094915 173.532203 
L 276.772881 173.532203 
L 276.772881 144.854237 
L 248.094915 144.854237 
z
" style="fill:#fc8d62;stroke:#fc8d62;stroke-linejoin:miter;"/>
   </g>
   <g id="patch_38">
    <path clip-path="url(#p445a60ead6)" d="M 248.094915 139.118644 
L 276.772881 139.118644 
L 276.772881 110.440678 
L 248.094915 110.440678 
z
" style="fill:#fc8d62;stroke:#fc8d62;stroke-linejoin:miter;"/>
   </g>
   <g id="patch_39">
    <path clip-path="url(#p445a60ead6)" d="M 248.094915 104.705085 
L 276.772881 104.705085 
L 276.772881 76.027119 
L 248.094915 76.027119 
z
" style="fill:#fc8d62;stroke:#fc8d62;stroke-linejoin:miter;"/>
   </g>
   <g id="patch_40">
    <path clip-path="url(#p445a60ead6)" d="M 248.094915 70.291525 
L 276.772881 70.291525 
L 276.772881 41.613559 
L 248.094915 41.613559 
z
" style="fill:#fc8d62;stroke:#fc8d62;stroke-linejoin:miter;"/>
   </g>
   <g id="patch_41">
    <path clip-path="url(#p445a60ead6)" d="M 248.094915 35.877966 
L 276.772881 35.877966 
L 276.772881 7.2 
L 248.094915 7.2 
z
" style="fill:#fc8d62;stroke:#fc8d62;stroke-linejoin:miter;"/>
   </g>
   <g id="patch_42">
    <path clip-path="url(#p445a60ead6)" d="M 282.508475 173.532203 
L 311.186441 173.532203 
L 311.186441 144.854237 
L 282.508475 144.854237 
z
" style="fill:#fc8d62;stroke:#fc8d62;stroke-linejoin:miter;"/>
   </g>
   <g id="patch_43">
    <path clip-path="url(#p445a60ead6)" d="M 282.508475 139.118644 
L 311.186441 139.118644 
L 311.186441 110.440678 
L 282.508475 110.440678 
z
" style="fill:#fc8d62;stroke:#fc8d62;stroke-linejoin:miter;"/>
   </g>
   <g id="patch_44">
    <path clip-path="url(#p445a60ead6)" d="M 282.508475 104.705085 
L 311.186441 104.705085 
L 311.186441 76.027119 
L 282.508475 76.027119 
z
" style="fill:#fc8d62;stroke:#fc8d62;stroke-linejoin:miter;"/>
   </g>
   <g id="patch_45">
    <path clip-path="url(#p445a60ead6)" d="M 282.508475 70.291525 
L 311.186441 70.291525 
L 311.186441 41.613559 
L 282.508475 41.613559 
z
" style="fill:#fc8d62;stroke:#fc8d62;stroke-linejoin:miter;"/>
   </g>
   <g id="patch_46">
    <path clip-path="url(#p445a60ead6)" d="M 282.508475 35.877966 
L 311.186441 35.877966 
L 311.186441 7.2 
L 282.508475 7.2 
z
" style="fill:#fc8d62;stroke:#fc8d62;stroke-linejoin:miter;"/>
   </g>
   <g id="patch_47">
    <path clip-path="url(#p445a60ead6)" d="M 316.922034 173.532203 
L 345.6 173.532203 
L 345.6 144.854237 
L 316.922034 144.854237 
z
" style="fill:#fc8d62;stroke:#fc8d62;stroke-linejoin:miter;"/>
   </g>
   <g id="patch_48">
    <path clip-path="url(#p445a60ead6)" d="M 316.922034 139.118644 
L 345.6 139.118644 
L 345.6 110.440678 
L 316.922034 110.440678 
z
" style="fill:#fc8d62;stroke:#fc8d62;stroke-linejoin:miter;"/>
   </g>
   <g id="patch_49">
    <path clip-path="url(#p445a60ead6)" d="M 316.922034 104.705085 
L 345.6 104.705085 
L 345.6 76.027119 
L 316.922034 76.027119 
z
" style="fill:#8da0cb;stroke:#8da0cb;stroke-linejoin:miter;"/>
   </g>
   <g id="patch_50">
    <path clip-path="url(#p445a60ead6)" d="M 316.922034 70.291525 
L 345.6 70.291525 
L 345.6 41.613559 
L 316.922034 41.613559 
z
" style="fill:#8da0cb;stroke:#8da0cb;stroke-linejoin:miter;"/>
   </g>
   <g id="patch_51">
    <path clip-path="url(#p445a60ead6)" d="M 316.922034 35.877966 
L 345.6 35.877966 
L 345.6 7.2 
L 316.922034 7.2 
z
" style="fill:#8da0cb;stroke:#8da0cb;stroke-linejoin:miter;"/>
   </g>
  </g>
 </g>
 <defs>
  <clipPath id="p445a60ead6">
   <rect height="166.332203" width="338.4" x="7.2" y="7.2"/>
  </clipPath>
 </defs>
</svg>
