<?xml version="1.0" encoding="utf-8" standalone="no"?>
<!DOCTYPE svg PUBLIC "-//W3C//DTD SVG 1.1//EN"
  "http://www.w3.org/Graphics/SVG/1.1/DTD/svg11.dtd">
<svg xmlns:xlink="http://www.w3.org/1999/xlink" width="453.6pt" height="98.891938pt" viewBox="0 0 453.6 98.891938" xmlns="http://www.w3.org/2000/svg" version="1.1">
 <metadata>
  <rdf:RDF xmlns:dc="http://purl.org/dc/elements/1.1/" xmlns:cc="http://creativecommons.org/ns#" xmlns:rdf="http://www.w3.org/1999/02/22-rdf-syntax-ns#">
   <cc:Work>
    <dc:type rdf:resource="http://purl.org/dc/dcmitype/StillImage"/>
    <dc:date>2022-06-04T15:24:54.280317</dc:date>
    <dc:format>image/svg+xml</dc:format>
    <dc:creator>
     <cc:Agent>
      <dc:title>Matplotlib v3.5.2, https://matplotlib.org/</dc:title>
     </cc:Agent>
    </dc:creator>
   </cc:Work>
  </rdf:RDF>
 </metadata>
 <defs>
  <style type="text/css">*{stroke-linejoin: round; stroke-linecap: butt}</style>
 </defs>
 <g id="figure_1">
  <g id="patch_1">
   <path d="M 0 98.891938 
L 453.6 98.891938 
L 453.6 0 
L 0 0 
z
" style="fill: #ffffff"/>
  </g>
  <g id="axes_1">
   <g id="text_1">
    <!--  -->
    <g style="fill: #232066" transform="translate(7.2 90.191938)scale(0.12 -0.12)">
     <defs>
      <path id="FontAwesome5Free-Solid-f1ae" d="M 1500 4700 
C 1500 4200 1900 3800 2400 3800 
C 2888 3800 3300 4200 3300 4700 
C 3300 5188 2888 5600 2400 5600 
C 1900 5600 1500 5188 1500 4700 
z
M 4675 4675 
C 4525 4838 4263 4838 4113 4675 
L 3025 3600 
L 1763 3600 
L 675 4675 
C 525 4838 263 4838 113 4675 
C -50 4525 -50 4263 113 4113 
L 1300 2925 
L 1300 -400 
C 1300 -625 1475 -800 1700 -800 
L 1900 -800 
C 2113 -800 2300 -625 2300 -400 
L 2300 1000 
L 2500 1000 
L 2500 -400 
C 2500 -625 2675 -800 2900 -800 
L 3100 -800 
C 3313 -800 3500 -625 3500 -400 
L 3500 2925 
L 4675 4113 
C 4838 4263 4838 4525 4675 4675 
z
" transform="scale(0.015625)"/>
     </defs>
     <use xlink:href="#FontAwesome5Free-Solid-f1ae"/>
    </g>
   </g>
   <g id="text_2">
    <!--  -->
    <g style="fill: #232066" transform="translate(7.2 73.021192)scale(0.12 -0.12)">
     <use xlink:href="#FontAwesome5Free-Solid-f1ae"/>
    </g>
   </g>
   <g id="text_3">
    <!--  -->
    <g style="fill: #232066" transform="translate(7.2 55.850446)scale(0.12 -0.12)">
     <use xlink:href="#FontAwesome5Free-Solid-f1ae"/>
    </g>
   </g>
   <g id="text_4">
    <!--  -->
    <g style="fill: #232066" transform="translate(7.2 38.679701)scale(0.12 -0.12)">
     <use xlink:href="#FontAwesome5Free-Solid-f1ae"/>
    </g>
   </g>
   <g id="text_5">
    <!--  -->
    <g style="fill: #232066" transform="translate(7.2 21.508955)scale(0.12 -0.12)">
     <use xlink:href="#FontAwesome5Free-Solid-f1ae"/>
    </g>
   </g>
   <g id="text_6">
    <!--  -->
    <g style="fill: #232066" transform="translate(24.370746 90.191938)scale(0.12 -0.12)">
     <use xlink:href="#FontAwesome5Free-Solid-f1ae"/>
    </g>
   </g>
   <g id="text_7">
    <!--  -->
    <g style="fill: #232066" transform="translate(24.370746 73.021192)scale(0.12 -0.12)">
     <use xlink:href="#FontAwesome5Free-Solid-f1ae"/>
    </g>
   </g>
   <g id="text_8">
    <!--  -->
    <g style="fill: #232066" transform="translate(24.370746 55.850446)scale(0.12 -0.12)">
     <use xlink:href="#FontAwesome5Free-Solid-f1ae"/>
    </g>
   </g>
   <g id="text_9">
    <!--  -->
    <g style="fill: #232066" transform="translate(24.370746 38.679701)scale(0.12 -0.12)">
     <use xlink:href="#FontAwesome5Free-Solid-f1ae"/>
    </g>
   </g>
   <g id="text_10">
    <!--  -->
    <g style="fill: #232066" transform="translate(24.370746 21.508955)scale(0.12 -0.12)">
     <use xlink:href="#FontAwesome5Free-Solid-f1ae"/>
    </g>
   </g>
   <g id="text_11">
    <!--  -->
    <g style="fill: #232066" transform="translate(41.541492 90.191938)scale(0.12 -0.12)">
     <use xlink:href="#FontAwesome5Free-Solid-f1ae"/>
    </g>
   </g>
   <g id="text_12">
    <!--  -->
    <g style="fill: #232066" transform="translate(41.541492 73.021192)scale(0.12 -0.12)">
     <use xlink:href="#FontAwesome5Free-Solid-f1ae"/>
    </g>
   </g>
   <g id="text_13">
    <!--  -->
    <g style="fill: #232066" transform="translate(41.541492 55.850446)scale(0.12 -0.12)">
     <use xlink:href="#FontAwesome5Free-Solid-f1ae"/>
    </g>
   </g>
   <g id="text_14">
    <!--  -->
    <g style="fill: #232066" transform="translate(41.541492 38.679701)scale(0.12 -0.12)">
     <use xlink:href="#FontAwesome5Free-Solid-f1ae"/>
    </g>
   </g>
   <g id="text_15">
    <!--  -->
    <g style="fill: #232066" transform="translate(41.541492 21.508955)scale(0.12 -0.12)">
     <use xlink:href="#FontAwesome5Free-Solid-f1ae"/>
    </g>
   </g>
   <g id="text_16">
    <!--  -->
    <g style="fill: #232066" transform="translate(58.712237 90.191938)scale(0.12 -0.12)">
     <use xlink:href="#FontAwesome5Free-Solid-f1ae"/>
    </g>
   </g>
   <g id="text_17">
    <!--  -->
    <g style="fill: #232066" transform="translate(58.712237 73.021192)scale(0.12 -0.12)">
     <use xlink:href="#FontAwesome5Free-Solid-f1ae"/>
    </g>
   </g>
   <g id="text_18">
    <!--  -->
    <g style="fill: #232066" transform="translate(58.712237 55.850446)scale(0.12 -0.12)">
     <use xlink:href="#FontAwesome5Free-Solid-f1ae"/>
    </g>
   </g>
   <g id="text_19">
    <!--  -->
    <g style="fill: #232066" transform="translate(58.712237 38.679701)scale(0.12 -0.12)">
     <use xlink:href="#FontAwesome5Free-Solid-f1ae"/>
    </g>
   </g>
   <g id="text_20">
    <!--  -->
    <g style="fill: #232066" transform="translate(58.712237 21.508955)scale(0.12 -0.12)">
     <use xlink:href="#FontAwesome5Free-Solid-f1ae"/>
    </g>
   </g>
   <g id="text_21">
    <!--  -->
    <g style="fill: #232066" transform="translate(75.882983 90.191938)scale(0.12 -0.12)">
     <use xlink:href="#FontAwesome5Free-Solid-f1ae"/>
    </g>
   </g>
   <g id="text_22">
    <!--  -->
    <g style="fill: #232066" transform="translate(75.882983 73.021192)scale(0.12 -0.12)">
     <use xlink:href="#FontAwesome5Free-Solid-f1ae"/>
    </g>
   </g>
   <g id="text_23">
    <!--  -->
    <g style="fill: #232066" transform="translate(75.882983 55.850446)scale(0.12 -0.12)">
     <use xlink:href="#FontAwesome5Free-Solid-f1ae"/>
    </g>
   </g>
   <g id="text_24">
    <!--  -->
    <g style="fill: #232066" transform="translate(75.882983 38.679701)scale(0.12 -0.12)">
     <use xlink:href="#FontAwesome5Free-Solid-f1ae"/>
    </g>
   </g>
   <g id="text_25">
    <!--  -->
    <g style="fill: #232066" transform="translate(75.882983 21.508955)scale(0.12 -0.12)">
     <use xlink:href="#FontAwesome5Free-Solid-f1ae"/>
    </g>
   </g>
   <g id="text_26">
    <!--  -->
    <g style="fill: #232066" transform="translate(93.053729 90.191938)scale(0.12 -0.12)">
     <use xlink:href="#FontAwesome5Free-Solid-f1ae"/>
    </g>
   </g>
   <g id="text_27">
    <!--  -->
    <g style="fill: #232066" transform="translate(93.053729 73.021192)scale(0.12 -0.12)">
     <use xlink:href="#FontAwesome5Free-Solid-f1ae"/>
    </g>
   </g>
   <g id="text_28">
    <!--  -->
    <g style="fill: #232066" transform="translate(93.053729 55.850446)scale(0.12 -0.12)">
     <use xlink:href="#FontAwesome5Free-Solid-f1ae"/>
    </g>
   </g>
   <g id="text_29">
    <!--  -->
    <g style="fill: #232066" transform="translate(93.053729 38.679701)scale(0.12 -0.12)">
     <use xlink:href="#FontAwesome5Free-Solid-f1ae"/>
    </g>
   </g>
   <g id="text_30">
    <!--  -->
    <g style="fill: #232066" transform="translate(93.053729 21.508955)scale(0.12 -0.12)">
     <use xlink:href="#FontAwesome5Free-Solid-f1ae"/>
    </g>
   </g>
   <g id="text_31">
    <!--  -->
    <g style="fill: #232066" transform="translate(110.224475 90.191938)scale(0.12 -0.12)">
     <use xlink:href="#FontAwesome5Free-Solid-f1ae"/>
    </g>
   </g>
   <g id="text_32">
    <!--  -->
    <g style="fill: #232066" transform="translate(110.224475 73.021192)scale(0.12 -0.12)">
     <use xlink:href="#FontAwesome5Free-Solid-f1ae"/>
    </g>
   </g>
   <g id="text_33">
    <!--  -->
    <g style="fill: #232066" transform="translate(110.224475 55.850446)scale(0.12 -0.12)">
     <use xlink:href="#FontAwesome5Free-Solid-f1ae"/>
    </g>
   </g>
   <g id="text_34">
    <!--  -->
    <g style="fill: #232066" transform="translate(110.224475 38.679701)scale(0.12 -0.12)">
     <use xlink:href="#FontAwesome5Free-Solid-f1ae"/>
    </g>
   </g>
   <g id="text_35">
    <!--  -->
    <g style="fill: #232066" transform="translate(110.224475 21.508955)scale(0.12 -0.12)">
     <use xlink:href="#FontAwesome5Free-Solid-f1ae"/>
    </g>
   </g>
   <g id="text_36">
    <!--  -->
    <g style="fill: #232066" transform="translate(127.395221 90.191938)scale(0.12 -0.12)">
     <use xlink:href="#FontAwesome5Free-Solid-f1ae"/>
    </g>
   </g>
   <g id="text_37">
    <!--  -->
    <g style="fill: #232066" transform="translate(127.395221 73.021192)scale(0.12 -0.12)">
     <use xlink:href="#FontAwesome5Free-Solid-f1ae"/>
    </g>
   </g>
   <g id="text_38">
    <!--  -->
    <g style="fill: #232066" transform="translate(127.395221 55.850446)scale(0.12 -0.12)">
     <use xlink:href="#FontAwesome5Free-Solid-f1ae"/>
    </g>
   </g>
   <g id="text_39">
    <!--  -->
    <g style="fill: #232066" transform="translate(127.395221 38.679701)scale(0.12 -0.12)">
     <use xlink:href="#FontAwesome5Free-Solid-f1ae"/>
    </g>
   </g>
   <g id="text_40">
    <!--  -->
    <g style="fill: #232066" transform="translate(127.395221 21.508955)scale(0.12 -0.12)">
     <use xlink:href="#FontAwesome5Free-Solid-f1ae"/>
    </g>
   </g>
   <g id="text_41">
    <!--  -->
    <g style="fill: #232066" transform="translate(144.565966 90.191938)scale(0.12 -0.12)">
     <use xlink:href="#FontAwesome5Free-Solid-f1ae"/>
    </g>
   </g>
   <g id="text_42">
    <!--  -->
    <g style="fill: #232066" transform="translate(144.565966 73.021192)scale(0.12 -0.12)">
     <use xlink:href="#FontAwesome5Free-Solid-f1ae"/>
    </g>
   </g>
   <g id="text_43">
    <!--  -->
    <g style="fill: #232066" transform="translate(144.565966 55.850446)scale(0.12 -0.12)">
     <use xlink:href="#FontAwesome5Free-Solid-f1ae"/>
    </g>
   </g>
   <g id="text_44">
    <!--  -->
    <g style="fill: #232066" transform="translate(144.565966 38.679701)scale(0.12 -0.12)">
     <use xlink:href="#FontAwesome5Free-Solid-f1ae"/>
    </g>
   </g>
   <g id="text_45">
    <!--  -->
    <g style="fill: #232066" transform="translate(144.565966 21.508955)scale(0.12 -0.12)">
     <use xlink:href="#FontAwesome5Free-Solid-f1ae"/>
    </g>
   </g>
   <g id="text_46">
    <!--  -->
    <g style="fill: #232066" transform="translate(161.736712 90.191938)scale(0.12 -0.12)">
     <use xlink:href="#FontAwesome5Free-Solid-f1ae"/>
    </g>
   </g>
   <g id="text_47">
    <!--  -->
    <g style="fill: #232066" transform="translate(161.736712 73.021192)scale(0.12 -0.12)">
     <use xlink:href="#FontAwesome5Free-Solid-f1ae"/>
    </g>
   </g>
   <g id="text_48">
    <!--  -->
    <g style="fill: #232066" transform="translate(161.736712 55.850446)scale(0.12 -0.12)">
     <use xlink:href="#FontAwesome5Free-Solid-f1ae"/>
    </g>
   </g>
   <g id="text_49">
    <!--  -->
    <g style="fill: #983d3d" transform="translate(161.736712 38.679701)scale(0.12 -0.12)">
     <use xlink:href="#FontAwesome5Free-Solid-f1ae"/>
    </g>
   </g>
   <g id="text_50">
    <!--  -->
    <g style="fill: #983d3d" transform="translate(161.736712 21.508955)scale(0.12 -0.12)">
     <use xlink:href="#FontAwesome5Free-Solid-f1ae"/>
    </g>
   </g>
   <g id="text_51">
    <!--  -->
    <g style="fill: #983d3d" transform="translate(178.907458 90.191938)scale(0.12 -0.12)">
     <use xlink:href="#FontAwesome5Free-Solid-f1ae"/>
    </g>
   </g>
   <g id="text_52">
    <!--  -->
    <g style="fill: #983d3d" transform="translate(178.907458 73.021192)scale(0.12 -0.12)">
     <use xlink:href="#FontAwesome5Free-Solid-f1ae"/>
    </g>
   </g>
   <g id="text_53">
    <!--  -->
    <g style="fill: #983d3d" transform="translate(178.907458 55.850446)scale(0.12 -0.12)">
     <use xlink:href="#FontAwesome5Free-Solid-f1ae"/>
    </g>
   </g>
   <g id="text_54">
    <!--  -->
    <g style="fill: #983d3d" transform="translate(178.907458 38.679701)scale(0.12 -0.12)">
     <use xlink:href="#FontAwesome5Free-Solid-f1ae"/>
    </g>
   </g>
   <g id="text_55">
    <!--  -->
    <g style="fill: #983d3d" transform="translate(178.907458 21.508955)scale(0.12 -0.12)">
     <use xlink:href="#FontAwesome5Free-Solid-f1ae"/>
    </g>
   </g>
   <g id="text_56">
    <!--  -->
    <g style="fill: #983d3d" transform="translate(196.078204 90.191938)scale(0.12 -0.12)">
     <use xlink:href="#FontAwesome5Free-Solid-f1ae"/>
    </g>
   </g>
   <g id="text_57">
    <!--  -->
    <g style="fill: #983d3d" transform="translate(196.078204 73.021192)scale(0.12 -0.12)">
     <use xlink:href="#FontAwesome5Free-Solid-f1ae"/>
    </g>
   </g>
   <g id="text_58">
    <!--  -->
    <g style="fill: #983d3d" transform="translate(196.078204 55.850446)scale(0.12 -0.12)">
     <use xlink:href="#FontAwesome5Free-Solid-f1ae"/>
    </g>
   </g>
   <g id="text_59">
    <!--  -->
    <g style="fill: #983d3d" transform="translate(196.078204 38.679701)scale(0.12 -0.12)">
     <use xlink:href="#FontAwesome5Free-Solid-f1ae"/>
    </g>
   </g>
   <g id="text_60">
    <!--  -->
    <g style="fill: #983d3d" transform="translate(196.078204 21.508955)scale(0.12 -0.12)">
     <use xlink:href="#FontAwesome5Free-Solid-f1ae"/>
    </g>
   </g>
   <g id="text_61">
    <!--  -->
    <g style="fill: #983d3d" transform="translate(213.24895 90.191938)scale(0.12 -0.12)">
     <use xlink:href="#FontAwesome5Free-Solid-f1ae"/>
    </g>
   </g>
   <g id="text_62">
    <!--  -->
    <g style="fill: #983d3d" transform="translate(213.24895 73.021192)scale(0.12 -0.12)">
     <use xlink:href="#FontAwesome5Free-Solid-f1ae"/>
    </g>
   </g>
   <g id="text_63">
    <!--  -->
    <g style="fill: #983d3d" transform="translate(213.24895 55.850446)scale(0.12 -0.12)">
     <use xlink:href="#FontAwesome5Free-Solid-f1ae"/>
    </g>
   </g>
   <g id="text_64">
    <!--  -->
    <g style="fill: #983d3d" transform="translate(213.24895 38.679701)scale(0.12 -0.12)">
     <use xlink:href="#FontAwesome5Free-Solid-f1ae"/>
    </g>
   </g>
   <g id="text_65">
    <!--  -->
    <g style="fill: #983d3d" transform="translate(213.24895 21.508955)scale(0.12 -0.12)">
     <use xlink:href="#FontAwesome5Free-Solid-f1ae"/>
    </g>
   </g>
   <g id="text_66">
    <!--  -->
    <g style="fill: #983d3d" transform="translate(230.419695 90.191938)scale(0.12 -0.12)">
     <use xlink:href="#FontAwesome5Free-Solid-f1ae"/>
    </g>
   </g>
   <g id="text_67">
    <!--  -->
    <g style="fill: #983d3d" transform="translate(230.419695 73.021192)scale(0.12 -0.12)">
     <use xlink:href="#FontAwesome5Free-Solid-f1ae"/>
    </g>
   </g>
   <g id="text_68">
    <!--  -->
    <g style="fill: #983d3d" transform="translate(230.419695 55.850446)scale(0.12 -0.12)">
     <use xlink:href="#FontAwesome5Free-Solid-f1ae"/>
    </g>
   </g>
   <g id="text_69">
    <!--  -->
    <g style="fill: #983d3d" transform="translate(230.419695 38.679701)scale(0.12 -0.12)">
     <use xlink:href="#FontAwesome5Free-Solid-f1ae"/>
    </g>
   </g>
   <g id="text_70">
    <!--  -->
    <g style="fill: #983d3d" transform="translate(230.419695 21.508955)scale(0.12 -0.12)">
     <use xlink:href="#FontAwesome5Free-Solid-f1ae"/>
    </g>
   </g>
   <g id="text_71">
    <!--  -->
    <g style="fill: #983d3d" transform="translate(247.590441 90.191938)scale(0.12 -0.12)">
     <use xlink:href="#FontAwesome5Free-Solid-f1ae"/>
    </g>
   </g>
   <g id="text_72">
    <!--  -->
    <g style="fill: #983d3d" transform="translate(247.590441 73.021192)scale(0.12 -0.12)">
     <use xlink:href="#FontAwesome5Free-Solid-f1ae"/>
    </g>
   </g>
   <g id="text_73">
    <!--  -->
    <g style="fill: #983d3d" transform="translate(247.590441 55.850446)scale(0.12 -0.12)">
     <use xlink:href="#FontAwesome5Free-Solid-f1ae"/>
    </g>
   </g>
   <g id="text_74">
    <!--  -->
    <g style="fill: #983d3d" transform="translate(247.590441 38.679701)scale(0.12 -0.12)">
     <use xlink:href="#FontAwesome5Free-Solid-f1ae"/>
    </g>
   </g>
   <g id="text_75">
    <!--  -->
    <g style="fill: #983d3d" transform="translate(247.590441 21.508955)scale(0.12 -0.12)">
     <use xlink:href="#FontAwesome5Free-Solid-f1ae"/>
    </g>
   </g>
   <g id="text_76">
    <!--  -->
    <g style="fill: #983d3d" transform="translate(264.761187 90.191938)scale(0.12 -0.12)">
     <use xlink:href="#FontAwesome5Free-Solid-f1ae"/>
    </g>
   </g>
   <g id="text_77">
    <!--  -->
    <g style="fill: #983d3d" transform="translate(264.761187 73.021192)scale(0.12 -0.12)">
     <use xlink:href="#FontAwesome5Free-Solid-f1ae"/>
    </g>
   </g>
   <g id="text_78">
    <!--  -->
    <g style="fill: #983d3d" transform="translate(264.761187 55.850446)scale(0.12 -0.12)">
     <use xlink:href="#FontAwesome5Free-Solid-f1ae"/>
    </g>
   </g>
   <g id="text_79">
    <!--  -->
    <g style="fill: #983d3d" transform="translate(264.761187 38.679701)scale(0.12 -0.12)">
     <use xlink:href="#FontAwesome5Free-Solid-f1ae"/>
    </g>
   </g>
   <g id="text_80">
    <!--  -->
    <g style="fill: #983d3d" transform="translate(264.761187 21.508955)scale(0.12 -0.12)">
     <use xlink:href="#FontAwesome5Free-Solid-f1ae"/>
    </g>
   </g>
   <g id="text_81">
    <!--  -->
    <g style="fill: #983d3d" transform="translate(281.931933 90.191938)scale(0.12 -0.12)">
     <use xlink:href="#FontAwesome5Free-Solid-f1ae"/>
    </g>
   </g>
   <g id="text_82">
    <!--  -->
    <g style="fill: #983d3d" transform="translate(281.931933 73.021192)scale(0.12 -0.12)">
     <use xlink:href="#FontAwesome5Free-Solid-f1ae"/>
    </g>
   </g>
   <g id="text_83">
    <!--  -->
    <g style="fill: #983d3d" transform="translate(281.931933 55.850446)scale(0.12 -0.12)">
     <use xlink:href="#FontAwesome5Free-Solid-f1ae"/>
    </g>
   </g>
   <g id="text_84">
    <!--  -->
    <g style="fill: #983d3d" transform="translate(281.931933 38.679701)scale(0.12 -0.12)">
     <use xlink:href="#FontAwesome5Free-Solid-f1ae"/>
    </g>
   </g>
   <g id="text_85">
    <!--  -->
    <g style="fill: #983d3d" transform="translate(281.931933 21.508955)scale(0.12 -0.12)">
     <use xlink:href="#FontAwesome5Free-Solid-f1ae"/>
    </g>
   </g>
   <g id="text_86">
    <!--  -->
    <g style="fill: #983d3d" transform="translate(299.102679 90.191938)scale(0.12 -0.12)">
     <use xlink:href="#FontAwesome5Free-Solid-f1ae"/>
    </g>
   </g>
   <g id="text_87">
    <!--  -->
    <g style="fill: #983d3d" transform="translate(299.102679 73.021192)scale(0.12 -0.12)">
     <use xlink:href="#FontAwesome5Free-Solid-f1ae"/>
    </g>
   </g>
   <g id="text_88">
    <!--  -->
    <g style="fill: #983d3d" transform="translate(299.102679 55.850446)scale(0.12 -0.12)">
     <use xlink:href="#FontAwesome5Free-Solid-f1ae"/>
    </g>
   </g>
   <g id="text_89">
    <!--  -->
    <g style="fill: #983d3d" transform="translate(299.102679 38.679701)scale(0.12 -0.12)">
     <use xlink:href="#FontAwesome5Free-Solid-f1ae"/>
    </g>
   </g>
   <g id="text_90">
    <!--  -->
    <g style="fill: #983d3d" transform="translate(299.102679 21.508955)scale(0.12 -0.12)">
     <use xlink:href="#FontAwesome5Free-Solid-f1ae"/>
    </g>
   </g>
   <g id="text_91">
    <!--  -->
    <g style="fill: #983d3d" transform="translate(316.273424 90.191938)scale(0.12 -0.12)">
     <use xlink:href="#FontAwesome5Free-Solid-f1ae"/>
    </g>
   </g>
   <g id="text_92">
    <!--  -->
    <g style="fill: #983d3d" transform="translate(316.273424 73.021192)scale(0.12 -0.12)">
     <use xlink:href="#FontAwesome5Free-Solid-f1ae"/>
    </g>
   </g>
   <g id="text_93">
    <!--  -->
    <g style="fill: #983d3d" transform="translate(316.273424 55.850446)scale(0.12 -0.12)">
     <use xlink:href="#FontAwesome5Free-Solid-f1ae"/>
    </g>
   </g>
   <g id="text_94">
    <!--  -->
    <g style="fill: #983d3d" transform="translate(316.273424 38.679701)scale(0.12 -0.12)">
     <use xlink:href="#FontAwesome5Free-Solid-f1ae"/>
    </g>
   </g>
   <g id="text_95">
    <!--  -->
    <g style="fill: #dcb732" transform="translate(316.273424 21.508955)scale(0.12 -0.12)">
     <use xlink:href="#FontAwesome5Free-Solid-f1ae"/>
    </g>
   </g>
   <g id="text_96">
    <!--  -->
    <g style="fill: #dcb732" transform="translate(333.44417 90.191938)scale(0.12 -0.12)">
     <use xlink:href="#FontAwesome5Free-Solid-f1ae"/>
    </g>
   </g>
   <g id="text_97">
    <!--  -->
    <g style="fill: #dcb732" transform="translate(333.44417 73.021192)scale(0.12 -0.12)">
     <use xlink:href="#FontAwesome5Free-Solid-f1ae"/>
    </g>
   </g>
   <g id="legend_1">
    <g id="patch_2">
     <path d="M 354.753125 59.234375 
L 444.4 59.234375 
Q 446.4 59.234375 446.4 57.234375 
L 446.4 14.2 
Q 446.4 12.2 444.4 12.2 
L 354.753125 12.2 
Q 352.753125 12.2 352.753125 14.2 
L 352.753125 57.234375 
Q 352.753125 59.234375 354.753125 59.234375 
z
" style="fill: #ffffff; opacity: 0.8; stroke: #cccccc; stroke-linejoin: miter"/>
    </g>
    <g id="text_98">
     <!--  -->
     <g style="fill: #232066" transform="translate(363.003125 24.048438)scale(0.1 -0.1)">
      <use xlink:href="#FontAwesome5Free-Solid-f1ae"/>
     </g>
    </g>
    <g id="text_99">
     <!-- Democratic -->
     <g transform="translate(384.753125 23.798438)scale(0.1 -0.1)">
      <defs>
       <path id="DejaVuSans-44" d="M 1259 4147 
L 1259 519 
L 2022 519 
Q 2988 519 3436 956 
Q 3884 1394 3884 2338 
Q 3884 3275 3436 3711 
Q 2988 4147 2022 4147 
L 1259 4147 
z
M 628 4666 
L 1925 4666 
Q 3281 4666 3915 4102 
Q 4550 3538 4550 2338 
Q 4550 1131 3912 565 
Q 3275 0 1925 0 
L 628 0 
L 628 4666 
z
" transform="scale(0.015625)"/>
       <path id="DejaVuSans-65" d="M 3597 1894 
L 3597 1613 
L 953 1613 
Q 991 1019 1311 708 
Q 1631 397 2203 397 
Q 2534 397 2845 478 
Q 3156 559 3463 722 
L 3463 178 
Q 3153 47 2828 -22 
Q 2503 -91 2169 -91 
Q 1331 -91 842 396 
Q 353 884 353 1716 
Q 353 2575 817 3079 
Q 1281 3584 2069 3584 
Q 2775 3584 3186 3129 
Q 3597 2675 3597 1894 
z
M 3022 2063 
Q 3016 2534 2758 2815 
Q 2500 3097 2075 3097 
Q 1594 3097 1305 2825 
Q 1016 2553 972 2059 
L 3022 2063 
z
" transform="scale(0.015625)"/>
       <path id="DejaVuSans-6d" d="M 3328 2828 
Q 3544 3216 3844 3400 
Q 4144 3584 4550 3584 
Q 5097 3584 5394 3201 
Q 5691 2819 5691 2113 
L 5691 0 
L 5113 0 
L 5113 2094 
Q 5113 2597 4934 2840 
Q 4756 3084 4391 3084 
Q 3944 3084 3684 2787 
Q 3425 2491 3425 1978 
L 3425 0 
L 2847 0 
L 2847 2094 
Q 2847 2600 2669 2842 
Q 2491 3084 2119 3084 
Q 1678 3084 1418 2786 
Q 1159 2488 1159 1978 
L 1159 0 
L 581 0 
L 581 3500 
L 1159 3500 
L 1159 2956 
Q 1356 3278 1631 3431 
Q 1906 3584 2284 3584 
Q 2666 3584 2933 3390 
Q 3200 3197 3328 2828 
z
" transform="scale(0.015625)"/>
       <path id="DejaVuSans-6f" d="M 1959 3097 
Q 1497 3097 1228 2736 
Q 959 2375 959 1747 
Q 959 1119 1226 758 
Q 1494 397 1959 397 
Q 2419 397 2687 759 
Q 2956 1122 2956 1747 
Q 2956 2369 2687 2733 
Q 2419 3097 1959 3097 
z
M 1959 3584 
Q 2709 3584 3137 3096 
Q 3566 2609 3566 1747 
Q 3566 888 3137 398 
Q 2709 -91 1959 -91 
Q 1206 -91 779 398 
Q 353 888 353 1747 
Q 353 2609 779 3096 
Q 1206 3584 1959 3584 
z
" transform="scale(0.015625)"/>
       <path id="DejaVuSans-63" d="M 3122 3366 
L 3122 2828 
Q 2878 2963 2633 3030 
Q 2388 3097 2138 3097 
Q 1578 3097 1268 2742 
Q 959 2388 959 1747 
Q 959 1106 1268 751 
Q 1578 397 2138 397 
Q 2388 397 2633 464 
Q 2878 531 3122 666 
L 3122 134 
Q 2881 22 2623 -34 
Q 2366 -91 2075 -91 
Q 1284 -91 818 406 
Q 353 903 353 1747 
Q 353 2603 823 3093 
Q 1294 3584 2113 3584 
Q 2378 3584 2631 3529 
Q 2884 3475 3122 3366 
z
" transform="scale(0.015625)"/>
       <path id="DejaVuSans-72" d="M 2631 2963 
Q 2534 3019 2420 3045 
Q 2306 3072 2169 3072 
Q 1681 3072 1420 2755 
Q 1159 2438 1159 1844 
L 1159 0 
L 581 0 
L 581 3500 
L 1159 3500 
L 1159 2956 
Q 1341 3275 1631 3429 
Q 1922 3584 2338 3584 
Q 2397 3584 2469 3576 
Q 2541 3569 2628 3553 
L 2631 2963 
z
" transform="scale(0.015625)"/>
       <path id="DejaVuSans-61" d="M 2194 1759 
Q 1497 1759 1228 1600 
Q 959 1441 959 1056 
Q 959 750 1161 570 
Q 1363 391 1709 391 
Q 2188 391 2477 730 
Q 2766 1069 2766 1631 
L 2766 1759 
L 2194 1759 
z
M 3341 1997 
L 3341 0 
L 2766 0 
L 2766 531 
Q 2569 213 2275 61 
Q 1981 -91 1556 -91 
Q 1019 -91 701 211 
Q 384 513 384 1019 
Q 384 1609 779 1909 
Q 1175 2209 1959 2209 
L 2766 2209 
L 2766 2266 
Q 2766 2663 2505 2880 
Q 2244 3097 1772 3097 
Q 1472 3097 1187 3025 
Q 903 2953 641 2809 
L 641 3341 
Q 956 3463 1253 3523 
Q 1550 3584 1831 3584 
Q 2591 3584 2966 3190 
Q 3341 2797 3341 1997 
z
" transform="scale(0.015625)"/>
       <path id="DejaVuSans-74" d="M 1172 4494 
L 1172 3500 
L 2356 3500 
L 2356 3053 
L 1172 3053 
L 1172 1153 
Q 1172 725 1289 603 
Q 1406 481 1766 481 
L 2356 481 
L 2356 0 
L 1766 0 
Q 1100 0 847 248 
Q 594 497 594 1153 
L 594 3053 
L 172 3053 
L 172 3500 
L 594 3500 
L 594 4494 
L 1172 4494 
z
" transform="scale(0.015625)"/>
       <path id="DejaVuSans-69" d="M 603 3500 
L 1178 3500 
L 1178 0 
L 603 0 
L 603 3500 
z
M 603 4863 
L 1178 4863 
L 1178 4134 
L 603 4134 
L 603 4863 
z
" transform="scale(0.015625)"/>
      </defs>
      <use xlink:href="#DejaVuSans-44"/>
      <use xlink:href="#DejaVuSans-65" x="77.001953"/>
      <use xlink:href="#DejaVuSans-6d" x="138.525391"/>
      <use xlink:href="#DejaVuSans-6f" x="235.9375"/>
      <use xlink:href="#DejaVuSans-63" x="297.119141"/>
      <use xlink:href="#DejaVuSans-72" x="352.099609"/>
      <use xlink:href="#DejaVuSans-61" x="393.212891"/>
      <use xlink:href="#DejaVuSans-74" x="454.492188"/>
      <use xlink:href="#DejaVuSans-69" x="493.701172"/>
      <use xlink:href="#DejaVuSans-63" x="521.484375"/>
     </g>
    </g>
    <g id="text_100">
     <!--  -->
     <g style="fill: #983d3d" transform="translate(363.003125 38.726563)scale(0.1 -0.1)">
      <use xlink:href="#FontAwesome5Free-Solid-f1ae"/>
     </g>
    </g>
    <g id="text_101">
     <!-- Republican -->
     <g transform="translate(384.753125 38.476563)scale(0.1 -0.1)">
      <defs>
       <path id="DejaVuSans-52" d="M 2841 2188 
Q 3044 2119 3236 1894 
Q 3428 1669 3622 1275 
L 4263 0 
L 3584 0 
L 2988 1197 
Q 2756 1666 2539 1819 
Q 2322 1972 1947 1972 
L 1259 1972 
L 1259 0 
L 628 0 
L 628 4666 
L 2053 4666 
Q 2853 4666 3247 4331 
Q 3641 3997 3641 3322 
Q 3641 2881 3436 2590 
Q 3231 2300 2841 2188 
z
M 1259 4147 
L 1259 2491 
L 2053 2491 
Q 2509 2491 2742 2702 
Q 2975 2913 2975 3322 
Q 2975 3731 2742 3939 
Q 2509 4147 2053 4147 
L 1259 4147 
z
" transform="scale(0.015625)"/>
       <path id="DejaVuSans-70" d="M 1159 525 
L 1159 -1331 
L 581 -1331 
L 581 3500 
L 1159 3500 
L 1159 2969 
Q 1341 3281 1617 3432 
Q 1894 3584 2278 3584 
Q 2916 3584 3314 3078 
Q 3713 2572 3713 1747 
Q 3713 922 3314 415 
Q 2916 -91 2278 -91 
Q 1894 -91 1617 61 
Q 1341 213 1159 525 
z
M 3116 1747 
Q 3116 2381 2855 2742 
Q 2594 3103 2138 3103 
Q 1681 3103 1420 2742 
Q 1159 2381 1159 1747 
Q 1159 1113 1420 752 
Q 1681 391 2138 391 
Q 2594 391 2855 752 
Q 3116 1113 3116 1747 
z
" transform="scale(0.015625)"/>
       <path id="DejaVuSans-75" d="M 544 1381 
L 544 3500 
L 1119 3500 
L 1119 1403 
Q 1119 906 1312 657 
Q 1506 409 1894 409 
Q 2359 409 2629 706 
Q 2900 1003 2900 1516 
L 2900 3500 
L 3475 3500 
L 3475 0 
L 2900 0 
L 2900 538 
Q 2691 219 2414 64 
Q 2138 -91 1772 -91 
Q 1169 -91 856 284 
Q 544 659 544 1381 
z
M 1991 3584 
L 1991 3584 
z
" transform="scale(0.015625)"/>
       <path id="DejaVuSans-62" d="M 3116 1747 
Q 3116 2381 2855 2742 
Q 2594 3103 2138 3103 
Q 1681 3103 1420 2742 
Q 1159 2381 1159 1747 
Q 1159 1113 1420 752 
Q 1681 391 2138 391 
Q 2594 391 2855 752 
Q 3116 1113 3116 1747 
z
M 1159 2969 
Q 1341 3281 1617 3432 
Q 1894 3584 2278 3584 
Q 2916 3584 3314 3078 
Q 3713 2572 3713 1747 
Q 3713 922 3314 415 
Q 2916 -91 2278 -91 
Q 1894 -91 1617 61 
Q 1341 213 1159 525 
L 1159 0 
L 581 0 
L 581 4863 
L 1159 4863 
L 1159 2969 
z
" transform="scale(0.015625)"/>
       <path id="DejaVuSans-6c" d="M 603 4863 
L 1178 4863 
L 1178 0 
L 603 0 
L 603 4863 
z
" transform="scale(0.015625)"/>
       <path id="DejaVuSans-6e" d="M 3513 2113 
L 3513 0 
L 2938 0 
L 2938 2094 
Q 2938 2591 2744 2837 
Q 2550 3084 2163 3084 
Q 1697 3084 1428 2787 
Q 1159 2491 1159 1978 
L 1159 0 
L 581 0 
L 581 3500 
L 1159 3500 
L 1159 2956 
Q 1366 3272 1645 3428 
Q 1925 3584 2291 3584 
Q 2894 3584 3203 3211 
Q 3513 2838 3513 2113 
z
" transform="scale(0.015625)"/>
      </defs>
      <use xlink:href="#DejaVuSans-52"/>
      <use xlink:href="#DejaVuSans-65" x="64.982422"/>
      <use xlink:href="#DejaVuSans-70" x="126.505859"/>
      <use xlink:href="#DejaVuSans-75" x="189.982422"/>
      <use xlink:href="#DejaVuSans-62" x="253.361328"/>
      <use xlink:href="#DejaVuSans-6c" x="316.837891"/>
      <use xlink:href="#DejaVuSans-69" x="344.621094"/>
      <use xlink:href="#DejaVuSans-63" x="372.404297"/>
      <use xlink:href="#DejaVuSans-61" x="427.384766"/>
      <use xlink:href="#DejaVuSans-6e" x="488.664062"/>
     </g>
    </g>
    <g id="text_102">
     <!--  -->
     <g style="fill: #dcb732" transform="translate(363.003125 53.404688)scale(0.1 -0.1)">
      <use xlink:href="#FontAwesome5Free-Solid-f1ae"/>
     </g>
    </g>
    <g id="text_103">
     <!-- Libertarian -->
     <g transform="translate(384.753125 53.154688)scale(0.1 -0.1)">
      <defs>
       <path id="DejaVuSans-4c" d="M 628 4666 
L 1259 4666 
L 1259 531 
L 3531 531 
L 3531 0 
L 628 0 
L 628 4666 
z
" transform="scale(0.015625)"/>
      </defs>
      <use xlink:href="#DejaVuSans-4c"/>
      <use xlink:href="#DejaVuSans-69" x="55.712891"/>
      <use xlink:href="#DejaVuSans-62" x="83.496094"/>
      <use xlink:href="#DejaVuSans-65" x="146.972656"/>
      <use xlink:href="#DejaVuSans-72" x="208.496094"/>
      <use xlink:href="#DejaVuSans-74" x="249.609375"/>
      <use xlink:href="#DejaVuSans-61" x="288.818359"/>
      <use xlink:href="#DejaVuSans-72" x="350.097656"/>
      <use xlink:href="#DejaVuSans-69" x="391.210938"/>
      <use xlink:href="#DejaVuSans-61" x="418.994141"/>
      <use xlink:href="#DejaVuSans-6e" x="480.273438"/>
     </g>
    </g>
   </g>
  </g>
 </g>
</svg>
