<?xml version="1.0" encoding="utf-8" standalone="no"?>
<!DOCTYPE svg PUBLIC "-//W3C//DTD SVG 1.1//EN"
  "http://www.w3.org/Graphics/SVG/1.1/DTD/svg11.dtd">
<svg xmlns:xlink="http://www.w3.org/1999/xlink" width="453.6pt" height="99.654254pt" viewBox="0 0 453.6 99.654254" xmlns="http://www.w3.org/2000/svg" version="1.1">
 <metadata>
  <rdf:RDF xmlns:dc="http://purl.org/dc/elements/1.1/" xmlns:cc="http://creativecommons.org/ns#" xmlns:rdf="http://www.w3.org/1999/02/22-rdf-syntax-ns#">
   <cc:Work>
    <dc:type rdf:resource="http://purl.org/dc/dcmitype/StillImage"/>
    <dc:date>2022-06-05T10:24:41.144965</dc:date>
    <dc:format>image/svg+xml</dc:format>
    <dc:creator>
     <cc:Agent>
      <dc:title>Matplotlib v3.5.2, https://matplotlib.org/</dc:title>
     </cc:Agent>
    </dc:creator>
   </cc:Work>
  </rdf:RDF>
 </metadata>
 <defs>
  <style type="text/css">*{stroke-linejoin: round; stroke-linecap: butt}</style>
 </defs>
 <g id="figure_1">
  <g id="patch_1">
   <path d="M 0 99.654254 
L 453.6 99.654254 
L 453.6 0 
L 0 0 
z
" style="fill: #ffffff"/>
  </g>
  <g id="axes_1">
   <g id="text_1">
    <!--  -->
    <g style="fill: #c1d82f" transform="translate(7.2 90.954254)scale(0.12 -0.12)">
     <defs>
      <path id="FontAwesome6Free-Solid-f5e4" d="M 8000 1600 
L 8000 1000 
C 8000 775 7813 600 7600 600 
L 7175 600 
C 7088 25 6588 -400 6000 -400 
C 5400 -400 4900 25 4813 600 
L 3175 600 
C 3088 25 2588 -400 2000 -400 
C 1400 -400 900 25 813 600 
L 400 600 
C 175 600 0 775 0 1000 
L 0 2400 
C 0 2738 200 3025 500 3138 
L 1025 4438 
C 1200 4900 1650 5200 2138 5200 
L 4413 5200 
C 4775 5200 5113 5025 5350 4738 
L 6600 3188 
C 7388 3088 8000 2413 8000 1600 
L 8000 1600 
z
M 2138 4400 
C 1975 4400 1825 4300 1763 4138 
L 1388 3200 
L 2800 3200 
L 2800 4400 
L 2138 4400 
z
M 3400 3200 
L 5563 3200 
L 4725 4250 
C 4650 4338 4525 4400 4413 4400 
L 3400 4400 
L 3400 3200 
z
M 6563 600 
C 6588 663 6600 725 6600 800 
C 6600 1125 6325 1400 6000 1400 
C 5663 1400 5400 1125 5400 800 
C 5400 725 5400 663 5425 600 
C 5513 363 5738 200 6000 200 
C 6250 200 6475 363 6563 600 
z
M 2563 600 
C 2588 663 2600 725 2600 800 
C 2600 1125 2325 1400 2000 1400 
C 1663 1400 1400 1125 1400 800 
C 1400 725 1400 663 1425 600 
C 1513 363 1738 200 2000 200 
C 2250 200 2475 363 2563 600 
z
" transform="scale(0.015625)"/>
     </defs>
     <use xlink:href="#FontAwesome6Free-Solid-f5e4"/>
    </g>
   </g>
   <g id="text_2">
    <!--  -->
    <g style="fill: #c1d82f" transform="translate(7.2 73.625788)scale(0.12 -0.12)">
     <use xlink:href="#FontAwesome6Free-Solid-f5e4"/>
    </g>
   </g>
   <g id="text_3">
    <!--  -->
    <g style="fill: #c1d82f" transform="translate(7.2 56.297321)scale(0.12 -0.12)">
     <use xlink:href="#FontAwesome6Free-Solid-f5e4"/>
    </g>
   </g>
   <g id="text_4">
    <!--  -->
    <g style="fill: #c1d82f" transform="translate(7.2 38.968855)scale(0.12 -0.12)">
     <use xlink:href="#FontAwesome6Free-Solid-f5e4"/>
    </g>
   </g>
   <g id="text_5">
    <!--  -->
    <g style="fill: #c1d82f" transform="translate(7.2 21.640389)scale(0.12 -0.12)">
     <use xlink:href="#FontAwesome6Free-Solid-f5e4"/>
    </g>
   </g>
   <g id="text_6">
    <!--  -->
    <g style="fill: #c1d82f" transform="translate(24.528466 90.954254)scale(0.12 -0.12)">
     <use xlink:href="#FontAwesome6Free-Solid-f5e4"/>
    </g>
   </g>
   <g id="text_7">
    <!--  -->
    <g style="fill: #c1d82f" transform="translate(24.528466 73.625788)scale(0.12 -0.12)">
     <use xlink:href="#FontAwesome6Free-Solid-f5e4"/>
    </g>
   </g>
   <g id="text_8">
    <!--  -->
    <g style="fill: #c1d82f" transform="translate(24.528466 56.297321)scale(0.12 -0.12)">
     <use xlink:href="#FontAwesome6Free-Solid-f5e4"/>
    </g>
   </g>
   <g id="text_9">
    <!--  -->
    <g style="fill: #c1d82f" transform="translate(24.528466 38.968855)scale(0.12 -0.12)">
     <use xlink:href="#FontAwesome6Free-Solid-f5e4"/>
    </g>
   </g>
   <g id="text_10">
    <!--  -->
    <g style="fill: #c1d82f" transform="translate(24.528466 21.640389)scale(0.12 -0.12)">
     <use xlink:href="#FontAwesome6Free-Solid-f5e4"/>
    </g>
   </g>
   <g id="text_11">
    <!--  -->
    <g style="fill: #c1d82f" transform="translate(41.856933 90.954254)scale(0.12 -0.12)">
     <use xlink:href="#FontAwesome6Free-Solid-f5e4"/>
    </g>
   </g>
   <g id="text_12">
    <!--  -->
    <g style="fill: #c1d82f" transform="translate(41.856933 73.625788)scale(0.12 -0.12)">
     <use xlink:href="#FontAwesome6Free-Solid-f5e4"/>
    </g>
   </g>
   <g id="text_13">
    <!--  -->
    <g style="fill: #c1d82f" transform="translate(41.856933 56.297321)scale(0.12 -0.12)">
     <use xlink:href="#FontAwesome6Free-Solid-f5e4"/>
    </g>
   </g>
   <g id="text_14">
    <!--  -->
    <g style="fill: #c1d82f" transform="translate(41.856933 38.968855)scale(0.12 -0.12)">
     <use xlink:href="#FontAwesome6Free-Solid-f5e4"/>
    </g>
   </g>
   <g id="text_15">
    <!--  -->
    <g style="fill: #c1d82f" transform="translate(41.856933 21.640389)scale(0.12 -0.12)">
     <use xlink:href="#FontAwesome6Free-Solid-f5e4"/>
    </g>
   </g>
   <g id="text_16">
    <!--  -->
    <g style="fill: #c1d82f" transform="translate(59.185399 90.954254)scale(0.12 -0.12)">
     <use xlink:href="#FontAwesome6Free-Solid-f5e4"/>
    </g>
   </g>
   <g id="text_17">
    <!--  -->
    <g style="fill: #c1d82f" transform="translate(59.185399 73.625788)scale(0.12 -0.12)">
     <use xlink:href="#FontAwesome6Free-Solid-f5e4"/>
    </g>
   </g>
   <g id="text_18">
    <!--  -->
    <g style="fill: #c1d82f" transform="translate(59.185399 56.297321)scale(0.12 -0.12)">
     <use xlink:href="#FontAwesome6Free-Solid-f5e4"/>
    </g>
   </g>
   <g id="text_19">
    <!--  -->
    <g style="fill: #c1d82f" transform="translate(59.185399 38.968855)scale(0.12 -0.12)">
     <use xlink:href="#FontAwesome6Free-Solid-f5e4"/>
    </g>
   </g>
   <g id="text_20">
    <!--  -->
    <g style="fill: #c1d82f" transform="translate(59.185399 21.640389)scale(0.12 -0.12)">
     <use xlink:href="#FontAwesome6Free-Solid-f5e4"/>
    </g>
   </g>
   <g id="text_21">
    <!--  -->
    <g style="fill: #c1d82f" transform="translate(76.513866 90.954254)scale(0.12 -0.12)">
     <use xlink:href="#FontAwesome6Free-Solid-f5e4"/>
    </g>
   </g>
   <g id="text_22">
    <!--  -->
    <g style="fill: #c1d82f" transform="translate(76.513866 73.625788)scale(0.12 -0.12)">
     <use xlink:href="#FontAwesome6Free-Solid-f5e4"/>
    </g>
   </g>
   <g id="text_23">
    <!--  -->
    <g style="fill: #c1d82f" transform="translate(76.513866 56.297321)scale(0.12 -0.12)">
     <use xlink:href="#FontAwesome6Free-Solid-f5e4"/>
    </g>
   </g>
   <g id="text_24">
    <!--  -->
    <g style="fill: #c1d82f" transform="translate(76.513866 38.968855)scale(0.12 -0.12)">
     <use xlink:href="#FontAwesome6Free-Solid-f5e4"/>
    </g>
   </g>
   <g id="text_25">
    <!--  -->
    <g style="fill: #c1d82f" transform="translate(76.513866 21.640389)scale(0.12 -0.12)">
     <use xlink:href="#FontAwesome6Free-Solid-f5e4"/>
    </g>
   </g>
   <g id="text_26">
    <!--  -->
    <g style="fill: #c1d82f" transform="translate(93.842332 90.954254)scale(0.12 -0.12)">
     <use xlink:href="#FontAwesome6Free-Solid-f5e4"/>
    </g>
   </g>
   <g id="text_27">
    <!--  -->
    <g style="fill: #c1d82f" transform="translate(93.842332 73.625788)scale(0.12 -0.12)">
     <use xlink:href="#FontAwesome6Free-Solid-f5e4"/>
    </g>
   </g>
   <g id="text_28">
    <!--  -->
    <g style="fill: #c1d82f" transform="translate(93.842332 56.297321)scale(0.12 -0.12)">
     <use xlink:href="#FontAwesome6Free-Solid-f5e4"/>
    </g>
   </g>
   <g id="text_29">
    <!--  -->
    <g style="fill: #c1d82f" transform="translate(93.842332 38.968855)scale(0.12 -0.12)">
     <use xlink:href="#FontAwesome6Free-Solid-f5e4"/>
    </g>
   </g>
   <g id="text_30">
    <!--  -->
    <g style="fill: #c1d82f" transform="translate(93.842332 21.640389)scale(0.12 -0.12)">
     <use xlink:href="#FontAwesome6Free-Solid-f5e4"/>
    </g>
   </g>
   <g id="text_31">
    <!--  -->
    <g style="fill: #c1d82f" transform="translate(111.170798 90.954254)scale(0.12 -0.12)">
     <use xlink:href="#FontAwesome6Free-Solid-f5e4"/>
    </g>
   </g>
   <g id="text_32">
    <!--  -->
    <g style="fill: #c1d82f" transform="translate(111.170798 73.625788)scale(0.12 -0.12)">
     <use xlink:href="#FontAwesome6Free-Solid-f5e4"/>
    </g>
   </g>
   <g id="text_33">
    <!--  -->
    <g style="fill: #c1d82f" transform="translate(111.170798 56.297321)scale(0.12 -0.12)">
     <use xlink:href="#FontAwesome6Free-Solid-f5e4"/>
    </g>
   </g>
   <g id="text_34">
    <!--  -->
    <g style="fill: #c1d82f" transform="translate(111.170798 38.968855)scale(0.12 -0.12)">
     <use xlink:href="#FontAwesome6Free-Solid-f5e4"/>
    </g>
   </g>
   <g id="text_35">
    <!--  -->
    <g style="fill: #c1d82f" transform="translate(111.170798 21.640389)scale(0.12 -0.12)">
     <use xlink:href="#FontAwesome6Free-Solid-f5e4"/>
    </g>
   </g>
   <g id="text_36">
    <!--  -->
    <g style="fill: #c1d82f" transform="translate(128.499265 90.954254)scale(0.12 -0.12)">
     <use xlink:href="#FontAwesome6Free-Solid-f5e4"/>
    </g>
   </g>
   <g id="text_37">
    <!--  -->
    <g style="fill: #c1d82f" transform="translate(128.499265 73.625788)scale(0.12 -0.12)">
     <use xlink:href="#FontAwesome6Free-Solid-f5e4"/>
    </g>
   </g>
   <g id="text_38">
    <!--  -->
    <g style="fill: #c1d82f" transform="translate(128.499265 56.297321)scale(0.12 -0.12)">
     <use xlink:href="#FontAwesome6Free-Solid-f5e4"/>
    </g>
   </g>
   <g id="text_39">
    <!--  -->
    <g style="fill: #c1d82f" transform="translate(128.499265 38.968855)scale(0.12 -0.12)">
     <use xlink:href="#FontAwesome6Free-Solid-f5e4"/>
    </g>
   </g>
   <g id="text_40">
    <!--  -->
    <g style="fill: #c1d82f" transform="translate(128.499265 21.640389)scale(0.12 -0.12)">
     <use xlink:href="#FontAwesome6Free-Solid-f5e4"/>
    </g>
   </g>
   <g id="text_41">
    <!--  -->
    <g style="fill: #c1d82f" transform="translate(145.827731 90.954254)scale(0.12 -0.12)">
     <use xlink:href="#FontAwesome6Free-Solid-f5e4"/>
    </g>
   </g>
   <g id="text_42">
    <!--  -->
    <g style="fill: #c1d82f" transform="translate(145.827731 73.625788)scale(0.12 -0.12)">
     <use xlink:href="#FontAwesome6Free-Solid-f5e4"/>
    </g>
   </g>
   <g id="text_43">
    <!--  -->
    <g style="fill: #c1d82f" transform="translate(145.827731 56.297321)scale(0.12 -0.12)">
     <use xlink:href="#FontAwesome6Free-Solid-f5e4"/>
    </g>
   </g>
   <g id="text_44">
    <!--  -->
    <g style="fill: #c1d82f" transform="translate(145.827731 38.968855)scale(0.12 -0.12)">
     <use xlink:href="#FontAwesome6Free-Solid-f5e4"/>
    </g>
   </g>
   <g id="text_45">
    <!--  -->
    <g style="fill: #c1d82f" transform="translate(145.827731 21.640389)scale(0.12 -0.12)">
     <use xlink:href="#FontAwesome6Free-Solid-f5e4"/>
    </g>
   </g>
   <g id="text_46">
    <!--  -->
    <g style="fill: #c1d82f" transform="translate(163.156197 90.954254)scale(0.12 -0.12)">
     <use xlink:href="#FontAwesome6Free-Solid-f5e4"/>
    </g>
   </g>
   <g id="text_47">
    <!--  -->
    <g style="fill: #c1d82f" transform="translate(163.156197 73.625788)scale(0.12 -0.12)">
     <use xlink:href="#FontAwesome6Free-Solid-f5e4"/>
    </g>
   </g>
   <g id="text_48">
    <!--  -->
    <g style="fill: #c1d82f" transform="translate(163.156197 56.297321)scale(0.12 -0.12)">
     <use xlink:href="#FontAwesome6Free-Solid-f5e4"/>
    </g>
   </g>
   <g id="text_49">
    <!--  -->
    <g style="fill: #c1d82f" transform="translate(163.156197 38.968855)scale(0.12 -0.12)">
     <use xlink:href="#FontAwesome6Free-Solid-f5e4"/>
    </g>
   </g>
   <g id="text_50">
    <!--  -->
    <g style="fill: #c1d82f" transform="translate(163.156197 21.640389)scale(0.12 -0.12)">
     <use xlink:href="#FontAwesome6Free-Solid-f5e4"/>
    </g>
   </g>
   <g id="text_51">
    <!--  -->
    <g style="fill: #c1d82f" transform="translate(180.484664 90.954254)scale(0.12 -0.12)">
     <use xlink:href="#FontAwesome6Free-Solid-f5e4"/>
    </g>
   </g>
   <g id="text_52">
    <!--  -->
    <g style="fill: #c1d82f" transform="translate(180.484664 73.625788)scale(0.12 -0.12)">
     <use xlink:href="#FontAwesome6Free-Solid-f5e4"/>
    </g>
   </g>
   <g id="text_53">
    <!--  -->
    <g style="fill: #c1d82f" transform="translate(180.484664 56.297321)scale(0.12 -0.12)">
     <use xlink:href="#FontAwesome6Free-Solid-f5e4"/>
    </g>
   </g>
   <g id="text_54">
    <!--  -->
    <g style="fill: #c1d82f" transform="translate(180.484664 38.968855)scale(0.12 -0.12)">
     <use xlink:href="#FontAwesome6Free-Solid-f5e4"/>
    </g>
   </g>
   <g id="text_55">
    <!--  -->
    <g style="fill: #c1d82f" transform="translate(180.484664 21.640389)scale(0.12 -0.12)">
     <use xlink:href="#FontAwesome6Free-Solid-f5e4"/>
    </g>
   </g>
   <g id="text_56">
    <!--  -->
    <g style="fill: #c1d82f" transform="translate(197.81313 90.954254)scale(0.12 -0.12)">
     <use xlink:href="#FontAwesome6Free-Solid-f5e4"/>
    </g>
   </g>
   <g id="text_57">
    <!--  -->
    <g style="fill: #c1d82f" transform="translate(197.81313 73.625788)scale(0.12 -0.12)">
     <use xlink:href="#FontAwesome6Free-Solid-f5e4"/>
    </g>
   </g>
   <g id="text_58">
    <!--  -->
    <g style="fill: #c1d82f" transform="translate(197.81313 56.297321)scale(0.12 -0.12)">
     <use xlink:href="#FontAwesome6Free-Solid-f5e4"/>
    </g>
   </g>
   <g id="text_59">
    <!--  -->
    <g style="fill: #00a4e4" transform="translate(197.81313 38.968855)scale(0.12 -0.12)">
     <defs>
      <path id="FontAwesome6Free-Solid-f63c" d="M 3400 5200 
L 4600 5200 
C 4850 5200 5075 5088 5225 4888 
L 6588 3200 
L 7200 3200 
C 7413 3200 7600 3013 7600 2800 
L 7600 2000 
C 7813 2000 8000 1813 8000 1600 
C 8000 1375 7813 1200 7600 1200 
L 7175 1200 
C 7188 1125 7200 1063 7200 1000 
C 7200 225 6563 -400 5800 -400 
C 5025 -400 4400 225 4400 1000 
C 4400 1063 4400 1125 4413 1200 
L 3575 1200 
C 3588 1125 3600 1063 3600 1000 
C 3600 225 2963 -400 2200 -400 
C 1425 -400 800 225 800 1000 
C 800 1063 800 1125 813 1200 
L 400 1200 
C 175 1200 0 1375 0 1600 
C 0 1813 175 2000 400 2000 
L 400 2800 
C 400 3013 575 3200 800 3200 
L 2800 3200 
L 2800 4600 
C 2800 4925 3063 5200 3400 5200 
z
M 4600 4400 
L 3600 4400 
L 3600 3200 
L 5563 3200 
L 4600 4400 
z
M 2200 400 
C 2525 400 2800 663 2800 1000 
C 2800 1325 2525 1600 2200 1600 
C 1863 1600 1600 1325 1600 1000 
C 1600 663 1863 400 2200 400 
z
M 5800 400 
C 6125 400 6400 663 6400 1000 
C 6400 1325 6125 1600 5800 1600 
C 5463 1600 5200 1325 5200 1000 
C 5200 663 5463 400 5800 400 
z
" transform="scale(0.015625)"/>
     </defs>
     <use xlink:href="#FontAwesome6Free-Solid-f63c"/>
    </g>
   </g>
   <g id="text_60">
    <!--  -->
    <g style="fill: #00a4e4" transform="translate(197.81313 21.640389)scale(0.12 -0.12)">
     <use xlink:href="#FontAwesome6Free-Solid-f63c"/>
    </g>
   </g>
   <g id="text_61">
    <!--  -->
    <g style="fill: #00a4e4" transform="translate(215.141597 90.954254)scale(0.12 -0.12)">
     <use xlink:href="#FontAwesome6Free-Solid-f63c"/>
    </g>
   </g>
   <g id="text_62">
    <!--  -->
    <g style="fill: #00a4e4" transform="translate(215.141597 73.625788)scale(0.12 -0.12)">
     <use xlink:href="#FontAwesome6Free-Solid-f63c"/>
    </g>
   </g>
   <g id="text_63">
    <!--  -->
    <g style="fill: #00a4e4" transform="translate(215.141597 56.297321)scale(0.12 -0.12)">
     <use xlink:href="#FontAwesome6Free-Solid-f63c"/>
    </g>
   </g>
   <g id="text_64">
    <!--  -->
    <g style="fill: #00a4e4" transform="translate(215.141597 38.968855)scale(0.12 -0.12)">
     <use xlink:href="#FontAwesome6Free-Solid-f63c"/>
    </g>
   </g>
   <g id="text_65">
    <!--  -->
    <g style="fill: #00a4e4" transform="translate(215.141597 21.640389)scale(0.12 -0.12)">
     <use xlink:href="#FontAwesome6Free-Solid-f63c"/>
    </g>
   </g>
   <g id="text_66">
    <!--  -->
    <g style="fill: #00a4e4" transform="translate(232.470063 90.954254)scale(0.12 -0.12)">
     <use xlink:href="#FontAwesome6Free-Solid-f63c"/>
    </g>
   </g>
   <g id="text_67">
    <!--  -->
    <g style="fill: #00a4e4" transform="translate(232.470063 73.625788)scale(0.12 -0.12)">
     <use xlink:href="#FontAwesome6Free-Solid-f63c"/>
    </g>
   </g>
   <g id="text_68">
    <!--  -->
    <g style="fill: #00a4e4" transform="translate(232.470063 56.297321)scale(0.12 -0.12)">
     <use xlink:href="#FontAwesome6Free-Solid-f63c"/>
    </g>
   </g>
   <g id="text_69">
    <!--  -->
    <g style="fill: #00a4e4" transform="translate(232.470063 38.968855)scale(0.12 -0.12)">
     <use xlink:href="#FontAwesome6Free-Solid-f63c"/>
    </g>
   </g>
   <g id="text_70">
    <!--  -->
    <g style="fill: #00a4e4" transform="translate(232.470063 21.640389)scale(0.12 -0.12)">
     <use xlink:href="#FontAwesome6Free-Solid-f63c"/>
    </g>
   </g>
   <g id="text_71">
    <!--  -->
    <g style="fill: #00a4e4" transform="translate(249.798529 90.954254)scale(0.12 -0.12)">
     <use xlink:href="#FontAwesome6Free-Solid-f63c"/>
    </g>
   </g>
   <g id="text_72">
    <!--  -->
    <g style="fill: #00a4e4" transform="translate(249.798529 73.625788)scale(0.12 -0.12)">
     <use xlink:href="#FontAwesome6Free-Solid-f63c"/>
    </g>
   </g>
   <g id="text_73">
    <!--  -->
    <g style="fill: #00a4e4" transform="translate(249.798529 56.297321)scale(0.12 -0.12)">
     <use xlink:href="#FontAwesome6Free-Solid-f63c"/>
    </g>
   </g>
   <g id="text_74">
    <!--  -->
    <g style="fill: #00a4e4" transform="translate(249.798529 38.968855)scale(0.12 -0.12)">
     <use xlink:href="#FontAwesome6Free-Solid-f63c"/>
    </g>
   </g>
   <g id="text_75">
    <!--  -->
    <g style="fill: #00a4e4" transform="translate(249.798529 21.640389)scale(0.12 -0.12)">
     <use xlink:href="#FontAwesome6Free-Solid-f63c"/>
    </g>
   </g>
   <g id="text_76">
    <!--  -->
    <g style="fill: #00a4e4" transform="translate(267.126996 90.954254)scale(0.12 -0.12)">
     <use xlink:href="#FontAwesome6Free-Solid-f63c"/>
    </g>
   </g>
   <g id="text_77">
    <!--  -->
    <g style="fill: #00a4e4" transform="translate(267.126996 73.625788)scale(0.12 -0.12)">
     <use xlink:href="#FontAwesome6Free-Solid-f63c"/>
    </g>
   </g>
   <g id="text_78">
    <!--  -->
    <g style="fill: #00a4e4" transform="translate(267.126996 56.297321)scale(0.12 -0.12)">
     <use xlink:href="#FontAwesome6Free-Solid-f63c"/>
    </g>
   </g>
   <g id="text_79">
    <!--  -->
    <g style="fill: #00a4e4" transform="translate(267.126996 38.968855)scale(0.12 -0.12)">
     <use xlink:href="#FontAwesome6Free-Solid-f63c"/>
    </g>
   </g>
   <g id="text_80">
    <!--  -->
    <g style="fill: #fbb034" transform="translate(267.126996 21.640389)scale(0.12 -0.12)">
     <defs>
      <path id="FontAwesome6Free-Solid-f0d1" d="M 4600 5600 
C 4925 5600 5200 5325 5200 5000 
L 5200 4400 
L 5825 4400 
C 6038 4400 6238 4313 6400 4163 
L 7363 3200 
C 7513 3050 7600 2838 7600 2625 
L 7600 1200 
C 7813 1200 8000 1013 8000 800 
C 8000 575 7813 400 7600 400 
L 7200 400 
C 7200 -263 6663 -800 6000 -800 
C 5325 -800 4800 -263 4800 400 
L 3200 400 
C 3200 -263 2663 -800 2000 -800 
C 1325 -800 800 -263 800 400 
L 600 400 
C 263 400 0 663 0 1000 
L 0 5000 
C 0 5325 263 5600 600 5600 
L 4600 5600 
z
M 5200 3600 
L 5200 2400 
L 6800 2400 
L 6800 2625 
L 5825 3600 
L 5200 3600 
z
M 2000 1000 
C 1663 1000 1400 725 1400 400 
C 1400 63 1663 -200 2000 -200 
C 2325 -200 2600 63 2600 400 
C 2600 725 2325 1000 2000 1000 
z
M 6000 -200 
C 6325 -200 6600 63 6600 400 
C 6600 725 6325 1000 6000 1000 
C 5663 1000 5400 725 5400 400 
C 5400 63 5663 -200 6000 -200 
z
" transform="scale(0.015625)"/>
     </defs>
     <use xlink:href="#FontAwesome6Free-Solid-f0d1"/>
    </g>
   </g>
   <g id="text_81">
    <!--  -->
    <g style="fill: #fbb034" transform="translate(284.455462 90.954254)scale(0.12 -0.12)">
     <use xlink:href="#FontAwesome6Free-Solid-f0d1"/>
    </g>
   </g>
   <g id="text_82">
    <!--  -->
    <g style="fill: #fbb034" transform="translate(284.455462 73.625788)scale(0.12 -0.12)">
     <use xlink:href="#FontAwesome6Free-Solid-f0d1"/>
    </g>
   </g>
   <g id="text_83">
    <!--  -->
    <g style="fill: #fbb034" transform="translate(284.455462 56.297321)scale(0.12 -0.12)">
     <use xlink:href="#FontAwesome6Free-Solid-f0d1"/>
    </g>
   </g>
   <g id="text_84">
    <!--  -->
    <g style="fill: #fbb034" transform="translate(284.455462 38.968855)scale(0.12 -0.12)">
     <use xlink:href="#FontAwesome6Free-Solid-f0d1"/>
    </g>
   </g>
   <g id="text_85">
    <!--  -->
    <g style="fill: #fbb034" transform="translate(284.455462 21.640389)scale(0.12 -0.12)">
     <use xlink:href="#FontAwesome6Free-Solid-f0d1"/>
    </g>
   </g>
   <g id="text_86">
    <!--  -->
    <g style="fill: #fbb034" transform="translate(301.783929 90.954254)scale(0.12 -0.12)">
     <use xlink:href="#FontAwesome6Free-Solid-f0d1"/>
    </g>
   </g>
   <g id="text_87">
    <!--  -->
    <g style="fill: #fbb034" transform="translate(301.783929 73.625788)scale(0.12 -0.12)">
     <use xlink:href="#FontAwesome6Free-Solid-f0d1"/>
    </g>
   </g>
   <g id="text_88">
    <!--  -->
    <g style="fill: #fbb034" transform="translate(301.783929 56.297321)scale(0.12 -0.12)">
     <use xlink:href="#FontAwesome6Free-Solid-f0d1"/>
    </g>
   </g>
   <g id="text_89">
    <!--  -->
    <g style="fill: #fbb034" transform="translate(301.783929 38.968855)scale(0.12 -0.12)">
     <use xlink:href="#FontAwesome6Free-Solid-f0d1"/>
    </g>
   </g>
   <g id="text_90">
    <!--  -->
    <g style="fill: #fbb034" transform="translate(301.783929 21.640389)scale(0.12 -0.12)">
     <use xlink:href="#FontAwesome6Free-Solid-f0d1"/>
    </g>
   </g>
   <g id="text_91">
    <!--  -->
    <g style="fill: #6a737b" transform="translate(319.112395 90.954254)scale(0.12 -0.12)">
     <defs>
      <path id="FontAwesome6Free-Solid-f21c" d="M 4275 5200 
C 4463 5200 4625 5088 4713 4938 
L 4888 4613 
L 5488 5100 
C 5550 5163 5650 5200 5738 5200 
L 6000 5200 
C 6213 5200 6400 5013 6400 4800 
L 6400 4400 
C 6400 4175 6213 4000 6000 4000 
L 5225 4000 
L 5913 2725 
C 6063 2763 6225 2800 6400 2800 
C 7275 2800 8000 2075 8000 1200 
C 8000 313 7275 -400 6400 -400 
C 5513 -400 4800 313 4800 1200 
C 4800 1700 5025 2138 5388 2438 
L 5188 2788 
C 4700 2425 4400 1850 4400 1200 
C 4400 1063 4413 925 4438 800 
L 3550 800 
C 3575 925 3588 1063 3588 1200 
C 3588 2300 2700 3200 1588 3200 
L 388 3200 
L 388 3600 
C 388 3813 575 4000 788 4000 
L 2063 4000 
C 2275 4000 2475 3913 2625 3763 
L 3188 3200 
L 4425 4213 
L 4213 4600 
L 3488 4600 
C 3325 4600 3188 4725 3188 4900 
C 3188 5063 3325 5200 3488 5200 
L 4275 5200 
z
M 5600 1200 
C 5600 750 5950 400 6400 400 
C 6838 400 7200 750 7200 1200 
C 7200 1638 6838 2000 6400 2000 
C 6363 2000 6338 1988 6300 1988 
L 6663 1338 
C 6738 1188 6688 1013 6538 925 
C 6388 850 6213 900 6125 1050 
L 5775 1700 
C 5663 1563 5600 1388 5600 1200 
z
M 3163 900 
C 3025 150 2375 -400 1600 -400 
C 713 -400 0 313 0 1200 
C 0 2075 713 2800 1600 2800 
C 2375 2800 3025 2238 3163 1500 
L 2338 1500 
C 2213 1788 1925 2000 1600 2000 
C 1150 2000 800 1638 800 1200 
C 800 750 1150 400 1600 400 
C 1925 400 2213 600 2338 900 
L 3163 900 
z
M 1200 1200 
C 1200 1413 1375 1600 1600 1600 
C 1813 1600 2000 1413 2000 1200 
C 2000 975 1813 800 1600 800 
C 1375 800 1200 975 1200 1200 
z
" transform="scale(0.015625)"/>
     </defs>
     <use xlink:href="#FontAwesome6Free-Solid-f21c"/>
    </g>
   </g>
   <g id="text_92">
    <!--  -->
    <g style="fill: #6a737b" transform="translate(319.112395 73.625788)scale(0.12 -0.12)">
     <use xlink:href="#FontAwesome6Free-Solid-f21c"/>
    </g>
   </g>
   <g id="text_93">
    <!--  -->
    <g style="fill: #6a737b" transform="translate(319.112395 56.297321)scale(0.12 -0.12)">
     <use xlink:href="#FontAwesome6Free-Solid-f21c"/>
    </g>
   </g>
   <g id="text_94">
    <!--  -->
    <g style="fill: #6a737b" transform="translate(319.112395 38.968855)scale(0.12 -0.12)">
     <use xlink:href="#FontAwesome6Free-Solid-f21c"/>
    </g>
   </g>
   <g id="text_95">
    <!--  -->
    <g style="fill: #6a737b" transform="translate(319.112395 21.640389)scale(0.12 -0.12)">
     <use xlink:href="#FontAwesome6Free-Solid-f21c"/>
    </g>
   </g>
   <g id="text_96">
    <!--  -->
    <g style="fill: #6a737b" transform="translate(336.440861 90.954254)scale(0.12 -0.12)">
     <use xlink:href="#FontAwesome6Free-Solid-f21c"/>
    </g>
   </g>
   <g id="text_97">
    <!--  -->
    <g style="fill: #6a737b" transform="translate(336.440861 73.625788)scale(0.12 -0.12)">
     <use xlink:href="#FontAwesome6Free-Solid-f21c"/>
    </g>
   </g>
   <g id="legend_1">
    <g id="patch_2">
     <path d="M 357.88125 73.9125 
L 444.4 73.9125 
Q 446.4 73.9125 446.4 71.9125 
L 446.4 14.2 
Q 446.4 12.2 444.4 12.2 
L 357.88125 12.2 
Q 355.88125 12.2 355.88125 14.2 
L 355.88125 71.9125 
Q 355.88125 73.9125 357.88125 73.9125 
z
" style="fill: #ffffff; opacity: 0.8; stroke: #cccccc; stroke-linejoin: miter"/>
    </g>
    <g id="text_98">
     <!--  -->
     <g style="fill: #c1d82f" transform="translate(363.63125 24.028906)scale(0.1 -0.1)">
      <use xlink:href="#FontAwesome6Free-Solid-f5e4"/>
     </g>
    </g>
    <g id="text_99">
     <!-- Car -->
     <g transform="translate(387.88125 23.798437)scale(0.1 -0.1)">
      <defs>
       <path id="DejaVuSans-43" d="M 4122 4306 
L 4122 3641 
Q 3803 3938 3442 4084 
Q 3081 4231 2675 4231 
Q 1875 4231 1450 3742 
Q 1025 3253 1025 2328 
Q 1025 1406 1450 917 
Q 1875 428 2675 428 
Q 3081 428 3442 575 
Q 3803 722 4122 1019 
L 4122 359 
Q 3791 134 3420 21 
Q 3050 -91 2638 -91 
Q 1578 -91 968 557 
Q 359 1206 359 2328 
Q 359 3453 968 4101 
Q 1578 4750 2638 4750 
Q 3056 4750 3426 4639 
Q 3797 4528 4122 4306 
z
" transform="scale(0.015625)"/>
       <path id="DejaVuSans-61" d="M 2194 1759 
Q 1497 1759 1228 1600 
Q 959 1441 959 1056 
Q 959 750 1161 570 
Q 1363 391 1709 391 
Q 2188 391 2477 730 
Q 2766 1069 2766 1631 
L 2766 1759 
L 2194 1759 
z
M 3341 1997 
L 3341 0 
L 2766 0 
L 2766 531 
Q 2569 213 2275 61 
Q 1981 -91 1556 -91 
Q 1019 -91 701 211 
Q 384 513 384 1019 
Q 384 1609 779 1909 
Q 1175 2209 1959 2209 
L 2766 2209 
L 2766 2266 
Q 2766 2663 2505 2880 
Q 2244 3097 1772 3097 
Q 1472 3097 1187 3025 
Q 903 2953 641 2809 
L 641 3341 
Q 956 3463 1253 3523 
Q 1550 3584 1831 3584 
Q 2591 3584 2966 3190 
Q 3341 2797 3341 1997 
z
" transform="scale(0.015625)"/>
       <path id="DejaVuSans-72" d="M 2631 2963 
Q 2534 3019 2420 3045 
Q 2306 3072 2169 3072 
Q 1681 3072 1420 2755 
Q 1159 2438 1159 1844 
L 1159 0 
L 581 0 
L 581 3500 
L 1159 3500 
L 1159 2956 
Q 1341 3275 1631 3429 
Q 1922 3584 2338 3584 
Q 2397 3584 2469 3576 
Q 2541 3569 2628 3553 
L 2631 2963 
z
" transform="scale(0.015625)"/>
      </defs>
      <use xlink:href="#DejaVuSans-43"/>
      <use xlink:href="#DejaVuSans-61" x="69.824219"/>
      <use xlink:href="#DejaVuSans-72" x="131.103516"/>
     </g>
    </g>
    <g id="text_100">
     <!--  -->
     <g style="fill: #00a4e4" transform="translate(363.63125 38.707031)scale(0.1 -0.1)">
      <use xlink:href="#FontAwesome6Free-Solid-f63c"/>
     </g>
    </g>
    <g id="text_101">
     <!-- Pickup -->
     <g transform="translate(387.88125 38.476562)scale(0.1 -0.1)">
      <defs>
       <path id="DejaVuSans-50" d="M 1259 4147 
L 1259 2394 
L 2053 2394 
Q 2494 2394 2734 2622 
Q 2975 2850 2975 3272 
Q 2975 3691 2734 3919 
Q 2494 4147 2053 4147 
L 1259 4147 
z
M 628 4666 
L 2053 4666 
Q 2838 4666 3239 4311 
Q 3641 3956 3641 3272 
Q 3641 2581 3239 2228 
Q 2838 1875 2053 1875 
L 1259 1875 
L 1259 0 
L 628 0 
L 628 4666 
z
" transform="scale(0.015625)"/>
       <path id="DejaVuSans-69" d="M 603 3500 
L 1178 3500 
L 1178 0 
L 603 0 
L 603 3500 
z
M 603 4863 
L 1178 4863 
L 1178 4134 
L 603 4134 
L 603 4863 
z
" transform="scale(0.015625)"/>
       <path id="DejaVuSans-63" d="M 3122 3366 
L 3122 2828 
Q 2878 2963 2633 3030 
Q 2388 3097 2138 3097 
Q 1578 3097 1268 2742 
Q 959 2388 959 1747 
Q 959 1106 1268 751 
Q 1578 397 2138 397 
Q 2388 397 2633 464 
Q 2878 531 3122 666 
L 3122 134 
Q 2881 22 2623 -34 
Q 2366 -91 2075 -91 
Q 1284 -91 818 406 
Q 353 903 353 1747 
Q 353 2603 823 3093 
Q 1294 3584 2113 3584 
Q 2378 3584 2631 3529 
Q 2884 3475 3122 3366 
z
" transform="scale(0.015625)"/>
       <path id="DejaVuSans-6b" d="M 581 4863 
L 1159 4863 
L 1159 1991 
L 2875 3500 
L 3609 3500 
L 1753 1863 
L 3688 0 
L 2938 0 
L 1159 1709 
L 1159 0 
L 581 0 
L 581 4863 
z
" transform="scale(0.015625)"/>
       <path id="DejaVuSans-75" d="M 544 1381 
L 544 3500 
L 1119 3500 
L 1119 1403 
Q 1119 906 1312 657 
Q 1506 409 1894 409 
Q 2359 409 2629 706 
Q 2900 1003 2900 1516 
L 2900 3500 
L 3475 3500 
L 3475 0 
L 2900 0 
L 2900 538 
Q 2691 219 2414 64 
Q 2138 -91 1772 -91 
Q 1169 -91 856 284 
Q 544 659 544 1381 
z
M 1991 3584 
L 1991 3584 
z
" transform="scale(0.015625)"/>
       <path id="DejaVuSans-70" d="M 1159 525 
L 1159 -1331 
L 581 -1331 
L 581 3500 
L 1159 3500 
L 1159 2969 
Q 1341 3281 1617 3432 
Q 1894 3584 2278 3584 
Q 2916 3584 3314 3078 
Q 3713 2572 3713 1747 
Q 3713 922 3314 415 
Q 2916 -91 2278 -91 
Q 1894 -91 1617 61 
Q 1341 213 1159 525 
z
M 3116 1747 
Q 3116 2381 2855 2742 
Q 2594 3103 2138 3103 
Q 1681 3103 1420 2742 
Q 1159 2381 1159 1747 
Q 1159 1113 1420 752 
Q 1681 391 2138 391 
Q 2594 391 2855 752 
Q 3116 1113 3116 1747 
z
" transform="scale(0.015625)"/>
      </defs>
      <use xlink:href="#DejaVuSans-50"/>
      <use xlink:href="#DejaVuSans-69" x="58.052734"/>
      <use xlink:href="#DejaVuSans-63" x="85.835938"/>
      <use xlink:href="#DejaVuSans-6b" x="140.816406"/>
      <use xlink:href="#DejaVuSans-75" x="195.601562"/>
      <use xlink:href="#DejaVuSans-70" x="258.980469"/>
     </g>
    </g>
    <g id="text_102">
     <!--  -->
     <g style="fill: #fbb034" transform="translate(363.63125 53.404687)scale(0.1 -0.1)">
      <use xlink:href="#FontAwesome6Free-Solid-f0d1"/>
     </g>
    </g>
    <g id="text_103">
     <!-- Truck -->
     <g transform="translate(387.88125 53.154687)scale(0.1 -0.1)">
      <defs>
       <path id="DejaVuSans-54" d="M -19 4666 
L 3928 4666 
L 3928 4134 
L 2272 4134 
L 2272 0 
L 1638 0 
L 1638 4134 
L -19 4134 
L -19 4666 
z
" transform="scale(0.015625)"/>
      </defs>
      <use xlink:href="#DejaVuSans-54"/>
      <use xlink:href="#DejaVuSans-72" x="46.333984"/>
      <use xlink:href="#DejaVuSans-75" x="87.447266"/>
      <use xlink:href="#DejaVuSans-63" x="150.826172"/>
      <use xlink:href="#DejaVuSans-6b" x="205.806641"/>
     </g>
    </g>
    <g id="text_104">
     <!--  -->
     <g style="fill: #6a737b" transform="translate(363.63125 68.063281)scale(0.1 -0.1)">
      <use xlink:href="#FontAwesome6Free-Solid-f21c"/>
     </g>
    </g>
    <g id="text_105">
     <!-- Motorcycle -->
     <g transform="translate(387.88125 67.832812)scale(0.1 -0.1)">
      <defs>
       <path id="DejaVuSans-4d" d="M 628 4666 
L 1569 4666 
L 2759 1491 
L 3956 4666 
L 4897 4666 
L 4897 0 
L 4281 0 
L 4281 4097 
L 3078 897 
L 2444 897 
L 1241 4097 
L 1241 0 
L 628 0 
L 628 4666 
z
" transform="scale(0.015625)"/>
       <path id="DejaVuSans-6f" d="M 1959 3097 
Q 1497 3097 1228 2736 
Q 959 2375 959 1747 
Q 959 1119 1226 758 
Q 1494 397 1959 397 
Q 2419 397 2687 759 
Q 2956 1122 2956 1747 
Q 2956 2369 2687 2733 
Q 2419 3097 1959 3097 
z
M 1959 3584 
Q 2709 3584 3137 3096 
Q 3566 2609 3566 1747 
Q 3566 888 3137 398 
Q 2709 -91 1959 -91 
Q 1206 -91 779 398 
Q 353 888 353 1747 
Q 353 2609 779 3096 
Q 1206 3584 1959 3584 
z
" transform="scale(0.015625)"/>
       <path id="DejaVuSans-74" d="M 1172 4494 
L 1172 3500 
L 2356 3500 
L 2356 3053 
L 1172 3053 
L 1172 1153 
Q 1172 725 1289 603 
Q 1406 481 1766 481 
L 2356 481 
L 2356 0 
L 1766 0 
Q 1100 0 847 248 
Q 594 497 594 1153 
L 594 3053 
L 172 3053 
L 172 3500 
L 594 3500 
L 594 4494 
L 1172 4494 
z
" transform="scale(0.015625)"/>
       <path id="DejaVuSans-79" d="M 2059 -325 
Q 1816 -950 1584 -1140 
Q 1353 -1331 966 -1331 
L 506 -1331 
L 506 -850 
L 844 -850 
Q 1081 -850 1212 -737 
Q 1344 -625 1503 -206 
L 1606 56 
L 191 3500 
L 800 3500 
L 1894 763 
L 2988 3500 
L 3597 3500 
L 2059 -325 
z
" transform="scale(0.015625)"/>
       <path id="DejaVuSans-6c" d="M 603 4863 
L 1178 4863 
L 1178 0 
L 603 0 
L 603 4863 
z
" transform="scale(0.015625)"/>
       <path id="DejaVuSans-65" d="M 3597 1894 
L 3597 1613 
L 953 1613 
Q 991 1019 1311 708 
Q 1631 397 2203 397 
Q 2534 397 2845 478 
Q 3156 559 3463 722 
L 3463 178 
Q 3153 47 2828 -22 
Q 2503 -91 2169 -91 
Q 1331 -91 842 396 
Q 353 884 353 1716 
Q 353 2575 817 3079 
Q 1281 3584 2069 3584 
Q 2775 3584 3186 3129 
Q 3597 2675 3597 1894 
z
M 3022 2063 
Q 3016 2534 2758 2815 
Q 2500 3097 2075 3097 
Q 1594 3097 1305 2825 
Q 1016 2553 972 2059 
L 3022 2063 
z
" transform="scale(0.015625)"/>
      </defs>
      <use xlink:href="#DejaVuSans-4d"/>
      <use xlink:href="#DejaVuSans-6f" x="86.279297"/>
      <use xlink:href="#DejaVuSans-74" x="147.460938"/>
      <use xlink:href="#DejaVuSans-6f" x="186.669922"/>
      <use xlink:href="#DejaVuSans-72" x="247.851562"/>
      <use xlink:href="#DejaVuSans-63" x="286.714844"/>
      <use xlink:href="#DejaVuSans-79" x="341.695312"/>
      <use xlink:href="#DejaVuSans-63" x="400.875"/>
      <use xlink:href="#DejaVuSans-6c" x="455.855469"/>
      <use xlink:href="#DejaVuSans-65" x="483.638672"/>
     </g>
    </g>
   </g>
  </g>
 </g>
</svg>
