<?xml version="1.0" encoding="utf-8" standalone="no"?>
<!DOCTYPE svg PUBLIC "-//W3C//DTD SVG 1.1//EN"
  "http://www.w3.org/Graphics/SVG/1.1/DTD/svg11.dtd">
<svg xmlns:xlink="http://www.w3.org/1999/xlink" width="329.686875pt" height="363.6pt" viewBox="0 0 329.686875 363.6" xmlns="http://www.w3.org/2000/svg" version="1.1">
 <metadata>
  <rdf:RDF xmlns:dc="http://purl.org/dc/elements/1.1/" xmlns:cc="http://creativecommons.org/ns#" xmlns:rdf="http://www.w3.org/1999/02/22-rdf-syntax-ns#">
   <cc:Work>
    <dc:type rdf:resource="http://purl.org/dc/dcmitype/StillImage"/>
    <dc:date>2022-06-05T10:24:41.581793</dc:date>
    <dc:format>image/svg+xml</dc:format>
    <dc:creator>
     <cc:Agent>
      <dc:title>Matplotlib v3.5.2, https://matplotlib.org/</dc:title>
     </cc:Agent>
    </dc:creator>
   </cc:Work>
  </rdf:RDF>
 </metadata>
 <defs>
  <style type="text/css">*{stroke-linejoin: round; stroke-linecap: butt}</style>
 </defs>
 <g id="figure_1">
  <g id="patch_1">
   <path d="M 0 363.6 
L 329.686875 363.6 
L 329.686875 0 
L 0 0 
z
" style="fill: #eeede7"/>
  </g>
  <g id="axes_1">
   <g id="patch_2">
    <path d="M 15.70625 126.525 
L 28.835237 126.525 
L 28.835237 113.396013 
L 15.70625 113.396013 
z
" clip-path="url(#pee1b223d79)" style="fill: #7fc97f; stroke: #7fc97f; stroke-linejoin: miter"/>
   </g>
   <g id="patch_3">
    <path d="M 15.70625 110.770216 
L 28.835237 110.770216 
L 28.835237 97.641228 
L 15.70625 97.641228 
z
" clip-path="url(#pee1b223d79)" style="fill: #7fc97f; stroke: #7fc97f; stroke-linejoin: miter"/>
   </g>
   <g id="patch_4">
    <path d="M 15.70625 95.015431 
L 28.835237 95.015431 
L 28.835237 81.886444 
L 15.70625 81.886444 
z
" clip-path="url(#pee1b223d79)" style="fill: #7fc97f; stroke: #7fc97f; stroke-linejoin: miter"/>
   </g>
   <g id="patch_5">
    <path d="M 15.70625 79.260647 
L 28.835237 79.260647 
L 28.835237 66.131659 
L 15.70625 66.131659 
z
" clip-path="url(#pee1b223d79)" style="fill: #7fc97f; stroke: #7fc97f; stroke-linejoin: miter"/>
   </g>
   <g id="patch_6">
    <path d="M 15.70625 63.505862 
L 28.835237 63.505862 
L 28.835237 50.376875 
L 15.70625 50.376875 
z
" clip-path="url(#pee1b223d79)" style="fill: #7fc97f; stroke: #7fc97f; stroke-linejoin: miter"/>
   </g>
   <g id="patch_7">
    <path d="M 31.461034 126.525 
L 44.590022 126.525 
L 44.590022 113.396013 
L 31.461034 113.396013 
z
" clip-path="url(#pee1b223d79)" style="fill: #7fc97f; stroke: #7fc97f; stroke-linejoin: miter"/>
   </g>
   <g id="patch_8">
    <path d="M 31.461034 110.770216 
L 44.590022 110.770216 
L 44.590022 97.641228 
L 31.461034 97.641228 
z
" clip-path="url(#pee1b223d79)" style="fill: #7fc97f; stroke: #7fc97f; stroke-linejoin: miter"/>
   </g>
   <g id="patch_9">
    <path d="M 31.461034 95.015431 
L 44.590022 95.015431 
L 44.590022 81.886444 
L 31.461034 81.886444 
z
" clip-path="url(#pee1b223d79)" style="fill: #7fc97f; stroke: #7fc97f; stroke-linejoin: miter"/>
   </g>
   <g id="patch_10">
    <path d="M 31.461034 79.260647 
L 44.590022 79.260647 
L 44.590022 66.131659 
L 31.461034 66.131659 
z
" clip-path="url(#pee1b223d79)" style="fill: #7fc97f; stroke: #7fc97f; stroke-linejoin: miter"/>
   </g>
   <g id="patch_11">
    <path d="M 31.461034 63.505862 
L 44.590022 63.505862 
L 44.590022 50.376875 
L 31.461034 50.376875 
z
" clip-path="url(#pee1b223d79)" style="fill: #7fc97f; stroke: #7fc97f; stroke-linejoin: miter"/>
   </g>
   <g id="patch_12">
    <path d="M 47.215819 126.525 
L 60.344806 126.525 
L 60.344806 113.396013 
L 47.215819 113.396013 
z
" clip-path="url(#pee1b223d79)" style="fill: #7fc97f; stroke: #7fc97f; stroke-linejoin: miter"/>
   </g>
   <g id="patch_13">
    <path d="M 47.215819 110.770216 
L 60.344806 110.770216 
L 60.344806 97.641228 
L 47.215819 97.641228 
z
" clip-path="url(#pee1b223d79)" style="fill: #7fc97f; stroke: #7fc97f; stroke-linejoin: miter"/>
   </g>
   <g id="patch_14">
    <path d="M 47.215819 95.015431 
L 60.344806 95.015431 
L 60.344806 81.886444 
L 47.215819 81.886444 
z
" clip-path="url(#pee1b223d79)" style="fill: #7fc97f; stroke: #7fc97f; stroke-linejoin: miter"/>
   </g>
   <g id="patch_15">
    <path d="M 47.215819 79.260647 
L 60.344806 79.260647 
L 60.344806 66.131659 
L 47.215819 66.131659 
z
" clip-path="url(#pee1b223d79)" style="fill: #7fc97f; stroke: #7fc97f; stroke-linejoin: miter"/>
   </g>
   <g id="patch_16">
    <path d="M 47.215819 63.505862 
L 60.344806 63.505862 
L 60.344806 50.376875 
L 47.215819 50.376875 
z
" clip-path="url(#pee1b223d79)" style="fill: #7fc97f; stroke: #7fc97f; stroke-linejoin: miter"/>
   </g>
   <g id="patch_17">
    <path d="M 62.970603 126.525 
L 76.099591 126.525 
L 76.099591 113.396013 
L 62.970603 113.396013 
z
" clip-path="url(#pee1b223d79)" style="fill: #7fc97f; stroke: #7fc97f; stroke-linejoin: miter"/>
   </g>
   <g id="patch_18">
    <path d="M 62.970603 110.770216 
L 76.099591 110.770216 
L 76.099591 97.641228 
L 62.970603 97.641228 
z
" clip-path="url(#pee1b223d79)" style="fill: #7fc97f; stroke: #7fc97f; stroke-linejoin: miter"/>
   </g>
   <g id="patch_19">
    <path d="M 62.970603 95.015431 
L 76.099591 95.015431 
L 76.099591 81.886444 
L 62.970603 81.886444 
z
" clip-path="url(#pee1b223d79)" style="fill: #7fc97f; stroke: #7fc97f; stroke-linejoin: miter"/>
   </g>
   <g id="patch_20">
    <path d="M 62.970603 79.260647 
L 76.099591 79.260647 
L 76.099591 66.131659 
L 62.970603 66.131659 
z
" clip-path="url(#pee1b223d79)" style="fill: #7fc97f; stroke: #7fc97f; stroke-linejoin: miter"/>
   </g>
   <g id="patch_21">
    <path d="M 62.970603 63.505862 
L 76.099591 63.505862 
L 76.099591 50.376875 
L 62.970603 50.376875 
z
" clip-path="url(#pee1b223d79)" style="fill: #7fc97f; stroke: #7fc97f; stroke-linejoin: miter"/>
   </g>
   <g id="patch_22">
    <path d="M 78.725388 126.525 
L 91.854375 126.525 
L 91.854375 113.396013 
L 78.725388 113.396013 
z
" clip-path="url(#pee1b223d79)" style="fill: #7fc97f; stroke: #7fc97f; stroke-linejoin: miter"/>
   </g>
   <g id="patch_23">
    <path d="M 78.725388 110.770216 
L 91.854375 110.770216 
L 91.854375 97.641228 
L 78.725388 97.641228 
z
" clip-path="url(#pee1b223d79)" style="fill: #7fc97f; stroke: #7fc97f; stroke-linejoin: miter"/>
   </g>
   <g id="patch_24">
    <path d="M 78.725388 95.015431 
L 91.854375 95.015431 
L 91.854375 81.886444 
L 78.725388 81.886444 
z
" clip-path="url(#pee1b223d79)" style="fill: #7fc97f; stroke: #7fc97f; stroke-linejoin: miter"/>
   </g>
   <g id="patch_25">
    <path d="M 78.725388 79.260647 
L 91.854375 79.260647 
L 91.854375 66.131659 
L 78.725388 66.131659 
z
" clip-path="url(#pee1b223d79)" style="fill: #7fc97f; stroke: #7fc97f; stroke-linejoin: miter"/>
   </g>
   <g id="patch_26">
    <path d="M 78.725388 63.505862 
L 91.854375 63.505862 
L 91.854375 50.376875 
L 78.725388 50.376875 
z
" clip-path="url(#pee1b223d79)" style="fill: #7fc97f; stroke: #7fc97f; stroke-linejoin: miter"/>
   </g>
   <g id="patch_27">
    <path d="M 94.480172 126.525 
L 107.609159 126.525 
L 107.609159 113.396013 
L 94.480172 113.396013 
z
" clip-path="url(#pee1b223d79)" style="fill: #7fc97f; stroke: #7fc97f; stroke-linejoin: miter"/>
   </g>
   <g id="patch_28">
    <path d="M 94.480172 110.770216 
L 107.609159 110.770216 
L 107.609159 97.641228 
L 94.480172 97.641228 
z
" clip-path="url(#pee1b223d79)" style="fill: #7fc97f; stroke: #7fc97f; stroke-linejoin: miter"/>
   </g>
   <g id="patch_29">
    <path d="M 94.480172 95.015431 
L 107.609159 95.015431 
L 107.609159 81.886444 
L 94.480172 81.886444 
z
" clip-path="url(#pee1b223d79)" style="fill: #7fc97f; stroke: #7fc97f; stroke-linejoin: miter"/>
   </g>
   <g id="patch_30">
    <path d="M 94.480172 79.260647 
L 107.609159 79.260647 
L 107.609159 66.131659 
L 94.480172 66.131659 
z
" clip-path="url(#pee1b223d79)" style="fill: #7fc97f; stroke: #7fc97f; stroke-linejoin: miter"/>
   </g>
   <g id="patch_31">
    <path d="M 94.480172 63.505862 
L 107.609159 63.505862 
L 107.609159 50.376875 
L 94.480172 50.376875 
z
" clip-path="url(#pee1b223d79)" style="fill: #7fc97f; stroke: #7fc97f; stroke-linejoin: miter"/>
   </g>
   <g id="patch_32">
    <path d="M 110.234957 126.525 
L 123.363944 126.525 
L 123.363944 113.396013 
L 110.234957 113.396013 
z
" clip-path="url(#pee1b223d79)" style="fill: #7fc97f; stroke: #7fc97f; stroke-linejoin: miter"/>
   </g>
   <g id="patch_33">
    <path d="M 110.234957 110.770216 
L 123.363944 110.770216 
L 123.363944 97.641228 
L 110.234957 97.641228 
z
" clip-path="url(#pee1b223d79)" style="fill: #7fc97f; stroke: #7fc97f; stroke-linejoin: miter"/>
   </g>
   <g id="patch_34">
    <path d="M 110.234957 95.015431 
L 123.363944 95.015431 
L 123.363944 81.886444 
L 110.234957 81.886444 
z
" clip-path="url(#pee1b223d79)" style="fill: #7fc97f; stroke: #7fc97f; stroke-linejoin: miter"/>
   </g>
   <g id="patch_35">
    <path d="M 110.234957 79.260647 
L 123.363944 79.260647 
L 123.363944 66.131659 
L 110.234957 66.131659 
z
" clip-path="url(#pee1b223d79)" style="fill: #beaed4; stroke: #beaed4; stroke-linejoin: miter"/>
   </g>
   <g id="patch_36">
    <path d="M 110.234957 63.505862 
L 123.363944 63.505862 
L 123.363944 50.376875 
L 110.234957 50.376875 
z
" clip-path="url(#pee1b223d79)" style="fill: #beaed4; stroke: #beaed4; stroke-linejoin: miter"/>
   </g>
   <g id="patch_37">
    <path d="M 125.989741 126.525 
L 139.118728 126.525 
L 139.118728 113.396013 
L 125.989741 113.396013 
z
" clip-path="url(#pee1b223d79)" style="fill: #beaed4; stroke: #beaed4; stroke-linejoin: miter"/>
   </g>
   <g id="patch_38">
    <path d="M 125.989741 110.770216 
L 139.118728 110.770216 
L 139.118728 97.641228 
L 125.989741 97.641228 
z
" clip-path="url(#pee1b223d79)" style="fill: #beaed4; stroke: #beaed4; stroke-linejoin: miter"/>
   </g>
   <g id="patch_39">
    <path d="M 125.989741 95.015431 
L 139.118728 95.015431 
L 139.118728 81.886444 
L 125.989741 81.886444 
z
" clip-path="url(#pee1b223d79)" style="fill: #beaed4; stroke: #beaed4; stroke-linejoin: miter"/>
   </g>
   <g id="patch_40">
    <path d="M 125.989741 79.260647 
L 139.118728 79.260647 
L 139.118728 66.131659 
L 125.989741 66.131659 
z
" clip-path="url(#pee1b223d79)" style="fill: #beaed4; stroke: #beaed4; stroke-linejoin: miter"/>
   </g>
   <g id="patch_41">
    <path d="M 125.989741 63.505862 
L 139.118728 63.505862 
L 139.118728 50.376875 
L 125.989741 50.376875 
z
" clip-path="url(#pee1b223d79)" style="fill: #beaed4; stroke: #beaed4; stroke-linejoin: miter"/>
   </g>
   <g id="patch_42">
    <path d="M 141.744526 126.525 
L 154.873513 126.525 
L 154.873513 113.396013 
L 141.744526 113.396013 
z
" clip-path="url(#pee1b223d79)" style="fill: #beaed4; stroke: #beaed4; stroke-linejoin: miter"/>
   </g>
   <g id="patch_43">
    <path d="M 141.744526 110.770216 
L 154.873513 110.770216 
L 154.873513 97.641228 
L 141.744526 97.641228 
z
" clip-path="url(#pee1b223d79)" style="fill: #beaed4; stroke: #beaed4; stroke-linejoin: miter"/>
   </g>
   <g id="patch_44">
    <path d="M 141.744526 95.015431 
L 154.873513 95.015431 
L 154.873513 81.886444 
L 141.744526 81.886444 
z
" clip-path="url(#pee1b223d79)" style="fill: #beaed4; stroke: #beaed4; stroke-linejoin: miter"/>
   </g>
   <g id="patch_45">
    <path d="M 141.744526 79.260647 
L 154.873513 79.260647 
L 154.873513 66.131659 
L 141.744526 66.131659 
z
" clip-path="url(#pee1b223d79)" style="fill: #beaed4; stroke: #beaed4; stroke-linejoin: miter"/>
   </g>
   <g id="patch_46">
    <path d="M 141.744526 63.505862 
L 154.873513 63.505862 
L 154.873513 50.376875 
L 141.744526 50.376875 
z
" clip-path="url(#pee1b223d79)" style="fill: #beaed4; stroke: #beaed4; stroke-linejoin: miter"/>
   </g>
   <g id="patch_47">
    <path d="M 157.49931 126.525 
L 170.628297 126.525 
L 170.628297 113.396013 
L 157.49931 113.396013 
z
" clip-path="url(#pee1b223d79)" style="fill: #beaed4; stroke: #beaed4; stroke-linejoin: miter"/>
   </g>
   <g id="patch_48">
    <path d="M 157.49931 110.770216 
L 170.628297 110.770216 
L 170.628297 97.641228 
L 157.49931 97.641228 
z
" clip-path="url(#pee1b223d79)" style="fill: #beaed4; stroke: #beaed4; stroke-linejoin: miter"/>
   </g>
   <g id="patch_49">
    <path d="M 157.49931 95.015431 
L 170.628297 95.015431 
L 170.628297 81.886444 
L 157.49931 81.886444 
z
" clip-path="url(#pee1b223d79)" style="fill: #fdc086; stroke: #fdc086; stroke-linejoin: miter"/>
   </g>
   <g id="patch_50">
    <path d="M 157.49931 79.260647 
L 170.628297 79.260647 
L 170.628297 66.131659 
L 157.49931 66.131659 
z
" clip-path="url(#pee1b223d79)" style="fill: #fdc086; stroke: #fdc086; stroke-linejoin: miter"/>
   </g>
   <g id="patch_51">
    <path d="M 157.49931 63.505862 
L 170.628297 63.505862 
L 170.628297 50.376875 
L 157.49931 50.376875 
z
" clip-path="url(#pee1b223d79)" style="fill: #fdc086; stroke: #fdc086; stroke-linejoin: miter"/>
   </g>
   <g id="patch_52">
    <path d="M 173.254095 126.525 
L 186.383082 126.525 
L 186.383082 113.396013 
L 173.254095 113.396013 
z
" clip-path="url(#pee1b223d79)" style="fill: #fdc086; stroke: #fdc086; stroke-linejoin: miter"/>
   </g>
   <g id="patch_53">
    <path d="M 173.254095 110.770216 
L 186.383082 110.770216 
L 186.383082 97.641228 
L 173.254095 97.641228 
z
" clip-path="url(#pee1b223d79)" style="fill: #fdc086; stroke: #fdc086; stroke-linejoin: miter"/>
   </g>
   <g id="patch_54">
    <path d="M 173.254095 95.015431 
L 186.383082 95.015431 
L 186.383082 81.886444 
L 173.254095 81.886444 
z
" clip-path="url(#pee1b223d79)" style="fill: #fdc086; stroke: #fdc086; stroke-linejoin: miter"/>
   </g>
   <g id="text_1">
    <!-- Vehicle Production of Factory A -->
    <g transform="translate(15.70625 44.376875)scale(0.12 -0.12)">
     <defs>
      <path id="DejaVuSans-56" d="M 1831 0 
L 50 4666 
L 709 4666 
L 2188 738 
L 3669 4666 
L 4325 4666 
L 2547 0 
L 1831 0 
z
" transform="scale(0.015625)"/>
      <path id="DejaVuSans-65" d="M 3597 1894 
L 3597 1613 
L 953 1613 
Q 991 1019 1311 708 
Q 1631 397 2203 397 
Q 2534 397 2845 478 
Q 3156 559 3463 722 
L 3463 178 
Q 3153 47 2828 -22 
Q 2503 -91 2169 -91 
Q 1331 -91 842 396 
Q 353 884 353 1716 
Q 353 2575 817 3079 
Q 1281 3584 2069 3584 
Q 2775 3584 3186 3129 
Q 3597 2675 3597 1894 
z
M 3022 2063 
Q 3016 2534 2758 2815 
Q 2500 3097 2075 3097 
Q 1594 3097 1305 2825 
Q 1016 2553 972 2059 
L 3022 2063 
z
" transform="scale(0.015625)"/>
      <path id="DejaVuSans-68" d="M 3513 2113 
L 3513 0 
L 2938 0 
L 2938 2094 
Q 2938 2591 2744 2837 
Q 2550 3084 2163 3084 
Q 1697 3084 1428 2787 
Q 1159 2491 1159 1978 
L 1159 0 
L 581 0 
L 581 4863 
L 1159 4863 
L 1159 2956 
Q 1366 3272 1645 3428 
Q 1925 3584 2291 3584 
Q 2894 3584 3203 3211 
Q 3513 2838 3513 2113 
z
" transform="scale(0.015625)"/>
      <path id="DejaVuSans-69" d="M 603 3500 
L 1178 3500 
L 1178 0 
L 603 0 
L 603 3500 
z
M 603 4863 
L 1178 4863 
L 1178 4134 
L 603 4134 
L 603 4863 
z
" transform="scale(0.015625)"/>
      <path id="DejaVuSans-63" d="M 3122 3366 
L 3122 2828 
Q 2878 2963 2633 3030 
Q 2388 3097 2138 3097 
Q 1578 3097 1268 2742 
Q 959 2388 959 1747 
Q 959 1106 1268 751 
Q 1578 397 2138 397 
Q 2388 397 2633 464 
Q 2878 531 3122 666 
L 3122 134 
Q 2881 22 2623 -34 
Q 2366 -91 2075 -91 
Q 1284 -91 818 406 
Q 353 903 353 1747 
Q 353 2603 823 3093 
Q 1294 3584 2113 3584 
Q 2378 3584 2631 3529 
Q 2884 3475 3122 3366 
z
" transform="scale(0.015625)"/>
      <path id="DejaVuSans-6c" d="M 603 4863 
L 1178 4863 
L 1178 0 
L 603 0 
L 603 4863 
z
" transform="scale(0.015625)"/>
      <path id="DejaVuSans-20" transform="scale(0.015625)"/>
      <path id="DejaVuSans-50" d="M 1259 4147 
L 1259 2394 
L 2053 2394 
Q 2494 2394 2734 2622 
Q 2975 2850 2975 3272 
Q 2975 3691 2734 3919 
Q 2494 4147 2053 4147 
L 1259 4147 
z
M 628 4666 
L 2053 4666 
Q 2838 4666 3239 4311 
Q 3641 3956 3641 3272 
Q 3641 2581 3239 2228 
Q 2838 1875 2053 1875 
L 1259 1875 
L 1259 0 
L 628 0 
L 628 4666 
z
" transform="scale(0.015625)"/>
      <path id="DejaVuSans-72" d="M 2631 2963 
Q 2534 3019 2420 3045 
Q 2306 3072 2169 3072 
Q 1681 3072 1420 2755 
Q 1159 2438 1159 1844 
L 1159 0 
L 581 0 
L 581 3500 
L 1159 3500 
L 1159 2956 
Q 1341 3275 1631 3429 
Q 1922 3584 2338 3584 
Q 2397 3584 2469 3576 
Q 2541 3569 2628 3553 
L 2631 2963 
z
" transform="scale(0.015625)"/>
      <path id="DejaVuSans-6f" d="M 1959 3097 
Q 1497 3097 1228 2736 
Q 959 2375 959 1747 
Q 959 1119 1226 758 
Q 1494 397 1959 397 
Q 2419 397 2687 759 
Q 2956 1122 2956 1747 
Q 2956 2369 2687 2733 
Q 2419 3097 1959 3097 
z
M 1959 3584 
Q 2709 3584 3137 3096 
Q 3566 2609 3566 1747 
Q 3566 888 3137 398 
Q 2709 -91 1959 -91 
Q 1206 -91 779 398 
Q 353 888 353 1747 
Q 353 2609 779 3096 
Q 1206 3584 1959 3584 
z
" transform="scale(0.015625)"/>
      <path id="DejaVuSans-64" d="M 2906 2969 
L 2906 4863 
L 3481 4863 
L 3481 0 
L 2906 0 
L 2906 525 
Q 2725 213 2448 61 
Q 2172 -91 1784 -91 
Q 1150 -91 751 415 
Q 353 922 353 1747 
Q 353 2572 751 3078 
Q 1150 3584 1784 3584 
Q 2172 3584 2448 3432 
Q 2725 3281 2906 2969 
z
M 947 1747 
Q 947 1113 1208 752 
Q 1469 391 1925 391 
Q 2381 391 2643 752 
Q 2906 1113 2906 1747 
Q 2906 2381 2643 2742 
Q 2381 3103 1925 3103 
Q 1469 3103 1208 2742 
Q 947 2381 947 1747 
z
" transform="scale(0.015625)"/>
      <path id="DejaVuSans-75" d="M 544 1381 
L 544 3500 
L 1119 3500 
L 1119 1403 
Q 1119 906 1312 657 
Q 1506 409 1894 409 
Q 2359 409 2629 706 
Q 2900 1003 2900 1516 
L 2900 3500 
L 3475 3500 
L 3475 0 
L 2900 0 
L 2900 538 
Q 2691 219 2414 64 
Q 2138 -91 1772 -91 
Q 1169 -91 856 284 
Q 544 659 544 1381 
z
M 1991 3584 
L 1991 3584 
z
" transform="scale(0.015625)"/>
      <path id="DejaVuSans-74" d="M 1172 4494 
L 1172 3500 
L 2356 3500 
L 2356 3053 
L 1172 3053 
L 1172 1153 
Q 1172 725 1289 603 
Q 1406 481 1766 481 
L 2356 481 
L 2356 0 
L 1766 0 
Q 1100 0 847 248 
Q 594 497 594 1153 
L 594 3053 
L 172 3053 
L 172 3500 
L 594 3500 
L 594 4494 
L 1172 4494 
z
" transform="scale(0.015625)"/>
      <path id="DejaVuSans-6e" d="M 3513 2113 
L 3513 0 
L 2938 0 
L 2938 2094 
Q 2938 2591 2744 2837 
Q 2550 3084 2163 3084 
Q 1697 3084 1428 2787 
Q 1159 2491 1159 1978 
L 1159 0 
L 581 0 
L 581 3500 
L 1159 3500 
L 1159 2956 
Q 1366 3272 1645 3428 
Q 1925 3584 2291 3584 
Q 2894 3584 3203 3211 
Q 3513 2838 3513 2113 
z
" transform="scale(0.015625)"/>
      <path id="DejaVuSans-66" d="M 2375 4863 
L 2375 4384 
L 1825 4384 
Q 1516 4384 1395 4259 
Q 1275 4134 1275 3809 
L 1275 3500 
L 2222 3500 
L 2222 3053 
L 1275 3053 
L 1275 0 
L 697 0 
L 697 3053 
L 147 3053 
L 147 3500 
L 697 3500 
L 697 3744 
Q 697 4328 969 4595 
Q 1241 4863 1831 4863 
L 2375 4863 
z
" transform="scale(0.015625)"/>
      <path id="DejaVuSans-46" d="M 628 4666 
L 3309 4666 
L 3309 4134 
L 1259 4134 
L 1259 2759 
L 3109 2759 
L 3109 2228 
L 1259 2228 
L 1259 0 
L 628 0 
L 628 4666 
z
" transform="scale(0.015625)"/>
      <path id="DejaVuSans-61" d="M 2194 1759 
Q 1497 1759 1228 1600 
Q 959 1441 959 1056 
Q 959 750 1161 570 
Q 1363 391 1709 391 
Q 2188 391 2477 730 
Q 2766 1069 2766 1631 
L 2766 1759 
L 2194 1759 
z
M 3341 1997 
L 3341 0 
L 2766 0 
L 2766 531 
Q 2569 213 2275 61 
Q 1981 -91 1556 -91 
Q 1019 -91 701 211 
Q 384 513 384 1019 
Q 384 1609 779 1909 
Q 1175 2209 1959 2209 
L 2766 2209 
L 2766 2266 
Q 2766 2663 2505 2880 
Q 2244 3097 1772 3097 
Q 1472 3097 1187 3025 
Q 903 2953 641 2809 
L 641 3341 
Q 956 3463 1253 3523 
Q 1550 3584 1831 3584 
Q 2591 3584 2966 3190 
Q 3341 2797 3341 1997 
z
" transform="scale(0.015625)"/>
      <path id="DejaVuSans-79" d="M 2059 -325 
Q 1816 -950 1584 -1140 
Q 1353 -1331 966 -1331 
L 506 -1331 
L 506 -850 
L 844 -850 
Q 1081 -850 1212 -737 
Q 1344 -625 1503 -206 
L 1606 56 
L 191 3500 
L 800 3500 
L 1894 763 
L 2988 3500 
L 3597 3500 
L 2059 -325 
z
" transform="scale(0.015625)"/>
      <path id="DejaVuSans-41" d="M 2188 4044 
L 1331 1722 
L 3047 1722 
L 2188 4044 
z
M 1831 4666 
L 2547 4666 
L 4325 0 
L 3669 0 
L 3244 1197 
L 1141 1197 
L 716 0 
L 50 0 
L 1831 4666 
z
" transform="scale(0.015625)"/>
     </defs>
     <use xlink:href="#DejaVuSans-56"/>
     <use xlink:href="#DejaVuSans-65" x="60.658203"/>
     <use xlink:href="#DejaVuSans-68" x="122.181641"/>
     <use xlink:href="#DejaVuSans-69" x="185.560547"/>
     <use xlink:href="#DejaVuSans-63" x="213.34375"/>
     <use xlink:href="#DejaVuSans-6c" x="268.324219"/>
     <use xlink:href="#DejaVuSans-65" x="296.107422"/>
     <use xlink:href="#DejaVuSans-20" x="357.630859"/>
     <use xlink:href="#DejaVuSans-50" x="389.417969"/>
     <use xlink:href="#DejaVuSans-72" x="447.970703"/>
     <use xlink:href="#DejaVuSans-6f" x="486.833984"/>
     <use xlink:href="#DejaVuSans-64" x="548.015625"/>
     <use xlink:href="#DejaVuSans-75" x="611.492188"/>
     <use xlink:href="#DejaVuSans-63" x="674.871094"/>
     <use xlink:href="#DejaVuSans-74" x="729.851562"/>
     <use xlink:href="#DejaVuSans-69" x="769.060547"/>
     <use xlink:href="#DejaVuSans-6f" x="796.84375"/>
     <use xlink:href="#DejaVuSans-6e" x="858.025391"/>
     <use xlink:href="#DejaVuSans-20" x="921.404297"/>
     <use xlink:href="#DejaVuSans-6f" x="953.191406"/>
     <use xlink:href="#DejaVuSans-66" x="1014.373047"/>
     <use xlink:href="#DejaVuSans-20" x="1049.578125"/>
     <use xlink:href="#DejaVuSans-46" x="1081.365234"/>
     <use xlink:href="#DejaVuSans-61" x="1129.759766"/>
     <use xlink:href="#DejaVuSans-63" x="1191.039062"/>
     <use xlink:href="#DejaVuSans-74" x="1246.019531"/>
     <use xlink:href="#DejaVuSans-6f" x="1285.228516"/>
     <use xlink:href="#DejaVuSans-72" x="1346.410156"/>
     <use xlink:href="#DejaVuSans-79" x="1387.523438"/>
     <use xlink:href="#DejaVuSans-20" x="1446.703125"/>
     <use xlink:href="#DejaVuSans-41" x="1478.490234"/>
    </g>
   </g>
   <g id="legend_1">
    <g id="patch_55">
     <path d="M 200.516923 92.004375 
L 298.876923 92.004375 
Q 300.476923 92.004375 300.476923 90.404375 
L 300.476923 55.976875 
Q 300.476923 54.376875 298.876923 54.376875 
L 200.516923 54.376875 
Q 198.916923 54.376875 198.916923 55.976875 
L 198.916923 90.404375 
Q 198.916923 92.004375 200.516923 92.004375 
z
" style="fill: #ffffff; opacity: 0.8; stroke: #cccccc; stroke-linejoin: miter"/>
    </g>
    <g id="patch_56">
     <path d="M 202.116923 63.655625 
L 218.116923 63.655625 
L 218.116923 58.055625 
L 202.116923 58.055625 
z
" style="fill: #7fc97f; stroke: #7fc97f; stroke-linejoin: miter"/>
    </g>
    <g id="text_2">
     <!-- Car (32384) -->
     <g transform="translate(224.516923 63.655625)scale(0.08 -0.08)">
      <defs>
       <path id="DejaVuSans-43" d="M 4122 4306 
L 4122 3641 
Q 3803 3938 3442 4084 
Q 3081 4231 2675 4231 
Q 1875 4231 1450 3742 
Q 1025 3253 1025 2328 
Q 1025 1406 1450 917 
Q 1875 428 2675 428 
Q 3081 428 3442 575 
Q 3803 722 4122 1019 
L 4122 359 
Q 3791 134 3420 21 
Q 3050 -91 2638 -91 
Q 1578 -91 968 557 
Q 359 1206 359 2328 
Q 359 3453 968 4101 
Q 1578 4750 2638 4750 
Q 3056 4750 3426 4639 
Q 3797 4528 4122 4306 
z
" transform="scale(0.015625)"/>
       <path id="DejaVuSans-28" d="M 1984 4856 
Q 1566 4138 1362 3434 
Q 1159 2731 1159 2009 
Q 1159 1288 1364 580 
Q 1569 -128 1984 -844 
L 1484 -844 
Q 1016 -109 783 600 
Q 550 1309 550 2009 
Q 550 2706 781 3412 
Q 1013 4119 1484 4856 
L 1984 4856 
z
" transform="scale(0.015625)"/>
       <path id="DejaVuSans-33" d="M 2597 2516 
Q 3050 2419 3304 2112 
Q 3559 1806 3559 1356 
Q 3559 666 3084 287 
Q 2609 -91 1734 -91 
Q 1441 -91 1130 -33 
Q 819 25 488 141 
L 488 750 
Q 750 597 1062 519 
Q 1375 441 1716 441 
Q 2309 441 2620 675 
Q 2931 909 2931 1356 
Q 2931 1769 2642 2001 
Q 2353 2234 1838 2234 
L 1294 2234 
L 1294 2753 
L 1863 2753 
Q 2328 2753 2575 2939 
Q 2822 3125 2822 3475 
Q 2822 3834 2567 4026 
Q 2313 4219 1838 4219 
Q 1578 4219 1281 4162 
Q 984 4106 628 3988 
L 628 4550 
Q 988 4650 1302 4700 
Q 1616 4750 1894 4750 
Q 2613 4750 3031 4423 
Q 3450 4097 3450 3541 
Q 3450 3153 3228 2886 
Q 3006 2619 2597 2516 
z
" transform="scale(0.015625)"/>
       <path id="DejaVuSans-32" d="M 1228 531 
L 3431 531 
L 3431 0 
L 469 0 
L 469 531 
Q 828 903 1448 1529 
Q 2069 2156 2228 2338 
Q 2531 2678 2651 2914 
Q 2772 3150 2772 3378 
Q 2772 3750 2511 3984 
Q 2250 4219 1831 4219 
Q 1534 4219 1204 4116 
Q 875 4013 500 3803 
L 500 4441 
Q 881 4594 1212 4672 
Q 1544 4750 1819 4750 
Q 2544 4750 2975 4387 
Q 3406 4025 3406 3419 
Q 3406 3131 3298 2873 
Q 3191 2616 2906 2266 
Q 2828 2175 2409 1742 
Q 1991 1309 1228 531 
z
" transform="scale(0.015625)"/>
       <path id="DejaVuSans-38" d="M 2034 2216 
Q 1584 2216 1326 1975 
Q 1069 1734 1069 1313 
Q 1069 891 1326 650 
Q 1584 409 2034 409 
Q 2484 409 2743 651 
Q 3003 894 3003 1313 
Q 3003 1734 2745 1975 
Q 2488 2216 2034 2216 
z
M 1403 2484 
Q 997 2584 770 2862 
Q 544 3141 544 3541 
Q 544 4100 942 4425 
Q 1341 4750 2034 4750 
Q 2731 4750 3128 4425 
Q 3525 4100 3525 3541 
Q 3525 3141 3298 2862 
Q 3072 2584 2669 2484 
Q 3125 2378 3379 2068 
Q 3634 1759 3634 1313 
Q 3634 634 3220 271 
Q 2806 -91 2034 -91 
Q 1263 -91 848 271 
Q 434 634 434 1313 
Q 434 1759 690 2068 
Q 947 2378 1403 2484 
z
M 1172 3481 
Q 1172 3119 1398 2916 
Q 1625 2713 2034 2713 
Q 2441 2713 2670 2916 
Q 2900 3119 2900 3481 
Q 2900 3844 2670 4047 
Q 2441 4250 2034 4250 
Q 1625 4250 1398 4047 
Q 1172 3844 1172 3481 
z
" transform="scale(0.015625)"/>
       <path id="DejaVuSans-34" d="M 2419 4116 
L 825 1625 
L 2419 1625 
L 2419 4116 
z
M 2253 4666 
L 3047 4666 
L 3047 1625 
L 3713 1625 
L 3713 1100 
L 3047 1100 
L 3047 0 
L 2419 0 
L 2419 1100 
L 313 1100 
L 313 1709 
L 2253 4666 
z
" transform="scale(0.015625)"/>
       <path id="DejaVuSans-29" d="M 513 4856 
L 1013 4856 
Q 1481 4119 1714 3412 
Q 1947 2706 1947 2009 
Q 1947 1309 1714 600 
Q 1481 -109 1013 -844 
L 513 -844 
Q 928 -128 1133 580 
Q 1338 1288 1338 2009 
Q 1338 2731 1133 3434 
Q 928 4138 513 4856 
z
" transform="scale(0.015625)"/>
      </defs>
      <use xlink:href="#DejaVuSans-43"/>
      <use xlink:href="#DejaVuSans-61" x="69.824219"/>
      <use xlink:href="#DejaVuSans-72" x="131.103516"/>
      <use xlink:href="#DejaVuSans-20" x="172.216797"/>
      <use xlink:href="#DejaVuSans-28" x="204.003906"/>
      <use xlink:href="#DejaVuSans-33" x="243.017578"/>
      <use xlink:href="#DejaVuSans-32" x="306.640625"/>
      <use xlink:href="#DejaVuSans-33" x="370.263672"/>
      <use xlink:href="#DejaVuSans-38" x="433.886719"/>
      <use xlink:href="#DejaVuSans-34" x="497.509766"/>
      <use xlink:href="#DejaVuSans-29" x="561.132812"/>
     </g>
    </g>
    <g id="patch_57">
     <path d="M 202.116923 75.398125 
L 218.116923 75.398125 
L 218.116923 69.798125 
L 202.116923 69.798125 
z
" style="fill: #beaed4; stroke: #beaed4; stroke-linejoin: miter"/>
    </g>
    <g id="text_3">
     <!-- Truck (13354) -->
     <g transform="translate(224.516923 75.398125)scale(0.08 -0.08)">
      <defs>
       <path id="DejaVuSans-54" d="M -19 4666 
L 3928 4666 
L 3928 4134 
L 2272 4134 
L 2272 0 
L 1638 0 
L 1638 4134 
L -19 4134 
L -19 4666 
z
" transform="scale(0.015625)"/>
       <path id="DejaVuSans-6b" d="M 581 4863 
L 1159 4863 
L 1159 1991 
L 2875 3500 
L 3609 3500 
L 1753 1863 
L 3688 0 
L 2938 0 
L 1159 1709 
L 1159 0 
L 581 0 
L 581 4863 
z
" transform="scale(0.015625)"/>
       <path id="DejaVuSans-31" d="M 794 531 
L 1825 531 
L 1825 4091 
L 703 3866 
L 703 4441 
L 1819 4666 
L 2450 4666 
L 2450 531 
L 3481 531 
L 3481 0 
L 794 0 
L 794 531 
z
" transform="scale(0.015625)"/>
       <path id="DejaVuSans-35" d="M 691 4666 
L 3169 4666 
L 3169 4134 
L 1269 4134 
L 1269 2991 
Q 1406 3038 1543 3061 
Q 1681 3084 1819 3084 
Q 2600 3084 3056 2656 
Q 3513 2228 3513 1497 
Q 3513 744 3044 326 
Q 2575 -91 1722 -91 
Q 1428 -91 1123 -41 
Q 819 9 494 109 
L 494 744 
Q 775 591 1075 516 
Q 1375 441 1709 441 
Q 2250 441 2565 725 
Q 2881 1009 2881 1497 
Q 2881 1984 2565 2268 
Q 2250 2553 1709 2553 
Q 1456 2553 1204 2497 
Q 953 2441 691 2322 
L 691 4666 
z
" transform="scale(0.015625)"/>
      </defs>
      <use xlink:href="#DejaVuSans-54"/>
      <use xlink:href="#DejaVuSans-72" x="46.333984"/>
      <use xlink:href="#DejaVuSans-75" x="87.447266"/>
      <use xlink:href="#DejaVuSans-63" x="150.826172"/>
      <use xlink:href="#DejaVuSans-6b" x="205.806641"/>
      <use xlink:href="#DejaVuSans-20" x="263.716797"/>
      <use xlink:href="#DejaVuSans-28" x="295.503906"/>
      <use xlink:href="#DejaVuSans-31" x="334.517578"/>
      <use xlink:href="#DejaVuSans-33" x="398.140625"/>
      <use xlink:href="#DejaVuSans-33" x="461.763672"/>
      <use xlink:href="#DejaVuSans-35" x="525.386719"/>
      <use xlink:href="#DejaVuSans-34" x="589.009766"/>
      <use xlink:href="#DejaVuSans-29" x="652.632812"/>
     </g>
    </g>
    <g id="patch_58">
     <path d="M 202.116923 87.140625 
L 218.116923 87.140625 
L 218.116923 81.540625 
L 202.116923 81.540625 
z
" style="fill: #fdc086; stroke: #fdc086; stroke-linejoin: miter"/>
    </g>
    <g id="text_4">
     <!-- Motorcycle (5245) -->
     <g transform="translate(224.516923 87.140625)scale(0.08 -0.08)">
      <defs>
       <path id="DejaVuSans-4d" d="M 628 4666 
L 1569 4666 
L 2759 1491 
L 3956 4666 
L 4897 4666 
L 4897 0 
L 4281 0 
L 4281 4097 
L 3078 897 
L 2444 897 
L 1241 4097 
L 1241 0 
L 628 0 
L 628 4666 
z
" transform="scale(0.015625)"/>
      </defs>
      <use xlink:href="#DejaVuSans-4d"/>
      <use xlink:href="#DejaVuSans-6f" x="86.279297"/>
      <use xlink:href="#DejaVuSans-74" x="147.460938"/>
      <use xlink:href="#DejaVuSans-6f" x="186.669922"/>
      <use xlink:href="#DejaVuSans-72" x="247.851562"/>
      <use xlink:href="#DejaVuSans-63" x="286.714844"/>
      <use xlink:href="#DejaVuSans-79" x="341.695312"/>
      <use xlink:href="#DejaVuSans-63" x="400.875"/>
      <use xlink:href="#DejaVuSans-6c" x="455.855469"/>
      <use xlink:href="#DejaVuSans-65" x="483.638672"/>
      <use xlink:href="#DejaVuSans-20" x="545.162109"/>
      <use xlink:href="#DejaVuSans-28" x="576.949219"/>
      <use xlink:href="#DejaVuSans-35" x="615.962891"/>
      <use xlink:href="#DejaVuSans-32" x="679.585938"/>
      <use xlink:href="#DejaVuSans-34" x="743.208984"/>
      <use xlink:href="#DejaVuSans-35" x="806.832031"/>
      <use xlink:href="#DejaVuSans-29" x="870.455078"/>
     </g>
    </g>
   </g>
  </g>
  <g id="axes_2">
   <g id="patch_59">
    <path d="M 15.70625 228.59125 
L 28.835237 228.59125 
L 28.835237 215.462263 
L 15.70625 215.462263 
z
" clip-path="url(#p1b883addbb)" style="fill: #7fc97f; stroke: #7fc97f; stroke-linejoin: miter"/>
   </g>
   <g id="patch_60">
    <path d="M 15.70625 212.836466 
L 28.835237 212.836466 
L 28.835237 199.707478 
L 15.70625 199.707478 
z
" clip-path="url(#p1b883addbb)" style="fill: #7fc97f; stroke: #7fc97f; stroke-linejoin: miter"/>
   </g>
   <g id="patch_61">
    <path d="M 15.70625 197.081681 
L 28.835237 197.081681 
L 28.835237 183.952694 
L 15.70625 183.952694 
z
" clip-path="url(#p1b883addbb)" style="fill: #7fc97f; stroke: #7fc97f; stroke-linejoin: miter"/>
   </g>
   <g id="patch_62">
    <path d="M 15.70625 181.326897 
L 28.835237 181.326897 
L 28.835237 168.197909 
L 15.70625 168.197909 
z
" clip-path="url(#p1b883addbb)" style="fill: #7fc97f; stroke: #7fc97f; stroke-linejoin: miter"/>
   </g>
   <g id="patch_63">
    <path d="M 15.70625 165.572112 
L 28.835237 165.572112 
L 28.835237 152.443125 
L 15.70625 152.443125 
z
" clip-path="url(#p1b883addbb)" style="fill: #7fc97f; stroke: #7fc97f; stroke-linejoin: miter"/>
   </g>
   <g id="patch_64">
    <path d="M 31.461034 228.59125 
L 44.590022 228.59125 
L 44.590022 215.462263 
L 31.461034 215.462263 
z
" clip-path="url(#p1b883addbb)" style="fill: #7fc97f; stroke: #7fc97f; stroke-linejoin: miter"/>
   </g>
   <g id="patch_65">
    <path d="M 31.461034 212.836466 
L 44.590022 212.836466 
L 44.590022 199.707478 
L 31.461034 199.707478 
z
" clip-path="url(#p1b883addbb)" style="fill: #7fc97f; stroke: #7fc97f; stroke-linejoin: miter"/>
   </g>
   <g id="patch_66">
    <path d="M 31.461034 197.081681 
L 44.590022 197.081681 
L 44.590022 183.952694 
L 31.461034 183.952694 
z
" clip-path="url(#p1b883addbb)" style="fill: #7fc97f; stroke: #7fc97f; stroke-linejoin: miter"/>
   </g>
   <g id="patch_67">
    <path d="M 31.461034 181.326897 
L 44.590022 181.326897 
L 44.590022 168.197909 
L 31.461034 168.197909 
z
" clip-path="url(#p1b883addbb)" style="fill: #7fc97f; stroke: #7fc97f; stroke-linejoin: miter"/>
   </g>
   <g id="patch_68">
    <path d="M 31.461034 165.572112 
L 44.590022 165.572112 
L 44.590022 152.443125 
L 31.461034 152.443125 
z
" clip-path="url(#p1b883addbb)" style="fill: #7fc97f; stroke: #7fc97f; stroke-linejoin: miter"/>
   </g>
   <g id="patch_69">
    <path d="M 47.215819 228.59125 
L 60.344806 228.59125 
L 60.344806 215.462263 
L 47.215819 215.462263 
z
" clip-path="url(#p1b883addbb)" style="fill: #7fc97f; stroke: #7fc97f; stroke-linejoin: miter"/>
   </g>
   <g id="patch_70">
    <path d="M 47.215819 212.836466 
L 60.344806 212.836466 
L 60.344806 199.707478 
L 47.215819 199.707478 
z
" clip-path="url(#p1b883addbb)" style="fill: #7fc97f; stroke: #7fc97f; stroke-linejoin: miter"/>
   </g>
   <g id="patch_71">
    <path d="M 47.215819 197.081681 
L 60.344806 197.081681 
L 60.344806 183.952694 
L 47.215819 183.952694 
z
" clip-path="url(#p1b883addbb)" style="fill: #7fc97f; stroke: #7fc97f; stroke-linejoin: miter"/>
   </g>
   <g id="patch_72">
    <path d="M 47.215819 181.326897 
L 60.344806 181.326897 
L 60.344806 168.197909 
L 47.215819 168.197909 
z
" clip-path="url(#p1b883addbb)" style="fill: #7fc97f; stroke: #7fc97f; stroke-linejoin: miter"/>
   </g>
   <g id="patch_73">
    <path d="M 47.215819 165.572112 
L 60.344806 165.572112 
L 60.344806 152.443125 
L 47.215819 152.443125 
z
" clip-path="url(#p1b883addbb)" style="fill: #7fc97f; stroke: #7fc97f; stroke-linejoin: miter"/>
   </g>
   <g id="patch_74">
    <path d="M 62.970603 228.59125 
L 76.099591 228.59125 
L 76.099591 215.462263 
L 62.970603 215.462263 
z
" clip-path="url(#p1b883addbb)" style="fill: #7fc97f; stroke: #7fc97f; stroke-linejoin: miter"/>
   </g>
   <g id="patch_75">
    <path d="M 62.970603 212.836466 
L 76.099591 212.836466 
L 76.099591 199.707478 
L 62.970603 199.707478 
z
" clip-path="url(#p1b883addbb)" style="fill: #7fc97f; stroke: #7fc97f; stroke-linejoin: miter"/>
   </g>
   <g id="patch_76">
    <path d="M 62.970603 197.081681 
L 76.099591 197.081681 
L 76.099591 183.952694 
L 62.970603 183.952694 
z
" clip-path="url(#p1b883addbb)" style="fill: #7fc97f; stroke: #7fc97f; stroke-linejoin: miter"/>
   </g>
   <g id="patch_77">
    <path d="M 62.970603 181.326897 
L 76.099591 181.326897 
L 76.099591 168.197909 
L 62.970603 168.197909 
z
" clip-path="url(#p1b883addbb)" style="fill: #7fc97f; stroke: #7fc97f; stroke-linejoin: miter"/>
   </g>
   <g id="patch_78">
    <path d="M 62.970603 165.572112 
L 76.099591 165.572112 
L 76.099591 152.443125 
L 62.970603 152.443125 
z
" clip-path="url(#p1b883addbb)" style="fill: #7fc97f; stroke: #7fc97f; stroke-linejoin: miter"/>
   </g>
   <g id="patch_79">
    <path d="M 78.725388 228.59125 
L 91.854375 228.59125 
L 91.854375 215.462263 
L 78.725388 215.462263 
z
" clip-path="url(#p1b883addbb)" style="fill: #7fc97f; stroke: #7fc97f; stroke-linejoin: miter"/>
   </g>
   <g id="patch_80">
    <path d="M 78.725388 212.836466 
L 91.854375 212.836466 
L 91.854375 199.707478 
L 78.725388 199.707478 
z
" clip-path="url(#p1b883addbb)" style="fill: #7fc97f; stroke: #7fc97f; stroke-linejoin: miter"/>
   </g>
   <g id="patch_81">
    <path d="M 78.725388 197.081681 
L 91.854375 197.081681 
L 91.854375 183.952694 
L 78.725388 183.952694 
z
" clip-path="url(#p1b883addbb)" style="fill: #7fc97f; stroke: #7fc97f; stroke-linejoin: miter"/>
   </g>
   <g id="patch_82">
    <path d="M 78.725388 181.326897 
L 91.854375 181.326897 
L 91.854375 168.197909 
L 78.725388 168.197909 
z
" clip-path="url(#p1b883addbb)" style="fill: #beaed4; stroke: #beaed4; stroke-linejoin: miter"/>
   </g>
   <g id="patch_83">
    <path d="M 78.725388 165.572112 
L 91.854375 165.572112 
L 91.854375 152.443125 
L 78.725388 152.443125 
z
" clip-path="url(#p1b883addbb)" style="fill: #beaed4; stroke: #beaed4; stroke-linejoin: miter"/>
   </g>
   <g id="patch_84">
    <path d="M 94.480172 228.59125 
L 107.609159 228.59125 
L 107.609159 215.462263 
L 94.480172 215.462263 
z
" clip-path="url(#p1b883addbb)" style="fill: #beaed4; stroke: #beaed4; stroke-linejoin: miter"/>
   </g>
   <g id="patch_85">
    <path d="M 94.480172 212.836466 
L 107.609159 212.836466 
L 107.609159 199.707478 
L 94.480172 199.707478 
z
" clip-path="url(#p1b883addbb)" style="fill: #beaed4; stroke: #beaed4; stroke-linejoin: miter"/>
   </g>
   <g id="patch_86">
    <path d="M 94.480172 197.081681 
L 107.609159 197.081681 
L 107.609159 183.952694 
L 94.480172 183.952694 
z
" clip-path="url(#p1b883addbb)" style="fill: #beaed4; stroke: #beaed4; stroke-linejoin: miter"/>
   </g>
   <g id="patch_87">
    <path d="M 94.480172 181.326897 
L 107.609159 181.326897 
L 107.609159 168.197909 
L 94.480172 168.197909 
z
" clip-path="url(#p1b883addbb)" style="fill: #beaed4; stroke: #beaed4; stroke-linejoin: miter"/>
   </g>
   <g id="patch_88">
    <path d="M 94.480172 165.572112 
L 107.609159 165.572112 
L 107.609159 152.443125 
L 94.480172 152.443125 
z
" clip-path="url(#p1b883addbb)" style="fill: #beaed4; stroke: #beaed4; stroke-linejoin: miter"/>
   </g>
   <g id="patch_89">
    <path d="M 110.234957 228.59125 
L 123.363944 228.59125 
L 123.363944 215.462263 
L 110.234957 215.462263 
z
" clip-path="url(#p1b883addbb)" style="fill: #fdc086; stroke: #fdc086; stroke-linejoin: miter"/>
   </g>
   <g id="patch_90">
    <path d="M 110.234957 212.836466 
L 123.363944 212.836466 
L 123.363944 199.707478 
L 110.234957 199.707478 
z
" clip-path="url(#p1b883addbb)" style="fill: #fdc086; stroke: #fdc086; stroke-linejoin: miter"/>
   </g>
   <g id="patch_91">
    <path d="M 110.234957 197.081681 
L 123.363944 197.081681 
L 123.363944 183.952694 
L 110.234957 183.952694 
z
" clip-path="url(#p1b883addbb)" style="fill: #fdc086; stroke: #fdc086; stroke-linejoin: miter"/>
   </g>
   <g id="text_5">
    <!-- Vehicle Production of Factory B -->
    <g transform="translate(15.70625 146.443125)scale(0.12 -0.12)">
     <defs>
      <path id="DejaVuSans-42" d="M 1259 2228 
L 1259 519 
L 2272 519 
Q 2781 519 3026 730 
Q 3272 941 3272 1375 
Q 3272 1813 3026 2020 
Q 2781 2228 2272 2228 
L 1259 2228 
z
M 1259 4147 
L 1259 2741 
L 2194 2741 
Q 2656 2741 2882 2914 
Q 3109 3088 3109 3444 
Q 3109 3797 2882 3972 
Q 2656 4147 2194 4147 
L 1259 4147 
z
M 628 4666 
L 2241 4666 
Q 2963 4666 3353 4366 
Q 3744 4066 3744 3513 
Q 3744 3084 3544 2831 
Q 3344 2578 2956 2516 
Q 3422 2416 3680 2098 
Q 3938 1781 3938 1306 
Q 3938 681 3513 340 
Q 3088 0 2303 0 
L 628 0 
L 628 4666 
z
" transform="scale(0.015625)"/>
     </defs>
     <use xlink:href="#DejaVuSans-56"/>
     <use xlink:href="#DejaVuSans-65" x="60.658203"/>
     <use xlink:href="#DejaVuSans-68" x="122.181641"/>
     <use xlink:href="#DejaVuSans-69" x="185.560547"/>
     <use xlink:href="#DejaVuSans-63" x="213.34375"/>
     <use xlink:href="#DejaVuSans-6c" x="268.324219"/>
     <use xlink:href="#DejaVuSans-65" x="296.107422"/>
     <use xlink:href="#DejaVuSans-20" x="357.630859"/>
     <use xlink:href="#DejaVuSans-50" x="389.417969"/>
     <use xlink:href="#DejaVuSans-72" x="447.970703"/>
     <use xlink:href="#DejaVuSans-6f" x="486.833984"/>
     <use xlink:href="#DejaVuSans-64" x="548.015625"/>
     <use xlink:href="#DejaVuSans-75" x="611.492188"/>
     <use xlink:href="#DejaVuSans-63" x="674.871094"/>
     <use xlink:href="#DejaVuSans-74" x="729.851562"/>
     <use xlink:href="#DejaVuSans-69" x="769.060547"/>
     <use xlink:href="#DejaVuSans-6f" x="796.84375"/>
     <use xlink:href="#DejaVuSans-6e" x="858.025391"/>
     <use xlink:href="#DejaVuSans-20" x="921.404297"/>
     <use xlink:href="#DejaVuSans-6f" x="953.191406"/>
     <use xlink:href="#DejaVuSans-66" x="1014.373047"/>
     <use xlink:href="#DejaVuSans-20" x="1049.578125"/>
     <use xlink:href="#DejaVuSans-46" x="1081.365234"/>
     <use xlink:href="#DejaVuSans-61" x="1129.759766"/>
     <use xlink:href="#DejaVuSans-63" x="1191.039062"/>
     <use xlink:href="#DejaVuSans-74" x="1246.019531"/>
     <use xlink:href="#DejaVuSans-6f" x="1285.228516"/>
     <use xlink:href="#DejaVuSans-72" x="1346.410156"/>
     <use xlink:href="#DejaVuSans-79" x="1387.523438"/>
     <use xlink:href="#DejaVuSans-20" x="1446.703125"/>
     <use xlink:href="#DejaVuSans-42" x="1478.490234"/>
    </g>
   </g>
   <g id="legend_2">
    <g id="patch_92">
     <path d="M 150.495483 194.070625 
L 248.855483 194.070625 
Q 250.455483 194.070625 250.455483 192.470625 
L 250.455483 158.043125 
Q 250.455483 156.443125 248.855483 156.443125 
L 150.495483 156.443125 
Q 148.895483 156.443125 148.895483 158.043125 
L 148.895483 192.470625 
Q 148.895483 194.070625 150.495483 194.070625 
z
" style="fill: #ffffff; opacity: 0.8; stroke: #cccccc; stroke-linejoin: miter"/>
    </g>
    <g id="patch_93">
     <path d="M 152.095483 165.721875 
L 168.095483 165.721875 
L 168.095483 160.121875 
L 152.095483 160.121875 
z
" style="fill: #7fc97f; stroke: #7fc97f; stroke-linejoin: miter"/>
    </g>
    <g id="text_6">
     <!-- Car (22147) -->
     <g transform="translate(174.495483 165.721875)scale(0.08 -0.08)">
      <defs>
       <path id="DejaVuSans-37" d="M 525 4666 
L 3525 4666 
L 3525 4397 
L 1831 0 
L 1172 0 
L 2766 4134 
L 525 4134 
L 525 4666 
z
" transform="scale(0.015625)"/>
      </defs>
      <use xlink:href="#DejaVuSans-43"/>
      <use xlink:href="#DejaVuSans-61" x="69.824219"/>
      <use xlink:href="#DejaVuSans-72" x="131.103516"/>
      <use xlink:href="#DejaVuSans-20" x="172.216797"/>
      <use xlink:href="#DejaVuSans-28" x="204.003906"/>
      <use xlink:href="#DejaVuSans-32" x="243.017578"/>
      <use xlink:href="#DejaVuSans-32" x="306.640625"/>
      <use xlink:href="#DejaVuSans-31" x="370.263672"/>
      <use xlink:href="#DejaVuSans-34" x="433.886719"/>
      <use xlink:href="#DejaVuSans-37" x="497.509766"/>
      <use xlink:href="#DejaVuSans-29" x="561.132812"/>
     </g>
    </g>
    <g id="patch_94">
     <path d="M 152.095483 177.464375 
L 168.095483 177.464375 
L 168.095483 171.864375 
L 152.095483 171.864375 
z
" style="fill: #beaed4; stroke: #beaed4; stroke-linejoin: miter"/>
    </g>
    <g id="text_7">
     <!-- Truck (6678) -->
     <g transform="translate(174.495483 177.464375)scale(0.08 -0.08)">
      <defs>
       <path id="DejaVuSans-36" d="M 2113 2584 
Q 1688 2584 1439 2293 
Q 1191 2003 1191 1497 
Q 1191 994 1439 701 
Q 1688 409 2113 409 
Q 2538 409 2786 701 
Q 3034 994 3034 1497 
Q 3034 2003 2786 2293 
Q 2538 2584 2113 2584 
z
M 3366 4563 
L 3366 3988 
Q 3128 4100 2886 4159 
Q 2644 4219 2406 4219 
Q 1781 4219 1451 3797 
Q 1122 3375 1075 2522 
Q 1259 2794 1537 2939 
Q 1816 3084 2150 3084 
Q 2853 3084 3261 2657 
Q 3669 2231 3669 1497 
Q 3669 778 3244 343 
Q 2819 -91 2113 -91 
Q 1303 -91 875 529 
Q 447 1150 447 2328 
Q 447 3434 972 4092 
Q 1497 4750 2381 4750 
Q 2619 4750 2861 4703 
Q 3103 4656 3366 4563 
z
" transform="scale(0.015625)"/>
      </defs>
      <use xlink:href="#DejaVuSans-54"/>
      <use xlink:href="#DejaVuSans-72" x="46.333984"/>
      <use xlink:href="#DejaVuSans-75" x="87.447266"/>
      <use xlink:href="#DejaVuSans-63" x="150.826172"/>
      <use xlink:href="#DejaVuSans-6b" x="205.806641"/>
      <use xlink:href="#DejaVuSans-20" x="263.716797"/>
      <use xlink:href="#DejaVuSans-28" x="295.503906"/>
      <use xlink:href="#DejaVuSans-36" x="334.517578"/>
      <use xlink:href="#DejaVuSans-36" x="398.140625"/>
      <use xlink:href="#DejaVuSans-37" x="461.763672"/>
      <use xlink:href="#DejaVuSans-38" x="525.386719"/>
      <use xlink:href="#DejaVuSans-29" x="589.009766"/>
     </g>
    </g>
    <g id="patch_95">
     <path d="M 152.095483 189.206875 
L 168.095483 189.206875 
L 168.095483 183.606875 
L 152.095483 183.606875 
z
" style="fill: #fdc086; stroke: #fdc086; stroke-linejoin: miter"/>
    </g>
    <g id="text_8">
     <!-- Motorcycle (2156) -->
     <g transform="translate(174.495483 189.206875)scale(0.08 -0.08)">
      <use xlink:href="#DejaVuSans-4d"/>
      <use xlink:href="#DejaVuSans-6f" x="86.279297"/>
      <use xlink:href="#DejaVuSans-74" x="147.460938"/>
      <use xlink:href="#DejaVuSans-6f" x="186.669922"/>
      <use xlink:href="#DejaVuSans-72" x="247.851562"/>
      <use xlink:href="#DejaVuSans-63" x="286.714844"/>
      <use xlink:href="#DejaVuSans-79" x="341.695312"/>
      <use xlink:href="#DejaVuSans-63" x="400.875"/>
      <use xlink:href="#DejaVuSans-6c" x="455.855469"/>
      <use xlink:href="#DejaVuSans-65" x="483.638672"/>
      <use xlink:href="#DejaVuSans-20" x="545.162109"/>
      <use xlink:href="#DejaVuSans-28" x="576.949219"/>
      <use xlink:href="#DejaVuSans-32" x="615.962891"/>
      <use xlink:href="#DejaVuSans-31" x="679.585938"/>
      <use xlink:href="#DejaVuSans-35" x="743.208984"/>
      <use xlink:href="#DejaVuSans-36" x="806.832031"/>
      <use xlink:href="#DejaVuSans-29" x="870.455078"/>
     </g>
    </g>
   </g>
  </g>
  <g id="axes_3">
   <g id="patch_96">
    <path d="M 15.70625 330.6575 
L 28.835237 330.6575 
L 28.835237 317.528513 
L 15.70625 317.528513 
z
" clip-path="url(#pa47f2ecfc5)" style="fill: #7fc97f; stroke: #7fc97f; stroke-linejoin: miter"/>
   </g>
   <g id="patch_97">
    <path d="M 15.70625 314.902716 
L 28.835237 314.902716 
L 28.835237 301.773728 
L 15.70625 301.773728 
z
" clip-path="url(#pa47f2ecfc5)" style="fill: #7fc97f; stroke: #7fc97f; stroke-linejoin: miter"/>
   </g>
   <g id="patch_98">
    <path d="M 15.70625 299.147931 
L 28.835237 299.147931 
L 28.835237 286.018944 
L 15.70625 286.018944 
z
" clip-path="url(#pa47f2ecfc5)" style="fill: #7fc97f; stroke: #7fc97f; stroke-linejoin: miter"/>
   </g>
   <g id="patch_99">
    <path d="M 15.70625 283.393147 
L 28.835237 283.393147 
L 28.835237 270.264159 
L 15.70625 270.264159 
z
" clip-path="url(#pa47f2ecfc5)" style="fill: #7fc97f; stroke: #7fc97f; stroke-linejoin: miter"/>
   </g>
   <g id="patch_100">
    <path d="M 15.70625 267.638362 
L 28.835237 267.638362 
L 28.835237 254.509375 
L 15.70625 254.509375 
z
" clip-path="url(#pa47f2ecfc5)" style="fill: #7fc97f; stroke: #7fc97f; stroke-linejoin: miter"/>
   </g>
   <g id="patch_101">
    <path d="M 31.461034 330.6575 
L 44.590022 330.6575 
L 44.590022 317.528513 
L 31.461034 317.528513 
z
" clip-path="url(#pa47f2ecfc5)" style="fill: #7fc97f; stroke: #7fc97f; stroke-linejoin: miter"/>
   </g>
   <g id="patch_102">
    <path d="M 31.461034 314.902716 
L 44.590022 314.902716 
L 44.590022 301.773728 
L 31.461034 301.773728 
z
" clip-path="url(#pa47f2ecfc5)" style="fill: #7fc97f; stroke: #7fc97f; stroke-linejoin: miter"/>
   </g>
   <g id="patch_103">
    <path d="M 31.461034 299.147931 
L 44.590022 299.147931 
L 44.590022 286.018944 
L 31.461034 286.018944 
z
" clip-path="url(#pa47f2ecfc5)" style="fill: #7fc97f; stroke: #7fc97f; stroke-linejoin: miter"/>
   </g>
   <g id="patch_104">
    <path d="M 31.461034 283.393147 
L 44.590022 283.393147 
L 44.590022 270.264159 
L 31.461034 270.264159 
z
" clip-path="url(#pa47f2ecfc5)" style="fill: #7fc97f; stroke: #7fc97f; stroke-linejoin: miter"/>
   </g>
   <g id="patch_105">
    <path d="M 31.461034 267.638362 
L 44.590022 267.638362 
L 44.590022 254.509375 
L 31.461034 254.509375 
z
" clip-path="url(#pa47f2ecfc5)" style="fill: #beaed4; stroke: #beaed4; stroke-linejoin: miter"/>
   </g>
   <g id="patch_106">
    <path d="M 47.215819 330.6575 
L 60.344806 330.6575 
L 60.344806 317.528513 
L 47.215819 317.528513 
z
" clip-path="url(#pa47f2ecfc5)" style="fill: #beaed4; stroke: #beaed4; stroke-linejoin: miter"/>
   </g>
   <g id="patch_107">
    <path d="M 47.215819 314.902716 
L 60.344806 314.902716 
L 60.344806 301.773728 
L 47.215819 301.773728 
z
" clip-path="url(#pa47f2ecfc5)" style="fill: #beaed4; stroke: #beaed4; stroke-linejoin: miter"/>
   </g>
   <g id="patch_108">
    <path d="M 47.215819 299.147931 
L 60.344806 299.147931 
L 60.344806 286.018944 
L 47.215819 286.018944 
z
" clip-path="url(#pa47f2ecfc5)" style="fill: #beaed4; stroke: #beaed4; stroke-linejoin: miter"/>
   </g>
   <g id="patch_109">
    <path d="M 47.215819 283.393147 
L 60.344806 283.393147 
L 60.344806 270.264159 
L 47.215819 270.264159 
z
" clip-path="url(#pa47f2ecfc5)" style="fill: #fdc086; stroke: #fdc086; stroke-linejoin: miter"/>
   </g>
   <g id="text_9">
    <!-- Vehicle Production of Factory C -->
    <g transform="translate(15.70625 248.509375)scale(0.12 -0.12)">
     <use xlink:href="#DejaVuSans-56"/>
     <use xlink:href="#DejaVuSans-65" x="60.658203"/>
     <use xlink:href="#DejaVuSans-68" x="122.181641"/>
     <use xlink:href="#DejaVuSans-69" x="185.560547"/>
     <use xlink:href="#DejaVuSans-63" x="213.34375"/>
     <use xlink:href="#DejaVuSans-6c" x="268.324219"/>
     <use xlink:href="#DejaVuSans-65" x="296.107422"/>
     <use xlink:href="#DejaVuSans-20" x="357.630859"/>
     <use xlink:href="#DejaVuSans-50" x="389.417969"/>
     <use xlink:href="#DejaVuSans-72" x="447.970703"/>
     <use xlink:href="#DejaVuSans-6f" x="486.833984"/>
     <use xlink:href="#DejaVuSans-64" x="548.015625"/>
     <use xlink:href="#DejaVuSans-75" x="611.492188"/>
     <use xlink:href="#DejaVuSans-63" x="674.871094"/>
     <use xlink:href="#DejaVuSans-74" x="729.851562"/>
     <use xlink:href="#DejaVuSans-69" x="769.060547"/>
     <use xlink:href="#DejaVuSans-6f" x="796.84375"/>
     <use xlink:href="#DejaVuSans-6e" x="858.025391"/>
     <use xlink:href="#DejaVuSans-20" x="921.404297"/>
     <use xlink:href="#DejaVuSans-6f" x="953.191406"/>
     <use xlink:href="#DejaVuSans-66" x="1014.373047"/>
     <use xlink:href="#DejaVuSans-20" x="1049.578125"/>
     <use xlink:href="#DejaVuSans-46" x="1081.365234"/>
     <use xlink:href="#DejaVuSans-61" x="1129.759766"/>
     <use xlink:href="#DejaVuSans-63" x="1191.039062"/>
     <use xlink:href="#DejaVuSans-74" x="1246.019531"/>
     <use xlink:href="#DejaVuSans-6f" x="1285.228516"/>
     <use xlink:href="#DejaVuSans-72" x="1346.410156"/>
     <use xlink:href="#DejaVuSans-79" x="1387.523438"/>
     <use xlink:href="#DejaVuSans-20" x="1446.703125"/>
     <use xlink:href="#DejaVuSans-43" x="1478.490234"/>
    </g>
   </g>
   <g id="legend_3">
    <g id="patch_110">
     <path d="M 79.336373 296.136875 
L 172.606373 296.136875 
Q 174.206373 296.136875 174.206373 294.536875 
L 174.206373 260.109375 
Q 174.206373 258.509375 172.606373 258.509375 
L 79.336373 258.509375 
Q 77.736373 258.509375 77.736373 260.109375 
L 77.736373 294.536875 
Q 77.736373 296.136875 79.336373 296.136875 
z
" style="fill: #ffffff; opacity: 0.8; stroke: #cccccc; stroke-linejoin: miter"/>
    </g>
    <g id="patch_111">
     <path d="M 80.936373 267.788125 
L 96.936373 267.788125 
L 96.936373 262.188125 
L 80.936373 262.188125 
z
" style="fill: #7fc97f; stroke: #7fc97f; stroke-linejoin: miter"/>
    </g>
    <g id="text_10">
     <!-- Car (8932) -->
     <g transform="translate(103.336373 267.788125)scale(0.08 -0.08)">
      <defs>
       <path id="DejaVuSans-39" d="M 703 97 
L 703 672 
Q 941 559 1184 500 
Q 1428 441 1663 441 
Q 2288 441 2617 861 
Q 2947 1281 2994 2138 
Q 2813 1869 2534 1725 
Q 2256 1581 1919 1581 
Q 1219 1581 811 2004 
Q 403 2428 403 3163 
Q 403 3881 828 4315 
Q 1253 4750 1959 4750 
Q 2769 4750 3195 4129 
Q 3622 3509 3622 2328 
Q 3622 1225 3098 567 
Q 2575 -91 1691 -91 
Q 1453 -91 1209 -44 
Q 966 3 703 97 
z
M 1959 2075 
Q 2384 2075 2632 2365 
Q 2881 2656 2881 3163 
Q 2881 3666 2632 3958 
Q 2384 4250 1959 4250 
Q 1534 4250 1286 3958 
Q 1038 3666 1038 3163 
Q 1038 2656 1286 2365 
Q 1534 2075 1959 2075 
z
" transform="scale(0.015625)"/>
      </defs>
      <use xlink:href="#DejaVuSans-43"/>
      <use xlink:href="#DejaVuSans-61" x="69.824219"/>
      <use xlink:href="#DejaVuSans-72" x="131.103516"/>
      <use xlink:href="#DejaVuSans-20" x="172.216797"/>
      <use xlink:href="#DejaVuSans-28" x="204.003906"/>
      <use xlink:href="#DejaVuSans-38" x="243.017578"/>
      <use xlink:href="#DejaVuSans-39" x="306.640625"/>
      <use xlink:href="#DejaVuSans-33" x="370.263672"/>
      <use xlink:href="#DejaVuSans-32" x="433.886719"/>
      <use xlink:href="#DejaVuSans-29" x="497.509766"/>
     </g>
    </g>
    <g id="patch_112">
     <path d="M 80.936373 279.530625 
L 96.936373 279.530625 
L 96.936373 273.930625 
L 80.936373 273.930625 
z
" style="fill: #beaed4; stroke: #beaed4; stroke-linejoin: miter"/>
    </g>
    <g id="text_11">
     <!-- Truck (3879) -->
     <g transform="translate(103.336373 279.530625)scale(0.08 -0.08)">
      <use xlink:href="#DejaVuSans-54"/>
      <use xlink:href="#DejaVuSans-72" x="46.333984"/>
      <use xlink:href="#DejaVuSans-75" x="87.447266"/>
      <use xlink:href="#DejaVuSans-63" x="150.826172"/>
      <use xlink:href="#DejaVuSans-6b" x="205.806641"/>
      <use xlink:href="#DejaVuSans-20" x="263.716797"/>
      <use xlink:href="#DejaVuSans-28" x="295.503906"/>
      <use xlink:href="#DejaVuSans-33" x="334.517578"/>
      <use xlink:href="#DejaVuSans-38" x="398.140625"/>
      <use xlink:href="#DejaVuSans-37" x="461.763672"/>
      <use xlink:href="#DejaVuSans-39" x="525.386719"/>
      <use xlink:href="#DejaVuSans-29" x="589.009766"/>
     </g>
    </g>
    <g id="patch_113">
     <path d="M 80.936373 291.273125 
L 96.936373 291.273125 
L 96.936373 285.673125 
L 80.936373 285.673125 
z
" style="fill: #fdc086; stroke: #fdc086; stroke-linejoin: miter"/>
    </g>
    <g id="text_12">
     <!-- Motorcycle (896) -->
     <g transform="translate(103.336373 291.273125)scale(0.08 -0.08)">
      <use xlink:href="#DejaVuSans-4d"/>
      <use xlink:href="#DejaVuSans-6f" x="86.279297"/>
      <use xlink:href="#DejaVuSans-74" x="147.460938"/>
      <use xlink:href="#DejaVuSans-6f" x="186.669922"/>
      <use xlink:href="#DejaVuSans-72" x="247.851562"/>
      <use xlink:href="#DejaVuSans-63" x="286.714844"/>
      <use xlink:href="#DejaVuSans-79" x="341.695312"/>
      <use xlink:href="#DejaVuSans-63" x="400.875"/>
      <use xlink:href="#DejaVuSans-6c" x="455.855469"/>
      <use xlink:href="#DejaVuSans-65" x="483.638672"/>
      <use xlink:href="#DejaVuSans-20" x="545.162109"/>
      <use xlink:href="#DejaVuSans-28" x="576.949219"/>
      <use xlink:href="#DejaVuSans-38" x="615.962891"/>
      <use xlink:href="#DejaVuSans-39" x="679.585938"/>
      <use xlink:href="#DejaVuSans-36" x="743.208984"/>
      <use xlink:href="#DejaVuSans-29" x="806.832031"/>
     </g>
    </g>
   </g>
  </g>
  <g id="text_13">
   <!-- Vehicle Production by Vehicle Type -->
   <g transform="translate(47.325625 17.837812)scale(0.14 -0.14)">
    <defs>
     <path id="DejaVuSans-Bold-56" d="M 31 4666 
L 1241 4666 
L 2478 1222 
L 3713 4666 
L 4922 4666 
L 3194 0 
L 1759 0 
L 31 4666 
z
" transform="scale(0.015625)"/>
     <path id="DejaVuSans-Bold-65" d="M 4031 1759 
L 4031 1441 
L 1416 1441 
Q 1456 1047 1700 850 
Q 1944 653 2381 653 
Q 2734 653 3104 758 
Q 3475 863 3866 1075 
L 3866 213 
Q 3469 63 3072 -14 
Q 2675 -91 2278 -91 
Q 1328 -91 801 392 
Q 275 875 275 1747 
Q 275 2603 792 3093 
Q 1309 3584 2216 3584 
Q 3041 3584 3536 3087 
Q 4031 2591 4031 1759 
z
M 2881 2131 
Q 2881 2450 2695 2645 
Q 2509 2841 2209 2841 
Q 1884 2841 1681 2658 
Q 1478 2475 1428 2131 
L 2881 2131 
z
" transform="scale(0.015625)"/>
     <path id="DejaVuSans-Bold-68" d="M 4056 2131 
L 4056 0 
L 2931 0 
L 2931 347 
L 2931 1625 
Q 2931 2084 2911 2256 
Q 2891 2428 2841 2509 
Q 2775 2619 2662 2680 
Q 2550 2741 2406 2741 
Q 2056 2741 1856 2470 
Q 1656 2200 1656 1722 
L 1656 0 
L 538 0 
L 538 4863 
L 1656 4863 
L 1656 2988 
Q 1909 3294 2193 3439 
Q 2478 3584 2822 3584 
Q 3428 3584 3742 3212 
Q 4056 2841 4056 2131 
z
" transform="scale(0.015625)"/>
     <path id="DejaVuSans-Bold-69" d="M 538 3500 
L 1656 3500 
L 1656 0 
L 538 0 
L 538 3500 
z
M 538 4863 
L 1656 4863 
L 1656 3950 
L 538 3950 
L 538 4863 
z
" transform="scale(0.015625)"/>
     <path id="DejaVuSans-Bold-63" d="M 3366 3391 
L 3366 2478 
Q 3138 2634 2908 2709 
Q 2678 2784 2431 2784 
Q 1963 2784 1702 2511 
Q 1441 2238 1441 1747 
Q 1441 1256 1702 982 
Q 1963 709 2431 709 
Q 2694 709 2930 787 
Q 3166 866 3366 1019 
L 3366 103 
Q 3103 6 2833 -42 
Q 2563 -91 2291 -91 
Q 1344 -91 809 395 
Q 275 881 275 1747 
Q 275 2613 809 3098 
Q 1344 3584 2291 3584 
Q 2566 3584 2833 3536 
Q 3100 3488 3366 3391 
z
" transform="scale(0.015625)"/>
     <path id="DejaVuSans-Bold-6c" d="M 538 4863 
L 1656 4863 
L 1656 0 
L 538 0 
L 538 4863 
z
" transform="scale(0.015625)"/>
     <path id="DejaVuSans-Bold-20" transform="scale(0.015625)"/>
     <path id="DejaVuSans-Bold-50" d="M 588 4666 
L 2584 4666 
Q 3475 4666 3951 4270 
Q 4428 3875 4428 3144 
Q 4428 2409 3951 2014 
Q 3475 1619 2584 1619 
L 1791 1619 
L 1791 0 
L 588 0 
L 588 4666 
z
M 1791 3794 
L 1791 2491 
L 2456 2491 
Q 2806 2491 2997 2661 
Q 3188 2831 3188 3144 
Q 3188 3456 2997 3625 
Q 2806 3794 2456 3794 
L 1791 3794 
z
" transform="scale(0.015625)"/>
     <path id="DejaVuSans-Bold-72" d="M 3138 2547 
Q 2991 2616 2845 2648 
Q 2700 2681 2553 2681 
Q 2122 2681 1889 2404 
Q 1656 2128 1656 1613 
L 1656 0 
L 538 0 
L 538 3500 
L 1656 3500 
L 1656 2925 
Q 1872 3269 2151 3426 
Q 2431 3584 2822 3584 
Q 2878 3584 2943 3579 
Q 3009 3575 3134 3559 
L 3138 2547 
z
" transform="scale(0.015625)"/>
     <path id="DejaVuSans-Bold-6f" d="M 2203 2784 
Q 1831 2784 1636 2517 
Q 1441 2250 1441 1747 
Q 1441 1244 1636 976 
Q 1831 709 2203 709 
Q 2569 709 2762 976 
Q 2956 1244 2956 1747 
Q 2956 2250 2762 2517 
Q 2569 2784 2203 2784 
z
M 2203 3584 
Q 3106 3584 3614 3096 
Q 4122 2609 4122 1747 
Q 4122 884 3614 396 
Q 3106 -91 2203 -91 
Q 1297 -91 786 396 
Q 275 884 275 1747 
Q 275 2609 786 3096 
Q 1297 3584 2203 3584 
z
" transform="scale(0.015625)"/>
     <path id="DejaVuSans-Bold-64" d="M 2919 2988 
L 2919 4863 
L 4044 4863 
L 4044 0 
L 2919 0 
L 2919 506 
Q 2688 197 2409 53 
Q 2131 -91 1766 -91 
Q 1119 -91 703 423 
Q 288 938 288 1747 
Q 288 2556 703 3070 
Q 1119 3584 1766 3584 
Q 2128 3584 2408 3439 
Q 2688 3294 2919 2988 
z
M 2181 722 
Q 2541 722 2730 984 
Q 2919 1247 2919 1747 
Q 2919 2247 2730 2509 
Q 2541 2772 2181 2772 
Q 1825 2772 1636 2509 
Q 1447 2247 1447 1747 
Q 1447 1247 1636 984 
Q 1825 722 2181 722 
z
" transform="scale(0.015625)"/>
     <path id="DejaVuSans-Bold-75" d="M 500 1363 
L 500 3500 
L 1625 3500 
L 1625 3150 
Q 1625 2866 1622 2436 
Q 1619 2006 1619 1863 
Q 1619 1441 1641 1255 
Q 1663 1069 1716 984 
Q 1784 875 1895 815 
Q 2006 756 2150 756 
Q 2500 756 2700 1025 
Q 2900 1294 2900 1772 
L 2900 3500 
L 4019 3500 
L 4019 0 
L 2900 0 
L 2900 506 
Q 2647 200 2364 54 
Q 2081 -91 1741 -91 
Q 1134 -91 817 281 
Q 500 653 500 1363 
z
" transform="scale(0.015625)"/>
     <path id="DejaVuSans-Bold-74" d="M 1759 4494 
L 1759 3500 
L 2913 3500 
L 2913 2700 
L 1759 2700 
L 1759 1216 
Q 1759 972 1856 886 
Q 1953 800 2241 800 
L 2816 800 
L 2816 0 
L 1856 0 
Q 1194 0 917 276 
Q 641 553 641 1216 
L 641 2700 
L 84 2700 
L 84 3500 
L 641 3500 
L 641 4494 
L 1759 4494 
z
" transform="scale(0.015625)"/>
     <path id="DejaVuSans-Bold-6e" d="M 4056 2131 
L 4056 0 
L 2931 0 
L 2931 347 
L 2931 1631 
Q 2931 2084 2911 2256 
Q 2891 2428 2841 2509 
Q 2775 2619 2662 2680 
Q 2550 2741 2406 2741 
Q 2056 2741 1856 2470 
Q 1656 2200 1656 1722 
L 1656 0 
L 538 0 
L 538 3500 
L 1656 3500 
L 1656 2988 
Q 1909 3294 2193 3439 
Q 2478 3584 2822 3584 
Q 3428 3584 3742 3212 
Q 4056 2841 4056 2131 
z
" transform="scale(0.015625)"/>
     <path id="DejaVuSans-Bold-62" d="M 2400 722 
Q 2759 722 2948 984 
Q 3138 1247 3138 1747 
Q 3138 2247 2948 2509 
Q 2759 2772 2400 2772 
Q 2041 2772 1848 2508 
Q 1656 2244 1656 1747 
Q 1656 1250 1848 986 
Q 2041 722 2400 722 
z
M 1656 2988 
Q 1888 3294 2169 3439 
Q 2450 3584 2816 3584 
Q 3463 3584 3878 3070 
Q 4294 2556 4294 1747 
Q 4294 938 3878 423 
Q 3463 -91 2816 -91 
Q 2450 -91 2169 54 
Q 1888 200 1656 506 
L 1656 0 
L 538 0 
L 538 4863 
L 1656 4863 
L 1656 2988 
z
" transform="scale(0.015625)"/>
     <path id="DejaVuSans-Bold-79" d="M 78 3500 
L 1197 3500 
L 2138 1125 
L 2938 3500 
L 4056 3500 
L 2584 -331 
Q 2363 -916 2067 -1148 
Q 1772 -1381 1288 -1381 
L 641 -1381 
L 641 -647 
L 991 -647 
Q 1275 -647 1404 -556 
Q 1534 -466 1606 -231 
L 1638 -134 
L 78 3500 
z
" transform="scale(0.015625)"/>
     <path id="DejaVuSans-Bold-54" d="M 31 4666 
L 4331 4666 
L 4331 3756 
L 2784 3756 
L 2784 0 
L 1581 0 
L 1581 3756 
L 31 3756 
L 31 4666 
z
" transform="scale(0.015625)"/>
     <path id="DejaVuSans-Bold-70" d="M 1656 506 
L 1656 -1331 
L 538 -1331 
L 538 3500 
L 1656 3500 
L 1656 2988 
Q 1888 3294 2169 3439 
Q 2450 3584 2816 3584 
Q 3463 3584 3878 3070 
Q 4294 2556 4294 1747 
Q 4294 938 3878 423 
Q 3463 -91 2816 -91 
Q 2450 -91 2169 54 
Q 1888 200 1656 506 
z
M 2400 2772 
Q 2041 2772 1848 2508 
Q 1656 2244 1656 1747 
Q 1656 1250 1848 986 
Q 2041 722 2400 722 
Q 2759 722 2948 984 
Q 3138 1247 3138 1747 
Q 3138 2247 2948 2509 
Q 2759 2772 2400 2772 
z
" transform="scale(0.015625)"/>
    </defs>
    <use xlink:href="#DejaVuSans-Bold-56"/>
    <use xlink:href="#DejaVuSans-Bold-65" x="71.892578"/>
    <use xlink:href="#DejaVuSans-Bold-68" x="139.714844"/>
    <use xlink:href="#DejaVuSans-Bold-69" x="210.90625"/>
    <use xlink:href="#DejaVuSans-Bold-63" x="245.183594"/>
    <use xlink:href="#DejaVuSans-Bold-6c" x="304.460938"/>
    <use xlink:href="#DejaVuSans-Bold-65" x="338.738281"/>
    <use xlink:href="#DejaVuSans-Bold-20" x="406.560547"/>
    <use xlink:href="#DejaVuSans-Bold-50" x="441.375"/>
    <use xlink:href="#DejaVuSans-Bold-72" x="514.666016"/>
    <use xlink:href="#DejaVuSans-Bold-6f" x="563.982422"/>
    <use xlink:href="#DejaVuSans-Bold-64" x="632.683594"/>
    <use xlink:href="#DejaVuSans-Bold-75" x="704.265625"/>
    <use xlink:href="#DejaVuSans-Bold-63" x="775.457031"/>
    <use xlink:href="#DejaVuSans-Bold-74" x="834.734375"/>
    <use xlink:href="#DejaVuSans-Bold-69" x="882.537109"/>
    <use xlink:href="#DejaVuSans-Bold-6f" x="916.814453"/>
    <use xlink:href="#DejaVuSans-Bold-6e" x="985.515625"/>
    <use xlink:href="#DejaVuSans-Bold-20" x="1056.707031"/>
    <use xlink:href="#DejaVuSans-Bold-62" x="1091.521484"/>
    <use xlink:href="#DejaVuSans-Bold-79" x="1163.103516"/>
    <use xlink:href="#DejaVuSans-Bold-20" x="1228.289062"/>
    <use xlink:href="#DejaVuSans-Bold-56" x="1263.103516"/>
    <use xlink:href="#DejaVuSans-Bold-65" x="1334.996094"/>
    <use xlink:href="#DejaVuSans-Bold-68" x="1402.818359"/>
    <use xlink:href="#DejaVuSans-Bold-69" x="1474.009766"/>
    <use xlink:href="#DejaVuSans-Bold-63" x="1508.287109"/>
    <use xlink:href="#DejaVuSans-Bold-6c" x="1567.564453"/>
    <use xlink:href="#DejaVuSans-Bold-65" x="1601.841797"/>
    <use xlink:href="#DejaVuSans-Bold-20" x="1669.664062"/>
    <use xlink:href="#DejaVuSans-Bold-54" x="1704.478516"/>
    <use xlink:href="#DejaVuSans-Bold-79" x="1760.816406"/>
    <use xlink:href="#DejaVuSans-Bold-70" x="1826.001953"/>
    <use xlink:href="#DejaVuSans-Bold-65" x="1897.583984"/>
   </g>
  </g>
  <g id="text_14">
   <!-- 1 block = 1000 vehicles -->
   <g transform="translate(7.2 354.73625)scale(0.08 -0.08)">
    <defs>
     <path id="DejaVuSans-62" d="M 3116 1747 
Q 3116 2381 2855 2742 
Q 2594 3103 2138 3103 
Q 1681 3103 1420 2742 
Q 1159 2381 1159 1747 
Q 1159 1113 1420 752 
Q 1681 391 2138 391 
Q 2594 391 2855 752 
Q 3116 1113 3116 1747 
z
M 1159 2969 
Q 1341 3281 1617 3432 
Q 1894 3584 2278 3584 
Q 2916 3584 3314 3078 
Q 3713 2572 3713 1747 
Q 3713 922 3314 415 
Q 2916 -91 2278 -91 
Q 1894 -91 1617 61 
Q 1341 213 1159 525 
L 1159 0 
L 581 0 
L 581 4863 
L 1159 4863 
L 1159 2969 
z
" transform="scale(0.015625)"/>
     <path id="DejaVuSans-3d" d="M 678 2906 
L 4684 2906 
L 4684 2381 
L 678 2381 
L 678 2906 
z
M 678 1631 
L 4684 1631 
L 4684 1100 
L 678 1100 
L 678 1631 
z
" transform="scale(0.015625)"/>
     <path id="DejaVuSans-30" d="M 2034 4250 
Q 1547 4250 1301 3770 
Q 1056 3291 1056 2328 
Q 1056 1369 1301 889 
Q 1547 409 2034 409 
Q 2525 409 2770 889 
Q 3016 1369 3016 2328 
Q 3016 3291 2770 3770 
Q 2525 4250 2034 4250 
z
M 2034 4750 
Q 2819 4750 3233 4129 
Q 3647 3509 3647 2328 
Q 3647 1150 3233 529 
Q 2819 -91 2034 -91 
Q 1250 -91 836 529 
Q 422 1150 422 2328 
Q 422 3509 836 4129 
Q 1250 4750 2034 4750 
z
" transform="scale(0.015625)"/>
     <path id="DejaVuSans-76" d="M 191 3500 
L 800 3500 
L 1894 563 
L 2988 3500 
L 3597 3500 
L 2284 0 
L 1503 0 
L 191 3500 
z
" transform="scale(0.015625)"/>
     <path id="DejaVuSans-73" d="M 2834 3397 
L 2834 2853 
Q 2591 2978 2328 3040 
Q 2066 3103 1784 3103 
Q 1356 3103 1142 2972 
Q 928 2841 928 2578 
Q 928 2378 1081 2264 
Q 1234 2150 1697 2047 
L 1894 2003 
Q 2506 1872 2764 1633 
Q 3022 1394 3022 966 
Q 3022 478 2636 193 
Q 2250 -91 1575 -91 
Q 1294 -91 989 -36 
Q 684 19 347 128 
L 347 722 
Q 666 556 975 473 
Q 1284 391 1588 391 
Q 1994 391 2212 530 
Q 2431 669 2431 922 
Q 2431 1156 2273 1281 
Q 2116 1406 1581 1522 
L 1381 1569 
Q 847 1681 609 1914 
Q 372 2147 372 2553 
Q 372 3047 722 3315 
Q 1072 3584 1716 3584 
Q 2034 3584 2315 3537 
Q 2597 3491 2834 3397 
z
" transform="scale(0.015625)"/>
    </defs>
    <use xlink:href="#DejaVuSans-31"/>
    <use xlink:href="#DejaVuSans-20" x="63.623047"/>
    <use xlink:href="#DejaVuSans-62" x="95.410156"/>
    <use xlink:href="#DejaVuSans-6c" x="158.886719"/>
    <use xlink:href="#DejaVuSans-6f" x="186.669922"/>
    <use xlink:href="#DejaVuSans-63" x="247.851562"/>
    <use xlink:href="#DejaVuSans-6b" x="302.832031"/>
    <use xlink:href="#DejaVuSans-20" x="360.742188"/>
    <use xlink:href="#DejaVuSans-3d" x="392.529297"/>
    <use xlink:href="#DejaVuSans-20" x="476.318359"/>
    <use xlink:href="#DejaVuSans-31" x="508.105469"/>
    <use xlink:href="#DejaVuSans-30" x="571.728516"/>
    <use xlink:href="#DejaVuSans-30" x="635.351562"/>
    <use xlink:href="#DejaVuSans-30" x="698.974609"/>
    <use xlink:href="#DejaVuSans-20" x="762.597656"/>
    <use xlink:href="#DejaVuSans-76" x="794.384766"/>
    <use xlink:href="#DejaVuSans-65" x="853.564453"/>
    <use xlink:href="#DejaVuSans-68" x="915.087891"/>
    <use xlink:href="#DejaVuSans-69" x="978.466797"/>
    <use xlink:href="#DejaVuSans-63" x="1006.25"/>
    <use xlink:href="#DejaVuSans-6c" x="1061.230469"/>
    <use xlink:href="#DejaVuSans-65" x="1089.013672"/>
    <use xlink:href="#DejaVuSans-73" x="1150.537109"/>
   </g>
  </g>
 </g>
 <defs>
  <clipPath id="pee1b223d79">
   <rect x="15.70625" y="50.376875" width="170.676832" height="76.148125"/>
  </clipPath>
  <clipPath id="p1b883addbb">
   <rect x="15.70625" y="152.443125" width="107.657694" height="76.148125"/>
  </clipPath>
  <clipPath id="pa47f2ecfc5">
   <rect x="15.70625" y="254.509375" width="44.638556" height="76.148125"/>
  </clipPath>
 </defs>
</svg>
