<?xml version="1.0" encoding="utf-8" standalone="no"?>
<!DOCTYPE svg PUBLIC "-//W3C//DTD SVG 1.1//EN"
  "http://www.w3.org/Graphics/SVG/1.1/DTD/svg11.dtd">
<svg xmlns:xlink="http://www.w3.org/1999/xlink" width="413.240312pt" height="160.593055pt" viewBox="0 0 413.240312 160.593055" xmlns="http://www.w3.org/2000/svg" version="1.1">
 <metadata>
  <rdf:RDF xmlns:dc="http://purl.org/dc/elements/1.1/" xmlns:cc="http://creativecommons.org/ns#" xmlns:rdf="http://www.w3.org/1999/02/22-rdf-syntax-ns#">
   <cc:Work>
    <dc:type rdf:resource="http://purl.org/dc/dcmitype/StillImage"/>
    <dc:date>2022-06-04T19:58:40.759616</dc:date>
    <dc:format>image/svg+xml</dc:format>
    <dc:creator>
     <cc:Agent>
      <dc:title>Matplotlib v3.5.2, https://matplotlib.org/</dc:title>
     </cc:Agent>
    </dc:creator>
   </cc:Work>
  </rdf:RDF>
 </metadata>
 <defs>
  <style type="text/css">*{stroke-linejoin: round; stroke-linecap: butt}</style>
 </defs>
 <g id="figure_1">
  <g id="patch_1">
   <path d="M 0 160.593055 
L 413.240312 160.593055 
L 413.240312 0 
L 0 0 
z
" style="fill: #eeeeee"/>
  </g>
  <g id="axes_1">
   <g id="patch_2">
    <path d="M 7.2 39.076121 
L 23.957996 39.076121 
L 23.957996 22.318125 
L 7.2 22.318125 
z
" clip-path="url(#pf086f32abd)" style="fill: #232066; stroke: #232066; stroke-linejoin: miter"/>
   </g>
   <g id="patch_3">
    <path d="M 7.2 59.185717 
L 23.957996 59.185717 
L 23.957996 42.427721 
L 7.2 42.427721 
z
" clip-path="url(#pf086f32abd)" style="fill: #232066; stroke: #232066; stroke-linejoin: miter"/>
   </g>
   <g id="patch_4">
    <path d="M 7.2 79.295313 
L 23.957996 79.295313 
L 23.957996 62.537316 
L 7.2 62.537316 
z
" clip-path="url(#pf086f32abd)" style="fill: #232066; stroke: #232066; stroke-linejoin: miter"/>
   </g>
   <g id="patch_5">
    <path d="M 7.2 99.404908 
L 23.957996 99.404908 
L 23.957996 82.646912 
L 7.2 82.646912 
z
" clip-path="url(#pf086f32abd)" style="fill: #232066; stroke: #232066; stroke-linejoin: miter"/>
   </g>
   <g id="patch_6">
    <path d="M 7.2 119.514504 
L 23.957996 119.514504 
L 23.957996 102.756507 
L 7.2 102.756507 
z
" clip-path="url(#pf086f32abd)" style="fill: #232066; stroke: #232066; stroke-linejoin: miter"/>
   </g>
   <g id="patch_7">
    <path d="M 27.309596 119.514504 
L 44.067592 119.514504 
L 44.067592 102.756507 
L 27.309596 102.756507 
z
" clip-path="url(#pf086f32abd)" style="fill: #232066; stroke: #232066; stroke-linejoin: miter"/>
   </g>
   <g id="patch_8">
    <path d="M 27.309596 99.404908 
L 44.067592 99.404908 
L 44.067592 82.646912 
L 27.309596 82.646912 
z
" clip-path="url(#pf086f32abd)" style="fill: #232066; stroke: #232066; stroke-linejoin: miter"/>
   </g>
   <g id="patch_9">
    <path d="M 27.309596 79.295313 
L 44.067592 79.295313 
L 44.067592 62.537316 
L 27.309596 62.537316 
z
" clip-path="url(#pf086f32abd)" style="fill: #232066; stroke: #232066; stroke-linejoin: miter"/>
   </g>
   <g id="patch_10">
    <path d="M 27.309596 59.185717 
L 44.067592 59.185717 
L 44.067592 42.427721 
L 27.309596 42.427721 
z
" clip-path="url(#pf086f32abd)" style="fill: #232066; stroke: #232066; stroke-linejoin: miter"/>
   </g>
   <g id="patch_11">
    <path d="M 27.309596 39.076121 
L 44.067592 39.076121 
L 44.067592 22.318125 
L 27.309596 22.318125 
z
" clip-path="url(#pf086f32abd)" style="fill: #232066; stroke: #232066; stroke-linejoin: miter"/>
   </g>
   <g id="patch_12">
    <path d="M 47.419191 39.076121 
L 64.177188 39.076121 
L 64.177188 22.318125 
L 47.419191 22.318125 
z
" clip-path="url(#pf086f32abd)" style="fill: #232066; stroke: #232066; stroke-linejoin: miter"/>
   </g>
   <g id="patch_13">
    <path d="M 47.419191 59.185717 
L 64.177188 59.185717 
L 64.177188 42.427721 
L 47.419191 42.427721 
z
" clip-path="url(#pf086f32abd)" style="fill: #232066; stroke: #232066; stroke-linejoin: miter"/>
   </g>
   <g id="patch_14">
    <path d="M 47.419191 79.295313 
L 64.177188 79.295313 
L 64.177188 62.537316 
L 47.419191 62.537316 
z
" clip-path="url(#pf086f32abd)" style="fill: #232066; stroke: #232066; stroke-linejoin: miter"/>
   </g>
   <g id="patch_15">
    <path d="M 47.419191 99.404908 
L 64.177188 99.404908 
L 64.177188 82.646912 
L 47.419191 82.646912 
z
" clip-path="url(#pf086f32abd)" style="fill: #232066; stroke: #232066; stroke-linejoin: miter"/>
   </g>
   <g id="patch_16">
    <path d="M 47.419191 119.514504 
L 64.177188 119.514504 
L 64.177188 102.756507 
L 47.419191 102.756507 
z
" clip-path="url(#pf086f32abd)" style="fill: #232066; stroke: #232066; stroke-linejoin: miter"/>
   </g>
   <g id="patch_17">
    <path d="M 67.528787 119.514504 
L 84.286783 119.514504 
L 84.286783 102.756507 
L 67.528787 102.756507 
z
" clip-path="url(#pf086f32abd)" style="fill: #232066; stroke: #232066; stroke-linejoin: miter"/>
   </g>
   <g id="patch_18">
    <path d="M 67.528787 99.404908 
L 84.286783 99.404908 
L 84.286783 82.646912 
L 67.528787 82.646912 
z
" clip-path="url(#pf086f32abd)" style="fill: #232066; stroke: #232066; stroke-linejoin: miter"/>
   </g>
   <g id="patch_19">
    <path d="M 67.528787 79.295313 
L 84.286783 79.295313 
L 84.286783 62.537316 
L 67.528787 62.537316 
z
" clip-path="url(#pf086f32abd)" style="fill: #232066; stroke: #232066; stroke-linejoin: miter"/>
   </g>
   <g id="patch_20">
    <path d="M 67.528787 59.185717 
L 84.286783 59.185717 
L 84.286783 42.427721 
L 67.528787 42.427721 
z
" clip-path="url(#pf086f32abd)" style="fill: #232066; stroke: #232066; stroke-linejoin: miter"/>
   </g>
   <g id="patch_21">
    <path d="M 67.528787 39.076121 
L 84.286783 39.076121 
L 84.286783 22.318125 
L 67.528787 22.318125 
z
" clip-path="url(#pf086f32abd)" style="fill: #232066; stroke: #232066; stroke-linejoin: miter"/>
   </g>
   <g id="patch_22">
    <path d="M 87.638382 39.076121 
L 104.396379 39.076121 
L 104.396379 22.318125 
L 87.638382 22.318125 
z
" clip-path="url(#pf086f32abd)" style="fill: #232066; stroke: #232066; stroke-linejoin: miter"/>
   </g>
   <g id="patch_23">
    <path d="M 87.638382 59.185717 
L 104.396379 59.185717 
L 104.396379 42.427721 
L 87.638382 42.427721 
z
" clip-path="url(#pf086f32abd)" style="fill: #232066; stroke: #232066; stroke-linejoin: miter"/>
   </g>
   <g id="patch_24">
    <path d="M 87.638382 79.295313 
L 104.396379 79.295313 
L 104.396379 62.537316 
L 87.638382 62.537316 
z
" clip-path="url(#pf086f32abd)" style="fill: #232066; stroke: #232066; stroke-linejoin: miter"/>
   </g>
   <g id="patch_25">
    <path d="M 87.638382 99.404908 
L 104.396379 99.404908 
L 104.396379 82.646912 
L 87.638382 82.646912 
z
" clip-path="url(#pf086f32abd)" style="fill: #232066; stroke: #232066; stroke-linejoin: miter"/>
   </g>
   <g id="patch_26">
    <path d="M 87.638382 119.514504 
L 104.396379 119.514504 
L 104.396379 102.756507 
L 87.638382 102.756507 
z
" clip-path="url(#pf086f32abd)" style="fill: #232066; stroke: #232066; stroke-linejoin: miter"/>
   </g>
   <g id="patch_27">
    <path d="M 107.747978 119.514504 
L 124.505974 119.514504 
L 124.505974 102.756507 
L 107.747978 102.756507 
z
" clip-path="url(#pf086f32abd)" style="fill: #232066; stroke: #232066; stroke-linejoin: miter"/>
   </g>
   <g id="patch_28">
    <path d="M 107.747978 99.404908 
L 124.505974 99.404908 
L 124.505974 82.646912 
L 107.747978 82.646912 
z
" clip-path="url(#pf086f32abd)" style="fill: #232066; stroke: #232066; stroke-linejoin: miter"/>
   </g>
   <g id="patch_29">
    <path d="M 107.747978 79.295313 
L 124.505974 79.295313 
L 124.505974 62.537316 
L 107.747978 62.537316 
z
" clip-path="url(#pf086f32abd)" style="fill: #232066; stroke: #232066; stroke-linejoin: miter"/>
   </g>
   <g id="patch_30">
    <path d="M 107.747978 59.185717 
L 124.505974 59.185717 
L 124.505974 42.427721 
L 107.747978 42.427721 
z
" clip-path="url(#pf086f32abd)" style="fill: #232066; stroke: #232066; stroke-linejoin: miter"/>
   </g>
   <g id="patch_31">
    <path d="M 107.747978 39.076121 
L 124.505974 39.076121 
L 124.505974 22.318125 
L 107.747978 22.318125 
z
" clip-path="url(#pf086f32abd)" style="fill: #232066; stroke: #232066; stroke-linejoin: miter"/>
   </g>
   <g id="patch_32">
    <path d="M 127.857574 39.076121 
L 144.61557 39.076121 
L 144.61557 22.318125 
L 127.857574 22.318125 
z
" clip-path="url(#pf086f32abd)" style="fill: #232066; stroke: #232066; stroke-linejoin: miter"/>
   </g>
   <g id="patch_33">
    <path d="M 127.857574 59.185717 
L 144.61557 59.185717 
L 144.61557 42.427721 
L 127.857574 42.427721 
z
" clip-path="url(#pf086f32abd)" style="fill: #232066; stroke: #232066; stroke-linejoin: miter"/>
   </g>
   <g id="patch_34">
    <path d="M 127.857574 79.295313 
L 144.61557 79.295313 
L 144.61557 62.537316 
L 127.857574 62.537316 
z
" clip-path="url(#pf086f32abd)" style="fill: #232066; stroke: #232066; stroke-linejoin: miter"/>
   </g>
   <g id="patch_35">
    <path d="M 127.857574 99.404908 
L 144.61557 99.404908 
L 144.61557 82.646912 
L 127.857574 82.646912 
z
" clip-path="url(#pf086f32abd)" style="fill: #232066; stroke: #232066; stroke-linejoin: miter"/>
   </g>
   <g id="patch_36">
    <path d="M 127.857574 119.514504 
L 144.61557 119.514504 
L 144.61557 102.756507 
L 127.857574 102.756507 
z
" clip-path="url(#pf086f32abd)" style="fill: #232066; stroke: #232066; stroke-linejoin: miter"/>
   </g>
   <g id="patch_37">
    <path d="M 147.967169 119.514504 
L 164.725165 119.514504 
L 164.725165 102.756507 
L 147.967169 102.756507 
z
" clip-path="url(#pf086f32abd)" style="fill: #232066; stroke: #232066; stroke-linejoin: miter"/>
   </g>
   <g id="patch_38">
    <path d="M 147.967169 99.404908 
L 164.725165 99.404908 
L 164.725165 82.646912 
L 147.967169 82.646912 
z
" clip-path="url(#pf086f32abd)" style="fill: #232066; stroke: #232066; stroke-linejoin: miter"/>
   </g>
   <g id="patch_39">
    <path d="M 147.967169 79.295313 
L 164.725165 79.295313 
L 164.725165 62.537316 
L 147.967169 62.537316 
z
" clip-path="url(#pf086f32abd)" style="fill: #232066; stroke: #232066; stroke-linejoin: miter"/>
   </g>
   <g id="patch_40">
    <path d="M 147.967169 59.185717 
L 164.725165 59.185717 
L 164.725165 42.427721 
L 147.967169 42.427721 
z
" clip-path="url(#pf086f32abd)" style="fill: #232066; stroke: #232066; stroke-linejoin: miter"/>
   </g>
   <g id="patch_41">
    <path d="M 147.967169 39.076121 
L 164.725165 39.076121 
L 164.725165 22.318125 
L 147.967169 22.318125 
z
" clip-path="url(#pf086f32abd)" style="fill: #232066; stroke: #232066; stroke-linejoin: miter"/>
   </g>
   <g id="patch_42">
    <path d="M 168.076765 39.076121 
L 184.834761 39.076121 
L 184.834761 22.318125 
L 168.076765 22.318125 
z
" clip-path="url(#pf086f32abd)" style="fill: #232066; stroke: #232066; stroke-linejoin: miter"/>
   </g>
   <g id="patch_43">
    <path d="M 168.076765 59.185717 
L 184.834761 59.185717 
L 184.834761 42.427721 
L 168.076765 42.427721 
z
" clip-path="url(#pf086f32abd)" style="fill: #232066; stroke: #232066; stroke-linejoin: miter"/>
   </g>
   <g id="patch_44">
    <path d="M 168.076765 79.295313 
L 184.834761 79.295313 
L 184.834761 62.537316 
L 168.076765 62.537316 
z
" clip-path="url(#pf086f32abd)" style="fill: #232066; stroke: #232066; stroke-linejoin: miter"/>
   </g>
   <g id="patch_45">
    <path d="M 168.076765 99.404908 
L 184.834761 99.404908 
L 184.834761 82.646912 
L 168.076765 82.646912 
z
" clip-path="url(#pf086f32abd)" style="fill: #232066; stroke: #232066; stroke-linejoin: miter"/>
   </g>
   <g id="patch_46">
    <path d="M 168.076765 119.514504 
L 184.834761 119.514504 
L 184.834761 102.756507 
L 168.076765 102.756507 
z
" clip-path="url(#pf086f32abd)" style="fill: #232066; stroke: #232066; stroke-linejoin: miter"/>
   </g>
   <g id="patch_47">
    <path d="M 188.18636 119.514504 
L 204.944357 119.514504 
L 204.944357 102.756507 
L 188.18636 102.756507 
z
" clip-path="url(#pf086f32abd)" style="fill: #232066; stroke: #232066; stroke-linejoin: miter"/>
   </g>
   <g id="patch_48">
    <path d="M 188.18636 99.404908 
L 204.944357 99.404908 
L 204.944357 82.646912 
L 188.18636 82.646912 
z
" clip-path="url(#pf086f32abd)" style="fill: #232066; stroke: #232066; stroke-linejoin: miter"/>
   </g>
   <g id="patch_49">
    <path d="M 188.18636 79.295313 
L 204.944357 79.295313 
L 204.944357 62.537316 
L 188.18636 62.537316 
z
" clip-path="url(#pf086f32abd)" style="fill: #232066; stroke: #232066; stroke-linejoin: miter"/>
   </g>
   <g id="patch_50">
    <path d="M 188.18636 59.185717 
L 204.944357 59.185717 
L 204.944357 42.427721 
L 188.18636 42.427721 
z
" clip-path="url(#pf086f32abd)" style="fill: #983d3d; stroke: #983d3d; stroke-linejoin: miter"/>
   </g>
   <g id="patch_51">
    <path d="M 188.18636 39.076121 
L 204.944357 39.076121 
L 204.944357 22.318125 
L 188.18636 22.318125 
z
" clip-path="url(#pf086f32abd)" style="fill: #983d3d; stroke: #983d3d; stroke-linejoin: miter"/>
   </g>
   <g id="patch_52">
    <path d="M 208.295956 39.076121 
L 225.053952 39.076121 
L 225.053952 22.318125 
L 208.295956 22.318125 
z
" clip-path="url(#pf086f32abd)" style="fill: #983d3d; stroke: #983d3d; stroke-linejoin: miter"/>
   </g>
   <g id="patch_53">
    <path d="M 208.295956 59.185717 
L 225.053952 59.185717 
L 225.053952 42.427721 
L 208.295956 42.427721 
z
" clip-path="url(#pf086f32abd)" style="fill: #983d3d; stroke: #983d3d; stroke-linejoin: miter"/>
   </g>
   <g id="patch_54">
    <path d="M 208.295956 79.295313 
L 225.053952 79.295313 
L 225.053952 62.537316 
L 208.295956 62.537316 
z
" clip-path="url(#pf086f32abd)" style="fill: #983d3d; stroke: #983d3d; stroke-linejoin: miter"/>
   </g>
   <g id="patch_55">
    <path d="M 208.295956 99.404908 
L 225.053952 99.404908 
L 225.053952 82.646912 
L 208.295956 82.646912 
z
" clip-path="url(#pf086f32abd)" style="fill: #983d3d; stroke: #983d3d; stroke-linejoin: miter"/>
   </g>
   <g id="patch_56">
    <path d="M 208.295956 119.514504 
L 225.053952 119.514504 
L 225.053952 102.756507 
L 208.295956 102.756507 
z
" clip-path="url(#pf086f32abd)" style="fill: #983d3d; stroke: #983d3d; stroke-linejoin: miter"/>
   </g>
   <g id="patch_57">
    <path d="M 228.405551 119.514504 
L 245.163548 119.514504 
L 245.163548 102.756507 
L 228.405551 102.756507 
z
" clip-path="url(#pf086f32abd)" style="fill: #983d3d; stroke: #983d3d; stroke-linejoin: miter"/>
   </g>
   <g id="patch_58">
    <path d="M 228.405551 99.404908 
L 245.163548 99.404908 
L 245.163548 82.646912 
L 228.405551 82.646912 
z
" clip-path="url(#pf086f32abd)" style="fill: #983d3d; stroke: #983d3d; stroke-linejoin: miter"/>
   </g>
   <g id="patch_59">
    <path d="M 228.405551 79.295313 
L 245.163548 79.295313 
L 245.163548 62.537316 
L 228.405551 62.537316 
z
" clip-path="url(#pf086f32abd)" style="fill: #983d3d; stroke: #983d3d; stroke-linejoin: miter"/>
   </g>
   <g id="patch_60">
    <path d="M 228.405551 59.185717 
L 245.163548 59.185717 
L 245.163548 42.427721 
L 228.405551 42.427721 
z
" clip-path="url(#pf086f32abd)" style="fill: #983d3d; stroke: #983d3d; stroke-linejoin: miter"/>
   </g>
   <g id="patch_61">
    <path d="M 228.405551 39.076121 
L 245.163548 39.076121 
L 245.163548 22.318125 
L 228.405551 22.318125 
z
" clip-path="url(#pf086f32abd)" style="fill: #983d3d; stroke: #983d3d; stroke-linejoin: miter"/>
   </g>
   <g id="patch_62">
    <path d="M 248.515147 39.076121 
L 265.273143 39.076121 
L 265.273143 22.318125 
L 248.515147 22.318125 
z
" clip-path="url(#pf086f32abd)" style="fill: #983d3d; stroke: #983d3d; stroke-linejoin: miter"/>
   </g>
   <g id="patch_63">
    <path d="M 248.515147 59.185717 
L 265.273143 59.185717 
L 265.273143 42.427721 
L 248.515147 42.427721 
z
" clip-path="url(#pf086f32abd)" style="fill: #983d3d; stroke: #983d3d; stroke-linejoin: miter"/>
   </g>
   <g id="patch_64">
    <path d="M 248.515147 79.295313 
L 265.273143 79.295313 
L 265.273143 62.537316 
L 248.515147 62.537316 
z
" clip-path="url(#pf086f32abd)" style="fill: #983d3d; stroke: #983d3d; stroke-linejoin: miter"/>
   </g>
   <g id="patch_65">
    <path d="M 248.515147 99.404908 
L 265.273143 99.404908 
L 265.273143 82.646912 
L 248.515147 82.646912 
z
" clip-path="url(#pf086f32abd)" style="fill: #983d3d; stroke: #983d3d; stroke-linejoin: miter"/>
   </g>
   <g id="patch_66">
    <path d="M 248.515147 119.514504 
L 265.273143 119.514504 
L 265.273143 102.756507 
L 248.515147 102.756507 
z
" clip-path="url(#pf086f32abd)" style="fill: #983d3d; stroke: #983d3d; stroke-linejoin: miter"/>
   </g>
   <g id="patch_67">
    <path d="M 268.624743 119.514504 
L 285.382739 119.514504 
L 285.382739 102.756507 
L 268.624743 102.756507 
z
" clip-path="url(#pf086f32abd)" style="fill: #983d3d; stroke: #983d3d; stroke-linejoin: miter"/>
   </g>
   <g id="patch_68">
    <path d="M 268.624743 99.404908 
L 285.382739 99.404908 
L 285.382739 82.646912 
L 268.624743 82.646912 
z
" clip-path="url(#pf086f32abd)" style="fill: #983d3d; stroke: #983d3d; stroke-linejoin: miter"/>
   </g>
   <g id="patch_69">
    <path d="M 268.624743 79.295313 
L 285.382739 79.295313 
L 285.382739 62.537316 
L 268.624743 62.537316 
z
" clip-path="url(#pf086f32abd)" style="fill: #983d3d; stroke: #983d3d; stroke-linejoin: miter"/>
   </g>
   <g id="patch_70">
    <path d="M 268.624743 59.185717 
L 285.382739 59.185717 
L 285.382739 42.427721 
L 268.624743 42.427721 
z
" clip-path="url(#pf086f32abd)" style="fill: #983d3d; stroke: #983d3d; stroke-linejoin: miter"/>
   </g>
   <g id="patch_71">
    <path d="M 268.624743 39.076121 
L 285.382739 39.076121 
L 285.382739 22.318125 
L 268.624743 22.318125 
z
" clip-path="url(#pf086f32abd)" style="fill: #983d3d; stroke: #983d3d; stroke-linejoin: miter"/>
   </g>
   <g id="patch_72">
    <path d="M 288.734338 39.076121 
L 305.492335 39.076121 
L 305.492335 22.318125 
L 288.734338 22.318125 
z
" clip-path="url(#pf086f32abd)" style="fill: #983d3d; stroke: #983d3d; stroke-linejoin: miter"/>
   </g>
   <g id="patch_73">
    <path d="M 288.734338 59.185717 
L 305.492335 59.185717 
L 305.492335 42.427721 
L 288.734338 42.427721 
z
" clip-path="url(#pf086f32abd)" style="fill: #983d3d; stroke: #983d3d; stroke-linejoin: miter"/>
   </g>
   <g id="patch_74">
    <path d="M 288.734338 79.295313 
L 305.492335 79.295313 
L 305.492335 62.537316 
L 288.734338 62.537316 
z
" clip-path="url(#pf086f32abd)" style="fill: #983d3d; stroke: #983d3d; stroke-linejoin: miter"/>
   </g>
   <g id="patch_75">
    <path d="M 288.734338 99.404908 
L 305.492335 99.404908 
L 305.492335 82.646912 
L 288.734338 82.646912 
z
" clip-path="url(#pf086f32abd)" style="fill: #983d3d; stroke: #983d3d; stroke-linejoin: miter"/>
   </g>
   <g id="patch_76">
    <path d="M 288.734338 119.514504 
L 305.492335 119.514504 
L 305.492335 102.756507 
L 288.734338 102.756507 
z
" clip-path="url(#pf086f32abd)" style="fill: #983d3d; stroke: #983d3d; stroke-linejoin: miter"/>
   </g>
   <g id="patch_77">
    <path d="M 308.843934 119.514504 
L 325.60193 119.514504 
L 325.60193 102.756507 
L 308.843934 102.756507 
z
" clip-path="url(#pf086f32abd)" style="fill: #983d3d; stroke: #983d3d; stroke-linejoin: miter"/>
   </g>
   <g id="patch_78">
    <path d="M 308.843934 99.404908 
L 325.60193 99.404908 
L 325.60193 82.646912 
L 308.843934 82.646912 
z
" clip-path="url(#pf086f32abd)" style="fill: #983d3d; stroke: #983d3d; stroke-linejoin: miter"/>
   </g>
   <g id="patch_79">
    <path d="M 308.843934 79.295313 
L 325.60193 79.295313 
L 325.60193 62.537316 
L 308.843934 62.537316 
z
" clip-path="url(#pf086f32abd)" style="fill: #983d3d; stroke: #983d3d; stroke-linejoin: miter"/>
   </g>
   <g id="patch_80">
    <path d="M 308.843934 59.185717 
L 325.60193 59.185717 
L 325.60193 42.427721 
L 308.843934 42.427721 
z
" clip-path="url(#pf086f32abd)" style="fill: #983d3d; stroke: #983d3d; stroke-linejoin: miter"/>
   </g>
   <g id="patch_81">
    <path d="M 308.843934 39.076121 
L 325.60193 39.076121 
L 325.60193 22.318125 
L 308.843934 22.318125 
z
" clip-path="url(#pf086f32abd)" style="fill: #983d3d; stroke: #983d3d; stroke-linejoin: miter"/>
   </g>
   <g id="patch_82">
    <path d="M 328.953529 39.076121 
L 345.711526 39.076121 
L 345.711526 22.318125 
L 328.953529 22.318125 
z
" clip-path="url(#pf086f32abd)" style="fill: #983d3d; stroke: #983d3d; stroke-linejoin: miter"/>
   </g>
   <g id="patch_83">
    <path d="M 328.953529 59.185717 
L 345.711526 59.185717 
L 345.711526 42.427721 
L 328.953529 42.427721 
z
" clip-path="url(#pf086f32abd)" style="fill: #983d3d; stroke: #983d3d; stroke-linejoin: miter"/>
   </g>
   <g id="patch_84">
    <path d="M 328.953529 79.295313 
L 345.711526 79.295313 
L 345.711526 62.537316 
L 328.953529 62.537316 
z
" clip-path="url(#pf086f32abd)" style="fill: #983d3d; stroke: #983d3d; stroke-linejoin: miter"/>
   </g>
   <g id="patch_85">
    <path d="M 328.953529 99.404908 
L 345.711526 99.404908 
L 345.711526 82.646912 
L 328.953529 82.646912 
z
" clip-path="url(#pf086f32abd)" style="fill: #983d3d; stroke: #983d3d; stroke-linejoin: miter"/>
   </g>
   <g id="patch_86">
    <path d="M 328.953529 119.514504 
L 345.711526 119.514504 
L 345.711526 102.756507 
L 328.953529 102.756507 
z
" clip-path="url(#pf086f32abd)" style="fill: #983d3d; stroke: #983d3d; stroke-linejoin: miter"/>
   </g>
   <g id="patch_87">
    <path d="M 349.063125 119.514504 
L 365.821121 119.514504 
L 365.821121 102.756507 
L 349.063125 102.756507 
z
" clip-path="url(#pf086f32abd)" style="fill: #983d3d; stroke: #983d3d; stroke-linejoin: miter"/>
   </g>
   <g id="patch_88">
    <path d="M 349.063125 99.404908 
L 365.821121 99.404908 
L 365.821121 82.646912 
L 349.063125 82.646912 
z
" clip-path="url(#pf086f32abd)" style="fill: #983d3d; stroke: #983d3d; stroke-linejoin: miter"/>
   </g>
   <g id="patch_89">
    <path d="M 349.063125 79.295313 
L 365.821121 79.295313 
L 365.821121 62.537316 
L 349.063125 62.537316 
z
" clip-path="url(#pf086f32abd)" style="fill: #983d3d; stroke: #983d3d; stroke-linejoin: miter"/>
   </g>
   <g id="patch_90">
    <path d="M 349.063125 59.185717 
L 365.821121 59.185717 
L 365.821121 42.427721 
L 349.063125 42.427721 
z
" clip-path="url(#pf086f32abd)" style="fill: #983d3d; stroke: #983d3d; stroke-linejoin: miter"/>
   </g>
   <g id="patch_91">
    <path d="M 349.063125 39.076121 
L 365.821121 39.076121 
L 365.821121 22.318125 
L 349.063125 22.318125 
z
" clip-path="url(#pf086f32abd)" style="fill: #983d3d; stroke: #983d3d; stroke-linejoin: miter"/>
   </g>
   <g id="patch_92">
    <path d="M 369.172721 39.076121 
L 385.930717 39.076121 
L 385.930717 22.318125 
L 369.172721 22.318125 
z
" clip-path="url(#pf086f32abd)" style="fill: #983d3d; stroke: #983d3d; stroke-linejoin: miter"/>
   </g>
   <g id="patch_93">
    <path d="M 369.172721 59.185717 
L 385.930717 59.185717 
L 385.930717 42.427721 
L 369.172721 42.427721 
z
" clip-path="url(#pf086f32abd)" style="fill: #983d3d; stroke: #983d3d; stroke-linejoin: miter"/>
   </g>
   <g id="patch_94">
    <path d="M 369.172721 79.295313 
L 385.930717 79.295313 
L 385.930717 62.537316 
L 369.172721 62.537316 
z
" clip-path="url(#pf086f32abd)" style="fill: #983d3d; stroke: #983d3d; stroke-linejoin: miter"/>
   </g>
   <g id="patch_95">
    <path d="M 369.172721 99.404908 
L 385.930717 99.404908 
L 385.930717 82.646912 
L 369.172721 82.646912 
z
" clip-path="url(#pf086f32abd)" style="fill: #983d3d; stroke: #983d3d; stroke-linejoin: miter"/>
   </g>
   <g id="patch_96">
    <path d="M 369.172721 119.514504 
L 385.930717 119.514504 
L 385.930717 102.756507 
L 369.172721 102.756507 
z
" clip-path="url(#pf086f32abd)" style="fill: #dcb732; stroke: #dcb732; stroke-linejoin: miter"/>
   </g>
   <g id="patch_97">
    <path d="M 389.282316 119.514504 
L 406.040312 119.514504 
L 406.040312 102.756507 
L 389.282316 102.756507 
z
" clip-path="url(#pf086f32abd)" style="fill: #dcb732; stroke: #dcb732; stroke-linejoin: miter"/>
   </g>
   <g id="patch_98">
    <path d="M 389.282316 99.404908 
L 406.040312 99.404908 
L 406.040312 82.646912 
L 389.282316 82.646912 
z
" clip-path="url(#pf086f32abd)" style="fill: #dcb732; stroke: #dcb732; stroke-linejoin: miter"/>
   </g>
   <g id="text_1">
    <!-- Vote Percentage in 2016 US Presidential Election -->
    <g transform="translate(7.2 16.318125)scale(0.12 -0.12)">
     <defs>
      <path id="DejaVuSans-56" d="M 1831 0 
L 50 4666 
L 709 4666 
L 2188 738 
L 3669 4666 
L 4325 4666 
L 2547 0 
L 1831 0 
z
" transform="scale(0.015625)"/>
      <path id="DejaVuSans-6f" d="M 1959 3097 
Q 1497 3097 1228 2736 
Q 959 2375 959 1747 
Q 959 1119 1226 758 
Q 1494 397 1959 397 
Q 2419 397 2687 759 
Q 2956 1122 2956 1747 
Q 2956 2369 2687 2733 
Q 2419 3097 1959 3097 
z
M 1959 3584 
Q 2709 3584 3137 3096 
Q 3566 2609 3566 1747 
Q 3566 888 3137 398 
Q 2709 -91 1959 -91 
Q 1206 -91 779 398 
Q 353 888 353 1747 
Q 353 2609 779 3096 
Q 1206 3584 1959 3584 
z
" transform="scale(0.015625)"/>
      <path id="DejaVuSans-74" d="M 1172 4494 
L 1172 3500 
L 2356 3500 
L 2356 3053 
L 1172 3053 
L 1172 1153 
Q 1172 725 1289 603 
Q 1406 481 1766 481 
L 2356 481 
L 2356 0 
L 1766 0 
Q 1100 0 847 248 
Q 594 497 594 1153 
L 594 3053 
L 172 3053 
L 172 3500 
L 594 3500 
L 594 4494 
L 1172 4494 
z
" transform="scale(0.015625)"/>
      <path id="DejaVuSans-65" d="M 3597 1894 
L 3597 1613 
L 953 1613 
Q 991 1019 1311 708 
Q 1631 397 2203 397 
Q 2534 397 2845 478 
Q 3156 559 3463 722 
L 3463 178 
Q 3153 47 2828 -22 
Q 2503 -91 2169 -91 
Q 1331 -91 842 396 
Q 353 884 353 1716 
Q 353 2575 817 3079 
Q 1281 3584 2069 3584 
Q 2775 3584 3186 3129 
Q 3597 2675 3597 1894 
z
M 3022 2063 
Q 3016 2534 2758 2815 
Q 2500 3097 2075 3097 
Q 1594 3097 1305 2825 
Q 1016 2553 972 2059 
L 3022 2063 
z
" transform="scale(0.015625)"/>
      <path id="DejaVuSans-20" transform="scale(0.015625)"/>
      <path id="DejaVuSans-50" d="M 1259 4147 
L 1259 2394 
L 2053 2394 
Q 2494 2394 2734 2622 
Q 2975 2850 2975 3272 
Q 2975 3691 2734 3919 
Q 2494 4147 2053 4147 
L 1259 4147 
z
M 628 4666 
L 2053 4666 
Q 2838 4666 3239 4311 
Q 3641 3956 3641 3272 
Q 3641 2581 3239 2228 
Q 2838 1875 2053 1875 
L 1259 1875 
L 1259 0 
L 628 0 
L 628 4666 
z
" transform="scale(0.015625)"/>
      <path id="DejaVuSans-72" d="M 2631 2963 
Q 2534 3019 2420 3045 
Q 2306 3072 2169 3072 
Q 1681 3072 1420 2755 
Q 1159 2438 1159 1844 
L 1159 0 
L 581 0 
L 581 3500 
L 1159 3500 
L 1159 2956 
Q 1341 3275 1631 3429 
Q 1922 3584 2338 3584 
Q 2397 3584 2469 3576 
Q 2541 3569 2628 3553 
L 2631 2963 
z
" transform="scale(0.015625)"/>
      <path id="DejaVuSans-63" d="M 3122 3366 
L 3122 2828 
Q 2878 2963 2633 3030 
Q 2388 3097 2138 3097 
Q 1578 3097 1268 2742 
Q 959 2388 959 1747 
Q 959 1106 1268 751 
Q 1578 397 2138 397 
Q 2388 397 2633 464 
Q 2878 531 3122 666 
L 3122 134 
Q 2881 22 2623 -34 
Q 2366 -91 2075 -91 
Q 1284 -91 818 406 
Q 353 903 353 1747 
Q 353 2603 823 3093 
Q 1294 3584 2113 3584 
Q 2378 3584 2631 3529 
Q 2884 3475 3122 3366 
z
" transform="scale(0.015625)"/>
      <path id="DejaVuSans-6e" d="M 3513 2113 
L 3513 0 
L 2938 0 
L 2938 2094 
Q 2938 2591 2744 2837 
Q 2550 3084 2163 3084 
Q 1697 3084 1428 2787 
Q 1159 2491 1159 1978 
L 1159 0 
L 581 0 
L 581 3500 
L 1159 3500 
L 1159 2956 
Q 1366 3272 1645 3428 
Q 1925 3584 2291 3584 
Q 2894 3584 3203 3211 
Q 3513 2838 3513 2113 
z
" transform="scale(0.015625)"/>
      <path id="DejaVuSans-61" d="M 2194 1759 
Q 1497 1759 1228 1600 
Q 959 1441 959 1056 
Q 959 750 1161 570 
Q 1363 391 1709 391 
Q 2188 391 2477 730 
Q 2766 1069 2766 1631 
L 2766 1759 
L 2194 1759 
z
M 3341 1997 
L 3341 0 
L 2766 0 
L 2766 531 
Q 2569 213 2275 61 
Q 1981 -91 1556 -91 
Q 1019 -91 701 211 
Q 384 513 384 1019 
Q 384 1609 779 1909 
Q 1175 2209 1959 2209 
L 2766 2209 
L 2766 2266 
Q 2766 2663 2505 2880 
Q 2244 3097 1772 3097 
Q 1472 3097 1187 3025 
Q 903 2953 641 2809 
L 641 3341 
Q 956 3463 1253 3523 
Q 1550 3584 1831 3584 
Q 2591 3584 2966 3190 
Q 3341 2797 3341 1997 
z
" transform="scale(0.015625)"/>
      <path id="DejaVuSans-67" d="M 2906 1791 
Q 2906 2416 2648 2759 
Q 2391 3103 1925 3103 
Q 1463 3103 1205 2759 
Q 947 2416 947 1791 
Q 947 1169 1205 825 
Q 1463 481 1925 481 
Q 2391 481 2648 825 
Q 2906 1169 2906 1791 
z
M 3481 434 
Q 3481 -459 3084 -895 
Q 2688 -1331 1869 -1331 
Q 1566 -1331 1297 -1286 
Q 1028 -1241 775 -1147 
L 775 -588 
Q 1028 -725 1275 -790 
Q 1522 -856 1778 -856 
Q 2344 -856 2625 -561 
Q 2906 -266 2906 331 
L 2906 616 
Q 2728 306 2450 153 
Q 2172 0 1784 0 
Q 1141 0 747 490 
Q 353 981 353 1791 
Q 353 2603 747 3093 
Q 1141 3584 1784 3584 
Q 2172 3584 2450 3431 
Q 2728 3278 2906 2969 
L 2906 3500 
L 3481 3500 
L 3481 434 
z
" transform="scale(0.015625)"/>
      <path id="DejaVuSans-69" d="M 603 3500 
L 1178 3500 
L 1178 0 
L 603 0 
L 603 3500 
z
M 603 4863 
L 1178 4863 
L 1178 4134 
L 603 4134 
L 603 4863 
z
" transform="scale(0.015625)"/>
      <path id="DejaVuSans-32" d="M 1228 531 
L 3431 531 
L 3431 0 
L 469 0 
L 469 531 
Q 828 903 1448 1529 
Q 2069 2156 2228 2338 
Q 2531 2678 2651 2914 
Q 2772 3150 2772 3378 
Q 2772 3750 2511 3984 
Q 2250 4219 1831 4219 
Q 1534 4219 1204 4116 
Q 875 4013 500 3803 
L 500 4441 
Q 881 4594 1212 4672 
Q 1544 4750 1819 4750 
Q 2544 4750 2975 4387 
Q 3406 4025 3406 3419 
Q 3406 3131 3298 2873 
Q 3191 2616 2906 2266 
Q 2828 2175 2409 1742 
Q 1991 1309 1228 531 
z
" transform="scale(0.015625)"/>
      <path id="DejaVuSans-30" d="M 2034 4250 
Q 1547 4250 1301 3770 
Q 1056 3291 1056 2328 
Q 1056 1369 1301 889 
Q 1547 409 2034 409 
Q 2525 409 2770 889 
Q 3016 1369 3016 2328 
Q 3016 3291 2770 3770 
Q 2525 4250 2034 4250 
z
M 2034 4750 
Q 2819 4750 3233 4129 
Q 3647 3509 3647 2328 
Q 3647 1150 3233 529 
Q 2819 -91 2034 -91 
Q 1250 -91 836 529 
Q 422 1150 422 2328 
Q 422 3509 836 4129 
Q 1250 4750 2034 4750 
z
" transform="scale(0.015625)"/>
      <path id="DejaVuSans-31" d="M 794 531 
L 1825 531 
L 1825 4091 
L 703 3866 
L 703 4441 
L 1819 4666 
L 2450 4666 
L 2450 531 
L 3481 531 
L 3481 0 
L 794 0 
L 794 531 
z
" transform="scale(0.015625)"/>
      <path id="DejaVuSans-36" d="M 2113 2584 
Q 1688 2584 1439 2293 
Q 1191 2003 1191 1497 
Q 1191 994 1439 701 
Q 1688 409 2113 409 
Q 2538 409 2786 701 
Q 3034 994 3034 1497 
Q 3034 2003 2786 2293 
Q 2538 2584 2113 2584 
z
M 3366 4563 
L 3366 3988 
Q 3128 4100 2886 4159 
Q 2644 4219 2406 4219 
Q 1781 4219 1451 3797 
Q 1122 3375 1075 2522 
Q 1259 2794 1537 2939 
Q 1816 3084 2150 3084 
Q 2853 3084 3261 2657 
Q 3669 2231 3669 1497 
Q 3669 778 3244 343 
Q 2819 -91 2113 -91 
Q 1303 -91 875 529 
Q 447 1150 447 2328 
Q 447 3434 972 4092 
Q 1497 4750 2381 4750 
Q 2619 4750 2861 4703 
Q 3103 4656 3366 4563 
z
" transform="scale(0.015625)"/>
      <path id="DejaVuSans-55" d="M 556 4666 
L 1191 4666 
L 1191 1831 
Q 1191 1081 1462 751 
Q 1734 422 2344 422 
Q 2950 422 3222 751 
Q 3494 1081 3494 1831 
L 3494 4666 
L 4128 4666 
L 4128 1753 
Q 4128 841 3676 375 
Q 3225 -91 2344 -91 
Q 1459 -91 1007 375 
Q 556 841 556 1753 
L 556 4666 
z
" transform="scale(0.015625)"/>
      <path id="DejaVuSans-53" d="M 3425 4513 
L 3425 3897 
Q 3066 4069 2747 4153 
Q 2428 4238 2131 4238 
Q 1616 4238 1336 4038 
Q 1056 3838 1056 3469 
Q 1056 3159 1242 3001 
Q 1428 2844 1947 2747 
L 2328 2669 
Q 3034 2534 3370 2195 
Q 3706 1856 3706 1288 
Q 3706 609 3251 259 
Q 2797 -91 1919 -91 
Q 1588 -91 1214 -16 
Q 841 59 441 206 
L 441 856 
Q 825 641 1194 531 
Q 1563 422 1919 422 
Q 2459 422 2753 634 
Q 3047 847 3047 1241 
Q 3047 1584 2836 1778 
Q 2625 1972 2144 2069 
L 1759 2144 
Q 1053 2284 737 2584 
Q 422 2884 422 3419 
Q 422 4038 858 4394 
Q 1294 4750 2059 4750 
Q 2388 4750 2728 4690 
Q 3069 4631 3425 4513 
z
" transform="scale(0.015625)"/>
      <path id="DejaVuSans-73" d="M 2834 3397 
L 2834 2853 
Q 2591 2978 2328 3040 
Q 2066 3103 1784 3103 
Q 1356 3103 1142 2972 
Q 928 2841 928 2578 
Q 928 2378 1081 2264 
Q 1234 2150 1697 2047 
L 1894 2003 
Q 2506 1872 2764 1633 
Q 3022 1394 3022 966 
Q 3022 478 2636 193 
Q 2250 -91 1575 -91 
Q 1294 -91 989 -36 
Q 684 19 347 128 
L 347 722 
Q 666 556 975 473 
Q 1284 391 1588 391 
Q 1994 391 2212 530 
Q 2431 669 2431 922 
Q 2431 1156 2273 1281 
Q 2116 1406 1581 1522 
L 1381 1569 
Q 847 1681 609 1914 
Q 372 2147 372 2553 
Q 372 3047 722 3315 
Q 1072 3584 1716 3584 
Q 2034 3584 2315 3537 
Q 2597 3491 2834 3397 
z
" transform="scale(0.015625)"/>
      <path id="DejaVuSans-64" d="M 2906 2969 
L 2906 4863 
L 3481 4863 
L 3481 0 
L 2906 0 
L 2906 525 
Q 2725 213 2448 61 
Q 2172 -91 1784 -91 
Q 1150 -91 751 415 
Q 353 922 353 1747 
Q 353 2572 751 3078 
Q 1150 3584 1784 3584 
Q 2172 3584 2448 3432 
Q 2725 3281 2906 2969 
z
M 947 1747 
Q 947 1113 1208 752 
Q 1469 391 1925 391 
Q 2381 391 2643 752 
Q 2906 1113 2906 1747 
Q 2906 2381 2643 2742 
Q 2381 3103 1925 3103 
Q 1469 3103 1208 2742 
Q 947 2381 947 1747 
z
" transform="scale(0.015625)"/>
      <path id="DejaVuSans-6c" d="M 603 4863 
L 1178 4863 
L 1178 0 
L 603 0 
L 603 4863 
z
" transform="scale(0.015625)"/>
      <path id="DejaVuSans-45" d="M 628 4666 
L 3578 4666 
L 3578 4134 
L 1259 4134 
L 1259 2753 
L 3481 2753 
L 3481 2222 
L 1259 2222 
L 1259 531 
L 3634 531 
L 3634 0 
L 628 0 
L 628 4666 
z
" transform="scale(0.015625)"/>
     </defs>
     <use xlink:href="#DejaVuSans-56"/>
     <use xlink:href="#DejaVuSans-6f" x="60.658203"/>
     <use xlink:href="#DejaVuSans-74" x="121.839844"/>
     <use xlink:href="#DejaVuSans-65" x="161.048828"/>
     <use xlink:href="#DejaVuSans-20" x="222.572266"/>
     <use xlink:href="#DejaVuSans-50" x="254.359375"/>
     <use xlink:href="#DejaVuSans-65" x="311.037109"/>
     <use xlink:href="#DejaVuSans-72" x="372.560547"/>
     <use xlink:href="#DejaVuSans-63" x="411.423828"/>
     <use xlink:href="#DejaVuSans-65" x="466.404297"/>
     <use xlink:href="#DejaVuSans-6e" x="527.927734"/>
     <use xlink:href="#DejaVuSans-74" x="591.306641"/>
     <use xlink:href="#DejaVuSans-61" x="630.515625"/>
     <use xlink:href="#DejaVuSans-67" x="691.794922"/>
     <use xlink:href="#DejaVuSans-65" x="755.271484"/>
     <use xlink:href="#DejaVuSans-20" x="816.794922"/>
     <use xlink:href="#DejaVuSans-69" x="848.582031"/>
     <use xlink:href="#DejaVuSans-6e" x="876.365234"/>
     <use xlink:href="#DejaVuSans-20" x="939.744141"/>
     <use xlink:href="#DejaVuSans-32" x="971.53125"/>
     <use xlink:href="#DejaVuSans-30" x="1035.154297"/>
     <use xlink:href="#DejaVuSans-31" x="1098.777344"/>
     <use xlink:href="#DejaVuSans-36" x="1162.400391"/>
     <use xlink:href="#DejaVuSans-20" x="1226.023438"/>
     <use xlink:href="#DejaVuSans-55" x="1257.810547"/>
     <use xlink:href="#DejaVuSans-53" x="1331.003906"/>
     <use xlink:href="#DejaVuSans-20" x="1394.480469"/>
     <use xlink:href="#DejaVuSans-50" x="1426.267578"/>
     <use xlink:href="#DejaVuSans-72" x="1484.820312"/>
     <use xlink:href="#DejaVuSans-65" x="1523.683594"/>
     <use xlink:href="#DejaVuSans-73" x="1585.207031"/>
     <use xlink:href="#DejaVuSans-69" x="1637.306641"/>
     <use xlink:href="#DejaVuSans-64" x="1665.089844"/>
     <use xlink:href="#DejaVuSans-65" x="1728.566406"/>
     <use xlink:href="#DejaVuSans-6e" x="1790.089844"/>
     <use xlink:href="#DejaVuSans-74" x="1853.46875"/>
     <use xlink:href="#DejaVuSans-69" x="1892.677734"/>
     <use xlink:href="#DejaVuSans-61" x="1920.460938"/>
     <use xlink:href="#DejaVuSans-6c" x="1981.740234"/>
     <use xlink:href="#DejaVuSans-20" x="2009.523438"/>
     <use xlink:href="#DejaVuSans-45" x="2041.310547"/>
     <use xlink:href="#DejaVuSans-6c" x="2104.494141"/>
     <use xlink:href="#DejaVuSans-65" x="2132.277344"/>
     <use xlink:href="#DejaVuSans-63" x="2193.800781"/>
     <use xlink:href="#DejaVuSans-74" x="2248.78125"/>
     <use xlink:href="#DejaVuSans-69" x="2287.990234"/>
     <use xlink:href="#DejaVuSans-6f" x="2315.773438"/>
     <use xlink:href="#DejaVuSans-6e" x="2376.955078"/>
    </g>
   </g>
   <g id="legend_1">
    <g id="patch_99">
     <path d="M 14.2 153.393055 
L 402.679688 153.393055 
Q 404.679688 153.393055 404.679688 151.393055 
L 404.679688 137.71493 
Q 404.679688 135.71493 402.679688 135.71493 
L 14.2 135.71493 
Q 12.2 135.71493 12.2 137.71493 
L 12.2 151.393055 
Q 12.2 153.393055 14.2 153.393055 
L 14.2 153.393055 
z
" style="fill: none; opacity: 0"/>
    </g>
    <g id="patch_100">
     <path d="M 16.2 147.313368 
L 36.2 147.313368 
L 36.2 140.313368 
L 16.2 140.313368 
z
" style="fill: #232066; stroke: #232066; stroke-linejoin: miter"/>
    </g>
    <g id="text_2">
     <!-- Democratic (48%) -->
     <g transform="translate(44.2 147.313368)scale(0.1 -0.1)">
      <defs>
       <path id="DejaVuSans-44" d="M 1259 4147 
L 1259 519 
L 2022 519 
Q 2988 519 3436 956 
Q 3884 1394 3884 2338 
Q 3884 3275 3436 3711 
Q 2988 4147 2022 4147 
L 1259 4147 
z
M 628 4666 
L 1925 4666 
Q 3281 4666 3915 4102 
Q 4550 3538 4550 2338 
Q 4550 1131 3912 565 
Q 3275 0 1925 0 
L 628 0 
L 628 4666 
z
" transform="scale(0.015625)"/>
       <path id="DejaVuSans-6d" d="M 3328 2828 
Q 3544 3216 3844 3400 
Q 4144 3584 4550 3584 
Q 5097 3584 5394 3201 
Q 5691 2819 5691 2113 
L 5691 0 
L 5113 0 
L 5113 2094 
Q 5113 2597 4934 2840 
Q 4756 3084 4391 3084 
Q 3944 3084 3684 2787 
Q 3425 2491 3425 1978 
L 3425 0 
L 2847 0 
L 2847 2094 
Q 2847 2600 2669 2842 
Q 2491 3084 2119 3084 
Q 1678 3084 1418 2786 
Q 1159 2488 1159 1978 
L 1159 0 
L 581 0 
L 581 3500 
L 1159 3500 
L 1159 2956 
Q 1356 3278 1631 3431 
Q 1906 3584 2284 3584 
Q 2666 3584 2933 3390 
Q 3200 3197 3328 2828 
z
" transform="scale(0.015625)"/>
       <path id="DejaVuSans-28" d="M 1984 4856 
Q 1566 4138 1362 3434 
Q 1159 2731 1159 2009 
Q 1159 1288 1364 580 
Q 1569 -128 1984 -844 
L 1484 -844 
Q 1016 -109 783 600 
Q 550 1309 550 2009 
Q 550 2706 781 3412 
Q 1013 4119 1484 4856 
L 1984 4856 
z
" transform="scale(0.015625)"/>
       <path id="DejaVuSans-34" d="M 2419 4116 
L 825 1625 
L 2419 1625 
L 2419 4116 
z
M 2253 4666 
L 3047 4666 
L 3047 1625 
L 3713 1625 
L 3713 1100 
L 3047 1100 
L 3047 0 
L 2419 0 
L 2419 1100 
L 313 1100 
L 313 1709 
L 2253 4666 
z
" transform="scale(0.015625)"/>
       <path id="DejaVuSans-38" d="M 2034 2216 
Q 1584 2216 1326 1975 
Q 1069 1734 1069 1313 
Q 1069 891 1326 650 
Q 1584 409 2034 409 
Q 2484 409 2743 651 
Q 3003 894 3003 1313 
Q 3003 1734 2745 1975 
Q 2488 2216 2034 2216 
z
M 1403 2484 
Q 997 2584 770 2862 
Q 544 3141 544 3541 
Q 544 4100 942 4425 
Q 1341 4750 2034 4750 
Q 2731 4750 3128 4425 
Q 3525 4100 3525 3541 
Q 3525 3141 3298 2862 
Q 3072 2584 2669 2484 
Q 3125 2378 3379 2068 
Q 3634 1759 3634 1313 
Q 3634 634 3220 271 
Q 2806 -91 2034 -91 
Q 1263 -91 848 271 
Q 434 634 434 1313 
Q 434 1759 690 2068 
Q 947 2378 1403 2484 
z
M 1172 3481 
Q 1172 3119 1398 2916 
Q 1625 2713 2034 2713 
Q 2441 2713 2670 2916 
Q 2900 3119 2900 3481 
Q 2900 3844 2670 4047 
Q 2441 4250 2034 4250 
Q 1625 4250 1398 4047 
Q 1172 3844 1172 3481 
z
" transform="scale(0.015625)"/>
       <path id="DejaVuSans-25" d="M 4653 2053 
Q 4381 2053 4226 1822 
Q 4072 1591 4072 1178 
Q 4072 772 4226 539 
Q 4381 306 4653 306 
Q 4919 306 5073 539 
Q 5228 772 5228 1178 
Q 5228 1588 5073 1820 
Q 4919 2053 4653 2053 
z
M 4653 2450 
Q 5147 2450 5437 2106 
Q 5728 1763 5728 1178 
Q 5728 594 5436 251 
Q 5144 -91 4653 -91 
Q 4153 -91 3862 251 
Q 3572 594 3572 1178 
Q 3572 1766 3864 2108 
Q 4156 2450 4653 2450 
z
M 1428 4353 
Q 1159 4353 1004 4120 
Q 850 3888 850 3481 
Q 850 3069 1003 2837 
Q 1156 2606 1428 2606 
Q 1700 2606 1854 2837 
Q 2009 3069 2009 3481 
Q 2009 3884 1853 4118 
Q 1697 4353 1428 4353 
z
M 4250 4750 
L 4750 4750 
L 1831 -91 
L 1331 -91 
L 4250 4750 
z
M 1428 4750 
Q 1922 4750 2215 4408 
Q 2509 4066 2509 3481 
Q 2509 2891 2217 2550 
Q 1925 2209 1428 2209 
Q 931 2209 642 2551 
Q 353 2894 353 3481 
Q 353 4063 643 4406 
Q 934 4750 1428 4750 
z
" transform="scale(0.015625)"/>
       <path id="DejaVuSans-29" d="M 513 4856 
L 1013 4856 
Q 1481 4119 1714 3412 
Q 1947 2706 1947 2009 
Q 1947 1309 1714 600 
Q 1481 -109 1013 -844 
L 513 -844 
Q 928 -128 1133 580 
Q 1338 1288 1338 2009 
Q 1338 2731 1133 3434 
Q 928 4138 513 4856 
z
" transform="scale(0.015625)"/>
      </defs>
      <use xlink:href="#DejaVuSans-44"/>
      <use xlink:href="#DejaVuSans-65" x="77.001953"/>
      <use xlink:href="#DejaVuSans-6d" x="138.525391"/>
      <use xlink:href="#DejaVuSans-6f" x="235.9375"/>
      <use xlink:href="#DejaVuSans-63" x="297.119141"/>
      <use xlink:href="#DejaVuSans-72" x="352.099609"/>
      <use xlink:href="#DejaVuSans-61" x="393.212891"/>
      <use xlink:href="#DejaVuSans-74" x="454.492188"/>
      <use xlink:href="#DejaVuSans-69" x="493.701172"/>
      <use xlink:href="#DejaVuSans-63" x="521.484375"/>
      <use xlink:href="#DejaVuSans-20" x="576.464844"/>
      <use xlink:href="#DejaVuSans-28" x="608.251953"/>
      <use xlink:href="#DejaVuSans-34" x="647.265625"/>
      <use xlink:href="#DejaVuSans-38" x="710.888672"/>
      <use xlink:href="#DejaVuSans-25" x="774.511719"/>
      <use xlink:href="#DejaVuSans-29" x="869.53125"/>
     </g>
    </g>
    <g id="patch_101">
     <path d="M 155.054688 147.313368 
L 175.054688 147.313368 
L 175.054688 140.313368 
L 155.054688 140.313368 
z
" style="fill: #983d3d; stroke: #983d3d; stroke-linejoin: miter"/>
    </g>
    <g id="text_3">
     <!-- Republican (46%) -->
     <g transform="translate(183.054688 147.313368)scale(0.1 -0.1)">
      <defs>
       <path id="DejaVuSans-52" d="M 2841 2188 
Q 3044 2119 3236 1894 
Q 3428 1669 3622 1275 
L 4263 0 
L 3584 0 
L 2988 1197 
Q 2756 1666 2539 1819 
Q 2322 1972 1947 1972 
L 1259 1972 
L 1259 0 
L 628 0 
L 628 4666 
L 2053 4666 
Q 2853 4666 3247 4331 
Q 3641 3997 3641 3322 
Q 3641 2881 3436 2590 
Q 3231 2300 2841 2188 
z
M 1259 4147 
L 1259 2491 
L 2053 2491 
Q 2509 2491 2742 2702 
Q 2975 2913 2975 3322 
Q 2975 3731 2742 3939 
Q 2509 4147 2053 4147 
L 1259 4147 
z
" transform="scale(0.015625)"/>
       <path id="DejaVuSans-70" d="M 1159 525 
L 1159 -1331 
L 581 -1331 
L 581 3500 
L 1159 3500 
L 1159 2969 
Q 1341 3281 1617 3432 
Q 1894 3584 2278 3584 
Q 2916 3584 3314 3078 
Q 3713 2572 3713 1747 
Q 3713 922 3314 415 
Q 2916 -91 2278 -91 
Q 1894 -91 1617 61 
Q 1341 213 1159 525 
z
M 3116 1747 
Q 3116 2381 2855 2742 
Q 2594 3103 2138 3103 
Q 1681 3103 1420 2742 
Q 1159 2381 1159 1747 
Q 1159 1113 1420 752 
Q 1681 391 2138 391 
Q 2594 391 2855 752 
Q 3116 1113 3116 1747 
z
" transform="scale(0.015625)"/>
       <path id="DejaVuSans-75" d="M 544 1381 
L 544 3500 
L 1119 3500 
L 1119 1403 
Q 1119 906 1312 657 
Q 1506 409 1894 409 
Q 2359 409 2629 706 
Q 2900 1003 2900 1516 
L 2900 3500 
L 3475 3500 
L 3475 0 
L 2900 0 
L 2900 538 
Q 2691 219 2414 64 
Q 2138 -91 1772 -91 
Q 1169 -91 856 284 
Q 544 659 544 1381 
z
M 1991 3584 
L 1991 3584 
z
" transform="scale(0.015625)"/>
       <path id="DejaVuSans-62" d="M 3116 1747 
Q 3116 2381 2855 2742 
Q 2594 3103 2138 3103 
Q 1681 3103 1420 2742 
Q 1159 2381 1159 1747 
Q 1159 1113 1420 752 
Q 1681 391 2138 391 
Q 2594 391 2855 752 
Q 3116 1113 3116 1747 
z
M 1159 2969 
Q 1341 3281 1617 3432 
Q 1894 3584 2278 3584 
Q 2916 3584 3314 3078 
Q 3713 2572 3713 1747 
Q 3713 922 3314 415 
Q 2916 -91 2278 -91 
Q 1894 -91 1617 61 
Q 1341 213 1159 525 
L 1159 0 
L 581 0 
L 581 4863 
L 1159 4863 
L 1159 2969 
z
" transform="scale(0.015625)"/>
      </defs>
      <use xlink:href="#DejaVuSans-52"/>
      <use xlink:href="#DejaVuSans-65" x="64.982422"/>
      <use xlink:href="#DejaVuSans-70" x="126.505859"/>
      <use xlink:href="#DejaVuSans-75" x="189.982422"/>
      <use xlink:href="#DejaVuSans-62" x="253.361328"/>
      <use xlink:href="#DejaVuSans-6c" x="316.837891"/>
      <use xlink:href="#DejaVuSans-69" x="344.621094"/>
      <use xlink:href="#DejaVuSans-63" x="372.404297"/>
      <use xlink:href="#DejaVuSans-61" x="427.384766"/>
      <use xlink:href="#DejaVuSans-6e" x="488.664062"/>
      <use xlink:href="#DejaVuSans-20" x="552.042969"/>
      <use xlink:href="#DejaVuSans-28" x="583.830078"/>
      <use xlink:href="#DejaVuSans-34" x="622.84375"/>
      <use xlink:href="#DejaVuSans-36" x="686.466797"/>
      <use xlink:href="#DejaVuSans-25" x="750.089844"/>
      <use xlink:href="#DejaVuSans-29" x="845.109375"/>
     </g>
    </g>
    <g id="patch_102">
     <path d="M 291.46875 147.313368 
L 311.46875 147.313368 
L 311.46875 140.313368 
L 291.46875 140.313368 
z
" style="fill: #dcb732; stroke: #dcb732; stroke-linejoin: miter"/>
    </g>
    <g id="text_4">
     <!-- Libertarian (3%) -->
     <g transform="translate(319.46875 147.313368)scale(0.1 -0.1)">
      <defs>
       <path id="DejaVuSans-4c" d="M 628 4666 
L 1259 4666 
L 1259 531 
L 3531 531 
L 3531 0 
L 628 0 
L 628 4666 
z
" transform="scale(0.015625)"/>
       <path id="DejaVuSans-33" d="M 2597 2516 
Q 3050 2419 3304 2112 
Q 3559 1806 3559 1356 
Q 3559 666 3084 287 
Q 2609 -91 1734 -91 
Q 1441 -91 1130 -33 
Q 819 25 488 141 
L 488 750 
Q 750 597 1062 519 
Q 1375 441 1716 441 
Q 2309 441 2620 675 
Q 2931 909 2931 1356 
Q 2931 1769 2642 2001 
Q 2353 2234 1838 2234 
L 1294 2234 
L 1294 2753 
L 1863 2753 
Q 2328 2753 2575 2939 
Q 2822 3125 2822 3475 
Q 2822 3834 2567 4026 
Q 2313 4219 1838 4219 
Q 1578 4219 1281 4162 
Q 984 4106 628 3988 
L 628 4550 
Q 988 4650 1302 4700 
Q 1616 4750 1894 4750 
Q 2613 4750 3031 4423 
Q 3450 4097 3450 3541 
Q 3450 3153 3228 2886 
Q 3006 2619 2597 2516 
z
" transform="scale(0.015625)"/>
      </defs>
      <use xlink:href="#DejaVuSans-4c"/>
      <use xlink:href="#DejaVuSans-69" x="55.712891"/>
      <use xlink:href="#DejaVuSans-62" x="83.496094"/>
      <use xlink:href="#DejaVuSans-65" x="146.972656"/>
      <use xlink:href="#DejaVuSans-72" x="208.496094"/>
      <use xlink:href="#DejaVuSans-74" x="249.609375"/>
      <use xlink:href="#DejaVuSans-61" x="288.818359"/>
      <use xlink:href="#DejaVuSans-72" x="350.097656"/>
      <use xlink:href="#DejaVuSans-69" x="391.210938"/>
      <use xlink:href="#DejaVuSans-61" x="418.994141"/>
      <use xlink:href="#DejaVuSans-6e" x="480.273438"/>
      <use xlink:href="#DejaVuSans-20" x="543.652344"/>
      <use xlink:href="#DejaVuSans-28" x="575.439453"/>
      <use xlink:href="#DejaVuSans-33" x="614.453125"/>
      <use xlink:href="#DejaVuSans-25" x="678.076172"/>
      <use xlink:href="#DejaVuSans-29" x="773.095703"/>
     </g>
    </g>
   </g>
  </g>
 </g>
 <defs>
  <clipPath id="pf086f32abd">
   <rect x="7.2" y="22.318125" width="398.840312" height="97.196379"/>
  </clipPath>
 </defs>
</svg>
