<?xml version="1.0" encoding="utf-8" standalone="no"?>
<!DOCTYPE svg PUBLIC "-//W3C//DTD SVG 1.1//EN"
  "http://www.w3.org/Graphics/SVG/1.1/DTD/svg11.dtd">
<svg xmlns:xlink="http://www.w3.org/1999/xlink" width="456.225pt" height="145.463478pt" viewBox="0 0 456.225 145.463478" xmlns="http://www.w3.org/2000/svg" version="1.1">
 <metadata>
  <rdf:RDF xmlns:dc="http://purl.org/dc/elements/1.1/" xmlns:cc="http://creativecommons.org/ns#" xmlns:rdf="http://www.w3.org/1999/02/22-rdf-syntax-ns#">
   <cc:Work>
    <dc:type rdf:resource="http://purl.org/dc/dcmitype/StillImage"/>
    <dc:date>2022-06-07T22:19:57.547085</dc:date>
    <dc:format>image/svg+xml</dc:format>
    <dc:creator>
     <cc:Agent>
      <dc:title>Matplotlib v3.5.2, https://matplotlib.org/</dc:title>
     </cc:Agent>
    </dc:creator>
   </cc:Work>
  </rdf:RDF>
 </metadata>
 <defs>
  <style type="text/css">*{stroke-linejoin: round; stroke-linecap: butt}</style>
 </defs>
 <g id="figure_1">
  <g id="patch_1">
   <path d="M 0 145.463478 
L 456.225 145.463478 
L 456.225 0 
L 0 0 
z
" style="fill: #eeeeee"/>
  </g>
  <g id="axes_1">
   <g id="patch_2">
    <path d="M 7.2 37.212873 
L 22.094748 37.212873 
L 22.094748 22.318125 
L 7.2 22.318125 
z
" clip-path="url(#p1476a1e410)" style="fill: #c1d82f; stroke: #c1d82f; stroke-linejoin: miter"/>
   </g>
   <g id="patch_3">
    <path d="M 25.073697 37.212873 
L 39.968445 37.212873 
L 39.968445 22.318125 
L 25.073697 22.318125 
z
" clip-path="url(#p1476a1e410)" style="fill: #c1d82f; stroke: #c1d82f; stroke-linejoin: miter"/>
   </g>
   <g id="patch_4">
    <path d="M 42.947395 37.212873 
L 57.842143 37.212873 
L 57.842143 22.318125 
L 42.947395 22.318125 
z
" clip-path="url(#p1476a1e410)" style="fill: #c1d82f; stroke: #c1d82f; stroke-linejoin: miter"/>
   </g>
   <g id="patch_5">
    <path d="M 60.821092 37.212873 
L 75.71584 37.212873 
L 75.71584 22.318125 
L 60.821092 22.318125 
z
" clip-path="url(#p1476a1e410)" style="fill: #c1d82f; stroke: #c1d82f; stroke-linejoin: miter"/>
   </g>
   <g id="patch_6">
    <path d="M 78.69479 37.212873 
L 93.589538 37.212873 
L 93.589538 22.318125 
L 78.69479 22.318125 
z
" clip-path="url(#p1476a1e410)" style="fill: #c1d82f; stroke: #c1d82f; stroke-linejoin: miter"/>
   </g>
   <g id="patch_7">
    <path d="M 96.568487 37.212873 
L 111.463235 37.212873 
L 111.463235 22.318125 
L 96.568487 22.318125 
z
" clip-path="url(#p1476a1e410)" style="fill: #c1d82f; stroke: #c1d82f; stroke-linejoin: miter"/>
   </g>
   <g id="patch_8">
    <path d="M 114.442185 37.212873 
L 129.336933 37.212873 
L 129.336933 22.318125 
L 114.442185 22.318125 
z
" clip-path="url(#p1476a1e410)" style="fill: #c1d82f; stroke: #c1d82f; stroke-linejoin: miter"/>
   </g>
   <g id="patch_9">
    <path d="M 132.315882 37.212873 
L 147.21063 37.212873 
L 147.21063 22.318125 
L 132.315882 22.318125 
z
" clip-path="url(#p1476a1e410)" style="fill: #c1d82f; stroke: #c1d82f; stroke-linejoin: miter"/>
   </g>
   <g id="patch_10">
    <path d="M 150.18958 37.212873 
L 165.084328 37.212873 
L 165.084328 22.318125 
L 150.18958 22.318125 
z
" clip-path="url(#p1476a1e410)" style="fill: #c1d82f; stroke: #c1d82f; stroke-linejoin: miter"/>
   </g>
   <g id="patch_11">
    <path d="M 168.063277 37.212873 
L 182.958025 37.212873 
L 182.958025 22.318125 
L 168.063277 22.318125 
z
" clip-path="url(#p1476a1e410)" style="fill: #c1d82f; stroke: #c1d82f; stroke-linejoin: miter"/>
   </g>
   <g id="patch_12">
    <path d="M 185.936975 37.212873 
L 200.831723 37.212873 
L 200.831723 22.318125 
L 185.936975 22.318125 
z
" clip-path="url(#p1476a1e410)" style="fill: #c1d82f; stroke: #c1d82f; stroke-linejoin: miter"/>
   </g>
   <g id="patch_13">
    <path d="M 203.810672 37.212873 
L 218.70542 37.212873 
L 218.70542 22.318125 
L 203.810672 22.318125 
z
" clip-path="url(#p1476a1e410)" style="fill: #c1d82f; stroke: #c1d82f; stroke-linejoin: miter"/>
   </g>
   <g id="patch_14">
    <path d="M 221.68437 37.212873 
L 236.579118 37.212873 
L 236.579118 22.318125 
L 221.68437 22.318125 
z
" clip-path="url(#p1476a1e410)" style="fill: #c1d82f; stroke: #c1d82f; stroke-linejoin: miter"/>
   </g>
   <g id="patch_15">
    <path d="M 239.558067 37.212873 
L 254.452815 37.212873 
L 254.452815 22.318125 
L 239.558067 22.318125 
z
" clip-path="url(#p1476a1e410)" style="fill: #c1d82f; stroke: #c1d82f; stroke-linejoin: miter"/>
   </g>
   <g id="patch_16">
    <path d="M 257.431765 37.212873 
L 272.326513 37.212873 
L 272.326513 22.318125 
L 257.431765 22.318125 
z
" clip-path="url(#p1476a1e410)" style="fill: #c1d82f; stroke: #c1d82f; stroke-linejoin: miter"/>
   </g>
   <g id="patch_17">
    <path d="M 275.305462 37.212873 
L 290.20021 37.212873 
L 290.20021 22.318125 
L 275.305462 22.318125 
z
" clip-path="url(#p1476a1e410)" style="fill: #c1d82f; stroke: #c1d82f; stroke-linejoin: miter"/>
   </g>
   <g id="patch_18">
    <path d="M 293.17916 37.212873 
L 308.073908 37.212873 
L 308.073908 22.318125 
L 293.17916 22.318125 
z
" clip-path="url(#p1476a1e410)" style="fill: #c1d82f; stroke: #c1d82f; stroke-linejoin: miter"/>
   </g>
   <g id="patch_19">
    <path d="M 311.052857 37.212873 
L 325.947605 37.212873 
L 325.947605 22.318125 
L 311.052857 22.318125 
z
" clip-path="url(#p1476a1e410)" style="fill: #c1d82f; stroke: #c1d82f; stroke-linejoin: miter"/>
   </g>
   <g id="patch_20">
    <path d="M 328.926555 37.212873 
L 343.821303 37.212873 
L 343.821303 22.318125 
L 328.926555 22.318125 
z
" clip-path="url(#p1476a1e410)" style="fill: #c1d82f; stroke: #c1d82f; stroke-linejoin: miter"/>
   </g>
   <g id="patch_21">
    <path d="M 346.800252 37.212873 
L 361.695 37.212873 
L 361.695 22.318125 
L 346.800252 22.318125 
z
" clip-path="url(#p1476a1e410)" style="fill: #c1d82f; stroke: #c1d82f; stroke-linejoin: miter"/>
   </g>
   <g id="patch_22">
    <path d="M 346.800252 55.08657 
L 361.695 55.08657 
L 361.695 40.191822 
L 346.800252 40.191822 
z
" clip-path="url(#p1476a1e410)" style="fill: #c1d82f; stroke: #c1d82f; stroke-linejoin: miter"/>
   </g>
   <g id="patch_23">
    <path d="M 328.926555 55.08657 
L 343.821303 55.08657 
L 343.821303 40.191822 
L 328.926555 40.191822 
z
" clip-path="url(#p1476a1e410)" style="fill: #c1d82f; stroke: #c1d82f; stroke-linejoin: miter"/>
   </g>
   <g id="patch_24">
    <path d="M 311.052857 55.08657 
L 325.947605 55.08657 
L 325.947605 40.191822 
L 311.052857 40.191822 
z
" clip-path="url(#p1476a1e410)" style="fill: #c1d82f; stroke: #c1d82f; stroke-linejoin: miter"/>
   </g>
   <g id="patch_25">
    <path d="M 293.17916 55.08657 
L 308.073908 55.08657 
L 308.073908 40.191822 
L 293.17916 40.191822 
z
" clip-path="url(#p1476a1e410)" style="fill: #c1d82f; stroke: #c1d82f; stroke-linejoin: miter"/>
   </g>
   <g id="patch_26">
    <path d="M 275.305462 55.08657 
L 290.20021 55.08657 
L 290.20021 40.191822 
L 275.305462 40.191822 
z
" clip-path="url(#p1476a1e410)" style="fill: #c1d82f; stroke: #c1d82f; stroke-linejoin: miter"/>
   </g>
   <g id="patch_27">
    <path d="M 257.431765 55.08657 
L 272.326513 55.08657 
L 272.326513 40.191822 
L 257.431765 40.191822 
z
" clip-path="url(#p1476a1e410)" style="fill: #c1d82f; stroke: #c1d82f; stroke-linejoin: miter"/>
   </g>
   <g id="patch_28">
    <path d="M 239.558067 55.08657 
L 254.452815 55.08657 
L 254.452815 40.191822 
L 239.558067 40.191822 
z
" clip-path="url(#p1476a1e410)" style="fill: #c1d82f; stroke: #c1d82f; stroke-linejoin: miter"/>
   </g>
   <g id="patch_29">
    <path d="M 221.68437 55.08657 
L 236.579118 55.08657 
L 236.579118 40.191822 
L 221.68437 40.191822 
z
" clip-path="url(#p1476a1e410)" style="fill: #c1d82f; stroke: #c1d82f; stroke-linejoin: miter"/>
   </g>
   <g id="patch_30">
    <path d="M 203.810672 55.08657 
L 218.70542 55.08657 
L 218.70542 40.191822 
L 203.810672 40.191822 
z
" clip-path="url(#p1476a1e410)" style="fill: #c1d82f; stroke: #c1d82f; stroke-linejoin: miter"/>
   </g>
   <g id="patch_31">
    <path d="M 185.936975 55.08657 
L 200.831723 55.08657 
L 200.831723 40.191822 
L 185.936975 40.191822 
z
" clip-path="url(#p1476a1e410)" style="fill: #c1d82f; stroke: #c1d82f; stroke-linejoin: miter"/>
   </g>
   <g id="patch_32">
    <path d="M 168.063277 55.08657 
L 182.958025 55.08657 
L 182.958025 40.191822 
L 168.063277 40.191822 
z
" clip-path="url(#p1476a1e410)" style="fill: #c1d82f; stroke: #c1d82f; stroke-linejoin: miter"/>
   </g>
   <g id="patch_33">
    <path d="M 150.18958 55.08657 
L 165.084328 55.08657 
L 165.084328 40.191822 
L 150.18958 40.191822 
z
" clip-path="url(#p1476a1e410)" style="fill: #c1d82f; stroke: #c1d82f; stroke-linejoin: miter"/>
   </g>
   <g id="patch_34">
    <path d="M 132.315882 55.08657 
L 147.21063 55.08657 
L 147.21063 40.191822 
L 132.315882 40.191822 
z
" clip-path="url(#p1476a1e410)" style="fill: #c1d82f; stroke: #c1d82f; stroke-linejoin: miter"/>
   </g>
   <g id="patch_35">
    <path d="M 114.442185 55.08657 
L 129.336933 55.08657 
L 129.336933 40.191822 
L 114.442185 40.191822 
z
" clip-path="url(#p1476a1e410)" style="fill: #c1d82f; stroke: #c1d82f; stroke-linejoin: miter"/>
   </g>
   <g id="patch_36">
    <path d="M 96.568487 55.08657 
L 111.463235 55.08657 
L 111.463235 40.191822 
L 96.568487 40.191822 
z
" clip-path="url(#p1476a1e410)" style="fill: #c1d82f; stroke: #c1d82f; stroke-linejoin: miter"/>
   </g>
   <g id="patch_37">
    <path d="M 78.69479 55.08657 
L 93.589538 55.08657 
L 93.589538 40.191822 
L 78.69479 40.191822 
z
" clip-path="url(#p1476a1e410)" style="fill: #c1d82f; stroke: #c1d82f; stroke-linejoin: miter"/>
   </g>
   <g id="patch_38">
    <path d="M 60.821092 55.08657 
L 75.71584 55.08657 
L 75.71584 40.191822 
L 60.821092 40.191822 
z
" clip-path="url(#p1476a1e410)" style="fill: #c1d82f; stroke: #c1d82f; stroke-linejoin: miter"/>
   </g>
   <g id="patch_39">
    <path d="M 42.947395 55.08657 
L 57.842143 55.08657 
L 57.842143 40.191822 
L 42.947395 40.191822 
z
" clip-path="url(#p1476a1e410)" style="fill: #c1d82f; stroke: #c1d82f; stroke-linejoin: miter"/>
   </g>
   <g id="patch_40">
    <path d="M 25.073697 55.08657 
L 39.968445 55.08657 
L 39.968445 40.191822 
L 25.073697 40.191822 
z
" clip-path="url(#p1476a1e410)" style="fill: #c1d82f; stroke: #c1d82f; stroke-linejoin: miter"/>
   </g>
   <g id="patch_41">
    <path d="M 7.2 55.08657 
L 22.094748 55.08657 
L 22.094748 40.191822 
L 7.2 40.191822 
z
" clip-path="url(#p1476a1e410)" style="fill: #c1d82f; stroke: #c1d82f; stroke-linejoin: miter"/>
   </g>
   <g id="patch_42">
    <path d="M 7.2 72.960268 
L 22.094748 72.960268 
L 22.094748 58.06552 
L 7.2 58.06552 
z
" clip-path="url(#p1476a1e410)" style="fill: #c1d82f; stroke: #c1d82f; stroke-linejoin: miter"/>
   </g>
   <g id="patch_43">
    <path d="M 25.073697 72.960268 
L 39.968445 72.960268 
L 39.968445 58.06552 
L 25.073697 58.06552 
z
" clip-path="url(#p1476a1e410)" style="fill: #c1d82f; stroke: #c1d82f; stroke-linejoin: miter"/>
   </g>
   <g id="patch_44">
    <path d="M 42.947395 72.960268 
L 57.842143 72.960268 
L 57.842143 58.06552 
L 42.947395 58.06552 
z
" clip-path="url(#p1476a1e410)" style="fill: #c1d82f; stroke: #c1d82f; stroke-linejoin: miter"/>
   </g>
   <g id="patch_45">
    <path d="M 60.821092 72.960268 
L 75.71584 72.960268 
L 75.71584 58.06552 
L 60.821092 58.06552 
z
" clip-path="url(#p1476a1e410)" style="fill: #c1d82f; stroke: #c1d82f; stroke-linejoin: miter"/>
   </g>
   <g id="patch_46">
    <path d="M 78.69479 72.960268 
L 93.589538 72.960268 
L 93.589538 58.06552 
L 78.69479 58.06552 
z
" clip-path="url(#p1476a1e410)" style="fill: #c1d82f; stroke: #c1d82f; stroke-linejoin: miter"/>
   </g>
   <g id="patch_47">
    <path d="M 96.568487 72.960268 
L 111.463235 72.960268 
L 111.463235 58.06552 
L 96.568487 58.06552 
z
" clip-path="url(#p1476a1e410)" style="fill: #c1d82f; stroke: #c1d82f; stroke-linejoin: miter"/>
   </g>
   <g id="patch_48">
    <path d="M 114.442185 72.960268 
L 129.336933 72.960268 
L 129.336933 58.06552 
L 114.442185 58.06552 
z
" clip-path="url(#p1476a1e410)" style="fill: #c1d82f; stroke: #c1d82f; stroke-linejoin: miter"/>
   </g>
   <g id="patch_49">
    <path d="M 132.315882 72.960268 
L 147.21063 72.960268 
L 147.21063 58.06552 
L 132.315882 58.06552 
z
" clip-path="url(#p1476a1e410)" style="fill: #c1d82f; stroke: #c1d82f; stroke-linejoin: miter"/>
   </g>
   <g id="patch_50">
    <path d="M 150.18958 72.960268 
L 165.084328 72.960268 
L 165.084328 58.06552 
L 150.18958 58.06552 
z
" clip-path="url(#p1476a1e410)" style="fill: #c1d82f; stroke: #c1d82f; stroke-linejoin: miter"/>
   </g>
   <g id="patch_51">
    <path d="M 168.063277 72.960268 
L 182.958025 72.960268 
L 182.958025 58.06552 
L 168.063277 58.06552 
z
" clip-path="url(#p1476a1e410)" style="fill: #c1d82f; stroke: #c1d82f; stroke-linejoin: miter"/>
   </g>
   <g id="patch_52">
    <path d="M 185.936975 72.960268 
L 200.831723 72.960268 
L 200.831723 58.06552 
L 185.936975 58.06552 
z
" clip-path="url(#p1476a1e410)" style="fill: #c1d82f; stroke: #c1d82f; stroke-linejoin: miter"/>
   </g>
   <g id="patch_53">
    <path d="M 203.810672 72.960268 
L 218.70542 72.960268 
L 218.70542 58.06552 
L 203.810672 58.06552 
z
" clip-path="url(#p1476a1e410)" style="fill: #c1d82f; stroke: #c1d82f; stroke-linejoin: miter"/>
   </g>
   <g id="patch_54">
    <path d="M 221.68437 72.960268 
L 236.579118 72.960268 
L 236.579118 58.06552 
L 221.68437 58.06552 
z
" clip-path="url(#p1476a1e410)" style="fill: #c1d82f; stroke: #c1d82f; stroke-linejoin: miter"/>
   </g>
   <g id="patch_55">
    <path d="M 239.558067 72.960268 
L 254.452815 72.960268 
L 254.452815 58.06552 
L 239.558067 58.06552 
z
" clip-path="url(#p1476a1e410)" style="fill: #c1d82f; stroke: #c1d82f; stroke-linejoin: miter"/>
   </g>
   <g id="patch_56">
    <path d="M 257.431765 72.960268 
L 272.326513 72.960268 
L 272.326513 58.06552 
L 257.431765 58.06552 
z
" clip-path="url(#p1476a1e410)" style="fill: #c1d82f; stroke: #c1d82f; stroke-linejoin: miter"/>
   </g>
   <g id="patch_57">
    <path d="M 275.305462 72.960268 
L 290.20021 72.960268 
L 290.20021 58.06552 
L 275.305462 58.06552 
z
" clip-path="url(#p1476a1e410)" style="fill: #c1d82f; stroke: #c1d82f; stroke-linejoin: miter"/>
   </g>
   <g id="patch_58">
    <path d="M 293.17916 72.960268 
L 308.073908 72.960268 
L 308.073908 58.06552 
L 293.17916 58.06552 
z
" clip-path="url(#p1476a1e410)" style="fill: #c1d82f; stroke: #c1d82f; stroke-linejoin: miter"/>
   </g>
   <g id="patch_59">
    <path d="M 311.052857 72.960268 
L 325.947605 72.960268 
L 325.947605 58.06552 
L 311.052857 58.06552 
z
" clip-path="url(#p1476a1e410)" style="fill: #c1d82f; stroke: #c1d82f; stroke-linejoin: miter"/>
   </g>
   <g id="patch_60">
    <path d="M 328.926555 72.960268 
L 343.821303 72.960268 
L 343.821303 58.06552 
L 328.926555 58.06552 
z
" clip-path="url(#p1476a1e410)" style="fill: #00a4e4; stroke: #00a4e4; stroke-linejoin: miter"/>
   </g>
   <g id="patch_61">
    <path d="M 346.800252 72.960268 
L 361.695 72.960268 
L 361.695 58.06552 
L 346.800252 58.06552 
z
" clip-path="url(#p1476a1e410)" style="fill: #00a4e4; stroke: #00a4e4; stroke-linejoin: miter"/>
   </g>
   <g id="patch_62">
    <path d="M 346.800252 90.833965 
L 361.695 90.833965 
L 361.695 75.939217 
L 346.800252 75.939217 
z
" clip-path="url(#p1476a1e410)" style="fill: #00a4e4; stroke: #00a4e4; stroke-linejoin: miter"/>
   </g>
   <g id="patch_63">
    <path d="M 328.926555 90.833965 
L 343.821303 90.833965 
L 343.821303 75.939217 
L 328.926555 75.939217 
z
" clip-path="url(#p1476a1e410)" style="fill: #00a4e4; stroke: #00a4e4; stroke-linejoin: miter"/>
   </g>
   <g id="patch_64">
    <path d="M 311.052857 90.833965 
L 325.947605 90.833965 
L 325.947605 75.939217 
L 311.052857 75.939217 
z
" clip-path="url(#p1476a1e410)" style="fill: #00a4e4; stroke: #00a4e4; stroke-linejoin: miter"/>
   </g>
   <g id="patch_65">
    <path d="M 293.17916 90.833965 
L 308.073908 90.833965 
L 308.073908 75.939217 
L 293.17916 75.939217 
z
" clip-path="url(#p1476a1e410)" style="fill: #00a4e4; stroke: #00a4e4; stroke-linejoin: miter"/>
   </g>
   <g id="patch_66">
    <path d="M 275.305462 90.833965 
L 290.20021 90.833965 
L 290.20021 75.939217 
L 275.305462 75.939217 
z
" clip-path="url(#p1476a1e410)" style="fill: #00a4e4; stroke: #00a4e4; stroke-linejoin: miter"/>
   </g>
   <g id="patch_67">
    <path d="M 257.431765 90.833965 
L 272.326513 90.833965 
L 272.326513 75.939217 
L 257.431765 75.939217 
z
" clip-path="url(#p1476a1e410)" style="fill: #00a4e4; stroke: #00a4e4; stroke-linejoin: miter"/>
   </g>
   <g id="patch_68">
    <path d="M 239.558067 90.833965 
L 254.452815 90.833965 
L 254.452815 75.939217 
L 239.558067 75.939217 
z
" clip-path="url(#p1476a1e410)" style="fill: #00a4e4; stroke: #00a4e4; stroke-linejoin: miter"/>
   </g>
   <g id="patch_69">
    <path d="M 221.68437 90.833965 
L 236.579118 90.833965 
L 236.579118 75.939217 
L 221.68437 75.939217 
z
" clip-path="url(#p1476a1e410)" style="fill: #00a4e4; stroke: #00a4e4; stroke-linejoin: miter"/>
   </g>
   <g id="patch_70">
    <path d="M 203.810672 90.833965 
L 218.70542 90.833965 
L 218.70542 75.939217 
L 203.810672 75.939217 
z
" clip-path="url(#p1476a1e410)" style="fill: #00a4e4; stroke: #00a4e4; stroke-linejoin: miter"/>
   </g>
   <g id="patch_71">
    <path d="M 185.936975 90.833965 
L 200.831723 90.833965 
L 200.831723 75.939217 
L 185.936975 75.939217 
z
" clip-path="url(#p1476a1e410)" style="fill: #00a4e4; stroke: #00a4e4; stroke-linejoin: miter"/>
   </g>
   <g id="patch_72">
    <path d="M 168.063277 90.833965 
L 182.958025 90.833965 
L 182.958025 75.939217 
L 168.063277 75.939217 
z
" clip-path="url(#p1476a1e410)" style="fill: #00a4e4; stroke: #00a4e4; stroke-linejoin: miter"/>
   </g>
   <g id="patch_73">
    <path d="M 150.18958 90.833965 
L 165.084328 90.833965 
L 165.084328 75.939217 
L 150.18958 75.939217 
z
" clip-path="url(#p1476a1e410)" style="fill: #00a4e4; stroke: #00a4e4; stroke-linejoin: miter"/>
   </g>
   <g id="patch_74">
    <path d="M 132.315882 90.833965 
L 147.21063 90.833965 
L 147.21063 75.939217 
L 132.315882 75.939217 
z
" clip-path="url(#p1476a1e410)" style="fill: #00a4e4; stroke: #00a4e4; stroke-linejoin: miter"/>
   </g>
   <g id="patch_75">
    <path d="M 114.442185 90.833965 
L 129.336933 90.833965 
L 129.336933 75.939217 
L 114.442185 75.939217 
z
" clip-path="url(#p1476a1e410)" style="fill: #00a4e4; stroke: #00a4e4; stroke-linejoin: miter"/>
   </g>
   <g id="patch_76">
    <path d="M 96.568487 90.833965 
L 111.463235 90.833965 
L 111.463235 75.939217 
L 96.568487 75.939217 
z
" clip-path="url(#p1476a1e410)" style="fill: #00a4e4; stroke: #00a4e4; stroke-linejoin: miter"/>
   </g>
   <g id="patch_77">
    <path d="M 78.69479 90.833965 
L 93.589538 90.833965 
L 93.589538 75.939217 
L 78.69479 75.939217 
z
" clip-path="url(#p1476a1e410)" style="fill: #00a4e4; stroke: #00a4e4; stroke-linejoin: miter"/>
   </g>
   <g id="patch_78">
    <path d="M 60.821092 90.833965 
L 75.71584 90.833965 
L 75.71584 75.939217 
L 60.821092 75.939217 
z
" clip-path="url(#p1476a1e410)" style="fill: #00a4e4; stroke: #00a4e4; stroke-linejoin: miter"/>
   </g>
   <g id="patch_79">
    <path d="M 42.947395 90.833965 
L 57.842143 90.833965 
L 57.842143 75.939217 
L 42.947395 75.939217 
z
" clip-path="url(#p1476a1e410)" style="fill: #00a4e4; stroke: #00a4e4; stroke-linejoin: miter"/>
   </g>
   <g id="patch_80">
    <path d="M 25.073697 90.833965 
L 39.968445 90.833965 
L 39.968445 75.939217 
L 25.073697 75.939217 
z
" clip-path="url(#p1476a1e410)" style="fill: #00a4e4; stroke: #00a4e4; stroke-linejoin: miter"/>
   </g>
   <g id="patch_81">
    <path d="M 7.2 90.833965 
L 22.094748 90.833965 
L 22.094748 75.939217 
L 7.2 75.939217 
z
" clip-path="url(#p1476a1e410)" style="fill: #fbb034; stroke: #fbb034; stroke-linejoin: miter"/>
   </g>
   <g id="patch_82">
    <path d="M 7.2 108.707663 
L 22.094748 108.707663 
L 22.094748 93.812915 
L 7.2 93.812915 
z
" clip-path="url(#p1476a1e410)" style="fill: #fbb034; stroke: #fbb034; stroke-linejoin: miter"/>
   </g>
   <g id="patch_83">
    <path d="M 25.073697 108.707663 
L 39.968445 108.707663 
L 39.968445 93.812915 
L 25.073697 93.812915 
z
" clip-path="url(#p1476a1e410)" style="fill: #fbb034; stroke: #fbb034; stroke-linejoin: miter"/>
   </g>
   <g id="patch_84">
    <path d="M 42.947395 108.707663 
L 57.842143 108.707663 
L 57.842143 93.812915 
L 42.947395 93.812915 
z
" clip-path="url(#p1476a1e410)" style="fill: #fbb034; stroke: #fbb034; stroke-linejoin: miter"/>
   </g>
   <g id="patch_85">
    <path d="M 60.821092 108.707663 
L 75.71584 108.707663 
L 75.71584 93.812915 
L 60.821092 93.812915 
z
" clip-path="url(#p1476a1e410)" style="fill: #fbb034; stroke: #fbb034; stroke-linejoin: miter"/>
   </g>
   <g id="patch_86">
    <path d="M 78.69479 108.707663 
L 93.589538 108.707663 
L 93.589538 93.812915 
L 78.69479 93.812915 
z
" clip-path="url(#p1476a1e410)" style="fill: #fbb034; stroke: #fbb034; stroke-linejoin: miter"/>
   </g>
   <g id="patch_87">
    <path d="M 96.568487 108.707663 
L 111.463235 108.707663 
L 111.463235 93.812915 
L 96.568487 93.812915 
z
" clip-path="url(#p1476a1e410)" style="fill: #fbb034; stroke: #fbb034; stroke-linejoin: miter"/>
   </g>
   <g id="patch_88">
    <path d="M 114.442185 108.707663 
L 129.336933 108.707663 
L 129.336933 93.812915 
L 114.442185 93.812915 
z
" clip-path="url(#p1476a1e410)" style="fill: #fbb034; stroke: #fbb034; stroke-linejoin: miter"/>
   </g>
   <g id="patch_89">
    <path d="M 132.315882 108.707663 
L 147.21063 108.707663 
L 147.21063 93.812915 
L 132.315882 93.812915 
z
" clip-path="url(#p1476a1e410)" style="fill: #fbb034; stroke: #fbb034; stroke-linejoin: miter"/>
   </g>
   <g id="patch_90">
    <path d="M 150.18958 108.707663 
L 165.084328 108.707663 
L 165.084328 93.812915 
L 150.18958 93.812915 
z
" clip-path="url(#p1476a1e410)" style="fill: #fbb034; stroke: #fbb034; stroke-linejoin: miter"/>
   </g>
   <g id="patch_91">
    <path d="M 168.063277 108.707663 
L 182.958025 108.707663 
L 182.958025 93.812915 
L 168.063277 93.812915 
z
" clip-path="url(#p1476a1e410)" style="fill: #fbb034; stroke: #fbb034; stroke-linejoin: miter"/>
   </g>
   <g id="patch_92">
    <path d="M 185.936975 108.707663 
L 200.831723 108.707663 
L 200.831723 93.812915 
L 185.936975 93.812915 
z
" clip-path="url(#p1476a1e410)" style="fill: #6a737b; stroke: #6a737b; stroke-linejoin: miter"/>
   </g>
   <g id="patch_93">
    <path d="M 203.810672 108.707663 
L 218.70542 108.707663 
L 218.70542 93.812915 
L 203.810672 93.812915 
z
" clip-path="url(#p1476a1e410)" style="fill: #6a737b; stroke: #6a737b; stroke-linejoin: miter"/>
   </g>
   <g id="patch_94">
    <path d="M 221.68437 108.707663 
L 236.579118 108.707663 
L 236.579118 93.812915 
L 221.68437 93.812915 
z
" clip-path="url(#p1476a1e410)" style="fill: #6a737b; stroke: #6a737b; stroke-linejoin: miter"/>
   </g>
   <g id="patch_95">
    <path d="M 239.558067 108.707663 
L 254.452815 108.707663 
L 254.452815 93.812915 
L 239.558067 93.812915 
z
" clip-path="url(#p1476a1e410)" style="fill: #6a737b; stroke: #6a737b; stroke-linejoin: miter"/>
   </g>
   <g id="patch_96">
    <path d="M 257.431765 108.707663 
L 272.326513 108.707663 
L 272.326513 93.812915 
L 257.431765 93.812915 
z
" clip-path="url(#p1476a1e410)" style="fill: #6a737b; stroke: #6a737b; stroke-linejoin: miter"/>
   </g>
   <g id="patch_97">
    <path d="M 275.305462 108.707663 
L 290.20021 108.707663 
L 290.20021 93.812915 
L 275.305462 93.812915 
z
" clip-path="url(#p1476a1e410)" style="fill: #6a737b; stroke: #6a737b; stroke-linejoin: miter"/>
   </g>
   <g id="patch_98">
    <path d="M 293.17916 108.707663 
L 308.073908 108.707663 
L 308.073908 93.812915 
L 293.17916 93.812915 
z
" clip-path="url(#p1476a1e410)" style="fill: #6a737b; stroke: #6a737b; stroke-linejoin: miter"/>
   </g>
   <g id="text_1">
    <!-- Vehicle Sales by Vehicle Type -->
    <g transform="translate(7.2 16.318125)scale(0.12 -0.12)">
     <defs>
      <path id="DejaVuSans-56" d="M 1831 0 
L 50 4666 
L 709 4666 
L 2188 738 
L 3669 4666 
L 4325 4666 
L 2547 0 
L 1831 0 
z
" transform="scale(0.015625)"/>
      <path id="DejaVuSans-65" d="M 3597 1894 
L 3597 1613 
L 953 1613 
Q 991 1019 1311 708 
Q 1631 397 2203 397 
Q 2534 397 2845 478 
Q 3156 559 3463 722 
L 3463 178 
Q 3153 47 2828 -22 
Q 2503 -91 2169 -91 
Q 1331 -91 842 396 
Q 353 884 353 1716 
Q 353 2575 817 3079 
Q 1281 3584 2069 3584 
Q 2775 3584 3186 3129 
Q 3597 2675 3597 1894 
z
M 3022 2063 
Q 3016 2534 2758 2815 
Q 2500 3097 2075 3097 
Q 1594 3097 1305 2825 
Q 1016 2553 972 2059 
L 3022 2063 
z
" transform="scale(0.015625)"/>
      <path id="DejaVuSans-68" d="M 3513 2113 
L 3513 0 
L 2938 0 
L 2938 2094 
Q 2938 2591 2744 2837 
Q 2550 3084 2163 3084 
Q 1697 3084 1428 2787 
Q 1159 2491 1159 1978 
L 1159 0 
L 581 0 
L 581 4863 
L 1159 4863 
L 1159 2956 
Q 1366 3272 1645 3428 
Q 1925 3584 2291 3584 
Q 2894 3584 3203 3211 
Q 3513 2838 3513 2113 
z
" transform="scale(0.015625)"/>
      <path id="DejaVuSans-69" d="M 603 3500 
L 1178 3500 
L 1178 0 
L 603 0 
L 603 3500 
z
M 603 4863 
L 1178 4863 
L 1178 4134 
L 603 4134 
L 603 4863 
z
" transform="scale(0.015625)"/>
      <path id="DejaVuSans-63" d="M 3122 3366 
L 3122 2828 
Q 2878 2963 2633 3030 
Q 2388 3097 2138 3097 
Q 1578 3097 1268 2742 
Q 959 2388 959 1747 
Q 959 1106 1268 751 
Q 1578 397 2138 397 
Q 2388 397 2633 464 
Q 2878 531 3122 666 
L 3122 134 
Q 2881 22 2623 -34 
Q 2366 -91 2075 -91 
Q 1284 -91 818 406 
Q 353 903 353 1747 
Q 353 2603 823 3093 
Q 1294 3584 2113 3584 
Q 2378 3584 2631 3529 
Q 2884 3475 3122 3366 
z
" transform="scale(0.015625)"/>
      <path id="DejaVuSans-6c" d="M 603 4863 
L 1178 4863 
L 1178 0 
L 603 0 
L 603 4863 
z
" transform="scale(0.015625)"/>
      <path id="DejaVuSans-20" transform="scale(0.015625)"/>
      <path id="DejaVuSans-53" d="M 3425 4513 
L 3425 3897 
Q 3066 4069 2747 4153 
Q 2428 4238 2131 4238 
Q 1616 4238 1336 4038 
Q 1056 3838 1056 3469 
Q 1056 3159 1242 3001 
Q 1428 2844 1947 2747 
L 2328 2669 
Q 3034 2534 3370 2195 
Q 3706 1856 3706 1288 
Q 3706 609 3251 259 
Q 2797 -91 1919 -91 
Q 1588 -91 1214 -16 
Q 841 59 441 206 
L 441 856 
Q 825 641 1194 531 
Q 1563 422 1919 422 
Q 2459 422 2753 634 
Q 3047 847 3047 1241 
Q 3047 1584 2836 1778 
Q 2625 1972 2144 2069 
L 1759 2144 
Q 1053 2284 737 2584 
Q 422 2884 422 3419 
Q 422 4038 858 4394 
Q 1294 4750 2059 4750 
Q 2388 4750 2728 4690 
Q 3069 4631 3425 4513 
z
" transform="scale(0.015625)"/>
      <path id="DejaVuSans-61" d="M 2194 1759 
Q 1497 1759 1228 1600 
Q 959 1441 959 1056 
Q 959 750 1161 570 
Q 1363 391 1709 391 
Q 2188 391 2477 730 
Q 2766 1069 2766 1631 
L 2766 1759 
L 2194 1759 
z
M 3341 1997 
L 3341 0 
L 2766 0 
L 2766 531 
Q 2569 213 2275 61 
Q 1981 -91 1556 -91 
Q 1019 -91 701 211 
Q 384 513 384 1019 
Q 384 1609 779 1909 
Q 1175 2209 1959 2209 
L 2766 2209 
L 2766 2266 
Q 2766 2663 2505 2880 
Q 2244 3097 1772 3097 
Q 1472 3097 1187 3025 
Q 903 2953 641 2809 
L 641 3341 
Q 956 3463 1253 3523 
Q 1550 3584 1831 3584 
Q 2591 3584 2966 3190 
Q 3341 2797 3341 1997 
z
" transform="scale(0.015625)"/>
      <path id="DejaVuSans-73" d="M 2834 3397 
L 2834 2853 
Q 2591 2978 2328 3040 
Q 2066 3103 1784 3103 
Q 1356 3103 1142 2972 
Q 928 2841 928 2578 
Q 928 2378 1081 2264 
Q 1234 2150 1697 2047 
L 1894 2003 
Q 2506 1872 2764 1633 
Q 3022 1394 3022 966 
Q 3022 478 2636 193 
Q 2250 -91 1575 -91 
Q 1294 -91 989 -36 
Q 684 19 347 128 
L 347 722 
Q 666 556 975 473 
Q 1284 391 1588 391 
Q 1994 391 2212 530 
Q 2431 669 2431 922 
Q 2431 1156 2273 1281 
Q 2116 1406 1581 1522 
L 1381 1569 
Q 847 1681 609 1914 
Q 372 2147 372 2553 
Q 372 3047 722 3315 
Q 1072 3584 1716 3584 
Q 2034 3584 2315 3537 
Q 2597 3491 2834 3397 
z
" transform="scale(0.015625)"/>
      <path id="DejaVuSans-62" d="M 3116 1747 
Q 3116 2381 2855 2742 
Q 2594 3103 2138 3103 
Q 1681 3103 1420 2742 
Q 1159 2381 1159 1747 
Q 1159 1113 1420 752 
Q 1681 391 2138 391 
Q 2594 391 2855 752 
Q 3116 1113 3116 1747 
z
M 1159 2969 
Q 1341 3281 1617 3432 
Q 1894 3584 2278 3584 
Q 2916 3584 3314 3078 
Q 3713 2572 3713 1747 
Q 3713 922 3314 415 
Q 2916 -91 2278 -91 
Q 1894 -91 1617 61 
Q 1341 213 1159 525 
L 1159 0 
L 581 0 
L 581 4863 
L 1159 4863 
L 1159 2969 
z
" transform="scale(0.015625)"/>
      <path id="DejaVuSans-79" d="M 2059 -325 
Q 1816 -950 1584 -1140 
Q 1353 -1331 966 -1331 
L 506 -1331 
L 506 -850 
L 844 -850 
Q 1081 -850 1212 -737 
Q 1344 -625 1503 -206 
L 1606 56 
L 191 3500 
L 800 3500 
L 1894 763 
L 2988 3500 
L 3597 3500 
L 2059 -325 
z
" transform="scale(0.015625)"/>
      <path id="DejaVuSans-54" d="M -19 4666 
L 3928 4666 
L 3928 4134 
L 2272 4134 
L 2272 0 
L 1638 0 
L 1638 4134 
L -19 4134 
L -19 4666 
z
" transform="scale(0.015625)"/>
      <path id="DejaVuSans-70" d="M 1159 525 
L 1159 -1331 
L 581 -1331 
L 581 3500 
L 1159 3500 
L 1159 2969 
Q 1341 3281 1617 3432 
Q 1894 3584 2278 3584 
Q 2916 3584 3314 3078 
Q 3713 2572 3713 1747 
Q 3713 922 3314 415 
Q 2916 -91 2278 -91 
Q 1894 -91 1617 61 
Q 1341 213 1159 525 
z
M 3116 1747 
Q 3116 2381 2855 2742 
Q 2594 3103 2138 3103 
Q 1681 3103 1420 2742 
Q 1159 2381 1159 1747 
Q 1159 1113 1420 752 
Q 1681 391 2138 391 
Q 2594 391 2855 752 
Q 3116 1113 3116 1747 
z
" transform="scale(0.015625)"/>
     </defs>
     <use xlink:href="#DejaVuSans-56"/>
     <use xlink:href="#DejaVuSans-65" x="60.658203"/>
     <use xlink:href="#DejaVuSans-68" x="122.181641"/>
     <use xlink:href="#DejaVuSans-69" x="185.560547"/>
     <use xlink:href="#DejaVuSans-63" x="213.34375"/>
     <use xlink:href="#DejaVuSans-6c" x="268.324219"/>
     <use xlink:href="#DejaVuSans-65" x="296.107422"/>
     <use xlink:href="#DejaVuSans-20" x="357.630859"/>
     <use xlink:href="#DejaVuSans-53" x="389.417969"/>
     <use xlink:href="#DejaVuSans-61" x="452.894531"/>
     <use xlink:href="#DejaVuSans-6c" x="514.173828"/>
     <use xlink:href="#DejaVuSans-65" x="541.957031"/>
     <use xlink:href="#DejaVuSans-73" x="603.480469"/>
     <use xlink:href="#DejaVuSans-20" x="655.580078"/>
     <use xlink:href="#DejaVuSans-62" x="687.367188"/>
     <use xlink:href="#DejaVuSans-79" x="750.84375"/>
     <use xlink:href="#DejaVuSans-20" x="810.023438"/>
     <use xlink:href="#DejaVuSans-56" x="841.810547"/>
     <use xlink:href="#DejaVuSans-65" x="902.46875"/>
     <use xlink:href="#DejaVuSans-68" x="963.992188"/>
     <use xlink:href="#DejaVuSans-69" x="1027.371094"/>
     <use xlink:href="#DejaVuSans-63" x="1055.154297"/>
     <use xlink:href="#DejaVuSans-6c" x="1110.134766"/>
     <use xlink:href="#DejaVuSans-65" x="1137.917969"/>
     <use xlink:href="#DejaVuSans-20" x="1199.441406"/>
     <use xlink:href="#DejaVuSans-54" x="1231.228516"/>
     <use xlink:href="#DejaVuSans-79" x="1276.6875"/>
     <use xlink:href="#DejaVuSans-70" x="1335.867188"/>
     <use xlink:href="#DejaVuSans-65" x="1399.34375"/>
    </g>
   </g>
   <g id="legend_1">
    <g id="patch_99">
     <path d="M 14.2 138.263478 
L 447.025 138.263478 
Q 449.025 138.263478 449.025 136.263478 
L 449.025 122.585353 
Q 449.025 120.585353 447.025 120.585353 
L 14.2 120.585353 
Q 12.2 120.585353 12.2 122.585353 
L 12.2 136.263478 
Q 12.2 138.263478 14.2 138.263478 
L 14.2 138.263478 
z
" style="fill: none; opacity: 0"/>
    </g>
    <g id="patch_100">
     <path d="M 16.2 132.18379 
L 36.2 132.18379 
L 36.2 125.18379 
L 16.2 125.18379 
z
" style="fill: #c1d82f; stroke: #c1d82f; stroke-linejoin: miter"/>
    </g>
    <g id="text_2">
     <!-- Car (58%) -->
     <g transform="translate(44.2 132.18379)scale(0.1 -0.1)">
      <defs>
       <path id="DejaVuSans-43" d="M 4122 4306 
L 4122 3641 
Q 3803 3938 3442 4084 
Q 3081 4231 2675 4231 
Q 1875 4231 1450 3742 
Q 1025 3253 1025 2328 
Q 1025 1406 1450 917 
Q 1875 428 2675 428 
Q 3081 428 3442 575 
Q 3803 722 4122 1019 
L 4122 359 
Q 3791 134 3420 21 
Q 3050 -91 2638 -91 
Q 1578 -91 968 557 
Q 359 1206 359 2328 
Q 359 3453 968 4101 
Q 1578 4750 2638 4750 
Q 3056 4750 3426 4639 
Q 3797 4528 4122 4306 
z
" transform="scale(0.015625)"/>
       <path id="DejaVuSans-72" d="M 2631 2963 
Q 2534 3019 2420 3045 
Q 2306 3072 2169 3072 
Q 1681 3072 1420 2755 
Q 1159 2438 1159 1844 
L 1159 0 
L 581 0 
L 581 3500 
L 1159 3500 
L 1159 2956 
Q 1341 3275 1631 3429 
Q 1922 3584 2338 3584 
Q 2397 3584 2469 3576 
Q 2541 3569 2628 3553 
L 2631 2963 
z
" transform="scale(0.015625)"/>
       <path id="DejaVuSans-28" d="M 1984 4856 
Q 1566 4138 1362 3434 
Q 1159 2731 1159 2009 
Q 1159 1288 1364 580 
Q 1569 -128 1984 -844 
L 1484 -844 
Q 1016 -109 783 600 
Q 550 1309 550 2009 
Q 550 2706 781 3412 
Q 1013 4119 1484 4856 
L 1984 4856 
z
" transform="scale(0.015625)"/>
       <path id="DejaVuSans-35" d="M 691 4666 
L 3169 4666 
L 3169 4134 
L 1269 4134 
L 1269 2991 
Q 1406 3038 1543 3061 
Q 1681 3084 1819 3084 
Q 2600 3084 3056 2656 
Q 3513 2228 3513 1497 
Q 3513 744 3044 326 
Q 2575 -91 1722 -91 
Q 1428 -91 1123 -41 
Q 819 9 494 109 
L 494 744 
Q 775 591 1075 516 
Q 1375 441 1709 441 
Q 2250 441 2565 725 
Q 2881 1009 2881 1497 
Q 2881 1984 2565 2268 
Q 2250 2553 1709 2553 
Q 1456 2553 1204 2497 
Q 953 2441 691 2322 
L 691 4666 
z
" transform="scale(0.015625)"/>
       <path id="DejaVuSans-38" d="M 2034 2216 
Q 1584 2216 1326 1975 
Q 1069 1734 1069 1313 
Q 1069 891 1326 650 
Q 1584 409 2034 409 
Q 2484 409 2743 651 
Q 3003 894 3003 1313 
Q 3003 1734 2745 1975 
Q 2488 2216 2034 2216 
z
M 1403 2484 
Q 997 2584 770 2862 
Q 544 3141 544 3541 
Q 544 4100 942 4425 
Q 1341 4750 2034 4750 
Q 2731 4750 3128 4425 
Q 3525 4100 3525 3541 
Q 3525 3141 3298 2862 
Q 3072 2584 2669 2484 
Q 3125 2378 3379 2068 
Q 3634 1759 3634 1313 
Q 3634 634 3220 271 
Q 2806 -91 2034 -91 
Q 1263 -91 848 271 
Q 434 634 434 1313 
Q 434 1759 690 2068 
Q 947 2378 1403 2484 
z
M 1172 3481 
Q 1172 3119 1398 2916 
Q 1625 2713 2034 2713 
Q 2441 2713 2670 2916 
Q 2900 3119 2900 3481 
Q 2900 3844 2670 4047 
Q 2441 4250 2034 4250 
Q 1625 4250 1398 4047 
Q 1172 3844 1172 3481 
z
" transform="scale(0.015625)"/>
       <path id="DejaVuSans-25" d="M 4653 2053 
Q 4381 2053 4226 1822 
Q 4072 1591 4072 1178 
Q 4072 772 4226 539 
Q 4381 306 4653 306 
Q 4919 306 5073 539 
Q 5228 772 5228 1178 
Q 5228 1588 5073 1820 
Q 4919 2053 4653 2053 
z
M 4653 2450 
Q 5147 2450 5437 2106 
Q 5728 1763 5728 1178 
Q 5728 594 5436 251 
Q 5144 -91 4653 -91 
Q 4153 -91 3862 251 
Q 3572 594 3572 1178 
Q 3572 1766 3864 2108 
Q 4156 2450 4653 2450 
z
M 1428 4353 
Q 1159 4353 1004 4120 
Q 850 3888 850 3481 
Q 850 3069 1003 2837 
Q 1156 2606 1428 2606 
Q 1700 2606 1854 2837 
Q 2009 3069 2009 3481 
Q 2009 3884 1853 4118 
Q 1697 4353 1428 4353 
z
M 4250 4750 
L 4750 4750 
L 1831 -91 
L 1331 -91 
L 4250 4750 
z
M 1428 4750 
Q 1922 4750 2215 4408 
Q 2509 4066 2509 3481 
Q 2509 2891 2217 2550 
Q 1925 2209 1428 2209 
Q 931 2209 642 2551 
Q 353 2894 353 3481 
Q 353 4063 643 4406 
Q 934 4750 1428 4750 
z
" transform="scale(0.015625)"/>
       <path id="DejaVuSans-29" d="M 513 4856 
L 1013 4856 
Q 1481 4119 1714 3412 
Q 1947 2706 1947 2009 
Q 1947 1309 1714 600 
Q 1481 -109 1013 -844 
L 513 -844 
Q 928 -128 1133 580 
Q 1338 1288 1338 2009 
Q 1338 2731 1133 3434 
Q 928 4138 513 4856 
z
" transform="scale(0.015625)"/>
      </defs>
      <use xlink:href="#DejaVuSans-43"/>
      <use xlink:href="#DejaVuSans-61" x="69.824219"/>
      <use xlink:href="#DejaVuSans-72" x="131.103516"/>
      <use xlink:href="#DejaVuSans-20" x="172.216797"/>
      <use xlink:href="#DejaVuSans-28" x="204.003906"/>
      <use xlink:href="#DejaVuSans-35" x="243.017578"/>
      <use xlink:href="#DejaVuSans-38" x="306.640625"/>
      <use xlink:href="#DejaVuSans-25" x="370.263672"/>
      <use xlink:href="#DejaVuSans-29" x="465.283203"/>
     </g>
    </g>
    <g id="patch_101">
     <path d="M 114.629688 132.18379 
L 134.629687 132.18379 
L 134.629687 125.18379 
L 114.629688 125.18379 
z
" style="fill: #00a4e4; stroke: #00a4e4; stroke-linejoin: miter"/>
    </g>
    <g id="text_3">
     <!-- Pickup (21%) -->
     <g transform="translate(142.629687 132.18379)scale(0.1 -0.1)">
      <defs>
       <path id="DejaVuSans-50" d="M 1259 4147 
L 1259 2394 
L 2053 2394 
Q 2494 2394 2734 2622 
Q 2975 2850 2975 3272 
Q 2975 3691 2734 3919 
Q 2494 4147 2053 4147 
L 1259 4147 
z
M 628 4666 
L 2053 4666 
Q 2838 4666 3239 4311 
Q 3641 3956 3641 3272 
Q 3641 2581 3239 2228 
Q 2838 1875 2053 1875 
L 1259 1875 
L 1259 0 
L 628 0 
L 628 4666 
z
" transform="scale(0.015625)"/>
       <path id="DejaVuSans-6b" d="M 581 4863 
L 1159 4863 
L 1159 1991 
L 2875 3500 
L 3609 3500 
L 1753 1863 
L 3688 0 
L 2938 0 
L 1159 1709 
L 1159 0 
L 581 0 
L 581 4863 
z
" transform="scale(0.015625)"/>
       <path id="DejaVuSans-75" d="M 544 1381 
L 544 3500 
L 1119 3500 
L 1119 1403 
Q 1119 906 1312 657 
Q 1506 409 1894 409 
Q 2359 409 2629 706 
Q 2900 1003 2900 1516 
L 2900 3500 
L 3475 3500 
L 3475 0 
L 2900 0 
L 2900 538 
Q 2691 219 2414 64 
Q 2138 -91 1772 -91 
Q 1169 -91 856 284 
Q 544 659 544 1381 
z
M 1991 3584 
L 1991 3584 
z
" transform="scale(0.015625)"/>
       <path id="DejaVuSans-32" d="M 1228 531 
L 3431 531 
L 3431 0 
L 469 0 
L 469 531 
Q 828 903 1448 1529 
Q 2069 2156 2228 2338 
Q 2531 2678 2651 2914 
Q 2772 3150 2772 3378 
Q 2772 3750 2511 3984 
Q 2250 4219 1831 4219 
Q 1534 4219 1204 4116 
Q 875 4013 500 3803 
L 500 4441 
Q 881 4594 1212 4672 
Q 1544 4750 1819 4750 
Q 2544 4750 2975 4387 
Q 3406 4025 3406 3419 
Q 3406 3131 3298 2873 
Q 3191 2616 2906 2266 
Q 2828 2175 2409 1742 
Q 1991 1309 1228 531 
z
" transform="scale(0.015625)"/>
       <path id="DejaVuSans-31" d="M 794 531 
L 1825 531 
L 1825 4091 
L 703 3866 
L 703 4441 
L 1819 4666 
L 2450 4666 
L 2450 531 
L 3481 531 
L 3481 0 
L 794 0 
L 794 531 
z
" transform="scale(0.015625)"/>
      </defs>
      <use xlink:href="#DejaVuSans-50"/>
      <use xlink:href="#DejaVuSans-69" x="58.052734"/>
      <use xlink:href="#DejaVuSans-63" x="85.835938"/>
      <use xlink:href="#DejaVuSans-6b" x="140.816406"/>
      <use xlink:href="#DejaVuSans-75" x="195.601562"/>
      <use xlink:href="#DejaVuSans-70" x="258.980469"/>
      <use xlink:href="#DejaVuSans-20" x="322.457031"/>
      <use xlink:href="#DejaVuSans-28" x="354.244141"/>
      <use xlink:href="#DejaVuSans-32" x="393.257812"/>
      <use xlink:href="#DejaVuSans-31" x="456.880859"/>
      <use xlink:href="#DejaVuSans-25" x="520.503906"/>
      <use xlink:href="#DejaVuSans-29" x="615.523438"/>
     </g>
    </g>
    <g id="patch_102">
     <path d="M 228.082812 132.18379 
L 248.082812 132.18379 
L 248.082812 125.18379 
L 228.082812 125.18379 
z
" style="fill: #fbb034; stroke: #fbb034; stroke-linejoin: miter"/>
    </g>
    <g id="text_4">
     <!-- Truck (11%) -->
     <g transform="translate(256.082812 132.18379)scale(0.1 -0.1)">
      <use xlink:href="#DejaVuSans-54"/>
      <use xlink:href="#DejaVuSans-72" x="46.333984"/>
      <use xlink:href="#DejaVuSans-75" x="87.447266"/>
      <use xlink:href="#DejaVuSans-63" x="150.826172"/>
      <use xlink:href="#DejaVuSans-6b" x="205.806641"/>
      <use xlink:href="#DejaVuSans-20" x="263.716797"/>
      <use xlink:href="#DejaVuSans-28" x="295.503906"/>
      <use xlink:href="#DejaVuSans-31" x="334.517578"/>
      <use xlink:href="#DejaVuSans-31" x="398.140625"/>
      <use xlink:href="#DejaVuSans-25" x="461.763672"/>
      <use xlink:href="#DejaVuSans-29" x="556.783203"/>
     </g>
    </g>
    <g id="patch_103">
     <path d="M 335.660937 132.18379 
L 355.660937 132.18379 
L 355.660937 125.18379 
L 335.660937 125.18379 
z
" style="fill: #6a737b; stroke: #6a737b; stroke-linejoin: miter"/>
    </g>
    <g id="text_5">
     <!-- Motorcycle (7%) -->
     <g transform="translate(363.660937 132.18379)scale(0.1 -0.1)">
      <defs>
       <path id="DejaVuSans-4d" d="M 628 4666 
L 1569 4666 
L 2759 1491 
L 3956 4666 
L 4897 4666 
L 4897 0 
L 4281 0 
L 4281 4097 
L 3078 897 
L 2444 897 
L 1241 4097 
L 1241 0 
L 628 0 
L 628 4666 
z
" transform="scale(0.015625)"/>
       <path id="DejaVuSans-6f" d="M 1959 3097 
Q 1497 3097 1228 2736 
Q 959 2375 959 1747 
Q 959 1119 1226 758 
Q 1494 397 1959 397 
Q 2419 397 2687 759 
Q 2956 1122 2956 1747 
Q 2956 2369 2687 2733 
Q 2419 3097 1959 3097 
z
M 1959 3584 
Q 2709 3584 3137 3096 
Q 3566 2609 3566 1747 
Q 3566 888 3137 398 
Q 2709 -91 1959 -91 
Q 1206 -91 779 398 
Q 353 888 353 1747 
Q 353 2609 779 3096 
Q 1206 3584 1959 3584 
z
" transform="scale(0.015625)"/>
       <path id="DejaVuSans-74" d="M 1172 4494 
L 1172 3500 
L 2356 3500 
L 2356 3053 
L 1172 3053 
L 1172 1153 
Q 1172 725 1289 603 
Q 1406 481 1766 481 
L 2356 481 
L 2356 0 
L 1766 0 
Q 1100 0 847 248 
Q 594 497 594 1153 
L 594 3053 
L 172 3053 
L 172 3500 
L 594 3500 
L 594 4494 
L 1172 4494 
z
" transform="scale(0.015625)"/>
       <path id="DejaVuSans-37" d="M 525 4666 
L 3525 4666 
L 3525 4397 
L 1831 0 
L 1172 0 
L 2766 4134 
L 525 4134 
L 525 4666 
z
" transform="scale(0.015625)"/>
      </defs>
      <use xlink:href="#DejaVuSans-4d"/>
      <use xlink:href="#DejaVuSans-6f" x="86.279297"/>
      <use xlink:href="#DejaVuSans-74" x="147.460938"/>
      <use xlink:href="#DejaVuSans-6f" x="186.669922"/>
      <use xlink:href="#DejaVuSans-72" x="247.851562"/>
      <use xlink:href="#DejaVuSans-63" x="286.714844"/>
      <use xlink:href="#DejaVuSans-79" x="341.695312"/>
      <use xlink:href="#DejaVuSans-63" x="400.875"/>
      <use xlink:href="#DejaVuSans-6c" x="455.855469"/>
      <use xlink:href="#DejaVuSans-65" x="483.638672"/>
      <use xlink:href="#DejaVuSans-20" x="545.162109"/>
      <use xlink:href="#DejaVuSans-28" x="576.949219"/>
      <use xlink:href="#DejaVuSans-37" x="615.962891"/>
      <use xlink:href="#DejaVuSans-25" x="679.585938"/>
      <use xlink:href="#DejaVuSans-29" x="774.605469"/>
     </g>
    </g>
   </g>
  </g>
 </g>
 <defs>
  <clipPath id="p1476a1e410">
   <rect x="7.2" y="22.318125" width="354.495" height="86.389538"/>
  </clipPath>
 </defs>
</svg>
